<svg id="about" width="48" height="48" viewBox="0 0 48 42" fill="none" xmlns="http://www.w3.org/2000/svg">
<path d="M43.4286 0H4.57143C3.35901 0 2.19625 0.421427 1.33894 1.17157C0.481631 1.92172 0 2.93913 0 4L0 38C0 39.0609 0.481631 40.0783 1.33894 40.8284C2.19625 41.5786 3.35901 42 4.57143 42H43.4286C44.641 42 45.8038 41.5786 46.6611 40.8284C47.5184 40.0783 48 39.0609 48 38V4C48 2.93913 47.5184 1.92172 46.6611 1.17157C45.8038 0.421427 44.641 0 43.4286 0ZM27.4286 35H22.8571C22.2509 35 21.6696 34.7893 21.2409 34.4142C20.8122 34.0391 20.5714 33.5304 20.5714 33V18H25.1429C25.7491 18 26.3304 18.2107 26.7591 18.5858C27.1878 18.9609 27.4286 19.4696 27.4286 20V35ZM24 13C23.3219 13 22.659 12.8241 22.0952 12.4944C21.5314 12.1648 21.0919 11.6962 20.8324 11.1481C20.5729 10.5999 20.505 9.99667 20.6373 9.41473C20.7696 8.83279 21.0961 8.29824 21.5756 7.87868C22.0551 7.45912 22.666 7.1734 23.3311 7.05764C23.9962 6.94189 24.6856 7.0013 25.3121 7.22836C25.9385 7.45542 26.474 7.83994 26.8508 8.33329C27.2275 8.82664 27.4286 9.40666 27.4286 10C27.4286 10.7956 27.0674 11.5587 26.4244 12.1213C25.7814 12.6839 24.9093 13 24 13Z" fill="currentColor"/>
</svg>
