<svg id="add_document" width="48" height="48" viewBox="0 0 48 44" fill="none" xmlns="http://www.w3.org/2000/svg">
<g clip-path="url(#clip0_6013_51422)">
<path d="M47.06 0H18.94C18.8126 0.00387926 18.6872 0.0328294 18.571 0.0851955C18.4548 0.137562 18.35 0.212317 18.2627 0.305188C18.1754 0.398059 18.1073 0.507225 18.0622 0.626445C18.0171 0.745666 17.996 0.872603 18 1V26H24C25.3261 26 26.5978 26.5268 27.5355 27.4645C28.4732 28.4021 29 29.6739 29 31C29 32.3261 28.4732 33.5979 27.5355 34.5355C26.5978 35.4732 25.3261 36 24 36H18V41C17.996 41.1274 18.0171 41.2543 18.0622 41.3736C18.1073 41.4928 18.1754 41.6019 18.2627 41.6948C18.35 41.7877 18.4548 41.8624 18.571 41.9148C18.6872 41.9672 18.8126 41.9961 18.94 42H39V35.78C39.0018 35.0433 39.2953 34.3372 39.8163 33.8163C40.3372 33.2953 41.0433 33.0018 41.78 33H48V1C48.004 0.872603 47.9828 0.745666 47.9378 0.626445C47.8927 0.507225 47.8245 0.398059 47.7372 0.305188C47.6499 0.212317 47.5452 0.137562 47.429 0.0851955C47.3128 0.0328294 47.1874 0.00387926 47.06 0ZM42 23H24C23.7348 23 23.4804 22.8946 23.2929 22.7071C23.1053 22.5196 23 22.2652 23 22C23 21.7348 23.1053 21.4804 23.2929 21.2929C23.4804 21.1054 23.7348 21 24 21H42C42.2652 21 42.5196 21.1054 42.7071 21.2929C42.8946 21.4804 43 21.7348 43 22C43 22.2652 42.8946 22.5196 42.7071 22.7071C42.5196 22.8946 42.2652 23 42 23ZM42 17H24C23.7348 17 23.4804 16.8946 23.2929 16.7071C23.1053 16.5196 23 16.2652 23 16C23 15.7348 23.1053 15.4804 23.2929 15.2929C23.4804 15.1054 23.7348 15 24 15H42C42.2652 15 42.5196 15.1054 42.7071 15.2929C42.8946 15.4804 43 15.7348 43 16C43 16.2652 42.8946 16.5196 42.7071 16.7071C42.5196 16.8946 42.2652 17 42 17ZM42 11H24C23.7348 11 23.4804 10.8946 23.2929 10.7071C23.1053 10.5196 23 10.2652 23 10C23 9.73478 23.1053 9.48043 23.2929 9.29289C23.4804 9.10536 23.7348 9 24 9H42C42.2652 9 42.5196 9.10536 42.7071 9.29289C42.8946 9.48043 43 9.73478 43 10C43 10.2652 42.8946 10.5196 42.7071 10.7071C42.5196 10.8946 42.2652 11 42 11Z" fill="currentColor"/>
<path d="M41.78 35C41.5731 35 41.3747 35.0822 41.2285 35.2285C41.0822 35.3747 41 35.5731 41 35.78V42L48 35H41.78ZM24 29H15V20C15 19.4696 14.7893 18.9609 14.4142 18.5858C14.0391 18.2107 13.5304 18 13 18C12.4696 18 11.9609 18.2107 11.5858 18.5858C11.2107 18.9609 11 19.4696 11 20V29H2C1.46957 29 0.960859 29.2107 0.585786 29.5858C0.210714 29.9609 0 30.4696 0 31C0 31.5304 0.210714 32.0391 0.585786 32.4142C0.960859 32.7893 1.46957 33 2 33H11V42C11 42.5304 11.2107 43.0391 11.5858 43.4142C11.9609 43.7893 12.4696 44 13 44C13.5304 44 14.0391 43.7893 14.4142 43.4142C14.7893 43.0391 15 42.5304 15 42V33H24C24.5304 33 25.0391 32.7893 25.4142 32.4142C25.7893 32.0391 26 31.5304 26 31C26 30.4696 25.7893 29.9609 25.4142 29.5858C25.0391 29.2107 24.5304 29 24 29Z" fill="currentColor"/>
</g>
<defs>
<clipPath id="clip0_6013_51422">
<rect width="48" height="44" fill="white"/>
</clipPath>
</defs>
</svg>
