<svg id="advocacy" width="48" height="48" viewBox="0 0 48 33" fill="none" xmlns="http://www.w3.org/2000/svg">
<g clip-path="url(#clip0_6013_51430)">
<path d="M31.9496 0.23919L14.5573 9.48719C14.3794 9.58621 14.2316 9.73139 14.1294 9.90741C14.0273 10.0834 13.9746 10.2837 13.9769 10.4872V22.5142C13.9746 22.7176 14.0273 22.918 14.1294 23.094C14.2316 23.27 14.3794 23.4152 14.5573 23.5142L31.9496 32.7612C32.2796 32.9243 32.6465 32.9983 33.014 32.9759C33.3814 32.9534 33.7366 32.8353 34.0442 32.6331C34.3517 32.431 34.601 32.152 34.7673 31.8238C34.9335 31.4955 35.0109 31.1296 34.9918 30.7622V2.23819C35.0111 1.87073 34.9339 1.50462 34.7677 1.17626C34.6015 0.847892 34.3522 0.568711 34.0446 0.366473C33.737 0.164234 33.3818 0.0459837 33.0142 0.0234783C32.6467 0.000972882 32.2797 0.0759966 31.9496 0.23919ZM10.9738 10.0002H3.00213C2.20591 10.0002 1.44231 10.3163 0.879302 10.8789C0.316295 11.4415 0 12.2045 0 13.0002L0 20.0002C0 20.7958 0.316295 21.5589 0.879302 22.1215C1.44231 22.6841 2.20591 23.0002 3.00213 23.0002H3.96881V29.5002C3.96881 30.1632 4.23239 30.7991 4.70156 31.268C5.17074 31.7368 5.80707 32.0002 6.47058 32.0002C7.13409 32.0002 7.77043 31.7368 8.2396 31.268C8.70878 30.7991 8.97235 30.1632 8.97235 29.5002V23.0002H10.9738C11.2392 23.0002 11.4937 22.8948 11.6814 22.7073C11.8691 22.5198 11.9745 22.2654 11.9745 22.0002V11.0002C11.9745 10.735 11.8691 10.4806 11.6814 10.2931C11.4937 10.1055 11.2392 10.0002 10.9738 10.0002ZM46.4989 15.0002H39.494C39.0959 15.0002 38.7141 15.1582 38.4326 15.4395C38.1511 15.7208 37.9929 16.1024 37.9929 16.5002C37.9929 16.898 38.1511 17.2795 38.4326 17.5608C38.7141 17.8422 39.0959 18.0002 39.494 18.0002H46.4989C46.897 18.0002 47.2788 17.8422 47.5603 17.5608C47.8419 17.2795 48 16.898 48 16.5002C48 16.1024 47.8419 15.7208 47.5603 15.4395C47.2788 15.1582 46.897 15.0002 46.4989 15.0002ZM40.1825 10.7992L46.2488 7.29919C46.4208 7.20142 46.5719 7.07059 46.6932 6.91425C46.8145 6.75791 46.9036 6.57914 46.9555 6.38823C47.0073 6.19732 47.0209 5.99804 46.9954 5.80187C46.9699 5.6057 46.9058 5.41651 46.8068 5.2452C46.7078 5.07388 46.5759 4.92382 46.4186 4.80366C46.2614 4.6835 46.0819 4.5956 45.8905 4.54504C45.6991 4.49448 45.4996 4.48224 45.3035 4.50904C45.1074 4.53584 44.9185 4.60114 44.7477 4.70119L38.6814 8.20119C38.5093 8.29896 38.3583 8.42979 38.237 8.58613C38.1157 8.74247 38.0266 8.92124 37.9747 9.11215C37.9228 9.30306 37.9092 9.50234 37.9348 9.69851C37.9603 9.89468 38.0244 10.0839 38.1234 10.2552C38.2223 10.4265 38.3543 10.5766 38.5115 10.6967C38.6688 10.8169 38.8483 10.9048 39.0396 10.9553C39.231 11.0059 39.4305 11.0181 39.6267 10.9913C39.8228 10.9645 40.0117 10.8992 40.1825 10.7992ZM46.2488 25.7012L40.1825 22.2012C40.0117 22.1011 39.8228 22.0358 39.6267 22.009C39.4305 21.9822 39.231 21.9945 39.0396 22.045C38.8483 22.0956 38.6688 22.1835 38.5115 22.3037C38.3543 22.4238 38.2223 22.5739 38.1234 22.7452C38.0244 22.9165 37.9603 23.1057 37.9348 23.3019C37.9092 23.498 37.9228 23.6973 37.9747 23.8882C38.0266 24.0791 38.1157 24.2579 38.237 24.4142C38.3583 24.5706 38.5093 24.7014 38.6814 24.7992L44.7477 28.2992C44.9185 28.3992 45.1074 28.4645 45.3035 28.4913C45.4996 28.5181 45.6991 28.5059 45.8905 28.4553C46.0819 28.4048 46.2614 28.3169 46.4186 28.1967C46.5759 28.0766 46.7078 27.9265 46.8068 27.7552C46.9058 27.5839 46.9699 27.3947 46.9954 27.1985C47.0209 27.0023 47.0073 26.8031 46.9555 26.6122C46.9036 26.4212 46.8145 26.2425 46.6932 26.0861C46.5719 25.9298 46.4208 25.799 46.2488 25.7012Z" fill="currentColor"/>
</g>
<defs>
<clipPath id="clip0_6013_51430">
<rect width="48" height="33" fill="white"/>
</clipPath>
</defs>
</svg>
