<svg id="affected" width="48" height="48" viewBox="0 0 48 48" fill="none" xmlns="http://www.w3.org/2000/svg">
<g clip-path="url(#clip0_6013_51433)">
<path d="M7.68901 37.4038L0.579008 44.5938C0.389222 44.7794 0.238272 45.0009 0.134956 45.2453C0.0316405 45.4898 -0.0219743 45.7525 -0.0227629 46.0179C-0.0235514 46.2833 0.028502 46.5462 0.130363 46.7914C0.232225 47.0365 0.381856 47.2588 0.570536 47.4455C0.759215 47.6322 0.983168 47.7795 1.22934 47.8787C1.47551 47.978 1.73898 48.0273 2.00439 48.0236C2.26979 48.02 2.53182 47.9636 2.77521 47.8577C3.0186 47.7518 3.23847 47.5985 3.42201 47.4068L10.532 40.2168C10.7218 40.0312 10.8727 39.8098 10.9761 39.5653C11.0794 39.3208 11.133 39.0581 11.1338 38.7927C11.1346 38.5273 11.0825 38.2644 10.9807 38.0193C10.8788 37.7742 10.7292 37.5518 10.5405 37.3651C10.3518 37.1784 10.1278 37.0311 9.88167 36.9319C9.6355 36.8326 9.37204 36.7834 9.10663 36.787C8.84123 36.7906 8.57919 36.847 8.33581 36.9529C8.09242 37.0588 7.87255 37.2121 7.68901 37.4038ZM38.81 11.1098C39.3363 11.11 39.8415 10.9027 40.216 10.5328L47.406 3.42281C47.7833 3.04991 47.997 2.54242 48.0001 2.01197C48.0032 1.48153 47.7954 0.971576 47.4225 0.594306C47.0496 0.217035 46.5421 0.00334849 46.0117 0.000254134C45.4812 -0.00284022 44.9713 0.204911 44.594 0.577806L37.404 7.68781C37.1221 7.9666 36.9294 8.32289 36.8505 8.71141C36.7715 9.09994 36.8098 9.50317 36.9605 9.86989C37.1111 10.2366 37.3674 10.5503 37.6967 10.771C38.026 10.9918 38.4135 11.1097 38.81 11.1098ZM40.3 37.4118C39.9264 37.0352 39.4186 36.8224 38.8881 36.8203C38.3577 36.8181 37.8481 37.0267 37.4715 37.4003C37.0949 37.7739 36.8821 38.2817 36.88 38.8122C36.8778 39.3426 37.0864 39.8522 37.46 40.2288L44.58 47.4088C44.765 47.5953 44.9849 47.7435 45.2271 47.845C45.4694 47.9465 45.7292 47.9993 45.9919 48.0004C46.2545 48.0014 46.5148 47.9507 46.7579 47.8512C47.0009 47.7517 47.222 47.6053 47.4085 47.4203C47.595 47.2353 47.7432 47.0155 47.8447 46.7732C47.9462 46.531 47.999 46.2711 48.0001 46.0084C48.0011 45.7458 47.9505 45.4855 47.8509 45.2424C47.7514 44.9994 47.605 44.7783 47.42 44.5918L40.3 37.4118ZM7.77201 10.5398C8.1507 10.9028 8.65686 11.1026 9.18141 11.0959C9.70597 11.0893 10.2069 10.8768 10.5763 10.5043C10.9456 10.1318 11.1539 9.62903 11.1561 9.10444C11.1583 8.57985 10.9542 8.0754 10.588 7.69981L3.40801 0.579806C3.22267 0.389731 3.00134 0.238457 2.75693 0.134807C2.51252 0.031156 2.24992 -0.0227977 1.98444 -0.0239083C1.71896 -0.0250189 1.45592 0.0267359 1.21065 0.128338C0.965383 0.22994 0.742797 0.379357 0.555872 0.567874C0.368948 0.756392 0.221426 0.980238 0.121909 1.22636C0.0223919 1.47248 -0.0271287 1.73595 -0.0237652 2.00141C-0.0204018 2.26687 0.0357785 2.52901 0.1415 2.77253C0.247221 3.01605 0.400367 3.23608 0.592008 3.41981L7.77201 10.5398ZM24 9.99981C16.589 9.99981 11 15.1598 11 21.9998C11 22.5302 11.2107 23.0389 11.5858 23.414C11.9609 23.7891 12.4696 23.9998 13 23.9998C13.5304 23.9998 14.0391 23.7891 14.4142 23.414C14.7893 23.0389 15 22.5302 15 21.9998C14.9739 20.615 15.3344 19.2503 16.041 18.059C16.7476 16.8677 17.7723 15.897 19 15.2558V46.0008C19 46.5312 19.2107 47.0399 19.5858 47.415C19.9609 47.7901 20.4696 48.0008 21 48.0008C21.5304 48.0008 22.0391 47.7901 22.4142 47.415C22.7893 47.0399 23 46.5312 23 46.0008V30.9998H25V45.9998C25 46.5302 25.2107 47.0389 25.5858 47.414C25.9609 47.7891 26.4696 47.9998 27 47.9998C27.5304 47.9998 28.0391 47.7891 28.4142 47.414C28.7893 47.0389 29 46.5302 29 45.9998V15.2558C30.2277 15.897 31.2524 16.8677 31.959 18.059C32.6656 19.2503 33.0261 20.615 33 21.9998C33 22.5302 33.2107 23.0389 33.5858 23.414C33.9609 23.7891 34.4696 23.9998 35 23.9998C35.5304 23.9998 36.0392 23.7891 36.4142 23.414C36.7893 23.0389 37 22.5302 37 21.9998C37 15.1578 31.411 9.99981 24 9.99981Z" fill="currentColor"/>
<path d="M24 8.00098C26.2091 8.00098 28 6.21012 28 4.00098C28 1.79184 26.2091 0.000976562 24 0.000976562C21.7909 0.000976562 20 1.79184 20 4.00098C20 6.21012 21.7909 8.00098 24 8.00098Z" fill="currentColor"/>
</g>
<defs>
<clipPath id="clip0_6013_51433">
<rect width="48" height="48.001" fill="white"/>
</clipPath>
</defs>
</svg>
