<svg id="agile" width="48" height="48" viewBox="0 0 48 48" fill="none" xmlns="http://www.w3.org/2000/svg">
<g clip-path="url(#clip0_6013_51437)">
<path d="M45.1428 43C43.3819 42.9903 41.641 42.6731 40.022 42.0671C38.403 41.4611 36.9385 40.5784 35.7144 39.4707C34.4903 38.363 33.5313 37.0527 32.8935 35.6165C32.2556 34.1803 31.9519 32.6472 32 31.107V8.53097L35.1325 11.272C35.3961 11.5107 35.7114 11.7012 36.0599 11.8322C36.4085 11.9632 36.7834 12.0322 37.1628 12.0351C37.5422 12.038 37.9184 11.9747 38.2695 11.849C38.6207 11.7233 38.9397 11.5377 39.2079 11.303C39.4762 11.0682 39.6884 10.7891 39.832 10.4819C39.9757 10.1746 40.048 9.84541 40.0447 9.51346C40.0414 9.18151 39.9626 8.85346 39.8128 8.54845C39.6631 8.24344 39.4454 7.96758 39.1725 7.73697L31.168 0.731966C30.6322 0.263288 29.9056 0 29.148 0C28.3904 0 27.6638 0.263288 27.128 0.731966L19.1222 7.73697C18.5904 8.20657 18.2928 8.84141 18.2945 9.50255C18.2963 10.1637 18.5973 10.7973 19.1316 11.2647C19.666 11.7322 20.3902 11.9954 21.1458 11.9967C21.9014 11.9981 22.6268 11.7375 23.1634 11.272L26.2857 8.54097V25.881C22.7412 23.3433 18.2939 21.9703 13.7142 22H9.75996L12.8822 19.268C13.4143 18.7985 13.7121 18.1637 13.7105 17.5026C13.709 16.8414 13.4082 16.2078 12.874 15.7402C12.3398 15.2726 11.6157 15.0092 10.8601 15.0077C10.1045 15.0062 9.37894 15.2666 8.84225 15.732L0.836533 22.737C0.300901 23.2058 0 23.8416 0 24.5045C0 25.1674 0.300901 25.8031 0.836533 26.272L8.84225 33.276C9.38111 33.7314 10.1028 33.9833 10.852 33.9776C11.6011 33.972 12.3177 33.709 12.8474 33.2455C13.3772 32.782 13.6777 32.155 13.6842 31.4995C13.6907 30.844 13.4027 30.2125 12.8822 29.741L9.75082 27H13.7142C16.6532 26.9411 19.5329 27.7291 21.9097 29.2428C24.2866 30.7565 26.029 32.9118 26.8685 35.377L26.8914 35.372C27.8534 38.9726 30.1818 42.1815 33.4967 44.475C36.8115 46.7685 40.9169 48.0111 45.1428 48C45.9006 48 46.6273 47.7366 47.1631 47.2677C47.6989 46.7989 48 46.163 48 45.5C48 44.8369 47.6989 44.201 47.1631 43.7322C46.6273 43.2634 45.9006 43 45.1428 43Z" fill="currentColor"/>
</g>
<defs>
<clipPath id="clip0_6013_51437">
<rect width="48" height="48" fill="white"/>
</clipPath>
</defs>
</svg>
