<svg id="agriculture" width="48" height="48" viewBox="0 0 48 48" fill="none" xmlns="http://www.w3.org/2000/svg">
<g clip-path="url(#clip0_6013_51439)">
<path d="M5.71429 21H6.85714V18C6.85714 17.3434 6.70934 16.6932 6.42217 16.0866C6.135 15.48 5.71409 14.9288 5.18347 14.4645C4.65285 14.0002 4.02291 13.6319 3.32962 13.3806C2.63633 13.1293 1.89327 13 1.14286 13H0V16C0 17.3261 0.602039 18.5979 1.67368 19.5355C2.74531 20.4732 4.19876 21 5.71429 21ZM5.71429 30H6.85714V27C6.85714 26.3434 6.70934 25.6932 6.42217 25.0866C6.135 24.48 5.71409 23.9288 5.18347 23.4645C4.65285 23.0002 4.02291 22.6319 3.32962 22.3806C2.63633 22.1293 1.89327 22 1.14286 22H0V25C0 26.3261 0.602039 27.5979 1.67368 28.5355C2.74531 29.4732 4.19876 30 5.71429 30ZM6.85714 36C6.85714 35.3434 6.70934 34.6932 6.42217 34.0866C6.135 33.48 5.71409 32.9288 5.18347 32.4645C4.65285 32.0002 4.02291 31.6319 3.32962 31.3806C2.63633 31.1293 1.89327 31 1.14286 31H0V34C0 35.3261 0.602039 36.5979 1.67368 37.5355C2.74531 38.4732 4.19876 39 5.71429 39H6.85714V36ZM10.2857 18V21H11.4286C12.9441 21 14.3975 20.4732 15.4692 19.5355C16.5408 18.5979 17.1429 17.3261 17.1429 16V13H16C14.4845 13 13.031 13.5268 11.9594 14.4645C10.8878 15.4021 10.2857 16.6739 10.2857 18ZM10.2857 27V30H11.4286C12.9441 30 14.3975 29.4732 15.4692 28.5355C16.5408 27.5979 17.1429 26.3261 17.1429 25V22H16C14.4845 22 13.031 22.5268 11.9594 23.4645C10.8878 24.4021 10.2857 25.6739 10.2857 27ZM10.2857 36V39H11.4286C12.9441 39 14.3975 38.4732 15.4692 37.5355C16.5408 36.5979 17.1429 35.3261 17.1429 34V31H16C14.4845 31 13.031 31.5268 11.9594 32.4645C10.8878 33.4021 10.2857 34.6739 10.2857 36ZM6.85714 46.5C6.85714 46.8978 7.03775 47.2794 7.35925 47.5607C7.68074 47.842 8.11677 48 8.57143 48C9.02609 48 9.46212 47.842 9.78361 47.5607C10.1051 47.2794 10.2857 46.8978 10.2857 46.5V41H6.85714V46.5ZM1.71429 11C2.16894 11 2.60498 10.842 2.92647 10.5607C3.24796 10.2794 3.42857 9.89782 3.42857 9.5V5.5C3.42857 5.10218 3.24796 4.72064 2.92647 4.43934C2.60498 4.15804 2.16894 4 1.71429 4C1.25963 4 0.823594 4.15804 0.502103 4.43934C0.180612 4.72064 0 5.10218 0 5.5L0 9.5C0 9.89782 0.180612 10.2794 0.502103 10.5607C0.823594 10.842 1.25963 11 1.71429 11ZM15.4286 4C14.9739 4 14.5379 4.15804 14.2164 4.43934C13.8949 4.72064 13.7143 5.10218 13.7143 5.5V9.5C13.7143 9.89782 13.8949 10.2794 14.2164 10.5607C14.5379 10.842 14.9739 11 15.4286 11C15.8832 11 16.3193 10.842 16.6408 10.5607C16.9622 10.2794 17.1429 9.89782 17.1429 9.5V5.5C17.1429 5.10218 16.9622 4.72064 16.6408 4.43934C16.3193 4.15804 15.8832 4 15.4286 4ZM8.57143 14C9.02609 14 9.46212 13.842 9.78361 13.5607C10.1051 13.2794 10.2857 12.8978 10.2857 12.5V1.5C10.2857 1.10218 10.1051 0.720644 9.78361 0.43934C9.46212 0.158035 9.02609 0 8.57143 0C8.11677 0 7.68074 0.158035 7.35925 0.43934C7.03775 0.720644 6.85714 1.10218 6.85714 1.5V12.5C6.85714 12.8978 7.03775 13.2794 7.35925 13.5607C7.68074 13.842 8.11677 14 8.57143 14ZM32.3177 21.221L33.4206 21.481L34.3086 18.583C34.5028 17.9487 34.5524 17.2872 34.4544 16.6361C34.3565 15.9851 34.1129 15.3573 33.7376 14.7886C33.3624 14.2199 32.8628 13.7215 32.2674 13.3218C31.6719 12.9221 30.9924 12.6289 30.2674 12.459L29.1634 12.2L28.2766 15.098C27.8846 16.3789 28.0901 17.7435 28.848 18.8918C29.6058 20.04 30.8539 20.8779 32.3177 21.221ZM29.6549 29.915L30.7589 30.174L31.6469 27.276C31.8411 26.6417 31.8907 25.9802 31.7927 25.3291C31.6948 24.6781 31.4512 24.0503 31.0759 23.4816C30.7007 22.9129 30.2011 22.4145 29.6056 22.0148C29.0102 21.6151 28.3306 21.3219 27.6057 21.152L26.5017 20.893L25.6149 23.791C25.2225 25.0719 25.4277 26.4366 26.1854 27.5851C26.943 28.7336 28.191 29.5717 29.6549 29.915ZM28.0971 38.867L28.984 35.969C29.3764 34.6881 29.1712 33.3234 28.4135 32.1749C27.6559 31.0264 26.4078 30.1883 24.944 29.845L23.84 29.587L22.952 32.484C22.7577 33.1183 22.7082 33.7798 22.8061 34.4309C22.9041 35.0819 23.1477 35.7097 23.5229 36.2784C23.8982 36.8471 24.3978 37.3455 24.9932 37.7452C25.5886 38.1449 26.2682 38.4381 26.9931 38.608L28.0971 38.867ZM37.6206 19.359L36.7326 22.257L37.8366 22.516C38.5615 22.686 39.3175 22.7293 40.0616 22.6436C40.8056 22.5579 41.5231 22.3448 42.173 22.0164C42.8229 21.6881 43.3926 21.2509 43.8494 20.7299C44.3062 20.2089 44.6413 19.6143 44.8354 18.98L45.7223 16.082L44.6183 15.824C43.1546 15.481 41.5951 15.6607 40.2829 16.3236C38.9706 16.9865 38.013 18.0784 37.6206 19.359ZM34.9577 28.052L34.0709 30.95L35.1749 31.209C35.8998 31.379 36.6558 31.4223 37.3999 31.3366C38.1439 31.2509 38.8614 31.0378 39.5113 30.7094C40.1612 30.3811 40.7309 29.9439 41.1877 29.4229C41.6445 28.9019 41.9796 28.3073 42.1737 27.673L43.0606 24.776L41.9566 24.516C41.2317 24.346 40.4756 24.3027 39.7316 24.3884C38.9875 24.4741 38.27 24.6872 37.6201 25.0156C36.9702 25.3439 36.4006 25.7811 35.9438 26.3021C35.4869 26.8231 35.1519 27.4177 34.9577 28.052ZM32.296 36.746L31.4091 39.643L32.512 39.903C33.2369 40.073 33.993 40.1163 34.737 40.0306C35.4811 39.9449 36.1985 39.7318 36.8485 39.4034C37.4984 39.0751 38.068 38.6379 38.5248 38.1169C38.9816 37.5959 39.3167 37.0013 39.5109 36.367L40.3989 33.469L39.2949 33.21C38.57 33.04 37.8139 32.9967 37.0698 33.0824C36.3258 33.1681 35.6083 33.3812 34.9584 33.7096C34.3085 34.0379 33.7389 34.4751 33.282 34.9961C32.8252 35.5171 32.4902 36.1117 32.296 36.746ZM25.8789 46.111C25.7714 46.4922 25.839 46.895 26.0671 47.233C26.2953 47.5711 26.6658 47.8174 27.0992 47.9191C27.5325 48.0208 27.9942 47.9698 28.385 47.777C28.7759 47.5842 29.0648 47.2651 29.1897 46.888L30.8171 41.575L27.5051 40.799L25.8789 46.111ZM31.4114 10.656C31.8505 10.759 32.3183 10.7051 32.712 10.5063C33.1057 10.3076 33.393 9.98012 33.5109 9.596L34.6937 5.732C34.7582 5.54009 34.7781 5.33884 34.7523 5.1401C34.7266 4.94135 34.6556 4.74912 34.5437 4.57471C34.4318 4.4003 34.2811 4.24724 34.1006 4.12454C33.9201 4.00183 33.7133 3.91196 33.4925 3.8602C33.2717 3.80845 33.0413 3.79586 32.8148 3.82318C32.5884 3.85049 32.3705 3.91716 32.1739 4.01927C31.9773 4.12137 31.8061 4.25684 31.6702 4.41771C31.5344 4.57858 31.4367 4.7616 31.3829 4.956L30.1989 8.819C30.1406 9.00929 30.1258 9.20774 30.1552 9.40305C30.1846 9.59835 30.2577 9.78667 30.3703 9.95725C30.4829 10.1278 30.6328 10.2773 30.8114 10.3972C30.9901 10.5171 31.194 10.6051 31.4114 10.656ZM46.7291 7C46.5117 6.94904 46.2849 6.93606 46.0617 6.9618C45.8385 6.98755 45.6232 7.0515 45.4283 7.15003C45.2333 7.24855 45.0625 7.37971 44.9255 7.53602C44.7884 7.69232 44.6879 7.87071 44.6297 8.061L43.4457 11.925C43.328 12.3093 43.3895 12.7188 43.6168 13.0634C43.8441 13.408 44.2185 13.6595 44.6577 13.7625C45.0969 13.8655 45.5649 13.8117 45.9587 13.6128C46.3526 13.4139 46.64 13.0863 46.7577 12.702L47.9406 8.838C47.999 8.64771 48.014 8.44922 47.9848 8.25386C47.9555 8.05849 47.8825 7.87009 47.77 7.6994C47.6575 7.52872 47.5077 7.3791 47.3291 7.2591C47.1505 7.13909 46.9466 7.05105 46.7291 7ZM37.1474 15.107C37.5865 15.21 38.0543 15.1561 38.448 14.9573C38.8417 14.7586 39.129 14.4311 39.2469 14.047L42.5006 3.42C42.6182 3.0357 42.5565 2.62626 42.3291 2.28176C42.1017 1.93726 41.7272 1.6859 41.288 1.583C40.8488 1.4801 40.3809 1.53407 39.9872 1.73304C39.5934 1.93202 39.3062 2.2597 39.1886 2.644L35.9349 13.27C35.8766 13.4603 35.8618 13.6587 35.8912 13.854C35.9206 14.0493 35.9937 14.2377 36.1063 14.4082C36.2189 14.5788 36.3688 14.7283 36.5474 14.8482C36.7261 14.9681 36.93 15.0561 37.1474 15.107Z" fill="currentColor"/>
</g>
<defs>
<clipPath id="clip0_6013_51439">
<rect width="48" height="48" fill="white"/>
</clipPath>
</defs>
</svg>
