<svg id="ai" width="48" height="48" viewBox="0 0 48 36" fill="none" xmlns="http://www.w3.org/2000/svg">
<g clip-path="url(#clip0_6013_51442)">
<path d="M39.2727 0H8.72727C3.90545 0 0 3.57891 0 7.99756V19.9939C0 24.4125 3.90545 27.9914 8.72727 27.9914H26.1818L34.7018 35.7891C35.1818 36.2389 36 35.919 36 35.2992V27.9914H39.2727C44.0945 27.9914 48 24.4125 48 19.9939V7.99756C48 3.57891 44.0945 0 39.2727 0ZM28.5491 13.5759L30.0873 12.1663C30.3382 11.9364 30.7418 11.9364 30.9927 12.1663L32.5418 13.5858C32.7927 13.8058 32.7927 14.1757 32.5418 14.4056L30.9927 15.8252C30.7418 16.0551 30.3382 16.0551 30.0982 15.8252L28.5491 14.4056C28.4894 14.3512 28.442 14.2866 28.4097 14.2154C28.3773 14.1442 28.3607 14.0678 28.3607 13.9907C28.3607 13.9136 28.3773 13.8372 28.4097 13.766C28.442 13.6948 28.4894 13.6302 28.5491 13.5759ZM42.9273 20.9336L40.6691 21.6834C40.3745 21.7833 40.1345 22.0033 40.0255 22.2732L39.2073 24.3426C38.8582 25.2123 37.5055 25.2123 37.1564 24.3426L36.3382 22.2732C36.2291 22.0033 35.9891 21.7833 35.6945 21.6834L33.4364 20.9336C32.4873 20.6037 32.4873 19.3741 33.4364 19.0542L35.6945 18.3044C35.9891 18.2044 36.2291 17.9845 36.3382 17.7146L37.1564 15.6452C37.5055 14.7755 38.8582 14.7755 39.2073 15.6452L40.0255 17.7146C40.1345 17.9845 40.3745 18.2044 40.6691 18.3044L42.9273 19.0542C43.8764 19.3741 43.8764 20.6037 42.9273 20.9336Z" fill="currentColor"/>
</g>
<defs>
<clipPath id="clip0_6013_51442">
<rect width="48" height="36" fill="white"/>
</clipPath>
</defs>
</svg>
