<svg id="airport" width="48" height="48" viewBox="0 0 48 48" fill="none" xmlns="http://www.w3.org/2000/svg">
<g clip-path="url(#clip0_6013_51459)">
<path d="M46.399 24.35C46.389 24.34 27.999 14 27.999 14V4C27.999 2.93913 27.5776 1.92172 26.8275 1.17157C26.0773 0.421427 25.0599 0 23.999 0C22.9382 0 21.9207 0.421427 21.1706 1.17157C20.4205 1.92172 19.999 2.93913 19.999 4V14L1.27903 24.57C0.884598 24.8409 0.561977 25.2036 0.338983 25.627C0.115989 26.0503 -0.000683583 26.5215 -0.000973888 27C-0.00150043 27.3941 0.0757375 27.7845 0.226315 28.1487C0.376893 28.5129 0.597851 28.8438 0.876532 29.1225C1.15521 29.4012 1.48614 29.6221 1.85035 29.7727C2.21457 29.9233 2.60491 30.0005 2.99903 30C3.31192 30.0018 3.62289 29.9511 3.91903 29.85L19.999 25V40L13.939 44.31C13.7695 44.4155 13.6176 44.5472 13.489 44.7C13.1708 45.058 12.9963 45.521 12.999 46C13.0006 46.5299 13.2118 47.0377 13.5866 47.4125C13.9613 47.7872 14.4691 47.9984 14.999 48C15.0998 48.0001 15.2003 47.9901 15.299 47.97L23.999 45.11L32.279 47.86C32.5077 47.953 32.7522 48.0005 32.999 48C33.529 47.9984 34.0368 47.7872 34.4115 47.4125C34.7862 47.0377 34.9974 46.5299 34.999 46C34.9991 45.5656 34.8549 45.1435 34.589 44.8C34.4473 44.6026 34.267 44.4359 34.059 44.31L27.999 40V25L43.969 29.81C44.2986 29.9332 44.6472 29.9976 44.999 30C45.669 30.0004 46.3198 29.7764 46.8476 29.3637C47.3754 28.951 47.7497 28.3734 47.9108 27.7231C48.072 27.0727 48.0107 26.3872 47.7366 25.7758C47.4626 25.1644 46.9917 24.6625 46.399 24.35Z" fill="currentColor"/>
</g>
<defs>
<clipPath id="clip0_6013_51459">
<rect width="48" height="48" fill="white" transform="translate(-0.000976562)"/>
</clipPath>
</defs>
</svg>
