<svg id="airport_military" width="48" height="48" viewBox="0 0 48 48" fill="none" xmlns="http://www.w3.org/2000/svg">
<g clip-path="url(#clip0_6013_51454)">
<path d="M45.999 26.0002C45.4686 26.0002 44.9599 26.2109 44.5848 26.586C44.2097 26.9611 43.999 27.4698 43.999 28.0002V31.0002L31.999 22.0002V17.4802C31.9966 17.0171 31.8653 16.5639 31.6198 16.1713C31.3742 15.7787 31.0242 15.4622 30.6089 15.2573C30.1936 15.0525 29.7294 14.9674 29.2684 15.0115C28.8075 15.0556 28.3679 15.2273 27.999 15.5072V10.6302C27.9992 10.2505 27.9272 9.87414 27.787 9.52122L25.095 0.744219C25.0076 0.525004 24.8564 0.337052 24.661 0.204646C24.4656 0.07224 24.235 0.00146484 23.999 0.00146484C23.763 0.00146484 23.5324 0.07224 23.337 0.204646C23.1417 0.337052 22.9905 0.525004 22.903 0.744219L20.211 9.52022C20.0707 9.87345 19.9987 10.2501 19.999 10.6302V15.5072C19.6301 15.2273 19.1906 15.0556 18.7296 15.0115C18.2686 14.9674 17.8045 15.0525 17.3892 15.2573C16.9739 15.4622 16.6238 15.7787 16.3783 16.1713C16.1328 16.5639 16.0014 17.0171 15.999 17.4802V22.0002L3.99902 31.0002V28.0002C3.99902 27.4698 3.78831 26.9611 3.41324 26.586C3.03816 26.2109 2.52946 26.0002 1.99902 26.0002C1.46859 26.0002 0.959883 26.2109 0.58481 26.586C0.209737 26.9611 -0.000976562 27.4698 -0.000976562 28.0002L-0.000976562 42.0002C-0.000976562 42.5307 0.209737 43.0394 0.58481 43.4144C0.959883 43.7895 1.46859 44.0002 1.99902 44.0002C2.52946 44.0002 3.03816 43.7895 3.41324 43.4144C3.78831 43.0394 3.99902 42.5307 3.99902 42.0002V40.0002L19.999 36.0002V41.0002L15.549 44.8112C15.2873 45.0725 15.1091 45.4055 15.0368 45.7682C14.9645 46.1308 15.0015 46.5068 15.1431 46.8484C15.2847 47.19 15.5244 47.4819 15.832 47.6871C16.1396 47.8923 16.5012 48.0017 16.871 48.0012L23.988 47.0012L31.128 48.0012C31.4976 48.0013 31.859 47.8917 32.1663 47.6863C32.4735 47.4809 32.713 47.189 32.8543 46.8475C32.9957 46.5059 33.0325 46.1301 32.9602 45.7677C32.8878 45.4052 32.7096 45.0723 32.448 44.8112L27.999 41.0012V36.0012L43.999 40.0012V42.0012C43.999 42.5317 44.2097 43.0404 44.5848 43.4154C44.9599 43.7905 45.4686 44.0012 45.999 44.0012C46.5295 44.0012 47.0382 43.7905 47.4132 43.4154C47.7883 43.0404 47.999 42.5317 47.999 42.0012V28.0002C47.999 27.4698 47.7883 26.9611 47.4132 26.586C47.0382 26.2109 46.5295 26.0002 45.999 26.0002Z" fill="currentColor"/>
</g>
<defs>
<clipPath id="clip0_6013_51454">
<rect width="48" height="48" fill="white" transform="translate(-0.000976562)"/>
</clipPath>
</defs>
</svg>
