<svg id="airport_not_affected" width="48" height="48" viewBox="0 0 48 48" fill="none" xmlns="http://www.w3.org/2000/svg">
<g clip-path="url(#clip0_6013_51456)">
<path d="M47.987 28.866C47.983 28.805 47.984 28.743 47.974 28.682C47.9596 28.61 47.9413 28.5389 47.919 28.469C47.905 28.416 47.895 28.361 47.876 28.309C47.8499 28.2459 47.8205 28.1841 47.788 28.124C47.762 28.07 47.74 28.014 47.708 27.962C47.674 27.906 47.632 27.857 47.593 27.805C47.555 27.755 47.521 27.701 47.477 27.653C47.4231 27.5974 47.366 27.545 47.306 27.496C47.266 27.462 47.233 27.425 47.191 27.394C47.0953 27.3241 46.9936 27.2629 46.887 27.211C46.875 27.2043 46.8634 27.1977 46.852 27.191L46.849 27.189L46.834 27.182L32 20V12C32 11.2044 31.684 10.4413 31.1213 9.87868C30.5587 9.31608 29.7957 9 29 9C28.2044 9 27.4413 9.31608 26.8787 9.87868C26.3161 10.4413 26 11.2044 26 12V20L11.164 27.183L11.154 27.188L11.149 27.19C11.128 27.2 11.111 27.215 11.09 27.226C10.9923 27.274 10.8987 27.3298 10.81 27.393C10.763 27.429 10.723 27.471 10.68 27.51C10.6255 27.5549 10.5735 27.6026 10.524 27.653C10.48 27.7049 10.4386 27.7589 10.4 27.815C10.364 27.865 10.324 27.91 10.293 27.961C10.259 28.016 10.235 28.076 10.207 28.134C10.179 28.192 10.147 28.248 10.125 28.309C10.105 28.365 10.093 28.423 10.078 28.481C10.0576 28.5467 10.0406 28.6135 10.027 28.681C10.017 28.747 10.017 28.813 10.013 28.879C10.0063 28.9421 10.0027 29.0055 10.002 29.069C10.0076 29.1594 10.0193 29.2492 10.037 29.338C10.044 29.378 10.043 29.418 10.053 29.458L10.055 29.464C10.059 29.482 10.068 29.5 10.073 29.518C10.1006 29.6231 10.1367 29.7258 10.181 29.825L10.191 29.852C10.197 29.865 10.209 29.875 10.216 29.889C10.2912 30.0421 10.3856 30.1849 10.497 30.314L10.519 30.343C10.6321 30.464 10.7597 30.5705 10.899 30.66C10.9257 30.6787 10.9524 30.6967 10.979 30.714C11.1167 30.796 11.2638 30.8611 11.417 30.908L11.502 30.93C11.6641 30.9741 11.8311 30.9976 11.999 31H12.002C12.1511 30.9996 12.2997 30.9825 12.445 30.949L12.459 30.947L26 28V43C26 43 22.322 46.278 22.19 46.41C22.0529 46.5748 21.9848 46.7862 22 47C21.9975 47.0607 22.0043 47.1214 22.02 47.18C22.03 47.23 22.04 47.27 22.05 47.31C22.0894 47.4403 22.1578 47.56 22.25 47.66C22.3 47.71 22.35 47.76 22.41 47.81C22.4127 47.81 22.4152 47.8111 22.4171 47.8129C22.419 47.8148 22.42 47.8174 22.42 47.82C22.5037 47.8755 22.5945 47.9192 22.69 47.95C22.7901 47.9829 22.8947 47.9998 23 48C23.0605 47.9988 23.1208 47.9921 23.18 47.98L23.31 47.95L23.37 47.93L29 46L34.66 47.94L34.69 47.95C34.8915 48.0157 35.1086 48.0157 35.31 47.95C35.3595 47.9373 35.4067 47.917 35.45 47.89C35.5674 47.8309 35.672 47.7493 35.7577 47.6498C35.8435 47.5502 35.9089 47.4348 35.95 47.31C35.96 47.27 35.97 47.23 35.98 47.18C35.9958 47.1214 36.0025 47.0607 36 47C36.0092 46.894 35.9971 46.7872 35.9645 46.6859C35.9319 46.5845 35.8794 46.4908 35.81 46.41C35.688 46.288 32 43 32 43V28L45.527 30.944L45.537 30.946L45.542 30.947C45.559 30.951 45.576 30.95 45.592 30.954C45.7068 30.9792 45.8236 30.9943 45.941 30.999L45.971 30.997C46.0916 30.9992 46.2121 30.9905 46.331 30.971C46.3444 30.9683 46.3574 30.965 46.37 30.961C46.4837 30.9407 46.5955 30.9106 46.704 30.871C46.7174 30.8643 46.731 30.8577 46.745 30.851C46.8501 30.8096 46.9514 30.7595 47.048 30.701C47.067 30.69 47.083 30.674 47.102 30.661C47.1902 30.6046 47.2738 30.5414 47.352 30.472C47.389 30.438 47.419 30.398 47.453 30.362C47.508 30.3071 47.5598 30.249 47.608 30.188C47.6703 30.1009 47.7255 30.0089 47.773 29.913C47.783 29.892 47.799 29.873 47.81 29.852V29.849C47.8433 29.7715 47.8717 29.692 47.895 29.611C47.911 29.561 47.934 29.513 47.945 29.464L47.948 29.458C47.958 29.413 47.958 29.368 47.965 29.322C47.9817 29.2385 47.9931 29.154 47.999 29.069C47.9985 29.0012 47.9945 28.9334 47.987 28.866ZM19.999 10C19.999 8.02219 19.4125 6.08879 18.3137 4.4443C17.2149 2.79981 15.6531 1.51809 13.8259 0.761209C11.9986 0.00433284 9.98794 -0.193701 8.04813 0.192152C6.10832 0.578004 4.32649 1.53041 2.92796 2.92894C1.52944 4.32746 0.577027 6.10929 0.191175 8.0491C-0.194677 9.98891 0.00335628 11.9996 0.760233 13.8268C1.51711 15.6541 2.79883 17.2159 4.44333 18.3147C6.08782 19.4135 8.02122 20 9.99903 20C12.6509 19.9989 15.1938 18.945 17.0689 17.0699C18.9441 15.1948 19.998 12.6518 19.999 10ZM15.649 7.76L8.64903 13.76C8.46789 13.9149 8.23737 14 7.99903 14C7.73365 13.9994 7.47896 13.8954 7.28903 13.71L4.28903 10.71C4.19579 10.6168 4.12183 10.5061 4.07137 10.3843C4.02091 10.2624 3.99494 10.1319 3.99494 10C3.99494 9.7337 4.10072 9.47831 4.28903 9.29C4.47733 9.1017 4.73273 8.99591 4.99903 8.99591C5.26533 8.99591 5.52072 9.1017 5.70903 9.29L8.04903 11.64L14.349 6.24C14.5506 6.06761 14.8124 5.98235 15.0768 6.00298C15.2077 6.0132 15.3354 6.0491 15.4524 6.10864C15.5695 6.16818 15.6737 6.2502 15.759 6.35C15.8444 6.44981 15.9093 6.56545 15.9499 6.69032C15.9906 6.8152 16.0063 6.94686 15.996 7.07779C15.9858 7.20872 15.9499 7.33635 15.8904 7.45341C15.8308 7.57046 15.7488 7.67465 15.649 7.76Z" fill="currentColor"/>
</g>
<defs>
<clipPath id="clip0_6013_51456">
<rect width="48" height="48" fill="white" transform="translate(-0.000976562)"/>
</clipPath>
</defs>
</svg>
