<svg id="airport_closed" width="48" height="48" viewBox="0 0 48 48" fill="none" xmlns="http://www.w3.org/2000/svg">
<g clip-path="url(#clip0_6013_51447)">
<path d="M10 5C9.20459 5.00079 8.44199 5.31712 7.87956 5.87956C7.31712 6.44199 7.00079 7.20459 7 8H13C12.9992 7.20459 12.6829 6.44199 12.1204 5.87956C11.558 5.31712 10.7954 5.00079 10 5Z" fill="currentColor"/>
<path d="M20 10C20 8.02219 19.4135 6.08879 18.3147 4.4443C17.2159 2.79981 15.6541 1.51809 13.8268 0.761209C11.9996 0.00433284 9.98891 -0.193701 8.0491 0.192152C6.10929 0.578004 4.32746 1.53041 2.92894 2.92894C1.53041 4.32746 0.578004 6.10929 0.192152 8.0491C-0.193701 9.98891 0.00433284 11.9996 0.761209 13.8268C1.51809 15.6541 2.79981 17.2159 4.4443 18.3147C6.08879 19.4135 8.02219 20 10 20C12.6518 19.9989 15.1948 18.945 17.0699 17.0699C18.945 15.1948 19.9989 12.6518 20 10ZM15 14C15 14.5304 14.7893 15.0391 14.4142 15.4142C14.0391 15.7893 13.5304 16 13 16H7C6.46957 16 5.96086 15.7893 5.58579 15.4142C5.21072 15.0391 5 14.5304 5 14V8C5 6.67392 5.52679 5.40215 6.46447 4.46447C7.40215 3.52679 8.67392 3 10 3C11.3261 3 12.5979 3.52679 13.5355 4.46447C14.4732 5.40215 15 6.67392 15 8V14ZM47.987 28.866C47.983 28.805 47.984 28.743 47.974 28.682C47.9596 28.61 47.9412 28.5389 47.919 28.469C47.905 28.416 47.895 28.361 47.876 28.309C47.8498 28.2459 47.8205 28.1841 47.788 28.124C47.761 28.07 47.74 28.014 47.708 27.962C47.674 27.906 47.632 27.857 47.593 27.805C47.555 27.755 47.521 27.701 47.477 27.653C47.4228 27.5974 47.3653 27.545 47.305 27.496C47.267 27.462 47.233 27.425 47.191 27.394C47.095 27.3241 46.9929 27.2628 46.886 27.211C46.8747 27.2043 46.8633 27.1977 46.852 27.191L46.848 27.189L46.834 27.182L32 20V12.09C32.0149 11.4482 31.8262 10.8182 31.461 10.2902C31.0957 9.76228 30.5728 9.36348 29.967 9.151C29.5148 8.99935 29.033 8.95734 28.5613 9.02845C28.0896 9.09956 27.6416 9.28174 27.2542 9.55998C26.8668 9.83823 26.551 10.2046 26.3329 10.6288C26.1149 11.053 26.0008 11.523 26 12V20L11.164 27.183L11.154 27.188L11.148 27.19C11.128 27.2 11.11 27.215 11.09 27.226C10.9923 27.274 10.8986 27.3298 10.81 27.393C10.762 27.429 10.723 27.471 10.679 27.51C10.6245 27.5549 10.5724 27.6026 10.523 27.653C10.4793 27.7049 10.4382 27.759 10.4 27.815C10.364 27.865 10.324 27.91 10.292 27.961C10.259 28.016 10.235 28.076 10.207 28.134C10.179 28.192 10.147 28.248 10.125 28.309C10.104 28.365 10.093 28.423 10.078 28.481C10.0572 28.5467 10.0399 28.6135 10.026 28.681C10.016 28.747 10.016 28.813 10.012 28.879C10.0057 28.9421 10.0023 29.0055 10.002 29.069C10.0076 29.1594 10.0193 29.2492 10.037 29.338C10.044 29.378 10.043 29.418 10.053 29.458L10.055 29.464C10.059 29.482 10.068 29.5 10.073 29.518C10.1006 29.6231 10.1367 29.7258 10.181 29.825C10.1837 29.8343 10.187 29.8433 10.191 29.852C10.197 29.865 10.209 29.875 10.215 29.889C10.2905 30.0421 10.3853 30.185 10.497 30.314L10.519 30.343C10.6318 30.4639 10.7591 30.5704 10.898 30.66C10.9247 30.6787 10.952 30.6967 10.98 30.714C11.1171 30.7958 11.2634 30.861 11.416 30.908L11.502 30.93C11.6638 30.974 11.8304 30.9975 11.998 31H12.001C12.1501 30.9996 12.2987 30.9825 12.444 30.949L12.458 30.947L26 28V43C26 43 22.322 46.278 22.19 46.41C22.0529 46.5748 21.9848 46.7862 22 47C21.9975 47.0607 22.0043 47.1214 22.02 47.18C22.03 47.23 22.04 47.27 22.05 47.31C22.0893 47.4403 22.1577 47.56 22.25 47.66C22.3 47.71 22.35 47.76 22.41 47.81C22.4127 47.81 22.4152 47.8111 22.4171 47.8129C22.4189 47.8148 22.42 47.8174 22.42 47.82C22.5037 47.8755 22.5945 47.9192 22.69 47.95C22.7901 47.9829 22.8947 47.9998 23 48C23.0605 47.9988 23.1207 47.9921 23.18 47.98L23.31 47.95L23.37 47.93L29 46L34.66 47.94L34.69 47.95C34.8914 48.0157 35.1086 48.0157 35.31 47.95C35.3595 47.9373 35.4067 47.917 35.45 47.89C35.5674 47.8309 35.6719 47.7493 35.7577 47.6498C35.8435 47.5502 35.9089 47.4348 35.95 47.31C35.96 47.27 35.97 47.23 35.98 47.18C35.9957 47.1214 36.0025 47.0607 36 47C36.0092 46.894 35.9971 46.7872 35.9645 46.6859C35.9318 46.5845 35.8793 46.4908 35.81 46.41C35.688 46.288 32 43 32 43V28L45.527 30.944L45.536 30.946L45.542 30.947C45.559 30.951 45.576 30.95 45.592 30.954C45.7068 30.9792 45.8236 30.9943 45.941 30.999L45.971 30.997C46.0915 30.9992 46.212 30.9905 46.331 30.971C46.3443 30.9683 46.3573 30.965 46.37 30.961C46.4837 30.9407 46.5955 30.9106 46.704 30.871C46.7173 30.8643 46.731 30.8577 46.745 30.851C46.8497 30.8096 46.9507 30.7594 47.047 30.701C47.067 30.69 47.083 30.674 47.102 30.661C47.1902 30.6046 47.2737 30.5414 47.352 30.472C47.388 30.438 47.418 30.398 47.452 30.362C47.507 30.3071 47.5588 30.249 47.607 30.188C47.6696 30.1009 47.7251 30.009 47.773 29.913C47.783 29.892 47.799 29.873 47.81 29.852V29.849C47.8433 29.7715 47.8717 29.692 47.895 29.611C47.911 29.561 47.933 29.513 47.945 29.464L47.947 29.458C47.958 29.413 47.957 29.368 47.965 29.322C47.9814 29.2385 47.9924 29.154 47.998 29.069C47.9978 29.0012 47.9941 28.9334 47.987 28.866Z" fill="currentColor"/>
<path d="M11 10H8.99902C8.73381 10 8.47945 10.1054 8.29192 10.2929C8.10438 10.4804 7.99902 10.7348 7.99902 11V13C7.99902 13.2652 8.10438 13.5196 8.29192 13.7071C8.47945 13.8946 8.73381 14 8.99902 14H11C11.2651 13.9997 11.5192 13.8943 11.7065 13.7068C11.8938 13.5192 11.999 13.265 11.999 13V11C11.999 10.735 11.8938 10.4808 11.7065 10.2932C11.5192 10.1057 11.2651 10.0003 11 10Z" fill="currentColor"/>
</g>
<defs>
<clipPath id="clip0_6013_51447">
<rect width="47.999" height="48" fill="white"/>
</clipPath>
</defs>
</svg>
