<svg id="airport_affected" width="48" height="48" viewBox="0 0 48 48" fill="none" xmlns="http://www.w3.org/2000/svg">
<g clip-path="url(#clip0_6013_51444)">
<path d="M20 10C20 8.02219 19.4135 6.08879 18.3147 4.4443C17.2159 2.79981 15.6541 1.51809 13.8268 0.761209C11.9996 0.00433284 9.98891 -0.193701 8.0491 0.192152C6.10929 0.578004 4.32746 1.53041 2.92894 2.92894C1.53041 4.32746 0.578004 6.10929 0.192152 8.0491C-0.193701 9.98891 0.00433284 11.9996 0.761209 13.8268C1.51809 15.6541 2.79981 17.2159 4.4443 18.3147C6.08879 19.4135 8.02219 20 10 20C12.6518 19.9989 15.1948 18.945 17.0699 17.0699C18.945 15.1948 19.9989 12.6518 20 10ZM10 17C9.80222 17 9.60888 16.9414 9.44443 16.8315C9.27999 16.7216 9.15181 16.5654 9.07613 16.3827C9.00044 16.2 8.98063 15.9989 9.01922 15.8049C9.05781 15.6109 9.15305 15.4328 9.2929 15.2929C9.43275 15.153 9.61093 15.0578 9.80491 15.0192C9.9989 14.9806 10.2 15.0004 10.3827 15.0761C10.5654 15.1518 10.7216 15.28 10.8315 15.4444C10.9414 15.6089 11 15.8022 11 16C10.9992 16.265 10.8936 16.5189 10.7062 16.7062C10.5189 16.8936 10.265 16.9992 10 17ZM11 12C11 12.2652 10.8946 12.5196 10.7071 12.7071C10.5196 12.8946 10.2652 13 10 13C9.73479 13 9.48043 12.8946 9.2929 12.7071C9.10536 12.5196 9 12.2652 9 12V4C9 3.73479 9.10536 3.48043 9.2929 3.2929C9.48043 3.10536 9.73479 3 10 3C10.2652 3 10.5196 3.10536 10.7071 3.2929C10.8946 3.48043 11 3.73479 11 4V12ZM47.988 28.866C47.984 28.805 47.985 28.743 47.975 28.682C47.9606 28.61 47.9422 28.5389 47.92 28.469C47.906 28.416 47.896 28.361 47.877 28.309C47.8508 28.2459 47.8215 28.1841 47.789 28.124C47.763 28.07 47.741 28.014 47.709 27.962C47.675 27.906 47.633 27.857 47.594 27.805C47.556 27.755 47.522 27.701 47.478 27.653C47.4241 27.5974 47.367 27.545 47.307 27.496C47.267 27.462 47.234 27.425 47.192 27.394C47.0963 27.3241 46.9946 27.2629 46.888 27.211C46.876 27.2043 46.8643 27.1977 46.853 27.191L46.85 27.189L46.835 27.182L32.001 20V12C32.001 11.2044 31.6849 10.4413 31.1223 9.87868C30.5597 9.31608 29.7967 9 29.001 9C28.2054 9 27.4423 9.31608 26.8797 9.87868C26.3171 10.4413 26.001 11.2044 26.001 12V20L11.165 27.183L11.155 27.188L11.15 27.19C11.129 27.2 11.112 27.215 11.091 27.226C10.9933 27.274 10.8996 27.3298 10.811 27.393C10.764 27.429 10.724 27.471 10.681 27.51C10.6265 27.5549 10.5744 27.6026 10.525 27.653C10.4809 27.7049 10.4396 27.7589 10.401 27.815C10.365 27.865 10.325 27.91 10.294 27.961C10.26 28.016 10.236 28.076 10.208 28.134C10.18 28.192 10.148 28.248 10.126 28.309C10.106 28.365 10.094 28.423 10.079 28.481C10.0586 28.5467 10.0416 28.6135 10.028 28.681C10.018 28.747 10.018 28.813 10.014 28.879C10.0073 28.9421 10.0037 29.0055 10.003 29.069C10.0086 29.1594 10.0203 29.2492 10.038 29.338C10.045 29.378 10.044 29.418 10.054 29.458L10.056 29.464C10.06 29.482 10.069 29.5 10.074 29.518C10.1016 29.6231 10.1377 29.7258 10.182 29.825L10.192 29.852C10.198 29.865 10.21 29.875 10.217 29.889C10.2922 30.0421 10.3866 30.1849 10.498 30.314L10.52 30.343C10.6331 30.464 10.7607 30.5705 10.9 30.66C10.9267 30.6787 10.9533 30.6967 10.98 30.714C11.1177 30.796 11.2648 30.8611 11.418 30.908L11.503 30.93C11.6651 30.9741 11.8321 30.9976 12 31H12.003C12.1521 30.9996 12.3007 30.9825 12.446 30.949L12.46 30.947L26.001 28V43C26.001 43 22.323 46.278 22.191 46.41C22.0539 46.5748 21.9858 46.7862 22.001 47C21.9985 47.0607 22.0053 47.1214 22.021 47.18C22.031 47.23 22.041 47.27 22.051 47.31C22.0903 47.4403 22.1587 47.56 22.251 47.66C22.301 47.71 22.351 47.76 22.411 47.81C22.4137 47.81 22.4162 47.8111 22.4181 47.8129C22.42 47.8148 22.421 47.8174 22.421 47.82C22.5047 47.8755 22.5955 47.9192 22.691 47.95C22.7911 47.9829 22.8957 47.9998 23.001 48C23.0615 47.9988 23.1217 47.9921 23.181 47.98L23.311 47.95L23.371 47.93L29.001 46L34.661 47.94L34.691 47.95C34.8925 48.0157 35.1096 48.0157 35.311 47.95C35.3605 47.9373 35.4077 47.917 35.451 47.89C35.5684 47.8309 35.6729 47.7493 35.7587 47.6498C35.8445 47.5502 35.9099 47.4348 35.951 47.31C35.961 47.27 35.971 47.23 35.981 47.18C35.9967 47.1214 36.0035 47.0607 36.001 47C36.0102 46.894 35.9981 46.7872 35.9655 46.6859C35.9328 46.5845 35.8803 46.4908 35.811 46.41C35.689 46.288 32.001 43 32.001 43V28L45.528 30.944L45.538 30.946L45.543 30.947C45.56 30.951 45.577 30.95 45.593 30.954C45.7078 30.9792 45.8246 30.9943 45.942 30.999L45.972 30.997C46.0925 30.9992 46.213 30.9905 46.332 30.971C46.3453 30.9683 46.3583 30.965 46.371 30.961C46.4847 30.9407 46.5965 30.9106 46.705 30.871C46.7183 30.8643 46.732 30.8577 46.746 30.851C46.8511 30.8096 46.9524 30.7595 47.049 30.701C47.068 30.69 47.084 30.674 47.103 30.661C47.1912 30.6046 47.2747 30.5414 47.353 30.472C47.39 30.438 47.42 30.398 47.454 30.362C47.509 30.3071 47.5608 30.249 47.609 30.188C47.6713 30.1009 47.7265 30.0089 47.774 29.913C47.784 29.892 47.8 29.873 47.811 29.852V29.849C47.8443 29.7715 47.8727 29.692 47.896 29.611C47.912 29.561 47.935 29.513 47.946 29.464L47.949 29.458C47.959 29.413 47.959 29.368 47.966 29.322C47.9827 29.2385 47.9941 29.154 48 29.069C47.9994 29.0012 47.9954 28.9334 47.988 28.866Z" fill="currentColor"/>
</g>
<defs>
<clipPath id="clip0_6013_51444">
<rect width="48" height="48" fill="white"/>
</clipPath>
</defs>
</svg>
