<svg id="alert" width="48" height="48" viewBox="0 0 48 41" fill="none" xmlns="http://www.w3.org/2000/svg">
<g clip-path="url(#clip0_6013_51461)">
<path d="M47.6709 37.4009L27.1192 1.79956C26.8027 1.25236 26.3478 0.798018 25.8001 0.48215C25.2524 0.166281 24.6312 0 23.9989 0C23.3666 0 22.7455 0.166281 22.1978 0.48215C21.6501 0.798018 21.1952 1.25236 20.8787 1.79956L0.326942 37.4009C0.115568 37.7657 0.00414428 38.1797 0.00390663 38.6012C0.00366898 39.0228 0.114626 39.437 0.325589 39.802C0.536551 40.167 0.84006 40.4699 1.20551 40.6803C1.57096 40.8906 1.98543 41.0009 2.40712 41H45.5907C46.0124 41.0009 46.4269 40.8906 46.7923 40.6803C47.1578 40.4699 47.4613 40.167 47.6722 39.802C47.8832 39.437 47.9942 39.0228 47.9939 38.6012C47.9937 38.1797 47.8823 37.7657 47.6709 37.4009ZM23.9989 34.0017C23.6033 34.0017 23.2166 33.8844 22.8877 33.6647C22.5588 33.445 22.3024 33.1327 22.151 32.7674C21.9996 32.402 21.96 32 22.0372 31.6121C22.1144 31.2242 22.3049 30.868 22.5846 30.5883C22.8643 30.3087 23.2207 30.1183 23.6087 30.0411C23.9967 29.964 24.3989 30.0035 24.7643 30.1549C25.1298 30.3062 25.4422 30.5625 25.662 30.8913C25.8818 31.2201 25.9991 31.6067 25.9991 32.0022C25.9975 32.532 25.7863 33.0397 25.4115 33.4143C25.0367 33.789 24.5289 34.0001 23.9989 34.0017ZM25.9991 25.0039C25.9991 25.5342 25.7884 26.0428 25.4132 26.4178C25.0381 26.7928 24.5294 27.0034 23.9989 27.0034C23.4684 27.0034 22.9597 26.7928 22.5846 26.4178C22.2095 26.0428 21.9987 25.5342 21.9987 25.0039V14.0066C21.9987 13.4763 22.2095 12.9677 22.5846 12.5927C22.9597 12.2177 23.4684 12.0071 23.9989 12.0071C24.5294 12.0071 25.0381 12.2177 25.4132 12.5927C25.7884 12.9677 25.9991 13.4763 25.9991 14.0066V25.0039Z" fill="currentColor"/>
</g>
<defs>
<clipPath id="clip0_6013_51461">
<rect width="48" height="41" fill="white" transform="translate(-0.000976562)"/>
</clipPath>
</defs>
</svg>
