<svg id="analysis" width="48" height="48" viewBox="0 0 48 48" fill="none" xmlns="http://www.w3.org/2000/svg">
<g clip-path="url(#clip0_6013_51463)">
<path d="M8.3795 33.8L1.1995 40.98C0.427722 41.7518 -0.00585939 42.7985 -0.00585937 43.89C-0.00585936 44.9815 0.427722 46.0282 1.1995 46.8C1.97128 47.5718 3.01804 48.0054 4.1095 48.0054C5.20096 48.0054 6.24772 47.5718 7.0195 46.8L14.1995 39.62C11.9388 38.0296 9.96989 36.0607 8.3795 33.8ZM21.9995 20H17.9995C17.7345 20.0008 17.4806 20.1064 17.2933 20.2938C17.1059 20.4811 17.0003 20.735 16.9995 21V25.94C18.3307 28.3955 20.4418 30.3377 22.9995 31.46V21C22.9987 20.735 22.8931 20.4811 22.7057 20.2938C22.5184 20.1064 22.2645 20.0008 21.9995 20ZM37.9995 14H33.9995C33.7345 14.0008 33.4806 14.1064 33.2933 14.2938C33.1059 14.4811 33.0003 14.735 32.9995 15V31.46C35.5572 30.3377 37.6683 28.3955 38.9995 25.94V15C38.9987 14.735 38.8931 14.4811 38.7057 14.2938C38.5184 14.1064 38.2645 14.0008 37.9995 14ZM29.9995 17H25.9995C25.7345 17.0008 25.4806 17.1064 25.2933 17.2938C25.1059 17.4811 25.0003 17.735 24.9995 18V32.14C26.9708 32.6192 29.0282 32.6192 30.9995 32.14V18C30.9987 17.735 30.8931 17.4811 30.7057 17.2938C30.5184 17.1064 30.2645 17.0008 29.9995 17Z" fill="currentColor"/>
<path d="M27.999 6.2537e-07C24.0434 6.2537e-07 20.1766 1.17298 16.8876 3.37061C13.5986 5.56824 11.0352 8.69181 9.52144 12.3463C8.00769 16.0009 7.61162 20.0222 8.38333 23.9018C9.15503 27.7814 11.0598 31.3451 13.8569 34.1421C16.6539 36.9392 20.2176 38.844 24.0972 39.6157C27.9768 40.3874 31.9982 39.9913 35.6527 38.4776C39.3072 36.9638 42.4308 34.4004 44.6284 31.1114C46.826 27.8224 47.999 23.9556 47.999 20C47.9997 17.3734 47.4828 14.7724 46.478 12.3456C45.4731 9.91875 43.9999 7.7137 42.1426 5.8564C40.2853 3.9991 38.0803 2.52593 35.6535 1.52107C33.2267 0.516211 30.6257 -0.000656277 27.999 6.2537e-07ZM38.999 30.18C36.9502 32.3899 34.2833 33.9315 31.3458 34.6038C28.4082 35.2762 25.3363 35.0482 22.5302 33.9495C19.7241 32.8508 17.314 30.9324 15.6139 28.4442C13.9139 25.9561 13.0027 23.0135 12.999 20C12.9961 17.5565 13.5902 15.1492 14.7296 12.9876C15.869 10.826 17.5192 8.97541 19.5368 7.59689C21.5543 6.21837 23.8781 5.35361 26.306 5.07782C28.734 4.80203 31.1925 5.12356 33.4678 6.01444C35.7432 6.90533 37.7664 8.33859 39.3616 10.1896C40.9568 12.0406 42.0757 14.2533 42.609 16.6352C43.1661 19.0172 43.1211 21.4962 42.4899 23.8568C41.8587 26.2174 40.6603 28.3881 38.999 30.18Z" fill="currentColor"/>
</g>
<defs>
<clipPath id="clip0_6013_51463">
<rect width="48" height="48" fill="white" transform="translate(-0.000976562)"/>
</clipPath>
</defs>
</svg>
