<svg id="anticipatory" width="48" height="48" viewBox="0 0 48 40" fill="none" xmlns="http://www.w3.org/2000/svg">
<g clip-path="url(#clip0_6013_51467)">
<path d="M21.999 20.0001C21.999 19.4881 21.804 18.9761 21.413 18.5861L14.418 11.5881C14.2335 11.3971 14.0128 11.2447 13.7688 11.1399C13.5248 11.0351 13.2624 10.9799 12.9968 10.9776C12.7313 10.9753 12.4679 11.0259 12.2221 11.1265C11.9763 11.227 11.753 11.3755 11.5652 11.5633C11.3774 11.7511 11.2289 11.9744 11.1284 12.2202C11.0278 12.466 10.9772 12.7294 10.9795 12.9949C10.9818 13.2605 11.037 13.5229 11.1418 13.7669C11.2466 14.0109 11.399 14.2316 11.59 14.4161L15.002 18.0001H1.99902C1.46859 18.0001 0.959883 18.2108 0.58481 18.5859C0.209737 18.961 -0.000976562 19.4697 -0.000976562 20.0001C-0.000976562 20.5305 0.209737 21.0393 0.58481 21.4143C0.959883 21.7894 1.46859 22.0001 1.99902 22.0001H15.002L11.59 25.5841C11.2257 25.9613 11.0241 26.4665 11.0287 26.9909C11.0332 27.5153 11.2436 28.0169 11.6144 28.3878C11.9852 28.7586 12.4868 28.9689 13.0112 28.9735C13.5356 28.978 14.0408 28.7764 14.418 28.4121L21.413 21.4141C21.803 21.0241 21.999 20.5121 21.999 20.0001Z" fill="currentColor"/>
<path d="M45.8891 36H44.9991V31C44.9991 24.92 40.0791 20 33.9991 20C40.0791 20 44.9991 15.08 44.9991 9V4H45.8891C46.8891 4 47.8091 3.32 47.9691 2.34C48.0186 2.05289 48.0048 1.75843 47.9287 1.47721C47.8525 1.19599 47.7159 0.93481 47.5282 0.71193C47.3406 0.48905 47.1065 0.309856 46.8424 0.186884C46.5783 0.0639111 46.2905 0.000129372 45.9991 0L20.9991 0C20.7078 0.000129372 20.42 0.0639111 20.1558 0.186884C19.8917 0.309856 19.6576 0.48905 19.47 0.71193C19.2824 0.93481 19.1457 1.19599 19.0695 1.47721C18.9934 1.75843 18.9796 2.05289 19.0291 2.34C19.1891 3.32 20.1091 4 21.1091 4H21.9991V9C21.9991 15.08 26.9191 20 32.9991 20C26.9191 20 21.9991 24.92 21.9991 31V36H21.1091C20.1091 36 19.1891 36.68 19.0291 37.66C18.9796 37.9471 18.9934 38.2416 19.0695 38.5228C19.1457 38.804 19.2824 39.0652 19.47 39.2881C19.6576 39.511 19.8917 39.6901 20.1558 39.8131C20.42 39.9361 20.7078 39.9999 20.9991 40H45.9991C46.2905 39.9999 46.5783 39.9361 46.8424 39.8131C47.1065 39.6901 47.3406 39.511 47.5282 39.2881C47.7159 39.0652 47.8525 38.804 47.9287 38.5228C48.0048 38.2416 48.0186 37.9471 47.9691 37.66C47.8091 36.68 46.8891 36 45.8891 36ZM26.4991 11C26.2191 11 25.9991 10.78 25.9991 10.5V4.5C25.9991 4.23 26.2191 4 26.4991 4H40.4991C40.7791 4 40.9991 4.23 40.9991 4.5V10.5C40.9991 10.78 40.7791 11 40.4991 11H26.4991ZM40.4991 31H26.4991C26.2191 31 25.9791 30.75 25.9991 30.47C26.2691 26.85 29.3191 24 32.9991 24H33.9991C37.6791 24 40.7291 26.85 40.9991 30.47C41.0191 30.75 40.7791 31 40.4991 31Z" fill="currentColor"/>
</g>
<defs>
<clipPath id="clip0_6013_51467">
<rect width="47.999" height="40" fill="white" transform="translate(-0.000976562)"/>
</clipPath>
</defs>
</svg>
