<svg id="api" width="48" height="48" viewBox="0 0 48 44" fill="none" xmlns="http://www.w3.org/2000/svg">
<g clip-path="url(#clip0_6013_51471)">
<path d="M17.5 19.001H40.5C42.2239 19.001 43.8772 18.3162 45.0962 17.0972C46.3152 15.8782 47 14.2249 47 12.501C47 10.7771 46.3152 9.12377 45.0962 7.90478C43.8772 6.6858 42.2239 6.00098 40.5 6.00098C39.91 6.00098 39.341 6.08698 38.798 6.23398C37.992 2.66698 34.81 0.000976562 31 0.000976562C26.823 0.000976562 23.397 3.20398 23.036 7.28798C22.5447 7.10347 22.0248 7.00634 21.5 7.00098C20.3065 7.00098 19.1619 7.47508 18.318 8.319C17.4741 9.16291 17 10.3075 17 11.501C17 11.688 17.033 11.865 17.055 12.046C16.2127 12.1518 15.4378 12.561 14.8755 13.197C14.3131 13.8329 14.0019 14.6521 14 15.501C14 16.4292 14.3687 17.3195 15.0251 17.9759C15.6815 18.6322 16.5717 19.001 17.5 19.001ZM47 38.001H31C31 38.551 30.78 39.051 30.41 39.411C30.05 39.781 29.55 40.001 29 40.001H19C17.9 40.001 17 39.101 17 38.001H1C0.45 38.001 0 38.451 0 39.001V43.001C0 43.551 0.45 44.001 1 44.001H47C47.55 44.001 48 43.551 48 43.001V39.001C48 38.451 47.55 38.001 47 38.001ZM8 16.001H11V11.001H5C3.9 11.001 3 11.901 3 13.001V35.001H8V16.001Z" fill="currentColor"/>
<path d="M40 22.001H45V35.001H40V22.001Z" fill="currentColor"/>
</g>
<defs>
<clipPath id="clip0_6013_51471">
<rect width="48" height="44" fill="white" transform="translate(0 0.000976562)"/>
</clipPath>
</defs>
</svg>
