<svg id="apps" width="48" height="48" viewBox="0 0 48 42" fill="none" xmlns="http://www.w3.org/2000/svg">
<g clip-path="url(#clip0_6013_51475)">
<path d="M11.4286 5.00098C11.4286 5.98988 11.0934 6.95658 10.4655 7.77883C9.83765 8.60107 8.9452 9.24194 7.90105 9.62037C6.8569 9.99881 5.70795 10.0978 4.59949 9.9049C3.49102 9.71198 2.47284 9.23577 1.67368 8.53651C0.874521 7.83725 0.330288 6.94633 0.109801 5.97643C-0.110686 5.00652 0.00247591 4.00119 0.434977 3.08756C0.867477 2.17393 1.59989 1.39304 2.5396 0.843629C3.47931 0.294221 4.58411 0.000976563 5.71429 0.000976563C7.22981 0.000976563 8.68326 0.527761 9.7549 1.46544C10.8265 2.40312 11.4286 3.67489 11.4286 5.00098ZM5.71429 16.001C4.58411 16.001 3.47931 16.2942 2.5396 16.8436C1.59989 17.393 0.867477 18.1739 0.434977 19.0876C0.00247591 20.0012 -0.110686 21.0065 0.109801 21.9764C0.330288 22.9463 0.874521 23.8372 1.67368 24.5365C2.47284 25.2358 3.49102 25.712 4.59949 25.9049C5.70795 26.0978 6.8569 25.9988 7.90105 25.6204C8.9452 25.2419 9.83765 24.6011 10.4655 23.7788C11.0934 22.9566 11.4286 21.9899 11.4286 21.001C11.4286 19.6749 10.8265 18.4031 9.7549 17.4654C8.68326 16.5278 7.22981 16.001 5.71429 16.001ZM5.71429 32.001C4.58411 32.001 3.47931 32.2942 2.5396 32.8436C1.59989 33.393 0.867477 34.1739 0.434977 35.0876C0.00247591 36.0012 -0.110686 37.0065 0.109801 37.9764C0.330288 38.9463 0.874521 39.8372 1.67368 40.5365C2.47284 41.2358 3.49102 41.712 4.59949 41.9049C5.70795 42.0978 6.8569 41.9988 7.90105 41.6204C8.9452 41.2419 9.83765 40.6011 10.4655 39.7788C11.0934 38.9566 11.4286 37.9899 11.4286 37.001C11.4286 35.6749 10.8265 34.4031 9.7549 33.4654C8.68326 32.5278 7.22981 32.001 5.71429 32.001ZM5.71429 16.001C4.58411 16.001 3.47931 16.2942 2.5396 16.8436C1.59989 17.393 0.867477 18.1739 0.434977 19.0876C0.00247591 20.0012 -0.110686 21.0065 0.109801 21.9764C0.330288 22.9463 0.874521 23.8372 1.67368 24.5365C2.47284 25.2358 3.49102 25.712 4.59949 25.9049C5.70795 26.0978 6.8569 25.9988 7.90105 25.6204C8.9452 25.2419 9.83765 24.6011 10.4655 23.7788C11.0934 22.9566 11.4286 21.9899 11.4286 21.001C11.4286 19.6749 10.8265 18.4031 9.7549 17.4654C8.68326 16.5278 7.22981 16.001 5.71429 16.001ZM5.71429 32.001C4.58411 32.001 3.47931 32.2942 2.5396 32.8436C1.59989 33.393 0.867477 34.1739 0.434977 35.0876C0.00247591 36.0012 -0.110686 37.0065 0.109801 37.9764C0.330288 38.9463 0.874521 39.8372 1.67368 40.5365C2.47284 41.2358 3.49102 41.712 4.59949 41.9049C5.70795 42.0978 6.8569 41.9988 7.90105 41.6204C8.9452 41.2419 9.83765 40.6011 10.4655 39.7788C11.0934 38.9566 11.4286 37.9899 11.4286 37.001C11.4286 35.6749 10.8265 34.4031 9.7549 33.4654C8.68326 32.5278 7.22981 32.001 5.71429 32.001ZM24 0.000976563C22.8698 0.000976563 21.765 0.294221 20.8253 0.843629C19.8856 1.39304 19.1532 2.17393 18.7207 3.08756C18.2882 4.00119 18.175 5.00652 18.3955 5.97643C18.616 6.94633 19.1602 7.83725 19.9594 8.53651C20.7585 9.23577 21.7767 9.71198 22.8852 9.9049C23.9937 10.0978 25.1426 9.99881 26.1868 9.62037C27.2309 9.24194 28.1234 8.60107 28.7513 7.77883C29.3792 6.95658 29.7143 5.98988 29.7143 5.00098C29.7143 3.67489 29.1122 2.40312 28.0406 1.46544C26.969 0.527761 25.5155 0.000976563 24 0.000976563ZM24 16.001C22.8698 16.001 21.765 16.2942 20.8253 16.8436C19.8856 17.393 19.1532 18.1739 18.7207 19.0876C18.2882 20.0012 18.175 21.0065 18.3955 21.9764C18.616 22.9463 19.1602 23.8372 19.9594 24.5365C20.7585 25.2358 21.7767 25.712 22.8852 25.9049C23.9937 26.0978 25.1426 25.9988 26.1868 25.6204C27.2309 25.2419 28.1234 24.6011 28.7513 23.7788C29.3792 22.9566 29.7143 21.9899 29.7143 21.001C29.7143 19.6749 29.1122 18.4031 28.0406 17.4654C26.969 16.5278 25.5155 16.001 24 16.001ZM24 32.001C22.8698 32.001 21.765 32.2942 20.8253 32.8436C19.8856 33.393 19.1532 34.1739 18.7207 35.0876C18.2882 36.0012 18.175 37.0065 18.3955 37.9764C18.616 38.9463 19.1602 39.8372 19.9594 40.5365C20.7585 41.2358 21.7767 41.712 22.8852 41.9049C23.9937 42.0978 25.1426 41.9988 26.1868 41.6204C27.2309 41.2419 28.1234 40.6011 28.7513 39.7788C29.3792 38.9566 29.7143 37.9899 29.7143 37.001C29.7143 35.6749 29.1122 34.4031 28.0406 33.4654C26.969 32.5278 25.5155 32.001 24 32.001ZM24 0.000976563C22.8698 0.000976563 21.765 0.294221 20.8253 0.843629C19.8856 1.39304 19.1532 2.17393 18.7207 3.08756C18.2882 4.00119 18.175 5.00652 18.3955 5.97643C18.616 6.94633 19.1602 7.83725 19.9594 8.53651C20.7585 9.23577 21.7767 9.71198 22.8852 9.9049C23.9937 10.0978 25.1426 9.99881 26.1868 9.62037C27.2309 9.24194 28.1234 8.60107 28.7513 7.77883C29.3792 6.95658 29.7143 5.98988 29.7143 5.00098C29.7143 3.67489 29.1122 2.40312 28.0406 1.46544C26.969 0.527761 25.5155 0.000976563 24 0.000976563ZM24 16.001C22.8698 16.001 21.765 16.2942 20.8253 16.8436C19.8856 17.393 19.1532 18.1739 18.7207 19.0876C18.2882 20.0012 18.175 21.0065 18.3955 21.9764C18.616 22.9463 19.1602 23.8372 19.9594 24.5365C20.7585 25.2358 21.7767 25.712 22.8852 25.9049C23.9937 26.0978 25.1426 25.9988 26.1868 25.6204C27.2309 25.2419 28.1234 24.6011 28.7513 23.7788C29.3792 22.9566 29.7143 21.9899 29.7143 21.001C29.7143 19.6749 29.1122 18.4031 28.0406 17.4654C26.969 16.5278 25.5155 16.001 24 16.001ZM24 32.001C22.8698 32.001 21.765 32.2942 20.8253 32.8436C19.8856 33.393 19.1532 34.1739 18.7207 35.0876C18.2882 36.0012 18.175 37.0065 18.3955 37.9764C18.616 38.9463 19.1602 39.8372 19.9594 40.5365C20.7585 41.2358 21.7767 41.712 22.8852 41.9049C23.9937 42.0978 25.1426 41.9988 26.1868 41.6204C27.2309 41.2419 28.1234 40.6011 28.7513 39.7788C29.3792 38.9566 29.7143 37.9899 29.7143 37.001C29.7143 35.6749 29.1122 34.4031 28.0406 33.4654C26.969 32.5278 25.5155 32.001 24 32.001ZM42.2857 0.000976563C41.1555 0.000976563 40.0507 0.294221 39.111 0.843629C38.1713 1.39304 37.4389 2.17393 37.0064 3.08756C36.5739 4.00119 36.4607 5.00652 36.6812 5.97643C36.9017 6.94633 37.4459 7.83725 38.2451 8.53651C39.0443 9.23577 40.0625 9.71198 41.1709 9.9049C42.2794 10.0978 43.4283 9.99881 44.4725 9.62037C45.5166 9.24194 46.4091 8.60107 47.037 7.77883C47.6649 6.95658 48 5.98988 48 5.00098C48 3.67489 47.398 2.40312 46.3263 1.46544C45.2547 0.527761 43.8012 0.000976563 42.2857 0.000976563ZM42.2857 16.001C41.1555 16.001 40.0507 16.2942 39.111 16.8436C38.1713 17.393 37.4389 18.1739 37.0064 19.0876C36.5739 20.0012 36.4607 21.0065 36.6812 21.9764C36.9017 22.9463 37.4459 23.8372 38.2451 24.5365C39.0443 25.2358 40.0625 25.712 41.1709 25.9049C42.2794 26.0978 43.4283 25.9988 44.4725 25.6204C45.5166 25.2419 46.4091 24.6011 47.037 23.7788C47.6649 22.9566 48 21.9899 48 21.001C48 19.6749 47.398 18.4031 46.3263 17.4654C45.2547 16.5278 43.8012 16.001 42.2857 16.001ZM42.2857 32.001C41.1555 32.001 40.0507 32.2942 39.111 32.8436C38.1713 33.393 37.4389 34.1739 37.0064 35.0876C36.5739 36.0012 36.4607 37.0065 36.6812 37.9764C36.9017 38.9463 37.4459 39.8372 38.2451 40.5365C39.0443 41.2358 40.0625 41.712 41.1709 41.9049C42.2794 42.0978 43.4283 41.9988 44.4725 41.6204C45.5166 41.2419 46.4091 40.6011 47.037 39.7788C47.6649 38.9566 48 37.9899 48 37.001C48 35.6749 47.398 34.4031 46.3263 33.4654C45.2547 32.5278 43.8012 32.001 42.2857 32.001ZM42.2857 0.000976563C41.1555 0.000976563 40.0507 0.294221 39.111 0.843629C38.1713 1.39304 37.4389 2.17393 37.0064 3.08756C36.5739 4.00119 36.4607 5.00652 36.6812 5.97643C36.9017 6.94633 37.4459 7.83725 38.2451 8.53651C39.0443 9.23577 40.0625 9.71198 41.1709 9.9049C42.2794 10.0978 43.4283 9.99881 44.4725 9.62037C45.5166 9.24194 46.4091 8.60107 47.037 7.77883C47.6649 6.95658 48 5.98988 48 5.00098C48 3.67489 47.398 2.40312 46.3263 1.46544C45.2547 0.527761 43.8012 0.000976563 42.2857 0.000976563ZM42.2857 16.001C41.1555 16.001 40.0507 16.2942 39.111 16.8436C38.1713 17.393 37.4389 18.1739 37.0064 19.0876C36.5739 20.0012 36.4607 21.0065 36.6812 21.9764C36.9017 22.9463 37.4459 23.8372 38.2451 24.5365C39.0443 25.2358 40.0625 25.712 41.1709 25.9049C42.2794 26.0978 43.4283 25.9988 44.4725 25.6204C45.5166 25.2419 46.4091 24.6011 47.037 23.7788C47.6649 22.9566 48 21.9899 48 21.001C48 19.6749 47.398 18.4031 46.3263 17.4654C45.2547 16.5278 43.8012 16.001 42.2857 16.001ZM42.2857 32.001C41.1555 32.001 40.0507 32.2942 39.111 32.8436C38.1713 33.393 37.4389 34.1739 37.0064 35.0876C36.5739 36.0012 36.4607 37.0065 36.6812 37.9764C36.9017 38.9463 37.4459 39.8372 38.2451 40.5365C39.0443 41.2358 40.0625 41.712 41.1709 41.9049C42.2794 42.0978 43.4283 41.9988 44.4725 41.6204C45.5166 41.2419 46.4091 40.6011 47.037 39.7788C47.6649 38.9566 48 37.9899 48 37.001C48 35.6749 47.398 34.4031 46.3263 33.4654C45.2547 32.5278 43.8012 32.001 42.2857 32.001Z" fill="currentColor"/>
</g>
<defs>
<clipPath id="clip0_6013_51475">
<rect width="48" height="42" fill="white" transform="translate(0 0.000976562)"/>
</clipPath>
</defs>
</svg>
