<svg id="arrest" width="48" height="48" viewBox="0 0 48 48" fill="none" xmlns="http://www.w3.org/2000/svg">
<g clip-path="url(#clip0_6013_51477)">
<path d="M16.9998 25.091V23.501C16.998 22.8385 16.734 22.2037 16.2656 21.7353C15.7971 21.2668 15.1623 21.0028 14.4998 21.001H9.49985C8.83737 21.0028 8.20256 21.2668 7.73412 21.7353C7.26568 22.2037 7.00169 22.8385 6.99985 23.501V25.081C5.28896 25.8656 3.7865 27.0414 2.61372 28.5136C1.44094 29.9858 0.630689 31.7131 0.248362 33.5561C-0.133966 35.3991 -0.0776605 37.3061 0.412733 39.1233C0.903127 40.9405 1.81387 42.617 3.07147 44.0174C4.32906 45.4179 5.89828 46.503 7.65247 47.1853C9.40667 47.8676 11.2967 48.128 13.17 47.9454C15.0434 47.7627 16.8475 47.1423 18.4369 46.134C20.0263 45.1257 21.3564 43.7579 22.3198 42.141C21.4498 40.211 20.9998 38.1181 20.9998 36.001C20.9998 33.8839 21.4498 31.791 22.3198 29.861C21.0691 27.7701 19.2143 26.1071 16.9998 25.091ZM11.9998 43.001C10.6154 43.001 9.262 42.5904 8.11086 41.8213C6.95971 41.0521 6.0625 39.9588 5.53269 38.6798C5.00288 37.4007 4.86425 35.9932 5.13435 34.6353C5.40445 33.2775 6.07113 32.0302 7.0501 31.0512C8.02907 30.0723 9.27635 29.4056 10.6342 29.1355C11.9921 28.8654 13.3995 29.004 14.6786 29.5338C15.9577 30.0636 17.051 30.9608 17.8201 32.112C18.5893 33.2631 18.9998 34.6165 18.9998 36.001C18.9972 37.8567 18.2589 39.6356 16.9467 40.9478C15.6345 42.26 13.8555 42.9983 11.9998 43.001ZM11.9998 18.001C12.5298 17.9994 13.0376 17.7882 13.4123 17.4134C13.787 17.0387 13.9983 16.5309 13.9998 16.001V13.001C13.9998 12.4705 13.7891 11.9618 13.4141 11.5868C13.039 11.2117 12.5303 11.001 11.9998 11.001C11.4694 11.001 10.9607 11.2117 10.5856 11.5868C10.2106 11.9618 9.99985 12.4705 9.99985 13.001V16.001C10.0014 16.5309 10.2127 17.0387 10.5874 17.4134C10.9621 17.7882 11.4699 17.9994 11.9998 18.001ZM16.3598 8.43298L18.4258 6.36998C18.6118 6.18785 18.7598 5.97065 18.8612 5.73095C18.9626 5.49125 19.0155 5.2338 19.0168 4.97353C19.018 4.71325 18.9676 4.45531 18.8685 4.21463C18.7694 3.97396 18.6235 3.75534 18.4394 3.57143C18.2552 3.38751 18.0364 3.24196 17.7955 3.1432C17.5547 3.04443 17.2967 2.99442 17.0364 2.99605C16.7762 2.99768 16.5188 3.05093 16.2792 3.15271C16.0397 3.25448 15.8227 3.40277 15.6408 3.58898L13.5738 5.65098C13.2118 6.02168 13.0106 6.5202 13.0138 7.03835C13.0171 7.55651 13.2245 8.05247 13.5912 8.4186C13.9579 8.78473 14.4541 8.99149 14.9723 8.99399C15.4904 8.9965 15.9887 8.79455 16.3588 8.43198M33.9998 13.001V16.001C33.9998 16.5314 34.2106 17.0401 34.5856 17.4152C34.9607 17.7903 35.4694 18.001 35.9998 18.001C36.5303 18.001 37.039 17.7903 37.4141 17.4152C37.7891 17.0401 37.9998 16.5314 37.9998 16.001V13.001C37.9998 12.4705 37.7891 11.9618 37.4141 11.5868C37.039 11.2117 36.5303 11.001 35.9998 11.001C35.4694 11.001 34.9607 11.2117 34.5856 11.5868C34.2106 11.9618 33.9998 12.4705 33.9998 13.001ZM31.6598 8.42698C31.84 8.61649 32.0563 8.76803 32.2959 8.87268C32.5356 8.97733 32.7938 9.03297 33.0552 9.03632C33.3167 9.03967 33.5762 8.99066 33.8184 8.89218C34.0607 8.7937 34.2808 8.64775 34.4658 8.46291C34.6507 8.27807 34.7968 8.05808 34.8955 7.81591C34.9941 7.57374 35.0433 7.31427 35.0402 7.0528C35.037 6.79132 34.9816 6.53312 34.8771 6.2934C34.7726 6.05368 34.6212 5.83729 34.4318 5.65698L32.3468 3.57498C31.9783 3.20805 31.4797 3.00171 30.9597 3.00096C30.4396 3.00021 29.9404 3.20511 29.5708 3.57098C29.2042 3.93968 28.9987 4.43865 28.9993 4.9586C28.9998 5.47854 29.2064 5.97707 29.5738 6.34498L31.6598 8.42698ZM26.9998 2.00098C26.9998 1.47054 26.7891 0.961836 26.4141 0.586763C26.039 0.21169 25.5303 0.000976563 24.9998 0.000976562L22.9998 0.000976563C22.4694 0.000976563 21.9607 0.21169 21.5856 0.586763C21.2106 0.961836 20.9998 1.47054 20.9998 2.00098C20.9998 2.53141 21.2106 3.04012 21.5856 3.41519C21.9607 3.79026 22.4694 4.00098 22.9998 4.00098H24.9998C25.5303 4.00098 26.039 3.79026 26.4141 3.41519C26.7891 3.04012 26.9998 2.53141 26.9998 2.00098Z" fill="currentColor"/>
<path d="M41 25.081V23.501C40.9982 22.8385 40.7342 22.2037 40.2657 21.7353C39.7973 21.2668 39.1625 21.0028 38.5 21.001H33.5C32.8375 21.0028 32.2027 21.2668 31.7343 21.7353C31.2658 22.2037 31.0019 22.8385 31 23.501V25.081C28.5109 26.2218 26.4869 28.1796 25.2638 30.6294C24.0407 33.0791 23.6921 35.8734 24.276 38.5485C24.8599 41.2237 26.341 43.6186 28.4736 45.336C30.6062 47.0533 33.2619 47.9897 36 47.9897C38.7381 47.9897 41.3939 47.0533 43.5264 45.336C45.659 43.6186 47.1402 41.2237 47.724 38.5485C48.3079 35.8734 47.9593 33.0791 46.7363 30.6294C45.5132 28.1796 43.4891 26.2218 41 25.081ZM36 43.001C34.6155 43.001 33.2622 42.5904 32.111 41.8213C30.9599 41.0521 30.0627 39.9588 29.5329 38.6798C29.003 37.4007 28.8644 35.9932 29.1345 34.6353C29.4046 33.2775 30.0713 32.0302 31.0503 31.0512C32.0292 30.0723 33.2765 29.4056 34.6344 29.1355C35.9923 28.8654 37.3997 29.004 38.6788 29.5338C39.9579 30.0636 41.0511 30.9608 41.8203 32.112C42.5895 33.2631 43 34.6165 43 36.001C42.9974 37.8567 42.259 39.6356 40.9468 40.9478C39.6347 42.26 37.8557 42.9983 36 43.001Z" fill="currentColor"/>
</g>
<defs>
<clipPath id="clip0_6013_51477">
<rect width="48" height="48" fill="white" transform="translate(0 0.000976562)"/>
</clipPath>
</defs>
</svg>
