<svg id="assault" width="48" height="48" viewBox="0 0 48 48" fill="none" xmlns="http://www.w3.org/2000/svg">
<g clip-path="url(#clip0_6013_51485)">
<path d="M12.496 41.001C12.0982 41.001 11.7166 41.159 11.4353 41.4403C11.154 41.7216 10.996 42.1032 10.996 42.501V46.5C10.996 46.8978 11.154 47.2793 11.4353 47.5606C11.7166 47.8419 12.0982 48 12.496 48C12.8938 48 13.2754 47.8419 13.5567 47.5606C13.838 47.2793 13.996 46.8978 13.996 46.5V42.501C13.996 42.1032 13.838 41.7216 13.5567 41.4403C13.2754 41.159 12.8938 41.001 12.496 41.001ZM23.498 34.004H19.498C19.1002 34.004 18.7186 34.162 18.4373 34.4433C18.156 34.7246 17.998 35.1061 17.998 35.504C17.998 35.9018 18.156 36.2833 18.4373 36.5646C18.7186 36.8459 19.1002 37.004 19.498 37.004H23.498C23.8958 37.004 24.2774 36.8459 24.5587 36.5646C24.84 36.2833 24.998 35.9018 24.998 35.504C24.998 35.1061 24.84 34.7246 24.5587 34.4433C24.2774 34.162 23.8958 34.004 23.498 34.004ZM12.502 23.002C12.1042 23.002 11.7226 23.16 11.4413 23.4413C11.16 23.7226 11.002 24.1042 11.002 24.502V28.501C11.002 28.8988 11.16 29.2803 11.4413 29.5616C11.7226 29.8429 12.1042 30.001 12.502 30.001C12.8998 30.001 13.2814 29.8429 13.5627 29.5616C13.844 29.2803 14.002 28.8988 14.002 28.501V24.502C14.002 24.1042 13.844 23.7226 13.5627 23.4413C13.2814 23.16 12.8998 23.002 12.502 23.002ZM6.999 35.498C6.999 35.1002 6.84096 34.7186 6.55966 34.4373C6.27836 34.156 5.89682 33.998 5.499 33.998H1.5C1.10218 33.998 0.720644 34.156 0.43934 34.4373C0.158035 34.7186 0 35.1002 0 35.498C0 35.8958 0.158035 36.2773 0.43934 36.5586C0.720644 36.8399 1.10218 36.998 1.5 36.998H5.499C5.89682 36.998 6.27836 36.8399 6.55966 36.5586C6.84096 36.2773 6.999 35.8958 6.999 35.498ZM18.56 39.437C18.4207 39.2976 18.2553 39.1871 18.0732 39.1117C17.8912 39.0363 17.696 38.9975 17.499 38.9975C17.302 38.9975 17.1068 39.0363 16.9248 39.1117C16.7427 39.1871 16.5773 39.2976 16.438 39.437C16.2987 39.5763 16.1881 39.7417 16.1127 39.9238C16.0373 40.1058 15.9985 40.3009 15.9985 40.498C15.9985 40.695 16.0373 40.8901 16.1127 41.0722C16.1881 41.2542 16.2987 41.4196 16.438 41.559L19.441 44.562C19.7224 44.8434 20.104 45.0015 20.502 45.0015C20.9 45.0015 21.2816 44.8434 21.563 44.562C21.8444 44.2806 22.0025 43.8989 22.0025 43.501C22.0025 43.103 21.8444 42.7214 21.563 42.44L18.56 39.437ZM18.556 31.565L21.56 28.562C21.8414 28.2806 21.9995 27.8989 21.9995 27.501C21.9995 27.103 21.8414 26.7214 21.56 26.44C21.2786 26.1586 20.897 26.0005 20.499 26.0005C20.101 26.0005 19.7194 26.1586 19.438 26.44L16.435 29.443C16.2957 29.5822 16.1851 29.7476 16.1097 29.9296C16.0343 30.1116 15.9954 30.3066 15.9954 30.5036C15.9953 30.7006 16.0341 30.8957 16.1094 31.0777C16.1848 31.2597 16.2952 31.4251 16.4345 31.5645C16.5738 31.7038 16.7391 31.8143 16.9211 31.8898C17.1031 31.9652 17.2981 32.0041 17.4951 32.0041C17.6921 32.0042 17.8872 31.9654 18.0692 31.89C18.2513 31.8147 18.4167 31.7042 18.556 31.565ZM6.441 31.564C6.72471 31.8325 7.10195 31.9797 7.49252 31.9743C7.88308 31.969 8.25616 31.8115 8.53242 31.5354C8.80869 31.2593 8.96634 30.8862 8.97186 30.4957C8.97739 30.1051 8.83034 29.7278 8.562 29.444L5.56 26.439C5.27861 26.1576 4.89695 25.9995 4.499 25.9995C4.10105 25.9995 3.71939 26.1576 3.438 26.439C3.15661 26.7204 2.99852 27.102 2.99852 27.5C2.99852 27.8979 3.15661 28.2796 3.438 28.561L6.441 31.564ZM6.441 39.437L3.438 42.441C3.29867 42.5803 3.18814 42.7457 3.11274 42.9278C3.03733 43.1098 2.99852 43.3049 2.99852 43.502C2.99852 43.699 3.03733 43.8941 3.11274 44.0762C3.18814 44.2582 3.29867 44.4236 3.438 44.563C3.71939 44.8444 4.10105 45.0025 4.499 45.0025C4.69605 45.0025 4.89116 44.9636 5.07321 44.8882C5.25526 44.8128 5.42067 44.7023 5.56 44.563L8.563 41.56C8.70233 41.4206 8.81286 41.2552 8.88826 41.0732C8.96367 40.8911 9.00248 40.696 9.00248 40.499C9.00248 40.3019 8.96367 40.1068 8.88826 39.9248C8.81286 39.7427 8.70233 39.5773 8.563 39.438C8.42367 39.2986 8.25826 39.1881 8.07621 39.1127C7.89416 39.0373 7.69905 38.9985 7.502 38.9985C7.30495 38.9985 7.10984 39.0373 6.92779 39.1127C6.74574 39.1881 6.58033 39.2976 6.441 39.437ZM34.999 10.001C27.588 10.001 21.999 15.161 21.999 22.001C21.999 22.5314 22.2097 23.0401 22.5848 23.4152C22.9599 23.7903 23.4686 24.001 23.999 24.001C24.5294 24.001 25.0381 23.7903 25.4132 23.4152C25.7883 23.0401 25.999 22.5314 25.999 22.001C25.9727 20.616 26.3331 19.2511 27.0397 18.0596C27.7463 16.8681 28.7711 15.8972 29.999 15.256V46.001C29.999 46.5314 30.2097 47.0401 30.5848 47.4152C30.9599 47.7903 31.4686 48.001 31.999 48.001C32.5294 48.001 33.0381 47.7903 33.4132 47.4152C33.7883 47.0401 33.999 46.5314 33.999 46.001V31.001H35.999V46.001C35.999 46.5314 36.2097 47.0401 36.5848 47.4152C36.9599 47.7903 37.4686 48.001 37.999 48.001C38.5294 48.001 39.0381 47.7903 39.4132 47.4152C39.7883 47.0401 39.999 46.5314 39.999 46.001V15.256C41.2269 15.8972 42.2517 16.8681 42.9583 18.0596C43.6649 19.2511 44.0253 20.616 43.999 22.001C43.999 22.5314 44.2097 23.0401 44.5848 23.4152C44.9599 23.7903 45.4686 24.001 45.999 24.001C46.5294 24.001 47.0381 23.7903 47.4132 23.4152C47.7883 23.0401 47.999 22.5314 47.999 22.001C47.999 15.161 42.41 10.001 34.999 10.001Z" fill="currentColor"/>
<path d="M34.999 8.00098C37.2082 8.00098 38.999 6.21012 38.999 4.00098C38.999 1.79184 37.2082 0.000976562 34.999 0.000976562C32.7899 0.000976562 30.999 1.79184 30.999 4.00098C30.999 6.21012 32.7899 8.00098 34.999 8.00098Z" fill="currentColor"/>
</g>
<defs>
<clipPath id="clip0_6013_51485">
<rect width="47.999" height="48" fill="white" transform="translate(0 0.000976562)"/>
</clipPath>
</defs>
</svg>
