<svg id="assessment" width="48" height="48" viewBox="0 0 48 48" fill="none" xmlns="http://www.w3.org/2000/svg">
<g clip-path="url(#clip0_6013_51489)">
<path d="M1.99902 11.0008H4.22902C4.68033 12.9894 5.7941 14.7656 7.38762 16.0381C8.98115 17.3105 10.9598 18.0035 12.999 18.0035C15.0382 18.0035 17.0169 17.3105 18.6104 16.0381C20.204 14.7656 21.3177 12.9894 21.769 11.0008H26.229C26.6803 12.9894 27.7941 14.7656 29.3876 16.0381C30.9812 17.3105 32.9598 18.0035 34.999 18.0035C37.0382 18.0035 39.0169 17.3105 40.6104 16.0381C42.204 14.7656 43.3177 12.9894 43.769 11.0008H45.999C46.5295 11.0008 47.0382 10.7901 47.4132 10.415C47.7883 10.0399 47.999 9.53122 47.999 9.00078C47.999 8.47035 47.7883 7.96164 47.4132 7.58657C47.0382 7.2115 46.5295 7.00078 45.999 7.00078H43.769C43.3177 5.01214 42.204 3.23592 40.6104 1.96351C39.0169 0.6911 37.0382 -0.00195312 34.999 -0.00195312C32.9598 -0.00195313 30.9812 0.6911 29.3876 1.96351C27.7941 3.23592 26.6803 5.01214 26.229 7.00078H21.769C21.3177 5.01214 20.204 3.23592 18.6104 1.96351C17.0169 0.6911 15.0382 -0.00195312 12.999 -0.00195312C10.9598 -0.00195312 8.98115 0.6911 7.38762 1.96351C5.7941 3.23592 4.68033 5.01214 4.22902 7.00078H1.99902C1.46859 7.00078 0.959883 7.2115 0.58481 7.58657C0.209737 7.96164 -0.000976562 8.47035 -0.000976562 9.00078C-0.000976562 9.53122 0.209737 10.0399 0.58481 10.415C0.959883 10.7901 1.46859 11.0008 1.99902 11.0008ZM30.423 7.00078C30.9175 5.88678 31.807 4.99536 32.9199 4.49852C34.0329 4.00168 35.2904 3.93461 36.4498 4.31027C37.6093 4.68593 38.5886 5.47768 39.1987 6.53278C39.8088 7.58787 40.0066 8.83155 39.7538 10.0239C39.501 11.2162 38.8157 12.2726 37.8299 12.9894C36.8441 13.7061 35.6278 14.0324 34.4157 13.9053C33.2035 13.7782 32.0814 13.2066 31.2658 12.3009C30.4502 11.3952 29.9989 10.2196 29.999 9.00078C30.0011 8.31203 30.1454 7.63113 30.423 7.00078ZM8.42302 7.00078C8.91747 5.88678 9.80697 4.99536 10.9199 4.49852C12.0329 4.00168 13.2904 3.93461 14.4498 4.31027C15.6093 4.68593 16.5886 5.47768 17.1987 6.53278C17.8088 7.58787 18.0066 8.83155 17.7538 10.0239C17.501 11.2162 16.8157 12.2726 15.8299 12.9894C14.8441 13.7061 13.6278 14.0324 12.4157 13.9053C11.2035 13.7782 10.0814 13.2066 9.2658 12.3009C8.4502 11.3952 7.99892 10.2196 7.99902 9.00078C8.0011 8.31203 8.14545 7.63113 8.42302 7.00078ZM46.999 23.0008H16.999C16.7341 23.0016 16.4802 23.1072 16.2928 23.2946C16.1054 23.4819 15.9998 23.7358 15.999 24.0008V27.9908H30.999C31.7971 27.9916 32.5622 28.309 33.1265 28.8733C33.6908 29.4376 34.0082 30.2027 34.009 31.0008V48.0008H47.999V24.0008C47.9982 23.7358 47.8926 23.4819 47.7053 23.2946C47.5179 23.1072 47.264 23.0016 46.999 23.0008Z" fill="currentColor"/>
<path d="M29.999 30.001H1.99902C1.46908 30.0026 0.961288 30.2138 0.586558 30.5885C0.211828 30.9632 0.000606164 31.471 -0.000976562 32.001L-0.000976562 47.931L0.0690234 48.001H31.989L31.999 47.991V32.001C31.9974 31.471 31.7862 30.9632 31.4115 30.5885C31.0368 30.2138 30.529 30.0026 29.999 30.001ZM25.499 45.001H6.49902C6.1012 45.001 5.71967 44.8429 5.43836 44.5616C5.15706 44.2803 4.99902 43.8988 4.99902 43.501C4.99902 43.1032 5.15706 42.7216 5.43836 42.4403C5.71967 42.159 6.1012 42.001 6.49902 42.001H25.499C25.8968 42.001 26.2784 42.159 26.5597 42.4403C26.841 42.7216 26.999 43.1032 26.999 43.501C26.999 43.8988 26.841 44.2803 26.5597 44.5616C26.2784 44.8429 25.8968 45.001 25.499 45.001ZM25.499 39.001H6.49902C6.1012 39.001 5.71967 38.8429 5.43836 38.5616C5.15706 38.2803 4.99902 37.8988 4.99902 37.501C4.99902 37.1032 5.15706 36.7216 5.43836 36.4403C5.71967 36.159 6.1012 36.001 6.49902 36.001H25.499C25.8968 36.001 26.2784 36.159 26.5597 36.4403C26.841 36.7216 26.999 37.1032 26.999 37.501C26.999 37.8988 26.841 38.2803 26.5597 38.5616C26.2784 38.8429 25.8968 39.001 25.499 39.001Z" fill="currentColor"/>
</g>
<defs>
<clipPath id="clip0_6013_51489">
<rect width="48" height="48" fill="white" transform="translate(-0.000976562 0.000976562)"/>
</clipPath>
</defs>
</svg>
