<svg id="assembly" width="48" height="48" viewBox="0 0 48 48" fill="none" xmlns="http://www.w3.org/2000/svg">
<g clip-path="url(#clip0_6013_51481)">
<path d="M23.999 29.001C26.7604 29.001 28.999 26.7624 28.999 24.001C28.999 21.2396 26.7604 19.001 23.999 19.001C21.2376 19.001 18.999 21.2396 18.999 24.001C18.999 26.7624 21.2376 29.001 23.999 29.001Z" fill="currentColor"/>
<path d="M45.999 22.001H37.828L39.413 20.415C39.7773 20.0378 39.9789 19.5326 39.9744 19.0082C39.9698 18.4838 39.7595 17.9822 39.3887 17.6113C39.0178 17.2405 38.5162 17.0302 37.9918 17.0256C37.4674 17.0211 36.9622 17.2227 36.585 17.587L31.585 22.587C31.4612 22.7146 31.3549 22.8582 31.269 23.014C31.2484 23.0506 31.2287 23.088 31.21 23.126C31.1339 23.2765 31.0771 23.4361 31.041 23.601L31.037 23.613C31.0062 23.7828 30.9974 23.9559 31.011 24.128C31.0144 24.1693 31.0184 24.2103 31.023 24.251C31.0426 24.4265 31.0853 24.5987 31.15 24.763L31.151 24.767L31.16 24.781C31.2281 24.9354 31.3155 25.0805 31.42 25.213C31.448 25.2503 31.4774 25.2863 31.508 25.321C31.535 25.351 31.556 25.386 31.585 25.415L36.585 30.415C36.9622 30.7793 37.4674 30.9809 37.9918 30.9763C38.5162 30.9718 39.0178 30.7614 39.3887 30.3906C39.7595 30.0198 39.9698 29.5182 39.9744 28.9938C39.9789 28.4694 39.7773 27.9642 39.413 27.587L37.827 26.001H45.999C46.5295 26.001 47.0382 25.7903 47.4132 25.4152C47.7883 25.0401 47.999 24.5314 47.999 24.001C47.999 23.4705 47.7883 22.9618 47.4132 22.5868C47.0382 22.2117 46.5295 22.001 45.999 22.001ZM16.987 24.128C17.0006 23.9559 16.9919 23.7828 16.961 23.613L16.957 23.601C16.9206 23.4361 16.8635 23.2765 16.787 23.126L16.729 23.014C16.6431 22.8582 16.5369 22.7146 16.413 22.587L11.413 17.587C11.0358 17.2227 10.5306 17.0211 10.0062 17.0256C9.48183 17.0302 8.9802 17.2405 8.60939 17.6113C8.23857 17.9822 8.02823 18.4838 8.02367 19.0082C8.01912 19.5326 8.22071 20.0378 8.58502 20.415L10.169 22.001H1.99902C1.46859 22.001 0.959883 22.2117 0.58481 22.5868C0.209737 22.9618 -0.000976562 23.4705 -0.000976562 24.001C-0.000976562 24.5314 0.209737 25.0401 0.58481 25.4152C0.959883 25.7903 1.46859 26.001 1.99902 26.001H10.171L8.58502 27.587C8.394 27.7715 8.24164 27.9922 8.13682 28.2362C8.032 28.4802 7.97683 28.7426 7.97452 29.0082C7.97222 29.2737 8.02282 29.5371 8.12338 29.7829C8.22394 30.0287 8.37245 30.252 8.56023 30.4398C8.74802 30.6276 8.97132 30.7761 9.21712 30.8766C9.46291 30.9772 9.72627 31.0278 9.99183 31.0255C10.2574 31.0232 10.5198 30.968 10.7638 30.8632C11.0078 30.7584 11.2285 30.606 11.413 30.415L16.413 25.415C16.443 25.385 16.463 25.351 16.49 25.321C16.5207 25.2856 16.55 25.2496 16.578 25.213C16.6826 25.0805 16.7699 24.9354 16.838 24.781L16.847 24.767V24.763C16.9121 24.5987 16.9552 24.4265 16.975 24.251C16.9804 24.211 16.9844 24.17 16.987 24.128ZM22.585 16.415C22.6796 16.5098 22.7834 16.5949 22.895 16.669C22.9843 16.7256 23.0779 16.7751 23.175 16.817C23.198 16.827 23.219 16.843 23.241 16.852C23.3436 16.8923 23.4493 16.9241 23.557 16.947C23.5757 16.9523 23.5947 16.9576 23.614 16.963C23.7408 16.9881 23.8698 17.0008 23.999 17.001L24.025 16.999C24.1459 16.9979 24.2664 16.9858 24.385 16.963C24.3997 16.959 24.415 16.9543 24.431 16.949C24.5437 16.9252 24.6541 16.8917 24.761 16.849H24.764L24.774 16.843C24.9307 16.7741 25.0779 16.6854 25.212 16.579C25.248 16.5515 25.283 16.5228 25.317 16.493C25.349 16.466 25.383 16.445 25.413 16.415L30.413 11.415C30.7773 11.0378 30.9789 10.5326 30.9744 10.0082C30.9698 9.48378 30.7595 8.98216 30.3887 8.61134C30.0178 8.24052 29.5162 8.03018 28.9918 8.02563C28.4674 8.02107 27.9622 8.22266 27.585 8.58698L25.999 10.173V2.00098C25.999 1.47054 25.7883 0.961836 25.4132 0.586763C25.0382 0.21169 24.5295 0.000976563 23.999 0.000976562C23.4686 0.000976563 22.9599 0.21169 22.5848 0.586763C22.2097 0.961836 21.999 1.47054 21.999 2.00098V10.173L20.413 8.58698C20.0358 8.22266 19.5306 8.02107 19.0062 8.02563C18.4818 8.03018 17.9802 8.24052 17.6094 8.61134C17.2386 8.98216 17.0282 9.48378 17.0237 10.0082C17.0191 10.5326 17.2207 11.0378 17.585 11.415L22.585 16.415ZM25.413 31.587C25.383 31.557 25.349 31.537 25.317 31.509C25.283 31.4791 25.248 31.4504 25.212 31.423C25.0776 31.3165 24.9301 31.2278 24.773 31.159L24.764 31.153H24.762C24.5984 31.0881 24.4269 31.045 24.252 31.025C24.2088 31.0196 24.1655 31.0156 24.122 31.013C23.9523 31 23.7816 31.0087 23.614 31.039C23.6047 31.041 23.5957 31.0433 23.587 31.046C23.4276 31.0816 23.2731 31.1367 23.127 31.21C23.087 31.23 23.048 31.2506 23.01 31.272C22.855 31.3577 22.7121 31.4636 22.585 31.587L17.585 36.587C17.2207 36.9642 17.0191 37.4694 17.0237 37.9938C17.0282 38.5182 17.2386 39.0198 17.6094 39.3906C17.9802 39.7614 18.4818 39.9718 19.0062 39.9763C19.5306 39.9809 20.0358 39.7793 20.413 39.415L21.999 37.829V46.001C21.999 46.5314 22.2097 47.0401 22.5848 47.4152C22.9599 47.7903 23.4686 48.001 23.999 48.001C24.5295 48.001 25.0382 47.7903 25.4132 47.4152C25.7883 47.0401 25.999 46.5314 25.999 46.001V37.829L27.585 39.415C27.9622 39.7793 28.4674 39.9809 28.9918 39.9763C29.5162 39.9718 30.0178 39.7614 30.3887 39.3906C30.7595 39.0198 30.9698 38.5182 30.9744 37.9938C30.9789 37.4694 30.7773 36.9642 30.413 36.587L25.413 31.587Z" fill="currentColor"/>
</g>
<defs>
<clipPath id="clip0_6013_51481">
<rect width="48" height="48" fill="white" transform="translate(-0.000976562 0.000976562)"/>
</clipPath>
</defs>
</svg>
