<svg id="attack" width="48" height="48" viewBox="0 0 48 48" fill="none" xmlns="http://www.w3.org/2000/svg">
<g clip-path="url(#clip0_6013_51493)">
<path d="M23.999 9.00098C24.7947 9.00098 25.5577 8.68491 26.1203 8.1223C26.683 7.55969 26.999 6.79663 26.999 6.00098V3.00098C26.999 2.20533 26.683 1.44227 26.1203 0.879656C25.5577 0.317047 24.7947 0.000976563 23.999 0.000976562C23.2034 0.000976563 22.4403 0.317047 21.8777 0.879656C21.3151 1.44227 20.999 2.20533 20.999 3.00098V6.00098C20.999 6.79663 21.3151 7.55969 21.8777 8.1223C22.4403 8.68491 23.2034 9.00098 23.999 9.00098ZM45.499 43.001H35.039L44.489 37.601C45.1663 37.1996 45.6585 36.5479 45.8591 35.7866C46.0598 35.0253 45.9528 34.2156 45.5614 33.5325C45.1699 32.8495 44.5254 32.3479 43.7672 32.1361C43.0089 31.9244 42.1977 32.0195 41.509 32.401L32.319 37.651L47.609 10.471C47.9989 9.77876 48.0978 8.96002 47.884 8.19487C47.6702 7.42973 47.1612 6.78084 46.469 6.39098C45.7768 6.00111 44.9581 5.90219 44.1929 6.11598C43.4278 6.32977 42.7789 6.83876 42.389 7.53098L26.999 34.891V20.001C26.999 19.2053 26.683 18.4423 26.1203 17.8797C25.5577 17.317 24.7947 17.001 23.999 17.001C23.2034 17.001 22.4403 17.317 21.8777 17.8797C21.3151 18.4423 20.999 19.2053 20.999 20.001V35.591L11.499 21.341C11.0563 20.6838 10.3716 20.2283 9.59427 20.0741C8.81698 19.9198 8.01023 20.0793 7.35006 20.5176C6.6899 20.956 6.22991 21.6376 6.07047 22.4139C5.91103 23.1901 6.06509 23.9979 6.49902 24.661L14.659 36.901L10.539 34.431C9.85742 34.0225 9.04148 33.9016 8.2707 34.0948C7.49993 34.2879 6.83746 34.7794 6.42902 35.461C6.02059 36.1426 5.89965 36.9585 6.09281 37.7293C6.28598 38.5001 6.77742 39.1625 7.45902 39.571L13.179 43.001H2.49902C1.83598 43.001 1.2001 43.2644 0.731256 43.7332C0.262416 44.202 -0.000976562 44.8379 -0.000976562 45.501C-0.000976562 46.164 0.262416 46.7999 0.731256 47.2687C1.2001 47.7376 1.83598 48.001 2.49902 48.001H45.499C46.1621 48.001 46.798 47.7376 47.2668 47.2687C47.7356 46.7999 47.999 46.164 47.999 45.501C47.999 44.8379 47.7356 44.202 47.2668 43.7332C46.798 43.2644 46.1621 43.001 45.499 43.001ZM23.239 43.001H16.999C16.9972 42.2854 17.1051 41.5738 17.319 40.891C17.6129 39.9754 18.0909 39.1295 18.7238 38.4055C19.3566 37.6815 20.1309 37.0946 20.999 36.681C21.1802 36.5816 21.3713 36.5011 21.569 36.441C22.3448 36.145 23.1688 35.9958 23.999 36.001C24.7399 35.9981 25.4763 36.1163 26.179 36.351C26.4601 36.4407 26.7342 36.551 26.999 36.681C27.8393 37.0752 28.5918 37.6341 29.2119 38.3247C29.8321 39.0152 30.3072 39.8233 30.609 40.701C30.8668 41.4404 30.9986 42.2179 30.999 43.001H23.239Z" fill="currentColor"/>
</g>
<defs>
<clipPath id="clip0_6013_51493">
<rect width="48.001" height="48" fill="white" transform="translate(-0.000976562 0.000976562)"/>
</clipPath>
</defs>
</svg>
