<svg id="bacteria" width="48" height="48" viewBox="0 0 48 48" fill="none" xmlns="http://www.w3.org/2000/svg">
<g clip-path="url(#clip0_6013_51500)">
<path d="M9.2642 29.9921C9.26438 31.772 9.79228 33.5118 10.7812 34.9916C11.77 36.4715 13.1755 37.6249 14.8198 38.306C16.4642 38.9872 18.2736 39.1655 20.0192 38.8184C21.7649 38.4714 23.3685 37.6145 24.6272 36.3561L35.9412 25.0431C37.6292 23.3553 38.5775 21.066 38.5776 18.679C38.5777 16.2919 37.6295 14.0026 35.9417 12.3146C35.106 11.4788 34.1138 10.8158 33.0218 10.3635C31.9299 9.91112 30.7595 9.67827 29.5776 9.67822C27.1905 9.67813 24.9012 10.6263 23.2132 12.3141L11.8992 23.6281C11.061 24.462 10.3965 25.4538 9.94419 26.5462C9.49189 27.6386 9.26077 28.8098 9.2642 29.9921ZM22.5002 19.0011C22.9947 19.0011 23.478 19.1478 23.8891 19.4225C24.3002 19.6972 24.6207 20.0876 24.8099 20.5444C24.9991 21.0012 25.0486 21.5039 24.9522 21.9889C24.8557 22.4738 24.6176 22.9193 24.268 23.2689C23.9183 23.6185 23.4729 23.8566 22.9879 23.9531C22.503 24.0496 22.0003 24 21.5435 23.8108C21.0867 23.6216 20.6962 23.3012 20.4215 22.8901C20.1468 22.4789 20.0002 21.9956 20.0002 21.5011C20.0002 20.8381 20.2636 20.2022 20.7324 19.7334C21.2013 19.2645 21.8372 19.0011 22.5002 19.0011ZM19.0002 27.0011C19.7913 27.0011 20.5647 27.2357 21.2225 27.6753C21.8803 28.1148 22.393 28.7395 22.6957 29.4704C22.9985 30.2013 23.0777 31.0056 22.9233 31.7815C22.769 32.5574 22.388 33.2701 21.8286 33.8296C21.2692 34.389 20.5565 34.7699 19.7806 34.9243C19.0046 35.0786 18.2004 34.9994 17.4695 34.6966C16.7386 34.3939 16.1138 33.8812 15.6743 33.2234C15.2348 32.5656 15.0002 31.7923 15.0002 31.0011C15.0002 29.9403 15.4216 28.9228 16.1718 28.1727C16.9219 27.4226 17.9393 27.0011 19.0002 27.0011Z" fill="currentColor"/>
<path d="M46.003 16.001L43.313 15.998C43.2156 15.505 43.0918 15.0176 42.942 14.538C42.909 14.431 42.867 14.328 42.832 14.222C42.702 13.832 42.5547 13.4473 42.39 13.068C42.35 12.98 42.3093 12.8923 42.268 12.805C42.0793 12.3963 41.87 11.9956 41.64 11.603L41.554 11.458C41.2839 11.0088 40.9888 10.5751 40.67 10.159L42.414 8.41498C42.7783 8.03777 42.9799 7.53257 42.9753 7.00817C42.9708 6.48378 42.7605 5.98216 42.3896 5.61134C42.0188 5.24052 41.5172 5.03019 40.9928 5.02563C40.4684 5.02107 39.9632 5.22266 39.586 5.58698L37.803 7.36998C36.0839 6.11509 34.0996 5.27175 32.003 4.90498H32V2.00098C32 1.47054 31.7893 0.961836 31.4142 0.586763C31.0391 0.21169 30.5304 0.000976563 30 0.000976562C29.4696 0.000976563 28.9609 0.21169 28.5858 0.586763C28.2107 0.961836 28 1.47054 28 2.00098V4.78298H27.996C27.1447 4.87711 26.3038 5.04917 25.484 5.29698C25.4687 5.30298 25.454 5.30831 25.44 5.31298C25.044 5.43498 24.652 5.56998 24.266 5.72798C23.8627 5.89131 23.466 6.07464 23.076 6.27798L20.385 3.58698C20.0078 3.22266 19.5026 3.02107 18.9782 3.02563C18.4538 3.03019 17.9522 3.24052 17.5814 3.61134C17.2105 3.98216 17.0002 4.48378 16.9957 5.00817C16.9911 5.53257 17.1927 6.03777 17.557 6.41498L19.805 8.66398C19.764 8.70398 19.718 8.73798 19.677 8.77898L16.142 12.314L12.414 8.58698C12.0368 8.22266 11.5316 8.02107 11.0072 8.02563C10.4828 8.03018 9.98118 8.24052 9.61036 8.61134C9.23955 8.98216 9.02921 9.48378 9.02465 10.0082C9.02009 10.5326 9.22168 11.0378 9.586 11.415L13.314 15.143L9.142 19.314L6.414 16.587C6.0368 16.2227 5.53159 16.0211 5.0072 16.0256C4.4828 16.0302 3.98118 16.2405 3.61036 16.6113C3.23955 16.9822 3.02921 17.4838 3.02465 18.0082C3.0201 18.5326 3.22168 19.0378 3.586 19.415L6.53 22.359L6.515 22.385C5.60409 23.7955 4.9563 25.3595 4.603 27.001H2C1.46957 27.001 0.960859 27.2117 0.585786 27.5868C0.210714 27.9618 0 28.4705 0 29.001C0 29.5314 0.210714 30.0401 0.585786 30.4152C0.960859 30.7903 1.46957 31.001 2 31.001H4.318C4.34508 31.3614 4.38611 31.7207 4.441 32.078C4.5746 32.9728 4.79463 33.8526 5.098 34.705L5.126 34.783C5.57157 36.0081 6.18727 37.1644 6.955 38.218L5.585 39.587C5.39931 39.7728 5.25204 39.9934 5.1516 40.2361C5.05115 40.4788 4.9995 40.739 4.99959 41.0017C4.99969 41.2644 5.05152 41.5245 5.15214 41.7672C5.25275 42.0098 5.40018 42.2303 5.586 42.416C5.77182 42.6017 5.9924 42.7489 6.23513 42.8494C6.47787 42.9498 6.73801 43.0015 7.00071 43.0014C7.2634 43.0013 7.52351 42.9495 7.76618 42.8488C8.00884 42.7482 8.22931 42.6008 8.415 42.415L9.745 41.085C10.2534 41.4755 10.788 41.8307 11.345 42.148C11.375 42.166 11.4057 42.184 11.437 42.202C11.784 42.3943 12.139 42.5718 12.501 42.734C12.729 42.837 12.957 42.941 13.19 43.031C13.5013 43.153 13.816 43.263 14.134 43.361C14.304 43.413 14.474 43.455 14.646 43.501C15.0275 43.6039 15.4132 43.6907 15.802 43.761C16.096 43.8136 16.391 43.8563 16.687 43.889C16.782 43.899 16.875 43.916 16.97 43.925V46.001C16.97 46.5314 17.1807 47.0401 17.5558 47.4152C17.9309 47.7903 18.4396 48.001 18.97 48.001C19.5004 48.001 20.0091 47.7903 20.3842 47.4152C20.7593 47.0401 20.97 46.5314 20.97 46.001V43.723L21.008 43.713C22.7496 43.3689 24.4092 42.6944 25.897 41.726L28.586 44.416C28.9613 44.791 29.4702 45.0016 30.0007 45.0014C30.5312 45.0012 31.04 44.7903 31.415 44.415C31.79 44.0397 32.0006 43.5308 32.0004 43.0003C32.0002 42.4697 31.7893 41.961 31.414 41.586L28.941 39.114L33.113 34.942L36.586 38.415C36.9632 38.7793 37.4684 38.9809 37.9928 38.9763C38.5172 38.9718 39.0188 38.7614 39.3896 38.3906C39.7605 38.0198 39.9708 37.5182 39.9753 36.9938C39.9799 36.4694 39.7783 35.9642 39.414 35.587L35.941 32.114L39.477 28.578C39.517 28.538 39.552 28.492 39.592 28.451L41.598 30.457C41.9752 30.8213 42.4804 31.0229 43.0048 31.0183C43.5292 31.0138 44.0308 30.8034 44.4016 30.4326C44.7725 30.0618 44.9828 29.5602 44.9873 29.0358C44.9919 28.5114 44.7903 28.0062 44.426 27.629L41.977 25.179C42.609 23.9695 43.0608 22.6742 43.318 21.334L43.319 21.327C43.403 20.887 43.466 20.4443 43.508 19.999L45.998 20.001H46C46.2626 20.0012 46.5228 19.9496 46.7655 19.8493C47.0082 19.749 47.2288 19.6018 47.4147 19.4163C47.6005 19.2307 47.748 19.0103 47.8487 18.7677C47.9494 18.5252 48.0013 18.2651 48.0015 18.0025C48.0017 17.7398 47.9502 17.4797 47.8498 17.237C47.7495 16.9943 47.6024 16.7737 47.4168 16.5878C47.2312 16.402 47.0108 16.2545 46.7683 16.1538C46.5257 16.0531 46.2656 16.0012 46.003 16.001ZM21.799 10.901C21.839 10.859 21.885 10.825 21.927 10.785C22.9044 9.83398 24.0516 9.07484 25.309 8.54698L25.335 8.53498C26.1893 8.18196 27.0847 7.93804 28 7.80898C28.332 7.76098 28.665 7.72831 28.999 7.71098H29.005C29.3357 7.69364 29.667 7.69131 29.999 7.70398H30.017C30.3457 7.71731 30.674 7.74498 31.002 7.78698L31.018 7.78998C31.3473 7.83264 31.6747 7.89031 32 7.96298C32.6405 8.10541 33.267 8.30487 33.872 8.55898C33.912 8.57698 33.952 8.59564 33.992 8.61498C34.256 8.72898 34.517 8.84998 34.772 8.98598C34.874 9.04098 34.972 9.10498 35.072 9.16298C35.269 9.27598 35.468 9.38698 35.659 9.51298C35.959 9.71231 36.2503 9.92731 36.533 10.158C36.8193 10.3914 37.0936 10.639 37.355 10.9C37.581 11.126 37.788 11.363 37.99 11.603C38.1787 11.831 38.3573 12.0643 38.526 12.303C38.7267 12.5843 38.9123 12.8723 39.083 13.167L39.091 13.18C39.2597 13.4713 39.4137 13.7686 39.553 14.072L39.563 14.096C39.7017 14.3986 39.826 14.7056 39.936 15.017L39.942 15.037C40.0527 15.3516 40.1483 15.6706 40.229 15.994C40.3926 16.6445 40.4964 17.3086 40.539 17.978V17.998C40.5603 18.3246 40.5667 18.6523 40.558 18.981L40.556 19.013C40.5467 19.3396 40.523 19.6663 40.485 19.993V19.995C40.4271 20.4703 40.3383 20.9413 40.219 21.405L40.189 21.525C40.0641 22.0009 39.9074 22.468 39.72 22.923C39.192 24.1885 38.43 25.343 37.474 26.326C37.433 26.369 37.398 26.416 37.355 26.457L29.512 34.3L26.82 36.992L26.041 37.771C25.7083 38.101 25.3538 38.4083 24.98 38.691C24.928 38.7303 24.8757 38.769 24.823 38.807C24.4658 39.0707 24.0942 39.3144 23.71 39.537L23.707 39.538C22.8485 40.0258 21.9282 40.3958 20.971 40.638C20.5566 40.741 20.137 40.8217 19.714 40.88C19.6667 40.8866 19.619 40.8933 19.571 40.9C19.1376 40.9561 18.7011 40.9852 18.264 40.987C17.8317 40.9844 17.4 40.9564 16.971 40.903H16.969C16.5381 40.851 16.1107 40.7735 15.689 40.671L15.584 40.646C14.2559 40.3148 13.002 39.7363 11.888 38.941C11.65 38.7716 11.417 38.5936 11.189 38.407C10.949 38.204 10.712 37.997 10.485 37.771C9.96733 37.2529 9.50269 36.6844 9.098 36.074C8.86168 35.7146 8.64664 35.3416 8.454 34.957C8.409 34.867 8.37 34.774 8.327 34.683C8.18971 34.3919 8.06525 34.095 7.954 33.793C7.91267 33.681 7.87333 33.568 7.836 33.454C7.734 33.1453 7.64633 32.8336 7.573 32.519C7.552 32.429 7.526 32.34 7.507 32.25C7.13827 30.5118 7.20006 28.7098 7.687 27.001C7.93006 26.1443 8.27627 25.3202 8.718 24.547C8.94082 24.1621 9.18486 23.7898 9.449 23.432C9.489 23.38 9.524 23.328 9.564 23.276C9.84693 22.9018 10.1546 22.547 10.485 22.214L11.263 21.436L15.435 17.264L18.263 14.436L21.799 10.901Z" fill="currentColor"/>
</g>
<defs>
<clipPath id="clip0_6013_51500">
<rect width="48" height="48" fill="white" transform="translate(0 0.000976562)"/>
</clipPath>
</defs>
</svg>
