<svg id="blanket" width="48" height="48" viewBox="0 0 48 48" fill="none" xmlns="http://www.w3.org/2000/svg">
<g clip-path="url(#clip0_6013_51496)">
<path d="M45.9981 8.00098H1.99992C0.895393 8.00098 0 8.44869 0 9.00098V39.001C0 39.5533 0.895393 40.001 1.99992 40.001H45.9981C47.1026 40.001 47.998 39.5533 47.998 39.001V9.00098C47.998 8.44869 47.1026 8.00098 45.9981 8.00098Z" fill="currentColor"/>
<path d="M47.998 3.00098V1.50098C47.998 1.10315 47.6819 0.721621 47.1194 0.440316C46.5568 0.159012 45.7937 0.000976563 44.9981 0.000976562C44.2025 0.000976563 43.4395 0.159012 42.8769 0.440316C42.3143 0.721621 41.9982 1.10315 41.9982 1.50098V3.00098H33.9986V1.50098C33.9986 1.10315 33.6825 0.721621 33.1199 0.440316C32.5574 0.159012 31.7943 0.000976563 30.9987 0.000976562C30.2031 0.000976563 29.4401 0.159012 28.8775 0.440316C28.3149 0.721621 27.9988 1.10315 27.9988 1.50098V3.00098H19.9992V1.50098C19.9992 1.10315 19.6831 0.721621 19.1205 0.440316C18.5579 0.159012 17.7949 0.000976563 16.9993 0.000976562C16.2037 0.000976563 15.4406 0.159012 14.8781 0.440316C14.3155 0.721621 13.9994 1.10315 13.9994 1.50098V3.00098H5.99975V1.50098C5.99975 1.10315 5.68369 0.721621 5.12111 0.440316C4.55852 0.159012 3.79549 0.000976563 2.99988 0.000976562C2.20426 0.000976563 1.44123 0.159012 0.878643 0.440316C0.316057 0.721621 0 1.10315 0 1.50098L0 3.50098L0.00199992 3.51498V5.00098C0.00199992 5.26619 0.212705 5.52055 0.587762 5.70808C0.962819 5.89562 1.47151 6.00098 2.00192 6.00098H46.0001C46.5305 6.00098 47.0392 5.89562 47.4142 5.70808C47.7893 5.52055 48 5.26619 48 5.00098L47.998 3.00098ZM47.998 43.001C47.998 42.7358 47.7873 42.4814 47.4122 42.2939C47.0372 42.1063 46.5285 42.001 45.9981 42.001H1.99992C1.46951 42.001 0.960819 42.1063 0.585762 42.2939C0.210705 42.4814 0 42.7358 0 43.001L0 45.001H0.00199992V46.501C0.00199992 46.8988 0.318057 47.2803 0.880643 47.5616C1.44323 47.8429 2.20626 48.001 3.00187 48.001C3.79749 48.001 4.56052 47.8429 5.12311 47.5616C5.68569 47.2803 6.00175 46.8988 6.00175 46.501V45.001H14.0014V46.501C14.0014 46.8988 14.3175 47.2803 14.8801 47.5616C15.4426 47.8429 16.2057 48.001 17.0013 48.001C17.7969 48.001 18.5599 47.8429 19.1225 47.5616C19.6851 47.2803 20.0012 46.8988 20.0012 46.501V45.001H28.0008V46.501C28.0008 46.8988 28.3169 47.2803 28.8795 47.5616C29.4421 47.8429 30.2051 48.001 31.0007 48.001C31.7963 48.001 32.5594 47.8429 33.1219 47.5616C33.6845 47.2803 34.0006 46.8988 34.0006 46.501V45.001H42.0002V46.501C42.0002 46.8988 42.3163 47.2803 42.8789 47.5616C43.4415 47.8429 44.2045 48.001 45.0001 48.001C45.7957 48.001 46.5588 47.8429 47.1214 47.5616C47.6839 47.2803 48 46.8988 48 46.501V44.501L47.998 44.487V43.001Z" fill="currentColor"/>
</g>
<defs>
<clipPath id="clip0_6013_51496">
<rect width="48" height="48" fill="white" transform="translate(0 0.000976562)"/>
</clipPath>
</defs>
</svg>
