<svg id="blog" width="48" height="48" viewBox="0 0 48 44" fill="none" xmlns="http://www.w3.org/2000/svg">
<g clip-path="url(#clip0_6013_51503)">
<path d="M38.8571 0.000976563H9.14286C6.71802 0.000976563 4.3925 0.843621 2.67788 2.34354C0.963263 3.84345 0 5.87778 0 7.99898L0 26.9942C0 29.1154 0.963263 31.1497 2.67788 32.6497C4.3925 34.1496 6.71802 34.9922 9.14286 34.9922H25.1429L35.2057 43.795C35.3176 43.8929 35.4602 43.9596 35.6153 43.9866C35.7705 44.0136 35.9314 43.9997 36.0776 43.9468C36.2238 43.8938 36.3487 43.8041 36.4366 43.689C36.5245 43.5739 36.5714 43.4386 36.5714 43.3002V34.9922H38.8571C41.282 34.9922 43.6075 34.1496 45.3221 32.6497C47.0367 31.1497 48 29.1154 48 26.9942V7.99898C48 5.87778 47.0367 3.84345 45.3221 2.34354C43.6075 0.843621 41.282 0.000976563 38.8571 0.000976563ZM37.1429 26.9942H10.8571C10.4025 26.9942 9.96645 26.8362 9.64496 26.555C9.32347 26.2738 9.14286 25.8923 9.14286 25.4946C9.14286 25.0969 9.32347 24.7154 9.64496 24.4342C9.96645 24.153 10.4025 23.995 10.8571 23.995H37.1429C37.5975 23.995 38.0336 24.153 38.355 24.4342C38.6765 24.7154 38.8571 25.0969 38.8571 25.4946C38.8571 25.8923 38.6765 26.2738 38.355 26.555C38.0336 26.8362 37.5975 26.9942 37.1429 26.9942ZM37.1429 18.9962H10.8571C10.4025 18.9962 9.96645 18.8382 9.64496 18.557C9.32347 18.2758 9.14286 17.8943 9.14286 17.4966C9.14286 17.0989 9.32347 16.7174 9.64496 16.4362C9.96645 16.155 10.4025 15.997 10.8571 15.997H37.1429C37.5975 15.997 38.0336 16.155 38.355 16.4362C38.6765 16.7174 38.8571 17.0989 38.8571 17.4966C38.8571 17.8943 38.6765 18.2758 38.355 18.557C38.0336 18.8382 37.5975 18.9962 37.1429 18.9962ZM37.1429 10.9982H10.8571C10.4025 10.9982 9.96645 10.8402 9.64496 10.559C9.32347 10.2778 9.14286 9.89633 9.14286 9.4986C9.14286 9.10088 9.32347 8.71944 9.64496 8.43821C9.96645 8.15697 10.4025 7.99898 10.8571 7.99898H37.1429C37.5975 7.99898 38.0336 8.15697 38.355 8.43821C38.6765 8.71944 38.8571 9.10088 38.8571 9.4986C38.8571 9.89633 38.6765 10.2778 38.355 10.559C38.0336 10.8402 37.5975 10.9982 37.1429 10.9982Z" fill="currentColor"/>
</g>
<defs>
<clipPath id="clip0_6013_51503">
<rect width="48" height="44" fill="white" transform="translate(0 0.000976562)"/>
</clipPath>
</defs>
</svg>
