<svg id="boat" width="48" height="48" viewBox="0 0 48 48" fill="none" xmlns="http://www.w3.org/2000/svg">
<g clip-path="url(#clip0_6013_51507)">
<path d="M3.981 36.0009H16.021C16.2807 36.0006 16.5297 35.8973 16.7133 35.7135C16.8969 35.5298 17 35.2807 17 35.0209V17.0009C16.9997 16.7907 16.9319 16.5862 16.8066 16.4176C16.6812 16.2489 16.5049 16.125 16.3038 16.0641C16.1026 16.0033 15.8872 16.0087 15.6894 16.0796C15.4915 16.1505 15.3217 16.2831 15.205 16.4579L3.165 34.4779C3.0667 34.6256 3.01033 34.7972 3.00192 34.9744C2.9935 35.1517 3.03335 35.3278 3.11722 35.4842C3.20109 35.6405 3.32583 35.7712 3.47813 35.8622C3.63043 35.9532 3.80458 36.0011 3.982 36.0009M20 36.0009H43.993C44.1265 36.0013 44.2587 35.9751 44.3819 35.9239C44.5051 35.8726 44.6168 35.7973 44.7106 35.7023C44.8044 35.6073 44.8783 35.4946 44.9279 35.3707C44.9776 35.2469 45.0021 35.1144 45 34.9809C44.58 16.6009 32.843 0.764914 20.033 0.00191352C19.8986 -0.00393899 19.7644 0.0176729 19.6386 0.0654291C19.5128 0.113185 19.398 0.186084 19.3014 0.279672C19.2047 0.373259 19.1281 0.485572 19.0763 0.609751C19.0245 0.733929 18.9985 0.867367 19 1.00191V35.0019C19.0003 35.267 19.1057 35.5211 19.2932 35.7084C19.4808 35.8957 19.735 36.0009 20 36.0009ZM46 39.0009H2C1.46957 39.0009 0.960859 39.2116 0.585786 39.5867C0.210714 39.9618 0 40.4705 0 41.0009C0 42.8574 0.737498 44.6379 2.05025 45.9507C3.36301 47.2634 5.14348 48.0009 7 48.0009H41C42.8565 48.0009 44.637 47.2634 45.9497 45.9507C47.2625 44.6379 48 42.8574 48 41.0009C48 40.4705 47.7893 39.9618 47.4142 39.5867C47.0391 39.2116 46.5304 39.0009 46 39.0009Z" fill="currentColor"/>
</g>
<defs>
<clipPath id="clip0_6013_51507">
<rect width="48" height="48" fill="white" transform="translate(0 0.000976562)"/>
</clipPath>
</defs>
</svg>
