<svg id="bookmark" width="48" height="48" viewBox="0 0 48 42" fill="none" xmlns="http://www.w3.org/2000/svg">
<g clip-path="url(#clip0_6013_51505)">
<path d="M45.474 41.729L25.026 28.949C24.748 28.7752 24.3811 28.6785 24 28.6785C23.6189 28.6785 23.252 28.7752 22.974 28.949L2.526 41.728C2.31262 41.8614 2.04541 41.9502 1.75724 41.9837C1.46907 42.0171 1.17252 41.9937 0.904093 41.9162C0.635663 41.8387 0.407065 41.7106 0.246432 41.5477C0.085799 41.3847 0.000140957 41.194 0 40.999L0 0.000976562H48V40.999C48.0002 41.1941 47.9147 41.3849 47.7542 41.548C47.5937 41.7112 47.3651 41.8394 47.0966 41.917C46.8281 41.9946 46.5314 42.0181 46.2431 41.9847C45.9548 41.9513 45.6875 41.8624 45.474 41.729Z" fill="currentColor"/>
</g>
<defs>
<clipPath id="clip0_6013_51505">
<rect width="48" height="42" fill="white" transform="translate(0 0.000976562)"/>
</clipPath>
</defs>
</svg>
