<svg id="border_crossing" width="48" height="48" viewBox="0 0 48 48" fill="none" xmlns="http://www.w3.org/2000/svg">
<g clip-path="url(#clip0_6013_51512)">
<path d="M40 19.001H48V28.001H40V19.001Z" fill="currentColor"/>
<path d="M20 19.001H28V28.001H20V19.001Z" fill="currentColor"/>
<path d="M0 19.001H8V28.001H0V19.001Z" fill="currentColor"/>
<path d="M40.8793 14.122C41.1549 14.4133 41.486 14.6464 41.8532 14.8076C42.2204 14.9687 42.6161 15.0546 43.0171 15.0602C43.418 15.0658 43.816 14.9909 44.1875 14.84C44.5591 14.6891 44.8966 14.4653 45.1801 14.1818C45.4637 13.8982 45.6875 13.5607 45.8383 13.1892C45.9892 12.8177 46.0641 12.4197 46.0585 12.0188C46.0529 11.6178 45.967 11.222 45.8059 10.8549C45.6447 10.4877 45.4116 10.1565 45.1203 9.88098L36.1253 0.883977C35.984 0.742182 35.8289 0.614881 35.6623 0.503977C35.5963 0.459977 35.5233 0.429976 35.4543 0.391977C35.3549 0.332062 35.252 0.277971 35.1463 0.229977C35.0506 0.195036 34.9531 0.164997 34.8543 0.139977C34.7653 0.112976 34.6793 0.0779765 34.5873 0.0599765C34.1998 -0.0173417 33.8008 -0.0173417 33.4133 0.0599765C33.3203 0.0789765 33.2353 0.112976 33.1453 0.139977C33.0468 0.16503 32.9497 0.195068 32.8543 0.229977C32.7479 0.278226 32.6444 0.332652 32.5443 0.392976C32.4763 0.430976 32.4043 0.460977 32.3383 0.504977C32.1717 0.615565 32.0166 0.74253 31.8753 0.883977L22.8803 9.87998C22.5938 10.1567 22.3652 10.4878 22.208 10.8538C22.0508 11.2198 21.968 11.6134 21.9646 12.0118C21.9611 12.4101 22.037 12.8052 22.1878 13.1738C22.3387 13.5425 22.5614 13.8775 22.8431 14.1592C23.1248 14.4408 23.4598 14.6636 23.8284 14.8144C24.1971 14.9653 24.5922 15.0412 24.9905 15.0377C25.3888 15.0343 25.7825 14.9515 26.1485 14.7943C26.5145 14.6371 26.8456 14.4085 27.1223 14.122L31.0003 10.243V45.001C31.0003 45.7966 31.3164 46.5597 31.879 47.1223C32.4416 47.6849 33.2047 48.001 34.0003 48.001C34.796 48.001 35.559 47.6849 36.1216 47.1223C36.6842 46.5597 37.0003 45.7966 37.0003 45.001V10.243L40.8793 14.122ZM20.8793 33.88L17.0003 37.759V3.00098C17.0003 2.20533 16.6842 1.44227 16.1216 0.879656C15.559 0.317047 14.796 0.000976563 14.0003 0.000976562C13.2047 0.000976563 12.4416 0.317047 11.879 0.879656C11.3164 1.44227 11.0003 2.20533 11.0003 3.00098V37.759L7.1213 33.879C6.55708 33.324 5.79642 33.0145 5.00501 33.0178C4.2136 33.0211 3.45556 33.337 2.89601 33.8967C2.33646 34.4564 2.02073 35.2145 2.0176 36.0059C2.01447 36.7973 2.32419 37.5579 2.8793 38.122L11.8753 47.118C12.0166 47.2598 12.1717 47.3871 12.3383 47.498C12.4043 47.541 12.4763 47.571 12.5453 47.609C12.645 47.6693 12.7482 47.7237 12.8543 47.772C12.9497 47.8069 13.0468 47.8369 13.1453 47.862C13.2353 47.889 13.3203 47.923 13.4133 47.942C13.8007 48.0206 14.1999 48.0206 14.5873 47.942C14.6803 47.924 14.7653 47.889 14.8543 47.862C14.9531 47.837 15.0506 47.8069 15.1463 47.772C15.252 47.724 15.3549 47.6699 15.4543 47.61C15.5243 47.572 15.5963 47.542 15.6623 47.497C15.8289 47.3864 15.984 47.2594 16.1253 47.118L25.1213 38.122C25.6678 37.5562 25.9702 36.7984 25.9633 36.0118C25.9565 35.2252 25.641 34.4727 25.0848 33.9165C24.5285 33.3603 23.7761 33.0448 22.9895 33.038C22.2029 33.0311 21.4451 33.3335 20.8793 33.88Z" fill="currentColor"/>
</g>
<defs>
<clipPath id="clip0_6013_51512">
<rect width="48" height="48" fill="white" transform="translate(0 0.000976562)"/>
</clipPath>
</defs>
</svg>
