<svg id="border_closed" width="48" height="48" viewBox="0 0 48 48" fill="none" xmlns="http://www.w3.org/2000/svg">
<g clip-path="url(#clip0_6013_51510)">
<path d="M40 19.0008H48V28.0008H40V19.0008ZM10 5.00078C8.3 5.00078 7 6.30078 7 8.00078H13C13 6.30078 11.7 5.00078 10 5.00078ZM10 20.0008C15.5 20.0008 20 15.5008 20 10.0008C20 4.50078 15.5 0.000781253 10 0.000781253C4.5 0.000781253 0 4.50078 0 10.0008C0 15.5008 4.5 20.0008 10 20.0008ZM5 8.00078C5 5.20078 7.2 3.00078 10 3.00078C12.8 3.00078 15 5.20078 15 8.00078V14.0008C15 15.1008 14.1 16.0008 13 16.0008H7C5.9 16.0008 5 15.1008 5 14.0008V8.00078ZM8 22.8008C5.2 22.4008 2.6 21.0008 0.6 19.0008H0V28.0008H8V22.8008ZM20 19.0008H28V28.0008H20V19.0008ZM43 15.0008C44.7 15.0008 46 13.7008 46 12.0008C46 11.2008 45.7 10.4008 45.1 9.90078L36.1 0.900781C36 0.800781 35.8 0.600781 35.6 0.500781C35.5 0.500781 35.5 0.400781 35.4 0.400781C35.3 0.300781 35.2 0.300781 35.1 0.200781C35 0.200781 34.9 0.100781 34.8 0.100781C34.7 0.100781 34.6 0.000781253 34.5 0.000781253C34.1 -0.0992187 33.7 -0.0992187 33.3 0.000781253C33.2 0.000781253 33.1 0.100781 33 0.100781C32.9 0.100781 32.8 0.200781 32.7 0.200781C32.6 0.200781 32.5 0.300781 32.4 0.400781C32.3 0.400781 32.3 0.500781 32.2 0.500781C32 0.600781 31.9 0.700781 31.7 0.900781L22.7 9.90078C21.5 11.1008 21.5 13.0008 22.7 14.1008C23.9 15.2008 25.8 15.3008 26.9 14.1008L30.8 10.2008V45.0008C30.8 46.7008 32.1 48.0008 33.8 48.0008C35.5 48.0008 36.8 46.7008 36.8 45.0008V10.2008L40.7 14.1008C41.4 14.7008 42.2 15.0008 43 15.0008ZM20.9 33.9008L17 37.8008V20.9008C15.2 22.1008 13.1 22.8008 11 22.9008V37.7008L7.1 33.8008C5.9 32.6008 4 32.6008 2.9 33.8008C1.8 35.0008 1.7 36.9008 2.9 38.0008L11.9 47.0008C12 47.1008 12.2 47.3008 12.4 47.4008C12.5 47.4008 12.5 47.5008 12.6 47.5008C12.7 47.6008 12.8 47.6008 12.9 47.7008C13 47.7008 13.1 47.8008 13.2 47.8008C13.3 47.8008 13.4 47.9008 13.5 47.9008C13.9 48.0008 14.3 48.0008 14.7 47.9008C14.8 47.9008 14.9 47.9008 15 47.8008C15.1 47.8008 15.2 47.7008 15.3 47.7008C15.4 47.7008 15.5 47.6008 15.6 47.5008C15.7 47.5008 15.7 47.4008 15.8 47.4008C16 47.3008 16.1 47.2008 16.3 47.0008L25.3 38.0008C26.5 36.8008 26.5 34.9008 25.3 33.8008C24.1 32.7008 22.1 32.7008 20.9 33.9008ZM9 10.0008H11C11.6 10.0008 12 10.4008 12 11.0008V13.0008C12 13.6008 11.6 14.0008 11 14.0008H9C8.4 14.0008 8 13.6008 8 13.0008V11.0008C8 10.4008 8.4 10.0008 9 10.0008Z" fill="currentColor"/>
</g>
<defs>
<clipPath id="clip0_6013_51510">
<rect width="48" height="48" fill="white" transform="translate(0 0.000976562)"/>
</clipPath>
</defs>
</svg>
