<svg id="borehole" width="48" height="48" viewBox="0 0 48 48" fill="none" xmlns="http://www.w3.org/2000/svg">
<g clip-path="url(#clip0_6013_51518)">
<path d="M47 12.001H32V33.001C32 35.1227 31.1571 37.1575 29.6569 38.6578C28.1566 40.1581 26.1217 41.001 24 41.001C21.8783 41.001 19.8434 40.1581 18.3431 38.6578C16.8429 37.1575 16 35.1227 16 33.001V12.001H1C0.735027 12.0018 0.481133 12.1074 0.293767 12.2947C0.106402 12.4821 0.000791363 12.736 0 13.001L0 47.001C0.000791363 47.2659 0.106402 47.5198 0.293767 47.7072C0.481133 47.8946 0.735027 48.0002 1 48.001H47C47.265 48.0002 47.5189 47.8946 47.7062 47.7072C47.8936 47.5198 47.9992 47.2659 48 47.001V13.001C47.9992 12.736 47.8936 12.4821 47.7062 12.2947C47.5189 12.1074 47.265 12.0018 47 12.001Z" fill="currentColor"/>
<path d="M24.0004 37.001C25.0517 37.0042 26.0772 36.675 26.9303 36.0604C27.7833 35.4458 28.4203 34.5773 28.7501 33.5789C29.0798 32.5806 29.0856 31.5036 28.7665 30.5018C28.4474 29.4999 27.8198 28.6247 26.9734 28.001H27.0004V3.00098C27.0004 2.20533 26.6843 1.44227 26.1217 0.879656C25.5591 0.317047 24.796 0.000976563 24.0004 0.000976562C23.2047 0.000976563 22.4416 0.317047 21.879 0.879656C21.3164 1.44227 21.0004 2.20533 21.0004 3.00098V28.001H21.0274C20.1809 28.6247 19.5533 29.4999 19.2342 30.5018C18.9151 31.5036 18.9209 32.5806 19.2506 33.5789C19.5804 34.5773 20.2174 35.4458 21.0704 36.0604C21.9235 36.675 22.949 37.0042 24.0004 37.001Z" fill="currentColor"/>
</g>
<defs>
<clipPath id="clip0_6013_51518">
<rect width="48" height="48" fill="white" transform="translate(0 0.000976562)"/>
</clipPath>
</defs>
</svg>
