<svg id="bottled" width="48" height="48" viewBox="0 0 48 48" fill="none" xmlns="http://www.w3.org/2000/svg">
<g clip-path="url(#clip0_6013_51522)">
<path d="M2.4 15.001H45.6C46.2365 15.001 46.847 14.8956 47.2971 14.7081C47.7471 14.5205 48 14.2662 48 14.001C48 12.4097 46.4829 10.8836 43.7823 9.75834C41.0818 8.63312 37.4191 8.00098 33.6 8.00098V4.00098C34.873 4.00098 36.0939 3.79026 36.9941 3.41519C37.8943 3.04012 38.4 2.53141 38.4 2.00098C38.4 1.47054 37.8943 0.961836 36.9941 0.586763C36.0939 0.21169 34.873 0.000976563 33.6 0.000976562L14.4 0.000976563C13.127 0.000976563 11.9061 0.21169 11.0059 0.586763C10.1057 0.961836 9.6 1.47054 9.6 2.00098C9.6 2.53141 10.1057 3.04012 11.0059 3.41519C11.9061 3.79026 13.127 4.00098 14.4 4.00098V8.00098C10.5809 8.00098 6.91819 8.63312 4.21766 9.75834C1.51714 10.8836 0 12.4097 0 14.001C0 14.2662 0.252856 14.5205 0.702944 14.7081C1.15303 14.8956 1.76348 15.001 2.4 15.001Z" fill="currentColor"/>
<path d="M45.6 18.001H2.4C1.07452 18.001 0 18.4487 0 19.001V21.001C0 21.5533 1.07452 22.001 2.4 22.001H45.6C46.9255 22.001 48 21.5533 48 21.001V19.001C48 18.4487 46.9255 18.001 45.6 18.001Z" fill="currentColor"/>
<path d="M45.6 25.001H2.4C1.07452 25.001 0 25.4487 0 26.001V28.001C0 28.5533 1.07452 29.001 2.4 29.001H45.6C46.9255 29.001 48 28.5533 48 28.001V26.001C48 25.4487 46.9255 25.001 45.6 25.001Z" fill="currentColor"/>
<path d="M45.6 32.001H2.4C1.76348 32.001 1.15303 32.1063 0.702944 32.2939C0.252856 32.4814 0 32.7358 0 33.001L0 46.001C0 46.5314 0.505713 47.0401 1.40589 47.4152C2.30606 47.7903 3.52696 48.001 4.8 48.001H43.2C44.473 48.001 45.6939 47.7903 46.5941 47.4152C47.4943 47.0401 48 46.5314 48 46.001V33.001C48 32.7358 47.7471 32.4814 47.2971 32.2939C46.847 32.1063 46.2365 32.001 45.6 32.001Z" fill="currentColor"/>
</g>
<defs>
<clipPath id="clip0_6013_51522">
<rect width="48" height="48" fill="white" transform="translate(0 0.000976562)"/>
</clipPath>
</defs>
</svg>
