<svg id="bridge_destroyed" width="48" height="48" viewBox="0 0 48 48" fill="none" xmlns="http://www.w3.org/2000/svg">
<g clip-path="url(#clip0_6013_51535)">
<path d="M10 20.001C11.9778 20.001 13.9112 19.4145 15.5557 18.3157C17.2002 17.2169 18.4819 15.6551 19.2388 13.8278C19.9957 12.0006 20.1937 9.98989 19.8079 8.05008C19.422 6.11027 18.4696 4.32844 17.0711 2.92991C15.6725 1.53139 13.8907 0.578981 11.9509 0.193128C10.0111 -0.192724 8.00043 0.0053094 6.17317 0.762186C4.3459 1.51906 2.78412 2.80079 1.6853 4.44528C0.58649 6.08977 0 8.02317 0 10.001C0.0010601 12.6528 1.05497 15.1957 2.9301 17.0709C4.80524 18.946 7.34816 19.9999 10 20.001ZM5.29 6.71098C5.1017 6.52268 4.99591 6.26728 4.99591 6.00098C4.99591 5.73468 5.1017 5.47928 5.29 5.29098C5.4783 5.10268 5.7337 4.99689 6 4.99689C6.2663 4.99689 6.5217 5.10268 6.71 5.29098L10 8.58098L13.29 5.29098C13.3832 5.19774 13.4939 5.12378 13.6158 5.07332C13.7376 5.02286 13.8681 4.99689 14 4.99689C14.1319 4.99689 14.2624 5.02286 14.3842 5.07332C14.5061 5.12378 14.6168 5.19774 14.71 5.29098C14.8032 5.38422 14.8772 5.49491 14.9277 5.61673C14.9781 5.73855 15.0041 5.86912 15.0041 6.00098C15.0041 6.13284 14.9781 6.26341 14.9277 6.38523C14.8772 6.50705 14.8032 6.61774 14.71 6.71098L11.42 10.001L14.71 13.291C14.8969 13.48 15.0017 13.7352 15.0017 14.001C15.0017 14.2668 14.8969 14.5219 14.71 14.711C14.5204 14.8969 14.2655 15.001 14 15.001C13.7345 15.001 13.4796 14.8969 13.29 14.711L10 11.421L6.71 14.711C6.52044 14.8969 6.26551 15.001 6 15.001C5.73449 15.001 5.47956 14.8969 5.29 14.711C5.10313 14.5219 4.99833 14.2668 4.99833 14.001C4.99833 13.7352 5.10313 13.48 5.29 13.291L8.58 10.001L5.29 6.71098ZM0 24.001V31.001C2.12173 31.001 4.15656 31.8438 5.65685 33.3441C7.15715 34.8444 8 36.8792 8 39.001V48.001H16V39.001C16 36.8792 16.8429 34.8444 18.3431 33.3441C19.8434 31.8438 21.8783 31.001 24 31.001C26.1217 31.001 28.1566 31.8438 29.6569 33.3441C31.1571 34.8444 32 36.8792 32 39.001V48.001H40V39.001C40 36.8792 40.8429 34.8444 42.3431 33.3441C43.8434 31.8438 45.8783 31.001 48 31.001V24.001H0Z" fill="currentColor"/>
</g>
<defs>
<clipPath id="clip0_6013_51535">
<rect width="48" height="48" fill="white" transform="translate(0 0.000976562)"/>
</clipPath>
</defs>
</svg>
