<svg id="bridge" width="48" height="48" viewBox="0 0 48 43" fill="none" xmlns="http://www.w3.org/2000/svg">
<g clip-path="url(#clip0_6013_51541)">
<path d="M46 37.001C44.3716 36.9693 42.7678 37.4007 41.375 38.245C40.557 38.7396 39.6194 39.0011 38.6635 39.0011C37.7076 39.0011 36.77 38.7396 35.952 38.245C34.5589 37.4006 32.9547 36.9691 31.326 37.001C29.6983 36.9697 28.0952 37.4011 26.703 38.245C25.8986 38.7674 24.9537 39.0312 23.995 39.001C23.036 39.0314 22.0907 38.7676 21.286 38.245C19.8932 37.4007 18.2894 36.9693 16.661 37.001C15.033 36.9695 13.4295 37.4009 12.037 38.245C11.2329 38.7672 10.2883 39.031 9.33 39.001C8.37202 39.0308 7.42782 38.767 6.624 38.245C5.23152 37.4009 3.62802 36.9695 2 37.001C1.46957 37.001 0.960859 37.2117 0.585786 37.5868C0.210714 37.9618 0 38.4705 0 39.001C0 39.5314 0.210714 40.0401 0.585786 40.4152C0.960859 40.7903 1.46957 41.001 2 41.001C2.95832 40.971 3.9029 41.2348 4.707 41.757C6.0989 42.6007 7.70166 43.032 9.329 43.001C10.957 43.0324 12.5605 42.601 13.953 41.757C14.7574 41.2346 15.7023 40.9708 16.661 41.001C17.6203 40.9703 18.5661 41.2342 19.371 41.757C20.7632 42.6009 22.3663 43.0322 23.994 43.001C25.622 43.0324 27.2255 42.601 28.618 41.757C29.4352 41.2619 30.3725 41.0001 31.328 41.0001C32.2835 41.0001 33.2208 41.2619 34.038 41.757C35.4432 42.5718 37.0387 43.0009 38.663 43.0009C40.2873 43.0009 41.8828 42.5718 43.288 41.757C44.0935 41.2338 45.04 40.9699 46 41.001C46.5304 41.001 47.0391 40.7903 47.4142 40.4152C47.7893 40.0401 48 39.5314 48 39.001C48 38.4705 47.7893 37.9618 47.4142 37.5868C47.0391 37.2117 46.5304 37.001 46 37.001ZM46 29.001C44.3716 28.9693 42.7678 29.4007 41.375 30.245C40.557 30.7396 39.6194 31.0011 38.6635 31.0011C37.7076 31.0011 36.77 30.7396 35.952 30.245C34.5589 29.4006 32.9547 28.9691 31.326 29.001C29.6983 28.9697 28.0952 29.4011 26.703 30.245C25.8986 30.7674 24.9537 31.0312 23.995 31.001C23.036 31.0314 22.0907 30.7676 21.286 30.245C19.8932 29.4007 18.2894 28.9693 16.661 29.001C15.033 28.9695 13.4295 29.4009 12.037 30.245C11.2329 30.7672 10.2883 31.031 9.33 31.001C8.37202 31.0308 7.42782 30.767 6.624 30.245C5.23152 29.4009 3.62802 28.9695 2 29.001C1.46957 29.001 0.960859 29.2117 0.585786 29.5868C0.210714 29.9618 0 30.4705 0 31.001C0 31.5314 0.210714 32.0401 0.585786 32.4152C0.960859 32.7903 1.46957 33.001 2 33.001C2.95832 32.971 3.9029 33.2348 4.707 33.757C6.0989 34.6007 7.70166 35.032 9.329 35.001C10.957 35.0324 12.5605 34.601 13.953 33.757C14.7574 33.2346 15.7023 32.9708 16.661 33.001C17.6203 32.9703 18.5661 33.2342 19.371 33.757C20.7632 34.6009 22.3663 35.0322 23.994 35.001C25.622 35.0324 27.2255 34.601 28.618 33.757C29.4352 33.2619 30.3725 33.0001 31.328 33.0001C32.2835 33.0001 33.2208 33.2619 34.038 33.757C35.4432 34.5718 37.0387 35.0009 38.663 35.0009C40.2873 35.0009 41.8828 34.5718 43.288 33.757C44.0935 33.2338 45.04 32.9699 46 33.001C46.5304 33.001 47.0391 32.7903 47.4142 32.4152C47.7893 32.0401 48 31.5314 48 31.001C48 30.4705 47.7893 29.9618 47.4142 29.5868C47.0391 29.2117 46.5304 29.001 46 29.001ZM0 0.000976562V7.00098C2.12173 7.00098 4.15656 7.84383 5.65685 9.34412C7.15715 10.8444 8 12.8792 8 15.001V24.001H16V15.001C16 12.8792 16.8429 10.8444 18.3431 9.34412C19.8434 7.84383 21.8783 7.00098 24 7.00098C26.1217 7.00098 28.1566 7.84383 29.6569 9.34412C31.1571 10.8444 32 12.8792 32 15.001V24.001H40V15.001C40 12.8792 40.8429 10.8444 42.3431 9.34412C43.8434 7.84383 45.8783 7.00098 48 7.00098V0.000976562H0Z" fill="currentColor"/>
</g>
<defs>
<clipPath id="clip0_6013_51541">
<rect width="48" height="43" fill="white" transform="translate(0 0.000976562)"/>
</clipPath>
</defs>
</svg>
