<svg id="bridge_affected" width="48" height="48" viewBox="0 0 48 48" fill="none" xmlns="http://www.w3.org/2000/svg">
<g clip-path="url(#clip0_6013_51528)">
<path d="M10 20.001C11.9778 20.001 13.9112 19.4145 15.5557 18.3157C17.2002 17.2169 18.4819 15.6551 19.2388 13.8278C19.9957 12.0006 20.1937 9.98989 19.8079 8.05008C19.422 6.11027 18.4696 4.32844 17.0711 2.92991C15.6725 1.53139 13.8907 0.578981 11.9509 0.193128C10.0111 -0.192724 8.00043 0.0053094 6.17317 0.762186C4.3459 1.51906 2.78412 2.80079 1.6853 4.44528C0.58649 6.08977 0 8.02317 0 10.001C0.0010601 12.6528 1.05497 15.1957 2.9301 17.0709C4.80524 18.946 7.34816 19.9999 10 20.001ZM9 4.00098C9 3.73576 9.10536 3.48141 9.29289 3.29387C9.48043 3.10634 9.73478 3.00098 10 3.00098C10.2652 3.00098 10.5196 3.10634 10.7071 3.29387C10.8946 3.48141 11 3.73576 11 4.00098V12.001C11 12.2662 10.8946 12.5206 10.7071 12.7081C10.5196 12.8956 10.2652 13.001 10 13.001C9.73478 13.001 9.48043 12.8956 9.29289 12.7081C9.10536 12.5206 9 12.2662 9 12.001V4.00098ZM10 15.001C10.1978 15.001 10.3911 15.0596 10.5556 15.1695C10.72 15.2794 10.8482 15.4356 10.9239 15.6183C10.9996 15.801 11.0194 16.0021 10.9808 16.1961C10.9422 16.3901 10.847 16.5682 10.7071 16.7081C10.5673 16.8479 10.3891 16.9432 10.1951 16.9818C10.0011 17.0204 9.80004 17.0005 9.61732 16.9249C9.43459 16.8492 9.27841 16.721 9.16853 16.5566C9.05865 16.3921 9 16.1988 9 16.001C9.00079 15.736 9.1064 15.4821 9.29377 15.2947C9.48113 15.1074 9.73503 15.0018 10 15.001ZM0 24.001V31.001C2.12173 31.001 4.15656 31.8438 5.65685 33.3441C7.15715 34.8444 8 36.8792 8 39.001V48.001H16V39.001C16 36.8792 16.8429 34.8444 18.3431 33.3441C19.8434 31.8438 21.8783 31.001 24 31.001C26.1217 31.001 28.1566 31.8438 29.6569 33.3441C31.1571 34.8444 32 36.8792 32 39.001V48.001H40V39.001C40 36.8792 40.8429 34.8444 42.3431 33.3441C43.8434 31.8438 45.8783 31.001 48 31.001V24.001H0Z" fill="currentColor"/>
</g>
<defs>
<clipPath id="clip0_6013_51528">
<rect width="48" height="48" fill="white" transform="translate(0 0.000976562)"/>
</clipPath>
</defs>
</svg>
