<svg id="bridge_not_affected" width="48" height="48" viewBox="0 0 48 48" fill="none" xmlns="http://www.w3.org/2000/svg">
<g clip-path="url(#clip0_6013_51538)">
<path d="M10 20.001C11.9778 20.001 13.9112 19.4145 15.5557 18.3157C17.2002 17.2169 18.4819 15.6551 19.2388 13.8278C19.9957 12.0006 20.1937 9.98989 19.8079 8.05008C19.422 6.11027 18.4696 4.32844 17.0711 2.92991C15.6725 1.53139 13.8907 0.578981 11.9509 0.193128C10.0111 -0.192724 8.00043 0.0053094 6.17317 0.762186C4.3459 1.51906 2.78412 2.80079 1.6853 4.44528C0.58649 6.08977 0 8.02317 0 10.001C0.0010601 12.6528 1.05497 15.1957 2.9301 17.0709C4.80524 18.946 7.34816 19.9999 10 20.001ZM4.29 9.29098C4.47906 9.10411 4.73417 8.99931 5 8.99931C5.26583 8.99931 5.52094 9.10411 5.71 9.29098L8.05 11.641L14.35 6.24098C14.5516 6.06859 14.8134 5.98333 15.0778 6.00396C15.2087 6.01417 15.3363 6.05008 15.4534 6.10962C15.5705 6.16916 15.6746 6.25118 15.76 6.35098C15.8454 6.45079 15.9102 6.56643 15.9509 6.6913C15.9916 6.81617 16.0072 6.94783 15.997 7.07876C15.9868 7.20969 15.9509 7.33733 15.8914 7.45439C15.8318 7.57144 15.7498 7.67562 15.65 7.76098L8.65 13.761C8.46886 13.9159 8.23834 14.001 8 14.001C7.73462 14.0004 7.47993 13.8963 7.29 13.711L4.29 10.711C4.10313 10.5219 3.99833 10.2668 3.99833 10.001C3.99833 9.73515 4.10313 9.48004 4.29 9.29098ZM0 24.001V31.001C2.12173 31.001 4.15656 31.8438 5.65685 33.3441C7.15715 34.8444 8 36.8792 8 39.001V48.001H16V39.001C16 36.8792 16.8429 34.8444 18.3431 33.3441C19.8434 31.8438 21.8783 31.001 24 31.001C26.1217 31.001 28.1566 31.8438 29.6569 33.3441C31.1571 34.8444 32 36.8792 32 39.001V48.001H40V39.001C40 36.8792 40.8429 34.8444 42.3431 33.3441C43.8434 31.8438 45.8783 31.001 48 31.001V24.001H0Z" fill="currentColor"/>
</g>
<defs>
<clipPath id="clip0_6013_51538">
<rect width="48" height="48" fill="white" transform="translate(0 0.000976562)"/>
</clipPath>
</defs>
</svg>
