<svg id="bridge_closed" width="48" height="48" viewBox="0 0 48 48" fill="none" xmlns="http://www.w3.org/2000/svg">
<g clip-path="url(#clip0_6013_51531)">
<path d="M10 5.00098C9.20459 5.00177 8.44199 5.3181 7.87956 5.88053C7.31712 6.44297 7.00079 7.20557 7 8.00098H13C12.9992 7.20557 12.6829 6.44297 12.1204 5.88053C11.558 5.3181 10.7954 5.00177 10 5.00098Z" fill="currentColor"/>
<path d="M10 20.001C11.9778 20.001 13.9112 19.4145 15.5557 18.3157C17.2002 17.2169 18.4819 15.6551 19.2388 13.8278C19.9957 12.0006 20.1937 9.98989 19.8079 8.05008C19.422 6.11027 18.4696 4.32844 17.0711 2.92991C15.6725 1.53139 13.8907 0.578981 11.9509 0.193128C10.0111 -0.192724 8.00043 0.0053094 6.17317 0.762186C4.3459 1.51906 2.78412 2.80079 1.6853 4.44528C0.58649 6.08977 0 8.02317 0 10.001C0.0010601 12.6528 1.05497 15.1957 2.9301 17.0709C4.80524 18.946 7.34816 19.9999 10 20.001ZM5 8.00098C5 6.6749 5.52678 5.40313 6.46447 4.46545C7.40215 3.52777 8.67392 3.00098 10 3.00098C11.3261 3.00098 12.5979 3.52777 13.5355 4.46545C14.4732 5.40313 15 6.6749 15 8.00098V14.001C15 14.5314 14.7893 15.0401 14.4142 15.4152C14.0391 15.7903 13.5304 16.001 13 16.001H7C6.46957 16.001 5.96086 15.7903 5.58579 15.4152C5.21071 15.0401 5 14.5314 5 14.001V8.00098ZM0 24.001V31.001C2.12173 31.001 4.15656 31.8438 5.65685 33.3441C7.15715 34.8444 8 36.8792 8 39.001V48.001H16V39.001C16 36.8792 16.8429 34.8444 18.3431 33.3441C19.8434 31.8438 21.8783 31.001 24 31.001C26.1217 31.001 28.1566 31.8438 29.6569 33.3441C31.1571 34.8444 32 36.8792 32 39.001V48.001H40V39.001C40 36.8792 40.8429 34.8444 42.3431 33.3441C43.8434 31.8438 45.8783 31.001 48 31.001V24.001H0Z" fill="currentColor"/>
<path d="M11 10.001H9C8.44772 10.001 8 10.4487 8 11.001V13.001C8 13.5533 8.44772 14.001 9 14.001H11C11.5523 14.001 12 13.5533 12 13.001V11.001C12 10.4487 11.5523 10.001 11 10.001Z" fill="currentColor"/>
</g>
<defs>
<clipPath id="clip0_6013_51531">
<rect width="48" height="48" fill="white" transform="translate(0 0.000976562)"/>
</clipPath>
</defs>
</svg>
