<svg id="bucket" width="48" height="48" viewBox="0 0 48 48" fill="none" xmlns="http://www.w3.org/2000/svg">
<g clip-path="url(#clip0_6013_51544)">
<path d="M2.65263 27.439L8.71074 46.625C8.87811 47.0403 9.21396 47.4003 9.66618 47.6491C10.1184 47.8979 10.6617 48.0216 11.2118 48.001H36.2754C36.8191 48.0202 37.3561 47.8992 37.8055 47.6561C38.2549 47.413 38.5925 47.061 38.7676 46.653L45.4737 27.001H2.52632L2.65263 27.439ZM45.4737 21.001H2.52632C1.8563 21.001 1.21372 21.2117 0.739941 21.5868C0.266165 21.9618 0 22.4705 0 23.001C0 23.5314 0.266165 24.0401 0.739941 24.4152C1.21372 24.7903 1.8563 25.001 2.52632 25.001H45.4737C46.1437 25.001 46.7863 24.7903 47.2601 24.4152C47.7338 24.0401 48 23.5314 48 23.001C48 22.4705 47.7338 21.9618 47.2601 21.5868C46.7863 21.2117 46.1437 21.001 45.4737 21.001ZM5.05263 19.001C5.72265 19.001 6.36523 18.7903 6.83901 18.4152C7.31278 18.0401 7.57895 17.5314 7.57895 17.001C7.57895 13.5532 9.30902 10.2466 12.3886 7.80859C15.4681 5.37062 19.6449 4.00098 24 4.00098C28.3551 4.00098 32.5319 5.37062 35.6114 7.80859C38.691 10.2466 40.4211 13.5532 40.4211 17.001C40.4211 17.5314 40.6872 18.0401 41.161 18.4152C41.6348 18.7903 42.2773 19.001 42.9474 19.001C43.6174 19.001 44.26 18.7903 44.7337 18.4152C45.2075 18.0401 45.4737 17.5314 45.4737 17.001C45.4737 12.4923 43.2113 8.16828 39.1842 4.98016C35.1571 1.79204 29.6952 0.000976563 24 0.000976562C18.3048 0.000976563 12.8429 1.79204 8.81581 4.98016C4.78871 8.16828 2.52632 12.4923 2.52632 17.001C2.52632 17.5314 2.79248 18.0401 3.26626 18.4152C3.74003 18.7903 4.38261 19.001 5.05263 19.001Z" fill="currentColor"/>
</g>
<defs>
<clipPath id="clip0_6013_51544">
<rect width="48" height="48" fill="white" transform="translate(0 0.000976562)"/>
</clipPath>
</defs>
</svg>
