<svg id="buddhist" width="48" height="48" viewBox="0 0 48 48" fill="none" xmlns="http://www.w3.org/2000/svg">
<g clip-path="url(#clip0_6013_51547)">
<path d="M46.5 45.001H1.5C1.10218 45.001 0.720644 45.159 0.43934 45.4403C0.158035 45.7216 0 46.1032 0 46.501C0 46.8988 0.158035 47.2803 0.43934 47.5616C0.720644 47.8429 1.10218 48.001 1.5 48.001H46.5C46.8978 48.001 47.2794 47.8429 47.5607 47.5616C47.842 47.2803 48 46.8988 48 46.501C48 46.1032 47.842 45.7216 47.5607 45.4403C47.2794 45.159 46.8978 45.001 46.5 45.001ZM5.5 43.001H42.5C42.8978 43.001 43.2794 42.8429 43.5607 42.5616C43.842 42.2803 44 41.8988 44 41.501C44 41.1032 43.842 40.7216 43.5607 40.4403C43.2794 40.159 42.8978 40.001 42.5 40.001H5.5C5.10218 40.001 4.72064 40.159 4.43934 40.4403C4.15804 40.7216 4 41.1032 4 41.501C4 41.8988 4.15804 42.2803 4.43934 42.5616C4.72064 42.8429 5.10218 43.001 5.5 43.001ZM5 32.001H43C43.1857 32.001 43.3678 31.9493 43.5257 31.8516C43.6837 31.754 43.8114 31.6143 43.8944 31.4482C43.9775 31.2821 44.0126 31.0961 43.996 30.9112C43.9793 30.7262 43.9114 30.5495 43.8 30.401L39.3 24.401C39.2069 24.2768 39.0861 24.176 38.9472 24.1066C38.8084 24.0371 38.6552 24.001 38.5 24.001H9.5C9.34476 24.001 9.19164 24.0371 9.05279 24.1066C8.91393 24.176 8.79315 24.2768 8.7 24.401L4.2 30.401C4.08857 30.5495 4.02072 30.7262 4.00404 30.9112C3.98736 31.0961 4.02252 31.2821 4.10557 31.4482C4.18863 31.6143 4.31629 31.754 4.47427 31.8516C4.63225 31.9493 4.81429 32.001 5 32.001ZM9 22.001H39C39.1857 22.001 39.3678 21.9493 39.5257 21.8516C39.6837 21.754 39.8114 21.6143 39.8944 21.4482C39.9775 21.2821 40.0126 21.0961 39.996 20.9112C39.9793 20.7262 39.9114 20.5495 39.8 20.401L35.3 14.401C35.2069 14.2768 35.0861 14.176 34.9472 14.1065C34.8084 14.0371 34.6552 14.001 34.5 14.001H13.5C13.3448 14.001 13.1916 14.0371 13.0528 14.1065C12.9139 14.176 12.7931 14.2768 12.7 14.401L8.2 20.401C8.08857 20.5495 8.02072 20.7262 8.00404 20.9112C7.98736 21.0961 8.02252 21.2821 8.10557 21.4482C8.18863 21.6143 8.31629 21.754 8.47427 21.8516C8.63225 21.9493 8.81429 22.001 9 22.001ZM12.002 12.001H36C36.176 12.001 36.3488 11.9547 36.5011 11.8665C36.6534 11.7784 36.7798 11.6517 36.8674 11.4991C36.955 11.3465 37.0009 11.1735 37.0003 10.9976C36.9997 10.8216 36.9527 10.6489 36.864 10.497L31.289 0.496977C31.201 0.346145 31.075 0.220992 30.9236 0.133972C30.7722 0.0469524 30.6006 0.00109947 30.426 0.000976562L17.574 0.000976563C17.3994 0.00109947 17.2278 0.0469524 17.0764 0.133972C16.925 0.220992 16.799 0.346145 16.711 0.496977L11.138 10.497C11.0493 10.6489 11.0023 10.8216 11.0017 10.9976C11.0011 11.1735 11.047 11.3465 11.1346 11.4991C11.2222 11.6517 11.3486 11.7784 11.5009 11.8665C11.6532 11.9547 11.826 12.001 12.002 12.001Z" fill="currentColor"/>
<path d="M39 34.001H35C34.4477 34.001 34 34.4487 34 35.001V37.001C34 37.5533 34.4477 38.001 35 38.001H39C39.5523 38.001 40 37.5533 40 37.001V35.001C40 34.4487 39.5523 34.001 39 34.001Z" fill="currentColor"/>
<path d="M13 34.001H9C8.44772 34.001 8 34.4487 8 35.001V37.001C8 37.5533 8.44772 38.001 9 38.001H13C13.5523 38.001 14 37.5533 14 37.001V35.001C14 34.4487 13.5523 34.001 13 34.001Z" fill="currentColor"/>
<path d="M26 34.001H22C21.4477 34.001 21 34.4487 21 35.001V37.001C21 37.5533 21.4477 38.001 22 38.001H26C26.5523 38.001 27 37.5533 27 37.001V35.001C27 34.4487 26.5523 34.001 26 34.001Z" fill="currentColor"/>
</g>
<defs>
<clipPath id="clip0_6013_51547">
<rect width="48" height="48" fill="white" transform="translate(0 0.000976562)"/>
</clipPath>
</defs>
</svg>
