<svg id="building_not_affected" width="48" height="48" viewBox="0 0 48 48" fill="none" xmlns="http://www.w3.org/2000/svg">
<g clip-path="url(#clip0_6013_51561)">
<path d="M20 10.001C20 8.02317 19.4135 6.08977 18.3147 4.44528C17.2159 2.80079 15.6541 1.51906 13.8268 0.762186C11.9996 0.0053094 9.98891 -0.192724 8.0491 0.193128C6.10929 0.578981 4.32746 1.53139 2.92894 2.92991C1.53041 4.32844 0.578004 6.11027 0.192152 8.05008C-0.193701 9.98989 0.00433284 12.0006 0.761209 13.8278C1.51809 15.6551 2.79981 17.2169 4.4443 18.3157C6.08879 19.4145 8.02219 20.001 10 20.001C12.6518 19.9999 15.1948 18.946 17.0699 17.0709C18.945 15.1957 19.9989 12.6528 20 10.001ZM15.65 7.76098L8.65 13.761C8.46886 13.9159 8.23835 14.001 8 14.001C7.73462 14.0004 7.47993 13.8963 7.29 13.711L4.29 10.711C4.19677 10.6177 4.12281 10.5071 4.07234 10.3852C4.02188 10.2634 3.99591 10.1328 3.99591 10.001C3.99591 9.73468 4.1017 9.47929 4.29 9.29098C4.47831 9.10268 4.7337 8.99689 5 8.99689C5.26631 8.99689 5.5217 9.10268 5.71 9.29098L8.05 11.641L14.35 6.24098C14.5516 6.06859 14.8134 5.98333 15.0778 6.00396C15.2087 6.01417 15.3364 6.05008 15.4534 6.10962C15.5705 6.16916 15.6746 6.25118 15.76 6.35098C15.8454 6.45079 15.9102 6.56643 15.9509 6.6913C15.9916 6.81617 16.0072 6.94783 15.997 7.07876C15.9868 7.20969 15.9509 7.33733 15.8914 7.45439C15.8318 7.57144 15.7498 7.67562 15.65 7.76098Z" fill="currentColor"/>
<path d="M46 6.00099H22.37C22.7876 7.29324 23.0002 8.64294 23 10.001C23.0016 10.6705 22.9514 11.3392 22.85 12.001H25C25.265 12.0018 25.5189 12.1074 25.7062 12.2948C25.8936 12.4821 25.9992 12.736 26 13.001V21.001C25.9992 21.266 25.8936 21.5199 25.7062 21.7072C25.5189 21.8946 25.265 22.0002 25 22.001H21C20.735 22.0002 20.4811 21.8946 20.2938 21.7072C20.1064 21.5199 20.0008 21.266 20 21.001V18.301C18.8969 19.6351 17.5366 20.7336 16 21.531V30.001H48V8.00099C47.9984 7.47105 47.7872 6.96326 47.4125 6.58853C47.0377 6.2138 46.5299 6.00258 46 6.00099ZM35 21.001C34.9992 21.266 34.8936 21.5199 34.7062 21.7072C34.5189 21.8946 34.265 22.0002 34 22.001H30C29.735 22.0002 29.4811 21.8946 29.2938 21.7072C29.1064 21.5199 29.0008 21.266 29 21.001V13.001C29.0008 12.736 29.1064 12.4821 29.2938 12.2948C29.4811 12.1074 29.735 12.0018 30 12.001H34C34.265 12.0018 34.5189 12.1074 34.7062 12.2948C34.8936 12.4821 34.9992 12.736 35 13.001V21.001ZM44 21.001C43.9992 21.266 43.8936 21.5199 43.7062 21.7072C43.5189 21.8946 43.265 22.0002 43 22.001H39C38.735 22.0002 38.4811 21.8946 38.2938 21.7072C38.1064 21.5199 38.0008 21.266 38 21.001V13.001C38.0008 12.736 38.1064 12.4821 38.2938 12.2948C38.4811 12.1074 38.735 12.0018 39 12.001H43C43.265 12.0018 43.5189 12.1074 43.7062 12.2948C43.8936 12.4821 43.9992 12.736 44 13.001V21.001ZM22 4.00099H42C42.2626 4.00268 42.5229 3.95128 42.7652 3.8499C43.0075 3.74851 43.2268 3.59923 43.41 3.41099C43.5982 3.22782 43.7475 3.0085 43.8489 2.76621C43.9503 2.52392 44.0017 2.26364 44 2.00099C43.9984 1.47105 43.7872 0.963259 43.4125 0.588529C43.0377 0.213799 42.5299 0.00257689 42 0.00099416H22C21.7374 -0.000118416 21.4773 0.0515344 21.2351 0.152886C20.9929 0.254238 20.7735 0.403222 20.59 0.590994C20.2777 0.892413 20.0768 1.29073 20.02 1.72099C20.5859 2.40636 21.0818 3.14672 21.5 3.93099C21.6623 3.97908 21.8308 4.00268 22 4.00099ZM16 48.001H28V38.001C28.0016 37.4711 28.2128 36.9633 28.5875 36.5885C28.9623 36.2138 29.4701 36.0026 30 36.001H34C34.5299 36.0026 35.0377 36.2138 35.4125 36.5885C35.7872 36.9633 35.9984 37.4711 36 38.001V48.001H48V32.001H16V48.001Z" fill="currentColor"/>
</g>
<defs>
<clipPath id="clip0_6013_51561">
<rect width="48" height="48" fill="white" transform="translate(0 0.000976562)"/>
</clipPath>
</defs>
</svg>
