<svg id="building" width="48" height="48" viewBox="0 0 48 48" fill="none" xmlns="http://www.w3.org/2000/svg">
<g clip-path="url(#clip0_6013_51569)">
<path d="M45 6.00098H3C2.20508 6.00256 1.4434 6.21378 0.881302 6.58851C0.319207 6.96324 0.00237409 7.47103 0 8.00098L0 30.001H48V8.00098C47.9976 7.47103 47.6808 6.96324 47.1187 6.58851C46.5566 6.21378 45.7949 6.00256 45 6.00098ZM15 21.001C14.9988 21.2659 14.8404 21.5198 14.5593 21.7072C14.2783 21.8946 13.8975 22.0002 13.5 22.001H7.5C7.10254 22.0002 6.7217 21.8946 6.44065 21.7072C6.1596 21.5198 6.00119 21.2659 6 21.001V13.001C6.00119 12.736 6.1596 12.4821 6.44065 12.2947C6.7217 12.1074 7.10254 12.0018 7.5 12.001H13.5C13.8975 12.0018 14.2783 12.1074 14.5593 12.2947C14.8404 12.4821 14.9988 12.736 15 13.001V21.001ZM28.5 21.001C28.4988 21.2659 28.3404 21.5198 28.0593 21.7072C27.7783 21.8946 27.3975 22.0002 27 22.001H21C20.6025 22.0002 20.2217 21.8946 19.9407 21.7072C19.6596 21.5198 19.5012 21.2659 19.5 21.001V13.001C19.5012 12.736 19.6596 12.4821 19.9407 12.2947C20.2217 12.1074 20.6025 12.0018 21 12.001H27C27.3975 12.0018 27.7783 12.1074 28.0593 12.2947C28.3404 12.4821 28.4988 12.736 28.5 13.001V21.001ZM42 21.001C41.9988 21.2659 41.8404 21.5198 41.5593 21.7072C41.2783 21.8946 40.8975 22.0002 40.5 22.001H34.5C34.1025 22.0002 33.7217 21.8946 33.4407 21.7072C33.1596 21.5198 33.0012 21.2659 33 21.001V13.001C33.0012 12.736 33.1596 12.4821 33.4407 12.2947C33.7217 12.1074 34.1025 12.0018 34.5 12.001H40.5C40.8975 12.0018 41.2783 12.1074 41.5593 12.2947C41.8404 12.4821 41.9988 12.736 42 13.001V21.001ZM9 4.00098H39C39.7957 4.00098 40.5587 3.79026 41.1213 3.41519C41.6839 3.04012 42 2.53141 42 2.00098C42 1.47054 41.6839 0.961836 41.1213 0.586763C40.5587 0.21169 39.7957 0.000976563 39 0.000976562L9 0.000976563C8.20435 0.000976563 7.44129 0.21169 6.87868 0.586763C6.31607 0.961836 6 1.47054 6 2.00098C6 2.53141 6.31607 3.04012 6.87868 3.41519C7.44129 3.79026 8.20435 4.00098 9 4.00098ZM0 48.001H18V38.001C18.0024 37.471 18.3192 36.9632 18.8813 36.5885C19.4434 36.2138 20.2051 36.0026 21 36.001H27C27.7949 36.0026 28.5566 36.2138 29.1187 36.5885C29.6808 36.9632 29.9976 37.471 30 38.001V48.001H48V32.001H0V48.001Z" fill="currentColor"/>
</g>
<defs>
<clipPath id="clip0_6013_51569">
<rect width="48" height="48" fill="white" transform="translate(0 0.000976562)"/>
</clipPath>
</defs>
</svg>
