<svg width="48" height="44" viewBox="0 0 48 44" fill="none" xmlns="http://www.w3.org/2000/svg">
<g clip-path="url(#clip0_6013_51572)">
<path d="M46.9091 7.00098H45.8182V3.10098C45.8136 2.2801 45.4558 1.49404 44.8226 0.913591C44.1894 0.333137 43.3319 0.00518087 42.4364 0.000976562L5.56364 0.000976563C4.66814 0.00518087 3.81062 0.333137 3.1774 0.913591C2.54418 1.49404 2.1864 2.2801 2.18182 3.10098V7.00098H1.09091C0.801848 7.00177 0.524872 7.10738 0.320474 7.29474C0.116075 7.48211 0.000863306 7.736 0 8.00098L0 20.001C0.000863306 20.2659 0.116075 20.5198 0.320474 20.7072C0.524872 20.8946 0.801848 21.0002 1.09091 21.001H2.18182V36.901C2.18419 37.7044 2.52673 38.4756 3.13724 39.052C3.74776 39.6284 4.57856 39.9651 5.45455 39.991V41.501C5.45455 42.164 5.74188 42.7999 6.25335 43.2687C6.76481 43.7376 7.4585 44.001 8.18182 44.001C8.90514 44.001 9.59883 43.7376 10.1103 43.2687C10.6218 42.7999 10.9091 42.164 10.9091 41.501V40.001H38.1818V41.501C38.1818 42.164 38.4692 42.7999 38.9806 43.2687C39.4921 43.7376 40.1858 44.001 40.9091 44.001C41.6324 44.001 42.3261 43.7376 42.8376 43.2687C43.349 42.7999 43.6364 42.164 43.6364 41.501V39.801C44.2747 39.573 44.8238 39.1748 45.2127 38.6579C45.6017 38.1409 45.8126 37.5289 45.8182 36.901V21.001H46.9091C47.1982 21.0002 47.4751 20.8946 47.6795 20.7072C47.8839 20.5198 47.9991 20.2659 48 20.001V8.00098C47.9991 7.736 47.8839 7.48211 47.6795 7.29474C47.4751 7.10738 47.1982 7.00177 46.9091 7.00098ZM5.45455 4.00098C5.45541 3.736 5.57062 3.48211 5.77502 3.29474C5.97942 3.10738 6.25639 3.00177 6.54545 3.00098H41.4545C41.7436 3.00177 42.0206 3.10738 42.225 3.29474C42.4294 3.48211 42.5446 3.736 42.5455 4.00098V5.00098C42.5446 5.26595 42.4294 5.51984 42.225 5.70721C42.0206 5.89457 41.7436 6.00019 41.4545 6.00098H6.54545C6.25639 6.00019 5.97942 5.89457 5.77502 5.70721C5.57062 5.51984 5.45541 5.26595 5.45455 5.00098V4.00098ZM9.81818 35.501C9.3461 35.8255 8.77192 36.001 8.18182 36.001C7.59414 36.0063 7.02161 35.8302 6.55636 35.501C6.09882 35.1871 5.76068 34.7491 5.58987 34.2492C5.41906 33.7493 5.42425 33.2127 5.6047 32.7157C5.78515 32.2186 6.13171 31.7862 6.59524 31.4798C7.05878 31.1734 7.61578 31.0085 8.18727 31.0085C8.75877 31.0085 9.31576 31.1734 9.7793 31.4798C10.2428 31.7862 10.5894 32.2186 10.7698 32.7157C10.9503 33.2127 10.9555 33.7493 10.7847 34.2492C10.6139 34.7491 10.2757 35.1871 9.81818 35.501ZM21.8182 23.001C21.8173 23.2659 21.7021 23.5198 21.4977 23.7072C21.2933 23.8946 21.0163 24.0002 20.7273 24.001H6.54545C6.25639 24.0002 5.97942 23.8946 5.77502 23.7072C5.57062 23.5198 5.45541 23.2659 5.45455 23.001V11.001C5.45541 10.736 5.57062 10.4821 5.77502 10.2947C5.97942 10.1074 6.25639 10.0018 6.54545 10.001H20.7273C21.0163 10.0018 21.2933 10.1074 21.4977 10.2947C21.7021 10.4821 21.8173 10.736 21.8182 11.001V23.001ZM26.1818 23.001V11.001C26.1827 10.736 26.2979 10.4821 26.5023 10.2947C26.7067 10.1074 26.9837 10.0018 27.2727 10.001H41.4545C41.7436 10.0018 42.0206 10.1074 42.225 10.2947C42.4294 10.4821 42.5446 10.736 42.5455 11.001V23.001C42.5446 23.2659 42.4294 23.5198 42.225 23.7072C42.0206 23.8946 41.7436 24.0002 41.4545 24.001H27.2727C26.9837 24.0002 26.7067 23.8946 26.5023 23.7072C26.2979 23.5198 26.1827 23.2659 26.1818 23.001ZM42.5455 35.501C42.0734 35.8255 41.4992 36.001 40.9091 36.001C40.3214 36.0063 39.7489 35.8302 39.2836 35.501C38.8261 35.1871 38.488 34.7491 38.3171 34.2492C38.1463 33.7493 38.1515 33.2127 38.332 32.7157C38.5124 32.2186 38.859 31.7862 39.3225 31.4798C39.7861 31.1734 40.3431 31.0085 40.9145 31.0085C41.486 31.0085 42.043 31.1734 42.5066 31.4798C42.9701 31.7862 43.3167 32.2186 43.4971 32.7157C43.6776 33.2127 43.6828 33.7493 43.5119 34.2492C43.3411 34.7491 43.003 35.1871 42.5455 35.501Z" fill="black"/>
</g>
<defs>
<clipPath id="clip0_6013_51572">
<rect width="48" height="44" fill="white" transform="translate(0 0.000976562)"/>
</clipPath>
</defs>
</svg>
