<svg width="48" height="48" viewBox="0 0 48 48" fill="none" xmlns="http://www.w3.org/2000/svg">
<g clip-path="url(#clip0_6013_51574)">
<path d="M45.7143 6.00099H40V8.50099C40 9.42925 39.5786 10.3195 38.8284 10.9759C38.0783 11.6322 37.0609 12.001 36 12.001C34.9391 12.001 33.9217 11.6322 33.1716 10.9759C32.4214 10.3195 32 9.42925 32 8.50099V6.00099H17.1429V8.50099C17.1429 9.42925 16.7214 10.3195 15.9713 10.9759C15.2212 11.6322 14.2037 12.001 13.1429 12.001C12.082 12.001 11.0646 11.6322 10.3144 10.9759C9.5643 10.3195 9.14287 9.42925 9.14287 8.50099V6.00099H2.28573C1.98527 6.00006 1.68757 6.05116 1.40977 6.15135C1.13198 6.25153 0.879586 6.39881 0.667127 6.58471C0.454668 6.77061 0.286344 6.99146 0.171851 7.23453C0.057357 7.4776 -0.00104307 7.73809 1.41e-05 8.00099V46.001C-0.00104307 46.2639 0.057357 46.5244 0.171851 46.7674C0.286344 47.0105 0.454668 47.2314 0.667127 47.4173C0.879586 47.6032 1.13198 47.7505 1.40977 47.8506C1.68757 47.9508 1.98527 48.0019 2.28573 48.001H45.7143C46.0148 48.0019 46.3125 47.9508 46.5903 47.8506C46.868 47.7505 47.1204 47.6032 47.3329 47.4173C47.5454 47.2314 47.7137 47.0105 47.8282 46.7674C47.9427 46.5244 48.0011 46.2639 48 46.001V8.00099C48.0011 7.73809 47.9427 7.4776 47.8282 7.23453C47.7137 6.99146 47.5454 6.77061 47.3329 6.58471C47.1204 6.39881 46.868 6.25153 46.5903 6.15135C46.3125 6.05116 46.0148 6.00006 45.7143 6.00099ZM43.4286 44.001H4.57144V18.001H43.4286V44.001Z" fill="black"/>
<path d="M13.143 10.001C13.5977 10.001 14.0337 9.84294 14.3552 9.56164C14.6767 9.28033 14.8573 8.8988 14.8573 8.50098V1.50098C14.8573 1.10315 14.6767 0.721621 14.3552 0.440316C14.0337 0.159012 13.5977 0.000976563 13.143 0.000976562C12.6883 0.000976563 12.2523 0.159012 11.9308 0.440316C11.6093 0.721621 11.4287 1.10315 11.4287 1.50098V8.50098C11.4287 8.8988 11.6093 9.28033 11.9308 9.56164C12.2523 9.84294 12.6883 10.001 13.143 10.001ZM36.0001 10.001C36.4548 10.001 36.8908 9.84294 37.2123 9.56164C37.5338 9.28033 37.7144 8.8988 37.7144 8.50098V1.50098C37.7144 1.10315 37.5338 0.721621 37.2123 0.440316C36.8908 0.159012 36.4548 0.000976563 36.0001 0.000976562C35.5455 0.000976563 35.1094 0.159012 34.788 0.440316C34.4665 0.721621 34.2859 1.10315 34.2859 1.50098V8.50098C34.2859 8.8988 34.4665 9.28033 34.788 9.56164C35.1094 9.84294 35.5455 10.001 36.0001 10.001ZM21.4173 30.521L15.3944 35.471C15.2258 35.6054 15.091 35.7691 14.9985 35.9516C14.9061 36.1341 14.858 36.3314 14.8573 36.531C14.8593 36.7304 14.9081 36.9273 15.0004 37.1096C15.0928 37.2919 15.2269 37.4558 15.3944 37.591C15.7484 37.871 16.2086 38.026 16.6859 38.026C17.1631 38.026 17.6233 37.871 17.9773 37.591L24.0001 32.641L30.023 37.591C30.3799 37.8739 30.8443 38.0307 31.3259 38.031C31.801 38.0325 32.2589 37.8751 32.6059 37.591C32.7758 37.4573 32.9118 37.2939 33.0048 37.1113C33.0979 36.9286 33.146 36.7309 33.146 36.531C33.146 36.331 33.0979 36.1333 33.0048 35.9507C32.9118 35.7681 32.7758 35.6046 32.6059 35.471L26.583 30.521L32.6059 25.571C32.7734 25.4358 32.9075 25.2719 32.9998 25.0896C33.0922 24.9073 33.1409 24.7104 33.143 24.511C33.1423 24.3114 33.0942 24.1141 33.0017 23.9316C32.9093 23.7491 32.7745 23.5854 32.6059 23.451C32.2544 23.1665 31.7932 23.0084 31.3144 23.0084C30.8356 23.0084 30.3745 23.1665 30.023 23.451L24.0001 28.401L17.9773 23.441C17.6275 23.1544 17.165 22.9969 16.6859 23.001C16.2061 22.9937 15.7422 23.1517 15.3944 23.441C15.2244 23.5746 15.0885 23.7381 14.9954 23.9207C14.9024 24.1033 14.8543 24.301 14.8543 24.501C14.8543 24.7009 14.9024 24.8986 14.9954 25.0813C15.0885 25.2639 15.2244 25.4273 15.3944 25.561L21.4173 30.521Z" fill="black"/>
</g>
<defs>
<clipPath id="clip0_6013_51574">
<rect width="48" height="48" fill="white" transform="translate(0 0.000976562)"/>
</clipPath>
</defs>
</svg>
