<svg width="48" height="44" viewBox="0 0 48 44" fill="none" xmlns="http://www.w3.org/2000/svg">
<g clip-path="url(#clip0_6013_51578)">
<path d="M4.48878 17.606L24.0018 6.45601L43.5118 17.606C44.2027 18.0008 45.0221 18.1049 45.7898 17.8955C46.5574 17.6862 47.2105 17.1804 47.6053 16.4895C48.0001 15.7986 48.1042 14.9792 47.8948 14.2115C47.6854 13.4438 47.1797 12.7908 46.4888 12.396L25.4898 0.396009C25.0366 0.137138 24.5237 0.000976563 24.0018 0.000976562C23.4799 0.000976562 22.967 0.137138 22.5138 0.396009L1.51178 12.396C0.820894 12.7908 0.315126 13.4438 0.105742 14.2115C-0.103643 14.9792 0.000508696 15.7986 0.395283 16.4895C0.790058 17.1804 1.44312 17.6862 2.2108 17.8955C2.97848 18.1049 3.79789 18.0008 4.48878 17.606ZM38.0018 27.027C36.2854 26.9785 34.5857 27.3763 33.0692 28.1815C31.5526 28.9868 30.271 30.1719 29.3498 31.621C28.7247 30.794 27.9164 30.1233 26.9883 29.6615C26.0602 29.1996 25.0377 28.9593 24.001 28.9594C22.9644 28.9595 21.9419 29.2 21.0139 29.662C20.0859 30.124 19.2777 30.7949 18.6528 31.622C17.7316 30.1726 16.4499 28.9872 14.9331 28.1817C13.4164 27.3763 11.7165 26.9784 9.99978 27.027C4.29978 27.027 0.00178341 31.091 0.00178341 36.48C0.00178342 36.8778 0.159819 37.2594 0.441123 37.5407C0.722428 37.822 1.10396 37.98 1.50178 37.98C1.89961 37.98 2.28114 37.822 2.56244 37.5407C2.84375 37.2594 3.00178 36.8778 3.00178 36.48C2.99516 35.4033 3.26813 34.3434 3.79399 33.4039C4.31985 32.4643 5.08059 31.6774 6.00178 31.12V40C6.00178 41.0609 6.42321 42.0783 7.17336 42.8284C7.9235 43.5786 8.94092 44 10.0018 44C11.0626 44 12.0801 43.5786 12.8302 42.8284C13.5804 42.0783 14.0018 41.0609 14.0018 40V31.122C14.9221 31.6796 15.6821 32.4664 16.2074 33.4055C16.7327 34.3446 17.0054 35.404 16.9988 36.48C16.9988 36.8778 17.1568 37.2594 17.4381 37.5407C17.7194 37.822 18.101 37.98 18.4988 37.98C18.8966 37.98 19.2781 37.822 19.5594 37.5407C19.8407 37.2594 19.9988 36.8778 19.9988 36.48L19.9968 36.454L19.9988 36.441C19.9951 35.3772 20.3487 34.343 21.0028 33.504V37.001C21.0028 37.3948 21.0804 37.7848 21.2311 38.1487C21.3818 38.5125 21.6027 38.8431 21.8812 39.1216C22.1597 39.4001 22.4903 39.621 22.8541 39.7717C23.218 39.9224 23.6079 40 24.0018 40C24.3956 40 24.7856 39.9224 25.1495 39.7717C25.5133 39.621 25.8439 39.4001 26.1224 39.1216C26.4009 38.8431 26.6218 38.5125 26.7725 38.1487C26.9232 37.7848 27.0008 37.3948 27.0008 37.001V33.501C27.655 34.3407 28.0088 35.3755 28.0058 36.44L28.0038 36.479C28.0038 36.8768 28.1618 37.2584 28.4431 37.5397C28.7244 37.821 29.106 37.979 29.5038 37.979C29.9016 37.979 30.2831 37.821 30.5644 37.5397C30.8457 37.2584 31.0038 36.8768 31.0038 36.479C30.9988 35.2856 31.335 34.1157 31.9728 33.107C32.6106 32.0984 33.5235 31.2931 34.6038 30.786L32.9998 38.001C32.8661 38.7347 32.8952 39.4887 33.0851 40.2099C33.275 40.931 33.621 41.6016 34.0987 42.1743C34.5764 42.7469 35.1741 43.2076 35.8495 43.5237C36.5249 43.8399 37.2616 44.0037 38.0073 44.0037C38.753 44.0037 39.4896 43.8399 40.165 43.5237C40.8405 43.2076 41.4382 42.7469 41.9159 42.1743C42.3936 41.6016 42.7396 40.931 42.9295 40.2099C43.1194 39.4887 43.1485 38.7347 43.0148 38.001L41.3998 30.787C42.4801 31.2941 43.3929 32.0994 44.0307 33.108C44.6686 34.1167 45.0048 35.2866 44.9998 36.48C44.9998 36.8778 45.1578 37.2594 45.4391 37.5407C45.7204 37.822 46.102 37.98 46.4998 37.98C46.8976 37.98 47.2791 37.822 47.5604 37.5407C47.8417 37.2594 47.9998 36.8778 47.9998 36.48C47.9998 31.091 43.7018 27.027 38.0018 27.027Z" fill="black"/>
<path d="M38.002 25.001C39.6588 25.001 41.002 23.6578 41.002 22.001C41.002 20.3441 39.6588 19.001 38.002 19.001C36.3451 19.001 35.002 20.3441 35.002 22.001C35.002 23.6578 36.3451 25.001 38.002 25.001Z" fill="black"/>
<path d="M10.001 25.001C11.6578 25.001 13.001 23.6578 13.001 22.001C13.001 20.3441 11.6578 19.001 10.001 19.001C8.34412 19.001 7.00098 20.3441 7.00098 22.001C7.00098 23.6578 8.34412 25.001 10.001 25.001Z" fill="black"/>
<path d="M21.4961 24.4957C21.4963 24.9911 21.6434 25.4754 21.9187 25.8872C22.1941 26.299 22.5854 26.6199 23.0432 26.8094C23.5009 26.9988 24.0046 27.0483 24.4904 26.9515C24.9763 26.8547 25.4225 26.6161 25.7727 26.2657C26.123 25.9153 26.3615 25.469 26.458 24.9831C26.5546 24.4972 26.5049 23.9936 26.3153 23.5359C26.1257 23.0782 25.8046 22.6871 25.3927 22.4118C24.9808 22.1366 24.4965 21.9897 24.0011 21.9897C23.672 21.9897 23.3462 22.0546 23.0422 22.1805C22.7383 22.3065 22.4621 22.4911 22.2294 22.7238C21.9968 22.9565 21.8123 23.2328 21.6865 23.5368C21.5607 23.8409 21.496 24.1667 21.4961 24.4957Z" fill="black"/>
</g>
<defs>
<clipPath id="clip0_6013_51578">
<rect width="48.001" height="44" fill="white" transform="translate(0 0.000976562)"/>
</clipPath>
</defs>
</svg>
