<svg width="48" height="41" viewBox="0 0 48 41" fill="none" xmlns="http://www.w3.org/2000/svg">
<g clip-path="url(#clip0_6013_51584)">
<path d="M44.001 16.001V11.001C43.9983 8.08441 42.8386 5.28805 40.7762 3.22573C38.7139 1.1634 35.9175 0.00362438 33.001 0.000976563L16.031 0.000976563C13.1108 0.000965761 10.3098 1.15893 8.24218 3.22097C6.17451 5.28302 5.00892 8.08084 5.00098 11.001V16.001H4.00098C2.94011 16.001 1.92269 16.4224 1.17255 17.1726C0.422404 17.9227 0.000976563 18.9401 0.000976562 20.001L0.000976563 30.001C0.000976563 31.0618 0.422404 32.0793 1.17255 32.8294C1.92269 33.5795 2.94011 34.001 4.00098 34.001V37.001C4.00098 38.0618 4.4224 39.0793 5.17255 39.8294C5.92269 40.5795 6.94011 41.001 8.00098 41.001C9.06184 41.001 10.0793 40.5795 10.8294 39.8294C11.5795 39.0793 12.001 38.0618 12.001 37.001V34.001H36.001V37.001C36.001 38.0618 36.4224 39.0793 37.1726 39.8294C37.9227 40.5795 38.9401 41.001 40.001 41.001C41.0618 41.001 42.0793 40.5795 42.8294 39.8294C43.5795 39.0793 44.001 38.0618 44.001 37.001V34.001C45.0618 34.001 46.0793 33.5795 46.8294 32.8294C47.5795 32.0793 48.001 31.0618 48.001 30.001V20.001C48.001 18.9401 47.5795 17.9227 46.8294 17.1726C46.0793 16.4224 45.0618 16.001 44.001 16.001ZM11.001 11.001C11.0063 9.67132 11.5389 8.39809 12.4819 7.46069C13.4249 6.52329 14.7013 5.99832 16.031 6.00098H33.001C34.3266 6.00256 35.5974 6.52986 36.5348 7.4672C37.4721 8.40453 37.9994 9.67538 38.001 11.001V16.001H11.001V11.001ZM9.00098 28.001C8.40763 28.001 7.82761 27.825 7.33427 27.4954C6.84092 27.1657 6.4564 26.6972 6.22934 26.149C6.00228 25.6008 5.94287 24.9976 6.05862 24.4157C6.17438 23.8338 6.4601 23.2992 6.87966 22.8797C7.29921 22.4601 7.83376 22.1744 8.41571 22.0586C8.99765 21.9429 9.60085 22.0023 10.149 22.2293C10.6972 22.4564 11.1657 22.8409 11.4954 23.3343C11.825 23.8276 12.001 24.4076 12.001 25.001C12.0015 25.3951 11.9243 25.7854 11.7737 26.1496C11.6231 26.5139 11.4022 26.8448 11.1235 27.1235C10.8448 27.4022 10.5139 27.6231 10.1496 27.7737C9.78543 27.9243 9.39509 28.0015 9.00098 28.001ZM39.001 22.001C39.5943 22.001 40.1743 22.1769 40.6677 22.5066C41.161 22.8362 41.5456 23.3047 41.7726 23.8529C41.9997 24.4011 42.0591 25.0043 41.9433 25.5862C41.8276 26.1682 41.5419 26.7027 41.1223 27.1223C40.7027 27.5419 40.1682 27.8276 39.5862 27.9433C39.0043 28.0591 38.4011 27.9997 37.8529 27.7726C37.3047 27.5456 36.8362 27.161 36.5066 26.6677C36.1769 26.1743 36.001 25.5943 36.001 25.001C36.0005 24.6069 36.0777 24.2165 36.2283 23.8523C36.3788 23.4881 36.5998 23.1572 36.8785 22.8785C37.1572 22.5998 37.4881 22.3788 37.8523 22.2283C38.2165 22.0777 38.6069 22.0005 39.001 22.001Z" fill="black"/>
</g>
<defs>
<clipPath id="clip0_6013_51584">
<rect width="48" height="41" fill="white" transform="translate(0.000976562 0.000976562)"/>
</clipPath>
</defs>
</svg>
