<svg width="48" height="48" viewBox="0 0 48 48" fill="none" xmlns="http://www.w3.org/2000/svg">
<g clip-path="url(#clip0_6013_51586)">
<path d="M24.001 14.001C24.5314 14.001 25.0401 13.7903 25.4152 13.4152C25.7903 13.0401 26.001 12.5314 26.001 12.001V2.00098C26.001 1.47054 25.7903 0.961836 25.4152 0.586763C25.0401 0.21169 24.5314 0.000976563 24.001 0.000976562C23.4705 0.000976563 22.9618 0.21169 22.5868 0.586763C22.2117 0.961836 22.001 1.47054 22.001 2.00098V12.001C22.001 12.5314 22.2117 13.0401 22.5868 13.4152C22.9618 13.7903 23.4705 14.001 24.001 14.001ZM47.506 5.68398C47.1567 5.28485 46.6631 5.04083 46.1339 5.00557C45.6047 4.97031 45.0831 5.14672 44.684 5.49598L36.684 12.496C36.2915 12.8471 36.0534 13.3389 36.0213 13.8645C35.9892 14.3902 36.1657 14.9072 36.5125 15.3035C36.8593 15.6998 37.3484 15.9434 37.8736 15.9813C38.3989 16.0192 38.9179 15.8484 39.318 15.506L47.318 8.50598C47.7171 8.15667 47.9611 7.66313 47.9964 7.13391C48.0316 6.60469 47.8552 6.08314 47.506 5.68398ZM10.001 16.001C10.4078 16.0009 10.805 15.8768 11.1395 15.6451C11.474 15.4135 11.7299 15.0853 11.873 14.7045C12.0161 14.3236 12.0396 13.9081 11.9405 13.5135C11.8413 13.1189 11.6241 12.7639 11.318 12.496L3.31797 5.49598C3.12085 5.31961 2.89071 5.18409 2.64087 5.09727C2.39102 5.01045 2.12644 4.97405 1.86243 4.99018C1.59842 5.00631 1.34024 5.07464 1.10282 5.19123C0.865402 5.30781 0.653467 5.47033 0.479284 5.66938C0.305101 5.86843 0.17213 6.10005 0.0880684 6.35083C0.00400722 6.60162 -0.0294745 6.86659 -0.0104384 7.1304C0.00859765 7.39421 0.0797733 7.65163 0.198968 7.88775C0.318163 8.12387 0.48301 8.334 0.683965 8.50598L8.68396 15.506C9.04826 15.8248 9.51585 16.0007 9.99996 16.001M40.001 30.001H38.001V25.501C38.001 23.2466 37.1054 21.0846 35.5114 19.4906C33.9173 17.8965 31.7553 17.001 29.501 17.001H18.501C16.2466 17.001 14.0846 17.8965 12.4906 19.4906C10.8965 21.0846 10.001 23.2466 10.001 25.501V30.001H8.00097C7.47102 30.0026 6.96323 30.2138 6.5885 30.5885C6.21377 30.9632 6.00255 31.471 6.00097 32.001V41.001C6.00255 41.5309 6.21377 42.0387 6.5885 42.4134C6.96323 42.7882 7.47102 42.9994 8.00097 43.001H10.001V44.87C9.98724 45.5791 10.2179 46.2713 10.6542 46.8305C11.0904 47.3897 11.7058 47.7818 12.397 47.941C12.833 48.0291 13.2832 48.0195 13.715 47.9127C14.1469 47.8059 14.5497 47.6046 14.8944 47.3234C15.2391 47.0422 15.5171 46.6881 15.7085 46.2865C15.8998 45.8849 15.9997 45.4458 16.001 45.001V43.001H32.001V44.87C31.9872 45.5791 32.2179 46.2713 32.6542 46.8305C33.0904 47.3897 33.7058 47.7818 34.397 47.941C34.833 48.0291 35.2832 48.0195 35.715 47.9127C36.1469 47.8059 36.5497 47.6046 36.8944 47.3234C37.2391 47.0422 37.5171 46.6881 37.7085 46.2865C37.8998 45.8849 37.9997 45.4458 38.001 45.001V43.001H40.001C40.5309 42.9994 41.0387 42.7882 41.4134 42.4134C41.7882 42.0387 41.9994 41.5309 42.001 41.001V32.001C41.9994 31.471 41.7882 30.9632 41.4134 30.5885C41.0387 30.2138 40.5309 30.0026 40.001 30.001ZM15.001 25.501C15.002 24.573 15.3711 23.6834 16.0273 23.0273C16.6834 22.3711 17.573 22.002 18.501 22.001H29.501C30.4289 22.002 31.3185 22.3711 31.9747 23.0273C32.6308 23.6834 32.9999 24.573 33.001 25.501V30.001H15.001V25.501ZM13.501 39.001C13.0065 39.001 12.5232 38.8544 12.112 38.5797C11.7009 38.3049 11.3805 37.9145 11.1913 37.4577C11.002 37.0009 10.9525 36.4982 11.049 36.0133C11.1455 35.5283 11.3836 35.0828 11.7332 34.7332C12.0828 34.3836 12.5283 34.1455 13.0132 34.049C13.4982 33.9526 14.0009 34.0021 14.4577 34.1913C14.9145 34.3805 15.3049 34.7009 15.5796 35.112C15.8543 35.5232 16.001 36.0065 16.001 36.501C16.001 37.164 15.7376 37.7999 15.2687 38.2687C14.7999 38.7376 14.164 39.001 13.501 39.001ZM34.501 34.001C34.9954 34.001 35.4788 34.1476 35.8899 34.4223C36.301 34.697 36.6214 35.0875 36.8107 35.5443C36.9999 36.0011 37.0494 36.5037 36.9529 36.9887C36.8565 37.4737 36.6184 37.9191 36.2687 38.2687C35.9191 38.6184 35.4736 38.8565 34.9887 38.9529C34.5037 39.0494 34.0011 38.9999 33.5443 38.8107C33.0874 38.6215 32.697 38.301 32.4223 37.8899C32.1476 37.4788 32.001 36.9954 32.001 36.501C32.001 35.8379 32.2644 35.202 32.7332 34.7332C33.202 34.2644 33.8379 34.001 34.501 34.001Z" fill="black"/>
</g>
<defs>
<clipPath id="clip0_6013_51586">
<rect width="48" height="48" fill="white" transform="translate(0.000976562 0.000976562)"/>
</clipPath>
</defs>
</svg>
