<svg width="48" height="48" viewBox="0 0 48 48" fill="none" xmlns="http://www.w3.org/2000/svg">
<g clip-path="url(#clip0_6013_51589)">
<path d="M16.501 38.001V39.001C16.501 39.601 15.901 40.001 15.001 40.001H12.001C11.101 40.001 10.501 39.601 10.501 39.001V38.001C10.501 37.401 11.101 37.001 12.001 37.001H15.001C15.901 37.001 16.501 37.401 16.501 38.001ZM15.001 29.001H12.001C11.101 29.001 10.501 29.401 10.501 30.001V31.001C10.501 31.601 11.101 32.001 12.001 32.001H15.001C15.901 32.001 16.501 31.601 16.501 31.001V30.001C16.501 29.401 15.901 29.001 15.001 29.001ZM24.001 18.001C25.651 18.001 27.001 17.101 27.001 16.001C27.001 14.901 25.651 14.001 24.001 14.001C22.351 14.001 21.001 14.901 21.001 16.001C21.001 17.101 22.351 18.001 24.001 18.001ZM35.251 37.001H23.251C22.051 37.001 21.001 37.701 21.001 38.501C21.001 39.301 22.051 40.001 23.251 40.001H35.251C36.451 40.001 37.501 39.301 37.501 38.501C37.501 37.701 36.451 37.001 35.251 37.001ZM30.001 23.401C30.001 21.501 27.751 20.001 24.901 20.001H23.101C20.251 20.001 18.001 21.501 18.001 23.401V25.001H30.001V23.401ZM48.001 8.10098V45.801C48.001 46.901 46.651 47.901 45.001 48.001H3.00098C1.35098 48.001 0.000976562 47.001 0.000976562 45.801V8.10098C0.000976562 7.00098 1.35098 6.00098 3.00098 6.00098H10.501C10.501 4.90098 11.851 4.00098 13.501 4.00098H18.001C18.001 1.80098 20.701 0.000976562 24.001 0.000976562C27.301 0.000976562 30.001 1.80098 30.001 4.00098H34.501C36.151 4.00098 37.501 4.90098 37.501 6.00098H45.001C46.651 6.00098 48.001 7.00098 48.001 8.10098ZM22.501 5.00098C22.501 5.60098 23.101 6.00098 24.001 6.00098C24.901 6.00098 25.501 5.60098 25.501 5.00098C25.501 4.40098 24.901 4.00098 24.001 4.00098C23.101 4.00098 22.501 4.40098 22.501 5.00098ZM42.001 10.001H37.501C37.501 11.101 36.151 12.001 34.501 12.001H13.501C11.851 12.001 10.501 11.101 10.501 10.001H6.00098V44.001H42.001V10.001ZM35.251 29.001H23.251C22.051 29.001 21.001 29.701 21.001 30.501C21.001 31.301 22.051 32.001 23.251 32.001H35.251C36.451 32.001 37.501 31.301 37.501 30.501C37.501 29.701 36.451 29.001 35.251 29.001Z" fill="black"/>
</g>
<defs>
<clipPath id="clip0_6013_51589">
<rect width="48" height="48" fill="white" transform="translate(0.000976562 0.000976562)"/>
</clipPath>
</defs>
</svg>
