<svg width="48" height="48" viewBox="0 0 48 48" fill="none" xmlns="http://www.w3.org/2000/svg">
<g clip-path="url(#clip0_6013_51591)">
<path d="M46.0313 14.0011H1.97132C1.84375 14.0005 1.71732 14.0251 1.59933 14.0736C1.48135 14.1221 1.37415 14.1935 1.28395 14.2837C1.19374 14.3739 1.12232 14.4811 1.07381 14.5991C1.02529 14.7171 1.00066 14.8435 1.00132 14.9711V33.0311C1.00066 33.1587 1.02529 33.2851 1.07381 33.4031C1.12232 33.5211 1.19374 33.6283 1.28395 33.7185C1.37415 33.8087 1.48135 33.8801 1.59933 33.9286C1.71732 33.9771 1.84375 34.0018 1.97132 34.0011H46.0313C46.1589 34.0018 46.2853 33.9771 46.4033 33.9286C46.5213 33.8801 46.6285 33.8087 46.7187 33.7185C46.8089 33.6283 46.8803 33.5211 46.9288 33.4031C46.9773 33.2851 47.002 33.1587 47.0013 33.0311V14.9711C47.002 14.8435 46.9773 14.7171 46.9288 14.5991C46.8803 14.4811 46.8089 14.3739 46.7187 14.2837C46.6285 14.1935 46.5213 14.1221 46.4033 14.0736C46.2853 14.0251 46.1589 14.0005 46.0313 14.0011ZM8.00132 27.0011C7.40797 27.0011 6.82795 26.8252 6.33461 26.4955C5.84126 26.1659 5.45674 25.6973 5.22968 25.1492C5.00262 24.601 4.94321 23.9978 5.05896 23.4158C5.17472 22.8339 5.46044 22.2994 5.88 21.8798C6.29956 21.4602 6.8341 21.1745 7.41605 21.0588C7.99799 20.943 8.60119 21.0024 9.14937 21.2295C9.69755 21.4565 10.1661 21.8411 10.4957 22.3344C10.8254 22.8278 11.0013 23.4078 11.0013 24.0011C11.0018 24.3952 10.9246 24.7856 10.774 25.1498C10.6235 25.514 10.4025 25.8449 10.1238 26.1236C9.84513 26.4023 9.51421 26.6232 9.14999 26.7738C8.78578 26.9244 8.39543 27.0016 8.00132 27.0011ZM24.0013 31.0011C22.6168 31.0011 21.2635 30.5906 20.1123 29.8214C18.9612 29.0522 18.064 27.959 17.5342 26.6799C17.0043 25.4008 16.8657 23.9933 17.1358 22.6355C17.4059 21.2776 18.0726 20.0303 19.0516 19.0514C20.0305 18.0724 21.2778 17.4057 22.6357 17.1356C23.9936 16.8655 25.401 17.0041 26.6801 17.534C27.9592 18.0638 29.0524 18.961 29.8216 20.1121C30.5908 21.2633 31.0013 22.6166 31.0013 24.0011C31.002 24.9206 30.8214 25.8311 30.4698 26.6807C30.1183 27.5303 29.6027 28.3022 28.9525 28.9523C28.3024 29.6025 27.5305 30.1181 26.6809 30.4696C25.8313 30.8212 24.9208 31.0018 24.0013 31.0011ZM40.0013 27.0011C39.408 27.0011 38.828 26.8252 38.3346 26.4955C37.8413 26.1659 37.4567 25.6973 37.2297 25.1492C37.0026 24.601 36.9432 23.9978 37.059 23.4158C37.1747 22.8339 37.4604 22.2994 37.88 21.8798C38.2996 21.4602 38.8341 21.1745 39.416 21.0588C39.998 20.943 40.6012 21.0024 41.1494 21.2295C41.6975 21.4565 42.1661 21.8411 42.4957 22.3344C42.8254 22.8278 43.0013 23.4078 43.0013 24.0011C43.0018 24.3952 42.9246 24.7856 42.774 25.1498C42.6235 25.514 42.4025 25.8449 42.1238 26.1236C41.8451 26.4023 41.5142 26.6232 41.15 26.7738C40.7858 26.9244 40.3954 27.0016 40.0013 27.0011ZM44.5013 41.0461H5.12232L6.51732 39.6511C6.66294 39.5133 6.77946 39.3477 6.85999 39.1641C6.94052 38.9805 6.98342 38.7826 6.98616 38.5821C6.9889 38.3816 6.95143 38.1827 6.87595 37.9969C6.80047 37.8112 6.68852 37.6424 6.54671 37.5007C6.40491 37.359 6.23613 37.2471 6.05035 37.1717C5.86457 37.0963 5.66557 37.0589 5.46509 37.0618C5.26462 37.0646 5.06675 37.1076 4.88318 37.1882C4.6996 37.2688 4.53406 37.3854 4.39632 37.5311L0.440318 41.4841C0.30072 41.6244 0.190265 41.7909 0.115318 41.9741L0.107318 41.9981C-0.0344706 42.349 -0.0344706 42.7412 0.107318 43.0921L0.115318 43.1151C0.190265 43.2983 0.30072 43.4648 0.440318 43.6051L4.39632 47.5611C4.67935 47.8342 5.05832 47.9852 5.45162 47.9816C5.84492 47.978 6.22106 47.8201 6.49904 47.5419C6.77703 47.2636 6.9346 46.8873 6.93783 46.494C6.94106 46.1007 6.78969 45.7219 6.51632 45.4391L5.12232 44.0451H44.5013C44.8991 44.0451 45.2807 43.8871 45.562 43.6058C45.8433 43.3245 46.0013 42.9429 46.0013 42.5451C46.0013 42.1473 45.8433 41.7658 45.562 41.4845C45.2807 41.2032 44.8991 41.0461 44.5013 41.0461ZM47.8953 4.90911L47.8873 4.88611C47.8124 4.70294 47.7019 4.53641 47.5623 4.39611L43.6063 0.440114C43.3233 0.167008 42.9443 0.0159924 42.551 0.0195942C42.1577 0.023196 41.7816 0.181127 41.5036 0.459371C41.2256 0.737616 41.068 1.11391 41.0648 1.50721C41.0616 1.90051 41.2129 2.27934 41.4863 2.56211L42.8803 3.95611H3.50132C3.10349 3.95611 2.72196 4.11415 2.44066 4.39545C2.15935 4.67676 2.00132 5.05829 2.00132 5.45611C2.00132 5.85394 2.15935 6.23547 2.44066 6.51677C2.72196 6.79808 3.10349 6.95611 3.50132 6.95611H42.8803L41.4853 8.35112C41.217 8.63495 41.0699 9.01226 41.0755 9.40283C41.081 9.79339 41.2386 10.1664 41.5149 10.4425C41.7912 10.7187 42.1642 10.8761 42.5548 10.8815C42.9454 10.8868 43.3226 10.7396 43.6063 10.4711L47.5623 6.51711C47.7019 6.37682 47.8124 6.21029 47.8873 6.02711L47.8953 6.00311C48.0371 5.65223 48.0371 5.26 47.8953 4.90911Z" fill="black"/>
</g>
<defs>
<clipPath id="clip0_6013_51591">
<rect width="48" height="48" fill="white" transform="translate(0.000976562 0.000976562)"/>
</clipPath>
</defs>
</svg>
