<svg width="48" height="48" viewBox="0 0 48 48" fill="none" xmlns="http://www.w3.org/2000/svg">
<g clip-path="url(#clip0_6013_51594)">
<path d="M38.001 44.0013H33.55L26.367 17.1963C27.0468 16.6976 27.5517 15.9968 27.8094 15.194C28.0672 14.3912 28.0647 13.5275 27.8024 12.7262C27.54 11.925 27.0311 11.2271 26.3484 10.7323C25.6657 10.2375 24.8441 9.97106 24.001 9.97106C23.1578 9.97106 22.3363 10.2375 21.6536 10.7323C20.9709 11.2271 20.462 11.925 20.1996 12.7262C19.9372 13.5275 19.9347 14.3912 20.1925 15.194C20.4503 15.9968 20.9551 16.6976 21.635 17.1963L14.451 44.0003H10.001C9.47055 44.0003 8.96184 44.211 8.58677 44.5861C8.21169 44.9611 8.00098 45.4698 8.00098 46.0003C8.00098 46.5307 8.21169 47.0394 8.58677 47.4145C8.96184 47.7896 9.47055 48.0003 10.001 48.0003H38.001C38.5314 48.0003 39.0401 47.7896 39.4152 47.4145C39.7903 47.0394 40.001 46.5307 40.001 46.0003C40.001 45.4698 39.7903 44.9611 39.4152 44.5861C39.0401 44.211 38.5314 44.0013 38.001 44.0013ZM21.311 30.0013H26.691L28.299 36.0013H19.703L21.311 30.0013ZM22.114 27.0013L24.001 19.9583L25.888 27.0013H22.114ZM18.899 39.0013H29.103L30.443 44.0013H17.559L18.899 39.0013ZM3.00098 13.5543C3.02694 9.44512 4.66597 5.51059 7.56498 2.59828C7.70572 2.45472 7.81668 2.28474 7.89149 2.09814C7.9663 1.91153 8.00347 1.71198 8.00087 1.51095C7.99826 1.30993 7.95594 1.1114 7.87633 0.926796C7.79672 0.742189 7.68139 0.575146 7.53698 0.435276C7.24473 0.151956 6.85221 -0.00414214 6.4452 0.00110468C6.0382 0.00635149 5.64983 0.172516 5.36498 0.463276C1.92523 3.9519 -0.00187451 8.65506 0.000979729 13.5543C0.0397314 18.4088 1.95885 23.0593 5.35498 26.5283C5.63558 26.8227 6.02163 26.9935 6.42821 27.0033C6.83479 27.013 7.22859 26.8609 7.52298 26.5803C7.81737 26.2997 7.98824 25.9136 7.99799 25.507C8.00774 25.1005 7.85558 24.7067 7.57498 24.4123C4.70739 21.5181 3.06867 17.628 3.00098 13.5543ZM12.218 19.4773C12.3505 19.6305 12.5126 19.7555 12.6944 19.8448C12.8763 19.9341 13.0742 19.9859 13.2765 19.9971C13.4788 20.0083 13.6813 19.9786 13.8719 19.91C14.0625 19.8413 14.2373 19.7349 14.386 19.5973C14.6898 19.3135 14.8717 18.923 14.8936 18.5079C14.9154 18.0927 14.7754 17.6853 14.503 17.3713C13.5597 16.3225 13.0264 14.9686 13.001 13.5583C13.0251 12.1055 13.5898 10.7139 14.585 9.65528C14.864 9.34735 15.0127 8.9432 14.9999 8.52785C14.987 8.11251 14.8135 7.71834 14.516 7.42828C14.3709 7.28661 14.1987 7.17574 14.0097 7.10229C13.8206 7.02885 13.6187 6.99437 13.4161 7.00091C13.2134 7.00744 13.0141 7.05487 12.8302 7.14034C12.6464 7.22581 12.4816 7.34756 12.346 7.49828C10.8589 9.13184 10.0242 11.255 10.0006 13.4639C9.97704 15.6728 10.7662 17.8123 12.218 19.4773Z" fill="black"/>
<path d="M8.45007 22.5371C8.57487 22.6771 8.72681 22.7902 8.89666 22.8696C9.06651 22.9491 9.25073 22.9932 9.43814 22.9993C9.62555 23.0053 9.81224 22.9733 9.98688 22.905C10.1615 22.8367 10.3205 22.7337 10.4541 22.6021C10.7286 22.3304 10.8881 21.9636 10.8996 21.5775C10.9112 21.1915 10.7738 20.8158 10.5161 20.5281C8.83198 18.6004 7.93426 16.11 8.00107 13.5511C7.93344 10.9493 8.86491 8.42044 10.6041 6.48414C10.8656 6.19973 11.0077 5.82557 11.0008 5.43923C10.9939 5.0529 10.8386 4.68404 10.5671 4.40914C10.4353 4.27583 10.2777 4.17071 10.104 4.10016C9.93036 4.02962 9.74414 3.99512 9.55671 3.99877C9.36927 4.00242 9.18454 4.04413 9.01373 4.12138C8.84291 4.19863 8.68959 4.3098 8.56307 4.44814C6.29247 6.90624 5.02214 10.124 5.00124 13.4702C4.98033 16.8165 6.21036 20.0509 8.45007 22.5371ZM42.6581 0.463138C42.5192 0.313914 42.3518 0.193955 42.1659 0.110307C41.98 0.0266588 41.7793 -0.0189905 41.5755 -0.0239595C41.3716 -0.0289285 41.1689 0.00688308 40.9791 0.0813713C40.7894 0.15586 40.6164 0.267522 40.4704 0.4098C40.3244 0.552077 40.2083 0.722099 40.1289 0.909878C40.0495 1.09766 40.0085 1.29941 40.0082 1.50327C40.0079 1.70714 40.0483 1.90901 40.1271 2.09703C40.2059 2.28505 40.3215 2.45542 40.4671 2.59814C43.3524 5.51711 44.9799 9.44989 45.0011 13.5541C44.9287 17.6272 43.2899 21.5159 40.4251 24.4121C40.2861 24.5573 40.1772 24.7284 40.1043 24.9157C40.0315 25.103 39.9963 25.3028 40.0007 25.5037C40.0052 25.7046 40.0491 25.9027 40.1301 26.0866C40.211 26.2705 40.3274 26.4367 40.4726 26.5756C40.6177 26.7146 40.7889 26.8236 40.9762 26.8964C41.1635 26.9692 41.3633 27.0044 41.5642 27C41.7651 26.9956 41.9631 26.9516 42.147 26.8707C42.331 26.7897 42.4971 26.6733 42.6361 26.5281C46.03 23.0568 47.9521 18.4087 48.0011 13.5541C48.005 8.65909 46.0862 3.95732 42.6581 0.463138ZM35.0011 13.5581C34.9514 14.9813 34.3835 16.3374 33.4041 17.3711C33.1293 17.6828 32.9888 18.0903 33.0129 18.5051C33.0371 18.9198 33.2241 19.3083 33.5332 19.5859C33.8423 19.8635 34.2486 20.0078 34.6635 19.9874C35.0785 19.9671 35.4686 19.7837 35.7491 19.4771C37.2058 17.8505 38.0081 15.7417 38.0011 13.5581C38.0501 11.3206 37.235 9.15019 35.7251 7.49814C35.439 7.19354 35.0437 7.01504 34.6261 7.00191C34.2084 6.98878 33.8027 7.1421 33.4981 7.42814C33.1935 7.71417 33.015 8.1095 33.0018 8.52714C32.9887 8.94478 33.142 9.35054 33.4281 9.65514C34.431 10.7079 34.9937 12.1041 35.0011 13.5581Z" fill="black"/>
<path d="M40.0014 13.5512C40.0646 16.1251 39.1326 18.6242 37.3994 20.5282C37.2622 20.6676 37.1542 20.8331 37.0818 21.0148C37.0094 21.1966 36.974 21.391 36.9778 21.5866C36.9816 21.7822 37.0245 21.9751 37.1039 22.1539C37.1833 22.3328 37.2977 22.4939 37.4403 22.6279C37.5828 22.7619 37.7508 22.866 37.9342 22.9341C38.1176 23.0023 38.3128 23.0331 38.5082 23.0247C38.7037 23.0164 38.8956 22.969 39.0725 22.8855C39.2494 22.8019 39.4078 22.6838 39.5384 22.5382C41.8026 20.0975 43.0423 16.8801 43.0014 13.5512C43.0806 10.1785 41.8324 6.90965 39.5254 4.44817C39.3918 4.30943 39.2321 4.19838 39.0555 4.12135C38.8789 4.04433 38.6888 4.00285 38.4962 3.99928C38.3035 3.9957 38.1121 4.0301 37.9327 4.10052C37.7534 4.17093 37.5897 4.27598 37.4509 4.40967C37.3122 4.54335 37.2012 4.70306 37.1241 4.87966C37.0471 5.05627 37.0056 5.24631 37.0021 5.43895C36.9985 5.63158 37.0329 5.82303 37.1033 6.00237C37.1737 6.18171 37.2788 6.34543 37.4124 6.48417C39.1724 8.4074 40.1027 10.9462 40.0014 13.5512Z" fill="black"/>
</g>
<defs>
<clipPath id="clip0_6013_51594">
<rect width="48" height="47.999" fill="white" transform="translate(0.000976562 0.000976562)"/>
</clipPath>
</defs>
</svg>
