<svg width="48" height="44" viewBox="0 0 48 44" fill="none" xmlns="http://www.w3.org/2000/svg">
<g clip-path="url(#clip0_6013_51599)">
<path d="M2.012 22.001H9.988C10.2523 22.0007 10.514 22.0526 10.7583 22.1536C11.0025 22.2546 11.2244 22.4028 11.4113 22.5897C11.5982 22.7766 11.7464 22.9985 11.8474 23.2427C11.9484 23.4869 12.0003 23.7487 12 24.013V41.989C12.0003 42.2533 11.9484 42.515 11.8474 42.7592C11.7464 43.0035 11.5982 43.2254 11.4113 43.4123C11.2244 43.5991 11.0025 43.7473 10.7583 43.8484C10.514 43.9494 10.2523 44.0012 9.988 44.001H2.012C1.74771 44.0012 1.48596 43.9494 1.24173 43.8484C0.997505 43.7473 0.775599 43.5991 0.588715 43.4123C0.401832 43.2254 0.253639 43.0035 0.152619 42.7592C0.0516002 42.515 -0.000262114 42.2533 9.96107e-07 41.989V24.013C-0.000262114 23.7487 0.0516002 23.4869 0.152619 23.2427C0.253639 22.9985 0.401832 22.7766 0.588715 22.5897C0.775599 22.4028 0.997505 22.2546 1.24173 22.1536C1.48596 22.0526 1.74771 22.0007 2.012 22.001ZM20.115 11.001H27.988C28.2523 11.0007 28.514 11.0526 28.7583 11.1536C29.0025 11.2546 29.2244 11.4028 29.4113 11.5897C29.5982 11.7766 29.7464 11.9985 29.8474 12.2427C29.9484 12.4869 30.0003 12.7487 30 13.013V41.989C30.0003 42.2533 29.9484 42.515 29.8474 42.7592C29.7464 43.0035 29.5982 43.2254 29.4113 43.4123C29.2244 43.5991 29.0025 43.7473 28.7583 43.8484C28.514 43.9494 28.2523 44.0012 27.988 44.001H20.115C19.8508 44.0011 19.5891 43.9492 19.345 43.8481C19.1009 43.747 18.8791 43.5988 18.6924 43.4119C18.5056 43.225 18.3575 43.0032 18.2565 42.759C18.1556 42.5149 18.1037 42.2532 18.104 41.989V13.013C18.1037 12.7488 18.1556 12.4871 18.2565 12.2429C18.3575 11.9988 18.5056 11.7769 18.6924 11.59C18.8791 11.4032 19.1009 11.255 19.345 11.1539C19.5891 11.0528 19.8508 11.0008 20.115 11.001ZM38.012 0.000977559H45.988C46.2523 0.000714449 46.514 0.0525768 46.7583 0.153596C47.0025 0.254615 47.2244 0.402808 47.4113 0.589692C47.5982 0.776576 47.7464 0.998481 47.8474 1.24271C47.9484 1.48693 48.0003 1.74868 48 2.01298V41.989C48.0003 42.2533 47.9484 42.515 47.8474 42.7592C47.7464 43.0035 47.5982 43.2254 47.4113 43.4123C47.2244 43.5991 47.0025 43.7473 46.7583 43.8484C46.514 43.9494 46.2523 44.0012 45.988 44.001H38.012C37.7477 44.0012 37.486 43.9494 37.2417 43.8484C36.9975 43.7473 36.7756 43.5991 36.5887 43.4123C36.4018 43.2254 36.2536 43.0035 36.1526 42.7592C36.0516 42.515 35.9997 42.2533 36 41.989V2.01298C35.9997 1.74868 36.0516 1.48693 36.1526 1.24271C36.2536 0.998481 36.4018 0.776576 36.5887 0.589692C36.7756 0.402808 36.9975 0.254615 37.2417 0.153596C37.486 0.0525768 37.7477 0.000714449 38.012 0.000977559Z" fill="black"/>
</g>
<defs>
<clipPath id="clip0_6013_51599">
<rect width="48" height="44" fill="white" transform="translate(0 0.000976562)"/>
</clipPath>
</defs>
</svg>
