<svg width="48" height="40" viewBox="0 0 48 40" fill="none" xmlns="http://www.w3.org/2000/svg">
<g clip-path="url(#clip0_6013_51602)">
<path d="M41 0.000976562H27C25.1435 0.000976563 23.363 0.738253 22.0503 2.05061C20.7375 3.36297 20 5.14292 20 6.99888V9.99798C22.3861 10.0006 24.6738 10.9494 26.361 12.6361C28.0483 14.3229 28.9974 16.6099 29 18.9953V23.9938H35L39.805 28.7973C39.9029 28.8952 40.0276 28.9619 40.1634 28.9889C40.2992 29.0159 40.44 29.002 40.5679 28.9491C40.6958 28.8961 40.8051 28.8064 40.882 28.6913C40.959 28.5762 41 28.4409 41 28.3025V23.9938C42.8565 23.9938 44.637 23.2565 45.9497 21.9441C47.2625 20.6318 48 18.8518 48 16.9959V6.99888C48 5.14292 47.2625 3.36297 45.9497 2.05061C44.637 0.738253 42.8565 0.000976563 41 0.000976562Z" fill="black"/>
<path d="M20 34.9905H12L7.195 39.794C7.0971 39.8919 6.97237 39.9586 6.83658 39.9856C6.70078 40.0126 6.56003 39.9987 6.43211 39.9457C6.3042 39.8928 6.19487 39.8031 6.11796 39.688C6.04104 39.5729 5.99999 39.4376 6 39.2992V34.9905C4.4087 34.9905 2.88258 34.3585 1.75736 33.2336C0.632141 32.1088 0 30.5831 0 28.9923L0 18.9953C0 17.4044 0.632141 15.8788 1.75736 14.7539C2.88258 13.629 4.4087 12.9971 6 12.9971H20C21.5913 12.9971 23.1174 13.629 24.2426 14.7539C25.3679 15.8788 26 17.4044 26 18.9953V28.9923C26 30.5831 25.3679 32.1088 24.2426 33.2336C23.1174 34.3585 21.5913 34.9905 20 34.9905Z" fill="black"/>
</g>
<defs>
<clipPath id="clip0_6013_51602">
<rect width="48" height="40" fill="white" transform="translate(0 0.000976562)"/>
</clipPath>
</defs>
</svg>
