<svg width="48" height="48" viewBox="0 0 48 48" fill="none" xmlns="http://www.w3.org/2000/svg">
<g clip-path="url(#clip0_6013_51611)">
<path d="M39.39 17.611L38.66 18.341L34.73 22.271L22 35.001H39V24.571C39.9463 25.4604 40.7006 26.534 41.2165 27.7258C41.7324 28.9176 41.9991 30.2023 42 31.501V42.001C42 42.7966 42.3161 43.5597 42.8787 44.1223C43.4413 44.6849 44.2043 45.001 45 45.001C45.7957 45.001 46.5587 44.6849 47.1213 44.1223C47.6839 43.5597 48 42.7966 48 42.001V31.501C47.9987 28.6141 47.1923 25.7847 45.6713 23.331C44.1502 20.8772 41.975 18.8963 39.39 17.611ZM21 30.341L29.34 22.001L29.37 21.971L31.97 19.371L35.11 16.231C34.2484 16.0783 33.375 16.0014 32.5 16.001H3C2.20435 16.001 1.44129 16.317 0.87868 16.8797C0.31607 17.4423 0 18.2053 0 19.001C0 19.7966 0.31607 20.5597 0.87868 21.1223C1.44129 21.6849 2.20435 22.001 3 22.001H21V30.341Z" fill="black"/>
<path d="M21 39.001H39V48.001H21V39.001Z" fill="black"/>
<path d="M29.5002 13.981C30.4795 13.9806 31.446 13.7589 32.3277 13.3327C33.2093 12.9064 33.9833 12.2866 34.5919 11.5194C35.2005 10.7521 35.6279 9.85738 35.8424 8.90186C36.0568 7.94633 36.0526 6.95472 35.8302 6.00103H23.1602C22.9376 6.95554 22.9336 7.94803 23.1486 8.9043C23.3635 9.86056 23.7919 10.7559 24.4016 11.5233C25.0113 12.2907 25.7866 12.9104 26.6695 13.336C27.5524 13.7616 28.5201 13.9821 29.5002 13.981ZM24.4442 4.00103H34.5562C34.9315 4.00826 35.2944 3.86627 35.5651 3.60623C35.8358 3.34618 35.9923 2.98934 36.0002 2.61403V1.38903C35.9956 1.18959 35.9492 0.993334 35.864 0.812979C35.7787 0.632624 35.6565 0.472196 35.5053 0.342089C35.3541 0.211983 35.1772 0.115103 34.9861 0.0577269C34.7951 0.000351001 34.5941 -0.0162403 34.3962 0.00902832L24.2852 1.08903C23.9386 1.11982 23.6156 1.27768 23.3784 1.53225C23.1412 1.78683 23.0065 2.12012 23.0002 2.46803V2.61403C23.0081 2.98934 23.1645 3.34618 23.4353 3.60623C23.706 3.86627 24.0689 4.00826 24.4442 4.00103Z" fill="black"/>
</g>
<defs>
<clipPath id="clip0_6013_51611">
<rect width="48" height="48" fill="white" transform="translate(0 0.000976562)"/>
</clipPath>
</defs>
</svg>
