<svg width="48" height="38" viewBox="0 0 48 38" fill="none" xmlns="http://www.w3.org/2000/svg">
<g clip-path="url(#clip0_6013_51606)">
<path d="M47 14.001H22.364C21.6847 16.0839 20.4901 17.9614 18.891 19.459L29 26.199L43.168 16.753C43.499 16.5375 43.9017 16.4613 44.2885 16.5409C44.6754 16.6205 45.0153 16.8494 45.2344 17.1781C45.4534 17.5067 45.5341 17.9085 45.4587 18.2962C45.3834 18.6839 45.1582 19.0263 44.832 19.249L29 29.804L16.32 21.351C14.3898 22.434 12.2133 23.0023 10 23.001V37.001C10 37.2662 10.1054 37.5205 10.2929 37.7081C10.4804 37.8956 10.7348 38.001 11 38.001H47C47.2652 38.001 47.5196 37.8956 47.7071 37.7081C47.8946 37.5205 48 37.2662 48 37.001V15.001C48 14.7358 47.8946 14.4814 47.7071 14.2939C47.5196 14.1063 47.2652 14.001 47 14.001ZM20.06 30.061L16.06 34.061C15.7757 34.3259 15.3996 34.4702 15.011 34.4633C14.6224 34.4565 14.2516 34.299 13.9768 34.0242C13.7019 33.7494 13.5445 33.3786 13.5377 32.99C13.5308 32.6014 13.675 32.2253 13.94 31.941L17.94 27.941C18.2244 27.676 18.6004 27.5318 18.989 27.5386C19.3776 27.5455 19.7484 27.7029 20.0232 27.9777C20.2981 28.2526 20.4555 28.6233 20.4624 29.0119C20.4692 29.4005 20.325 29.7766 20.06 30.061ZM44.06 34.061C43.7788 34.3419 43.3975 34.4997 43 34.4997C42.6025 34.4997 42.2213 34.3419 41.94 34.061L37.94 30.061C37.675 29.7766 37.5308 29.4005 37.5377 29.0119C37.5445 28.6233 37.7019 28.2526 37.9768 27.9777C38.2516 27.7029 38.6224 27.5455 39.011 27.5386C39.3996 27.5318 39.7757 27.676 40.06 27.941L44.06 31.941C44.3409 32.2222 44.4987 32.6035 44.4987 33.001C44.4987 33.3985 44.3409 33.7797 44.06 34.061ZM10 0.000976563C8.02219 0.000976563 6.08879 0.587466 4.4443 1.68628C2.79981 2.78509 1.51809 4.34688 0.761209 6.17414C0.00433284 8.0014 -0.193701 10.0121 0.192152 11.9519C0.578004 13.8917 1.53041 15.6735 2.92894 17.072C4.32746 18.4706 6.10929 19.423 8.0491 19.8088C9.98891 20.1947 11.9996 19.9966 13.8268 19.2398C15.6541 18.4829 17.2159 17.2012 18.3147 15.5567C19.4135 13.9122 20 11.9788 20 10.001C19.9989 7.34914 18.945 4.80621 17.0699 2.93108C15.1948 1.05595 12.6518 0.00203666 10 0.000976563ZM15.65 7.76098L8.65 13.761C8.46886 13.9159 8.23835 14.001 8 14.001C7.73462 14.0004 7.47993 13.8963 7.29 13.711L4.29 10.711C4.19677 10.6177 4.12281 10.507 4.07234 10.3852C4.02188 10.2634 3.99591 10.1328 3.99591 10.001C3.99591 9.73467 4.1017 9.47928 4.29 9.29098C4.47831 9.10267 4.7337 8.99689 5 8.99689C5.26631 8.99689 5.5217 9.10267 5.71 9.29098L8.05 11.641L14.35 6.24098C14.5516 6.06859 14.8134 5.98333 15.0778 6.00396C15.2087 6.01417 15.3364 6.05007 15.4534 6.10962C15.5705 6.16916 15.6746 6.25117 15.76 6.35098C15.8454 6.45078 15.9102 6.56642 15.9509 6.69129C15.9916 6.81617 16.0072 6.94783 15.997 7.07876C15.9868 7.20969 15.9509 7.33733 15.8914 7.45438C15.8318 7.57144 15.7498 7.67562 15.65 7.76098Z" fill="black"/>
</g>
<defs>
<clipPath id="clip0_6013_51606">
<rect width="48" height="38" fill="white" transform="translate(0 0.000976562)"/>
</clipPath>
</defs>
</svg>
