<svg width="48" height="48" viewBox="0 0 48 48" fill="none" xmlns="http://www.w3.org/2000/svg">
<g clip-path="url(#clip0_6013_51626)">
<path d="M26.5 31.001C25.7 31.001 25 30.301 25 29.501V22.001H23V29.501C23 30.301 22.3 31.001 21.5 31.001C20.7 31.001 20 30.301 20 29.501V14.301C18.9 15.101 18.2 16.301 18 17.701C17.9 18.501 17.1 19.101 16.3 19.001C15.5 18.901 14.9 18.101 15 17.301C15.7 13.001 19.6 9.80098 24 10.001C28.4 9.80098 32.2 12.901 33 17.301C33.1 18.101 32.5 18.901 31.7 19.001H31.5C30.8 19.001 30.1 18.401 30 17.701C29.8 16.301 29.1 15.101 28 14.301V29.501C28 30.301 27.3 31.001 26.5 31.001ZM24 8.00098C26.2 8.00098 28 6.20098 28 4.00098C28 1.80098 26.2 0.000976562 24 0.000976562C21.8 0.000976562 20 1.80098 20 4.00098C20 6.20098 21.8 8.00098 24 8.00098ZM11.6 25.601C10.8 24.801 9.5 24.801 8.7 25.601C7.9 26.401 7.9 27.801 8.7 28.601L12.5 32.201C13 32.701 13 33.501 12.5 33.901C12 34.401 11.3 34.401 10.8 33.901L6 29.001V13.001C6 11.301 4.7 10.001 3 10.001C1.3 10.001 0 11.301 0 13.001V30.401C0 31.201 0.3 32.001 0.9 32.501L12 44.001V48.001H21V38.001C21.1 36.201 20.4 34.401 19.2 33.101L11.6 25.601ZM45 10.001C43.3 10.001 42 11.301 42 13.001V29.001L37.3 34.001C36.8 34.501 36.1 34.501 35.6 34.001C35.1 33.501 35.1 32.701 35.6 32.301L39.4 28.701C40.2 27.901 40.2 26.501 39.4 25.701C38.6 24.901 37.3 24.901 36.5 25.701L28.9 33.201C27.6 34.501 27 36.201 27.1 38.101V48.101H36.1V44.101L47.2 32.601C47.8 32.001 48.1 31.301 48.1 30.501V13.001C48 11.301 46.7 10.001 45 10.001Z" fill="black"/>
</g>
<defs>
<clipPath id="clip0_6013_51626">
<rect width="48" height="48" fill="white" transform="translate(0 0.000976562)"/>
</clipPath>
</defs>
</svg>
