<svg width="48" height="48" viewBox="0 0 48 48" fill="none" xmlns="http://www.w3.org/2000/svg">
<g clip-path="url(#clip0_6013_51616)">
<path d="M48 23.001V20.001C48 19.4705 47.7893 18.9618 47.4142 18.5868C47.0391 18.2117 46.5304 18.001 46 18.001C45.4696 18.001 44.9609 18.2117 44.5858 18.5868C44.2107 18.9618 44 19.4705 44 20.001V23.001C44 23.5314 43.7893 24.0401 43.4142 24.4152C43.0391 24.7903 42.5304 25.001 42 25.001V11.001C42 10.4705 41.7893 9.96184 41.4142 9.58676C41.0391 9.21169 40.5304 9.00098 40 9.00098V0.500977C40 0.368368 39.9473 0.241191 39.8536 0.147423C39.7598 0.053655 39.6326 0.000976563 39.5 0.000976562L37 0.000976563C36.7348 0.000976563 36.4804 0.106333 36.2929 0.29387C36.1054 0.481406 36 0.73576 36 1.00098C36 1.26619 36.1054 1.52055 36.2929 1.70808C36.4804 1.89562 36.7348 2.00098 37 2.00098V9.27798C36.6966 9.45197 36.4444 9.70285 36.2689 10.0053C36.0933 10.3078 36.0006 10.6512 36 11.001V17.001H35C34.4696 17.001 33.9609 17.2117 33.5858 17.5868C33.2107 17.9618 33 18.4705 33 19.001V34.001C33 34.5314 33.2107 35.0401 33.5858 35.4152C33.9609 35.7903 34.4696 36.001 35 36.001H36V46.001C36 46.5314 36.2107 47.0401 36.5858 47.4152C36.9609 47.7903 37.4696 48.001 38 48.001H42.438C42.7419 48.0009 43.0418 47.9316 43.3149 47.7983C43.588 47.665 43.8272 47.4713 44.0142 47.2317C44.2012 46.9922 44.3312 46.7131 44.3942 46.4159C44.4572 46.1186 44.4517 45.8108 44.378 45.516L42.06 36.24C42.0452 36.161 42.0352 36.0812 42.03 36.001H46C46.5304 36.001 47.0391 35.7903 47.4142 35.4152C47.7893 35.0401 48 34.5314 48 34.001C48 33.4705 47.7893 32.9618 47.4142 32.5868C47.0391 32.2117 46.5304 32.001 46 32.001H42V29.001C43.5907 28.9991 45.1158 28.3664 46.2406 27.2416C47.3654 26.1168 47.9981 24.5917 48 23.001ZM13 13.001C5.589 13.001 0 18.161 0 25.001C0 25.5314 0.210714 26.0401 0.585786 26.4152C0.960859 26.7903 1.46957 27.001 2 27.001C2.53043 27.001 3.03914 26.7903 3.41421 26.4152C3.78929 26.0401 4 25.5314 4 25.001C4.00179 23.6242 4.37413 22.2733 5.07794 21.09C5.78174 19.9068 6.79107 18.9347 8 18.276V46.023C8.00053 46.5474 8.2091 47.0502 8.57993 47.421C8.95076 47.7919 9.45356 48.0004 9.978 48.001H10.022C10.5464 48.0004 11.0492 47.7919 11.4201 47.421C11.7909 47.0502 11.9995 46.5474 12 46.023V32.001H14V46.023C14.0005 46.5474 14.2091 47.0502 14.5799 47.421C14.9508 47.7919 15.4536 48.0004 15.978 48.001H16.022C16.5464 48.0004 17.0492 47.7919 17.4201 47.421C17.7909 47.0502 17.9995 46.5474 18 46.023V18.276C19.2089 18.9347 20.2183 19.9068 20.9221 21.09C21.6259 22.2733 21.9982 23.6242 22 25.001C22 25.5314 22.2107 26.0401 22.5858 26.4152C22.9609 26.7903 23.4696 27.001 24 27.001C24.5304 27.001 25.0391 26.7903 25.4142 26.4152C25.7893 26.0401 26 25.5314 26 25.001C26 18.16 20.411 13.001 13 13.001Z" fill="black"/>
<path d="M13 11.001C15.7614 11.001 18 8.7624 18 6.00098C18 3.23955 15.7614 1.00098 13 1.00098C10.2386 1.00098 8 3.23955 8 6.00098C8 8.7624 10.2386 11.001 13 11.001Z" fill="black"/>
</g>
<defs>
<clipPath id="clip0_6013_51616">
<rect width="48" height="48" fill="white" transform="translate(0 0.000976562)"/>
</clipPath>
</defs>
</svg>
