<svg width="48" height="37" viewBox="0 0 48 37" fill="none" xmlns="http://www.w3.org/2000/svg">
<g clip-path="url(#clip0_6013_51620)">
<path d="M9.996 10.0181C4.298 10.0181 0 14.0721 0 19.5011C0 19.8989 0.158035 20.2804 0.43934 20.5617C0.720644 20.843 1.10218 21.0011 1.5 21.0011C1.89782 21.0011 2.27936 20.843 2.56066 20.5617C2.84196 20.2804 3 19.8989 3 19.5011C2.99123 18.4215 3.26314 17.3583 3.78905 16.4155C4.31497 15.4727 5.07685 14.6827 6 14.1231V35.5011C6 35.8989 6.15804 36.2804 6.43934 36.5617C6.72064 36.843 7.10218 37.0011 7.5 37.0011C7.89782 37.0011 8.27936 36.843 8.56066 36.5617C8.84196 36.2804 9 35.8989 9 35.5011V25.0011H11V35.5011C11 35.8989 11.158 36.2804 11.4393 36.5617C11.7206 36.843 12.1022 37.0011 12.5 37.0011C12.8978 37.0011 13.2794 36.843 13.5607 36.5617C13.842 36.2804 14 35.8989 14 35.5011V14.1271C14.9211 14.6874 15.681 15.4771 16.2054 16.4191C16.7299 17.361 17.0009 18.423 16.992 19.5011C16.992 19.8989 17.15 20.2804 17.4313 20.5617C17.7126 20.843 18.0942 21.0011 18.492 21.0011C18.8898 21.0011 19.2714 20.843 19.5527 20.5617C19.834 20.2804 19.992 19.8989 19.992 19.5011C19.992 14.0721 15.694 10.0181 9.996 10.0181Z" fill="black"/>
<path d="M9.99902 8.00098C12.2082 8.00098 13.999 6.21012 13.999 4.00098C13.999 1.79184 12.2082 0.000976562 9.99902 0.000976562C7.78988 0.000976562 5.99902 1.79184 5.99902 4.00098C5.99902 6.21012 7.78988 8.00098 9.99902 8.00098Z" fill="black"/>
<path d="M38.0028 10.0181C32.3048 10.0181 28.0068 14.0721 28.0068 19.5011C28.0068 19.8989 28.1649 20.2804 28.4462 20.5617C28.7275 20.843 29.109 21.0011 29.5068 21.0011C29.9047 21.0011 30.2862 20.843 30.5675 20.5617C30.8488 20.2804 31.0068 19.8989 31.0068 19.5011C30.9997 18.3359 31.318 17.1919 31.9257 16.1978C32.5335 15.2037 33.4066 14.3989 34.4468 13.8741L32.1398 25.8771C32.1223 26.0177 32.1348 26.1605 32.1766 26.296C32.2184 26.4315 32.2885 26.5565 32.3824 26.6628C32.4762 26.7691 32.5915 26.8542 32.7207 26.9125C32.8499 26.9708 32.9901 27.001 33.1318 27.0011H33.9998V35.5011C33.9998 35.8989 34.1579 36.2804 34.4392 36.5617C34.7205 36.843 35.102 37.0011 35.4998 37.0011C35.8977 37.0011 36.2792 36.843 36.5605 36.5617C36.8418 36.2804 36.9998 35.8989 36.9998 35.5011V27.0011H38.9998V35.5011C38.9998 35.8989 39.1579 36.2804 39.4392 36.5617C39.7205 36.843 40.102 37.0011 40.4998 37.0011C40.8977 37.0011 41.2792 36.843 41.5605 36.5617C41.8418 36.2804 41.9998 35.8989 41.9998 35.5011V27.0011H42.8668C43.0087 27.0012 43.1489 26.9711 43.2783 26.9128C43.4076 26.8546 43.5231 26.7695 43.617 26.6632C43.7109 26.5568 43.7811 26.4318 43.823 26.2962C43.8649 26.1607 43.8774 26.0178 43.8598 25.8771L41.5498 13.8691C42.5923 14.3932 43.4676 15.1983 44.0769 16.1934C44.6861 17.1886 45.0051 18.3342 44.9978 19.5011C44.9978 19.8989 45.1559 20.2804 45.4372 20.5617C45.7185 20.843 46.1 21.0011 46.4978 21.0011C46.8957 21.0011 47.2772 20.843 47.5585 20.5617C47.8398 20.2804 47.9978 19.8989 47.9978 19.5011C47.9978 14.0721 43.7008 10.0181 38.0028 10.0181Z" fill="black"/>
<path d="M37.999 8.00098C40.2082 8.00098 41.999 6.21012 41.999 4.00098C41.999 1.79184 40.2082 0.000976562 37.999 0.000976562C35.7899 0.000976562 33.999 1.79184 33.999 4.00098C33.999 6.21012 35.7899 8.00098 37.999 8.00098Z" fill="black"/>
</g>
<defs>
<clipPath id="clip0_6013_51620">
<rect width="47.999" height="37" fill="white" transform="translate(0 0.000976562)"/>
</clipPath>
</defs>
</svg>
