<svg width="48" height="41" viewBox="0 0 48 41" fill="none" xmlns="http://www.w3.org/2000/svg">
<g clip-path="url(#clip0_6013_51608)">
<path d="M39 22.001V22.027C38.832 22.017 38.665 22.001 38.495 22.001C38.384 22.001 38.275 22.014 38.165 22.018C38.11 22.013 38.057 22.001 38 22.001H25.5C24.5718 22.001 23.6815 22.3697 23.0252 23.0261C22.3688 23.6825 22 24.5727 22 25.501C22 26.4292 22.3688 27.3195 23.0252 27.9759C23.6815 28.6322 24.5718 29.001 25.5 29.001H31C31.5305 29.001 32.0392 29.2117 32.4142 29.5868C32.7893 29.9618 33 30.4705 33 31.001C33 31.5314 32.7893 32.0401 32.4142 32.4152C32.0392 32.7903 31.5305 33.001 31 33.001H22C21.4115 32.9953 20.8438 32.7821 20.397 32.399L6.80704 19.175C6.41124 18.7796 5.93708 18.4714 5.41504 18.2702C4.893 18.069 4.33464 17.9793 3.77586 18.0068C3.21707 18.0343 2.67022 18.1784 2.17046 18.4299C1.6707 18.6813 1.2291 19.0346 0.874036 19.467C0.249334 20.2699 -0.0566003 21.2755 0.0150177 22.2903C0.0866357 23.3051 0.530753 24.2577 1.26204 24.965L16.489 39.827C16.8608 40.1994 17.3024 40.4948 17.7886 40.6963C18.2747 40.8977 18.7958 41.0013 19.322 41.001H37.992C38.072 41.001 38.147 40.982 38.226 40.977C38.316 40.98 38.404 40.991 38.495 40.991C38.665 40.991 38.832 40.974 39 40.965V41.001C41.387 41.001 43.6762 40.0528 45.364 38.3649C47.0518 36.6771 48 34.3879 48 32.001V31.001C48 28.614 47.0518 26.3248 45.364 24.637C43.6762 22.9492 41.387 22.001 39 22.001ZM6.49704 13.001C6.5197 12.9996 6.54237 12.9986 6.56504 12.998C6.5757 12.9986 6.58704 12.9996 6.59904 13.001H15.506C15.8336 13.001 16.1579 12.9365 16.4604 12.8111C16.763 12.6858 17.038 12.5021 17.2696 12.2705C17.5011 12.0389 17.6849 11.764 17.8102 11.4614C17.9355 11.1588 18 10.8345 18 10.507C18 10.1795 17.9355 9.85515 17.8102 9.55256C17.6849 9.24998 17.5011 8.97504 17.2696 8.74345C17.038 8.51186 16.763 8.32816 16.4604 8.20282C16.1579 8.07749 15.8336 8.01298 15.506 8.01298H12.81L12.812 8.00098H11.5C11.1022 8.00098 10.7207 7.84294 10.4394 7.56164C10.1581 7.28033 10 6.8988 10 6.50098C10 6.10315 10.1581 5.72162 10.4394 5.44032C10.7207 5.15901 11.1022 5.00098 11.5 5.00098H17.885C18.2945 5.00398 18.6895 5.15209 19 5.41898L28.265 15.185C28.5405 15.4599 28.8704 15.6741 29.2335 15.8139C29.5967 15.9538 29.985 16.0161 30.3737 15.9969C30.7624 15.9776 31.1427 15.8773 31.4903 15.7024C31.8379 15.5274 32.1451 15.2817 32.392 14.981C32.8263 14.4224 33.0389 13.7231 32.9891 13.0173C32.9393 12.3115 32.6305 11.649 32.122 11.157L21.53 0.816977C21.0062 0.295309 20.2973 0.00197777 19.558 0.000976562L6.57104 0.000976563C6.54704 0.000976563 6.52404 0.00797656 6.50104 0.00797656H6.49704C5.63712 -0.00269245 4.78364 0.157463 3.9861 0.479157C3.18855 0.80085 2.46281 1.27768 1.85095 1.88199C1.23909 2.48631 0.753292 3.20608 0.421729 3.99958C0.0901655 4.79307 -0.0805664 5.6445 -0.0805664 6.50448C-0.0805664 7.36446 0.0901655 8.21588 0.421729 9.00938C0.753292 9.80287 1.23909 10.5226 1.85095 11.127C2.46281 11.7313 3.18855 12.2081 3.9861 12.5298C4.78364 12.8515 5.63712 13.0116 6.49704 13.001Z" fill="black"/>
</g>
<defs>
<clipPath id="clip0_6013_51608">
<rect width="48" height="41" fill="white" transform="translate(0 0.000976562)"/>
</clipPath>
</defs>
</svg>
