<svg width="48" height="48" viewBox="0 0 48 48" fill="none" xmlns="http://www.w3.org/2000/svg">
<g clip-path="url(#clip0_6013_51636)">
<path d="M30.999 19.415C30.999 19.1498 30.8936 18.8955 30.706 18.708L25.999 14.001V9.00098H28.999C29.5295 9.00098 30.0382 8.79026 30.4132 8.41519C30.7883 8.04012 30.999 7.53141 30.999 7.00098C30.999 6.47054 30.7883 5.96184 30.4132 5.58676C30.0382 5.21169 29.5295 5.00098 28.999 5.00098H25.999V2.00098C25.999 1.47054 25.7883 0.961836 25.4132 0.586763C25.0382 0.21169 24.5295 0.000976563 23.999 0.000976562C23.4686 0.000976563 22.9599 0.21169 22.5848 0.586763C22.2097 0.961836 21.999 1.47054 21.999 2.00098V5.00098H18.999C18.4686 5.00098 17.9599 5.21169 17.5848 5.58676C17.2097 5.96184 16.999 6.47054 16.999 7.00098C16.999 7.53141 17.2097 8.04012 17.5848 8.41519C17.9599 8.79026 18.4686 9.00098 18.999 9.00098H21.999V14.001L17.292 18.708C17.1045 18.8955 16.9991 19.1498 16.999 19.415V38.001H30.999V19.415ZM41.999 29.651C41.999 29.4575 41.9429 29.2682 41.8375 29.1059C41.7321 28.9437 41.5818 28.8155 41.405 28.737L32.999 25.001V38.001H41.999V29.651ZM14.999 25.001L6.59302 28.737C6.4162 28.8155 6.26597 28.9437 6.16054 29.1059C6.0551 29.2682 5.999 29.4575 5.99902 29.651V38.001H14.999V25.001ZM46.499 45.001H1.49902C1.1012 45.001 0.719668 45.159 0.438363 45.4403C0.157059 45.7216 -0.000976562 46.1032 -0.000976562 46.501C-0.000976562 46.8988 0.157059 47.2803 0.438363 47.5616C0.719668 47.8429 1.1012 48.001 1.49902 48.001H46.499C46.8968 48.001 47.2784 47.8429 47.5597 47.5616C47.841 47.2803 47.999 46.8988 47.999 46.501C47.999 46.1032 47.841 45.7216 47.5597 45.4403C47.2784 45.159 46.8968 45.001 46.499 45.001ZM5.49902 43.001H42.499C42.8968 43.001 43.2784 42.8429 43.5597 42.5616C43.841 42.2803 43.999 41.8988 43.999 41.501C43.999 41.1032 43.841 40.7216 43.5597 40.4403C43.2784 40.159 42.8968 40.001 42.499 40.001H5.49902C5.1012 40.001 4.71967 40.159 4.43836 40.4403C4.15706 40.7216 3.99902 41.1032 3.99902 41.501C3.99902 41.8988 4.15706 42.2803 4.43836 42.5616C4.71967 42.8429 5.1012 43.001 5.49902 43.001Z" fill="black"/>
</g>
<defs>
<clipPath id="clip0_6013_51636">
<rect width="48" height="48" fill="white" transform="translate(-0.000976562 0.000976562)"/>
</clipPath>
</defs>
</svg>
