<svg width="48" height="48" viewBox="0 0 48 48" fill="none" xmlns="http://www.w3.org/2000/svg">
<g clip-path="url(#clip0_6013_51628)">
<path d="M7.04508 6.52096C7.04508 7.10928 7.16105 7.69184 7.38638 8.23538C7.61171 8.77892 7.94198 9.27279 8.35833 9.6888C8.77469 10.1048 9.26897 10.4348 9.81296 10.6599C10.357 10.8851 10.94 11.001 11.5288 11.001C12.1176 11.001 12.7007 10.8851 13.2447 10.6599C13.7887 10.4348 14.2829 10.1048 14.6993 9.6888C15.1156 9.27279 15.4459 8.77892 15.6712 8.23538C15.8966 7.69184 16.0126 7.10928 16.0126 6.52096C16.0172 6.00196 15.9256 5.48659 15.7423 5.00096H7.3153C7.132 5.48659 7.04038 6.00196 7.04508 6.52096ZM18.0342 15.101L16.8833 16.251L15.5622 17.571L7.14516 25.981H17.0134V18.651C17.8159 19.404 18.4555 20.3134 18.8927 21.323C19.3299 22.3326 19.5554 23.4209 19.5554 24.521C19.5554 25.621 19.3299 26.7094 18.8927 27.7189C18.4555 28.7285 17.8159 29.6379 17.0134 30.391V28.981H6.00421V30.431C5.18991 29.6765 4.5403 28.7621 4.09606 27.7452C3.65182 26.7282 3.42252 25.6306 3.42252 24.521C3.42252 23.4114 3.65182 22.3137 4.09606 21.2967C4.5403 20.2798 5.18991 19.3654 6.00421 18.611V22.881L12.3795 16.511L13.8507 15.041L15.2219 13.671C14.0218 13.2529 12.7597 13.0399 11.4888 13.041C8.9343 13.0397 6.45231 13.8894 4.43538 15.4557C2.41846 17.022 0.981735 19.2155 0.352461 21.6892C-0.276814 24.1629 -0.0627194 26.7756 0.960882 29.1141C1.98448 31.4526 3.75916 33.3833 6.00421 34.601L6.02623 34.612C6.04937 34.7217 6.10949 34.8202 6.19656 34.891C6.28363 34.9618 6.39237 35.0006 6.50463 35.001H16.513C16.6291 35.0006 16.7412 34.9591 16.8296 34.8838C16.9179 34.8086 16.9767 34.7044 16.9954 34.59L17.0134 34.581C18.7301 33.6429 20.178 32.2816 21.2196 30.6266C22.2611 28.9716 22.8616 27.0779 22.9639 25.1256C23.0662 23.1732 22.667 21.2272 21.8041 19.4726C20.9413 17.7179 19.6435 16.213 18.0342 15.101ZM30.985 34.541C31.0024 34.5503 31.0201 34.559 31.0381 34.567C31.0527 34.6861 31.1102 34.7959 31.1999 34.8758C31.2896 34.9556 31.4053 35.0001 31.5255 35.001H41.5338C41.6586 35.0003 41.7786 34.9527 41.8698 34.8676C41.9611 34.7826 42.0169 34.6663 42.0262 34.542C44.2629 33.3174 46.0281 31.3839 47.0435 29.0462C48.0589 26.7085 48.2668 24.0997 47.6344 21.6309C47.0019 19.1622 45.5651 16.974 43.5505 15.4112C41.5359 13.8485 39.058 13.0001 36.5076 12.9999C33.9571 12.9997 31.4791 13.8476 29.4642 15.4099C27.4493 16.9723 26.0121 19.1603 25.3792 21.6289C24.7464 24.0975 24.9537 26.7064 25.9687 29.0443C26.9837 31.3821 28.7486 33.316 30.985 34.541ZM42.0342 30.35V18.611C42.8368 19.3638 43.4765 20.273 43.9137 21.2824C44.351 22.2918 44.5766 23.38 44.5766 24.48C44.5766 25.5799 44.351 26.6681 43.9137 27.6775C43.4765 28.687 42.8368 29.5961 42.0342 30.349M30.985 18.611L31.0251 18.577V30.385L30.985 30.351C30.1825 29.5979 29.5429 28.6885 29.1057 27.6789C28.6685 26.6694 28.443 25.581 28.443 24.481C28.443 23.3809 28.6685 22.2926 29.1057 21.283C29.5429 20.2734 30.1825 19.364 30.985 18.611ZM8.00588 3.00096H15.0117C15.2822 2.99492 15.5393 2.88214 15.7269 2.68726C15.9144 2.49239 16.0171 2.23126 16.0126 1.96096V1.04596C16.0159 0.902415 15.9889 0.759777 15.9334 0.627374C15.8778 0.494971 15.7948 0.375786 15.69 0.277616C15.5851 0.179446 15.4607 0.104503 15.3248 0.0576901C15.189 0.0108768 15.0448 -0.00675208 14.9016 0.00595664L7.89579 0.816957C7.6456 0.851207 7.41669 0.976024 7.2525 1.16773C7.08831 1.35943 7.00025 1.60468 7.00504 1.85696V1.96096C7.00048 2.23126 7.10319 2.49239 7.29072 2.68726C7.47826 2.88214 7.73537 2.99492 8.00588 3.00096Z" fill="black"/>
<path d="M36.5301 11.001C39.0175 11.001 41.0339 8.98626 41.0339 6.50098C41.0339 4.0157 39.0175 2.00098 36.5301 2.00098C34.0428 2.00098 32.0264 4.0157 32.0264 6.50098C32.0264 8.98626 34.0428 11.001 36.5301 11.001Z" fill="black"/>
<path d="M17.5911 37.444C17.3072 37.1609 16.9223 37.0021 16.5212 37.0024C16.1201 37.0028 15.7356 37.1624 15.4523 37.446C15.1689 37.7297 15.0099 38.1142 15.0103 38.5149C15.0107 38.9157 15.1704 39.2999 15.4543 39.583L16.8715 41.001H1.54568C1.14753 41.001 0.765679 41.1591 0.48414 41.4404C0.202601 41.7217 0.0444336 42.1032 0.0444336 42.501C0.0444336 42.8989 0.202601 43.2804 0.48414 43.5617C0.765679 43.843 1.14753 44.001 1.54568 44.001H16.8715L15.4543 45.419C15.3137 45.5592 15.2022 45.7257 15.126 45.909C15.0498 46.0922 15.0105 46.2887 15.0103 46.4871C15.0101 46.6856 15.0491 46.8821 15.1249 47.0655C15.2007 47.2489 15.312 47.4156 15.4523 47.556C15.5926 47.6965 15.7592 47.8079 15.9426 47.8841C16.126 47.9602 16.3226 47.9994 16.5212 47.9996C16.7199 47.9998 16.9165 47.9609 17.1001 47.8851C17.2837 47.8094 17.4505 47.6982 17.5911 47.558L21.5744 43.57C21.8576 43.2862 22.0166 42.9018 22.0166 42.501C22.0166 42.1003 21.8576 41.7158 21.5744 41.432L17.5911 37.444ZM46.4931 41.001H31.1674L32.5845 39.583C32.8684 39.2999 33.0281 38.9157 33.0285 38.5149C33.0289 38.1142 32.8699 37.7297 32.5866 37.446C32.3032 37.1624 31.9187 37.0028 31.5176 37.0024C31.1165 37.0021 30.7317 37.1609 30.4478 37.444L26.4645 41.432C26.1812 41.7158 26.0222 42.1003 26.0222 42.501C26.0222 42.9018 26.1812 43.2862 26.4645 43.57L30.4478 47.558C30.5883 47.6982 30.7552 47.8094 30.9387 47.8851C31.1223 47.9609 31.319 47.9998 31.5176 47.9996C31.7162 47.9994 31.9128 47.9602 32.0962 47.8841C32.2796 47.8079 32.4463 47.6965 32.5866 47.556C32.7269 47.4156 32.8381 47.2489 32.9139 47.0655C32.9898 46.8821 33.0287 46.6856 33.0285 46.4871C33.0283 46.2887 32.989 46.0922 32.9128 45.909C32.8367 45.7257 32.7251 45.5592 32.5845 45.419L31.1674 44.001H46.4931C46.8913 44.001 47.2731 43.843 47.5547 43.5617C47.8362 43.2804 47.9944 42.8989 47.9944 42.501C47.9944 42.1032 47.8362 41.7217 47.5547 41.4404C47.2731 41.1591 46.8913 41.001 46.4931 41.001Z" fill="black"/>
</g>
<defs>
<clipPath id="clip0_6013_51628">
<rect width="48" height="48" fill="white" transform="translate(-0.000976562 0.000976562)"/>
</clipPath>
</defs>
</svg>
