<svg width="48" height="48" viewBox="0 0 48 48" fill="none" xmlns="http://www.w3.org/2000/svg">
<g clip-path="url(#clip0_6013_51633)">
<path d="M44.999 6.00098H2.99902C2.2041 6.00256 1.44242 6.21378 0.880326 6.58851C0.31823 6.96324 0.00139753 7.47103 -0.000976562 8.00098L-0.000976562 30.001H47.999V8.00098C47.9967 7.47103 47.6798 6.96324 47.1177 6.58851C46.5556 6.21378 45.7939 6.00256 44.999 6.00098ZM32.999 21.001H28.499V24.001C28.499 24.7966 28.0249 25.5597 27.181 26.1223C26.3371 26.6849 25.1925 27.001 23.999 27.001C22.8055 27.001 21.661 26.6849 20.817 26.1223C19.9731 25.5597 19.499 24.7966 19.499 24.001V21.001H14.999C13.8055 21.001 12.661 20.6849 11.817 20.1223C10.9731 19.5597 10.499 18.7966 10.499 18.001C10.499 17.2053 10.9731 16.4423 11.817 15.8797C12.661 15.317 13.8055 15.001 14.999 15.001H19.499V12.001C19.499 11.2053 19.9731 10.4423 20.817 9.87966C21.661 9.31705 22.8055 9.00098 23.999 9.00098C25.1925 9.00098 26.3371 9.31705 27.181 9.87966C28.0249 10.4423 28.499 11.2053 28.499 12.001V15.001H32.999C34.1925 15.001 35.3371 15.317 36.181 15.8797C37.0249 16.4423 37.499 17.2053 37.499 18.001C37.499 18.7966 37.0249 19.5597 36.181 20.1223C35.3371 20.6849 34.1925 21.001 32.999 21.001ZM8.99902 4.00098H38.999C39.7947 4.00098 40.5577 3.79026 41.1203 3.41519C41.683 3.04012 41.999 2.53141 41.999 2.00098C41.999 1.47054 41.683 0.961836 41.1203 0.586763C40.5577 0.21169 39.7947 0.000976563 38.999 0.000976562L8.99902 0.000976563C8.20337 0.000976563 7.44031 0.21169 6.8777 0.586763C6.31509 0.961836 5.99902 1.47054 5.99902 2.00098C5.99902 2.53141 6.31509 3.04012 6.8777 3.41519C7.44031 3.79026 8.20337 4.00098 8.99902 4.00098ZM-0.000976562 48.001H17.999V38.001C18.0014 37.471 18.3182 36.9632 18.8803 36.5885C19.4424 36.2138 20.2041 36.0026 20.999 36.001H26.999C27.7939 36.0026 28.5556 36.2138 29.1177 36.5885C29.6798 36.9632 29.9966 37.471 29.999 38.001V48.001H47.999V32.001H-0.000976562V48.001Z" fill="black"/>
</g>
<defs>
<clipPath id="clip0_6013_51633">
<rect width="48" height="48" fill="white" transform="translate(-0.000976562 0.000976562)"/>
</clipPath>
</defs>
</svg>
