<svg width="48" height="42" viewBox="0 0 48 42" fill="none" xmlns="http://www.w3.org/2000/svg">
<g clip-path="url(#clip0_6013_51639)">
<path d="M23.999 5.00098C25.3251 5.00098 26.5969 4.47419 27.5346 3.53651C28.4722 2.59883 28.999 1.32706 28.999 0.000976562H18.999C18.999 1.32706 19.5258 2.59883 20.4635 3.53651C21.4012 4.47419 22.6729 5.00098 23.999 5.00098Z" fill="black"/>
<path d="M47.6989 10.311L38.0089 1.00098L37.2589 0.280977C37.0678 0.105014 36.8187 0.00537337 36.5589 0.000976563L30.9989 0.000976563C30.9963 1.85668 30.2579 3.63562 28.9457 4.9478C27.6336 6.25998 25.8546 6.99833 23.9989 7.00098C22.1432 6.99833 20.3643 6.25998 19.0521 4.9478C17.7399 3.63562 17.0016 1.85668 16.9989 0.000976562L11.4389 0.000976563C11.1792 0.00537337 10.9301 0.105014 10.7389 0.280977L9.98892 1.00098L0.298922 10.311C0.203676 10.4041 0.127998 10.5153 0.0763299 10.6381C0.0246621 10.7609 -0.00195312 10.8928 -0.00195312 11.026C-0.00195312 11.1592 0.0246621 11.2911 0.0763299 11.4138C0.127998 11.5366 0.203676 11.6478 0.298922 11.741L6.40892 17.711C6.59585 17.8942 6.84717 17.9968 7.10892 17.9968C7.37068 17.9968 7.62199 17.8942 7.80892 17.711L11.9989 14.001V41.001C11.9997 41.2659 12.1053 41.5198 12.2927 41.7072C12.4801 41.8946 12.7339 42.0002 12.9989 42.001H34.9989C35.2639 42.0002 35.5178 41.8946 35.7052 41.7072C35.8925 41.5198 35.9981 41.2659 35.9989 41.001V14.001L40.1889 17.711C40.3759 17.8942 40.6272 17.9968 40.8889 17.9968C41.1507 17.9968 41.402 17.8942 41.5889 17.711L47.6989 11.741C47.7942 11.6478 47.8699 11.5366 47.9215 11.4138C47.9732 11.2911 47.9998 11.1592 47.9998 11.026C47.9998 10.8928 47.9732 10.7609 47.9215 10.6381C47.8699 10.5153 47.7942 10.4041 47.6989 10.311Z" fill="black"/>
</g>
<defs>
<clipPath id="clip0_6013_51639">
<rect width="48" height="42" fill="white" transform="translate(-0.000976562 0.000976562)"/>
</clipPath>
</defs>
</svg>
