<svg width="48" height="48" viewBox="0 0 48 48" fill="none" xmlns="http://www.w3.org/2000/svg">
<g clip-path="url(#clip0_6013_51643)">
<path d="M22.5875 6.50098C22.5875 4.77707 21.6207 3.12377 19.8997 1.90478C18.1788 0.685796 15.8448 0.000976563 13.411 0.000976562C10.9773 0.000976563 8.64318 0.685796 6.92226 1.90478C5.20133 3.12377 4.23453 4.77707 4.23453 6.50098V31.578C2.6141 32.6559 1.39743 34.0023 0.693977 35.4959C-0.0094754 36.9896 -0.177634 38.5837 0.204631 40.1349C0.586896 41.686 1.50759 43.1455 2.88388 44.382C4.26016 45.6185 6.04886 46.5933 8.08902 47.2186C10.1292 47.8438 12.3568 48.1 14.5715 47.9641C16.7861 47.8282 18.9183 47.3043 20.7762 46.4398C22.6341 45.5752 24.1594 44.3971 25.2149 43.0113C26.2704 41.6255 26.8229 40.0756 26.8228 38.501C26.826 37.2029 26.4515 35.9182 25.7229 34.7271C24.9942 33.536 23.9269 32.464 22.5875 31.578V6.50098ZM13.411 45.001C11.5098 45.002 9.65515 44.5844 8.10367 43.8061C6.55218 43.0277 5.38056 41.927 4.75091 40.6564C4.12126 39.3857 4.0647 38.0078 4.58907 36.7133C5.11344 35.4189 6.1928 34.2719 7.67783 33.431L8.46982 32.981V6.50098C8.46982 5.57272 8.99041 4.68248 9.91706 4.0261C10.8437 3.36973 12.1005 3.00098 13.411 3.00098C14.7215 3.00098 15.9783 3.36973 16.9049 4.0261C17.8316 4.68248 18.3522 5.57272 18.3522 6.50098V32.981L19.1442 33.431C20.6292 34.2719 21.7086 35.4189 22.2329 36.7133C22.7573 38.0078 22.7007 39.3857 22.0711 40.6564C21.4414 41.927 20.2698 43.0277 18.7183 43.8061C17.1669 44.5844 15.3122 45.002 13.411 45.001Z" fill="black"/>
<path d="M15.5284 34.798V25.501C15.5284 25.1032 15.3053 24.7216 14.9081 24.4403C14.511 24.159 13.9724 24.001 13.4107 24.001C12.8491 24.001 12.3105 24.159 11.9133 24.4403C11.5162 24.7216 11.2931 25.1032 11.2931 25.501V34.798C10.0782 35.1461 9.0721 35.7826 8.44715 36.5986C7.8222 37.4145 7.61733 38.359 7.86766 39.2701C8.11799 40.1813 8.80793 41.0025 9.81923 41.5928C10.8305 42.1832 12.1002 42.5061 13.4107 42.5061C14.7212 42.5061 15.9909 42.1832 17.0022 41.5928C18.0136 41.0025 18.7035 40.1813 18.9538 39.2701C19.2041 38.359 18.9993 37.4145 18.3743 36.5986C17.7494 35.7826 16.7433 35.1461 15.5284 34.798ZM45.8813 10.001H28.9402C28.3785 10.001 27.8399 10.159 27.4428 10.4403C27.0456 10.7216 26.8225 11.1032 26.8225 11.501C26.8225 11.8988 27.0456 12.2803 27.4428 12.5616C27.8399 12.8429 28.3785 13.001 28.9402 13.001H45.8813C46.443 13.001 46.9816 12.8429 47.3787 12.5616C47.7759 12.2803 47.999 11.8988 47.999 11.501C47.999 11.1032 47.7759 10.7216 47.3787 10.4403C46.9816 10.159 46.443 10.001 45.8813 10.001Z" fill="black"/>
</g>
<defs>
<clipPath id="clip0_6013_51643">
<rect width="48" height="48" fill="white" transform="translate(-0.000976562 0.000976562)"/>
</clipPath>
</defs>
</svg>
