<svg width="48" height="48" viewBox="0 0 48 48" fill="none" xmlns="http://www.w3.org/2000/svg">
<g clip-path="url(#clip0_6013_51650)">
<path d="M27.7645 14.6411C27.3562 15.0588 26.798 15.4019 26.1406 15.6394C25.4832 15.8769 24.7472 16.0013 23.9995 16.0013C23.2517 16.0013 22.5158 15.8769 21.8583 15.6394C21.2009 15.4019 20.6427 15.0588 20.2345 14.6411C19.0914 15.0811 18.1419 15.7136 17.4811 16.4753C16.8203 17.2371 16.4714 18.1012 16.4695 18.9811C16.4667 19.0479 16.4718 19.1148 16.4845 19.1811C17.365 19.3832 18.1289 19.7636 18.6695 20.2692C19.21 20.7748 19.5002 21.3803 19.4995 22.0011C19.4994 22.3033 19.4286 22.6036 19.2895 22.8911C20.6233 23.6087 22.2855 24 23.9995 24C25.7134 24 27.3757 23.6087 28.7095 22.8911C28.5703 22.6036 28.4995 22.3033 28.4995 22.0011C28.4988 21.3803 28.7889 20.7748 29.3295 20.2692C29.87 19.7636 30.6339 19.3832 31.5145 19.1811C31.5272 19.1148 31.5322 19.0479 31.5295 18.9811C31.5275 18.1012 31.1786 17.2371 30.5178 16.4753C29.8571 15.7136 28.9075 15.0811 27.7645 14.6411Z" fill="black"/>
<path d="M44.999 6.00098H2.99902C2.2041 6.00256 1.44242 6.21378 0.880326 6.58851C0.31823 6.96324 0.00139753 7.47103 -0.000976562 8.00098L-0.000976562 30.001H47.999V8.00098C47.9967 7.47103 47.6798 6.96324 47.1177 6.58851C46.5556 6.21378 45.7939 6.00256 44.999 6.00098ZM32.999 25.001C32.1019 25.0005 31.2251 24.823 30.479 24.491C28.6375 25.4686 26.3531 26.0009 23.999 26.0009C21.645 26.0009 19.3605 25.4686 17.519 24.491C16.8411 24.7944 16.0524 24.9693 15.237 24.9972C14.4216 25.025 13.6101 24.9047 12.8893 24.649C12.1685 24.3933 11.5654 24.0119 11.1444 23.5455C10.7234 23.0792 10.5003 22.5453 10.499 22.001C10.4983 21.3829 10.785 20.7799 11.3196 20.2749C11.8541 19.7698 12.6103 19.3877 13.484 19.181C13.4713 19.1147 13.4663 19.0478 13.469 18.981C13.4685 17.6466 14.04 16.3399 15.1163 15.2149C16.1926 14.0898 17.7289 13.1933 19.544 12.631C19.6767 11.9055 20.2031 11.2376 21.0238 10.7531C21.8445 10.2686 22.9028 10.0011 23.999 10.0011C25.0952 10.0011 26.1535 10.2686 26.9743 10.7531C27.795 11.2376 28.3213 11.9055 28.454 12.631C30.2692 13.1933 31.8054 14.0898 32.8817 15.2149C33.958 16.3399 34.5296 17.6466 34.529 18.981C34.5317 19.0478 34.5267 19.1147 34.514 19.181C35.5124 19.4182 36.353 19.8831 36.8872 20.4934C37.4215 21.1037 37.6151 21.8202 37.4339 22.5164C37.2526 23.2126 36.7082 23.8438 35.8967 24.2984C35.0853 24.753 34.059 25.0018 32.999 25.001ZM8.99902 4.00098H38.999C39.7947 4.00098 40.5577 3.79026 41.1203 3.41519C41.683 3.04012 41.999 2.53141 41.999 2.00098C41.999 1.47054 41.683 0.961836 41.1203 0.586763C40.5577 0.21169 39.7947 0.000976563 38.999 0.000976562L8.99902 0.000976563C8.20337 0.000976563 7.44031 0.21169 6.8777 0.586763C6.31509 0.961836 5.99902 1.47054 5.99902 2.00098C5.99902 2.53141 6.31509 3.04012 6.8777 3.41519C7.44031 3.79026 8.20337 4.00098 8.99902 4.00098ZM-0.000976562 48.001H17.999V38.001C18.0014 37.471 18.3182 36.9632 18.8803 36.5885C19.4424 36.2138 20.2041 36.0026 20.999 36.001H26.999C27.7939 36.0026 28.5556 36.2138 29.1177 36.5885C29.6798 36.9632 29.9966 37.471 29.999 38.001V48.001H47.999V32.001H-0.000976562V48.001Z" fill="black"/>
</g>
<defs>
<clipPath id="clip0_6013_51650">
<rect width="48" height="48" fill="white" transform="translate(-0.000976562 0.000976562)"/>
</clipPath>
</defs>
</svg>
