<svg width="48" height="44" viewBox="0 0 48 44" fill="none" xmlns="http://www.w3.org/2000/svg">
<g clip-path="url(#clip0_6013_51647)">
<path d="M-0.000976562 39.081V42.538C0.0014427 42.7326 0.0457139 42.9249 0.129302 43.1038C0.212891 43.2827 0.334155 43.4447 0.486152 43.5806C0.638149 43.7165 0.817894 43.8236 1.0151 43.8957C1.2123 43.9679 1.42308 44.0036 1.63539 44.001C1.84769 44.0036 2.05848 43.9679 2.25568 43.8957C2.45288 43.8236 2.63262 43.7165 2.78462 43.5806C2.93662 43.4447 3.05788 43.2827 3.14147 43.1038C3.22506 42.9249 3.26933 42.7326 3.27175 42.538V41.001H17.4536V42.538C17.4536 42.9358 17.626 43.3173 17.9328 43.5986C18.2397 43.8799 18.6559 44.038 19.0899 44.038C19.5239 44.038 19.9401 43.8799 20.247 43.5986C20.5539 43.3173 20.7263 42.9358 20.7263 42.538V7.00098H-0.000976562V39.081ZM15.2718 23.001C15.2718 22.7358 15.3867 22.4814 15.5913 22.2939C15.7959 22.1063 16.0733 22.001 16.3627 22.001C16.652 22.001 16.9295 22.1063 17.134 22.2939C17.3386 22.4814 17.4536 22.7358 17.4536 23.001V26.001C17.4536 26.2662 17.3386 26.5205 17.134 26.7081C16.9295 26.8956 16.652 27.001 16.3627 27.001C16.0733 27.001 15.7959 26.8956 15.5913 26.7081C15.3867 26.5205 15.2718 26.2662 15.2718 26.001V23.001ZM15.2718 0.000976563H5.45357C4.00693 0.000976563 2.61955 0.527761 1.59662 1.46544C0.573697 2.40312 -0.000976562 3.67489 -0.000976562 5.00098H20.7263C20.7263 3.67489 20.1516 2.40312 19.1287 1.46544C18.1058 0.527761 16.7184 0.000976563 15.2718 0.000976563ZM27.2718 39.081V42.538C27.2718 42.9358 27.4442 43.3173 27.751 43.5986C28.0579 43.8799 28.4741 44.038 28.9081 44.038C29.3421 44.038 29.7583 43.8799 30.0652 43.5986C30.3721 43.3173 30.5445 42.9358 30.5445 42.538V41.001H44.7263V42.538C44.7263 42.9358 44.8987 43.3173 45.2056 43.5986C45.5125 43.8799 45.9287 44.038 46.3627 44.038C46.7966 44.038 47.2129 43.8799 47.5197 43.5986C47.8266 43.3173 47.999 42.9358 47.999 42.538V7.00098H27.2718V39.081ZM42.5445 23.001C42.5445 22.7358 42.6594 22.4814 42.864 22.2939C43.0686 22.1063 43.3461 22.001 43.6354 22.001C43.9247 22.001 44.2022 22.1063 44.4068 22.2939C44.6114 22.4814 44.7263 22.7358 44.7263 23.001V26.001C44.7263 26.2662 44.6114 26.5205 44.4068 26.7081C44.2022 26.8956 43.9247 27.001 43.6354 27.001C43.3461 27.001 43.0686 26.8956 42.864 26.7081C42.6594 26.5205 42.5445 26.2662 42.5445 26.001V23.001ZM42.5445 0.000976563H32.7263C31.2797 0.000976563 29.8923 0.527761 28.8694 1.46544C27.8464 2.40312 27.2718 3.67489 27.2718 5.00098H47.999C47.999 3.67489 47.4244 2.40312 46.4014 1.46544C45.3785 0.527761 43.9911 0.000976563 42.5445 0.000976563Z" fill="black"/>
</g>
<defs>
<clipPath id="clip0_6013_51647">
<rect width="48" height="44" fill="white" transform="translate(-0.000976562 0.000976562)"/>
</clipPath>
</defs>
</svg>
