<svg width="48" height="48" viewBox="0 0 48 48" fill="none" xmlns="http://www.w3.org/2000/svg">
<g clip-path="url(#clip0_6013_51654)">
<path d="M5.86375 33.4788C4.98203 31.7816 4.34216 29.9694 3.96275 28.0948C3.85799 27.5745 3.55081 27.1171 3.10879 26.8232C2.66676 26.5293 2.12611 26.4231 1.60575 26.5278C1.0854 26.6326 0.627969 26.9398 0.3341 27.3818C0.0402302 27.8238 -0.0660101 28.3645 0.0387504 28.8848C0.560828 31.4717 1.5008 33.9562 2.82175 36.2408C3.51438 35.0186 4.58054 34.0506 5.86375 33.4788ZM19.9058 44.0378C18.0218 43.6576 16.2018 43.0104 14.5008 42.1158C13.9283 43.4046 12.9565 44.475 11.7288 45.1688C14.0213 46.4901 16.5119 47.4329 19.1048 47.9608C19.2364 47.9876 19.3704 48.001 19.5048 48.0008C20.0004 48.0001 20.4781 47.8155 20.8455 47.4828C21.2129 47.1501 21.4438 46.693 21.4935 46.1999C21.5433 45.7068 21.4084 45.2127 21.1149 44.8133C20.8214 44.414 20.3912 44.1376 19.9058 44.0378ZM28.0928 3.96485C29.9642 4.34388 31.7732 4.9838 33.4667 5.86585C34.0437 4.57965 35.0191 3.51313 36.2487 2.82385C33.958 1.50826 31.4711 0.568656 28.8828 0.0408479C28.6251 -0.0110242 28.3597 -0.0116398 28.1019 0.0390363C27.844 0.0897124 27.5986 0.190688 27.3797 0.336197C26.9377 0.630067 26.6305 1.08749 26.5258 1.60785C26.421 2.1282 26.5272 2.66886 26.8211 3.11088C27.115 3.55291 27.5724 3.86009 28.0928 3.96485ZM42.1138 14.5128C43.0061 16.2113 43.6533 18.0277 44.0357 19.9078C44.1278 20.3599 44.3733 20.7663 44.7307 21.0581C45.0881 21.3499 45.5354 21.5091 45.9967 21.5088C46.1311 21.509 46.2651 21.4956 46.3967 21.4688C46.6538 21.4172 46.8982 21.3153 47.1159 21.1691C47.3336 21.0228 47.5203 20.8351 47.6654 20.6167C47.8104 20.3982 47.911 20.1533 47.9614 19.896C48.0117 19.6386 48.0108 19.3739 47.9587 19.1168C47.4336 16.5201 46.4906 14.0257 45.1667 11.7308C44.4707 12.9592 43.4013 13.9337 42.1138 14.5128ZM1.60075 21.4688C1.73217 21.4971 1.86634 21.5105 2.00075 21.5088C2.4618 21.5075 2.90836 21.3477 3.26558 21.0562C3.62279 20.7647 3.86894 20.3593 3.96275 19.9078C4.34453 18.046 4.97731 16.2445 5.84375 14.5528C4.55648 13.9951 3.48043 13.0416 2.77175 11.8308C1.47841 14.0984 0.555772 16.5581 0.0387504 19.1168C-0.0133213 19.3739 -0.0142123 19.6386 0.0361284 19.896C0.0864692 20.1533 0.187054 20.3982 0.332129 20.6167C0.477204 20.8351 0.663923 21.0228 0.881605 21.1691C1.09929 21.3153 1.34366 21.4172 1.60075 21.4688ZM14.4208 5.92585C16.1453 5.0119 17.9927 4.35143 19.9058 3.96485C20.1634 3.91232 20.4082 3.80956 20.6261 3.66243C20.8441 3.5153 21.0309 3.32668 21.1759 3.10735C21.321 2.88802 21.4214 2.64226 21.4715 2.38412C21.5215 2.12598 21.5203 1.8605 21.4678 1.60285C21.4152 1.34519 21.3125 1.10041 21.1653 0.882471C21.0182 0.664532 20.8296 0.477707 20.6103 0.332662C20.3909 0.187617 20.1452 0.0871924 19.887 0.0371229C19.6289 -0.0129466 19.3634 -0.0116809 19.1058 0.0408479C16.4936 0.56835 13.985 1.5185 11.6788 2.85385C12.8992 3.55645 13.8608 4.63371 14.4208 5.92585ZM33.4667 42.1358C31.7733 43.0182 29.9643 43.6585 28.0928 44.0378C27.6042 44.1331 27.1687 44.4072 26.8715 44.8064C26.5742 45.2056 26.4365 45.7014 26.4852 46.1967C26.534 46.6921 26.7657 47.1515 27.1351 47.4851C27.5045 47.8187 27.985 48.0026 28.4827 48.0008C28.6172 48.0025 28.7513 47.9891 28.8828 47.9608C31.471 47.4333 33.958 46.4941 36.2487 45.1788C35.0189 44.4893 34.0435 43.4224 33.4667 42.1358ZM46.3977 26.5328C45.8775 26.4275 45.3366 26.5328 44.8938 26.8256C44.4511 27.1184 44.1425 27.5748 44.0357 28.0948C43.6532 29.9746 43.0061 31.7907 42.1138 33.4888C43.4013 34.068 44.4707 35.0425 45.1667 36.2708C46.4906 33.976 47.4336 31.4816 47.9587 28.8848C48.0108 28.6279 48.0118 28.3632 47.9615 28.1059C47.9112 27.8486 47.8107 27.6037 47.6657 27.3853C47.5208 27.1669 47.3342 26.9792 47.1166 26.8329C46.899 26.6866 46.6547 26.5847 46.3977 26.5328ZM6.87475 12.8018C7.37068 12.9878 7.89611 13.0826 8.42575 13.0818C9.52157 13.0787 10.5795 12.6805 11.4054 11.9602C12.2312 11.2399 12.7696 10.246 12.9217 9.16073C13.0737 8.07551 12.8293 6.97185 12.2333 6.05232C11.6372 5.13279 10.7295 4.45908 9.67675 4.15485C9.26987 4.04105 8.84925 3.98384 8.42675 3.98485C7.35755 3.9838 6.32222 4.35981 5.50288 5.04674C4.68354 5.73368 4.13267 6.68754 3.94718 7.74053C3.76169 8.79352 3.95345 9.87819 4.48874 10.8038C5.02402 11.7293 5.86855 12.4365 6.87375 12.8008M34.8988 8.52785C34.8995 9.73523 35.3795 10.8929 36.2331 11.7468C37.0868 12.6006 38.2444 13.0808 39.4517 13.0818C40.0133 13.0818 40.5699 12.9767 41.0928 12.7718C41.7633 12.5132 42.3627 12.0987 42.8414 11.5626C43.3201 11.0266 43.6643 10.3843 43.8457 9.68885C43.946 9.31035 43.9964 8.92039 43.9958 8.52885C43.9963 7.93197 43.8791 7.34085 43.6509 6.78931C43.4228 6.23777 43.0881 5.73664 42.666 5.31458C42.244 4.89253 41.7428 4.55784 41.1913 4.32967C40.6397 4.1015 40.0486 3.98432 39.4517 3.98485C39.0565 3.98321 38.6628 4.03364 38.2808 4.13485C37.589 4.32124 36.9506 4.66733 36.4169 5.14529C35.8832 5.62325 35.469 6.21975 35.2077 6.88685C35.0029 7.40971 34.8978 7.9663 34.8977 8.52785M13.0598 39.4738C13.0582 38.2665 12.5779 37.1091 11.7242 36.2554C10.8705 35.4017 9.71306 34.9214 8.50575 34.9198C7.95482 34.9158 7.40824 35.0176 6.89575 35.2198C6.22491 35.473 5.62373 35.8817 5.14165 36.4125C4.65957 36.9432 4.31037 37.5808 4.12275 38.2728C4.01782 38.6646 3.96404 39.0683 3.96275 39.4738C3.96222 40.0706 4.07937 40.6617 4.30747 41.2132C4.53558 41.7646 4.87018 42.2657 5.29213 42.6878C5.71408 43.1098 6.2151 43.4445 6.76652 43.6727C7.31795 43.901 7.90896 44.0182 8.50575 44.0178C8.90796 44.0157 9.30823 43.9619 9.69675 43.8578C10.6615 43.5989 11.514 43.0289 12.122 42.2364C12.73 41.4438 13.0596 40.4728 13.0598 39.4738ZM41.0928 35.2308C40.5699 35.026 40.0133 34.9209 39.4517 34.9208C38.2446 34.9224 37.0874 35.4026 36.2337 36.2561C35.38 37.1096 34.8996 38.2667 34.8977 39.4738C34.8978 40.0354 35.0029 40.592 35.2077 41.1148C35.4689 41.7821 35.883 42.3788 36.4167 42.857C36.9504 43.3351 37.5889 43.6814 38.2808 43.8678C38.6625 43.969 39.0559 44.0194 39.4507 44.0178C40.0477 44.0185 40.6389 43.9014 41.1906 43.6733C41.7422 43.4452 42.2435 43.1105 42.6657 42.6885C43.0878 42.2664 43.4226 41.7652 43.6508 41.2136C43.8791 40.662 43.9963 40.0708 43.9958 39.4738C43.9964 39.0823 43.946 38.6923 43.8457 38.3138C43.6645 37.6182 43.3203 36.9758 42.8416 36.4395C42.3629 35.9032 41.7634 35.4896 41.0928 35.2308ZM23.9788 32.0078C21.9471 32.0046 19.9927 31.2294 18.5111 29.8394C17.0294 28.4493 16.1314 26.5481 15.9988 24.5208L16.8488 25.4908C17.1148 25.7766 17.4816 25.9475 17.8715 25.9673C18.2614 25.9872 18.6437 25.8545 18.9374 25.5973C19.2311 25.3401 19.4132 24.9787 19.445 24.5896C19.4768 24.2005 19.3558 23.8143 19.1077 23.5128L15.6008 19.5068C15.4598 19.3462 15.2861 19.2175 15.0915 19.1293C14.8968 19.0411 14.6855 18.9955 14.4718 18.9955C14.258 18.9955 14.0467 19.0411 13.852 19.1293C13.6574 19.2175 13.4837 19.3462 13.3428 19.5068L9.83475 23.5068C9.6971 23.6538 9.59041 23.827 9.52101 24.016C9.45162 24.205 9.42094 24.4061 9.4308 24.6072C9.44066 24.8083 9.49087 25.0054 9.57842 25.1867C9.66598 25.368 9.7891 25.5299 9.94047 25.6627C10.0918 25.7955 10.2684 25.8965 10.4596 25.9597C10.6507 26.0229 10.8527 26.047 11.0534 26.0306C11.2541 26.0142 11.4494 25.9576 11.6278 25.8642C11.8062 25.7708 11.964 25.6425 12.0918 25.4868L12.9928 24.4598C13.112 27.295 14.3211 29.9747 16.3679 31.9403C18.4146 33.9058 21.1411 35.0054 23.9788 35.0098C24.3768 35.0098 24.7586 34.8517 25.0401 34.5702C25.3216 34.2887 25.4798 33.9069 25.4798 33.5088C25.4798 33.1108 25.3216 32.729 25.0401 32.4475C24.7586 32.166 24.3768 32.0078 23.9788 32.0078ZM23.9788 15.9948C26.0105 15.9981 27.9651 16.7734 29.4468 18.1637C30.9284 19.554 31.8263 21.4554 31.9587 23.4828L31.1088 22.5118C30.8465 22.2123 30.4759 22.0292 30.0786 22.0028C29.6813 21.9765 29.2898 22.1091 28.9903 22.3713C28.6907 22.6336 28.5076 23.0042 28.4812 23.4015C28.4549 23.7988 28.5875 24.1903 28.8498 24.4898L32.3568 28.4948C32.4975 28.656 32.6712 28.7851 32.866 28.8736C33.0608 28.962 33.2723 29.0078 33.4862 29.0078C33.7002 29.0078 33.9117 28.962 34.1065 28.8736C34.3013 28.7851 34.475 28.656 34.6157 28.4948L38.1227 24.4938C38.385 24.1944 38.5177 23.8031 38.4914 23.4059C38.4651 23.0087 38.2822 22.6381 37.9827 22.3758C37.6833 22.1136 37.292 21.9809 36.8948 22.0072C36.4976 22.0335 36.127 22.2164 35.8647 22.5158L34.9647 23.5418C34.8455 20.7067 33.6364 18.027 31.5896 16.0614C29.5429 14.0959 26.8164 12.9963 23.9788 12.9918C23.5805 12.9918 23.1986 13.15 22.917 13.4316C22.6354 13.7132 22.4773 14.0951 22.4773 14.4933C22.4773 14.8916 22.6354 15.2735 22.917 15.5551C23.1986 15.8367 23.5805 15.9948 23.9788 15.9948Z" fill="black"/>
</g>
<defs>
<clipPath id="clip0_6013_51654">
<rect width="48" height="48" fill="white" transform="translate(-0.000976562 0.000976562)"/>
</clipPath>
</defs>
</svg>
