<svg width="48" height="48" viewBox="0 0 48 48" fill="none" xmlns="http://www.w3.org/2000/svg">
<g clip-path="url(#clip0_6013_51657)">
<path d="M3.99902 29.9698H43.999C44.529 29.9682 45.0368 29.7572 45.4115 29.3828C45.7862 29.0085 45.9974 28.5012 45.999 27.9718V1.9989C45.9974 1.4695 45.7862 0.96224 45.4115 0.5879C45.0368 0.21356 44.529 0.00255764 43.999 0.000976563L3.99902 0.000976562C3.46908 0.00255764 2.96129 0.21356 2.58656 0.5879C2.21183 0.96224 2.00061 1.4695 1.99902 1.9989V27.9718C2.00061 28.5012 2.21183 29.0085 2.58656 29.3828C2.96129 29.7572 3.46908 29.9682 3.99902 29.9698ZM5.99902 3.99681H41.999V25.9739H5.99902V3.99681ZM45.749 32.9666H2.24902C1.65253 32.9674 1.08069 33.2045 0.65891 33.6258C0.237125 34.0472 -0.000182824 34.6184 -0.000976562 35.2143V45.7633C0.00166792 46.3577 0.239888 46.9268 0.661558 47.3462C1.08323 47.7655 1.65401 48.001 2.24902 48.001H45.749C46.344 48.001 46.9148 47.7655 47.3365 47.3462C47.7582 46.9268 47.9964 46.3577 47.999 45.7633V35.2143C47.9982 34.6184 47.7609 34.0472 47.3391 33.6258C46.9174 33.2045 46.3455 32.9674 45.749 32.9666ZM19.499 40.9583H5.49902C5.1012 40.9583 4.71967 40.8004 4.43836 40.5194C4.15706 40.2384 3.99902 39.8573 3.99902 39.4599C3.99902 39.0625 4.15706 38.6813 4.43836 38.4003C4.71967 38.1193 5.1012 37.9614 5.49902 37.9614H19.499C19.8968 37.9614 20.2784 38.1193 20.5597 38.4003C20.841 38.6813 20.999 39.0625 20.999 39.4599C20.999 39.8573 20.841 40.2384 20.5597 40.5194C20.2784 40.8004 19.8968 40.9583 19.499 40.9583ZM41.499 41.9573C41.0046 41.9573 40.5212 41.8108 40.1101 41.5364C39.699 41.262 39.3785 40.8719 39.1893 40.4156C39.0001 39.9592 38.9506 39.4571 39.0471 38.9727C39.1435 38.4882 39.3816 38.0432 39.7313 37.6939C40.0809 37.3447 40.5263 37.1068 41.0113 37.0105C41.4963 36.9141 41.9989 36.9636 42.4557 37.1526C42.9125 37.3416 43.303 37.6617 43.5777 38.0724C43.8524 38.4831 43.999 38.9659 43.999 39.4599C43.999 40.1222 43.7356 40.7575 43.2668 41.2258C42.798 41.6942 42.1621 41.9573 41.499 41.9573Z" fill="black"/>
</g>
<defs>
<clipPath id="clip0_6013_51657">
<rect width="48" height="48" fill="white" transform="translate(-0.000976562 0.000976562)"/>
</clipPath>
</defs>
</svg>
