<svg width="48" height="48" viewBox="0 0 48 48" fill="none" xmlns="http://www.w3.org/2000/svg">
<g clip-path="url(#clip0_6013_51664)">
<path d="M24 29.001C26.7614 29.001 29 26.7624 29 24.001C29 21.2396 26.7614 19.001 24 19.001C21.2386 19.001 19 21.2396 19 24.001C19 26.7624 21.2386 29.001 24 29.001Z" fill="black"/>
<path d="M24.0001 16.001C24.7957 16.001 25.5588 15.685 26.1214 15.1224C26.684 14.5598 27.0001 13.7967 27.0001 13.001V3.00105C27.0001 2.2054 26.684 1.44234 26.1214 0.879727C25.5588 0.317118 24.7957 0.00104741 24.0001 0.00104741C23.2044 0.00104741 22.4414 0.317118 21.8787 0.879727C21.3161 1.44234 21.0001 2.2054 21.0001 3.00105V13.001C21.0001 13.7967 21.3161 14.5598 21.8787 15.1224C22.4414 15.685 23.2044 16.001 24.0001 16.001ZM18.1101 18.111C18.3925 17.8287 18.6165 17.4936 18.7693 17.1247C18.9222 16.7558 19.0009 16.3604 19.0009 15.961C19.0009 15.5617 18.9222 15.1663 18.7693 14.7974C18.6165 14.4285 18.3925 14.0934 18.1101 13.811L5.19007 0.891047C4.61986 0.320832 3.84648 0.000488275 3.04007 0.000488281C2.23366 0.000488287 1.46029 0.320832 0.890071 0.891047C0.319855 1.46126 -0.000488275 2.23464 -0.000488281 3.04105C-0.000488287 3.84745 0.319855 4.62083 0.890071 5.19105L13.8101 18.111C14.0924 18.3935 14.4276 18.6175 14.7965 18.7703C15.1654 18.9232 15.5608 19.0018 15.9601 19.0018C16.3594 19.0018 16.7548 18.9232 17.1237 18.7703C17.4926 18.6175 17.8278 18.3935 18.1101 18.111Z" fill="black"/>
<path d="M13.013 21.001H6.987C5.33733 21.001 4 22.3383 4 23.988V24.014C4 25.6637 5.33733 27.001 6.987 27.001H13.013C14.6627 27.001 16 25.6637 16 24.014V23.988C16 22.3383 14.6627 21.001 13.013 21.001Z" fill="black"/>
<path d="M14.083 29.845L4.84305 39.085C4.30307 39.6252 3.99981 40.3579 4 41.1217C4.00019 41.8855 4.3038 42.618 4.84405 43.158C5.38429 43.698 6.11692 44.0012 6.88075 44.001C7.64459 44.0009 8.37706 43.6972 8.91705 43.157L18.157 33.917C18.697 33.3768 19.0003 32.6441 19.0001 31.8803C18.9999 31.1165 18.6963 30.384 18.156 29.844C17.8885 29.5766 17.571 29.3646 17.2215 29.2199C16.8721 29.0753 16.4976 29.0009 16.1193 29.0009C15.3555 29.0011 14.623 29.3047 14.083 29.845ZM23.988 32.001C23.1924 32.001 22.4293 32.3171 21.8667 32.8797C21.3041 33.4423 20.988 34.2053 20.988 35.001V45.001C20.988 45.7966 21.3041 46.5597 21.8667 47.1223C22.4293 47.6849 23.1924 48.001 23.988 48.001C24.7837 48.001 25.5468 47.6849 26.1094 47.1223C26.672 46.5597 26.988 45.7966 26.988 45.001V35.001C26.988 34.2053 26.672 33.4423 26.1094 32.8797C25.5468 32.3171 24.7837 32.001 23.988 32.001ZM33.958 29.886C33.4179 29.3459 32.6854 29.0424 31.9215 29.0424C31.1577 29.0424 30.4252 29.3459 29.885 29.886C29.3449 30.4261 29.0415 31.1587 29.0415 31.9225C29.0415 32.6863 29.3449 33.4189 29.885 33.959L35.042 39.116C35.5822 39.6561 36.3147 39.9595 37.0785 39.9595C37.8424 39.9595 38.5749 39.6561 39.115 39.116C39.6552 38.5759 39.9586 37.8433 39.9586 37.0795C39.9586 36.3157 39.6552 35.5831 39.115 35.043L33.958 29.886ZM44.808 21.001H35.192C34.3722 20.9754 33.5758 21.276 32.9773 21.8369C32.3789 22.3979 32.0275 23.1732 32 23.993C32.0272 24.8129 32.3785 25.5886 32.977 26.1497C33.5754 26.7108 34.3721 27.0116 35.192 26.986H44.808C45.628 27.0116 46.4247 26.7108 47.0231 26.1497C47.6215 25.5886 47.9729 24.8129 48 23.993C47.9726 23.1732 47.6212 22.3979 47.0228 21.8369C46.4243 21.276 45.6278 20.9754 44.808 21.001ZM33.829 18.157L37.156 14.917C37.6831 14.3742 37.9753 13.6459 37.9697 12.8894C37.9641 12.1328 37.661 11.4089 37.126 10.874C36.591 10.3392 35.867 10.0363 35.1105 10.0308C34.354 10.0254 33.6257 10.3179 33.083 10.845L29.843 14.085C29.3032 14.6251 29 15.3574 29 16.121C29 16.8846 29.3032 17.6169 29.843 18.157C30.1018 18.424 30.4115 18.6363 30.7539 18.7813C31.0962 18.9263 31.4642 19.001 31.836 19.001C32.2078 19.001 32.5759 18.9263 32.9182 18.7813C33.2606 18.6363 33.5703 18.424 33.829 18.157Z" fill="black"/>
</g>
<defs>
<clipPath id="clip0_6013_51664">
<rect width="48" height="48" fill="white" transform="translate(0 0.000976562)"/>
</clipPath>
</defs>
</svg>
