<svg width="48" height="48" viewBox="0 0 48 48" fill="none" xmlns="http://www.w3.org/2000/svg">
<g clip-path="url(#clip0_6013_51660)">
<path d="M45.249 0.000976562H2.74902C2.01968 0.000976563 1.3202 0.290708 0.80448 0.806433C0.288755 1.32216 -0.000976562 2.02163 -0.000976562 2.75098L-0.000976562 45.251C-0.000976562 45.9803 0.288755 46.6798 0.80448 47.1955C1.3202 47.7112 2.01968 48.001 2.74902 48.001H45.249C45.9784 48.001 46.6778 47.7112 47.1936 47.1955C47.7093 46.6798 47.999 45.9803 47.999 45.251V2.75098C47.999 2.02163 47.7093 1.32216 47.1936 0.806433C46.6778 0.290708 45.9784 0.000976563 45.249 0.000976562ZM43.999 44.001H3.99902V4.00098H43.999V44.001Z" fill="black"/>
<path d="M13.3519 40.671C13.9614 41.0094 14.6803 41.0919 15.3507 40.9005C16.0211 40.709 16.588 40.2592 16.9269 39.65L21.6999 31.148L29.7539 40.12C29.7719 40.14 29.7939 40.154 29.8129 40.173C29.8739 40.239 29.9429 40.296 30.0099 40.355C30.0739 40.41 30.1359 40.467 30.2039 40.515C30.2719 40.563 30.3459 40.602 30.4189 40.645C30.4939 40.687 30.5669 40.732 30.6449 40.767C30.7209 40.801 30.7999 40.825 30.8789 40.852C30.9604 40.8812 31.0431 40.9069 31.1269 40.929C31.2059 40.947 31.2869 40.955 31.3679 40.966C31.4587 40.9795 31.5501 40.9888 31.6419 40.994C31.6679 40.994 31.6929 41.002 31.7199 41.002H38.2929C38.9985 41.0048 39.6771 40.7309 40.183 40.239C40.6889 39.7471 40.9818 39.0764 40.9989 38.371V24.048C40.9817 21.9116 40.1201 19.8687 38.6022 18.3652C37.0843 16.8617 35.0333 16.0197 32.8969 16.023H31.7199C31.0129 16.0198 30.3326 16.293 29.8243 16.7844C29.3159 17.2757 29.0197 17.9463 28.9989 18.653V31.455L23.1679 24.882C22.8887 24.5681 22.5385 24.3257 22.1464 24.1749C21.7544 24.0242 21.3319 23.9696 20.9145 24.0156C20.497 24.0616 20.0966 24.2069 19.7467 24.4394C19.3969 24.6719 19.1079 24.9849 18.9039 25.352L12.3309 37.095C11.9924 37.7044 11.9097 38.4232 12.1009 39.0936C12.2922 39.7639 12.7418 40.3309 13.3509 40.67" fill="black"/>
<path d="M24.499 16.002C26.9843 16.002 28.999 13.9872 28.999 11.502C28.999 9.01667 26.9843 7.00195 24.499 7.00195C22.0137 7.00195 19.999 9.01667 19.999 11.502C19.999 13.9872 22.0137 16.002 24.499 16.002Z" fill="black"/>
</g>
<defs>
<clipPath id="clip0_6013_51660">
<rect width="48" height="48" fill="white" transform="translate(-0.000976562 0.000976562)"/>
</clipPath>
</defs>
</svg>
