<svg width="48" height="48" viewBox="0 0 48 48" fill="none" xmlns="http://www.w3.org/2000/svg">
<g clip-path="url(#clip0_6013_51673)">
<path d="M24 30.001C27.3137 30.001 30 27.3147 30 24.001C30 20.6873 27.3137 18.001 24 18.001C20.6863 18.001 18 20.6873 18 24.001C18 27.3147 20.6863 30.001 24 30.001Z" fill="black"/>
<path d="M32.0002 18.0011H41.0002C41.5306 18.0011 42.0393 17.7904 42.4144 17.4154C42.7895 17.0403 43.0002 16.5316 43.0002 16.0011C43.0002 15.4707 42.7895 14.962 42.4144 14.5869C42.0393 14.2119 41.5306 14.0011 41.0002 14.0011H36.8282L47.4142 3.41514C47.6052 3.23065 47.7575 3.00996 47.8624 2.76595C47.9672 2.52194 48.0224 2.2595 48.0247 1.99394C48.027 1.72838 47.9764 1.46502 47.8758 1.21923C47.7752 0.973438 47.6267 0.750134 47.439 0.562349C47.2512 0.374564 47.0279 0.226057 46.7821 0.125496C46.5363 0.0249338 46.2729 -0.0256696 46.0074 -0.023362C45.7418 -0.0210544 45.4794 0.0341181 45.2354 0.138936C44.9913 0.243754 44.7707 0.396119 44.5862 0.587139L34.0002 11.1731V7.00114C34.0002 6.47071 33.7895 5.962 33.4144 5.58693C33.0393 5.21185 32.5306 5.00114 32.0002 5.00114C31.4697 5.00114 30.961 5.21185 30.5859 5.58693C30.2109 5.962 30.0002 6.47071 30.0002 7.00114V16.0011C30.0002 16.5316 30.2109 17.0403 30.5859 17.4154C30.961 17.7904 31.4697 18.0011 32.0002 18.0011ZM11.1722 14.0011H7.00016C6.46973 14.0011 5.96102 14.2119 5.58595 14.5869C5.21088 14.962 5.00016 15.4707 5.00016 16.0011C5.00016 16.5316 5.21088 17.0403 5.58595 17.4154C5.96102 17.7904 6.46973 18.0011 7.00016 18.0011H16.0002C16.5306 18.0011 17.0393 17.7904 17.4144 17.4154C17.7894 17.0403 18.0002 16.5316 18.0002 16.0011V7.00114C18.0002 6.47071 17.7894 5.962 17.4144 5.58693C17.0393 5.21185 16.5306 5.00114 16.0002 5.00114C15.4697 5.00114 14.961 5.21185 14.5859 5.58693C14.2109 5.962 14.0002 6.47071 14.0002 7.00114V11.1731L3.41416 0.587139C3.03696 0.222823 2.53175 0.021234 2.00736 0.0257908C1.48297 0.0303477 0.981341 0.240686 0.610525 0.611502C0.239709 0.982318 0.0293711 1.48394 0.0248143 2.00834C0.0202574 2.53273 0.221846 3.03793 0.586162 3.41514L11.1722 14.0011ZM36.8282 34.0011H41.0002C41.5306 34.0011 42.0393 33.7904 42.4144 33.4154C42.7895 33.0403 43.0002 32.5316 43.0002 32.0011C43.0002 31.4707 42.7895 30.962 42.4144 30.5869C42.0393 30.2119 41.5306 30.0011 41.0002 30.0011H32.0002C31.4697 30.0011 30.961 30.2119 30.5859 30.5869C30.2109 30.962 30.0002 31.4707 30.0002 32.0011V41.0011C30.0002 41.5316 30.2109 42.0403 30.5859 42.4154C30.961 42.7904 31.4697 43.0011 32.0002 43.0011C32.5306 43.0011 33.0393 42.7904 33.4144 42.4154C33.7895 42.0403 34.0002 41.5316 34.0002 41.0011V36.8291L44.5862 47.4151C44.9634 47.7795 45.4686 47.981 45.993 47.9765C46.5174 47.9719 47.019 47.7616 47.3898 47.3908C47.7606 47.02 47.971 46.5183 47.9755 45.9939C47.9801 45.4695 47.7785 44.9643 47.4142 44.5871L36.8282 34.0011ZM16.0002 30.0011H7.00016C6.46973 30.0011 5.96102 30.2119 5.58595 30.5869C5.21088 30.962 5.00016 31.4707 5.00016 32.0011C5.00016 32.5316 5.21088 33.0403 5.58595 33.4154C5.96102 33.7904 6.46973 34.0011 7.00016 34.0011H11.1722L0.586162 44.5871C0.395142 44.7716 0.242778 44.9923 0.13796 45.2363C0.0331416 45.4803 -0.0220309 45.7428 -0.0243385 46.0083C-0.0266462 46.2739 0.0239572 46.5373 0.124519 46.783C0.225081 47.0288 0.373587 47.2521 0.561372 47.4399C0.749158 47.6277 0.972462 47.7762 1.21825 47.8768C1.46405 47.9773 1.72741 48.028 1.99296 48.0256C2.25852 48.0233 2.52096 47.9682 2.76497 47.8633C3.00898 47.7585 3.22967 47.6062 3.41416 47.4151L14.0002 36.8291V41.0011C14.0002 41.5316 14.2109 42.0403 14.5859 42.4154C14.961 42.7904 15.4697 43.0011 16.0002 43.0011C16.5306 43.0011 17.0393 42.7904 17.4144 42.4154C17.7894 42.0403 18.0002 41.5316 18.0002 41.0011V32.0011C18.0002 31.4707 17.7894 30.962 17.4144 30.5869C17.0393 30.2119 16.5306 30.0011 16.0002 30.0011Z" fill="black"/>
</g>
<defs>
<clipPath id="clip0_6013_51673">
<rect width="48" height="48" fill="white" transform="translate(0 0.000976562)"/>
</clipPath>
</defs>
</svg>
