<svg width="48" height="48" viewBox="0 0 48 48" fill="none" xmlns="http://www.w3.org/2000/svg">
<g clip-path="url(#clip0_6013_51670)">
<path d="M40.6001 25.4711C40.8601 25.0248 40.9971 24.5175 40.9971 24.0011C40.9971 23.4846 40.8601 22.9773 40.6001 22.5311C38.9066 19.631 36.483 17.2252 33.5705 15.5533C30.658 13.8813 27.3584 13.0015 24.0001 13.0015C20.6418 13.0015 17.3422 13.8813 14.4297 15.5533C11.5172 17.2252 9.09356 19.631 7.40011 22.5311C7.14009 22.9773 7.0031 23.4846 7.0031 24.0011C7.0031 24.5175 7.14009 25.0248 7.40011 25.4711C9.09336 28.3713 11.5169 30.7774 14.4294 32.4495C17.3419 34.1217 20.6417 35.0016 24.0001 35.0016C27.3585 35.0016 30.6583 34.1217 33.5708 32.4495C36.4833 30.7774 38.9068 28.3713 40.6001 25.4711ZM24.0001 30.0011C22.8134 30.0011 21.6534 29.6492 20.6667 28.9899C19.68 28.3306 18.911 27.3935 18.4568 26.2972C18.0027 25.2008 17.8839 23.9944 18.1154 22.8305C18.3469 21.6666 18.9184 20.5975 19.7575 19.7584C20.5966 18.9193 21.6657 18.3479 22.8296 18.1163C23.9935 17.8848 25.1999 18.0037 26.2962 18.4578C27.3926 18.9119 28.3296 19.6809 28.9889 20.6676C29.6482 21.6543 30.0001 22.8144 30.0001 24.0011C29.9988 25.5919 29.3662 27.1173 28.2413 28.2422C27.1164 29.3672 25.591 29.9997 24.0001 30.0011ZM36.5001 13.0011H46.5001C46.8979 13.0011 47.2795 12.843 47.5608 12.5617C47.8421 12.2804 48.0001 11.8989 48.0001 11.5011C48.0001 11.1032 47.8421 10.7217 47.5608 10.4404C47.2795 10.1591 46.8979 10.0011 46.5001 10.0011H40.1201L47.5341 2.58706C47.6798 2.44932 47.7964 2.28377 47.877 2.1002C47.9576 1.91663 48.0006 1.71875 48.0035 1.51828C48.0063 1.31781 47.9689 1.1188 47.8935 0.933022C47.8181 0.747243 47.7063 0.578464 47.5645 0.43666C47.4228 0.294857 47.2541 0.182906 47.0683 0.107427C46.8826 0.0319471 46.6836 -0.00553009 46.4831 -0.00278954C46.2826 -4.89915e-05 46.0847 0.0428536 45.9011 0.123382C45.7175 0.203911 45.5519 0.320432 45.4141 0.466057L38.0001 7.88006V1.50106C38.0001 1.10323 37.8421 0.721701 37.5608 0.440397C37.2795 0.159092 36.8979 0.00105701 36.5001 0.00105701C36.1023 0.00105701 35.7207 0.159092 35.4394 0.440397C35.1581 0.721701 35.0001 1.10323 35.0001 1.50106V11.5011C35.0001 11.8989 35.1581 12.2804 35.4394 12.5617C35.7207 12.843 36.1023 13.0011 36.5001 13.0011ZM0.000106078 11.5011C0.000106078 11.8989 0.158141 12.2804 0.439446 12.5617C0.72075 12.843 1.10228 13.0011 1.50011 13.0011H11.5001C11.8979 13.0011 12.2795 12.843 12.5608 12.5617C12.8421 12.2804 13.0001 11.8989 13.0001 11.5011V1.50106C13.0001 1.10323 12.8421 0.721701 12.5608 0.440397C12.2795 0.159092 11.8979 0.00105701 11.5001 0.00105701C11.1023 0.00105701 10.7207 0.159092 10.4394 0.440397C10.1581 0.721701 10.0001 1.10323 10.0001 1.50106V7.88006L2.58711 0.466057C2.3034 0.19758 1.92615 0.0503586 1.53559 0.0556977C1.14502 0.0610369 0.771945 0.218515 0.495683 0.494647C0.21942 0.77078 0.0617661 1.14378 0.0562427 1.53435C0.0507194 1.92491 0.197763 2.30222 0.466106 2.58606L7.87911 10.0011H1.50011C1.10228 10.0011 0.72075 10.1591 0.439446 10.4404C0.158141 10.7217 0.000106078 11.1032 0.000106078 11.5011ZM48.0001 36.5011C48.0001 36.1032 47.8421 35.7217 47.5608 35.4404C47.2795 35.1591 46.8979 35.0011 46.5001 35.0011H36.5001C36.1023 35.0011 35.7207 35.1591 35.4394 35.4404C35.1581 35.7217 35.0001 36.1032 35.0001 36.5011V46.5011C35.0001 46.8989 35.1581 47.2804 35.4394 47.5617C35.7207 47.843 36.1023 48.0011 36.5001 48.0011C36.8979 48.0011 37.2795 47.843 37.5608 47.5617C37.8421 47.2804 38.0001 46.8989 38.0001 46.5011V40.1221L45.4131 47.5361C45.5508 47.6817 45.7164 47.7983 45.9 47.879C46.0835 47.9596 46.2814 48.0026 46.4819 48.0054C46.6824 48.0082 46.8814 47.9709 47.0671 47.8955C47.2529 47.8201 47.4217 47.7082 47.5635 47.5665C47.7053 47.4247 47.8173 47.256 47.8927 47.0703C47.9682 46.8845 48.0057 46.6855 48.003 46.4851C48.0002 46.2846 47.9573 46.0867 47.8768 45.9031C47.7963 45.7195 47.6797 45.5539 47.5341 45.4161L40.1211 38.0011H46.5001C46.8979 38.0011 47.2795 37.843 47.5608 37.5617C47.8421 37.2804 48.0001 36.8989 48.0001 36.5011ZM11.5001 35.0011H1.50011C1.10228 35.0011 0.72075 35.1591 0.439446 35.4404C0.158141 35.7217 0.000106078 36.1032 0.000106078 36.5011C0.000106078 36.8989 0.158141 37.2804 0.439446 37.5617C0.72075 37.843 1.10228 38.0011 1.50011 38.0011H7.88011L0.465106 45.4151C0.319416 45.5528 0.202817 45.7183 0.122202 45.9019C0.0415865 46.0855 -0.00140946 46.2834 -0.00424455 46.4838C-0.00707963 46.6843 0.0303037 46.8833 0.105696 47.0691C0.181088 47.2549 0.292958 47.4236 0.434695 47.5655C0.576432 47.7073 0.745159 47.8192 0.930902 47.8947C1.11664 47.9702 1.31563 48.0076 1.51611 48.0049C1.71658 48.0022 1.91447 47.9593 2.09808 47.8787C2.2817 47.7982 2.4473 47.6817 2.58511 47.5361L10.0001 40.1221V46.5011C10.0001 46.8989 10.1581 47.2804 10.4394 47.5617C10.7207 47.843 11.1023 48.0011 11.5001 48.0011C11.8979 48.0011 12.2795 47.843 12.5608 47.5617C12.8421 47.2804 13.0001 46.8989 13.0001 46.5011V36.5011C13.0001 36.1032 12.8421 35.7217 12.5608 35.4404C12.2795 35.1591 11.8979 35.0011 11.5001 35.0011Z" fill="black"/>
</g>
<defs>
<clipPath id="clip0_6013_51670">
<rect width="48" height="48" fill="white" transform="translate(0 0.000976562)"/>
</clipPath>
</defs>
</svg>
