<svg width="48" height="48" viewBox="0 0 48 48" fill="none" xmlns="http://www.w3.org/2000/svg">
<g clip-path="url(#clip0_6013_51677)">
<path d="M39.2188 41.001C38.9268 41.001 38.6467 41.0832 38.4402 41.2294C38.2337 41.3757 38.1176 41.5741 38.1176 41.781V48.001L48 41.001H39.2188ZM35.2941 10.001V1.00098C35.293 0.736003 35.1439 0.482109 34.8794 0.294744C34.6149 0.107379 34.2564 0.00176793 33.8824 0.000976562L1.41176 0.000976563C1.03769 0.00176793 0.679246 0.107379 0.41473 0.294744C0.150215 0.482109 0.00111722 0.736003 0 1.00098L0 34.001C0.00111722 34.2659 0.150215 34.5198 0.41473 34.7072C0.679246 34.8946 1.03769 35.0002 1.41176 35.001H8.47059V14.001C8.47059 12.9401 9.06554 11.9227 10.1246 11.1725C11.1836 10.4224 12.62 10.001 14.1176 10.001H35.2941Z" fill="black"/>
<path d="M46.5884 13.001H14.1178C13.7437 13.0018 13.3853 13.1074 13.1208 13.2947C12.8563 13.4821 12.7072 13.736 12.7061 14.001V47.001C12.7072 47.2659 12.8563 47.5198 13.1208 47.7072C13.3853 47.8946 13.7437 48.0002 14.1178 48.001H35.2943V41.781C35.2969 41.0442 35.7112 40.3382 36.4467 39.8173C37.1821 39.2963 38.1789 39.0028 39.219 39.001H48.0002V14.001C47.9991 13.736 47.85 13.4821 47.5854 13.2947C47.3209 13.1074 46.9625 13.0018 46.5884 13.001ZM40.9413 35.001H19.7649C19.3905 35.001 19.0314 34.8956 18.7666 34.7081C18.5019 34.5205 18.3531 34.2662 18.3531 34.001C18.3531 33.7358 18.5019 33.4814 18.7666 33.2939C19.0314 33.1063 19.3905 33.001 19.7649 33.001H40.9413C41.3158 33.001 41.6749 33.1063 41.9396 33.2939C42.2044 33.4814 42.3531 33.7358 42.3531 34.001C42.3531 34.2662 42.2044 34.5205 41.9396 34.7081C41.6749 34.8956 41.3158 35.001 40.9413 35.001ZM40.9413 29.001H19.7649C19.3905 29.001 19.0314 28.8956 18.7666 28.7081C18.5019 28.5205 18.3531 28.2662 18.3531 28.001C18.3531 27.7358 18.5019 27.4814 18.7666 27.2939C19.0314 27.1063 19.3905 27.001 19.7649 27.001H40.9413C41.3158 27.001 41.6749 27.1063 41.9396 27.2939C42.2044 27.4814 42.3531 27.7358 42.3531 28.001C42.3531 28.2662 42.2044 28.5205 41.9396 28.7081C41.6749 28.8956 41.3158 29.001 40.9413 29.001ZM40.9413 23.001H19.7649C19.3905 23.001 19.0314 22.8956 18.7666 22.7081C18.5019 22.5205 18.3531 22.2662 18.3531 22.001C18.3531 21.7358 18.5019 21.4814 18.7666 21.2939C19.0314 21.1063 19.3905 21.001 19.7649 21.001H40.9413C41.3158 21.001 41.6749 21.1063 41.9396 21.2939C42.2044 21.4814 42.3531 21.7358 42.3531 22.001C42.3531 22.2662 42.2044 22.5205 41.9396 22.7081C41.6749 22.8956 41.3158 23.001 40.9413 23.001Z" fill="black"/>
</g>
<defs>
<clipPath id="clip0_6013_51677">
<rect width="48" height="48" fill="white" transform="translate(0 0.000976562)"/>
</clipPath>
</defs>
</svg>
