<svg width="48" height="48" viewBox="0 0 48 48" fill="none" xmlns="http://www.w3.org/2000/svg">
<g clip-path="url(#clip0_6013_51681)">
<path d="M47.4419 1.85298C35.3492 -1.19502 23.2566 5.35098 11.1628 2.00098V22.001C23.2566 25.35 35.3492 18.933 47.4419 21.981C47.5048 22.0043 47.5733 22.013 47.6409 22.0063C47.7086 21.9996 47.7733 21.9776 47.829 21.9425C47.8847 21.9074 47.9296 21.8602 47.9594 21.8054C47.9893 21.7506 48.0033 21.6899 48 21.629V2.50098C47.9914 2.35497 47.9334 2.21477 47.8337 2.09902C47.734 1.98327 47.5973 1.89745 47.4419 1.85298ZM11.1628 45.001H8.93023V2.00098C8.93023 1.47054 8.69502 0.961836 8.27633 0.586763C7.85765 0.21169 7.28979 0.000976563 6.69767 0.000976562C6.10556 0.000976563 5.5377 0.21169 5.11902 0.586763C4.70033 0.961836 4.46512 1.47054 4.46512 2.00098V45.001H2.23256C1.64045 45.001 1.07259 45.2117 0.653901 45.5868C0.235215 45.9618 0 46.4705 0 47.001L0 48.001H13.3953V47.001C13.3953 46.4705 13.1601 45.9618 12.7414 45.5868C12.3228 45.2117 11.7549 45.001 11.1628 45.001Z" fill="black"/>
</g>
<defs>
<clipPath id="clip0_6013_51681">
<rect width="48" height="48" fill="white" transform="translate(0 0.000976562)"/>
</clipPath>
</defs>
</svg>
