<svg id="couple" width="48" height="48" viewBox="0 0 59 48" fill="none" xmlns="http://www.w3.org/2000/svg">
<g clip-path="url(#clip0_7271_53849)">
<path d="M45.991 10C38.464 10 33 15.047 33 22C33 22.5304 33.2107 23.0391 33.5858 23.4142C33.9609 23.7893 34.4696 24 35 24C35.5304 24 36.0391 23.7893 36.4142 23.4142C36.7893 23.0391 37 22.5304 37 22C36.9705 20.5815 37.3261 19.1814 38.0288 17.9489C38.7316 16.7163 39.7553 15.6972 40.991 15V46C40.991 46.5304 41.2017 47.0391 41.5768 47.4142C41.9519 47.7893 42.4606 48 42.991 48C43.5214 48 44.0301 47.7893 44.4052 47.4142C44.7803 47.0391 44.991 46.5304 44.991 46V31H46.991V46C46.991 46.5304 47.2017 47.0391 47.5768 47.4142C47.9519 47.7893 48.4606 48 48.991 48C49.5214 48 50.0301 47.7893 50.4052 47.4142C50.7803 47.0391 50.991 46.5304 50.991 46V14.999C52.2278 15.6956 53.2526 16.7146 53.9563 17.9474C54.66 19.1802 55.0162 20.5808 54.987 22C54.987 22.5304 55.1977 23.0391 55.5728 23.4142C55.9479 23.7893 56.4566 24 56.987 24C57.5174 24 58.0261 23.7893 58.4012 23.4142C58.7763 23.0391 58.987 22.5304 58.987 22C58.987 15.047 53.521 10 45.991 10Z" fill="currentColor"/>
<path d="M45.9912 8C48.2003 8 49.9912 6.20914 49.9912 4C49.9912 1.79086 48.2003 0 45.9912 0C43.7821 0 41.9912 1.79086 41.9912 4C41.9912 6.20914 43.7821 8 45.9912 8Z" fill="currentColor"/>
</g>
<g clip-path="url(#clip1_7271_53849)">
<path d="M13 10C5.46 10 0 15.05 0 22C0 22.5304 0.210714 23.0391 0.585786 23.4142C0.960859 23.7893 1.46957 24 2 24C2.53043 24 3.03914 23.7893 3.41421 23.4142C3.78929 23.0391 4 22.5304 4 22C4 20.4577 4.48191 18.9539 5.37837 17.6988C6.27483 16.4438 7.54104 15.5002 9 15L5 34C4.9877 34.1344 5.00513 34.2699 5.05103 34.3968C5.09694 34.5237 5.1702 34.6389 5.26564 34.7344C5.36107 34.8298 5.47632 34.9031 5.60323 34.949C5.73015 34.9949 5.8656 35.0123 6 35H8V46C8 46.5304 8.21071 47.0391 8.58579 47.4142C8.96086 47.7893 9.46957 48 10 48C10.5304 48 11.0391 47.7893 11.4142 47.4142C11.7893 47.0391 12 46.5304 12 46V35H14V46C14 46.5304 14.2107 47.0391 14.5858 47.4142C14.9609 47.7893 15.4696 48 16 48C16.5304 48 17.0391 47.7893 17.4142 47.4142C17.7893 47.0391 18 46.5304 18 46V35H20C20.1344 35.0123 20.2699 34.9949 20.3968 34.949C20.5237 34.9031 20.6389 34.8298 20.7344 34.7344C20.8298 34.6389 20.9031 34.5237 20.949 34.3968C20.9949 34.2699 21.0123 34.1344 21 34L17 15C18.4485 15.5166 19.7041 16.4643 20.598 17.7157C21.4918 18.9671 21.9811 20.4622 22 22C22 22.5304 22.2107 23.0391 22.5858 23.4142C22.9609 23.7893 23.4696 24 24 24C24.5304 24 25.0391 23.7893 25.4142 23.4142C25.7893 23.0391 26 22.5304 26 22C26 15.05 20.53 10 13 10Z" fill="currentColor"/>
<path d="M12.9902 8C15.1994 8 16.9902 6.20914 16.9902 4C16.9902 1.79086 15.1994 0 12.9902 0C10.7811 0 8.99023 1.79086 8.99023 4C8.99023 6.20914 10.7811 8 12.9902 8Z" fill="currentColor"/>
</g>
<defs>
<clipPath id="clip0_7271_53849">
<rect width="25.987" height="48" fill="white" transform="translate(33)"/>
</clipPath>
<clipPath id="clip1_7271_53849">
<rect width="25.99" height="48" fill="white"/>
</clipPath>
</defs>
</svg>
