<svg width="48" height="48" viewBox="0 0 48 48" fill="none" xmlns="http://www.w3.org/2000/svg">
<g clip-path="url(#clip0_6013_51683)">
<path d="M46.5 19.001C46.1022 19.001 45.7206 19.159 45.4393 19.4403C45.158 19.7216 45 20.1032 45 20.501V22.001H40.872C40.5069 18.8907 39.2848 15.9431 37.342 13.487L40.263 10.566L41.439 11.562C41.7204 11.8434 42.102 12.0015 42.5 12.0015C42.898 12.0015 43.2796 11.8434 43.561 11.562C43.8424 11.2806 44.0005 10.8989 44.0005 10.501C44.0005 10.103 43.8424 9.72137 43.561 9.43998L38.561 4.43998C38.2796 4.15858 37.898 4.0005 37.5 4.0005C37.102 4.0005 36.7204 4.15858 36.439 4.43998C36.1576 4.72137 35.9995 5.10302 35.9995 5.50098C35.9995 5.89893 36.1576 6.28058 36.439 6.56198L37.435 7.73698L34.514 10.659C32.0579 8.71621 29.1102 7.49409 26 7.12898V3.00098H27.5C27.8978 3.00098 28.2794 2.84294 28.5607 2.56164C28.842 2.28033 29 1.8988 29 1.50098C29 1.10315 28.842 0.721621 28.5607 0.440316C28.2794 0.159012 27.8978 0.000976563 27.5 0.000976563L20.5 0.000976562C20.1022 0.000976563 19.7206 0.159012 19.4393 0.440316C19.158 0.721621 19 1.10315 19 1.50098C19 1.8988 19.158 2.28033 19.4393 2.56164C19.7206 2.84294 20.1022 3.00098 20.5 3.00098H22V7.12898C18.8898 7.49409 15.9421 8.71621 13.486 10.659L10.565 7.73698L11.561 6.56198C11.8424 6.28058 12.0005 5.89893 12.0005 5.50098C12.0005 5.10302 11.8424 4.72137 11.561 4.43998C11.2796 4.15858 10.898 4.0005 10.5 4.0005C10.102 4.0005 9.7204 4.15858 9.439 4.43998L4.555 9.43998C4.28163 9.72275 4.13025 10.1016 4.13348 10.4949C4.13672 10.8882 4.29429 11.2645 4.57227 11.5427C4.85026 11.821 5.2264 11.9789 5.6197 11.9825C6.01299 11.9861 6.39197 11.8351 6.675 11.562L7.737 10.566L10.657 13.487C8.71459 15.9432 7.49282 18.8908 7.128 22.001H3V20.501C3 20.1032 2.84196 19.7216 2.56066 19.4403C2.27936 19.159 1.89782 19.001 1.5 19.001C1.10218 19.001 0.720644 19.159 0.43934 19.4403C0.158035 19.7216 0 20.1032 0 20.501L0 27.501C0 27.8988 0.158035 28.2803 0.43934 28.5616C0.720644 28.8429 1.10218 29.001 1.5 29.001C1.89782 29.001 2.27936 28.8429 2.56066 28.5616C2.84196 28.2803 3 27.8988 3 27.501V26.001H7.128C7.49311 29.1112 8.71523 32.0588 10.658 34.515L7.737 37.436L6.561 36.44C6.42167 36.3006 6.25626 36.1901 6.07421 36.1147C5.89216 36.0393 5.69705 36.0005 5.5 36.0005C5.30295 36.0005 5.10784 36.0393 4.92579 36.1147C4.74374 36.1901 4.57833 36.3006 4.439 36.44C4.29967 36.5793 4.18914 36.7447 4.11374 36.9268C4.03833 37.1088 3.99952 37.3039 3.99952 37.501C3.99952 37.698 4.03833 37.8931 4.11374 38.0752C4.18914 38.2572 4.29967 38.4226 4.439 38.562L9.439 43.562C9.57833 43.7013 9.74374 43.8118 9.92579 43.8872C10.1078 43.9626 10.303 44.0015 10.5 44.0015C10.697 44.0015 10.8922 43.9626 11.0742 43.8872C11.2563 43.8118 11.4217 43.7013 11.561 43.562C11.7003 43.4226 11.8109 43.2572 11.8863 43.0752C11.9617 42.8931 12.0005 42.698 12.0005 42.501C12.0005 42.3039 11.9617 42.1088 11.8863 41.9268C11.8109 41.7447 11.7003 41.5793 11.561 41.44L10.565 40.265L13.486 37.343C15.9421 39.2857 18.8898 40.5079 22 40.873V45.001H20.5C20.1022 45.001 19.7206 45.159 19.4393 45.4403C19.158 45.7216 19 46.1032 19 46.501C19 46.8988 19.158 47.2803 19.4393 47.5616C19.7206 47.8429 20.1022 48.001 20.5 48.001H27.5C27.8978 48.001 28.2794 47.8429 28.5607 47.5616C28.842 47.2803 29 46.8988 29 46.501C29 46.1032 28.842 45.7216 28.5607 45.4403C28.2794 45.159 27.8978 45.001 27.5 45.001H26V40.873C29.1102 40.5079 32.0579 39.2857 34.514 37.343L37.435 40.265L36.439 41.44C36.2997 41.5793 36.1891 41.7447 36.1137 41.9268C36.0383 42.1088 35.9995 42.3039 35.9995 42.501C35.9995 42.698 36.0383 42.8931 36.1137 43.0752C36.1891 43.2572 36.2997 43.4226 36.439 43.562C36.5783 43.7013 36.7437 43.8118 36.9258 43.8872C37.1078 43.9626 37.303 44.0015 37.5 44.0015C37.697 44.0015 37.8922 43.9626 38.0742 43.8872C38.2563 43.8118 38.4217 43.7013 38.561 43.562L43.561 38.562C43.7003 38.4226 43.8109 38.2572 43.8863 38.0752C43.9617 37.8931 44.0005 37.698 44.0005 37.501C44.0005 37.3039 43.9617 37.1088 43.8863 36.9268C43.8109 36.7447 43.7003 36.5793 43.561 36.44C43.4217 36.3006 43.2563 36.1901 43.0742 36.1147C42.8922 36.0393 42.697 36.0005 42.5 36.0005C42.303 36.0005 42.1078 36.0393 41.9258 36.1147C41.7437 36.1901 41.5783 36.3006 41.439 36.44L40.263 37.436L37.343 34.515C39.2854 32.0587 40.5072 29.1111 40.872 26.001H45V27.501C45 27.8988 45.158 28.2803 45.4393 28.5616C45.7206 28.8429 46.1022 29.001 46.5 29.001C46.8978 29.001 47.2794 28.8429 47.5607 28.5616C47.842 28.2803 48 27.8988 48 27.501V20.501C48 20.1032 47.842 19.7216 47.5607 19.4403C47.2794 19.159 46.8978 19.001 46.5 19.001ZM18.5 20.001C17.8078 20.001 17.1311 19.7957 16.5555 19.4111C15.9799 19.0265 15.5313 18.4799 15.2664 17.8404C15.0015 17.2008 14.9322 16.4971 15.0673 15.8182C15.2023 15.1392 15.5356 14.5156 16.0251 14.0261C16.5146 13.5366 17.1383 13.2033 17.8172 13.0682C18.4961 12.9332 19.1999 13.0025 19.8394 13.2674C20.4789 13.5323 21.0256 13.9809 21.4101 14.5565C21.7947 15.1321 22 15.8087 22 16.501C22 17.4292 21.6313 18.3195 20.9749 18.9759C20.3185 19.6322 19.4283 20.001 18.5 20.001ZM30 33.001C29.6044 33.001 29.2178 32.8837 28.8889 32.6639C28.56 32.4442 28.3036 32.1318 28.1522 31.7663C28.0009 31.4009 27.9613 30.9988 28.0384 30.6108C28.1156 30.2228 28.3061 29.8665 28.5858 29.5868C28.8655 29.3071 29.2219 29.1166 29.6098 29.0394C29.9978 28.9622 30.3999 29.0018 30.7654 29.1532C31.1308 29.3046 31.4432 29.5609 31.6629 29.8898C31.8827 30.2187 32 30.6054 32 31.001C32 31.5314 31.7893 32.0401 31.4142 32.4152C31.0391 32.7903 30.5304 33.001 30 33.001Z" fill="black"/>
</g>
<defs>
<clipPath id="clip0_6013_51683">
<rect width="48" height="48" fill="white" transform="translate(0 0.000976562)"/>
</clipPath>
</defs>
</svg>
