<svg width="48" height="32" viewBox="0 0 48 32" fill="none" xmlns="http://www.w3.org/2000/svg">
<g clip-path="url(#clip0_6013_51685)">
<path d="M40.3636 0.940977V0.000976562L48 7.00098H41.2145C41.1028 7.00098 40.9922 6.9808 40.8889 6.9416C40.7857 6.9024 40.6919 6.84495 40.6129 6.77252C40.5339 6.70009 40.4712 6.6141 40.4284 6.51947C40.3857 6.42484 40.3636 6.32341 40.3636 6.22098V0.940977ZM48 9.00098V30.001C48 30.5314 47.7701 31.0401 47.361 31.4152C46.9518 31.7903 46.3968 32.001 45.8182 32.001H2.18182C1.60316 32.001 1.04821 31.7903 0.63904 31.4152C0.22987 31.0401 0 30.5314 0 30.001V2.00098C0 1.47054 0.22987 0.961836 0.63904 0.586763C1.04821 0.21169 1.60316 0.000976563 2.18182 0.000976563L38.1818 0.000976562V6.22098C38.1827 6.95803 38.5025 7.66468 39.071 8.18586C39.6396 8.70704 40.4105 9.00018 41.2145 9.00098H48ZM12 21.001V15.001C12 14.7358 12.1149 14.4814 12.3195 14.2939C12.5241 14.1063 12.8016 14.001 13.0909 14.001H16.3636C16.653 14.001 16.9304 13.8956 17.135 13.7081C17.3396 13.5205 17.4545 13.2662 17.4545 13.001C17.4545 12.7358 17.3396 12.4814 17.135 12.2939C16.9304 12.1063 16.653 12.001 16.3636 12.001H13.0909C12.2232 12.0018 11.3913 12.3181 10.7777 12.8805C10.1641 13.443 9.81905 14.2056 9.81818 15.001V21.001C9.81905 21.7964 10.1641 22.559 10.7777 23.1214C11.3913 23.6839 12.2232 24.0002 13.0909 24.001H16.3636C16.653 24.001 16.9304 23.8956 17.135 23.7081C17.3396 23.5205 17.4545 23.2662 17.4545 23.001C17.4545 22.7358 17.3396 22.4814 17.135 22.2939C16.9304 22.1063 16.653 22.001 16.3636 22.001H13.0909C12.8016 22.001 12.5241 21.8956 12.3195 21.7081C12.1149 21.5205 12 21.2662 12 21.001ZM27.2727 20.001C27.2719 19.2056 26.9268 18.443 26.3132 17.8805C25.6996 17.3181 24.8677 17.0018 24 17.001H22.9091C22.6198 17.001 22.3423 16.8956 22.1377 16.7081C21.9331 16.5205 21.8182 16.2662 21.8182 16.001V15.001C21.8182 14.7358 21.9331 14.4814 22.1377 14.2939C22.3423 14.1063 22.6198 14.001 22.9091 14.001H25.0909C25.3802 14.001 25.6577 13.8956 25.8623 13.7081C26.0669 13.5205 26.1818 13.2662 26.1818 13.001C26.1818 12.7358 26.0669 12.4814 25.8623 12.2939C25.6577 12.1063 25.3802 12.001 25.0909 12.001H22.9091C22.0414 12.0018 21.2094 12.3181 20.5959 12.8805C19.9823 13.443 19.6372 14.2056 19.6364 15.001V16.001C19.6372 16.7964 19.9823 17.559 20.5959 18.1214C21.2094 18.6839 22.0414 19.0002 22.9091 19.001H24C24.2893 19.001 24.5668 19.1063 24.7714 19.2939C24.976 19.4814 25.0909 19.7358 25.0909 20.001V21.001C25.0909 21.2662 24.976 21.5205 24.7714 21.7081C24.5668 21.8956 24.2893 22.001 24 22.001H20.7273C20.4379 22.001 20.1605 22.1063 19.9559 22.2939C19.7513 22.4814 19.6364 22.7358 19.6364 23.001C19.6364 23.2662 19.7513 23.5205 19.9559 23.7081C20.1605 23.8956 20.4379 24.001 20.7273 24.001H24C24.8677 24.0002 25.6996 23.6839 26.3132 23.1214C26.9268 22.559 27.2719 21.7964 27.2727 21.001V20.001ZM36.3131 12.043C36.0361 11.9682 35.738 11.9966 35.4837 12.122C35.2294 12.2475 35.0394 12.4598 34.9549 12.713L32.7273 19.521L30.4996 12.714C30.4166 12.4599 30.2269 12.2465 29.9721 12.1206C29.7174 11.9948 29.4186 11.9669 29.1415 12.043C28.8643 12.1191 28.6314 12.293 28.4942 12.5265C28.3569 12.76 28.3264 13.0339 28.4095 13.288L31.6822 23.288C31.7495 23.4941 31.8875 23.6748 32.0758 23.8033C32.2641 23.9318 32.4925 24.0012 32.7273 24.0012C32.962 24.0012 33.1905 23.9318 33.3787 23.8033C33.567 23.6748 33.7051 23.4941 33.7724 23.288L37.0451 13.288C37.1282 13.034 37.0979 12.7602 36.9608 12.5268C36.8238 12.2933 36.5901 12.1193 36.3131 12.043Z" fill="black"/>
</g>
<defs>
<clipPath id="clip0_6013_51685">
<rect width="48" height="32" fill="white" transform="translate(0 0.000976562)"/>
</clipPath>
</defs>
</svg>
