<svg width="48" height="48" viewBox="0 0 48 48" fill="none" xmlns="http://www.w3.org/2000/svg">
<g clip-path="url(#clip0_6013_51687)">
<path d="M47.6092 24.281L47.5692 24.211C47.176 23.5329 46.5309 23.0378 45.7744 22.8336C45.018 22.6294 44.2115 22.7327 43.5308 23.1209L38.8926 25.8011C39.2834 22.6618 38.6599 19.4797 37.1133 16.7204C37.0864 16.6589 37.0563 16.5988 37.0234 16.5404L36.9934 16.5004L28.3268 1.47911C28.1325 1.1429 27.874 0.848259 27.5659 0.612021C27.2578 0.375783 26.9062 0.202571 26.5312 0.102275C26.1562 0.001979 25.7651 -0.0234366 25.3803 0.0274793C24.9955 0.0783951 24.6244 0.204645 24.2884 0.399021L24.2084 0.439025C23.5334 0.834932 23.0415 1.48108 22.8394 2.2374C22.6373 2.99372 22.7413 3.79925 23.1289 4.47936L25.7978 9.10975C22.5935 8.71737 19.3485 9.37721 16.5515 10.9899L16.4415 11.0499L1.47743 19.7006C1.14137 19.895 0.846877 20.1537 0.610752 20.4619C0.374627 20.7702 0.201498 21.1219 0.10125 21.4971C0.00100242 21.8723 -0.024401 22.2635 0.0264905 22.6485C0.0773819 23.0336 0.203572 23.4048 0.397854 23.741L0.437839 23.811C0.632116 24.1472 0.890682 24.4418 1.19877 24.6781C1.50687 24.9143 1.85845 25.0875 2.23345 25.1878C2.60845 25.2881 2.99953 25.3135 3.38434 25.2626C3.76916 25.2117 4.14019 25.0854 4.47624 24.8911L9.1244 22.2108C8.73785 25.3936 9.38629 28.6164 10.9737 31.4016C10.9791 31.4266 10.9893 31.4504 11.0037 31.4716L11.0236 31.5016L19.6902 46.5229C20.0831 47.2013 20.729 47.696 21.4861 47.8985C22.2433 48.101 23.0497 47.9947 23.7286 47.603L23.8086 47.563C24.4855 47.1687 24.9789 46.5225 25.1812 45.7655C25.3835 45.0085 25.2781 44.2022 24.8882 43.5226L22.2192 38.8922C25.2929 39.2762 28.4093 38.6814 31.1257 37.1921C31.2461 37.1398 31.363 37.0797 31.4756 37.0121L31.5055 36.9921L46.5296 28.3213C47.2047 27.9254 47.6966 27.2793 47.8986 26.523C48.1007 25.7667 47.9967 24.9611 47.6092 24.281ZM16.2216 28.5014C16.2116 28.4914 16.2116 28.4814 16.2016 28.4714C15.0264 26.4176 14.7073 23.9832 15.3135 21.6957C15.9197 19.4082 17.4024 17.4518 19.4403 16.2503C19.4603 16.2403 19.4903 16.2203 19.5103 16.2103C19.5303 16.2003 19.5403 16.1903 19.5603 16.1803C21.6138 15.0104 24.0448 14.6955 26.3285 15.3036C28.6121 15.9117 30.565 17.3941 31.7654 19.4306C31.7754 19.4506 31.7954 19.4806 31.8054 19.5006C31.8154 19.5206 31.8254 19.5306 31.8354 19.5506C33.0088 21.6189 33.3173 24.0673 32.6938 26.3622C32.0702 28.6571 30.5652 30.6123 28.5067 31.8016C28.4967 31.8116 28.4867 31.8116 28.4767 31.8216C26.4104 33.0022 23.9607 33.3157 21.6639 32.6934C19.367 32.0711 17.4102 30.5638 16.2216 28.5014Z" fill="black"/>
</g>
<defs>
<clipPath id="clip0_6013_51687">
<rect width="48" height="48" fill="white" transform="translate(0 0.000976562)"/>
</clipPath>
</defs>
</svg>
