<svg width="48" height="44" viewBox="0 0 48 44" fill="none" xmlns="http://www.w3.org/2000/svg">
<g clip-path="url(#clip0_6013_51689)">
<path d="M24 0.000976562C19.2533 0.000976562 14.6131 1.29125 10.6663 3.70865C6.71955 6.12604 3.64341 9.56197 1.8269 13.5819C0.0103989 17.6019 -0.464881 22.0254 0.461164 26.293C1.38721 30.5605 3.67299 34.4806 7.02945 37.5573C10.3859 40.6341 14.6623 42.7294 19.3178 43.5783C23.9734 44.4271 28.799 43.9915 33.1844 42.3263C37.5698 40.6612 41.3181 37.8414 43.9553 34.2235C46.5924 30.6056 48 26.3522 48 22.001C48 16.1662 45.4715 10.5704 40.9706 6.44463C36.4697 2.31883 30.3652 0.000976563 24 0.000976562ZM24 39.001C23.3527 39.001 22.72 38.825 22.1818 38.4954C21.6436 38.1657 21.2241 37.6972 20.9764 37.149C20.7287 36.6008 20.6639 35.9977 20.7902 35.4157C20.9164 34.8338 21.2281 34.2992 21.6858 33.8797C22.1435 33.4601 22.7267 33.1744 23.3615 33.0586C23.9964 32.9429 24.6544 33.0023 25.2524 33.2293C25.8504 33.4564 26.3616 33.8409 26.7212 34.3343C27.0808 34.8276 27.2727 35.4076 27.2727 36.001C27.2733 36.3951 27.1891 36.7854 27.0248 37.1497C26.8605 37.5139 26.6195 37.8448 26.3155 38.1235C26.0114 38.4021 25.6504 38.6231 25.2531 38.7737C24.8558 38.9243 24.43 39.0015 24 39.001ZM27.2727 26.001C27.2727 26.7966 26.9279 27.5597 26.3142 28.1223C25.7004 28.6849 24.868 29.001 24 29.001C23.132 29.001 22.2996 28.6849 21.6858 28.1223C21.0721 27.5597 20.7273 26.7966 20.7273 26.001V8.00098C20.7273 7.20533 21.0721 6.44227 21.6858 5.87966C22.2996 5.31705 23.132 5.00098 24 5.00098C24.868 5.00098 25.7004 5.31705 26.3142 5.87966C26.9279 6.44227 27.2727 7.20533 27.2727 8.00098V26.001Z" fill="black"/>
</g>
<defs>
<clipPath id="clip0_6013_51689">
<rect width="48" height="44" fill="white" transform="translate(0 0.000976562)"/>
</clipPath>
</defs>
</svg>
