<svg width="48" height="48" viewBox="0 0 48 48" fill="none" xmlns="http://www.w3.org/2000/svg">
<g clip-path="url(#clip0_6013_51691)">
<path d="M12.2741 24.001H15.6217V26.001C15.6234 26.531 15.8591 27.0388 16.2773 27.4135C16.6954 27.7882 17.262 27.9994 17.8534 28.001H29.012C29.6034 27.9994 30.17 27.7882 30.5882 27.4135C31.0063 27.0388 31.242 26.531 31.2438 26.001V24.001H34.5914C35.4418 24.0014 36.2605 23.7114 36.8808 23.19C37.5011 22.6686 37.8765 21.955 37.9305 21.1944C37.9845 20.4338 37.7132 19.6833 37.1716 19.0956C36.6301 18.508 35.859 18.1273 35.0154 18.031C36.196 16.2072 36.8195 14.1367 36.8231 12.0282C36.8267 9.91967 36.2103 7.84752 35.036 6.02041C33.8616 4.19329 32.1708 2.67573 30.1338 1.62053C28.0968 0.565337 25.7855 0.00976562 23.4327 0.00976562C21.0799 0.00976562 18.7686 0.565337 16.7316 1.62053C14.6946 2.67573 13.0038 4.19329 11.8295 6.02041C10.6551 7.84752 10.0388 9.91967 10.0424 12.0282C10.046 14.1367 10.6695 16.2072 11.85 18.031C11.1148 18.1113 10.431 18.4106 9.90844 18.881C9.43978 19.3002 9.12046 19.8346 8.99092 20.4165C8.86138 20.9984 8.92745 21.6017 9.18076 22.15C9.43407 22.6982 9.86323 23.1668 10.4139 23.4963C10.9645 23.8258 11.6119 24.0015 12.2741 24.001ZM22.3169 19.001V21.001C22.3169 21.2662 22.1993 21.5206 21.99 21.7081C21.7808 21.8957 21.4969 22.001 21.201 22.001C20.905 22.001 20.6212 21.8957 20.412 21.7081C20.2027 21.5206 20.0851 21.2662 20.0851 21.001V19.001C20.0851 18.7358 20.2027 18.4815 20.412 18.2939C20.6212 18.1064 20.905 18.001 21.201 18.001C21.4969 18.001 21.7808 18.1064 21.99 18.2939C22.1993 18.4815 22.3169 18.7358 22.3169 19.001ZM24.5486 19.001C24.5486 18.7358 24.6661 18.4815 24.8754 18.2939C25.0847 18.1064 25.3685 18.001 25.6644 18.001C25.9604 18.001 26.2442 18.1064 26.4535 18.2939C26.6627 18.4815 26.7803 18.7358 26.7803 19.001V21.001C26.7803 21.2662 26.6627 21.5206 26.4535 21.7081C26.2442 21.8957 25.9604 22.001 25.6644 22.001C25.3685 22.001 25.0847 21.8957 24.8754 21.7081C24.6661 21.5206 24.5486 21.2662 24.5486 21.001V19.001ZM29.57 10.001C30.1217 10.001 30.6611 10.1476 31.1198 10.4224C31.5786 10.6971 31.9361 11.0875 32.1473 11.5443C32.3584 12.0011 32.4137 12.5038 32.306 12.9888C32.1984 13.4737 31.9327 13.9192 31.5426 14.2688C31.1524 14.6184 30.6553 14.8565 30.1142 14.953C29.5731 15.0495 29.0122 14.9999 28.5024 14.8107C27.9927 14.6215 27.557 14.3011 27.2505 13.89C26.9439 13.4788 26.7803 12.9955 26.7803 12.501C26.7803 11.838 27.0742 11.2021 27.5974 10.7333C28.1205 10.2644 28.8301 10.001 29.57 10.001ZM17.2955 10.001C17.8472 10.001 18.3866 10.1476 18.8453 10.4224C19.3041 10.6971 19.6616 11.0875 19.8728 11.5443C20.0839 12.0011 20.1392 12.5038 20.0315 12.9888C19.9239 13.4737 19.6582 13.9192 19.2681 14.2688C18.8779 14.6184 18.3808 14.8565 17.8397 14.953C17.2986 15.0495 16.7376 14.9999 16.2279 14.8107C15.7182 14.6215 15.2825 14.3011 14.9759 13.89C14.6694 13.4788 14.5058 12.9955 14.5058 12.501C14.5058 11.838 14.7997 11.2021 15.3229 10.7333C15.846 10.2644 16.5556 10.001 17.2955 10.001Z" fill="black"/>
<path d="M45.8875 30.0749L44.6422 29.7949L45.3184 28.8369C45.5143 28.5595 45.6473 28.2502 45.7099 27.9267C45.7724 27.6032 45.7632 27.2718 45.6829 26.9515C45.6025 26.6312 45.4526 26.3282 45.2415 26.0598C45.0305 25.7915 44.7626 25.563 44.453 25.3874C43.8278 25.0328 43.0711 24.9153 42.3492 25.0607C41.6273 25.2062 40.9995 25.6026 40.6038 26.1629L38.3119 29.4099L23.4329 34.9999L8.82515 29.5169L7.63899 26.6359C7.51731 26.3221 7.32707 26.0332 7.07938 25.7861C6.83169 25.5389 6.53153 25.3385 6.19642 25.1965C5.86131 25.0545 5.49799 24.9737 5.12767 24.959C4.75736 24.9443 4.38748 24.9958 4.03964 25.1106C3.69181 25.2255 3.373 25.4013 3.10185 25.6278C2.83069 25.8543 2.61262 26.1269 2.46038 26.4298C2.30814 26.7327 2.22479 27.0597 2.21519 27.3918C2.20559 27.7239 2.26994 28.0543 2.40447 28.3639L2.99811 29.8099L1.92465 30.1229C1.22119 30.3286 0.637709 30.7762 0.302571 31.3675C-0.0325667 31.9587 -0.0919103 32.645 0.137595 33.2754C0.367101 33.9058 0.866656 34.4287 1.52636 34.729C2.18607 35.0294 2.95189 35.0826 3.65536 34.8769L6.4651 34.0559L15.6219 37.4999L10.8504 39.3179L8.50044 38.2649C7.84198 37.99 7.08983 37.9561 6.40393 38.1704C5.71802 38.3848 5.15246 38.8304 4.82749 39.4126C4.50251 39.9948 4.44376 40.6677 4.66372 41.2881C4.88368 41.9085 5.36501 42.4275 6.00537 42.7349L7.3232 43.3269L6.81214 44.7189C6.581 45.3488 6.63855 46.0352 6.97212 46.627C7.30569 47.2189 7.88795 47.6678 8.59082 47.8749C9.29369 48.082 10.0596 48.0304 10.72 47.7315C11.3805 47.4326 11.8814 46.9108 12.1125 46.2809L12.9717 43.9429L23.4184 39.9999L33.8685 43.9439L34.7333 46.2849C34.9767 46.9016 35.4802 47.4082 36.1357 47.696C36.7911 47.9838 37.5464 48.03 38.2393 47.8246C38.9323 47.6191 39.5079 47.1784 39.8425 46.5971C40.1771 46.0157 40.2441 45.34 40.0292 44.7149L39.5192 43.3319L40.8527 42.7389C41.1865 42.596 41.4852 42.3951 41.7316 42.1478C41.9779 41.9005 42.1669 41.6117 42.2875 41.2983C42.4082 40.985 42.4581 40.6532 42.4343 40.3224C42.4105 39.9916 42.3136 39.6683 42.1491 39.3713C41.9846 39.0744 41.7559 38.8098 41.4762 38.5928C41.1965 38.3758 40.8715 38.2109 40.52 38.1075C40.1685 38.0042 39.7976 37.9645 39.4289 37.9909C39.0601 38.0172 38.7009 38.109 38.3721 38.2609L35.992 39.3199L31.244 37.4999L40.4822 34.0169L44.5306 34.9249C44.7531 34.9752 44.9817 35.0007 45.2112 35.0009C45.8925 35.0012 46.5502 34.7781 47.0606 34.3737C47.5709 33.9693 47.8984 33.4116 47.9815 32.8056C48.0645 32.1997 47.8973 31.5875 47.5114 31.0845C47.1254 30.5814 46.5485 30.2223 45.8875 30.0749Z" fill="black"/>
</g>
<defs>
<clipPath id="clip0_6013_51691">
<rect width="48" height="48" fill="white" transform="translate(0 0.000976562)"/>
</clipPath>
</defs>
</svg>
