<svg width="48" height="48" viewBox="0 0 48 48" fill="none" xmlns="http://www.w3.org/2000/svg">
<g clip-path="url(#clip0_6013_51695)">
<path d="M44 0.000976562H4C2.93913 0.000976563 1.92172 0.317047 1.17157 0.879656C0.421427 1.44227 0 2.20533 0 3.00098L0 45.001C0 45.7966 0.421427 46.5597 1.17157 47.1223C1.92172 47.6849 2.93913 48.001 4 48.001H44C45.0609 48.001 46.0783 47.6849 46.8284 47.1223C47.5786 46.5597 48 45.7966 48 45.001V3.00098C48 2.20533 47.5786 1.44227 46.8284 0.879656C46.0783 0.317047 45.0609 0.000976563 44 0.000976562ZM42.6667 44.001H5.33333V4.00098H42.6667V44.001Z" fill="black"/>
<path d="M30.0803 13.561L30.667 13.122V20.501C30.667 20.8988 30.8777 21.2803 31.2528 21.5616C31.6279 21.8429 32.1366 22.001 32.667 22.001C33.1974 22.001 33.7061 21.8429 34.0812 21.5616C34.4563 21.2803 34.667 20.8988 34.667 20.501V9.50098C34.6666 9.2045 34.5492 8.91474 34.3294 8.66831C34.1096 8.42188 33.7974 8.22983 33.4321 8.1164C33.0669 8.00298 32.665 7.97328 32.2773 8.03105C31.8896 8.08881 31.5334 8.23146 31.2537 8.44098L27.2537 11.441C26.9004 11.7253 26.708 12.1014 26.7172 12.49C26.7263 12.8786 26.9362 13.2494 27.3027 13.5242C27.6691 13.799 28.1635 13.9565 28.6816 13.9633C29.1997 13.9702 29.7012 13.8259 30.0803 13.561ZM18.7657 26.115C18.4002 26.0014 17.998 25.9716 17.6099 26.0294C17.2219 26.0873 16.8654 26.2302 16.5857 26.44L12.5857 29.44C12.3999 29.5793 12.2525 29.7447 12.152 29.9268C12.0514 30.1088 11.9997 30.3039 11.9997 30.501C11.9997 30.698 12.0514 30.8931 12.152 31.0752C12.2525 31.2572 12.3999 31.4226 12.5857 31.562C12.9609 31.8434 13.4697 32.0015 14.0003 32.0015C14.2631 32.0015 14.5232 31.9626 14.7659 31.8872C15.0087 31.8118 15.2292 31.7013 15.415 31.562L16.0003 31.122V38.501C16.0003 38.8988 16.211 39.2803 16.5861 39.5616C16.9612 39.8429 17.4699 40.001 18.0003 40.001C18.5308 40.001 19.0395 39.8429 19.4145 39.5616C19.7896 39.2803 20.0003 38.8988 20.0003 38.501V27.501C20.0004 27.2043 19.8831 26.9142 19.6633 26.6675C19.4435 26.4208 19.1312 26.2285 18.7657 26.115ZM29.3337 40.001H33.3337C34.3945 40.001 35.4119 39.6849 36.1621 39.1223C36.9122 38.5597 37.3337 37.7966 37.3337 37.001V29.001C37.3337 28.2053 36.9122 27.4423 36.1621 26.8797C35.4119 26.317 34.3945 26.001 33.3337 26.001H29.3337C28.2728 26.001 27.2554 26.317 26.5052 26.8797C25.7551 27.4423 25.3337 28.2053 25.3337 29.001V37.001C25.3337 37.7966 25.7551 38.5597 26.5052 39.1223C27.2554 39.6849 28.2728 40.001 29.3337 40.001ZM29.3337 29.001H33.3337V37.001H29.3337V29.001ZM14.667 22.001H18.667C19.7279 22.001 20.7453 21.6849 21.4954 21.1223C22.2456 20.5597 22.667 19.7966 22.667 19.001V11.001C22.667 10.2053 22.2456 9.44227 21.4954 8.87966C20.7453 8.31705 19.7279 8.00098 18.667 8.00098H14.667C13.6061 8.00098 12.5887 8.31705 11.8386 8.87966C11.0884 9.44227 10.667 10.2053 10.667 11.001V19.001C10.667 19.7966 11.0884 20.5597 11.8386 21.1223C12.5887 21.6849 13.6061 22.001 14.667 22.001ZM14.667 11.001H18.667V19.001H14.667V11.001Z" fill="black"/>
</g>
<defs>
<clipPath id="clip0_6013_51695">
<rect width="48" height="48" fill="white" transform="translate(0 0.000976562)"/>
</clipPath>
</defs>
</svg>
