<svg width="48" height="48" viewBox="0 0 48 48" fill="none" xmlns="http://www.w3.org/2000/svg">
<g clip-path="url(#clip0_6013_51699)">
<path d="M33.1433 10.001C24.6736 10.001 18.2861 15.16 18.2861 22.001C18.2861 22.5314 18.5269 23.0401 18.9556 23.4152C19.3843 23.7903 19.9656 24.001 20.5718 24.001C21.1781 24.001 21.7594 23.7903 22.1881 23.4152C22.6167 23.0401 22.8576 22.5314 22.8576 22.001C22.8275 20.616 23.2394 19.2511 24.047 18.0596C24.8545 16.8681 26.0257 15.8972 27.429 15.256V46.001C27.429 46.5314 27.6698 47.0401 28.0985 47.4152C28.5271 47.7903 29.1085 48.001 29.7147 48.001C30.3209 48.001 30.9023 47.7903 31.3309 47.4152C31.7596 47.0401 32.0004 46.5314 32.0004 46.001V31.001H34.2861V46.001C34.2861 46.5314 34.5269 47.0401 34.9556 47.4152C35.3843 47.7903 35.9656 48.001 36.5718 48.001C37.1781 48.001 37.7594 47.7903 38.1881 47.4152C38.6167 47.0401 38.8576 46.5314 38.8576 46.001V15.256C40.2609 15.8972 41.4321 16.8681 42.2396 18.0596C43.0471 19.2511 43.459 20.616 43.429 22.001C43.429 22.5314 43.6698 23.0401 44.0985 23.4152C44.5271 23.7903 45.1085 24.001 45.7147 24.001C46.3209 24.001 46.9023 23.7903 47.3309 23.4152C47.7596 23.0401 48.0004 22.5314 48.0004 22.001C48.0004 15.16 41.613 10.001 33.1433 10.001Z" fill="black"/>
<path d="M33.1427 8.00098C35.6674 8.00098 37.7141 6.21012 37.7141 4.00098C37.7141 1.79184 35.6674 0.000976562 33.1427 0.000976562C30.618 0.000976562 28.5713 1.79184 28.5713 4.00098C28.5713 6.21012 30.618 8.00098 33.1427 8.00098Z" fill="black"/>
<path d="M9.14286 0.000976563C7.33458 0.000976563 5.5669 0.470168 4.06336 1.34922C2.55983 2.22827 1.38796 3.4777 0.695963 4.93951C0.00396143 6.40132 -0.177098 8.00985 0.175682 9.5617C0.528461 11.1135 1.39923 12.539 2.67789 13.6578C3.95654 14.7767 5.58564 15.5386 7.35918 15.8473C9.13272 16.1559 10.971 15.9975 12.6417 15.392C14.3123 14.7865 15.7402 13.7611 16.7449 12.4455C17.7495 11.1299 18.2857 9.58323 18.2857 8.00098C18.2857 5.87924 17.3225 3.84441 15.6078 2.34412C13.8932 0.843831 11.5677 0.000976563 9.14286 0.000976563ZM13.3943 10.301C13.6079 10.49 13.7276 10.7451 13.7276 11.011C13.7276 11.2768 13.6079 11.5319 13.3943 11.721C13.1776 11.9069 12.8863 12.011 12.5829 12.011C12.2794 12.011 11.9881 11.9069 11.7714 11.721L9.14286 9.41098L6.51429 11.721C6.29765 11.9069 6.00631 12.011 5.70286 12.011C5.39942 12.011 5.10808 11.9069 4.89143 11.721C4.67787 11.5319 4.5581 11.2768 4.5581 11.011C4.5581 10.7451 4.67787 10.49 4.89143 10.301L7.53143 8.00098L4.89143 5.70098C4.78487 5.60774 4.70035 5.49705 4.64268 5.37523C4.58501 5.2534 4.55533 5.12284 4.55533 4.99098C4.55533 4.85912 4.58501 4.72855 4.64268 4.60673C4.70035 4.48491 4.78487 4.37422 4.89143 4.28098C4.99799 4.18774 5.12449 4.11378 5.26372 4.06332C5.40294 4.01286 5.55217 3.98688 5.70286 3.98688C5.85356 3.98688 6.00278 4.01286 6.142 4.06332C6.28123 4.11378 6.40773 4.18774 6.51429 4.28098L9.14286 6.59098L11.7714 4.28098C11.9866 4.09267 12.2785 3.98689 12.5829 3.98689C12.8872 3.98689 13.1791 4.09267 13.3943 4.28098C13.6095 4.46928 13.7304 4.72467 13.7304 4.99098C13.7304 5.25728 13.6095 5.51267 13.3943 5.70098L10.7543 8.00098L13.3943 10.301Z" fill="black"/>
</g>
<defs>
<clipPath id="clip0_6013_51699">
<rect width="48" height="48" fill="white" transform="translate(0 0.000976562)"/>
</clipPath>
</defs>
</svg>
