<svg width="48" height="48" viewBox="0 0 48 48" fill="none" xmlns="http://www.w3.org/2000/svg">
<g clip-path="url(#clip0_6013_51704)">
<path d="M25.1987 7.57291C25.905 7.92918 26.7012 8.06798 27.4864 7.97178C28.2716 7.87558 29.0107 7.54869 29.6102 7.03245C30.2097 6.51621 30.6426 5.8338 30.8542 5.07152C31.0658 4.30924 31.0467 3.50132 30.7992 2.74993C30.5516 1.99853 30.0869 1.33741 29.4636 0.850167C28.8403 0.36292 28.0866 0.0714308 27.2977 0.0125583C26.5087 -0.0463143 25.7201 0.130074 25.0314 0.519419C24.3427 0.908764 23.785 1.49358 23.4287 2.19991C23.1921 2.66892 23.0502 3.17995 23.0111 3.7038C22.972 4.22765 23.0365 4.75407 23.2008 5.25301C23.3652 5.75194 23.6262 6.21361 23.969 6.61166C24.3118 7.00971 24.7296 7.33635 25.1987 7.57291Z" fill="black"/>
<path d="M42.5 25.0029C44.9853 25.0029 47 22.9882 47 20.5029C47 18.0176 44.9853 16.0029 42.5 16.0029C40.0147 16.0029 38 18.0176 38 20.5029C38 22.9882 40.0147 25.0029 42.5 25.0029Z" fill="black"/>
<path d="M40 36.0029C41.1046 36.0029 42 35.1075 42 34.0029C42 32.8984 41.1046 32.0029 40 32.0029C38.8954 32.0029 38 32.8984 38 34.0029C38 35.1075 38.8954 36.0029 40 36.0029Z" fill="black"/>
<path d="M44.5 40.0029C45.3284 40.0029 46 39.3314 46 38.5029C46 37.6745 45.3284 37.0029 44.5 37.0029C43.6716 37.0029 43 37.6745 43 38.5029C43 39.3314 43.6716 40.0029 44.5 40.0029Z" fill="black"/>
<path d="M44.9998 42.003H38.9498C38.8319 41.1716 38.4182 40.4105 37.7845 39.8594C37.1507 39.3084 36.3396 39.0043 35.4998 39.003H31.1918C30.6666 38.0905 29.9101 37.3325 28.9986 36.8054C28.0871 36.2784 27.0527 36.0009 25.9998 36.001H24.2758C25.0079 33.8591 25.1198 31.5539 24.5986 29.3511C24.0774 27.1483 22.9442 25.1377 21.3298 23.551L22.1758 21.874L26.9138 24.347C26.874 24.7391 26.9528 25.134 27.1398 25.4809C27.3268 25.8277 27.6135 26.1105 27.9629 26.2927C28.3124 26.4749 28.7084 26.5481 29.0998 26.5029C29.4913 26.4576 29.8602 26.2961 30.1588 26.039L37.4118 29.824C37.6258 29.9356 37.8635 29.9939 38.1048 29.994H45.8218C46.2196 29.994 46.6012 29.836 46.8825 29.5547C47.1638 29.2734 47.3218 28.8918 47.3218 28.494C47.3218 28.0962 47.1638 27.7147 46.8825 27.4334C46.6012 27.1521 46.2196 26.994 45.8218 26.994H38.4728L31.4058 23.306C32.8088 17.727 30.1358 12.049 24.6288 9.23303C24.5888 9.21103 24.5548 9.18002 24.5128 9.15902L23.0798 8.43603C22.6058 8.19681 22.0893 8.05331 21.5599 8.01371C21.0304 7.9741 20.4983 8.03917 19.994 8.2052C19.4897 8.37124 19.023 8.63498 18.6206 8.98137C18.2182 9.32776 17.888 9.75001 17.6488 10.224L12.9608 19.514C12.9308 19.5569 12.9024 19.6009 12.8758 19.646L4.52582 36.191C3.10882 36.5504 1.87187 37.4149 1.04749 38.6221C0.223103 39.8294 -0.131934 41.2961 0.0491144 42.7467C0.230163 44.1973 0.934828 45.5319 2.03065 46.4994C3.12646 47.467 4.53797 48.001 5.99982 48.001H44.9998C45.4002 48.0114 45.7985 47.9414 46.1714 47.7954C46.5443 47.6493 46.8842 47.4301 47.171 47.1506C47.4578 46.871 47.6858 46.5369 47.8414 46.1679C47.9971 45.7989 48.0773 45.4025 48.0773 45.002C48.0773 44.6015 47.9971 44.2051 47.8414 43.8361C47.6858 43.4671 47.4578 43.133 47.171 42.8535C46.8842 42.574 46.5443 42.3547 46.1714 42.2087C45.7985 42.0626 45.4002 41.9927 44.9998 42.003ZM9.10882 36.001L15.1088 24.111C15.185 24.1607 15.2646 24.2052 15.3468 24.244C20.0208 26.287 22.1108 31.113 20.2068 35.468C20.1358 35.6384 20.0887 35.8177 20.0668 36.001H9.10882ZM27.7048 21.374L23.5288 19.195L25.6558 14.982C26.4316 15.8409 27.0156 16.8551 27.3689 17.9573C27.7222 19.0594 27.8367 20.2242 27.7048 21.374Z" fill="black"/>
</g>
<defs>
<clipPath id="clip0_6013_51704">
<rect width="48" height="48" fill="white" transform="translate(0 0.000976562)"/>
</clipPath>
</defs>
</svg>
