<svg width="48" height="48" viewBox="0 0 48 48" fill="none" xmlns="http://www.w3.org/2000/svg">
<g clip-path="url(#clip0_6013_51711)">
<path d="M48 44.001V48.001H14V44.001C14 39.7575 15.6857 35.6879 18.6863 32.6873C21.6869 29.6867 25.7565 28.001 30 28.001H32C36.2435 28.001 40.3131 29.6867 43.3137 32.6873C46.3143 35.6879 48 39.7575 48 44.001ZM40 17.001C40 15.8191 39.7672 14.6488 39.3149 13.5568C38.8626 12.4649 38.1997 11.4727 37.364 10.637C36.5282 9.80129 35.5361 9.13836 34.4441 8.68607C33.3522 8.23377 32.1819 8.00098 31 8.00098C28.6131 8.00098 26.3239 8.94919 24.636 10.637C22.9482 12.3248 22 14.614 22 17.001C22 19.3879 22.9482 21.6771 24.636 23.3649C26.3239 25.0528 28.6131 26.001 31 26.001C32.1819 26.001 33.3522 25.7682 34.4441 25.3159C35.5361 24.8636 36.5282 24.2007 37.364 23.3649C38.1997 22.5292 38.8626 21.5371 39.3149 20.4451C39.7672 19.3532 40 18.1829 40 17.001ZM0 10.001C0 8.02317 0.58649 6.08977 1.6853 4.44528C2.78412 2.80079 4.3459 1.51906 6.17317 0.762186C8.00043 0.0053094 10.0111 -0.192724 11.9509 0.193128C13.8907 0.578981 15.6725 1.53139 17.0711 2.92991C18.4696 4.32844 19.422 6.11027 19.8079 8.05008C20.1937 9.98989 19.9957 12.0006 19.2388 13.8278C18.4819 15.6551 17.2002 17.2169 15.5557 18.3157C13.9112 19.4145 11.9778 20.001 10 20.001C7.34816 19.9999 4.80524 18.946 2.9301 17.0709C1.05497 15.1957 0.0010601 12.6528 0 10.001ZM8.58 10.001L5.29 13.291C5.10313 13.48 4.99833 13.7352 4.99833 14.001C4.99833 14.2668 5.10313 14.5219 5.29 14.711C5.47956 14.8969 5.73449 15.001 6 15.001C6.26551 15.001 6.52044 14.8969 6.71 14.711L10 11.421L13.29 14.711C13.4796 14.8969 13.7345 15.001 14 15.001C14.2655 15.001 14.5204 14.8969 14.71 14.711C14.8969 14.5219 15.0017 14.2668 15.0017 14.001C15.0017 13.7352 14.8969 13.48 14.71 13.291L11.42 10.001L14.71 6.71098C14.8032 6.61774 14.8772 6.50705 14.9277 6.38523C14.9781 6.26341 15.0041 6.13284 15.0041 6.00098C15.0041 5.86912 14.9781 5.73855 14.9277 5.61673C14.8772 5.49491 14.8032 5.38422 14.71 5.29098C14.6168 5.19774 14.5061 5.12378 14.3842 5.07332C14.2624 5.02286 14.1319 4.99689 14 4.99689C13.8681 4.99689 13.7376 5.02286 13.6158 5.07332C13.4939 5.12378 13.3832 5.19774 13.29 5.29098L10 8.58098L6.71 5.29098C6.5217 5.10268 6.2663 4.99689 6 4.99689C5.7337 4.99689 5.4783 5.10268 5.29 5.29098C5.1017 5.47928 4.99591 5.73468 4.99591 6.00098C4.99591 6.26728 5.1017 6.52268 5.29 6.71098L8.58 10.001Z" fill="black"/>
</g>
<defs>
<clipPath id="clip0_6013_51711">
<rect width="48" height="48" fill="white" transform="translate(0 0.000976562)"/>
</clipPath>
</defs>
</svg>
