<svg width="48" height="48" viewBox="0 0 48 48" fill="none" xmlns="http://www.w3.org/2000/svg">
<g clip-path="url(#clip0_6013_51713)">
<path d="M18.8617 23.8961C17.4632 22.6444 15.6341 21.9827 13.7581 22.0498C11.8821 22.1169 10.105 22.9077 8.79959 24.2561L0.660676 32.3918C0.451223 32.6011 0.285069 32.8496 0.171708 33.1231C0.0583472 33.3965 0 33.6897 0 33.9857C0 34.2817 0.0583472 34.5748 0.171708 34.8483C0.285069 35.1218 0.451223 35.3702 0.660676 35.5795L7.43577 42.3519C7.64512 42.5613 7.89369 42.7274 8.16727 42.8407C8.44086 42.954 8.73409 43.0123 9.03023 43.0123C9.32637 43.0123 9.61961 42.954 9.89319 42.8407C10.1668 42.7274 10.4153 42.5613 10.6247 42.3519L18.9948 33.9852C19.6601 33.3202 20.1855 32.5288 20.5399 31.6576C20.8943 30.7863 21.0705 29.853 21.0581 28.9125C21.0457 27.9721 20.8449 27.0437 20.4677 26.1821C20.0905 25.3206 19.5444 24.5432 18.8617 23.8961ZM47.7992 2.75167C47.4672 1.74363 46.7482 0.908717 45.8004 0.430587C44.8525 -0.047543 43.7535 -0.129719 42.7451 0.202136C41.7367 0.533991 40.9014 1.25269 40.4231 2.20014C39.9448 3.14758 39.8626 4.24616 40.1946 5.25419C40.5265 6.26222 41.2455 7.09714 42.1934 7.57527C42.6627 7.81201 43.174 7.95404 43.6983 7.99324C44.2225 8.03244 44.7493 7.96804 45.2486 7.80372C45.7479 7.6394 46.21 7.37838 46.6084 7.03556C47.0068 6.69275 47.3338 6.27484 47.5706 5.80572C47.8075 5.33659 47.9495 4.82543 47.9888 4.30141C48.028 3.7774 47.9635 3.25079 47.7992 2.75167Z" fill="black"/>
<path d="M44.4751 18.057C45.0454 16.8787 45.1242 15.5221 44.6941 14.2857C44.264 13.0493 43.3603 12.0342 42.1817 11.4637L39.5381 10.1304C39.3957 10.0591 39.2452 10.005 39.0899 9.96936C32.2357 6.98674 23.6505 10.2784 20.2115 16.9968C19.9615 17.4852 19.9158 18.0528 20.0845 18.5748C20.2532 19.0969 20.6224 19.5305 21.111 19.7804C21.5996 20.0303 22.1674 20.0759 22.6896 19.9073C23.2119 19.7387 23.6457 19.3696 23.8957 18.8812C24.954 16.9184 26.5748 15.3163 28.5501 14.2804C30.5254 13.2445 32.7652 12.822 34.9824 13.067L18.2112 44.9657C18.0867 45.2099 18.0115 45.4763 17.9899 45.7496C17.9683 46.0229 18.0008 46.2978 18.0855 46.5585C18.1702 46.8193 18.3054 47.0608 18.4835 47.2693C18.6615 47.4778 18.879 47.6492 19.1233 47.7737C19.3676 47.8983 19.6341 47.9734 19.9075 47.995C20.1809 48.0166 20.4559 47.9841 20.7168 47.8995C20.9776 47.8148 21.2193 47.6796 21.4279 47.5016C21.6365 47.3236 21.8079 47.1063 21.9325 46.862L31.2511 29.1394L35.0034 31.0157C37.3855 32.3302 39.1604 34.5221 39.9501 37.1249C40.7399 39.7277 40.4822 42.5359 39.2319 44.9516C39.1032 45.1951 39.024 45.4616 38.9987 45.7359C38.9735 46.0101 39.0028 46.2866 39.0849 46.5494C39.1671 46.8123 39.3004 47.0563 39.4773 47.2674C39.6542 47.4785 39.8711 47.6525 40.1156 47.7795C40.3601 47.9064 40.6273 47.9837 40.9018 48.007C41.1763 48.0303 41.4527 47.999 41.715 47.9151C41.9774 47.8311 42.2205 47.696 42.4305 47.5177C42.6404 47.3394 42.8129 47.1213 42.9382 46.876C44.5531 43.8867 45.0488 40.4198 44.3363 37.098C43.6238 33.7761 41.7498 30.8171 39.0508 28.7523L40.8169 25.3486L44.4751 18.057Z" fill="black"/>
</g>
<defs>
<clipPath id="clip0_6013_51713">
<rect width="48" height="48" fill="white" transform="translate(0 0.000976562)"/>
</clipPath>
</defs>
</svg>
