<svg width="48" height="44" viewBox="0 0 48 44" fill="none" xmlns="http://www.w3.org/2000/svg">
<g clip-path="url(#clip0_6013_51717)">
<path d="M24 0.000976562C19.2533 0.000976562 14.6131 1.29125 10.6663 3.70865C6.71955 6.12604 3.64341 9.56197 1.8269 13.5819C0.0103989 17.6019 -0.464881 22.0254 0.461164 26.293C1.38721 30.5605 3.67299 34.4806 7.02945 37.5573C10.3859 40.6341 14.6623 42.7294 19.3178 43.5783C23.9734 44.4271 28.799 43.9915 33.1844 42.3263C37.5698 40.6612 41.3181 37.8414 43.9553 34.2235C46.5924 30.6056 48 26.3522 48 22.001C48 16.1662 45.4715 10.5704 40.9706 6.44463C36.4697 2.31883 30.3652 0.000976563 24 0.000976562ZM35.04 27.881C35.6529 28.4435 35.9971 29.206 35.9971 30.001C35.9971 30.796 35.6529 31.5585 35.04 32.121C34.7366 32.3999 34.3761 32.6211 33.9793 32.7721C33.5824 32.9231 33.157 33.0008 32.7273 33.0008C32.2976 33.0008 31.8721 32.9231 31.4753 32.7721C31.0784 32.6211 30.718 32.3999 30.4146 32.121L24 26.001L17.5855 32.121C17.2821 32.3999 16.9216 32.6211 16.5247 32.7721C16.1279 32.9231 15.7024 33.0008 15.2727 33.0008C14.8431 33.0008 14.4176 32.9231 14.0207 32.7721C13.6239 32.6211 13.2634 32.3999 12.96 32.121C12.3471 31.5585 12.0029 30.796 12.0029 30.001C12.0029 29.206 12.3471 28.4435 12.96 27.881L19.6364 22.001L12.96 16.121C12.3466 15.5587 12.002 14.7961 12.002 14.001C12.002 13.6073 12.0866 13.2174 12.251 12.8536C12.4154 12.4899 12.6563 12.1594 12.96 11.881C13.2637 11.6026 13.6243 11.3817 14.0211 11.2311C14.4179 11.0804 14.8432 11.0028 15.2727 11.0028C16.1402 11.0028 16.9721 11.3187 17.5855 11.881L24 18.001L30.4146 11.881C31.0279 11.3187 31.8598 11.0028 32.7273 11.0028C33.1568 11.0028 33.5821 11.0804 33.9789 11.2311C34.3757 11.3817 34.7363 11.6026 35.04 11.881C35.3437 12.1594 35.5846 12.4899 35.749 12.8536C35.9134 13.2174 35.998 13.6073 35.998 14.001C35.998 14.3947 35.9134 14.7846 35.749 15.1483C35.5846 15.5121 35.3437 15.8426 35.04 16.121L28.3636 22.001L35.04 27.881Z" fill="black"/>
</g>
<defs>
<clipPath id="clip0_6013_51717">
<rect width="48" height="44" fill="white" transform="translate(0 0.000976562)"/>
</clipPath>
</defs>
</svg>
