<svg width="48" height="48" viewBox="0 0 48 48" fill="none" xmlns="http://www.w3.org/2000/svg">
<g clip-path="url(#clip0_6013_51719)">
<path d="M22.4 12.001H12.8C9.40523 12.001 6.1495 12.8438 3.74903 14.3441C1.34857 15.8444 0 17.8792 0 20.001L0 46.001C0.00253236 46.5309 0.340487 47.0387 0.940056 47.4134C1.53962 47.7882 2.35209 47.9994 3.2 48.001H44.8C45.6479 47.9994 46.4604 47.7882 47.0599 47.4134C47.6595 47.0387 47.9975 46.5309 48 46.001V28.001C48.0008 25.8997 47.3393 23.8189 46.053 21.8774C44.7668 19.936 42.8812 18.1719 40.5038 16.6861C38.1265 15.2003 35.304 14.0217 32.1977 13.2178C29.0914 12.4139 25.7621 12.0005 22.4 12.001ZM41.6 34.501C41.6 35.164 41.1786 35.7999 40.4284 36.2687C39.6783 36.7376 38.6609 37.001 37.6 37.001C36.5391 37.001 35.5217 36.7376 34.7716 36.2687C34.0214 35.7999 33.6 35.164 33.6 34.501V25.501C33.6 24.8379 34.0214 24.2021 34.7716 23.7332C35.5217 23.2644 36.5391 23.001 37.6 23.001C38.6609 23.001 39.6783 23.2644 40.4284 23.7332C41.1786 24.2021 41.6 24.8379 41.6 25.501V34.501ZM7.2 10.001H26.4C27.0365 10.001 27.647 9.84294 28.0971 9.56164C28.5471 9.28033 28.8 8.8988 28.8 8.50098C28.8 8.10315 28.5471 7.72162 28.0971 7.44032C27.647 7.15901 27.0365 7.00098 26.4 7.00098H25.6V2.00098C25.6 1.47054 25.2629 0.961836 24.6627 0.586763C24.0626 0.21169 23.2487 0.000976563 22.4 0.000976562L11.2 0.000976563C10.3513 0.000976563 9.53737 0.21169 8.93726 0.586763C8.33714 0.961836 8 1.47054 8 2.00098V7.00098H7.2C6.56348 7.00098 5.95303 7.15901 5.50294 7.44032C5.05286 7.72162 4.8 8.10315 4.8 8.50098C4.8 8.8988 5.05286 9.28033 5.50294 9.56164C5.95303 9.84294 6.56348 10.001 7.2 10.001Z" fill="black"/>
</g>
<defs>
<clipPath id="clip0_6013_51719">
<rect width="48" height="48" fill="white" transform="translate(0 0.000976562)"/>
</clipPath>
</defs>
</svg>
