<svg width="48" height="48" viewBox="0 0 48 48" fill="none" xmlns="http://www.w3.org/2000/svg">
<g clip-path="url(#clip0_6013_51722)">
<path d="M37 8.00098V7.50098C37 7.10315 36.842 6.72162 36.5607 6.44032C36.2794 6.15901 35.8978 6.00098 35.5 6.00098C35.1022 6.00098 34.7206 6.15901 34.4393 6.44032C34.158 6.72162 34 7.10315 34 7.50098V48.001H37V16.001H48V8.00098H37ZM30 6.00098H2C1.46957 6.00098 0.960859 6.21169 0.585786 6.58676C0.210714 6.96184 0 7.47054 0 8.00098L0 30.001H32V8.00098C32 7.47054 31.7893 6.96184 31.4142 6.58676C31.0391 6.21169 30.5304 6.00098 30 6.00098ZM6 4.00098H26C26.5304 4.00098 27.0391 3.79026 27.4142 3.41519C27.7893 3.04012 28 2.53141 28 2.00098C28 1.47054 27.7893 0.961836 27.4142 0.586763C27.0391 0.21169 26.5304 0.000976563 26 0.000976562L6 0.000976563C5.46957 0.000976563 4.96086 0.21169 4.58579 0.586763C4.21071 0.961836 4 1.47054 4 2.00098C4 2.53141 4.21071 3.04012 4.58579 3.41519C4.96086 3.79026 5.46957 4.00098 6 4.00098ZM0 48.001H12V38.001C12.0016 37.471 12.2128 36.9632 12.5875 36.5885C12.9623 36.2138 13.4701 36.0026 14 36.001H18C18.5299 36.0026 19.0377 36.2138 19.4125 36.5885C19.7872 36.9632 19.9984 37.471 20 38.001V48.001H32V32.001H0V48.001Z" fill="black"/>
</g>
<defs>
<clipPath id="clip0_6013_51722">
<rect width="48" height="48" fill="white" transform="translate(0 0.000976562)"/>
</clipPath>
</defs>
</svg>
