<svg width="48" height="48" viewBox="0 0 48 48" fill="none" xmlns="http://www.w3.org/2000/svg">
<g clip-path="url(#clip0_6013_51725)">
<path d="M45 6.00098H3C2.20508 6.00256 1.4434 6.21378 0.881302 6.58851C0.319207 6.96324 0.00237409 7.47103 0 8.00098L0 30.001H48V8.00098C47.9976 7.47103 47.6808 6.96324 47.1187 6.58851C46.5566 6.21378 45.7949 6.00256 45 6.00098ZM38.835 18.041V18.061C38.7204 18.2446 38.5521 18.4111 38.34 18.551L29.325 24.571C28.9039 24.8451 28.3386 24.9986 27.75 24.9986C27.1614 24.9986 26.5961 24.8451 26.175 24.571C25.7573 24.2925 25.5227 23.9148 25.5227 23.521C25.5227 23.1272 25.7573 22.7495 26.175 22.471L31.41 18.981H11.22C10.6312 18.981 10.0666 18.825 9.65022 18.5475C9.23389 18.2699 9 17.8935 9 17.501C9 17.1085 9.23389 16.732 9.65022 16.4545C10.0666 16.1769 10.6312 16.021 11.22 16.021H31.41L26.175 12.531C25.7642 12.2515 25.5355 11.8753 25.5384 11.4841C25.5414 11.0928 25.7758 10.7182 26.1908 10.4415C26.6058 10.1649 27.1678 10.0086 27.7547 10.0066C28.3415 10.0046 28.9058 10.1571 29.325 10.431L38.34 16.451C38.5521 16.5908 38.7204 16.7574 38.835 16.941V16.961C38.9439 17.1317 39.0001 17.3154 39.0001 17.501C39.0001 17.6865 38.9439 17.8702 38.835 18.041ZM9 4.00098H39C39.7957 4.00098 40.5587 3.79026 41.1213 3.41519C41.6839 3.04012 42 2.53141 42 2.00098C42 1.47054 41.6839 0.961836 41.1213 0.586763C40.5587 0.21169 39.7957 0.000976563 39 0.000976562L9 0.000976563C8.20435 0.000976563 7.44129 0.21169 6.87868 0.586763C6.31607 0.961836 6 1.47054 6 2.00098C6 2.53141 6.31607 3.04012 6.87868 3.41519C7.44129 3.79026 8.20435 4.00098 9 4.00098ZM0 48.001H18V38.001C18.0024 37.471 18.3192 36.9632 18.8813 36.5885C19.4434 36.2138 20.2051 36.0026 21 36.001H27C27.7949 36.0026 28.5566 36.2138 29.1187 36.5885C29.6808 36.9632 29.9976 37.471 30 38.001V48.001H48V32.001H0V48.001Z" fill="black"/>
</g>
<defs>
<clipPath id="clip0_6013_51725">
<rect width="48" height="48" fill="white" transform="translate(0 0.000976562)"/>
</clipPath>
</defs>
</svg>
