<svg width="48" height="48" viewBox="0 0 48 48" fill="none" xmlns="http://www.w3.org/2000/svg">
<g clip-path="url(#clip0_6013_51728)">
<path d="M36.8 25.001C34.1095 25.0012 31.5091 25.6066 29.474 26.7065C27.439 27.8065 26.1054 29.3274 25.717 30.9914C25.3287 32.6553 25.9115 34.351 27.3589 35.7685C28.8064 37.1859 31.0218 38.2304 33.6 38.711V39.501C33.6 40.6945 32.8414 41.839 31.4912 42.683C30.1409 43.5269 28.3096 44.001 26.4 44.001C24.4904 44.001 22.6591 43.5269 21.3088 42.683C19.9586 41.839 19.2 40.6945 19.2 39.501V22.801C22.8112 22.3364 26.0559 21.1082 28.3874 19.3231C30.7189 17.5381 31.9947 15.3053 32 13.001V0.000976563H22.4C21.5513 0.000976563 20.7374 0.21169 20.1373 0.586763C19.5371 0.961836 19.2 1.47054 19.2 2.00098C19.2 2.53141 19.5371 3.04012 20.1373 3.41519C20.7374 3.79026 21.5513 4.00098 22.4 4.00098H25.6V13.001C25.6 14.5923 24.5886 16.1184 22.7882 17.2436C20.9879 18.3688 18.5461 19.001 16 19.001C13.4539 19.001 11.0121 18.3688 9.21177 17.2436C7.41143 16.1184 6.4 14.5923 6.4 13.001V4.00098H9.6C10.4487 4.00098 11.2626 3.79026 11.8627 3.41519C12.4629 3.04012 12.8 2.53141 12.8 2.00098C12.8 1.47054 12.4629 0.961836 11.8627 0.586763C11.2626 0.21169 10.4487 0.000976563 9.6 0.000976562L0 0.000976563V13.001C0.00525343 15.3053 1.28111 17.5381 3.61261 19.3231C5.94412 21.1082 9.1888 22.3364 12.8 22.801V40.001H12.848C13.047 42.1632 14.5615 44.1959 17.0811 45.6827C19.6008 47.1695 22.9348 47.9978 26.4 47.9978C29.8652 47.9978 33.1992 47.1695 35.7189 45.6827C38.2385 44.1959 39.753 42.1632 39.952 40.001H40V38.711C42.5782 38.2304 44.7936 37.1859 46.2411 35.7685C47.6885 34.351 48.2713 32.6553 47.8829 30.9914C47.4946 29.3274 46.161 27.8065 44.1259 26.7065C42.0909 25.6066 39.4905 25.0012 36.8 25.001ZM36.8 35.001C35.8506 35.001 34.9226 34.825 34.1333 34.4954C33.3439 34.1657 32.7287 33.6972 32.3654 33.149C32.0021 32.6008 31.907 31.9976 32.0922 31.4157C32.2774 30.8338 32.7346 30.2992 33.4059 29.8797C34.0772 29.4601 34.9325 29.1744 35.8636 29.0586C36.7947 28.9429 37.7598 29.0023 38.6369 29.2293C39.514 29.4564 40.2636 29.8409 40.7911 30.3343C41.3185 30.8276 41.6 31.4076 41.6 32.001C41.5958 32.7958 41.0887 33.5573 40.1894 34.1194C39.2902 34.6814 38.0717 34.9983 36.8 35.001Z" fill="black"/>
</g>
<defs>
<clipPath id="clip0_6013_51728">
<rect width="48" height="48" fill="white" transform="translate(0 0.000976562)"/>
</clipPath>
</defs>
</svg>
