<svg width="48" height="44" viewBox="0 0 48 44" fill="none" xmlns="http://www.w3.org/2000/svg">
<g clip-path="url(#clip0_6013_51730)">
<path d="M45 0.000976563H3C2.20508 0.00255929 1.4434 0.213781 0.881302 0.588511C0.319207 0.963242 0.00237409 1.47103 0 2.00098L0 42.001C0.00237409 42.5309 0.319207 43.0387 0.881302 43.4134C1.4434 43.7882 2.20508 43.9994 3 44.001H31.5V37.001C31.5 35.9401 32.1321 34.9227 33.2574 34.1726C34.3826 33.4224 35.9087 33.001 37.5 33.001H48V2.00098C47.9976 1.47103 47.6808 0.963242 47.1187 0.588511C46.5566 0.213781 45.7949 0.00255929 45 0.000976563ZM38.25 28.001H9.75C9.15326 28.001 8.58097 27.8429 8.15901 27.5616C7.73705 27.2803 7.5 26.8988 7.5 26.501C7.5 26.1032 7.73705 25.7216 8.15901 25.4403C8.58097 25.159 9.15326 25.001 9.75 25.001H38.25C38.8467 25.001 39.419 25.159 39.841 25.4403C40.2629 25.7216 40.5 26.1032 40.5 26.501C40.5 26.8988 40.2629 27.2803 39.841 27.5616C39.419 27.8429 38.8467 28.001 38.25 28.001ZM38.25 20.001H9.75C9.15326 20.001 8.58097 19.8429 8.15901 19.5616C7.73705 19.2803 7.5 18.8988 7.5 18.501C7.5 18.1032 7.73705 17.7216 8.15901 17.4403C8.58097 17.159 9.15326 17.001 9.75 17.001H38.25C38.8467 17.001 39.419 17.159 39.841 17.4403C40.2629 17.7216 40.5 18.1032 40.5 18.501C40.5 18.8988 40.2629 19.2803 39.841 19.5616C39.419 19.8429 38.8467 20.001 38.25 20.001ZM38.25 12.001H9.75C9.15326 12.001 8.58097 11.8429 8.15901 11.5616C7.73705 11.2803 7.5 10.8988 7.5 10.501C7.5 10.1032 7.73705 9.72162 8.15901 9.44032C8.58097 9.15901 9.15326 9.00098 9.75 9.00098H38.25C38.8467 9.00098 39.419 9.15901 39.841 9.44032C40.2629 9.72162 40.5 10.1032 40.5 10.501C40.5 10.8988 40.2629 11.2803 39.841 11.5616C39.419 11.8429 38.8467 12.001 38.25 12.001Z" fill="black"/>
<path d="M34.5 37.001V44.001L48 35.001H37.5C36.7051 35.0026 35.9434 35.2138 35.3813 35.5885C34.8192 35.9632 34.5024 36.471 34.5 37.001Z" fill="black"/>
</g>
<defs>
<clipPath id="clip0_6013_51730">
<rect width="48" height="44" fill="white" transform="translate(0 0.000976562)"/>
</clipPath>
</defs>
</svg>
