<svg width="48" height="32" viewBox="0 0 48 32" fill="none" xmlns="http://www.w3.org/2000/svg">
<g clip-path="url(#clip0_6013_51734)">
<path d="M40.3636 0.940977V0.000976562L48 7.00098H41.2145C41.1028 7.00098 40.9922 6.9808 40.8889 6.9416C40.7857 6.9024 40.6919 6.84495 40.6129 6.77252C40.5339 6.70009 40.4712 6.6141 40.4284 6.51947C40.3857 6.42484 40.3636 6.32341 40.3636 6.22098V0.940977ZM19.6364 14.001H18.5455C18.2561 14.001 17.9787 14.1063 17.7741 14.2939C17.5695 14.4814 17.4545 14.7358 17.4545 15.001V21.001C17.4545 21.2662 17.5695 21.5205 17.7741 21.7081C17.9787 21.8956 18.2561 22.001 18.5455 22.001H19.6364C19.9257 22.001 20.2032 21.8956 20.4078 21.7081C20.6123 21.5205 20.7273 21.2662 20.7273 21.001V15.001C20.7273 14.7358 20.6123 14.4814 20.4078 14.2939C20.2032 14.1063 19.9257 14.001 19.6364 14.001ZM9.81818 14.001H7.63636V22.001H9.81818C10.1075 22.001 10.385 21.8956 10.5896 21.7081C10.7942 21.5205 10.9091 21.2662 10.9091 21.001V15.001C10.9091 14.7358 10.7942 14.4814 10.5896 14.2939C10.385 14.1063 10.1075 14.001 9.81818 14.001ZM48 9.00098V30.001C48 30.5314 47.7701 31.0401 47.361 31.4152C46.9518 31.7903 46.3968 32.001 45.8182 32.001H2.18182C1.60316 32.001 1.04821 31.7903 0.63904 31.4152C0.22987 31.0401 0 30.5314 0 30.001V2.00098C0 1.47054 0.22987 0.961836 0.63904 0.586763C1.04821 0.21169 1.60316 0.000976563 2.18182 0.000976563L38.1818 0.000976562V6.22098C38.1827 6.95803 38.5025 7.66468 39.071 8.18586C39.6396 8.70704 40.4105 9.00018 41.2145 9.00098H48ZM13.0909 15.001C13.09 14.2056 12.745 13.443 12.1314 12.8805C11.5178 12.3181 10.6859 12.0018 9.81818 12.001H6.54545C6.25613 12.001 5.97865 12.1063 5.77407 12.2939C5.56948 12.4814 5.45455 12.7358 5.45455 13.001V23.001C5.45455 23.2662 5.56948 23.5205 5.77407 23.7081C5.97865 23.8956 6.25613 24.001 6.54545 24.001H9.81818C10.6859 24.0002 11.5178 23.6839 12.1314 23.1214C12.745 22.559 13.09 21.7964 13.0909 21.001V15.001ZM22.9091 15.001C22.9082 14.2056 22.5631 13.443 21.9496 12.8805C21.336 12.3181 20.5041 12.0018 19.6364 12.001H18.5455C17.6777 12.0018 16.8458 12.3181 16.2322 12.8805C15.6187 13.443 15.2736 14.2056 15.2727 15.001V21.001C15.2736 21.7964 15.6187 22.559 16.2322 23.1214C16.8458 23.6839 17.6777 24.0002 18.5455 24.001H19.6364C20.5041 24.0002 21.336 23.6839 21.9496 23.1214C22.5631 22.559 22.9082 21.7964 22.9091 21.001V15.001ZM27.2727 21.001V15.001C27.2727 14.7358 27.3877 14.4814 27.5922 14.2939C27.7968 14.1063 28.0743 14.001 28.3636 14.001H31.6364C31.9257 14.001 32.2032 13.8956 32.4078 13.7081C32.6123 13.5205 32.7273 13.2662 32.7273 13.001C32.7273 12.7358 32.6123 12.4814 32.4078 12.2939C32.2032 12.1063 31.9257 12.001 31.6364 12.001H28.3636C27.4959 12.0018 26.664 12.3181 26.0504 12.8805C25.4369 13.443 25.0918 14.2056 25.0909 15.001V21.001C25.0918 21.7964 25.4369 22.559 26.0504 23.1214C26.664 23.6839 27.4959 24.0002 28.3636 24.001H31.6364C31.9257 24.001 32.2032 23.8956 32.4078 23.7081C32.6123 23.5205 32.7273 23.2662 32.7273 23.001C32.7273 22.7358 32.6123 22.4814 32.4078 22.2939C32.2032 22.1063 31.9257 22.001 31.6364 22.001H28.3636C28.0743 22.001 27.7968 21.8956 27.5922 21.7081C27.3877 21.5205 27.2727 21.2662 27.2727 21.001ZM39.9469 18.001L42.4309 13.448C42.4949 13.3304 42.5331 13.2025 42.5432 13.0714C42.5533 12.9404 42.5351 12.8088 42.4897 12.6842C42.4444 12.5596 42.3727 12.4444 42.2787 12.3452C42.1847 12.246 42.0704 12.1647 41.9422 12.106C41.814 12.0473 41.6744 12.0123 41.5314 12.003C41.3885 11.9938 41.2449 12.0104 41.109 12.052C40.973 12.0936 40.8473 12.1594 40.7391 12.2455C40.6309 12.3316 40.5422 12.4364 40.4782 12.554L38.7273 15.764L36.9764 12.554C36.847 12.3166 36.6201 12.1361 36.3456 12.052C36.071 11.968 35.7713 11.9874 35.5124 12.106C35.2534 12.2245 35.0564 12.4325 34.9648 12.6842C34.8731 12.9359 34.8943 13.2106 35.0236 13.448L37.5076 18.001L35.0236 22.554C34.8943 22.7913 34.8731 23.0661 34.9648 23.3178C35.0564 23.5694 35.2534 23.7774 35.5124 23.896C35.7713 24.0145 36.071 24.0339 36.3456 23.9499C36.6201 23.8659 36.847 23.6853 36.9764 23.448L38.7273 20.238L40.4782 23.448C40.6075 23.6853 40.8344 23.8659 41.109 23.9499C41.3835 24.0339 41.6832 24.0145 41.9422 23.896C42.2011 23.7774 42.3981 23.5694 42.4897 23.3178C42.5814 23.0661 42.5602 22.7913 42.4309 22.554L39.9469 18.001Z" fill="black"/>
</g>
<defs>
<clipPath id="clip0_6013_51734">
<rect width="48" height="32" fill="white" transform="translate(0 0.000976562)"/>
</clipPath>
</defs>
</svg>
