<svg width="48" height="28" viewBox="0 0 48 28" fill="none" xmlns="http://www.w3.org/2000/svg">
<g clip-path="url(#clip0_6013_51736)">
<path d="M48.0001 4.00115C48.0001 4.52656 47.8966 5.04683 47.6955 5.53224C47.4944 6.01765 47.1997 6.45868 46.8281 6.83015L26.8281 26.8301C26.4567 27.2016 26.0157 27.4963 25.5304 27.6973C25.0451 27.8983 24.5249 28.0018 23.9996 28.0018C23.4743 28.0018 22.9541 27.8983 22.4688 27.6973C21.9835 27.4963 21.5426 27.2016 21.1711 26.8301L1.17111 6.83015C0.42095 6.07998 -0.000488289 5.06254 -0.000488281 4.00165C-0.000488273 2.94076 0.42095 1.92331 1.17111 1.17315C1.92128 0.422984 2.93872 0.00154558 3.99961 0.00154557C5.06051 0.00154556 6.07795 0.422984 6.82811 1.17315L24.0001 18.3441L41.1701 1.17315C41.7294 0.613224 42.4422 0.231796 43.2184 0.0771306C43.9946 -0.0775346 44.7991 0.00151548 45.5303 0.304277C46.2616 0.607039 46.8865 1.1199 47.3262 1.77797C47.7658 2.43604 48.0003 3.20974 48.0001 4.00115Z" fill="black"/>
</g>
<defs>
<clipPath id="clip0_6013_51736">
<rect width="48" height="28" fill="white" transform="translate(0 0.000976562)"/>
</clipPath>
</defs>
</svg>
