<svg width="48" height="48" viewBox="0 0 48 48" fill="none" xmlns="http://www.w3.org/2000/svg">
<g clip-path="url(#clip0_6013_51742)">
<path d="M45.5 43.001H35V19.955C35.0225 18.8974 35.4589 17.8909 36.2154 17.1516C36.9719 16.4123 37.9882 15.9992 39.046 16.001C40.0942 16.0026 41.099 16.4197 41.8401 17.1608C42.5813 17.902 42.9984 18.9068 43 19.955C43.0013 19.9703 43.003 19.9856 43.005 20.001H43V20.689C42.4027 20.971 41.8977 21.4167 41.5437 21.9743C41.1897 22.5319 41.0011 23.1785 41 23.839C41 25.589 43.867 29.274 44.412 29.958C44.4225 29.9715 44.4359 29.9824 44.4512 29.9899C44.4666 29.9974 44.4834 30.0013 44.5005 30.0013C44.5176 30.0013 44.5344 29.9974 44.5498 29.9899C44.5651 29.9824 44.5785 29.9715 44.589 29.958C45.133 29.274 48 25.589 48 23.84C47.9989 23.1795 47.8103 22.5329 47.4563 21.9753C47.1023 21.4177 46.5973 20.972 46 20.69V20.001H45.995C45.995 19.985 46 19.971 46 19.955C45.9984 18.1111 45.2652 16.3433 43.9615 15.0395C42.6577 13.7357 40.8898 13.0026 39.046 13.001C37.1926 12.9993 35.4134 13.7285 34.0943 15.0303C32.7752 16.3322 32.0226 18.1018 32 19.955V25.001H29.5C29.3329 25.0005 29.1659 25.0105 29 25.031C27.7242 25.1556 26.5311 25.7192 25.6247 26.6257C24.7182 27.5321 24.1546 28.7251 24.03 30.001C24.0096 30.1669 23.9995 30.3338 24 30.501V31.689C23.4027 31.971 22.8977 32.4167 22.5437 32.9743C22.1897 33.5319 22.0011 34.1785 22 34.839C22 36.589 24.867 40.274 25.412 40.958C25.4225 40.9715 25.4359 40.9824 25.4512 40.9899C25.4666 40.9974 25.4834 41.0013 25.5005 41.0013C25.5176 41.0013 25.5344 40.9974 25.5498 40.9899C25.5651 40.9824 25.5785 40.9715 25.589 40.958C26.133 40.274 29 36.589 29 34.84C28.9989 34.1795 28.8103 33.5329 28.4563 32.9753C28.1023 32.4177 27.5973 31.972 27 31.69V30.501C27 29.8379 27.2634 29.2021 27.7322 28.7332C28.2011 28.2644 28.837 28.001 29.5 28.001H32V43.001H2.5C1.83696 43.001 1.20107 43.2644 0.732233 43.7332C0.263392 44.202 0 44.8379 0 45.501C0 46.164 0.263392 46.7999 0.732233 47.2687C1.20107 47.7376 1.83696 48.001 2.5 48.001H45.5C46.163 48.001 46.7989 47.7376 47.2678 47.2687C47.7366 46.7999 48 46.164 48 45.501C48 44.8379 47.7366 44.202 47.2678 43.7332C46.7989 43.2644 46.163 43.001 45.5 43.001ZM12.5 6.00098C12.8978 6.00098 13.2794 5.84294 13.5607 5.56164C13.842 5.28033 14 4.8988 14 4.50098V1.50098C14 1.10315 13.842 0.721621 13.5607 0.440316C13.2794 0.159012 12.8978 0.000976563 12.5 0.000976562C12.1022 0.000976562 11.7206 0.159012 11.4393 0.440316C11.158 0.721621 11 1.10315 11 1.50098V4.50098C11 4.8988 11.158 5.28033 11.4393 5.56164C11.7206 5.84294 12.1022 6.00098 12.5 6.00098ZM11 20.501V23.501C11 23.8988 11.158 24.2803 11.4393 24.5616C11.7206 24.8429 12.1022 25.001 12.5 25.001C12.8978 25.001 13.2794 24.8429 13.5607 24.5616C13.842 24.2803 14 23.8988 14 23.501V20.501C14 20.1032 13.842 19.7216 13.5607 19.4403C13.2794 19.159 12.8978 19.001 12.5 19.001C12.1022 19.001 11.7206 19.159 11.4393 19.4403C11.158 19.7216 11 20.1032 11 20.501ZM19.218 7.90498L21.338 5.78298C21.4854 5.64565 21.6036 5.48005 21.6856 5.29605C21.7675 5.11205 21.8116 4.91343 21.8152 4.71202C21.8187 4.51062 21.7817 4.31056 21.7062 4.12378C21.6308 3.937 21.5185 3.76734 21.3761 3.6249C21.2336 3.48246 21.064 3.37017 20.8772 3.29473C20.6904 3.21929 20.4904 3.18224 20.289 3.18579C20.0875 3.18935 19.8889 3.23343 19.7049 3.31541C19.5209 3.3974 19.3553 3.5156 19.218 3.66298L17.096 5.78298C16.8146 6.06437 16.6565 6.44602 16.6565 6.84398C16.6565 7.24193 16.8146 7.62358 17.096 7.90498C17.3774 8.18637 17.759 8.34446 18.157 8.34446C18.555 8.34446 18.9366 8.18637 19.218 7.90498ZM5.782 17.097L3.662 19.219C3.39704 19.5033 3.25279 19.8794 3.25965 20.268C3.26651 20.6566 3.42393 21.0274 3.69876 21.3022C3.97358 21.577 4.34435 21.7345 4.73295 21.7413C5.12156 21.7482 5.49765 21.6039 5.782 21.339L7.904 19.219C8.18539 18.9376 8.34348 18.5559 8.34348 18.158C8.34348 17.76 8.18539 17.3784 7.904 17.097C7.62261 16.8156 7.24095 16.6575 6.843 16.6575C6.44505 16.6575 6.06339 16.8156 5.782 17.097ZM19 12.501C19 12.8988 19.158 13.2803 19.4393 13.5616C19.7206 13.8429 20.1022 14.001 20.5 14.001H23.5C23.8978 14.001 24.2794 13.8429 24.5607 13.5616C24.842 13.2803 25 12.8988 25 12.501C25 12.1032 24.842 11.7216 24.5607 11.4403C24.2794 11.159 23.8978 11.001 23.5 11.001H20.5C20.1022 11.001 19.7206 11.159 19.4393 11.4403C19.158 11.7216 19 12.1032 19 12.501ZM1.5 14.001H4.5C4.89782 14.001 5.27936 13.8429 5.56066 13.5616C5.84196 13.2803 6 12.8988 6 12.501C6 12.1032 5.84196 11.7216 5.56066 11.4403C5.27936 11.159 4.89782 11.001 4.5 11.001H1.5C1.10218 11.001 0.720644 11.159 0.43934 11.4403C0.158035 11.7216 4.47035e-08 12.1032 4.47035e-08 12.501C4.47035e-08 12.8988 0.158035 13.2803 0.43934 13.5616C0.720644 13.8429 1.10218 14.001 1.5 14.001ZM17.096 17.097C16.9566 17.2363 16.846 17.4017 16.7706 17.5837C16.6952 17.7658 16.6563 17.9609 16.6563 18.158C16.6563 18.355 16.6952 18.5502 16.7706 18.7322C16.846 18.9143 16.9566 19.0797 17.096 19.219L19.218 21.339C19.5023 21.6039 19.8784 21.7482 20.267 21.7413C20.6556 21.7345 21.0264 21.577 21.3012 21.3022C21.5761 21.0274 21.7335 20.6566 21.7404 20.268C21.7472 19.8794 21.603 19.5033 21.338 19.219L19.218 17.097C19.0787 16.9576 18.9133 16.847 18.7312 16.7716C18.5492 16.6961 18.3541 16.6573 18.157 16.6573C17.9599 16.6573 17.7648 16.6961 17.5828 16.7716C17.4007 16.847 17.2353 16.9576 17.096 17.097ZM5.782 7.90498C6.06339 8.18637 6.44505 8.34446 6.843 8.34446C7.24095 8.34446 7.62261 8.18637 7.904 7.90498C8.18539 7.62358 8.34348 7.24193 8.34348 6.84398C8.34348 6.44602 8.18539 6.06437 7.904 5.78298L5.782 3.66298C5.49765 3.39802 5.12156 3.25377 4.73295 3.26063C4.34435 3.26748 3.97358 3.42491 3.69876 3.69973C3.42393 3.97456 3.26651 4.34533 3.25965 4.73393C3.25279 5.12253 3.39704 5.49863 3.662 5.78298L5.782 7.90498Z" fill="black"/>
<path d="M12.5 17.001C14.9853 17.001 17 14.9863 17 12.501C17 10.0157 14.9853 8.00098 12.5 8.00098C10.0147 8.00098 8 10.0157 8 12.501C8 14.9863 10.0147 17.001 12.5 17.001Z" fill="black"/>
</g>
<defs>
<clipPath id="clip0_6013_51742">
<rect width="48" height="48" fill="white" transform="translate(0 0.000976562)"/>
</clipPath>
</defs>
</svg>
