<svg width="48" height="48" viewBox="0 0 48 48" fill="none" xmlns="http://www.w3.org/2000/svg">
<g clip-path="url(#clip0_6013_51746)">
<path d="M13.215 30.9869C14.2732 30.4001 15.4515 30.0628 16.66 30.0009C18.2892 29.971 19.8939 30.4007 21.29 31.2409C22.0929 31.7687 23.0398 32.0343 24 32.0009C24.9569 32.0329 25.9002 31.7674 26.7 31.2409C27.2955 30.8999 27.9215 30.6153 28.57 30.3909C29.6117 30.122 30.6842 29.9909 31.76 30.0009H32C31.1712 26.0774 29.1735 22.4969 26.27 19.7309L26.254 19.7179C25.2303 18.72 24.4154 17.5284 23.8568 16.2124C23.2981 14.8965 23.0068 13.4825 23 12.0529C22.9931 10.6233 23.2707 9.20665 23.8166 7.88539C24.3626 6.56413 25.166 5.36469 26.18 4.35694C26.63 3.91971 26.9067 3.3345 26.9591 2.70927C27.0115 2.08403 26.836 1.46095 26.465 0.95494C26.2465 0.677193 25.9717 0.448912 25.6586 0.285153C25.3454 0.121393 25.0011 0.025875 24.6484 0.00489759C24.2957 -0.0160799 23.9425 0.03796 23.6121 0.163453C23.2818 0.288947 22.9818 0.483042 22.732 0.73294C21.2426 2.20716 20.0603 3.96211 19.2535 5.89625C18.4468 7.83038 18.0316 9.9053 18.032 12.0009C18.0615 15.2366 19.0989 18.3825 21 21.0009L20.91 21.1009L13.036 30.7489C13.014 30.7754 13.0015 30.8086 13.0007 30.843C12.9998 30.8775 13.0106 30.9112 13.0313 30.9388C13.0521 30.9663 13.0815 30.986 13.1148 30.9948C13.1481 31.0035 13.1834 31.0008 13.215 30.9869ZM46 42.0009C44.3737 41.969 42.7717 42.399 41.38 43.2409C40.5616 43.738 39.6225 44.0009 38.665 44.0009C37.7075 44.0009 36.7684 43.738 35.95 43.2409C34.5583 42.399 32.9563 41.969 31.33 42.0009C30.2298 41.9795 29.136 42.1731 28.11 42.5709C27.6221 42.7544 27.1504 42.9785 26.7 43.2409C26.44 43.3809 26.21 43.5109 25.97 43.6209H25.96C25.3455 43.8996 24.6741 44.0298 24 44.0009C23.0398 44.0343 22.0929 43.7687 21.29 43.2409C19.8939 42.4007 18.2892 41.971 16.66 42.0009C15.0337 41.969 13.4317 42.399 12.04 43.2409C11.2355 43.7652 10.2898 44.0304 9.33 44.0009C8.37024 44.0304 7.42449 43.7652 6.62 43.2409C5.22825 42.399 3.62628 41.969 2 42.0009C1.46957 42.0009 0.960859 42.2117 0.585786 42.5867C0.210714 42.9618 0 43.4705 0 44.0009C0 44.5314 0.210714 45.0401 0.585786 45.4152C0.960859 45.7902 1.46957 46.0009 2 46.0009C2.95976 45.9715 3.90551 46.2367 4.71 46.7609C6.10175 47.6029 7.70372 48.0328 9.33 48.0009C10.9563 48.0328 12.5583 47.6029 13.95 46.7609C14.7545 46.2367 15.7002 45.9715 16.66 46.0009C17.6201 45.9689 18.5666 46.2343 19.37 46.7609C20.7655 47.6027 22.3706 48.0325 24 48.0009C25.6261 48.0312 27.2276 47.6013 28.62 46.7609C29.4365 46.2637 30.374 46.0007 31.33 46.0007C32.286 46.0007 33.2235 46.2637 34.04 46.7609C35.4458 47.5738 37.0411 48.0018 38.665 48.0018C40.2889 48.0018 41.8842 47.5738 43.29 46.7609C44.0934 46.2343 45.0399 45.9689 46 46.0009C46.5304 46.0009 47.0391 45.7902 47.4142 45.4152C47.7893 45.0401 48 44.5314 48 44.0009C48 43.4705 47.7893 42.9618 47.4142 42.5867C47.0391 42.2117 46.5304 42.0009 46 42.0009ZM2 38.0009C2.95832 37.9709 3.9029 38.2347 4.707 38.7569C6.0989 39.6006 7.70166 40.032 9.329 40.0009C10.957 40.0324 12.5605 39.601 13.953 38.7569C14.7574 38.2345 15.7023 37.9707 16.661 38.0009C17.6203 37.9703 18.5661 38.2341 19.371 38.7569C20.7632 39.6008 22.3663 40.0322 23.994 40.0009C25.6221 40.0321 27.2256 39.6004 28.618 38.7559C29.4355 38.2621 30.3724 38.0011 31.3275 38.0011C32.2826 38.0011 33.2195 38.2621 34.037 38.7559C35.4423 39.5709 37.038 40.0002 38.6625 40.0002C40.287 40.0002 41.8827 39.5709 43.288 38.7559C44.0936 38.2331 45.0401 37.9696 46 38.0009C46.5304 38.0009 47.0391 37.7902 47.4142 37.4152C47.7893 37.0401 48 36.5314 48 36.0009C48 35.4705 47.7893 34.9618 47.4142 34.5867C47.0391 34.2117 46.5304 34.0009 46 34.0009C44.3716 33.9693 42.7678 34.4007 41.375 35.2449C40.557 35.7396 39.6194 36.001 38.6635 36.001C37.7076 36.001 36.77 35.7396 35.952 35.2449C34.5589 34.4005 32.9547 33.9691 31.326 34.0009C29.6983 33.9697 28.0952 34.4011 26.703 35.2449C25.8986 35.7674 24.9537 36.0312 23.995 36.0009C23.036 36.0314 22.0907 35.7675 21.286 35.2449C19.8932 34.4007 18.2894 33.9693 16.661 34.0009C15.033 33.9695 13.4295 34.4009 12.037 35.2449C11.2329 35.7672 10.2883 36.031 9.33 36.0009C8.37202 36.0307 7.42782 35.767 6.624 35.2449C5.23152 34.4009 3.62802 33.9695 2 34.0009C1.46957 34.0009 0.960859 34.2117 0.585786 34.5867C0.210714 34.9618 0 35.4705 0 36.0009C0 36.5314 0.210714 37.0401 0.585786 37.4152C0.960859 37.7902 1.46957 38.0009 2 38.0009Z" fill="black"/>
<path d="M35 24.001C37.7614 24.001 40 21.7624 40 19.001C40 16.2396 37.7614 14.001 35 14.001C32.2386 14.001 30 16.2396 30 19.001C30 21.7624 32.2386 24.001 35 24.001Z" fill="black"/>
</g>
<defs>
<clipPath id="clip0_6013_51746">
<rect width="48" height="48" fill="white" transform="translate(0 0.000976562)"/>
</clipPath>
</defs>
</svg>
