<svg width="48" height="30" viewBox="0 0 48 30" fill="none" xmlns="http://www.w3.org/2000/svg">
<g clip-path="url(#clip0_6013_51750)">
<path d="M46 0.000976562H2C1.47005 0.00255929 0.962265 0.213781 0.587535 0.588511C0.212805 0.963242 0.00158273 1.47103 0 2.00098L0 28.001C0.00158273 28.5309 0.212805 29.0387 0.587535 29.4134C0.962265 29.7882 1.47005 29.9994 2 30.001H46C46.5299 29.9994 47.0377 29.7882 47.4125 29.4134C47.7872 29.0387 47.9984 28.5309 48 28.001V2.00098C47.9984 1.47103 47.7872 0.963242 47.4125 0.588511C47.0377 0.213781 46.5299 0.00255929 46 0.000976562ZM13.3 20.521L6.3 26.521C6.10039 26.6917 5.86911 26.8214 5.61936 26.9028C5.36962 26.9841 5.1063 27.0154 4.84444 26.995C4.58258 26.9746 4.3273 26.9028 4.09319 26.7837C3.85908 26.6646 3.65072 26.5006 3.48 26.301C3.13522 25.8978 2.9647 25.3743 3.00596 24.8454C3.04722 24.3166 3.29687 23.8258 3.7 23.481L10.7 17.481C10.8996 17.3103 11.1309 17.1805 11.3806 17.0992C11.6304 17.0179 11.8937 16.9865 12.1556 17.0069C12.4174 17.0274 12.6727 17.0992 12.9068 17.2183C13.1409 17.3373 13.3493 17.5014 13.52 17.701C13.6907 17.9006 13.8204 18.1319 13.9018 18.3816C13.9831 18.6314 14.0145 18.8947 13.994 19.1565C13.9736 19.4184 13.9018 19.6737 13.7827 19.9078C13.6636 20.1419 13.4996 20.3503 13.3 20.521ZM44.52 26.301C44.3493 26.5006 44.1409 26.6646 43.9068 26.7837C43.6727 26.9028 43.4174 26.9746 43.1556 26.9951C42.8937 27.0155 42.6304 26.9841 42.3806 26.9028C42.1309 26.8214 41.8996 26.6917 41.7 26.521L34.7 20.521C34.2969 20.1762 34.0472 19.6854 34.006 19.1565C33.9647 18.6277 34.1352 18.1041 34.48 17.701C34.8248 17.2978 35.3156 17.0482 35.8444 17.0069C36.3733 16.9657 36.8969 17.1362 37.3 17.481L44.3 23.481C44.4996 23.6517 44.6637 23.86 44.7828 24.0942C44.9018 24.3283 44.9737 24.5835 44.9941 24.8454C45.0145 25.1073 44.9832 25.3706 44.9018 25.6203C44.8205 25.8701 44.6907 26.1014 44.52 26.301ZM44.19 6.61098L25.19 20.611C24.845 20.8644 24.4281 21.0011 24 21.0011C23.5719 21.0011 23.155 20.8644 22.81 20.611L3.81 6.61098C3.59857 6.4547 3.41999 6.25832 3.28446 6.03303C3.14893 5.80774 3.0591 5.55797 3.0201 5.29796C2.9811 5.03796 2.99369 4.77282 3.05716 4.51768C3.12063 4.26254 3.23373 4.0224 3.39 3.81098C3.54627 3.59955 3.74266 3.42097 3.96795 3.28544C4.19323 3.14991 4.44301 3.06008 4.70302 3.02108C4.96302 2.98208 5.22816 2.99467 5.4833 3.05814C5.73843 3.1216 5.97857 3.2347 6.19 3.39098L24 16.521L41.81 3.39098C42.237 3.07537 42.7719 2.94231 43.297 3.02108C43.8221 3.09984 44.2944 3.38398 44.61 3.81098C44.9256 4.23798 45.0587 4.77286 44.9799 5.29796C44.9011 5.82306 44.617 6.29537 44.19 6.61098Z" fill="black"/>
</g>
<defs>
<clipPath id="clip0_6013_51750">
<rect width="48" height="30" fill="white" transform="translate(0 0.000976562)"/>
</clipPath>
</defs>
</svg>
