<svg width="48" height="45" viewBox="0 0 48 45" fill="none" xmlns="http://www.w3.org/2000/svg">
<g clip-path="url(#clip0_6013_51752)">
<path d="M22.734 17.0009L20.2637 19.4709L25.5343 24.7409L28.5447 21.7309L23.274 16.4609L22.734 17.0009Z" fill="black"/>
<path d="M0.586134 39.1441C0.211145 39.5192 0.000488281 40.0278 0.000488281 40.5581C0.000488281 41.0885 0.211145 41.5971 0.586134 41.9721L3.02944 44.4151C3.40454 44.7901 3.91322 45.0007 4.44362 45.0007C4.97401 45.0007 5.48269 44.7901 5.85779 44.4151L24.0261 26.2511L18.7534 20.9801L0.586134 39.1441ZM47.377 16.4611L43.5965 12.7011C43.3964 12.5045 43.127 12.3943 42.8464 12.3943C42.5658 12.3943 42.2965 12.5045 42.0963 12.7011L40.5861 14.2111L38.3259 11.9511L39.726 10.5511C39.9217 10.3519 40.0305 10.0833 40.0287 9.80408C40.0268 9.52485 39.9144 9.25772 39.716 9.06115L35.6255 4.97115L35.1955 4.54115L34.1153 3.46115C31.9123 1.25323 28.9235 0.00894912 25.8043 0.00114911C23.098 -0.013623 20.4721 0.92053 18.3834 2.64115C18.2673 2.73528 18.1724 2.85296 18.1051 2.98642C18.0379 3.11988 17.9996 3.2661 17.993 3.41541C17.9864 3.56472 18.0115 3.71374 18.0668 3.85263C18.122 3.99152 18.206 4.11712 18.3134 4.22115L25.0742 10.9811C25.389 11.2534 25.6241 11.6059 25.7543 12.0011C25.8563 12.4561 25.8516 12.9284 25.7406 13.3813C25.6295 13.8341 25.4151 14.255 25.1142 14.6111L24.7742 14.9511L26.8244 17.0011L30.0548 20.2211L32.3051 17.9711L34.5654 20.2211L33.0552 21.7411C32.9554 21.8389 32.8761 21.9556 32.822 22.0844C32.7679 22.2132 32.74 22.3515 32.74 22.4911C32.74 22.6308 32.7679 22.7691 32.822 22.8979C32.8761 23.0267 32.9554 23.1434 33.0552 23.2411L36.8257 27.0011C37.2268 27.4005 37.7698 27.6247 38.3359 27.6247C38.9019 27.6247 39.4449 27.4005 39.846 27.0011L47.377 19.4711C47.7758 19.0718 47.9998 18.5305 47.9998 17.9661C47.9998 17.4018 47.7758 16.8605 47.377 16.4611Z" fill="black"/>
</g>
<defs>
<clipPath id="clip0_6013_51752">
<rect width="48" height="45" fill="white" transform="translate(0 0.000976562)"/>
</clipPath>
</defs>
</svg>
