<svg width="48" height="48" viewBox="0 0 48 48" fill="none" xmlns="http://www.w3.org/2000/svg">
<g clip-path="url(#clip0_6013_51758)">
<path d="M47.4841 18.0409L24.8281 0.270856C24.6026 0.0973367 24.307 0.000976563 24.0001 0.000976562C23.6932 0.000976563 23.3976 0.0973367 23.1721 0.270856L0.51609 18.0409C0.351547 18.1643 0.220433 18.3156 0.131464 18.4846C0.042496 18.6535 -0.00228804 18.8363 8.99766e-05 19.0209V47.0009C0.00103961 47.2658 0.127773 47.5197 0.352611 47.7071C0.577449 47.8945 0.882122 48.0001 1.20009 48.0009H17.0161L27.7081 39.0809L17.5921 31.4909C17.3389 31.3005 17.1374 31.0674 17.0008 30.807C16.8642 30.5466 16.7958 30.265 16.8001 29.9809C16.805 29.6956 16.8825 29.4144 17.0273 29.1559C17.172 28.8973 17.3809 28.6673 17.6401 28.4809L24.0721 23.8909L19.9081 20.4109C19.683 20.2271 19.5042 20.0077 19.3821 19.7656C19.26 19.5235 19.1971 19.2635 19.1971 19.0009C19.1971 18.7382 19.26 18.4783 19.3821 18.2361C19.5042 17.994 19.683 17.7747 19.9081 17.5909L24.7081 13.5909C25.1568 13.2169 25.7655 13.0068 26.4001 13.0068C27.0347 13.0068 27.6433 13.2169 28.0921 13.5909C28.5408 13.9648 28.7929 14.472 28.7929 15.0009C28.7929 15.5297 28.5408 16.0369 28.0921 16.4109L24.9961 19.0009L29.2921 22.5909C29.5288 22.784 29.7142 23.0165 29.8361 23.2732C29.9581 23.5298 30.014 23.805 30.0001 24.0809C29.9859 24.356 29.9041 24.6259 29.7596 24.8736C29.6151 25.1213 29.411 25.3416 29.1601 25.5209L22.8361 30.0409L32.8081 37.5109C33.0504 37.6925 33.2456 37.9135 33.3818 38.1602C33.518 38.4069 33.5923 38.6743 33.6001 38.9458C33.608 39.2173 33.5493 39.4873 33.4275 39.7392C33.3058 39.9911 33.1236 40.2197 32.8921 40.4109L23.7841 48.0009H46.8001C47.1181 48.0001 47.4227 47.8945 47.6476 47.7071C47.8724 47.5197 47.9991 47.2658 48.0001 47.0009V19.0209C48.0025 18.8363 47.9577 18.6535 47.8687 18.4846C47.7798 18.3156 47.6486 18.1643 47.4841 18.0409Z" fill="black"/>
</g>
<defs>
<clipPath id="clip0_6013_51758">
<rect width="48" height="48" fill="white" transform="translate(0 0.000976562)"/>
</clipPath>
</defs>
</svg>
