<svg width="48" height="26" viewBox="0 0 48 26" fill="none" xmlns="http://www.w3.org/2000/svg">
<g clip-path="url(#clip0_6013_51756)">
<path d="M24 0.00121124C21.2038 -0.0138523 18.4514 0.696498 16.0116 2.0629C13.5719 3.4293 11.5281 5.40505 10.08 7.79721L0.140048 24.5012C0.0510424 24.6552 0.00472813 24.8302 0.00588036 25.0081C0.0070326 25.1859 0.0556097 25.3603 0.146602 25.5131C0.237595 25.666 0.36771 25.7918 0.52353 25.8776C0.67935 25.9634 0.855235 26.006 1.03305 26.0012H46.967C47.1449 26.006 47.3207 25.9634 47.4766 25.8776C47.6324 25.7918 47.7625 25.666 47.8535 25.5131C47.9445 25.3603 47.9931 25.1859 47.9942 25.0081C47.9954 24.8302 47.9491 24.6552 47.86 24.5012L37.92 7.79721C36.4719 5.40505 34.4282 3.4293 31.9885 2.0629C29.5487 0.696498 26.7963 -0.0138523 24 0.00121124Z" fill="black"/>
</g>
<defs>
<clipPath id="clip0_6013_51756">
<rect width="48" height="26" fill="white" transform="translate(0 0.000976562)"/>
</clipPath>
</defs>
</svg>
