<svg width="48" height="42" viewBox="0 0 48 42" fill="none" xmlns="http://www.w3.org/2000/svg">
<g clip-path="url(#clip0_6013_51762)">
<path d="M46.5882 0.00119027H40.9412V8.00119L36.7059 7.00119L32.4706 8.00119V0.00119027H0V42.0012H46.5882C46.9528 42.0066 47.3056 41.9098 47.57 41.7319C47.8344 41.554 47.9889 41.3094 48 41.0512V0.95119C47.9889 0.693015 47.8344 0.448378 47.57 0.270477C47.3056 0.092577 46.9528 -0.00420039 46.5882 0.00119027ZM8.47059 38.5012C8.47153 38.567 8.45392 38.6324 8.41878 38.6933C8.38364 38.7543 8.33168 38.8097 8.26594 38.8562C8.20021 38.9028 8.12202 38.9396 8.03595 38.9645C7.94988 38.9894 7.85767 39.0019 7.76471 39.0012H4.94118C4.84822 39.0019 4.756 38.9894 4.66993 38.9645C4.58387 38.9396 4.50567 38.9028 4.43994 38.8562C4.3742 38.8097 4.32224 38.7543 4.2871 38.6933C4.25196 38.6324 4.23435 38.567 4.23529 38.5012V3.50119C4.23435 3.43534 4.25196 3.37003 4.2871 3.30906C4.32224 3.2481 4.3742 3.19271 4.43994 3.14615C4.50567 3.09958 4.58387 3.06278 4.66993 3.03789C4.756 3.013 4.84822 3.00052 4.94118 3.00119H7.76471C7.85767 3.00052 7.94988 3.013 8.03595 3.03789C8.12202 3.06278 8.20021 3.09958 8.26594 3.14615C8.33168 3.19271 8.38364 3.2481 8.41878 3.30906C8.45392 3.37003 8.47153 3.43534 8.47059 3.50119V38.5012ZM36 23.0012H17.6471C17.0854 23.0012 16.5468 22.8432 16.1497 22.5618C15.7525 22.2805 15.5294 21.899 15.5294 21.5012C15.5294 21.1034 15.7525 20.7218 16.1497 20.4405C16.5468 20.1592 17.0854 20.0012 17.6471 20.0012H36C36.5616 20.0012 37.1003 20.1592 37.4974 20.4405C37.8945 20.7218 38.1176 21.1034 38.1176 21.5012C38.1176 21.899 37.8945 22.2805 37.4974 22.5618C37.1003 22.8432 36.5616 23.0012 36 23.0012ZM36 17.0012H17.6471C17.0854 17.0012 16.5468 16.8432 16.1497 16.5618C15.7525 16.2805 15.5294 15.899 15.5294 15.5012C15.5294 15.1034 15.7525 14.7218 16.1497 14.4405C16.5468 14.1592 17.0854 14.0012 17.6471 14.0012H36C36.5616 14.0012 37.1003 14.1592 37.4974 14.4405C37.8945 14.7218 38.1176 15.1034 38.1176 15.5012C38.1176 15.899 37.8945 16.2805 37.4974 16.5618C37.1003 16.8432 36.5616 17.0012 36 17.0012Z" fill="black"/>
</g>
<defs>
<clipPath id="clip0_6013_51762">
<rect width="48" height="42" fill="white" transform="translate(0 0.000976562)"/>
</clipPath>
</defs>
</svg>
