<svg width="48" height="47" viewBox="0 0 48 47" fill="none" xmlns="http://www.w3.org/2000/svg">
<g clip-path="url(#clip0_6013_51764)">
<path d="M38.9951 21.001C38.9951 14.16 30.6127 9.00098 19.4976 9.00098C8.38245 9.00098 0 14.16 0 21.001C0 21.5314 0.316031 22.0401 0.87857 22.4152C1.44111 22.7903 2.20407 23.001 2.99962 23.001C3.79518 23.001 4.55814 22.7903 5.12068 22.4152C5.68322 22.0401 5.99925 21.5314 5.99925 21.001C5.95985 19.616 6.50039 18.2511 7.56014 17.0596C8.61989 15.8681 10.1569 14.8972 11.9985 14.256V45.001C11.9985 45.5314 12.3145 46.0401 12.8771 46.4152C13.4396 46.7903 14.2026 47.001 14.9981 47.001C15.7937 47.001 16.5566 46.7903 17.1192 46.4152C17.6817 46.0401 17.9977 45.5314 17.9977 45.001V31.001H20.9974V45.001C20.9974 45.5314 21.3134 46.0401 21.8759 46.4152C22.4385 46.7903 23.2015 47.001 23.997 47.001C24.7925 47.001 25.5555 46.7903 26.1181 46.4152C26.6806 46.0401 26.9966 45.5314 26.9966 45.001V14.256C28.8382 14.8972 30.3752 15.8681 31.435 17.0596C32.4947 18.2511 33.0353 19.616 32.9959 21.001C32.9959 21.5314 33.3119 22.0401 33.8744 22.4152C34.437 22.7903 35.2 23.001 35.9955 23.001C36.791 23.001 37.554 22.7903 38.1166 22.4152C38.6791 22.0401 38.9951 21.5314 38.9951 21.001Z" fill="black"/>
<path d="M28.4963 8.00098C31.8096 8.00098 34.4956 6.21012 34.4956 4.00098C34.4956 1.79184 31.8096 0.000976562 28.4963 0.000976562C25.183 0.000976562 22.4971 1.79184 22.4971 4.00098C22.4971 6.21012 25.183 8.00098 28.4963 8.00098Z" fill="black"/>
<path d="M41.9679 27.5008C41.1758 27.4938 40.3894 27.5923 39.6551 27.7905C38.9208 27.9888 38.2532 28.2828 37.6916 28.6554C37.13 29.028 36.6857 29.4716 36.3847 29.9602C36.0836 30.4488 35.932 30.9726 35.9387 31.5008C35.9387 31.8987 36.1757 32.2802 36.5976 32.5615C37.0195 32.8428 37.5917 33.0008 38.1884 33.0008C38.7851 33.0008 39.3573 32.8428 39.7792 32.5615C40.2011 32.2802 40.4381 31.8987 40.4381 31.5008C40.4381 31.2301 40.5995 30.9704 40.8866 30.7789C41.1738 30.5874 41.5633 30.4798 41.9694 30.4798C42.3756 30.4798 42.7651 30.5874 43.0522 30.7789C43.3394 30.9704 43.5007 31.2301 43.5007 31.5008V45.5008C43.5007 45.8987 43.7378 46.2802 44.1597 46.5615C44.5816 46.8428 45.1538 47.0008 45.7505 47.0008C46.3471 47.0008 46.9193 46.8428 47.3413 46.5615C47.7632 46.2802 48.0002 45.8987 48.0002 45.5008V31.5008C48.0062 30.9726 47.8541 30.4488 47.5527 29.9602C47.2513 29.4717 46.8066 29.0281 46.2448 28.6556C45.683 28.2831 45.0154 27.989 44.281 27.7908C43.5466 27.5925 42.7602 27.4939 41.9679 27.5008Z" fill="black"/>
</g>
<defs>
<clipPath id="clip0_6013_51764">
<rect width="48" height="47" fill="white" transform="translate(0 0.000976562)"/>
</clipPath>
</defs>
</svg>
