<svg width="48" height="45" viewBox="0 0 48 45" fill="none" xmlns="http://www.w3.org/2000/svg">
<g clip-path="url(#clip0_6013_51769)">
<path d="M40.0095 40.9988H26.6657V12.4804C26.664 12.463 26.6617 12.4457 26.6591 12.4283C27.6778 11.9886 28.4746 11.309 28.9255 10.4948C29.3765 9.68072 29.4565 8.77769 29.1531 7.92597C28.8497 7.07424 28.1799 6.32148 27.2477 5.78454C26.3154 5.24761 25.1729 4.95654 23.9975 4.95654C22.8221 4.95654 21.6796 5.24761 20.7474 5.78454C19.8151 6.32148 19.1453 7.07424 18.8419 7.92597C18.5385 8.77769 18.6185 9.68072 19.0695 10.4948C19.5205 11.309 20.3172 11.9886 21.336 12.4283C21.3342 12.4457 21.3324 12.4627 21.3306 12.4794V40.9988H7.98951C7.28186 40.9988 6.60318 41.2096 6.10279 41.5849C5.6024 41.9602 5.32129 42.4693 5.32129 43C5.32129 43.5308 5.6024 44.0399 6.10279 44.4152C6.60318 44.7905 7.28186 45.0013 7.98951 45.0013H40.0082C40.7158 45.0013 41.3945 44.7905 41.8949 44.4152C42.3953 44.0399 42.6764 43.5308 42.6764 43C42.6764 42.4693 42.3953 41.9602 41.8949 41.5849C41.3945 41.2096 40.7172 40.9988 40.0095 40.9988Z" fill="black"/>
<path d="M32.9523 15.6693C33.6954 16.2787 35.3978 15.9995 36.3463 14.8888C37.8499 13.1238 38.6488 11.073 38.6488 8.97846C38.6488 6.88394 37.8499 4.83314 36.3463 3.06815C35.3978 1.95643 33.6954 1.67725 32.9523 2.28764C32.616 2.63738 32.4368 3.05832 32.4406 3.48953C32.4445 3.92075 32.6312 4.33986 32.9737 4.68619C34.0648 5.96802 34.6446 7.45713 34.6446 8.97796C34.6446 10.4988 34.0648 11.9879 32.9737 13.2697C32.6309 13.6161 32.444 14.0355 32.4401 14.4669C32.4363 14.8983 32.6157 15.3194 32.9523 15.6693ZM44.5511 0.954786C43.5906 -0.043858 41.9763 -0.271004 41.2238 0.333385C40.8789 0.67831 40.6991 1.10037 40.7134 1.5314C40.7276 1.96243 40.9352 2.37727 41.3026 2.70892C43.0539 4.53534 43.996 6.72823 43.996 8.97796C43.996 11.2277 43.0539 13.4206 41.3026 15.247C40.9347 15.5786 40.7267 15.9936 40.7122 16.4248C40.6976 16.8561 40.8774 17.2784 41.2225 17.6235C41.9776 18.2269 43.5919 17.9998 44.5511 17.0021C46.7932 14.6647 47.9995 11.858 47.9995 8.97846C47.9995 6.09894 46.7932 3.29221 44.5511 0.954786ZM14.9138 15.6693C15.2503 15.3193 15.4294 14.8981 15.4254 14.4667C15.4213 14.0353 15.2342 13.616 14.8911 13.2697C13.8 11.9879 13.2202 10.4988 13.2202 8.97796C13.2202 7.45713 13.8 5.96802 14.8911 4.68619C15.2339 4.33996 15.4208 3.92091 15.4249 3.4897C15.429 3.05848 15.25 2.63748 14.9138 2.28764C14.1707 1.67725 12.4684 1.95643 11.5198 3.06815C10.0163 4.83314 9.21736 6.88394 9.21736 8.97846C9.21736 11.073 10.0163 13.1238 11.5198 14.8888C12.4671 15.9995 14.1694 16.2797 14.9138 15.6693ZM6.77574 17.6225C7.12071 17.2776 7.30046 16.8554 7.28593 16.4243C7.27141 15.9933 7.06345 15.5785 6.6957 15.247C4.94439 13.4206 4.00221 11.2277 4.00221 8.97796C4.00221 6.72823 4.94439 4.53534 6.6957 2.70892C7.06343 2.3775 7.27147 1.96278 7.28624 1.53175C7.30101 1.10071 7.12163 0.678532 6.77708 0.333385C6.0233 -0.270004 4.4077 -0.0438579 3.4498 0.953785C1.20741 3.29131 0.000976562 6.09823 0.000976563 8.97796C0.000976562 11.8577 1.20741 14.6646 3.4498 17.0021C4.4077 17.9998 6.02197 18.2269 6.77574 17.6225Z" fill="black"/>
</g>
<defs>
<clipPath id="clip0_6013_51769">
<rect width="48" height="45" fill="white" transform="translate(0 0.000976562)"/>
</clipPath>
</defs>
</svg>
