<svg width="48" height="48" viewBox="0 0 48 48" fill="none" xmlns="http://www.w3.org/2000/svg">
<g clip-path="url(#clip0_6013_51773)">
<path d="M25 22.501C25 19.5462 24.418 16.6204 23.2873 13.8906C22.1566 11.1608 20.4992 8.68039 18.4099 6.59107C16.3206 4.50176 13.8402 2.84442 11.1104 1.71369C8.38055 0.582956 5.45474 0.000976563 2.5 0.000976562L0 0.000976563V10.501C0 16.4683 2.37053 22.1913 6.5901 26.4109C10.8097 30.6304 16.5326 33.001 22.5 33.001H25V22.501ZM43.729 0.000976563C39.5575 0.00124175 35.5569 1.65848 32.6072 4.60819C29.6575 7.55789 28.0003 11.5585 28 15.73V25.001H32.271C36.4425 25.0007 40.4431 23.3435 43.3928 20.3938C46.3425 17.4441 47.9997 13.4435 48 9.27198V0.000976563H43.729ZM30 28.001C29.4696 28.001 28.9609 28.2117 28.5858 28.5868C28.2107 28.9618 28 29.4705 28 30.001V41.001C27.9992 41.7964 27.6829 42.559 27.1204 43.1214C26.558 43.6839 25.7954 44.0002 25 44.001C24.4696 44.001 23.9609 44.2117 23.5858 44.5868C23.2107 44.9618 23 45.4705 23 46.001C23 46.5314 23.2107 47.0401 23.5858 47.4152C23.9609 47.7903 24.4696 48.001 25 48.001C26.8557 47.9983 28.6346 47.26 29.9468 45.9478C31.259 44.6356 31.9974 42.8567 32 41.001V30.001C32 29.4705 31.7893 28.9618 31.4142 28.5868C31.0391 28.2117 30.5304 28.001 30 28.001Z" fill="black"/>
</g>
<defs>
<clipPath id="clip0_6013_51773">
<rect width="48" height="48" fill="white" transform="translate(0 0.000976562)"/>
</clipPath>
</defs>
</svg>
