<svg width="48" height="42" viewBox="0 0 48 42" fill="none" xmlns="http://www.w3.org/2000/svg">
<g clip-path="url(#clip0_6013_51776)">
<path d="M48 29.494V29.001C47.9983 25.6477 46.7 22.4249 44.3765 20.007C42.0531 17.589 38.8846 16.1633 35.534 16.028C35.502 15.966 35.476 15.901 35.443 15.839C36.7375 13.503 37.2511 10.8142 36.9087 8.16554C36.5663 5.51686 35.3859 3.04707 33.54 1.11699L33.541 1.11599L33.151 0.716993L33.149 0.718993C32.9237 0.490187 32.6549 0.30872 32.3585 0.185252C32.062 0.0617844 31.7439 -0.00119395 31.4228 1.71406e-05C31.1016 0.00122823 30.784 0.0666043 30.4885 0.192305C30.193 0.318005 29.9256 0.501494 29.702 0.731993C29.245 1.2029 28.9882 1.83264 28.9858 2.48887C28.9834 3.1451 29.2354 3.77672 29.689 4.25099L29.687 4.25299L30.049 4.62199C30.7342 5.33096 31.2621 6.17649 31.5983 7.10337C31.9345 8.03025 32.0714 9.01762 32 10.001C31.9733 10.5413 31.8963 11.078 31.77 11.604C29.5321 9.91525 26.8049 9.00154 24.0013 9.00118C21.1977 9.00082 18.4704 9.91382 16.232 11.602C16.1051 11.0767 16.0274 10.5407 16 10.001C15.9287 9.01862 16.0656 8.03226 16.4016 7.10639C16.7376 6.18052 17.2652 5.33599 17.95 4.62799L18.297 4.26199L18.296 4.26099C18.7532 3.78719 19.0081 3.15417 19.007 2.49578C19.0059 1.83738 18.7488 1.20523 18.29 0.732993C18.0656 0.501946 17.7972 0.318165 17.5006 0.192484C17.2041 0.0668037 16.8854 0.00176666 16.5633 0.00120748C16.2412 0.00064829 15.9222 0.0645782 15.6252 0.189229C15.3282 0.313879 15.0592 0.496727 14.834 0.726993L14.832 0.727993L14.826 0.732993L14.821 0.738993L14.481 1.08699L14.515 1.12199L14.48 1.08699C12.625 3.01599 11.4375 5.48901 11.0919 8.1428C10.7463 10.7966 11.2609 13.4913 12.56 15.831C12.525 15.895 12.498 15.963 12.465 16.028C9.11458 16.1635 5.94635 17.5894 3.62312 20.0073C1.29989 22.4252 0.0016486 25.6478 0 29.001L0 29.511H0.001C0.001 30.1738 0.264287 30.8094 0.73294 31.2781C1.20159 31.7467 1.83722 32.01 2.5 32.01C3.16278 32.01 3.79841 31.7467 4.26706 31.2781C4.73571 30.8094 4.999 30.1738 4.999 29.511H5.001L5.01 29.001C5.01353 27.2254 5.60768 25.5014 6.69886 24.1006C7.79004 22.6998 9.31623 21.7019 11.037 21.264C11.023 21.509 11 21.752 11 22.001C11.0034 24.5985 11.7844 27.1356 13.2422 29.2855C14.7001 31.4354 16.7681 33.0996 19.18 34.064C18.4326 34.9817 17.4902 35.7214 16.4212 36.2294C15.3522 36.7375 14.1835 37.001 13 37.001H12.479V37.003C11.8165 37.003 11.1811 37.2662 10.7126 37.7346C10.2442 38.2031 9.981 38.8385 9.981 39.501C9.981 40.1635 10.2442 40.7989 10.7126 41.2673C11.1811 41.7358 11.8165 41.999 12.479 41.999V42.001H13.042V41.999C15.2344 41.9916 17.3891 41.429 19.3053 40.3638C21.2215 39.2985 22.8366 37.7652 24 35.907C25.1634 37.7652 26.7785 39.2985 28.6947 40.3638C30.6109 41.429 32.7656 41.9916 34.958 41.999V42.001H35.521V41.999C36.1835 41.999 36.8189 41.7358 37.2874 41.2673C37.7558 40.7989 38.019 40.1635 38.019 39.501C38.019 38.8385 37.7558 38.2031 37.2874 37.7346C36.8189 37.2662 36.1835 37.003 35.521 37.003V37.001H35C33.8165 37.001 32.6478 36.7375 31.5788 36.2294C30.5098 35.7214 29.5674 34.9817 28.82 34.064C31.2319 33.0996 33.2999 31.4354 34.7578 29.2855C36.2156 27.1356 36.9966 24.5985 37 22.001C37 21.752 36.977 21.509 36.963 21.264C38.6838 21.7019 40.21 22.6998 41.3011 24.1006C42.3923 25.5014 42.9865 27.2254 42.99 29.001H43.05H42.989L42.999 29.511C42.999 30.1738 43.2633 30.8094 43.7319 31.2781C44.2006 31.7467 44.8362 32.01 45.499 32.01C46.1618 32.01 46.7974 31.7467 47.2661 31.2781C47.7347 30.8094 47.998 30.1738 47.998 29.511V29.508L48 29.501V29.494ZM24 13.001C26.1768 13.0011 28.279 13.7947 29.913 15.233C29.792 15.373 29.673 15.516 29.54 15.651C28.8224 16.3942 27.9625 16.9853 27.0116 17.389C26.0606 17.7927 25.0381 18.0007 24.005 18.0007C22.9719 18.0007 21.9494 17.7927 20.9984 17.389C20.0475 16.9853 19.1876 16.3942 18.47 15.651C18.336 15.515 18.215 15.371 18.092 15.228C19.7254 13.7926 21.8255 13.001 24 13.001ZM15 22.001C15 21.759 15.018 21.521 15.036 21.283C16.9833 21.7861 18.6672 23.0094 19.7474 24.7059C20.8277 26.4024 21.2239 28.4457 20.856 30.423C19.1392 29.7814 17.6588 28.6315 16.6125 27.1267C15.5662 25.6219 15.0036 23.8338 15 22.001ZM27.143 30.423C26.7751 28.4457 27.1713 26.4024 28.2516 24.7059C29.3318 23.0094 31.0157 21.7861 32.963 21.283C32.983 21.521 33 21.759 33 22.001C32.9963 23.8339 32.4336 25.6221 31.3871 27.1269C30.3406 28.6317 28.86 29.7816 27.143 30.423Z" fill="black"/>
</g>
<defs>
<clipPath id="clip0_6013_51776">
<rect width="48" height="42" fill="white" transform="translate(0 0.000976562)"/>
</clipPath>
</defs>
</svg>
