<svg width="48" height="46" viewBox="0 0 48 46" fill="none" xmlns="http://www.w3.org/2000/svg">
<g clip-path="url(#clip0_6013_51778)">
<path d="M29.903 23.0011L46.7791 6.82911C47.5619 6.07895 48.0017 5.06151 48.0017 4.00061C48.0017 2.93972 47.5619 1.92228 46.7791 1.17211C45.9964 0.42195 44.9347 0.000511719 43.8277 0.000511719C42.7206 0.000511719 41.659 0.42195 40.8762 1.17211L24 17.3441L7.12696 1.17111C6.34418 0.42095 5.2825 -0.000488281 4.17549 -0.000488281C3.06847 -0.000488281 2.00679 0.42095 1.22401 1.17111C0.441226 1.92128 0.00146484 2.93872 0.00146484 3.99961C0.00146484 5.06051 0.441226 6.07795 1.22401 6.82811L18.096 23.0011L1.22401 39.1711C0.441227 39.9213 0.00146489 40.9387 0.00146491 41.9996C0.00146492 43.0605 0.441227 44.0779 1.22401 44.8281C2.00679 45.5783 3.06847 45.9997 4.17549 45.9997C5.2825 45.9997 6.34418 45.5783 7.12696 44.8281L24 28.6581L40.8751 44.8291C41.6579 45.5793 42.7196 46.0007 43.8266 46.0007C44.9336 46.0007 45.9953 45.5793 46.7781 44.8291C47.5609 44.0789 48.0006 43.0615 48.0006 42.0006C48.0006 40.9397 47.5609 39.9223 46.7781 39.1721L29.903 23.0011Z" fill="black"/>
</g>
<defs>
<clipPath id="clip0_6013_51778">
<rect width="48" height="46" fill="white" transform="translate(0 0.000976562)"/>
</clipPath>
</defs>
</svg>
