<svg id="expand" width="24" height="25" viewBox="0 0 24 25" fill="none" xmlns="http://www.w3.org/2000/svg">
<path d="M5 15.0117H3V19.0117C3 20.1117 3.9 21.0117 5 21.0117H9V19.0117H5V15.0117ZM5 5.01172H9V3.01172H5C3.9 3.01172 3 3.91172 3 5.01172V9.01172H5V5.01172ZM19 3.01172H15V5.01172H19V9.01172H21V5.01172C21 3.91172 20.1 3.01172 19 3.01172ZM19 19.0117H15V21.0117H19C20.1 21.0117 21 20.1117 21 19.0117V15.0117H19V19.0117ZM12 9.01172C10.34 9.01172 9 10.3517 9 12.0117C9 13.6717 10.34 15.0117 12 15.0117C13.66 15.0117 15 13.6717 15 12.0117C15 10.3517 13.66 9.01172 12 9.01172Z" fill="currentColor"/>
</svg>
