<svg width="48" height="48" viewBox="0 0 48 48" fill="none" xmlns="http://www.w3.org/2000/svg">
<g clip-path="url(#clip0_6013_51786)">
<path d="M0.000157471 44.0011C0.000118794 42.9405 0.421327 41.9233 1.17116 41.1731L21.1712 22.1731C21.5426 21.8015 21.9836 21.5067 22.469 21.3056C22.9545 21.1045 23.4747 21.001 24.0002 21.001C24.5256 21.001 25.0459 21.1045 25.5313 21.3056C26.0167 21.5067 26.4577 21.8015 26.8292 22.1731L46.8292 41.1731C47.5793 41.9233 48.0008 42.9407 48.0008 44.0016C48.0008 45.0625 47.5793 46.08 46.8292 46.8301C46.079 47.5803 45.0616 48.0017 44.0007 48.0017C42.9398 48.0017 41.9223 47.5803 41.1722 46.8301L24.0002 31.0011L6.82916 46.8301C6.26974 47.3898 5.55691 47.7709 4.78083 47.9253C4.00476 48.0798 3.20031 48.0006 2.46927 47.6977C1.73822 47.3949 1.11342 46.882 0.673914 46.224C0.234404 45.566 -6.924e-05 44.7924 0.000157471 44.0011ZM1.17116 25.8311C1.54261 26.2027 1.98364 26.4975 2.46905 26.6986C2.95446 26.8998 3.47473 27.0033 4.00016 27.0033C4.52558 27.0033 5.04586 26.8998 5.53127 26.6986C6.01667 26.4975 6.4577 26.2027 6.82916 25.8311L24.0002 10.0011L41.1722 25.8301C41.9223 26.5803 42.9398 27.0017 44.0007 27.0017C45.0616 27.0017 46.079 26.5803 46.8292 25.8301C47.5793 25.08 48.0008 24.0625 48.0008 23.0016C48.0008 21.9407 47.5793 20.9233 46.8292 20.1731L26.8292 1.17312C26.4577 0.801517 26.0167 0.506734 25.5313 0.305613C25.0459 0.104493 24.5256 0.000976562 24.0002 0.000976562C23.4747 0.000976563 22.9545 0.104493 22.469 0.305613C21.9836 0.506734 21.5426 0.801517 21.1712 1.17312L1.17116 20.1731C0.799701 20.5446 0.505045 20.9855 0.304013 21.4708C0.102982 21.9562 -0.000488281 22.4763 -0.000488281 23.0016C-0.000488281 23.5269 0.102982 24.0471 0.304013 24.5324C0.505045 25.0177 0.799701 25.4597 1.17116 25.8311Z" fill="black"/>
</g>
<defs>
<clipPath id="clip0_6013_51786">
<rect width="48" height="48" fill="white" transform="translate(0 0.000976562)"/>
</clipPath>
</defs>
</svg>
