<svg width="48" height="48" viewBox="0 0 48 48" fill="none" xmlns="http://www.w3.org/2000/svg">
<g clip-path="url(#clip0_6013_51784)">
<path d="M4.00015 0.00113403C4.52566 0.000852189 5.04608 0.104125 5.53166 0.30505C6.01725 0.505976 6.45848 0.800616 6.83015 1.17213L25.8301 21.1721C26.2018 21.5436 26.4965 21.9846 26.6977 22.47C26.8988 22.9554 27.0023 23.4757 27.0023 24.0011C27.0023 24.5266 26.8988 25.0468 26.6977 25.5322C26.4965 26.0177 26.2018 26.4587 25.8301 26.8301L6.83015 46.8301C6.4587 47.2016 6.01774 47.4962 5.53242 47.6972C5.04711 47.8983 4.52695 48.0017 4.00165 48.0017C2.94075 48.0017 1.92331 47.5803 1.17315 46.8301C0.422983 46.08 0.00154461 45.0625 0.00154461 44.0016C0.00154461 42.9407 0.422983 41.9233 1.17315 41.1731L17.0001 24.0011L1.17215 6.83013C0.612567 6.27078 0.23144 5.55804 0.0769722 4.78206C-0.0774954 4.00607 0.00163555 3.20171 0.304357 2.47071C0.607078 1.7397 1.11979 1.11489 1.77764 0.675307C2.4355 0.235721 3.20894 0.00110518 4.00015 0.00113403ZM22.1721 1.17213C21.8005 1.54359 21.5058 1.98462 21.3046 2.47003C21.1035 2.95543 21 3.47571 21 4.00113C21 4.52656 21.1035 5.04683 21.3046 5.53224C21.5058 6.01765 21.8005 6.45868 22.1721 6.83013L38.0001 24.0011L22.1721 41.1731C21.422 41.9233 21.0005 42.9407 21.0005 44.0016C21.0005 45.0625 21.422 46.08 22.1721 46.8301C22.9223 47.5803 23.9398 48.0017 25.0006 48.0017C26.0615 48.0017 27.079 47.5803 27.8291 46.8301L46.8291 26.8301C47.2008 26.4587 47.4955 26.0177 47.6967 25.5322C47.8978 25.0468 48.0013 24.5266 48.0013 24.0011C48.0013 23.4757 47.8978 22.9554 47.6967 22.47C47.4955 21.9846 47.2008 21.5436 46.8291 21.1721L27.8291 1.17213C27.4577 0.800678 27.0167 0.506022 26.5314 0.30499C26.0461 0.103958 25.526 0.000488281 25.0006 0.000488281C24.4753 0.000488281 23.9552 0.103958 23.4699 0.30499C22.9846 0.506022 22.5436 0.800678 22.1721 1.17213Z" fill="black"/>
</g>
<defs>
<clipPath id="clip0_6013_51784">
<rect width="48" height="48" fill="white" transform="translate(0 0.000976562)"/>
</clipPath>
</defs>
</svg>
