<svg width="48" height="48" viewBox="0 0 48 48" fill="none" xmlns="http://www.w3.org/2000/svg">
<g clip-path="url(#clip0_6013_51782)">
<path d="M44.0001 48.0011C42.9395 48.0011 41.9223 47.5799 41.1721 46.8301L22.1721 26.8301C21.8005 26.4586 21.5058 26.0176 21.3046 25.5322C21.1035 25.0468 21 24.5265 21 24.0011C21 23.4757 21.1035 22.9554 21.3046 22.47C21.5058 21.9846 21.8005 21.5435 22.1721 21.1721L41.1721 1.17209C41.9223 0.421927 42.9398 0.00048833 44.0006 0.000488341C45.0615 0.000488352 46.079 0.421927 46.8291 1.17209C47.5793 1.92226 48.0007 2.9397 48.0007 4.00059C48.0007 5.06148 47.5793 6.07893 46.8291 6.82909L31.0001 24.0011L46.8291 41.1721C47.3888 41.7315 47.7699 42.4443 47.9244 43.2204C48.0788 43.9965 47.9996 44.8009 47.6967 45.532C47.3939 46.263 46.881 46.8878 46.223 47.3273C45.565 47.7668 44.7914 48.0013 44.0001 48.0011ZM25.8301 46.8301C26.2018 46.4586 26.4965 46.0176 26.6977 45.5322C26.8988 45.0468 27.0023 44.5265 27.0023 44.0011C27.0023 43.4757 26.8988 42.9554 26.6977 42.47C26.4965 41.9846 26.2018 41.5435 25.8301 41.1721L10.0001 24.0011L25.8291 6.82909C26.5793 6.07893 27.0007 5.06148 27.0007 4.00059C27.0007 2.9397 26.5793 1.92226 25.8291 1.17209C25.079 0.421926 24.0615 0.000488281 23.0006 0.000488281C21.9398 0.000488281 20.9223 0.421926 20.1721 1.17209L1.17215 21.1721C0.80054 21.5435 0.505757 21.9846 0.304637 22.47C0.103517 22.9554 0 23.4757 0 24.0011C0 24.5265 0.103517 25.0468 0.304637 25.5322C0.505757 26.0176 0.80054 26.4586 1.17215 26.8301L20.1721 46.8301C20.5436 47.2015 20.9845 47.4962 21.4699 47.6972C21.9552 47.8983 22.4753 48.0017 23.0006 48.0017C23.5259 48.0017 24.0461 47.8983 24.5314 47.6972C25.0167 47.4962 25.4587 47.2015 25.8301 46.8301Z" fill="black"/>
</g>
<defs>
<clipPath id="clip0_6013_51782">
<rect width="48" height="48" fill="white" transform="translate(0 0.000976562)"/>
</clipPath>
</defs>
</svg>
