<svg width="48" height="48" viewBox="0 0 48 48" fill="none" xmlns="http://www.w3.org/2000/svg">
<g clip-path="url(#clip0_6013_51780)">
<path d="M48.0001 4.00112C48.0003 4.52647 47.8969 5.0467 47.696 5.5321C47.4951 6.0175 47.2005 6.45857 46.8291 6.83012L26.8291 25.8301C26.4577 26.2017 26.0166 26.4965 25.5312 26.6976C25.0458 26.8988 24.5255 27.0023 24.0001 27.0023C23.4747 27.0023 22.9544 26.8988 22.469 26.6976C21.9836 26.4965 21.5426 26.2017 21.1711 25.8301L1.17111 6.83012C0.42095 6.07996 -0.000488289 5.06252 -0.000488281 4.00162C-0.000488273 2.94073 0.42095 1.92329 1.17111 1.17312C1.92128 0.42296 2.93872 0.00152122 3.99961 0.00152122C5.06051 0.00152121 6.07795 0.42296 6.82811 1.17312L24.0001 17.0011L41.1711 1.17312C41.7305 0.613543 42.4432 0.232416 43.2192 0.0779487C43.9952 -0.0765189 44.7995 0.00261211 45.5305 0.305333C46.2615 0.608054 46.8864 1.12077 47.3259 1.77862C47.7655 2.43647 48.0001 3.20992 48.0001 4.00112ZM46.8291 22.1731C46.4577 21.8015 46.0166 21.5067 45.5312 21.3056C45.0458 21.1045 44.5255 21.001 44.0001 21.001C43.4747 21.001 42.9544 21.1045 42.469 21.3056C41.9836 21.5067 41.5426 21.8015 41.1711 22.1731L24.0001 38.0011L6.82811 22.1731C6.07795 21.423 5.06051 21.0015 3.99961 21.0015C2.93872 21.0015 1.92128 21.423 1.17111 22.1731C0.42095 22.9233 -0.000488273 23.9407 -0.000488281 25.0016C-0.000488289 26.0625 0.42095 27.08 1.17111 27.8301L21.1711 46.8301C21.5426 47.2017 21.9836 47.4965 22.469 47.6976C22.9544 47.8988 23.4747 48.0023 24.0001 48.0023C24.5255 48.0023 25.0458 47.8988 25.5312 47.6976C26.0166 47.4965 26.4577 47.2017 26.8291 46.8301L46.8291 27.8301C47.2006 27.4587 47.4952 27.0177 47.6963 26.5324C47.8973 26.0471 48.0008 25.5269 48.0008 25.0016C48.0008 24.4763 47.8973 23.9562 47.6963 23.4708C47.4952 22.9855 47.2006 22.5446 46.8291 22.1731Z" fill="black"/>
</g>
<defs>
<clipPath id="clip0_6013_51780">
<rect width="48" height="48" fill="white" transform="translate(0 0.000976562)"/>
</clipPath>
</defs>
</svg>
