<svg width="48" height="48" viewBox="0 0 48 48" fill="none" xmlns="http://www.w3.org/2000/svg">
<g clip-path="url(#clip0_6013_51788)">
<path d="M10.9547 0.000735659C8.78803 0.000735659 6.67006 0.587225 4.86858 1.68604C3.0671 2.78485 1.66301 4.34664 0.833878 6.1739C0.00474648 8.00116 -0.212192 10.0118 0.210496 11.9516C0.633183 13.8914 1.67651 15.6733 3.20855 17.0718C4.74058 18.4703 6.69252 19.4227 8.81751 19.8086C10.9425 20.1944 13.1451 19.9964 15.1468 19.2395C17.1485 18.4827 18.8594 17.2009 20.0631 15.5564C21.2668 13.9119 21.9093 11.9785 21.9093 10.0007C21.9093 7.34857 20.7552 4.80503 18.7008 2.92967C16.6464 1.0543 13.86 0.000735659 10.9547 0.000735659ZM10.9547 17.0007C10.738 17.0007 10.5262 16.9421 10.346 16.8322C10.1659 16.7223 10.0255 16.5661 9.94258 16.3834C9.85967 16.2007 9.83797 15.9996 9.88024 15.8056C9.92251 15.6117 10.0268 15.4335 10.18 15.2936C10.3333 15.1538 10.5284 15.0585 10.7409 15.0199C10.9534 14.9814 11.1737 15.0012 11.3739 15.0769C11.574 15.1525 11.7451 15.2807 11.8655 15.4452C11.9859 15.6096 12.0501 15.803 12.0501 16.0007C12.0501 16.266 11.9347 16.5203 11.7293 16.7078C11.5238 16.8954 11.2452 17.0007 10.9547 17.0007ZM12.0501 12.0007C12.0501 12.266 11.9347 12.5203 11.7293 12.7078C11.5238 12.8954 11.2452 13.0007 10.9547 13.0007C10.6641 13.0007 10.3855 12.8954 10.18 12.7078C9.97461 12.5203 9.85919 12.266 9.85919 12.0007V4.00074C9.85919 3.73552 9.97461 3.48117 10.18 3.29363C10.3855 3.10609 10.6641 3.00074 10.9547 3.00074C11.2452 3.00074 11.5238 3.10609 11.7293 3.29363C11.9347 3.48117 12.0501 3.73552 12.0501 4.00074V12.0007ZM32.4718 20.3387L33.5651 20.6067L34.4436 17.6127C34.8317 16.2897 34.6283 14.8801 33.8781 13.694C33.1278 12.5079 31.8922 11.6423 30.443 11.2877L29.3497 11.0197L28.4711 14.0137C28.083 15.3368 28.2864 16.7463 29.0367 17.9325C29.7869 19.1186 31.0225 19.9841 32.4718 20.3387ZM29.8361 29.3187L30.9294 29.5867L31.8079 26.5927C32.1961 25.2697 31.9926 23.8601 31.2424 22.674C30.4922 21.4879 29.2565 20.6223 27.8073 20.2677L26.714 19.9997L25.8355 22.9937C25.4473 24.3168 25.6508 25.7263 26.401 26.9125C27.1512 28.0986 28.3869 28.9641 29.8361 29.3187ZM28.2926 38.5667L29.1722 35.5737C29.3646 34.9185 29.4136 34.2351 29.3166 33.5626C29.2196 32.89 28.9784 32.2415 28.6068 31.6541C28.2352 31.0667 27.7404 30.5518 27.1508 30.1389C26.5612 29.726 25.8883 29.4232 25.1705 29.2477L24.0783 28.9797L23.1987 31.9737C22.8106 33.2969 23.0142 34.7066 23.7646 35.8928C24.5151 37.0789 25.751 37.9444 27.2004 38.2987L28.2926 38.5667ZM37.7224 18.4147L36.8438 21.4087L37.9371 21.6757C38.6548 21.8513 39.4033 21.8961 40.14 21.8076C40.8767 21.7191 41.5871 21.499 42.2306 21.1599C42.8741 20.8208 43.4381 20.3693 43.8905 19.8312C44.3428 19.2931 44.6746 18.6789 44.867 18.0237L45.7455 15.0307L44.6523 14.7627C43.9346 14.5872 43.186 14.5423 42.4493 14.6308C41.7126 14.7193 41.0022 14.9394 40.3587 15.2786C39.7152 15.6177 39.1512 16.0692 38.6988 16.6073C38.2465 17.1454 37.9147 17.7596 37.7224 18.4147ZM35.0867 27.3947L34.2081 30.3887L35.3014 30.6557C36.0191 30.8313 36.7676 30.8761 37.5043 30.7876C38.241 30.6991 38.9514 30.479 39.5949 30.1399C40.2384 29.8008 40.8024 29.3493 41.2548 28.8112C41.7071 28.2731 42.0389 27.6589 42.2313 27.0037L43.1088 24.0107L42.0166 23.7427C41.2989 23.5672 40.5503 23.5223 39.8136 23.6108C39.0769 23.6993 38.3666 23.9194 37.723 24.2586C37.0795 24.5977 36.5155 25.0492 36.0632 25.5873C35.6108 26.1254 35.279 26.7396 35.0867 27.3947ZM32.451 36.3747L31.5724 39.3687L32.6657 39.6357C34.115 39.99 35.6592 39.8043 36.9585 39.1195C38.2579 38.4346 39.2061 37.3067 39.5945 35.9837L40.4731 32.9907L39.3809 32.7227C38.6632 32.5472 37.9146 32.5023 37.1779 32.5908C36.4412 32.6793 35.7309 32.8994 35.0874 33.2386C34.4439 33.5777 33.8798 34.0292 33.4275 34.5673C32.9751 35.1054 32.6433 35.7196 32.451 36.3747ZM26.0962 46.0507C25.9906 46.4445 26.0582 46.8603 26.2844 47.2091C26.5107 47.5579 26.8776 47.8119 27.3066 47.9167C27.7356 48.0214 28.1924 47.9686 28.5793 47.7696C28.9661 47.5705 29.2521 47.241 29.376 46.8517L30.9863 41.3637L27.7076 40.5617L26.0962 46.0507ZM31.5746 9.42574C32.0095 9.53203 32.4729 9.47628 32.8628 9.27074C33.2527 9.06521 33.5372 8.72673 33.6538 8.32974L34.8259 4.33874C34.8879 4.14091 34.9062 3.9338 34.8796 3.72948C34.853 3.52516 34.7821 3.32771 34.671 3.14866C34.56 2.96961 34.411 2.81254 34.2327 2.6866C34.0545 2.56067 33.8505 2.46839 33.6328 2.41515C33.4151 2.36191 33.1879 2.34877 32.9646 2.37651C32.7412 2.40425 32.5262 2.4723 32.3319 2.5767C32.1377 2.6811 31.9682 2.81975 31.8333 2.98458C31.6984 3.14941 31.6007 3.33711 31.5461 3.53674L30.374 7.52774C30.2575 7.92476 30.3186 8.34775 30.5438 8.70368C30.7689 9.05961 31.1397 9.31933 31.5746 9.42574ZM46.7413 5.64974C46.3067 5.54371 45.8437 5.59948 45.4541 5.80478C45.0645 6.01008 44.78 6.34815 44.6632 6.74474L43.4911 10.7357C43.3831 11.1302 43.4493 11.5475 43.6753 11.8978C43.9012 12.2481 44.2689 12.5034 44.6991 12.6086C45.1293 12.7138 45.5875 12.6605 45.975 12.4602C46.3626 12.2599 46.6484 11.9286 46.7709 11.5377L47.9419 7.54774C48.0584 7.15071 47.9973 6.72772 47.7722 6.37179C47.547 6.01586 47.1762 5.75614 46.7413 5.64974ZM37.2546 14.0227C37.6894 14.1291 38.1526 14.0734 38.5425 13.8681C38.9324 13.6628 39.217 13.3245 39.3338 12.9277L42.5544 1.95174C42.6199 1.75303 42.6409 1.54436 42.6164 1.33809C42.5918 1.13182 42.5221 0.93215 42.4115 0.750918C42.3008 0.569685 42.1514 0.410578 41.9721 0.28303C41.7929 0.155482 41.5874 0.0620878 41.3678 0.00838495C41.1483 -0.0453179 40.9192 -0.0582365 40.694 -0.0296051C40.4689 -0.000973649 40.2524 0.068625 40.0573 0.175065C39.8622 0.281505 39.6925 0.422619 39.5582 0.590043C39.424 0.757467 39.3279 0.947792 39.2757 1.14974L36.055 12.1247C35.9386 12.5216 35.9995 12.9445 36.2244 13.3004C36.4494 13.6563 36.8199 13.9161 37.2546 14.0227Z" fill="black"/>
</g>
<defs>
<clipPath id="clip0_6013_51788">
<rect width="48" height="48" fill="white" transform="translate(0 0.000976562)"/>
</clipPath>
</defs>
</svg>
