<svg width="48" height="41" viewBox="0 0 48 41" fill="none" xmlns="http://www.w3.org/2000/svg">
<g clip-path="url(#clip0_6013_51791)">
<path d="M44.5149 3.85884L44.1419 3.48584C41.9102 1.2545 38.8837 0.000976563 35.7279 0.000976562C32.5721 0.000976562 29.5455 1.2545 27.3139 3.48584L23.9999 7.00084L20.6859 3.48584C18.4542 1.2545 15.4277 0.000976563 12.2719 0.000976562C9.11606 0.000976562 6.0895 1.2545 3.85786 3.48584L3.48486 3.85884C1.25352 6.09047 0 9.11704 0 12.2728C0 15.4286 1.25352 18.4552 3.48486 20.6868L23.1149 40.6338C23.231 40.7502 23.3689 40.8426 23.5208 40.9056C23.6726 40.9686 23.8354 41.0011 23.9999 41.0011C24.1643 41.0011 24.3271 40.9686 24.4789 40.9056C24.6308 40.8426 24.7687 40.7502 24.8849 40.6338L44.5149 20.6868C46.7462 18.4552 47.9997 15.4286 47.9997 12.2728C47.9997 9.11704 46.7462 6.09047 44.5149 3.85884Z" fill="black"/>
</g>
<defs>
<clipPath id="clip0_6013_51791">
<rect width="48" height="41" fill="white" transform="translate(0 0.000976562)"/>
</clipPath>
</defs>
</svg>
