<svg width="48" height="44" viewBox="0 0 48 44" fill="none" xmlns="http://www.w3.org/2000/svg">
<g clip-path="url(#clip0_6013_51793)">
<path d="M46 16.001H2C1.47005 16.0026 0.962265 16.2138 0.587535 16.5885C0.212805 16.9632 0.00158273 17.471 0 18.001L0 31.961C0.00158273 32.4909 0.212805 32.9987 0.587535 33.3734C0.962265 33.7482 1.47005 33.9594 2 33.961H8V27.991H40V33.961H46C46.5299 33.9594 47.0377 33.7482 47.4125 33.3734C47.7872 32.9987 47.9984 32.4909 48 31.961V18.001C47.9984 17.471 47.7872 16.9632 47.4125 16.5885C47.0377 16.2138 46.5299 16.0026 46 16.001ZM32 23.001C31.6044 23.001 31.2178 22.8837 30.8889 22.6639C30.56 22.4442 30.3036 22.1318 30.1522 21.7663C30.0009 21.4009 29.9613 20.9988 30.0384 20.6108C30.1156 20.2228 30.3061 19.8665 30.5858 19.5868C30.8655 19.3071 31.2219 19.1166 31.6098 19.0394C31.9978 18.9622 32.3999 19.0018 32.7654 19.1532C33.1308 19.3046 33.4432 19.5609 33.6629 19.8898C33.8827 20.2187 34 20.6054 34 21.001C33.9984 21.5309 33.7872 22.0387 33.4125 22.4134C33.0377 22.7882 32.5299 22.9994 32 23.001ZM38 23.001C37.6044 23.001 37.2178 22.8837 36.8889 22.6639C36.56 22.4442 36.3036 22.1318 36.1522 21.7663C36.0009 21.4009 35.9613 20.9988 36.0384 20.6108C36.1156 20.2228 36.3061 19.8665 36.5858 19.5868C36.8655 19.3071 37.2219 19.1166 37.6098 19.0394C37.9978 18.9622 38.3999 19.0018 38.7654 19.1532C39.1308 19.3046 39.4432 19.5609 39.6629 19.8898C39.8827 20.2187 40 20.6054 40 21.001C39.9984 21.5309 39.7872 22.0387 39.4125 22.4134C39.0377 22.7882 38.5299 22.9994 38 23.001Z" fill="black"/>
<path d="M11 33.961V42.001C11.0016 42.5309 11.2128 43.0387 11.5875 43.4134C11.9623 43.7882 12.4701 43.9994 13 44.001H35C35.5299 43.9994 36.0377 43.7882 36.4125 43.4134C36.7872 43.0387 36.9984 42.5309 37 42.001V30.991H11V33.961ZM37 7.00098H33C32.2052 6.99834 31.4436 6.68142 30.8816 6.11938C30.3196 5.55735 30.0026 4.79581 30 4.00098V0.000976562H13C12.4701 0.00255929 11.9623 0.213781 11.5875 0.588511C11.2128 0.963242 11.0016 1.47103 11 2.00098V14.001H37V7.00098Z" fill="black"/>
<path d="M33 5.00098H37L32 0.000976562V4.00098C32.0008 4.26595 32.1064 4.51984 32.2938 4.70721C32.4811 4.89457 32.735 5.00019 33 5.00098Z" fill="black"/>
</g>
<defs>
<clipPath id="clip0_6013_51793">
<rect width="48" height="44" fill="white" transform="translate(0 0.000976562)"/>
</clipPath>
</defs>
</svg>
