<svg width="48" height="48" viewBox="0 0 48 48" fill="none" xmlns="http://www.w3.org/2000/svg">
<g clip-path="url(#clip0_6013_51798)">
<path d="M6.62 31.241C7.32907 31.7055 8.15272 31.965 9 31.991C9.1 32.001 9.21 32.001 9.33 32.001C10.2898 32.0304 11.2355 31.7652 12.04 31.241C12.4496 31.0073 12.8738 30.8002 13.31 30.621C14.3726 30.1877 15.5127 29.9766 16.66 30.001C18.2892 29.971 19.8939 30.4008 21.29 31.241C22.0929 31.7688 23.0398 32.0343 24 32.001C24.9569 32.0329 25.9002 31.7674 26.7 31.241C28.0955 30.3993 29.7006 29.9694 31.33 30.001C32.4803 29.9795 33.6231 30.1904 34.69 30.621C35.1228 30.8006 35.5436 31.0077 35.95 31.241C36.7545 31.7652 37.7002 32.0304 38.66 32.001C39.1114 32.0117 39.5622 31.9613 40 31.851C40.4846 31.7086 40.9485 31.5035 41.38 31.241C41.61 31.111 41.85 30.981 42.12 30.851C43.364 28.2116 44.0061 25.3288 44 22.411V14.001C43.9992 13.736 43.8936 13.4821 43.7062 13.2947C43.5189 13.1074 43.265 13.0018 43 13.001H5C4.73503 13.0018 4.48113 13.1074 4.29377 13.2947C4.1064 13.4821 4.00079 13.736 4 14.001V22.411C3.99389 25.3288 4.63602 28.2116 5.88 30.851C6.15 30.981 6.39 31.111 6.62 31.241ZM10 17.001H38V21.591C38.0304 23.4429 37.6904 25.2823 37 27.001H11C10.3096 25.2823 9.96956 23.4429 10 21.591V17.001ZM20 4.00098H28C28.5304 4.00098 29.0391 3.79026 29.4142 3.41519C29.7893 3.04012 30 2.53141 30 2.00098C30 1.47054 29.7893 0.961836 29.4142 0.586763C29.0391 0.21169 28.5304 0.000976563 28 0.000976562L20 0.000976563C19.4696 0.000976563 18.9609 0.21169 18.5858 0.586763C18.2107 0.961836 18 1.47054 18 2.00098C18 2.53141 18.2107 3.04012 18.5858 3.41519C18.9609 3.79026 19.4696 4.00098 20 4.00098ZM11.5 11.001H36.5C37.163 11.001 37.7989 10.7376 38.2678 10.2687C38.7366 9.7999 39 9.16402 39 8.50098C39 7.83794 38.7366 7.20205 38.2678 6.73321C37.7989 6.26437 37.163 6.00098 36.5 6.00098H11.5C10.837 6.00098 10.2011 6.26437 9.73223 6.73321C9.26339 7.20205 9 7.83794 9 8.50098C9 9.16402 9.26339 9.7999 9.73223 10.2687C10.2011 10.7376 10.837 11.001 11.5 11.001ZM46 42.001C44.3716 41.9693 42.7678 42.4007 41.375 43.245C40.557 43.7396 39.6194 44.0011 38.6635 44.0011C37.7076 44.0011 36.77 43.7396 35.952 43.245C34.5589 42.4006 32.9547 41.9691 31.326 42.001C29.6983 41.9697 28.0952 42.4011 26.703 43.245C25.8986 43.7674 24.9537 44.0312 23.995 44.001C23.036 44.0314 22.0907 43.7676 21.286 43.245C19.8932 42.4007 18.2894 41.9693 16.661 42.001C15.033 41.9695 13.4295 42.4009 12.037 43.245C11.2329 43.7672 10.2883 44.031 9.33 44.001C8.37202 44.0308 7.42782 43.767 6.624 43.245C5.23152 42.4009 3.62802 41.9695 2 42.001C1.46957 42.001 0.960859 42.2117 0.585786 42.5868C0.210714 42.9618 0 43.4705 0 44.001C0 44.5314 0.210714 45.0401 0.585786 45.4152C0.960859 45.7903 1.46957 46.001 2 46.001C2.95832 45.971 3.9029 46.2348 4.707 46.757C6.0989 47.6007 7.70166 48.032 9.329 48.001C10.957 48.0324 12.5605 47.601 13.953 46.757C14.7574 46.2346 15.7023 45.9708 16.661 46.001C17.6203 45.9703 18.5661 46.2342 19.371 46.757C20.7632 47.6009 22.3663 48.0322 23.994 48.001C25.622 48.0324 27.2255 47.601 28.618 46.757C29.4352 46.2619 30.3725 46.0001 31.328 46.0001C32.2835 46.0001 33.2208 46.2619 34.038 46.757C35.4432 47.5718 37.0387 48.0009 38.663 48.0009C40.2873 48.0009 41.8828 47.5718 43.288 46.757C44.0935 46.2338 45.04 45.9699 46 46.001C46.5304 46.001 47.0391 45.7903 47.4142 45.4152C47.7893 45.0401 48 44.5314 48 44.001C48 43.4705 47.7893 42.9618 47.4142 42.5868C47.0391 42.2117 46.5304 42.001 46 42.001ZM2 38.001C2.95832 37.971 3.9029 38.2348 4.707 38.757C6.0989 39.6007 7.70166 40.032 9.329 40.001C10.957 40.0324 12.5605 39.601 13.953 38.757C14.7574 38.2346 15.7023 37.9708 16.661 38.001C17.6203 37.9703 18.5661 38.2342 19.371 38.757C20.7632 39.6009 22.3663 40.0322 23.994 40.001C25.622 40.0324 27.2255 39.601 28.618 38.757C29.4352 38.2619 30.3725 38.0001 31.328 38.0001C32.2835 38.0001 33.2208 38.2619 34.038 38.757C35.4432 39.5718 37.0387 40.0009 38.663 40.0009C40.2873 40.0009 41.8828 39.5718 43.288 38.757C44.0935 38.2338 45.04 37.9699 46 38.001C46.5304 38.001 47.0391 37.7903 47.4142 37.4152C47.7893 37.0401 48 36.5314 48 36.001C48 35.4705 47.7893 34.9618 47.4142 34.5868C47.0391 34.2117 46.5304 34.001 46 34.001C44.3716 33.9693 42.7678 34.4007 41.375 35.245C40.557 35.7396 39.6194 36.0011 38.6635 36.0011C37.7076 36.0011 36.77 35.7396 35.952 35.245C34.5589 34.4006 32.9547 33.9691 31.326 34.001C29.6983 33.9697 28.0952 34.4011 26.703 35.245C25.8986 35.7674 24.9537 36.0312 23.995 36.001C23.036 36.0314 22.0907 35.7676 21.286 35.245C19.8932 34.4007 18.2894 33.9693 16.661 34.001C15.033 33.9695 13.4295 34.4009 12.037 35.245C11.2329 35.7672 10.2883 36.031 9.33 36.001C8.37202 36.0308 7.42782 35.767 6.624 35.245C5.23152 34.4009 3.62802 33.9695 2 34.001C1.46957 34.001 0.960859 34.2117 0.585786 34.5868C0.210714 34.9618 0 35.4705 0 36.001C0 36.5314 0.210714 37.0401 0.585786 37.4152C0.960859 37.7903 1.46957 38.001 2 38.001Z" fill="black"/>
</g>
<defs>
<clipPath id="clip0_6013_51798">
<rect width="48" height="48" fill="white" transform="translate(0 0.000976562)"/>
</clipPath>
</defs>
</svg>
