<svg width="48" height="41" viewBox="0 0 48 41" fill="none" xmlns="http://www.w3.org/2000/svg">
<g clip-path="url(#clip0_6013_51801)">
<path d="M11.5 18.001C12.5878 18.001 13.6512 17.6784 14.5556 17.0741C15.4601 16.4697 16.1651 15.6107 16.5813 14.6057C16.9976 13.6007 17.1065 12.4949 16.8943 11.428C16.6821 10.3611 16.1583 9.38108 15.3891 8.61189C14.6199 7.8427 13.6399 7.31888 12.573 7.10666C11.5061 6.89444 10.4002 7.00336 9.39524 7.41964C8.39025 7.83593 7.53126 8.54087 6.92692 9.44534C6.32257 10.3498 6 11.4132 6 12.501C5.99961 13.2234 6.1416 13.9387 6.41786 14.6062C6.69412 15.2737 7.09923 15.8801 7.61003 16.3909C8.12083 16.9017 8.72731 17.3069 9.39477 17.5831C10.0622 17.8594 10.7776 18.0014 11.5 18.001ZM11.5 11.001C11.7967 11.001 12.0867 11.089 12.3334 11.2538C12.58 11.4186 12.7723 11.6529 12.8858 11.927C12.9994 12.201 13.0291 12.5026 12.9712 12.7936C12.9133 13.0846 12.7704 13.3519 12.5607 13.5616C12.3509 13.7714 12.0836 13.9143 11.7926 13.9722C11.5017 14.03 11.2001 14.0003 10.926 13.8868C10.6519 13.7733 10.4176 13.581 10.2528 13.3343C10.088 13.0877 10 12.7977 10 12.501C10 12.1032 10.158 11.7216 10.4393 11.4403C10.7206 11.159 11.1022 11.001 11.5 11.001ZM28.5 17.001C30.1811 17.001 31.8245 16.5025 33.2223 15.5685C34.6202 14.6345 35.7096 13.307 36.353 11.7538C36.9963 10.2006 37.1646 8.49155 36.8367 6.84271C36.5087 5.19387 35.6992 3.67932 34.5104 2.49057C33.3217 1.30183 31.8071 0.49228 30.1583 0.164306C28.5094 -0.163669 26.8004 0.00465947 25.2472 0.648004C23.694 1.29135 22.3665 2.38082 21.4325 3.77863C20.4985 5.17645 20 6.81984 20 8.50098C20.0016 10.7548 20.8976 12.9159 22.4913 14.5096C24.0851 16.1033 26.2461 16.9994 28.5 17.001ZM28.5 6.00098C28.9945 6.00098 29.4778 6.1476 29.8889 6.42231C30.3 6.69701 30.6205 7.08746 30.8097 7.54427C30.9989 8.00109 31.0484 8.50375 30.952 8.98871C30.8555 9.47366 30.6174 9.91912 30.2678 10.2687C29.9181 10.6184 29.4727 10.8565 28.9877 10.9529C28.5028 11.0494 28.0001 10.9999 27.5433 10.8107C27.0865 10.6215 26.696 10.301 26.4213 9.88991C26.1466 9.47878 26 8.99543 26 8.50098C26 7.83794 26.2634 7.20205 26.7322 6.73321C27.2011 6.26437 27.837 6.00098 28.5 6.00098ZM46.804 24.021L38 26.001V23.001C37.9984 22.471 37.7872 21.9632 37.4125 21.5885C37.0377 21.2138 36.5299 21.0026 36 21.001H6C5.47005 21.0026 4.96227 21.2138 4.58753 21.5885C4.2128 21.9632 4.00158 22.471 4 23.001V24.001H2C1.46957 24.001 0.960859 24.2117 0.585786 24.5868C0.210714 24.9618 0 25.4705 0 26.001L0 26.601C0 27.1314 0.210714 27.6401 0.585786 28.0152C0.960859 28.3903 1.46957 28.601 2 28.601H4V39.001C4.00158 39.5309 4.2128 40.0387 4.58753 40.4134C4.96227 40.7882 5.47005 40.9994 6 41.001H36C36.5299 40.9994 37.0377 40.7882 37.4125 40.4134C37.7872 40.0387 37.9984 39.5309 38 39.001V35.001L46.804 36.981C46.949 37.01 47.0987 37.0064 47.2422 36.9706C47.3856 36.9348 47.5194 36.8676 47.6338 36.7739C47.7482 36.6801 47.8404 36.5622 47.9037 36.4286C47.967 36.2949 47.9999 36.1489 48 36.001V25.001C47.9999 24.8531 47.967 24.7071 47.9037 24.5734C47.8404 24.4398 47.7482 24.3218 47.6338 24.2281C47.5194 24.1344 47.3856 24.0672 47.2422 24.0313C47.0987 23.9955 46.949 23.992 46.804 24.021ZM18 34.001C17.9984 34.5309 17.7872 35.0387 17.4125 35.4134C17.0377 35.7882 16.5299 35.9994 16 36.001H10C9.47005 35.9994 8.96227 35.7882 8.58753 35.4134C8.2128 35.0387 8.00158 34.5309 8 34.001V32.001C8.00158 31.471 8.2128 30.9632 8.58753 30.5885C8.96227 30.2138 9.47005 30.0026 10 30.001H16C16.5299 30.0026 17.0377 30.2138 17.4125 30.5885C17.7872 30.9632 17.9984 31.471 18 32.001V34.001Z" fill="black"/>
</g>
<defs>
<clipPath id="clip0_6013_51801">
<rect width="48" height="41" fill="white" transform="translate(0 0.000976562)"/>
</clipPath>
</defs>
</svg>
