<svg width="48" height="48" viewBox="0 0 48 48" fill="none" xmlns="http://www.w3.org/2000/svg">
<g clip-path="url(#clip0_6013_51804)">
<path d="M45.5958 0.000976562H2.40448C1.92987 0.00122759 1.466 0.130463 1.07151 0.372344C0.677021 0.614225 0.369622 0.957892 0.188177 1.3599C0.00673135 1.7619 -0.0406141 2.2042 0.0521259 2.63087C0.144866 3.05753 0.373527 3.44942 0.709203 3.75698L19.6365 22.191V48.001H28.3638V22.191L47.2921 3.75698C47.6279 3.44936 47.8565 3.05738 47.9492 2.63062C48.042 2.20386 47.9945 1.76148 47.8129 1.35944C47.6313 0.95739 47.3238 0.613733 46.9291 0.371928C46.5345 0.130122 46.0704 0.00102991 45.5958 0.000976562Z" fill="black"/>
</g>
<defs>
<clipPath id="clip0_6013_51804">
<rect width="48" height="48" fill="white" transform="translate(0 0.000976562)"/>
</clipPath>
</defs>
</svg>
