<svg width="48" height="30" viewBox="0 0 48 30" fill="none" xmlns="http://www.w3.org/2000/svg">
<g clip-path="url(#clip0_6013_51806)">
<path d="M47 0.000976562H6C5.73503 0.00176793 5.48113 0.107379 5.29377 0.294744C5.1064 0.482109 5.00079 0.736003 5 1.00098V7.00098H21.02C21.6083 6.08121 22.4186 5.3243 23.3763 4.80002C24.334 4.27573 25.4082 4.00092 26.5 4.00092C27.5918 4.00092 28.666 4.27573 29.6237 4.80002C30.5814 5.3243 31.3917 6.08121 31.98 7.00098H42C42.7948 7.00361 43.5564 7.32053 44.1184 7.88257C44.6804 8.44461 44.9974 9.20614 45 10.001V21.001H47C47.265 21.0002 47.5189 20.8946 47.7062 20.7072C47.8936 20.5198 47.9992 20.2659 48 20.001V1.00098C47.9992 0.736003 47.8936 0.482109 47.7062 0.294744C47.5189 0.107379 47.265 0.00176793 47 0.000976562Z" fill="black"/>
<path d="M42 9.00098H1C0.735027 9.00177 0.481133 9.10738 0.293767 9.29474C0.106402 9.48211 0.000791363 9.736 0 10.001L0 29.001C0.000791363 29.2659 0.106402 29.5198 0.293767 29.7072C0.481133 29.8946 0.735027 30.0002 1 30.001H42C42.265 30.0002 42.5189 29.8946 42.7062 29.7072C42.8936 29.5198 42.9992 29.2659 43 29.001V10.001C42.9992 9.736 42.8936 9.48211 42.7062 9.29474C42.5189 9.10738 42.265 9.00177 42 9.00098ZM6 23.001C5.2927 23.0022 4.60778 22.7531 4.06655 22.2978C3.52532 21.8424 3.1627 21.2102 3.04293 20.5132C2.92315 19.8161 3.05395 19.0991 3.41215 18.4892C3.77036 17.8793 4.33285 17.4159 5 17.181C5.31957 17.0605 5.65848 16.9995 6 17.001C6.39411 17.0005 6.78446 17.0777 7.14867 17.2283C7.51289 17.3788 7.84381 17.5998 8.12249 17.8785C8.40118 18.1572 8.62213 18.4881 8.77271 18.8523C8.92329 19.2165 9.00053 19.6069 9 20.001C9.00149 20.3425 8.94048 20.6814 8.82 21.001C8.61752 21.587 8.23672 22.0949 7.731 22.4536C7.22528 22.8123 6.61999 23.0037 6 23.001ZM21.5 26.001C20.0372 26.0017 18.6171 25.5083 17.4699 24.6007C16.3228 23.6932 15.5158 22.4247 15.18 21.001C15.0591 20.5102 14.9986 20.0064 15 19.501C14.9997 17.9458 15.5578 16.4423 16.5727 15.264C17.5877 14.0857 18.992 13.311 20.53 13.081C20.8501 13.024 21.1749 12.9973 21.5 13.001C22.354 12.9997 23.1998 13.1669 23.989 13.4931C24.7782 13.8193 25.4953 14.298 26.0991 14.9018C26.703 15.5057 27.1817 16.2228 27.5079 17.012C27.8341 17.8012 28.0013 18.647 28 19.501C28.0014 20.0064 27.9409 20.5102 27.82 21.001C27.4842 22.4247 26.6772 23.6932 25.5301 24.6007C24.3829 25.5083 22.9628 26.0017 21.5 26.001ZM37 22.501C36.3408 22.5 35.7002 22.2817 35.1777 21.8798C34.6551 21.4779 34.2797 20.9148 34.1096 20.2779C33.9396 19.641 33.9843 18.9657 34.237 18.3568C34.4896 17.7479 34.936 17.2393 35.5071 16.9099C36.0781 16.5804 36.7418 16.4486 37.3954 16.5346C38.049 16.6207 38.656 16.92 39.1222 17.386C39.5885 17.8521 39.888 18.4589 39.9744 19.1124C40.0608 19.766 39.9292 20.4298 39.6 21.001C39.3365 21.4573 38.9575 21.8362 38.5011 22.0995C38.0447 22.3629 37.5269 22.5013 37 22.501Z" fill="black"/>
</g>
<defs>
<clipPath id="clip0_6013_51806">
<rect width="48" height="30" fill="white" transform="translate(0 0.000976562)"/>
</clipPath>
</defs>
</svg>
