<svg width="48" height="48" viewBox="0 0 48 48" fill="none" xmlns="http://www.w3.org/2000/svg">
<g clip-path="url(#clip0_6013_51810)">
<path d="M24.6071 0.211126C24.5351 0.145687 24.443 0.0927421 24.3378 0.0563243C24.2326 0.0199065 24.1171 0.000976563 24 0.000976562C23.8829 0.000976563 23.7674 0.0199065 23.6622 0.0563243C23.557 0.0927421 23.4649 0.145687 23.3929 0.211126C19.6659 3.53113 0 22.4611 0 30.9711C0 35.4798 2.52856 39.8038 7.02944 42.9919C11.5303 46.1801 17.6348 47.9711 24 47.9711C30.3652 47.9711 36.4697 46.1801 40.9706 42.9919C45.4714 39.8038 48 35.4798 48 30.9711C48 22.4611 28.3341 3.53113 24.6071 0.211126ZM24 43.0011C22.5196 43.0031 21.0532 42.7985 19.6844 42.399C18.3157 41.9996 17.0714 41.4131 16.0226 40.673C14.9739 39.9329 14.1412 39.0537 13.5721 38.0857C13.003 37.1177 12.7087 36.0797 12.7059 35.0311C12.7059 31.0511 21.9529 22.6511 23.7176 21.1011C23.7512 21.0708 23.794 21.0462 23.843 21.0294C23.8919 21.0125 23.9456 21.0037 24 21.0037C24.0544 21.0037 24.1081 21.0125 24.157 21.0294C24.206 21.0462 24.2488 21.0708 24.2824 21.1011C26.0329 22.6511 35.2941 31.0511 35.2941 35.0311C35.2913 36.0797 34.997 37.1177 34.4279 38.0857C33.8588 39.0537 33.0261 39.9329 31.9774 40.673C30.9286 41.4131 29.6843 41.9996 28.3156 42.399C26.9468 42.7985 25.4804 43.0031 24 43.0011Z" fill="black"/>
</g>
<defs>
<clipPath id="clip0_6013_51810">
<rect width="48" height="48" fill="white" transform="translate(0 0.000976562)"/>
</clipPath>
</defs>
</svg>
