<svg width="48" height="22" viewBox="0 0 48 22" fill="none" xmlns="http://www.w3.org/2000/svg">
<g clip-path="url(#clip0_6013_51812)">
<path d="M47.513 10.0018C41.9996 5.89983 35.4099 3.49458 28.5506 3.08056L23.99 0.450087C23.4546 0.137244 22.842 -0.0188812 22.2221 -0.000498132C21.6022 0.0178849 20.9999 0.210037 20.4839 0.554062C19.9679 0.898087 19.5589 1.38015 19.3035 1.94532C19.0481 2.51049 18.9566 3.13604 19.0394 3.75069C15.4561 4.50034 12.0112 5.80281 8.82815 7.61139L3.14744 6.09111C2.83026 6.00574 2.49937 5.98368 2.17366 6.02619C1.84795 6.0687 1.53381 6.17495 1.24916 6.33887C0.674287 6.66994 0.254468 7.21582 0.0820556 7.85643C-0.0903567 8.49705 -0.00123882 9.17992 0.329804 9.75482C0.660847 10.3297 1.2067 10.7496 1.84728 10.922L2.16732 11.002L1.84728 11.082C1.2067 11.2544 0.660847 11.6743 0.329804 12.2492C-0.00123882 12.8241 -0.0903567 13.507 0.0820556 14.1476C0.254468 14.7882 0.674287 15.3341 1.24916 15.6651C1.82403 15.9962 2.50686 16.0853 3.14744 15.9129L8.82815 14.3926C12.0379 16.2169 15.5139 17.5264 19.1294 18.2733C18.9427 18.8924 18.9682 19.5561 19.202 20.1589C19.4359 20.7617 19.8645 21.2691 20.4199 21.6002C20.9752 21.9314 21.6253 22.0673 22.2668 21.9864C22.9083 21.9055 23.5043 21.6125 23.96 21.1539L26.1203 19.0035H26.3303C33.9606 19.01 41.3894 16.5547 47.513 12.0022C47.6648 11.8834 47.7875 11.7316 47.8719 11.5583C47.9563 11.385 48.0002 11.1948 48.0002 11.002C48.0002 10.8092 47.9563 10.619 47.8719 10.4457C47.7875 10.2724 47.6648 10.1206 47.513 10.0018ZM37.0017 11.002C36.6061 11.002 36.2193 10.8847 35.8904 10.6649C35.5615 10.4451 35.3051 10.1327 35.1537 9.76715C35.0023 9.40163 34.9627 8.99942 35.0399 8.61139C35.117 8.22336 35.3075 7.86693 35.5873 7.58717C35.867 7.30741 36.2234 7.1169 36.6114 7.03971C36.9995 6.96253 37.4016 7.00214 37.7671 7.15355C38.1326 7.30495 38.445 7.56134 38.6648 7.8903C38.8846 8.21926 39.0019 8.60601 39.0019 9.00164C39.0003 9.53168 38.7891 10.0396 38.4143 10.4144C38.0395 10.7892 37.5317 11.0004 37.0017 11.002Z" fill="black"/>
</g>
<defs>
<clipPath id="clip0_6013_51812">
<rect width="48" height="22" fill="white" transform="translate(0 0.000976562)"/>
</clipPath>
</defs>
</svg>
