<svg width="48" height="48" viewBox="0 0 48 48" fill="none" xmlns="http://www.w3.org/2000/svg">
<g clip-path="url(#clip0_6013_51814)">
<path d="M1.5 9.00086H12.879L9.439 12.4409C9.2958 12.5793 9.18161 12.7449 9.10308 12.9279C9.02456 13.111 8.98327 13.3078 8.98163 13.507C8.98 13.7061 9.01804 13.9036 9.09355 14.0879C9.16906 14.2723 9.28052 14.4397 9.42142 14.5805C9.56233 14.7212 9.72986 14.8325 9.91424 14.9079C10.0986 14.9832 10.2962 15.0211 10.4953 15.0192C10.6945 15.0174 10.8913 14.9759 11.0743 14.8972C11.2572 14.8185 11.4227 14.7042 11.561 14.5609L17.561 8.56086C17.8419 8.27961 17.9997 7.89836 17.9997 7.50086C17.9997 7.10335 17.8419 6.72211 17.561 6.44086L11.561 0.440856C11.4227 0.297527 11.2572 0.183177 11.0743 0.104479C10.8913 0.0257799 10.6945 -0.0156912 10.4953 -0.0175152C10.2962 -0.0193392 10.0986 0.0185205 9.91424 0.0938549C9.72986 0.169189 9.56233 0.28049 9.42142 0.421262C9.28052 0.562034 9.16906 0.729458 9.09355 0.913767C9.01804 1.09807 8.98 1.29558 8.98163 1.49474C8.98327 1.69391 9.02456 1.89076 9.10308 2.0738C9.18161 2.25685 9.2958 2.42242 9.439 2.56086L12.88 6.00086H1.5C1.10218 6.00086 0.720644 6.15889 0.43934 6.4402C0.158035 6.7215 0 7.10303 0 7.50086C0 7.89868 0.158035 8.28021 0.43934 8.56152C0.720644 8.84282 1.10218 9.00086 1.5 9.00086ZM47.82 12.0009L33.16 0.0608561C33.1157 0.0221054 33.0589 0.000746768 33 0.000746768C32.9411 0.000746768 32.8843 0.0221054 32.84 0.0608561L18.18 12.0009C18.1257 12.0486 18.0817 12.1069 18.0507 12.1722C18.0197 12.2376 18.0025 12.3086 18 12.3809V30.0909C19.163 30.2484 20.2821 30.6395 21.29 31.2409C22.0929 31.7687 23.0398 32.0342 24 32.0009C24.9569 32.0328 25.9002 31.7673 26.7 31.2409C28.0955 30.3991 29.7006 29.9693 31.33 30.0009C32.9563 29.969 34.5583 30.3989 35.95 31.2409C36.7684 31.7379 37.7075 32.0008 38.665 32.0008C39.6225 32.0008 40.5616 31.7379 41.38 31.2409C42.7717 30.3989 44.3737 29.969 46 30.0009C46.6719 29.9959 47.3424 30.0629 48 30.2009V12.3809C47.9975 12.3086 47.9803 12.2376 47.9493 12.1722C47.9183 12.1069 47.8743 12.0486 47.82 12.0009ZM46 42.0009C44.3737 41.969 42.7717 42.3989 41.38 43.2409C40.5616 43.7379 39.6225 44.0008 38.665 44.0008C37.7075 44.0008 36.7684 43.7379 35.95 43.2409C34.5583 42.3989 32.9563 41.969 31.33 42.0009C29.7006 41.9693 28.0955 42.3991 26.7 43.2409C25.9002 43.7673 24.9569 44.0328 24 44.0009C23.0398 44.0342 22.0929 43.7687 21.29 43.2409C19.8939 42.4006 18.2892 41.9709 16.66 42.0009C15.0337 41.969 13.4317 42.3989 12.04 43.2409C11.2355 43.7651 10.2898 44.0303 9.33 44.0009C8.37024 44.0303 7.42449 43.7651 6.62 43.2409C5.22825 42.3989 3.62628 41.969 2 42.0009C1.46957 42.0009 0.960859 42.2116 0.585786 42.5866C0.210714 42.9617 0 43.4704 0 44.0009C0 44.5313 0.210714 45.04 0.585786 45.4151C0.960859 45.7901 1.46957 46.0009 2 46.0009C2.95976 45.9714 3.90551 46.2366 4.71 46.7609C6.10175 47.6028 7.70372 48.0327 9.33 48.0009C10.9563 48.0327 12.5583 47.6028 13.95 46.7609C14.7545 46.2366 15.7002 45.9714 16.66 46.0009C17.6201 45.9688 18.5666 46.2343 19.37 46.7609C20.7655 47.6026 22.3706 48.0325 24 48.0009C25.6261 48.0311 27.2276 47.6013 28.62 46.7609C29.4365 46.2636 30.374 46.0006 31.33 46.0006C32.286 46.0006 33.2235 46.2636 34.04 46.7609C35.4458 47.5737 37.0411 48.0017 38.665 48.0017C40.2889 48.0017 41.8842 47.5737 43.29 46.7609C44.0934 46.2343 45.0399 45.9688 46 46.0009C46.5304 46.0009 47.0391 45.7901 47.4142 45.4151C47.7893 45.04 48 44.5313 48 44.0009C48 43.4704 47.7893 42.9617 47.4142 42.5866C47.0391 42.2116 46.5304 42.0009 46 42.0009ZM46 34.0009C44.3716 33.9692 42.7678 34.4006 41.375 35.2449C40.557 35.7395 39.6194 36.001 38.6635 36.001C37.7076 36.001 36.77 35.7395 35.952 35.2449C34.5589 34.4004 32.9547 33.969 31.326 34.0009C29.6983 33.9696 28.0952 34.401 26.703 35.2449C25.8986 35.7673 24.9537 36.0311 23.995 36.0009C23.036 36.0313 22.0907 35.7675 21.286 35.2449C19.8932 34.4006 18.2894 33.9692 16.661 34.0009C15.033 33.9694 13.4295 34.4008 12.037 35.2449C11.2329 35.7671 10.2883 36.0309 9.33 36.0009C8.37212 36.031 7.42793 35.7675 6.624 35.2459C5.23162 34.4014 3.62812 33.9697 2 34.0009C1.46957 34.0009 0.960859 34.2116 0.585786 34.5866C0.210714 34.9617 0 35.4704 0 36.0009C0 36.5313 0.210714 37.04 0.585786 37.4151C0.960859 37.7901 1.46957 38.0009 2 38.0009C2.95832 37.9708 3.9029 38.2346 4.707 38.7569C6.0989 39.6005 7.70166 40.0319 9.329 40.0009C10.957 40.0323 12.5605 39.6009 13.953 38.7569C14.7574 38.2344 15.7023 37.9706 16.661 38.0009C17.6203 37.9702 18.5661 38.2341 19.371 38.7569C20.7632 39.6007 22.3663 40.0321 23.994 40.0009C25.6221 40.032 27.2256 39.6003 28.618 38.7559C29.4356 38.2618 30.3727 38.0007 31.328 38.0007C32.2833 38.0007 33.2204 38.2618 34.038 38.7559C35.4432 39.5707 37.0387 39.9998 38.663 39.9998C40.2873 39.9998 41.8828 39.5707 43.288 38.7559C44.0936 38.233 45.0401 37.9695 46 38.0009C46.5304 38.0009 47.0391 37.7901 47.4142 37.4151C47.7893 37.04 48 36.5313 48 36.0009C48 35.4704 47.7893 34.9617 47.4142 34.5866C47.0391 34.2116 46.5304 34.0009 46 34.0009Z" fill="black"/>
</g>
<defs>
<clipPath id="clip0_6013_51814">
<rect width="48" height="48" fill="white" transform="translate(0 0.000976562)"/>
</clipPath>
</defs>
</svg>
