<svg width="48" height="48" viewBox="0 0 48 48" fill="none" xmlns="http://www.w3.org/2000/svg">
<g clip-path="url(#clip0_6013_51817)">
<path d="M47.82 12.0011L33.16 0.0610859C33.1157 0.0223352 33.0589 0.000976563 33 0.000976562C32.9411 0.000976563 32.8843 0.0223352 32.84 0.0610859L18.18 12.0011C18.1257 12.0488 18.0817 12.1071 18.0507 12.1725C18.0197 12.2378 18.0025 12.3088 18 12.3811V30.0911C19.163 30.2486 20.2821 30.6398 21.29 31.2411C22.0929 31.7689 23.0398 32.0344 24 32.0011C24.9569 32.033 25.9002 31.7675 26.7 31.2411C28.0955 30.3994 29.7006 29.9695 31.33 30.0011C32.9563 29.9692 34.5583 30.3992 35.95 31.2411C36.7684 31.7381 37.7075 32.001 38.665 32.001C39.6225 32.001 40.5616 31.7381 41.38 31.2411C42.7717 30.3992 44.3737 29.9692 46 30.0011C46.6719 29.9961 47.3424 30.0631 48 30.2011V12.3811C47.9975 12.3088 47.9803 12.2378 47.9493 12.1725C47.9183 12.1071 47.8743 12.0488 47.82 12.0011ZM46 42.0011C44.3737 41.9692 42.7717 42.3992 41.38 43.2411C40.5616 43.7381 39.6225 44.001 38.665 44.001C37.7075 44.001 36.7684 43.7381 35.95 43.2411C34.5583 42.3992 32.9563 41.9692 31.33 42.0011C29.7006 41.9695 28.0955 42.3994 26.7 43.2411C25.9002 43.7675 24.9569 44.033 24 44.0011C23.0398 44.0344 22.0929 43.7689 21.29 43.2411C19.8939 42.4009 18.2892 41.9711 16.66 42.0011C15.0337 41.9692 13.4317 42.3992 12.04 43.2411C11.2355 43.7653 10.2898 44.0305 9.33 44.0011C8.37024 44.0305 7.42449 43.7653 6.62 43.2411C5.22825 42.3992 3.62628 41.9692 2 42.0011C1.46957 42.0011 0.960859 42.2118 0.585786 42.5869C0.210714 42.9619 0 43.4707 0 44.0011C0 44.5315 0.210714 45.0402 0.585786 45.4153C0.960859 45.7904 1.46957 46.0011 2 46.0011C2.95976 45.9716 3.90551 46.2369 4.71 46.7611C6.10175 47.603 7.70372 48.033 9.33 48.0011C10.9563 48.033 12.5583 47.603 13.95 46.7611C14.7545 46.2369 15.7002 45.9716 16.66 46.0011C17.6201 45.969 18.5666 46.2345 19.37 46.7611C20.7655 47.6028 22.3706 48.0327 24 48.0011C25.6261 48.0313 27.2276 47.6015 28.62 46.7611C29.4365 46.2638 30.374 46.0008 31.33 46.0008C32.286 46.0008 33.2235 46.2638 34.04 46.7611C35.4458 47.5739 37.0411 48.0019 38.665 48.0019C40.2889 48.0019 41.8842 47.5739 43.29 46.7611C44.0934 46.2345 45.0399 45.969 46 46.0011C46.5304 46.0011 47.0391 45.7904 47.4142 45.4153C47.7893 45.0402 48 44.5315 48 44.0011C48 43.4707 47.7893 42.9619 47.4142 42.5869C47.0391 42.2118 46.5304 42.0011 46 42.0011ZM46 34.0011C44.3716 33.9694 42.7678 34.4008 41.375 35.2451C40.557 35.7397 39.6194 36.0012 38.6635 36.0012C37.7076 36.0012 36.77 35.7397 35.952 35.2451C34.5589 34.4007 32.9547 33.9693 31.326 34.0011C29.6983 33.9698 28.0952 34.4012 26.703 35.2451C25.8986 35.7675 24.9537 36.0313 23.995 36.0011C23.036 36.0315 22.0907 35.7677 21.286 35.2451C19.8932 34.4008 18.2894 33.9694 16.661 34.0011C15.033 33.9696 13.4295 34.401 12.037 35.2451C11.2329 35.7673 10.2883 36.0311 9.33 36.0011C8.37212 36.0312 7.42793 35.7677 6.624 35.2461C5.23162 34.4017 3.62812 33.9699 2 34.0011C1.46957 34.0011 0.960859 34.2118 0.585786 34.5869C0.210714 34.9619 0 35.4707 0 36.0011C0 36.5315 0.210714 37.0402 0.585786 37.4153C0.960859 37.7904 1.46957 38.0011 2 38.0011C2.95832 37.9711 3.9029 38.2349 4.707 38.7571C6.0989 39.6008 7.70166 40.0322 9.329 40.0011C10.957 40.0325 12.5605 39.6011 13.953 38.7571C14.7574 38.2347 15.7023 37.9709 16.661 38.0011C17.6203 37.9705 18.5661 38.2343 19.371 38.7571C20.7632 39.601 22.3663 40.0323 23.994 40.0011C25.6221 40.0322 27.2256 39.6005 28.618 38.7561C29.4356 38.262 30.3727 38.0009 31.328 38.0009C32.2833 38.0009 33.2204 38.262 34.038 38.7561C35.4432 39.5709 37.0387 40 38.663 40C40.2873 40 41.8828 39.5709 43.288 38.7561C44.0936 38.2332 45.0401 37.9698 46 38.0011C46.5304 38.0011 47.0391 37.7904 47.4142 37.4153C47.7893 37.0402 48 36.5315 48 36.0011C48 35.4707 47.7893 34.9619 47.4142 34.5869C47.0391 34.2118 46.5304 34.0011 46 34.0011Z" fill="black"/>
</g>
<defs>
<clipPath id="clip0_6013_51817">
<rect width="48" height="48" fill="white" transform="translate(0 0.000976562)"/>
</clipPath>
</defs>
</svg>
