<svg width="48" height="48" viewBox="0 0 48 48" fill="none" xmlns="http://www.w3.org/2000/svg">
<g clip-path="url(#clip0_6013_51820)">
<path d="M42 7.00098H6C4.40992 7.00362 2.8861 7.42589 1.76173 8.17547C0.637373 8.92504 0.00396037 9.94092 0 11.001V44.001C0.00396037 45.061 0.637373 46.0769 1.76173 46.8265C2.8861 47.5761 4.40992 47.9983 6 48.001H42C43.5901 47.9983 45.1139 47.5761 46.2383 46.8265C47.3626 46.0769 47.996 45.061 48 44.001V11.001C47.996 9.94092 47.3626 8.92504 46.2383 8.17547C45.1139 7.42589 43.5901 7.00362 42 7.00098ZM21 12.001C21.0024 11.471 21.3192 10.9632 21.8813 10.5885C22.4434 10.2138 23.2051 10.0026 24 10.001C24.7938 10.0049 25.5535 10.2169 26.1148 10.5911C26.6762 10.9653 26.9941 11.4718 27 12.001V15.001C27 15.5314 26.6839 16.0401 26.1213 16.4152C25.5587 16.7903 24.7956 17.001 24 17.001C23.2044 17.001 22.4413 16.7903 21.8787 16.4152C21.3161 16.0401 21 15.5314 21 15.001V12.001ZM13.5 16.001H13.8C14.7455 16.001 15.6818 16.1251 16.5553 16.3664C17.4289 16.6076 18.2226 16.9611 18.8912 17.4069C19.5597 17.8526 20.0901 18.3817 20.4519 18.9641C20.8138 19.5465 21 20.1706 21 20.801V23.001H20.7C19.7545 23.001 18.8182 22.8768 17.9447 22.6356C17.0711 22.3944 16.2774 22.0408 15.6088 21.5951C14.9402 21.1494 14.4099 20.6202 14.0481 20.0379C13.6862 19.4555 13.5 18.8313 13.5 18.201V16.001ZM13.5 24.001H13.8C14.7455 24.001 15.6818 24.1251 16.5553 24.3664C17.4289 24.6076 18.2226 24.9611 18.8912 25.4069C19.5597 25.8526 20.0901 26.3817 20.4519 26.9641C20.8138 27.5465 21 28.1706 21 28.801V31.001H20.7C19.7545 31.001 18.8182 30.8768 17.9447 30.6356C17.0711 30.3944 16.2774 30.0408 15.6088 29.5951C14.9402 29.1494 14.4099 28.6202 14.0481 28.0379C13.6862 27.4555 13.5 26.8313 13.5 26.201V24.001ZM13.5 34.201V32.001H13.8C14.7455 32.001 15.6818 32.1251 16.5553 32.3664C17.4289 32.6076 18.2226 32.9611 18.8912 33.4069C19.5597 33.8526 20.0901 34.3817 20.4519 34.9641C20.8138 35.5465 21 36.1706 21 36.801V39.001H20.7C18.7904 39.001 16.9591 38.4953 15.6088 37.5951C14.2586 36.6949 13.5 35.474 13.5 34.201ZM27 43.001C27 43.5314 26.6839 44.0401 26.1213 44.4152C25.5587 44.7903 24.7956 45.001 24 45.001C23.2044 45.001 22.4413 44.7903 21.8787 44.4152C21.3161 44.0401 21 43.5314 21 43.001V41.501C20.999 41.4351 21.0177 41.3698 21.055 41.3088C21.0924 41.2479 21.1476 41.1925 21.2174 41.1459C21.2873 41.0994 21.3704 41.0626 21.4618 41.0377C21.5533 41.0128 21.6512 41.0003 21.75 41.001H26.25C26.3488 41.0003 26.4467 41.0128 26.5382 41.0377C26.6296 41.0626 26.7127 41.0994 26.7826 41.1459C26.8524 41.1925 26.9076 41.2479 26.945 41.3088C26.9823 41.3698 27.001 41.4351 27 41.501V43.001ZM34.5 34.201C34.5 35.474 33.7414 36.6949 32.3912 37.5951C31.0409 38.4953 29.2096 39.001 27.3 39.001H27V36.801C27 35.5279 27.7586 34.307 29.1088 33.4069C30.4591 32.5067 32.2904 32.001 34.2 32.001H34.5V34.201ZM34.5 26.201C34.5 26.8313 34.3138 27.4555 33.9519 28.0379C33.5901 28.6202 33.0597 29.1494 32.3912 29.5951C31.7226 30.0408 30.9289 30.3944 30.0553 30.6356C29.1818 30.8768 28.2455 31.001 27.3 31.001H27V28.801C27 27.5279 27.7586 26.307 29.1088 25.4069C30.4591 24.5067 32.2904 24.001 34.2 24.001H34.5V26.201ZM34.5 18.201C34.5 18.8313 34.3138 19.4555 33.9519 20.0379C33.5901 20.6202 33.0597 21.1494 32.3912 21.5951C31.7226 22.0408 30.9289 22.3944 30.0553 22.6356C29.1818 22.8768 28.2455 23.001 27.3 23.001H27V20.801C27 19.5279 27.7586 18.307 29.1088 17.4069C30.4591 16.5067 32.2904 16.001 34.2 16.001H34.5V18.201ZM6.75 5.00098H41.25C42.2446 5.00098 43.1984 4.73758 43.9016 4.26874C44.6049 3.7999 45 3.16402 45 2.50098C45 1.83794 44.6049 1.20205 43.9016 0.73321C43.1984 0.264369 42.2446 0.000976563 41.25 0.000976562L6.75 0.000976563C5.75544 0.000976563 4.80161 0.264369 4.09835 0.73321C3.39509 1.20205 3 1.83794 3 2.50098C3 3.16402 3.39509 3.7999 4.09835 4.26874C4.80161 4.73758 5.75544 5.00098 6.75 5.00098Z" fill="black"/>
</g>
<defs>
<clipPath id="clip0_6013_51820">
<rect width="48" height="48" fill="white" transform="translate(0 0.000976562)"/>
</clipPath>
</defs>
</svg>
