<svg width="48" height="37" viewBox="0 0 48 37" fill="none" xmlns="http://www.w3.org/2000/svg">
<g clip-path="url(#clip0_6013_51825)">
<path d="M47 22.9461H1C0.734784 22.9461 0.48043 23.0519 0.292893 23.2401C0.105357 23.4284 0 23.6838 0 23.95C0 27.4113 1.36964 30.7308 3.80761 33.1783C6.24558 35.6258 9.55219 37.0008 13 37.0008H35C38.4478 37.0008 41.7544 35.6258 44.1924 33.1783C46.6304 30.7308 48 27.4113 48 23.95C48 23.6838 47.8946 23.4284 47.7071 23.2401C47.5196 23.0519 47.2652 22.9461 47 22.9461ZM20.888 12.128L18.401 11.4584C17.1201 11.1137 15.7554 11.294 14.6069 11.9595C13.4584 12.6251 12.6203 13.7213 12.277 15.0072L12.101 15.6678L14.588 16.3374C15.2223 16.508 15.8838 16.5516 16.5349 16.4655C17.1859 16.3795 17.8137 16.1655 18.3824 15.8359C18.9511 15.5062 19.4495 15.0674 19.8492 14.5443C20.2489 14.0213 20.5421 13.4244 20.712 12.7876L20.888 12.128ZM20.333 17.8824L22.82 18.552C23.4543 18.7226 24.1158 18.7662 24.7669 18.6801C25.4179 18.5941 26.0457 18.3801 26.6144 18.0505C27.1831 17.7209 27.6815 17.282 28.0812 16.759C28.4809 16.2359 28.7741 15.639 28.944 15.0022L29.12 14.3416L26.633 13.672C25.9987 13.5014 25.3372 13.4578 24.6861 13.5439C24.0351 13.6299 23.4073 13.8439 22.8386 14.1735C22.2699 14.5032 21.7715 14.942 21.3718 15.4651C20.9721 15.9881 20.6789 16.585 20.509 17.2218L20.333 17.8824ZM28.564 20.097L31.052 20.7656C32.3329 21.1103 33.6976 20.93 34.8461 20.2645C35.9946 19.5989 36.8327 18.5027 37.176 17.2168L37.352 16.5552L34.864 15.8866C33.5831 15.5423 32.2185 15.7229 31.0702 16.3886C29.922 17.0543 29.0841 18.1506 28.741 19.4364L28.564 20.097ZM19.136 8.70367L21.624 9.37227L21.8 8.7117C22.1433 7.42584 21.9638 6.05572 21.3008 4.90276C20.6379 3.7498 19.5459 2.90844 18.265 2.56378L15.777 1.89517L15.601 2.55574C15.2577 3.84161 15.4372 5.21173 16.1002 6.36469C16.7631 7.51765 17.8551 8.359 19.136 8.70367ZM27.368 10.9173L29.855 11.5869L30.032 10.9263C30.202 10.2896 30.2453 9.62542 30.1596 8.97183C30.0739 8.31824 29.8608 7.688 29.5324 7.1171C29.2041 6.5462 28.7669 6.04583 28.2459 5.64455C27.7249 5.24327 27.1303 4.94895 26.496 4.7784L24.009 4.10879L23.832 4.77036C23.489 6.05623 23.6689 7.42621 24.332 8.57896C24.9951 9.73171 26.0872 10.5728 27.368 10.9173ZM35.6 13.1319L38.087 13.8015L38.263 13.1399C38.606 11.8542 38.4263 10.4844 37.7634 9.33162C37.1005 8.1789 36.0086 7.33769 34.728 6.99301L32.241 6.32341L32.064 6.98398C31.894 7.62074 31.8507 8.28488 31.9364 8.93847C32.0221 9.59206 32.2352 10.2223 32.5636 10.7932C32.8919 11.3641 33.3291 11.8645 33.8501 12.2658C34.3711 12.667 34.9657 12.9614 35.6 13.1319ZM45.951 17.3925C45.9994 17.2116 46.0118 17.0229 45.9875 16.8372C45.9633 16.6515 45.9028 16.4725 45.8095 16.3102C45.7163 16.148 45.5921 16.0058 45.4441 15.8918C45.2961 15.7778 45.1272 15.6941 44.947 15.6457L39.917 14.2934L39.181 17.0481L44.211 18.4014C44.3912 18.45 44.5792 18.4624 44.7643 18.438C44.9493 18.4135 45.1277 18.3527 45.2893 18.259C45.4509 18.1653 45.5925 18.0406 45.7061 17.8919C45.8196 17.7432 45.9028 17.5735 45.951 17.3925ZM5.976 11.0679C5.61212 10.97 5.22443 11.0213 4.89821 11.2104C4.57199 11.3995 4.33397 11.711 4.2365 12.0763C4.13903 12.4416 4.19011 12.8308 4.37849 13.1583C4.56687 13.4858 4.87712 13.7247 5.241 13.8226L8.9 14.8064C9.08096 14.8576 9.27025 14.8722 9.45688 14.8494C9.64351 14.8265 9.82376 14.7667 9.98718 14.6734C10.1506 14.5801 10.2939 14.4551 10.4089 14.3057C10.5238 14.1564 10.608 13.9856 10.6567 13.8033C10.7054 13.6209 10.7175 13.4308 10.6923 13.2437C10.6672 13.0567 10.6053 12.8765 10.5103 12.7136C10.4152 12.5508 10.2889 12.4085 10.1387 12.295C9.98841 12.1816 9.81721 12.0992 9.635 12.0527L5.976 11.0679ZM8.182 2.80471L11.841 3.78854C12.2049 3.88639 12.5926 3.83512 12.9188 3.646C13.245 3.45688 13.483 3.14542 13.5805 2.78012C13.678 2.41482 13.6269 2.02561 13.4385 1.69812C13.2501 1.37062 12.9399 1.13167 12.576 1.03382L8.917 0.0509967C8.73683 0.00254733 8.54891 -0.00980113 8.36398 0.0146564C8.17906 0.0391138 8.00074 0.0998983 7.83921 0.193539C7.67768 0.28718 7.53611 0.411844 7.42257 0.560412C7.30904 0.70898 7.22576 0.878544 7.1775 1.05942C7.12924 1.2403 7.11694 1.42895 7.1413 1.6146C7.16566 1.80025 7.22621 1.97926 7.31949 2.14142C7.41276 2.30358 7.53694 2.44571 7.68493 2.55969C7.83292 2.67367 8.00183 2.75626 8.182 2.80471ZM3.053 7.32932L13.114 10.0359C13.2942 10.0843 13.4821 10.0967 13.667 10.0722C13.8519 10.0477 14.0303 9.98696 14.1918 9.89331C14.3533 9.79967 14.4949 9.67501 14.6084 9.52644C14.722 9.37787 14.8052 9.20831 14.8535 9.02743C14.9018 8.84655 14.9141 8.65791 14.8897 8.47226C14.8653 8.28661 14.8048 8.10759 14.7115 7.94543C14.6182 7.78327 14.4941 7.64115 14.3461 7.52717C14.1981 7.41319 14.0292 7.32958 13.849 7.28114L3.79 4.5746C3.60983 4.52596 3.42187 4.51341 3.23687 4.53769C3.05187 4.56196 2.87344 4.62258 2.71177 4.71608C2.38527 4.90491 2.14686 5.21622 2.049 5.58152C1.95114 5.94682 2.00183 6.33618 2.18993 6.66396C2.37803 6.99174 2.68912 7.23108 3.053 7.32932Z" fill="black"/>
</g>
<defs>
<clipPath id="clip0_6013_51825">
<rect width="48" height="37" fill="white" transform="translate(0 0.000976562)"/>
</clipPath>
</defs>
</svg>
