<svg width="48" height="33" viewBox="0 0 48 33" fill="none" xmlns="http://www.w3.org/2000/svg">
<g clip-path="url(#clip0_6013_51831)">
<path d="M0 20.0011C0 23.4489 1.36964 26.7555 3.80761 29.1935C6.24558 31.6315 9.55219 33.0011 13 33.0011H35C38.447 32.9985 41.7521 31.628 44.1895 29.1906C46.6269 26.7532 47.9974 23.4481 48 20.0011H0ZM15.04 17.0011H47C46.9992 16.0804 46.817 15.1689 46.4636 14.3187C46.1103 13.4684 45.5929 12.6962 44.9409 12.0461C44.2889 11.3959 43.5152 10.8807 42.664 10.5298C41.8128 10.1789 40.9007 9.99928 39.98 10.0011H39.975C39.8957 8.93887 39.5559 7.91252 38.9856 7.0128C38.4154 6.11309 37.6322 5.36772 36.7055 4.84259C35.7787 4.31747 34.7368 4.02876 33.6719 4.00199C32.6071 3.97523 31.552 4.21123 30.6 4.68912C30.1222 3.3193 29.2301 2.13204 28.0473 1.29193C26.8646 0.451825 25.4498 0.000488281 23.999 0.000488281C22.5482 0.000488281 21.1334 0.451825 19.9507 1.29193C18.7679 2.13204 17.8758 3.3193 17.398 4.68912C16.4461 4.21166 15.3912 3.97601 14.3266 4.003C13.262 4.02998 12.2204 4.31877 11.2939 4.84385C10.3674 5.36893 9.58454 6.11413 9.0144 7.01361C8.44427 7.91309 8.10446 8.93915 8.025 10.0011H8.02C7.09929 9.99928 6.18724 10.1789 5.33601 10.5298C4.48477 10.8807 3.71105 11.3959 3.05908 12.0461C2.40711 12.6962 1.88967 13.4684 1.53636 14.3187C1.18305 15.1689 1.00079 16.0804 1 17.0011H15.04Z" fill="black"/>
</g>
<defs>
<clipPath id="clip0_6013_51831">
<rect width="48" height="33" fill="white" transform="translate(0 0.000976562)"/>
</clipPath>
</defs>
</svg>
