<svg width="48" height="48" viewBox="0 0 48 48" fill="none" xmlns="http://www.w3.org/2000/svg">
<g clip-path="url(#clip0_6013_51828)">
<path d="M45 6.00098H3C2.20508 6.00256 1.4434 6.21378 0.881302 6.58851C0.319207 6.96324 0.00237409 7.47103 0 8.00098L0 30.001H48V8.00098C47.9976 7.47103 47.6808 6.96324 47.1187 6.58851C46.5566 6.21378 45.7949 6.00256 45 6.00098ZM16.5 11.001C16.5 10.7358 16.658 10.4814 16.9393 10.2939C17.2206 10.1063 17.6022 10.001 18 10.001C18.3978 10.001 18.7794 10.1063 19.0607 10.2939C19.342 10.4814 19.5 10.7358 19.5 11.001V14.001C19.5 14.2662 19.342 14.5205 19.0607 14.7081C18.7794 14.8956 18.3978 15.001 18 15.001C17.6022 15.001 17.2206 14.8956 16.9393 14.7081C16.658 14.5205 16.5 14.2662 16.5 14.001V11.001ZM22.5 28.001H22.305C21.5425 28.0014 20.7874 27.9015 20.0828 27.7072C19.3783 27.5128 18.7381 27.2278 18.1989 26.8684C17.6598 26.5089 17.2322 26.0821 16.9407 25.6124C16.6492 25.1427 16.4994 24.6393 16.5 24.131V23.001H16.695C17.4575 23.0006 18.2126 23.1004 18.9172 23.2948C19.6217 23.4891 20.2619 23.7742 20.8011 24.1336C21.3402 24.493 21.7678 24.9198 22.0593 25.3895C22.3508 25.8592 22.5006 26.3626 22.5 26.871V28.001ZM22.5 22.001H22.305C21.5425 22.0014 20.7874 21.9015 20.0828 21.7072C19.3783 21.5128 18.7381 21.2278 18.1989 20.8684C17.6598 20.5089 17.2322 20.0821 16.9407 19.6124C16.6492 19.1427 16.4994 18.6393 16.5 18.131V17.001H16.695C17.4575 17.0006 18.2126 17.1004 18.9172 17.2948C19.6217 17.4891 20.2619 17.7742 20.8011 18.1336C21.3402 18.493 21.7678 18.9198 22.0593 19.3895C22.3508 19.8592 22.5006 20.3626 22.5 20.871V22.001ZM24.03 17.001H23.97C23.5801 17.001 23.2062 16.8977 22.9306 16.7139C22.6549 16.5302 22.5 16.2809 22.5 16.021V8.98098C22.5 8.72106 22.6549 8.4718 22.9306 8.28801C23.2062 8.10423 23.5801 8.00098 23.97 8.00098H24.03C24.4199 8.00098 24.7938 8.10423 25.0694 8.28801C25.3451 8.4718 25.5 8.72106 25.5 8.98098V16.021C25.5 16.2809 25.3451 16.5302 25.0694 16.7139C24.7938 16.8977 24.4199 17.001 24.03 17.001ZM31.5 24.131C31.5006 24.6393 31.3508 25.1427 31.0593 25.6124C30.7678 26.0821 30.3402 26.5089 29.8011 26.8684C29.2619 27.2278 28.6217 27.5128 27.9172 27.7072C27.2126 27.9015 26.4575 28.0014 25.695 28.001H25.5V26.871C25.4994 26.3626 25.6492 25.8592 25.9407 25.3895C26.2322 24.9198 26.6598 24.493 27.1989 24.1336C27.7381 23.7742 28.3783 23.4891 29.0828 23.2948C29.7874 23.1004 30.5425 23.0006 31.305 23.001H31.5V24.131ZM31.5 18.131C31.5006 18.6393 31.3508 19.1427 31.0593 19.6124C30.7678 20.0821 30.3402 20.5089 29.8011 20.8684C29.2619 21.2278 28.6217 21.5128 27.9172 21.7072C27.2126 21.9015 26.4575 22.0014 25.695 22.001H25.5V20.871C25.4994 20.3626 25.6492 19.8592 25.9407 19.3895C26.2322 18.9198 26.6598 18.493 27.1989 18.1336C27.7381 17.7742 28.3783 17.4891 29.0828 17.2948C29.7874 17.1004 30.5425 17.0006 31.305 17.001H31.5V18.131ZM31.5 14.001C31.5 14.2662 31.342 14.5205 31.0607 14.7081C30.7794 14.8956 30.3978 15.001 30 15.001C29.6022 15.001 29.2206 14.8956 28.9393 14.7081C28.658 14.5205 28.5 14.2662 28.5 14.001V11.001C28.5 10.7358 28.658 10.4814 28.9393 10.2939C29.2206 10.1063 29.6022 10.001 30 10.001C30.3978 10.001 30.7794 10.1063 31.0607 10.2939C31.342 10.4814 31.5 10.7358 31.5 11.001V14.001ZM9 4.00098H39C39.7957 4.00098 40.5587 3.79026 41.1213 3.41519C41.6839 3.04012 42 2.53141 42 2.00098C42 1.47054 41.6839 0.961836 41.1213 0.586763C40.5587 0.21169 39.7957 0.000976563 39 0.000976562L9 0.000976563C8.20435 0.000976563 7.44129 0.21169 6.87868 0.586763C6.31607 0.961836 6 1.47054 6 2.00098C6 2.53141 6.31607 3.04012 6.87868 3.41519C7.44129 3.79026 8.20435 4.00098 9 4.00098ZM0 48.001H18V38.001C18.0024 37.471 18.3192 36.9632 18.8813 36.5885C19.4434 36.2138 20.2051 36.0026 21 36.001H27C27.7949 36.0026 28.5566 36.2138 29.1187 36.5885C29.6808 36.9632 29.9976 37.471 30 38.001V48.001H48V32.001H0V48.001Z" fill="black"/>
</g>
<defs>
<clipPath id="clip0_6013_51828">
<rect width="48" height="48" fill="white" transform="translate(0 0.000976562)"/>
</clipPath>
</defs>
</svg>
