<svg width="48" height="48" viewBox="0 0 48 48" fill="none" xmlns="http://www.w3.org/2000/svg">
<g clip-path="url(#clip0_6013_51838)">
<path d="M4 8.00098C6.20914 8.00098 8 6.21012 8 4.00098C8 1.79184 6.20914 0.000976562 4 0.000976562C1.79086 0.000976562 0 1.79184 0 4.00098C0 6.21012 1.79086 8.00098 4 8.00098Z" fill="black"/>
<path d="M38.75 28.4612L42.67 20.7112C43.2464 19.5609 43.3438 18.2292 42.9408 17.0074C42.5379 15.7855 41.6675 14.7729 40.52 14.1912L39.26 13.5612L37.96 12.9012C37.8394 12.8395 37.7118 12.7925 37.58 12.7612C34.736 11.4806 31.5509 11.1667 28.5117 11.8674C25.4724 12.568 22.7463 14.2447 20.75 16.6412L18.62 14.1812C17.1251 12.5508 15.3079 11.2486 13.2836 10.357C11.2593 9.46533 9.07197 9.00365 6.86 9.00116C5.76808 9.00144 4.69214 9.26351 3.72239 9.7654C2.75265 10.2673 1.91738 10.9944 1.28661 11.8857C0.655837 12.777 0.247959 13.8065 0.0971743 14.888C-0.0536108 15.9695 0.0570921 17.0713 0.420001 18.1012C0.440001 18.1512 0.460001 18.1912 0.480001 18.2412L3.36 24.8412C3.57 25.6012 4.08 27.2512 4.88 29.7512C6.31138 34.2463 7.27318 38.8777 7.75 43.5712L8.01 46.2012C8.05893 46.6947 8.28979 47.1525 8.65764 47.4852C9.02549 47.8179 9.504 48.0018 10 48.0012C10.0668 48.0026 10.1337 47.9993 10.2 47.9912C10.4613 47.9649 10.7149 47.8874 10.9463 47.7632C11.1777 47.6389 11.3824 47.4703 11.5486 47.2669C11.7148 47.0635 11.8393 46.8294 11.9151 46.5779C11.9908 46.3264 12.0163 46.0625 11.99 45.8012L11.73 43.1812C11.2775 38.717 10.4104 34.3046 9.14 30.0012H13.12C14.5168 33.842 15.1552 37.9172 15 42.0012C15.0006 42.4437 15.1483 42.8734 15.4198 43.2228C15.6913 43.5722 16.0713 43.8214 16.5 43.9312L18.93 39.1712C18.7467 34.196 17.513 29.3158 15.31 24.8512C14.91 23.9312 14.49 22.9812 14.07 21.9412L10.69 13.6312C12.5786 14.2673 14.2773 15.3677 15.63 16.8312L19.48 21.3112C19.8237 21.7057 20.3084 21.9498 20.83 21.9912C20.92 21.9912 20.99 22.0012 21.07 22.0012C21.4527 22.0022 21.8282 21.8972 22.1547 21.6977C22.4813 21.4982 22.7462 21.2121 22.92 20.8712C23.6883 19.3815 24.8305 18.1171 26.2347 17.202C27.639 16.2869 29.257 15.7525 30.93 15.6512C31.3059 15.6208 31.6833 15.6141 32.06 15.6312C32.4182 15.6453 32.7754 15.6787 33.13 15.7312L18.23 44.9512C18.1041 45.1952 18.0277 45.4617 18.0054 45.7354C17.983 46.0091 18.015 46.2845 18.0996 46.5457C18.1842 46.807 18.3197 47.0489 18.4983 47.2575C18.6768 47.4661 18.8949 47.6373 19.14 47.7612C19.4328 47.9152 19.7592 47.9943 20.09 47.9912C20.4749 47.9909 20.8523 47.8843 21.1805 47.6831C21.5087 47.4819 21.775 47.194 21.95 46.8512L30.99 29.1212L31.88 29.5712L32.78 30.0212L36.046 31.6792C36.0613 31.6885 36.0767 31.6975 36.092 31.7062C36.1175 31.7163 36.1407 31.7317 36.16 31.7512L36.213 31.7762C38.3218 33.1486 39.8452 35.2558 40.4874 37.6885C41.1295 40.1212 40.8446 42.7057 39.688 44.9402C39.5594 45.1836 39.4801 45.45 39.4549 45.7242C39.4297 45.9984 39.459 46.2748 39.5411 46.5376C39.6232 46.8004 39.7564 47.0444 39.9332 47.2554C40.11 47.4665 40.3268 47.6405 40.5711 47.7674C40.8154 47.8943 41.0825 47.9716 41.3568 47.9949C41.6311 48.0182 41.9074 47.9869 42.1696 47.903C42.4318 47.819 42.6748 47.684 42.8846 47.5057C43.0944 47.3274 43.2668 47.1094 43.392 46.8642C44.9984 43.7587 45.4131 40.1728 44.5581 36.7826C43.703 33.3925 41.6371 30.4333 38.75 28.4612ZM47.798 7.75116C47.5506 6.99968 47.0859 6.33844 46.4627 5.85107C45.8395 5.36369 45.0858 5.07207 44.2968 5.01309C43.5079 4.9541 42.7191 5.1304 42.0304 5.51969C41.3416 5.90897 40.7838 6.49376 40.4274 7.2001C40.071 7.90644 39.9321 8.7026 40.0282 9.48789C40.1243 10.2732 40.4512 11.0123 40.9674 11.6119C41.4836 12.2114 42.166 12.6444 42.9283 12.8561C43.6906 13.0678 44.4986 13.0487 45.25 12.8012C46.2575 12.4693 47.0919 11.7508 47.5698 10.8038C48.0476 9.85677 48.1297 8.75872 47.798 7.75116Z" fill="black"/>
</g>
<defs>
<clipPath id="clip0_6013_51838">
<rect width="48" height="48" fill="white" transform="translate(0 0.000976562)"/>
</clipPath>
</defs>
</svg>
