<svg width="48" height="48" viewBox="0 0 48 48" fill="none" xmlns="http://www.w3.org/2000/svg">
<g clip-path="url(#clip0_6013_51834)">
<path d="M45.25 0.000976562H2.75C2.02065 0.000976563 1.32118 0.290708 0.805456 0.806433C0.289731 1.32216 0 2.02163 0 2.75098L0 31.251C0 31.9803 0.289731 32.6798 0.805456 33.1955C1.32118 33.7112 2.02065 34.001 2.75 34.001H17.26C17.4002 33.3222 17.5873 32.6539 17.82 32.001C17.94 31.661 18.07 31.331 18.21 31.001C18.35 30.661 18.51 30.331 18.68 30.001H14.69C14.1655 28.8057 13.9268 27.5047 13.9927 26.2011C14.0587 24.8975 14.4275 23.6272 15.07 22.491L20.18 27.601L21.61 29.031C21.3746 29.3414 21.1576 29.6653 20.96 30.001C20.76 30.321 20.57 30.661 20.4 31.001C20.2318 31.3258 20.0816 31.6597 19.95 32.001C19.6797 32.649 19.4623 33.3179 19.3 34.001C18.727 36.3063 18.7196 38.7159 19.2785 41.0247C19.8374 43.3335 20.9461 45.473 22.51 47.261C22.6912 47.4753 22.914 47.6505 23.165 47.776C23.416 47.9015 23.6899 47.9746 23.97 47.991C24.0197 47.9981 24.0698 48.0014 24.12 48.001C24.6343 48.0032 25.1319 47.8184 25.52 47.481C25.7329 47.2972 25.9074 47.0733 26.0337 46.822C26.16 46.5707 26.2355 46.2971 26.2559 46.0166C26.2764 45.7361 26.2413 45.4543 26.1528 45.1874C26.0643 44.9205 25.924 44.6737 25.74 44.461C24.5268 43.0414 23.705 41.3297 23.356 39.4952C23.007 37.6607 23.1428 35.7669 23.75 34.001C24.2667 32.4871 25.1335 31.1165 26.28 30.001L27.03 29.251L27.69 28.591L28.15 28.131L28.78 27.501L31.27 30.001H29.15C29.15 30.001 28.617 30.445 28.126 30.936C28.0146 31.0491 27.9062 31.1651 27.801 31.284C27.014 32.0743 26.3678 32.9932 25.89 34.001H45.25C45.9793 34.001 46.6788 33.7112 47.1945 33.1955C47.7103 32.6798 48 31.9803 48 31.251V2.75098C48 2.02163 47.7103 1.32216 47.1945 0.806433C46.6788 0.290708 45.9793 0.000976563 45.25 0.000976562ZM15.69 15.261L15.46 15.461C10.87 19.811 9.08 25.231 10.44 30.001H4V4.00098H18.77C18.7809 4.0256 18.7943 4.04905 18.81 4.07098C21.14 7.76098 20.09 11.521 15.69 15.261ZM44 30.001H36.72L30.12 23.401L21.55 14.831C24.07 11.341 24.67 7.59098 23.24 4.00098H44V30.001Z" fill="black"/>
<path d="M10 16.001C12.2091 16.001 14 14.2101 14 12.001C14 9.79184 12.2091 8.00098 10 8.00098C7.79086 8.00098 6 9.79184 6 12.001C6 14.2101 7.79086 16.001 10 16.001Z" fill="black"/>
</g>
<defs>
<clipPath id="clip0_6013_51834">
<rect width="48" height="48" fill="white" transform="translate(0 0.000976562)"/>
</clipPath>
</defs>
</svg>
