<svg width="48" height="48" viewBox="0 0 48 48" fill="none" xmlns="http://www.w3.org/2000/svg">
<g clip-path="url(#clip0_6013_51842)">
<path d="M46.4702 28.491L36.0015 13.001H11.9968L1.52813 28.491C0.0670276 31.0316 -0.354288 33.8406 0.317675 36.5612C0.989639 39.2817 2.72457 41.7912 5.3022 43.771C7.03218 45.1171 9.10841 46.1861 11.4052 46.9131C13.7021 47.6402 16.1717 48.0103 18.6648 48.001H29.3335C31.8266 48.0103 34.2963 47.6402 36.5931 46.9131C38.8899 46.1861 40.9661 45.1171 42.6961 43.771C45.2738 41.7912 47.0087 39.2817 47.6807 36.5612C48.3526 33.8406 47.9313 31.0316 46.4702 28.491ZM25.3328 38.001V39.501C25.3328 39.8988 25.122 40.2803 24.7469 40.5616C24.3717 40.8429 23.8629 41.001 23.3324 41.001C22.8018 41.001 22.293 40.8429 21.9179 40.5616C21.5427 40.2803 21.332 39.8988 21.332 39.501V38.001H20.6652C20.1346 38.001 19.6258 37.8429 19.2507 37.5616C18.8755 37.2803 18.6648 36.8988 18.6648 36.501C18.6648 36.1032 18.8755 35.7216 19.2507 35.4403C19.6258 35.159 20.1346 35.001 20.6652 35.001H24.5993C25.1298 35.001 25.6386 34.8429 26.0138 34.5616C26.3889 34.2803 26.5997 33.8988 26.5997 33.501C26.5997 33.1032 26.3889 32.7216 26.0138 32.4403C25.6386 32.159 25.1298 32.001 24.5993 32.001H23.4124C21.991 32.0167 20.6084 31.653 19.5117 30.9748C18.4149 30.2967 17.6754 29.3482 17.4254 28.2988C17.1753 27.2495 17.4309 26.1676 18.1466 25.2466C18.8622 24.3256 19.9913 23.6253 21.332 23.271V21.501C21.332 21.1032 21.5427 20.7216 21.9179 20.4403C22.293 20.159 22.8018 20.001 23.3324 20.001C23.8629 20.001 24.3717 20.159 24.7469 20.4403C25.122 20.7216 25.3328 21.1032 25.3328 21.501V23.001H27.3331C27.8637 23.001 28.3725 23.159 28.7476 23.4403C29.1228 23.7216 29.3335 24.1032 29.3335 24.501C29.3335 24.8988 29.1228 25.2803 28.7476 25.5616C28.3725 25.8429 27.8637 26.001 27.3331 26.001H23.4124C23.1435 25.9936 22.8755 26.027 22.6242 26.099C22.373 26.1711 22.1436 26.2804 21.95 26.4204C21.7563 26.5604 21.6023 26.7283 21.497 26.9139C21.3918 27.0996 21.3376 27.2993 21.3376 27.501C21.3376 27.7027 21.3918 27.9024 21.497 28.088C21.6023 28.2737 21.7563 28.4415 21.95 28.5815C22.1436 28.7216 22.373 28.8309 22.6242 28.9029C22.8755 28.975 23.1435 29.0083 23.4124 29.001H24.5993C26.1398 28.993 27.6258 29.428 28.7515 30.2166C29.8773 31.0053 30.557 32.0874 30.651 33.2405C30.745 34.3935 30.246 35.5297 29.2567 36.4152C28.2674 37.3008 26.8631 37.8683 25.3328 38.001ZM11.9928 11.001H22.6616L20.4625 3.56698C20.3308 3.12285 20.0011 2.72566 19.5279 2.44096C19.0546 2.15625 18.466 2.00105 17.8593 2.00098H10.6579C10.4583 2.00115 10.2613 2.03491 10.0815 2.09977C9.90163 2.16463 9.74348 2.25894 9.61869 2.37573C9.49391 2.49253 9.40567 2.62884 9.36049 2.7746C9.31531 2.92037 9.31434 3.07189 9.35765 3.21798L11.9928 11.001ZM30.6671 11.001H35.9975L38.6433 1.18098C38.6774 1.03639 38.6689 0.887967 38.6183 0.746134C38.5676 0.604301 38.4762 0.472509 38.3503 0.360028C38.2245 0.247547 38.0673 0.157109 37.8898 0.0950771C37.7123 0.0330449 37.5189 0.000924964 37.3231 0.000976625H33.3356C32.6306 0.0076918 31.9568 0.220437 31.4577 0.593953C30.9586 0.967469 30.6735 1.47227 30.6631 2.00098C30.6562 1.47387 30.3748 0.969657 29.879 0.595984C29.3832 0.222311 28.7122 0.00878008 28.0093 0.000976625H24.0085C23.8127 0.000924964 23.6193 0.0330449 23.4418 0.0950771C23.2643 0.157109 23.1071 0.247547 22.9813 0.360028C22.8554 0.472509 22.764 0.604301 22.7133 0.746134C22.6627 0.887967 22.6542 1.03639 22.6882 1.18098L25.3288 11.001H30.6671Z" fill="black"/>
</g>
<defs>
<clipPath id="clip0_6013_51842">
<rect width="48" height="48" fill="white" transform="translate(0 0.000976562)"/>
</clipPath>
</defs>
</svg>
