<svg width="48" height="48" viewBox="0 0 48 48" fill="none" xmlns="http://www.w3.org/2000/svg">
<g clip-path="url(#clip0_6013_51845)">
<path d="M3 0.000976562C2.20435 0.000976563 1.44129 0.317047 0.87868 0.879656C0.31607 1.44227 0 2.20533 0 3.00098L0 45.001C0 45.7966 0.31607 46.5597 0.87868 47.1223C1.44129 47.6849 2.20435 48.001 3 48.001C3.79565 48.001 4.55871 47.6849 5.12132 47.1223C5.68393 46.5597 6 45.7966 6 45.001V3.00098C6 2.20533 5.68393 1.44227 5.12132 0.879656C4.55871 0.317047 3.79565 0.000976563 3 0.000976562ZM45 0.000976562C44.2043 0.000976563 43.4413 0.317047 42.8787 0.879656C42.3161 1.44227 42 2.20533 42 3.00098V45.001C42 45.7966 42.3161 46.5597 42.8787 47.1223C43.4413 47.6849 44.2043 48.001 45 48.001C45.7957 48.001 46.5587 47.6849 47.1213 47.1223C47.6839 46.5597 48 45.7966 48 45.001V3.00098C48 2.20533 47.6839 1.44227 47.1213 0.879656C46.5587 0.317047 45.7957 0.000976563 45 0.000976562ZM32.121 14.88C31.5552 14.3335 30.7974 14.0311 30.0108 14.038C29.2242 14.0448 28.4718 14.3603 27.9155 14.9165C27.3593 15.4727 27.0438 16.2252 27.037 17.0118C27.0301 17.7984 27.3325 18.5562 27.879 19.122L29.758 21.001H18.242L20.122 19.122C20.677 18.5578 20.9865 17.7971 20.9832 17.0057C20.9799 16.2143 20.664 15.4562 20.1043 14.8967C19.5446 14.3371 18.7865 14.0214 17.9951 14.0183C17.2037 14.0151 16.4431 14.3249 15.879 14.88L8.879 21.88C8.31659 22.4426 8.00064 23.2055 8.00064 24.001C8.00064 24.7965 8.31659 25.5594 8.879 26.122L15.879 33.122C16.4448 33.6684 17.2026 33.9708 17.9892 33.964C18.7758 33.9572 19.5282 33.6417 20.0845 33.0854C20.6407 32.5292 20.9562 31.7768 20.963 30.9902C20.9699 30.2036 20.6675 29.4458 20.121 28.88L18.242 27.001H29.758L27.878 28.88C27.5957 29.1577 27.3713 29.4887 27.2175 29.8536C27.0638 30.2186 26.9838 30.6104 26.9823 31.0064C26.9807 31.4024 27.0575 31.7948 27.2084 32.161C27.3592 32.5271 27.5811 32.8598 27.8612 33.1398C28.1412 33.4198 28.4739 33.6416 28.8401 33.7924C29.2064 33.9431 29.5988 34.0199 29.9948 34.0182C30.3908 34.0166 30.7826 33.9365 31.1475 33.7827C31.5124 33.6289 31.8433 33.4043 32.121 33.122L39.121 26.122C39.6834 25.5594 39.9994 24.7965 39.9994 24.001C39.9994 23.2055 39.6834 22.4426 39.121 21.88L32.121 14.88Z" fill="black"/>
</g>
<defs>
<clipPath id="clip0_6013_51845">
<rect width="48" height="48" fill="white" transform="translate(0 0.000976562)"/>
</clipPath>
</defs>
</svg>
