<svg width="48" height="48" viewBox="0 0 48 48" fill="none" xmlns="http://www.w3.org/2000/svg">
<g clip-path="url(#clip0_6013_51848)">
<path d="M25.6422 45.001H1.63674C1.20265 45.001 0.786336 45.159 0.479389 45.4403C0.172441 45.7216 0 46.1032 0 46.501C0 46.8988 0.172441 47.2803 0.479389 47.5616C0.786336 47.8429 1.20265 48.001 1.63674 48.001H25.6422C26.0763 48.001 26.4926 47.8429 26.7995 47.5616C27.1065 47.2803 27.2789 46.8988 27.2789 46.501C27.2789 46.1032 27.1065 45.7216 26.7995 45.4403C26.4926 45.159 26.0763 45.001 25.6422 45.001ZM47.3639 4.59398C46.9567 4.22087 46.4044 4.01126 45.8286 4.01126C45.2528 4.01126 44.7005 4.22087 44.2933 4.59398L37.7464 10.594C37.3402 10.9677 37.1115 11.4734 37.1102 12.001V37.501C37.1102 37.9015 36.9367 38.2855 36.6277 38.5687C36.3187 38.8519 35.8996 39.011 35.4626 39.011C35.0256 39.011 34.6065 38.8519 34.2975 38.5687C33.9885 38.2855 33.815 37.9015 33.815 37.501V27.001C33.8121 25.1479 33.0076 23.3715 31.5778 22.0612C30.1481 20.7509 28.2097 20.0136 26.1878 20.011V2.00098C26.186 1.47103 25.9556 0.963242 25.5467 0.588511C25.1378 0.213781 24.5837 0.00255929 24.0055 0.000976562L3.27347 0.000976563C2.69522 0.00255929 2.14114 0.213781 1.73225 0.588511C1.32336 0.963242 1.09288 1.47103 1.09116 2.00098V41.001C1.09288 41.5309 1.32336 42.0387 1.73225 42.4134C2.14114 42.7882 2.69522 42.9994 3.27347 43.001H24.0055C24.5837 42.9994 25.1378 42.7882 25.5467 42.4134C25.9556 42.0387 26.186 41.5309 26.1878 41.001V23.991C27.0585 23.992 27.8932 24.3095 28.5089 24.8738C29.1246 25.438 29.471 26.203 29.4722 27.001V37.501C29.4722 38.957 30.1033 40.3534 31.2267 41.383C32.3501 42.4126 33.8738 42.991 35.4626 42.991C37.0514 42.991 38.5751 42.4126 39.6985 41.383C40.8219 40.3534 41.4531 38.957 41.4531 37.501V15.991H44.7374C45.3133 15.991 45.8656 15.7813 46.2729 15.4081C46.6801 15.0349 46.9088 14.5288 46.9088 14.001C46.9088 13.4732 46.6801 12.967 46.2729 12.5938C45.8656 12.2206 45.3133 12.011 44.7374 12.011H42.3424L47.3639 7.40798C47.771 7.03479 47.9997 6.52869 47.9997 6.00098C47.9997 5.47327 47.771 4.96716 47.3639 4.59398ZM22.9143 17.001C22.9134 17.2659 22.7982 17.5198 22.5938 17.7072C22.3893 17.8946 22.1123 18.0002 21.8231 18.001H5.45579C5.16666 18.0002 4.88962 17.8946 4.68517 17.7072C4.48073 17.5198 4.36549 17.2659 4.36463 17.001V5.00098C4.36549 4.736 4.48073 4.48211 4.68517 4.29474C4.88962 4.10738 5.16666 4.00177 5.45579 4.00098H21.8231C22.1123 4.00177 22.3893 4.10738 22.5938 4.29474C22.7982 4.48211 22.9134 4.736 22.9143 5.00098V17.001Z" fill="black"/>
</g>
<defs>
<clipPath id="clip0_6013_51848">
<rect width="48" height="48" fill="white" transform="translate(0 0.000976562)"/>
</clipPath>
</defs>
</svg>
