<svg width="48" height="48" viewBox="0 0 48 48" fill="none" xmlns="http://www.w3.org/2000/svg">
<g clip-path="url(#clip0_6013_51851)">
<path d="M48 6.60098V6.20098C48 6.20098 48 6.10098 47.8857 6.00098V5.90098C47.7714 5.70098 47.5429 5.50098 47.2 5.30098H47.0857C47.0857 5.30098 46.9714 5.30098 46.8571 5.20098H37.9429C36.6857 5.20098 35.6571 6.10098 35.6571 7.20098C35.6571 8.30098 36.6857 9.20098 37.9429 9.20098H40.4571L35.6571 13.401C29.4857 9.60098 20.9143 10.801 16.5714 16.201C14.8571 18.201 14.0571 20.701 14.0571 23.201C14.0571 29.101 18.8571 34.101 25.4857 35.201V39.201H22.0571C20.8 39.201 19.7714 40.101 19.7714 41.201C19.7714 42.301 20.8 43.201 22.0571 43.201H25.4857V46.201C25.4857 47.301 26.5143 48.201 27.7714 48.201C29.0286 48.201 30.0571 47.301 30.0571 46.201V43.201H33.4857C34.7429 43.201 35.7714 42.301 35.7714 41.201C35.7714 40.101 34.7429 39.201 33.4857 39.201H30.0571V35.201C36.6857 34.101 41.4857 29.101 41.4857 23.201C41.4857 20.701 40.5714 18.301 38.9714 16.301L43.7714 12.101V14.301C43.7714 15.401 44.8 16.301 46.0571 16.301C47.3143 16.301 48.3429 15.401 48.3429 14.301V6.90098L48 6.60098ZM27.4286 31.001C22.4 31.001 18.2857 27.401 18.2857 23.001C18.2857 18.601 22.4 15.001 27.4286 15.001C32.4571 15.001 36.5714 18.601 36.5714 23.001C36.5714 27.401 32.4571 31.001 27.4286 31.001ZM7.31429 3.60098C6.4 2.80098 5.02857 2.80098 4.11429 3.60098C3.2 4.40098 3.2 5.60098 4.11429 6.40098L8.68571 10.401C9.6 11.201 10.9714 11.201 11.8857 10.401C12.8 9.60098 12.8 8.40098 11.8857 7.60098L7.31429 3.60098ZM8 13.001H2.28571C1.02857 13.001 0 13.901 0 15.001C0 16.101 1.02857 17.001 2.28571 17.001H8C9.25714 17.001 10.2857 16.101 10.2857 15.001C10.2857 13.901 9.25714 13.001 8 13.001ZM17.1429 9.00098C18.4 9.00098 19.4286 8.10098 19.4286 7.00098V2.00098C19.4286 0.900977 18.4 0.000976562 17.1429 0.000976562C15.8857 0.000976562 14.8571 0.900977 14.8571 2.00098V7.00098C14.8571 8.10098 15.8857 9.00098 17.1429 9.00098Z" fill="black"/>
</g>
<defs>
<clipPath id="clip0_6013_51851">
<rect width="48" height="48" fill="white" transform="translate(0 0.000976562)"/>
</clipPath>
</defs>
</svg>
