<svg width="48" height="43" viewBox="0 0 48 43" fill="none" xmlns="http://www.w3.org/2000/svg">
<g clip-path="url(#clip0_6013_51854)">
<path d="M48 1.60117V1.20117C48 1.20117 48 1.10117 47.84 1.00117V0.901172C47.68 0.701172 47.36 0.501172 46.88 0.301172H46.72C46.72 0.301172 46.56 0.301172 46.4 0.201172H33.92C32.16 0.201172 30.72 1.10117 30.72 2.20117C30.72 3.30117 32.16 4.20117 33.92 4.20117H37.44L30.72 8.40117C22.08 4.60117 10.08 5.80117 4 11.2012C1.28 13.1012 0 15.5012 0 18.0012C0 23.9012 6.72 28.9012 16 30.0012V34.0012H11.2C9.44 34.0012 8 34.9012 8 36.0012C8 37.1012 9.44 38.0012 11.2 38.0012H16V41.0012C16 42.1012 17.44 43.0012 19.2 43.0012C20.96 43.0012 22.4 42.1012 22.4 41.0012V38.0012H27.2C28.96 38.0012 30.4 37.1012 30.4 36.0012C30.4 34.9012 28.96 34.0012 27.2 34.0012H22.4V30.0012C31.68 28.9012 38.4 23.9012 38.4 18.0012C38.4 15.5012 37.12 13.1012 34.88 11.1012L41.6 6.90117V9.10117C41.6 10.2012 43.04 11.1012 44.8 11.1012C46.56 11.1012 48 10.2012 48 9.10117V1.60117ZM19.2 26.0012C12.16 26.0012 6.4 22.4012 6.4 18.0012C6.4 13.6012 12.16 10.0012 19.2 10.0012C26.24 10.0012 32 13.6012 32 18.0012C32 22.4012 26.24 26.0012 19.2 26.0012Z" fill="black"/>
</g>
<defs>
<clipPath id="clip0_6013_51854">
<rect width="48" height="43" fill="white" transform="translate(0 0.000976562)"/>
</clipPath>
</defs>
</svg>
