<svg width="48" height="48" viewBox="0 0 48 48" fill="none" xmlns="http://www.w3.org/2000/svg">
<g clip-path="url(#clip0_6013_51856)">
<path d="M6.8574 48.0011C5.50104 48.0011 4.17514 47.7665 3.04739 47.3269C1.91964 46.8873 1.0407 46.2625 0.521754 45.5315C0.0028038 44.8005 -0.132849 43.9962 0.131952 43.2202C0.396754 42.4442 1.05011 41.7314 2.0094 41.1721L31.4454 24.0011L2.0094 6.82909C0.723399 6.07893 0.000933678 5.06148 0.000933692 4.00059C0.000933705 2.9397 0.723399 1.92226 2.0094 1.17209C3.29539 0.421926 5.03958 0.000488289 6.85825 0.000488281C8.67693 0.000488273 10.4211 0.421926 11.7071 1.17209L45.9928 21.1721C46.6296 21.5435 47.1347 21.9845 47.4794 22.4698C47.824 22.9551 48.0014 23.4753 48.0014 24.0006C48.0014 24.5259 47.824 25.0461 47.4794 25.5314C47.1347 26.0167 46.6296 26.4577 45.9928 26.8291L11.7071 46.8291C11.0703 47.2007 10.3143 47.4954 9.48212 47.6965C8.65 47.8976 7.75811 48.0011 6.8574 48.0011Z" fill="black"/>
</g>
<defs>
<clipPath id="clip0_6013_51856">
<rect width="48" height="48" fill="white" transform="translate(0 0.000976562)"/>
</clipPath>
</defs>
</svg>
