<svg width="48" height="48" viewBox="0 0 48 48" fill="none" xmlns="http://www.w3.org/2000/svg">
<g clip-path="url(#clip0_6013_51858)">
<path d="M46.5 45.001H1.5C1.10218 45.001 0.720644 45.159 0.43934 45.4403C0.158035 45.7216 0 46.1032 0 46.501C0 46.8988 0.158035 47.2803 0.43934 47.5616C0.720644 47.8429 1.10218 48.001 1.5 48.001H46.5C46.8978 48.001 47.2794 47.8429 47.5607 47.5616C47.842 47.2803 48 46.8988 48 46.501C48 46.1032 47.842 45.7216 47.5607 45.4403C47.2794 45.159 46.8978 45.001 46.5 45.001ZM5.5 43.001H42.5C42.8978 43.001 43.2794 42.8429 43.5607 42.5616C43.842 42.2803 44 41.8988 44 41.501C44 41.1032 43.842 40.7216 43.5607 40.4403C43.2794 40.159 42.8978 40.001 42.5 40.001H5.5C5.10218 40.001 4.72064 40.159 4.43934 40.4403C4.15804 40.7216 4 41.1032 4 41.501C4 41.8988 4.15804 42.2803 4.43934 42.5616C4.72064 42.8429 5.10218 43.001 5.5 43.001Z" fill="black"/>
<path d="M10 17.001H14V38.001H10V17.001Z" fill="black"/>
<path d="M18 17.001H22V38.001H18V17.001Z" fill="black"/>
<path d="M26 17.001H30V38.001H26V17.001Z" fill="black"/>
<path d="M34 17.001H38V38.001H34V17.001Z" fill="black"/>
<path d="M8 15.001H40C40.5304 15.001 41.0391 14.7903 41.4142 14.4152C41.7893 14.0401 42 13.5314 42 13.001C42 12.4705 41.7893 11.9618 41.4142 11.5868C41.0391 11.2117 40.5304 11.001 40 11.001H25V8.00098H34V2.00098H25V1.50098C25 1.10315 24.842 0.721621 24.5607 0.440316C24.2794 0.159012 23.8978 0.000976562 23.5 0.000976562C23.1022 0.000976562 22.7206 0.159012 22.4393 0.440316C22.158 0.721621 22 1.10315 22 1.50098V11.001H8C7.46957 11.001 6.96086 11.2117 6.58579 11.5868C6.21071 11.9618 6 12.4705 6 13.001C6 13.5314 6.21071 14.0401 6.58579 14.4152C6.96086 14.7903 7.46957 15.001 8 15.001Z" fill="black"/>
</g>
<defs>
<clipPath id="clip0_6013_51858">
<rect width="48" height="48" fill="white" transform="translate(0 0.000976562)"/>
</clipPath>
</defs>
</svg>
