<svg width="48" height="32" viewBox="0 0 48 32" fill="none" xmlns="http://www.w3.org/2000/svg">
<g clip-path="url(#clip0_6013_51866)">
<path d="M39 15.001H37C35.7387 15.0023 34.4917 15.2687 33.34 15.783C35.094 17.0809 36.5195 18.7717 37.5024 20.7197C38.4853 22.6678 38.9982 24.819 39 27.001H48V24.001C48 21.614 47.0518 19.3248 45.364 17.637C43.6761 15.9492 41.3869 15.001 39 15.001ZM14.66 15.783C13.5083 15.2687 12.2613 15.0023 11 15.001H9C6.61305 15.001 4.32387 15.9492 2.63604 17.637C0.948212 19.3248 0 21.614 0 24.001L0 27.001H9C9.00182 24.819 9.51472 22.6678 10.4976 20.7197C11.4805 18.7717 12.906 17.0809 14.66 15.783ZM25 16.001H23C20.0826 16.001 17.2847 17.1599 15.2218 19.2228C13.1589 21.2857 12 24.0836 12 27.001V32.001H36V27.001C36 24.0836 34.8411 21.2857 32.7782 19.2228C30.7153 17.1599 27.9174 16.001 25 16.001Z" fill="black"/>
<path d="M24 14.001C27.866 14.001 31 10.867 31 7.00098C31 3.13498 27.866 0.000976562 24 0.000976562C20.134 0.000976562 17 3.13498 17 7.00098C17 10.867 20.134 14.001 24 14.001Z" fill="black"/>
<path d="M10 13.001C12.7614 13.001 15 10.7624 15 8.00098C15 5.23955 12.7614 3.00098 10 3.00098C7.23858 3.00098 5 5.23955 5 8.00098C5 10.7624 7.23858 13.001 10 13.001Z" fill="black"/>
<path d="M38 13.001C40.7614 13.001 43 10.7624 43 8.00098C43 5.23955 40.7614 3.00098 38 3.00098C35.2386 3.00098 33 5.23955 33 8.00098C33 10.7624 35.2386 13.001 38 13.001Z" fill="black"/>
</g>
<defs>
<clipPath id="clip0_6013_51866">
<rect width="48" height="32" fill="white" transform="translate(0 0.000976562)"/>
</clipPath>
</defs>
</svg>
