<svg width="48" height="48" viewBox="0 0 48 48" fill="none" xmlns="http://www.w3.org/2000/svg">
<g clip-path="url(#clip0_6013_51872)">
<path d="M18.1 8.00098H0V0.000976562H18.1C24.7 0.000976562 30 5.30098 30 11.901V14.001H31C31.6 14.001 32 14.401 32 15.001V18.001C32 18.601 31.6 19.001 31 19.001H21C20.4 19.001 20 18.601 20 18.001V15.001C20 14.401 20.4 14.001 21 14.001H22V11.901C22 9.70098 20.3 8.00098 18.1 8.00098ZM33 29.501C33 30.901 34.1 32.001 35.5 32.001C36.9 32.001 38 30.901 38 29.501C38 28.101 36.9 27.001 35.5 27.001C34.1 27.001 33 28.101 33 29.501ZM31 22.501C31 23.301 31.7 24.001 32.5 24.001C33.3 24.001 34 23.301 34 22.501C34 21.701 33.3 21.001 32.5 21.001C31.7 21.001 31 21.701 31 22.501ZM41.5 35.001H32.5C31.1 35.001 30 36.101 30 37.501C30 38.901 31.1 40.001 32.5 40.001H36.5C37.3 40.001 38 40.701 38 41.501C38 42.301 37.3 43.001 36.5 43.001H30.1C29.7 43.001 29.3 42.801 29 42.601L19.7 32.801C18.6 31.701 16.8 31.701 15.8 32.801L15.6 33.001C14.7 34.201 14.8 35.801 15.9 36.801L26.5 47.101C27 47.601 27.7 47.901 28.5 47.901H41.6C45.2 47.901 48.1 45.001 48.1 41.401C48.1 37.801 45.1 35.001 41.5 35.001ZM17 30.001C18.1 30.001 19 29.101 19 28.001C19 26.901 18.1 26.001 17 26.001C15.9 26.001 15 26.901 15 28.001C15 29.101 15.9 30.001 17 30.001ZM25.9 22.001C25.8 22.101 25.8 22.101 25.9 22.001C25 23.201 22.2 27.201 22.2 29.101C22.2 31.201 23.9 33.001 26.1 33.001C28.2 33.001 30 31.301 30 29.101C30 27.201 27.1 23.201 26.3 22.101C26.1 22.001 26 22.001 25.9 22.001Z" fill="black"/>
</g>
<defs>
<clipPath id="clip0_6013_51872">
<rect width="48" height="48" fill="white" transform="translate(0 0.000976562)"/>
</clipPath>
</defs>
</svg>
