<svg width="48" height="48" viewBox="0 0 48 48" fill="none" xmlns="http://www.w3.org/2000/svg">
<g clip-path="url(#clip0_6013_51874)">
<path d="M41.896 29.001H41C40.4696 29.001 39.9609 29.2117 39.5858 29.5868C39.2107 29.9619 39 30.4706 39 31.001V40.739L34.495 35.671C34.2827 35.4323 34.0163 35.2479 33.7181 35.1332C33.4199 35.0186 33.0986 34.9771 32.781 35.0121C32.4635 35.0472 32.1589 35.1578 31.8929 35.3347C31.6269 35.5116 31.4071 35.7497 31.252 36.029L26.252 45.029C26.1203 45.2588 26.0356 45.5124 26.0028 45.7752C25.9699 46.038 25.9896 46.3048 26.0606 46.5599C26.1317 46.815 26.2527 47.0535 26.4166 47.2615C26.5806 47.4695 26.7842 47.6428 27.0157 47.7715C27.2472 47.9002 27.502 47.9816 27.7652 48.011C28.0284 48.0404 28.2948 48.0172 28.549 47.9429C28.8032 47.8685 29.04 47.7444 29.2459 47.5777C29.4517 47.411 29.6224 47.2052 29.748 46.972L33.378 40.437L39.505 47.329C39.519 47.345 39.535 47.355 39.549 47.37C39.5966 47.4189 39.6467 47.4653 39.699 47.509C39.749 47.55 39.795 47.594 39.847 47.629C39.899 47.667 39.955 47.697 40.01 47.729C40.067 47.761 40.123 47.795 40.183 47.822C40.24 47.848 40.301 47.866 40.361 47.886C40.4227 47.9087 40.4854 47.9284 40.549 47.945C40.609 47.959 40.671 47.965 40.732 47.973C40.8013 47.9837 40.871 47.9907 40.941 47.994C40.961 47.995 40.98 48 41.001 48H46.001C46.5314 48 47.0401 47.7893 47.4152 47.4142C47.7903 47.0391 48.001 46.5304 48.001 46V35.105C48.0011 34.3032 47.8433 33.5093 47.5366 32.7686C47.2298 32.0278 46.7801 31.3547 46.2132 30.7878C45.6463 30.2209 44.9732 29.7712 44.2324 29.4644C43.4917 29.1577 42.6978 29.0009 41.896 29.001Z" fill="black"/>
<path d="M35.5 29C37.433 29 39 27.433 39 25.5C39 23.567 37.433 22 35.5 22C33.567 22 32 23.567 32 25.5C32 27.433 33.567 29 35.5 29Z" fill="black"/>
<path d="M13 10.001C5.468 10.001 0 15.046 0 22.001C0 22.5314 0.210714 23.0401 0.585786 23.4152C0.960859 23.7903 1.46957 24.001 2 24.001C2.53043 24.001 3.03914 23.7903 3.41421 23.4152C3.78929 23.0401 4 22.5314 4 22.001C3.97227 20.6082 4.33147 19.2349 5.03765 18.0341C5.74383 16.8332 6.76931 15.8518 8 15.199V29.105C8 29.134 8.007 29.16 8.009 29.189C8.007 29.217 8 29.244 8 29.273V46C8 46.5304 8.21071 47.0391 8.58579 47.4142C8.96086 47.7893 9.46957 48 10 48C10.5304 48 11.0391 47.7893 11.4142 47.4142C11.7893 47.0391 12 46.5304 12 46V31.001H14V46.001C14 46.5314 14.2107 47.0401 14.5858 47.4152C14.9609 47.7903 15.4696 48.001 16 48.001C16.5304 48.001 17.0391 47.7903 17.4142 47.4152C17.7893 47.0401 18 46.5314 18 46.001V29.273C18 29.244 17.993 29.217 17.991 29.189C17.993 29.16 18 29.134 18 29.105V15.199C19.2305 15.8517 20.2559 16.833 20.9621 18.0337C21.6683 19.2343 22.0275 20.6073 22 22C22 22.5304 22.2107 23.0391 22.5858 23.4142C22.9609 23.7893 23.4696 24 24 24C24.5304 24 25.0391 23.7893 25.4142 23.4142C25.7893 23.0391 26 22.5304 26 22C26 15.047 20.532 10 13 10" fill="black"/>
<path d="M19 9C21.2091 9 23 7.20914 23 5C23 2.79086 21.2091 1 19 1C16.7909 1 15 2.79086 15 5C15 7.20914 16.7909 9 19 9Z" fill="black"/>
<path d="M32.9996 8.50087C32.9996 8.8987 33.1576 9.28023 33.4389 9.56153C33.7202 9.84284 34.1017 10.0009 34.4996 10.0009H38.4996C38.8974 10.0009 39.2789 9.84284 39.5602 9.56153C39.8415 9.28023 39.9996 8.8987 39.9996 8.50087C39.9996 8.10305 39.8415 7.72152 39.5602 7.44021C39.2789 7.15891 38.8974 7.00087 38.4996 7.00087H34.4996C34.1017 7.00087 33.7202 7.15891 33.4389 7.44021C33.1576 7.72152 32.9996 8.10305 32.9996 8.50087ZM29.8296 6.84187C30.1852 7.0197 30.597 7.04901 30.9743 6.92338C31.3515 6.79774 31.6635 6.52743 31.8416 6.17187L33.8416 2.17187C33.9298 1.99564 33.9825 1.80375 33.9966 1.60716C34.0107 1.41057 33.9859 1.21313 33.9237 1.02611C33.8615 0.839094 33.763 0.666162 33.634 0.51719C33.5049 0.368217 33.3478 0.246121 33.1716 0.157873C32.9953 0.0696243 32.8034 0.016952 32.6068 0.00286303C32.4103 -0.011226 32.2128 0.0135443 32.0258 0.0757596C31.8388 0.137975 31.6659 0.236417 31.5169 0.365464C31.3679 0.494512 31.2458 0.651639 31.1576 0.827873L29.1576 4.82787C29.0694 5.0041 29.0168 5.19597 29.0028 5.39252C28.9888 5.58907 29.0137 5.78646 29.076 5.97339C29.1383 6.16033 29.2368 6.33316 29.366 6.48201C29.4951 6.63085 29.6523 6.7528 29.8286 6.84087M31.1576 16.1709C31.2457 16.3471 31.3676 16.5043 31.5165 16.6334C31.6653 16.7625 31.8382 16.861 32.0251 16.9233C32.212 16.9856 32.4094 17.0105 32.6059 16.9965C32.8025 16.9825 32.9943 16.93 33.1706 16.8419C33.3468 16.7538 33.5039 16.6318 33.633 16.4829C33.7621 16.3341 33.8607 16.1613 33.923 15.9743C33.9853 15.7874 34.0102 15.5901 33.9962 15.3935C33.9822 15.197 33.9297 15.0051 33.8416 14.8289L31.8416 10.8289C31.6636 10.473 31.3515 10.2023 30.974 10.0765C30.5965 9.95063 30.1845 9.97991 29.8286 10.1579C29.4726 10.3358 29.202 10.6479 29.0762 11.0254C28.9503 11.4029 28.9796 11.815 29.1576 12.1709L31.1576 16.1709Z" fill="black"/>
</g>
<defs>
<clipPath id="clip0_6013_51874">
<rect width="48" height="47.999" fill="white" transform="translate(0 0.000976562)"/>
</clipPath>
</defs>
</svg>
