<svg width="48" height="44" viewBox="0 0 48 44" fill="none" xmlns="http://www.w3.org/2000/svg">
<g clip-path="url(#clip0_6013_51890)">
<path d="M24.8853 0.254221C24.6413 0.0917089 24.3263 0.00195313 24 0.00195312C23.6737 0.00195312 23.3587 0.0917089 23.1147 0.254221L0.437333 15.7032C0.299695 15.7969 0.189689 15.9111 0.114375 16.0386C0.0390608 16.166 0.000102461 16.3038 0 16.4432L0 44.0012H48V16.4442C47.9999 16.3048 47.9609 16.167 47.8856 16.0396C47.8103 15.9121 47.7003 15.7979 47.5627 15.7042L24.8853 0.254221ZM33.3333 29.0012H28V33.0012C28 33.7969 27.5786 34.5599 26.8284 35.1225C26.0783 35.6852 25.0609 36.0012 24 36.0012C22.9391 36.0012 21.9217 35.6852 21.1716 35.1225C20.4214 34.5599 20 33.7969 20 33.0012V29.0012H14.6667C13.6058 29.0012 12.5884 28.6852 11.8382 28.1225C11.0881 27.5599 10.6667 26.7969 10.6667 26.0012C10.6667 25.2056 11.0881 24.4425 11.8382 23.8799C12.5884 23.3173 13.6058 23.0012 14.6667 23.0012H20V19.0012C20 18.2056 20.4214 17.4425 21.1716 16.8799C21.9217 16.3173 22.9391 16.0012 24 16.0012C25.0609 16.0012 26.0783 16.3173 26.8284 16.8799C27.5786 17.4425 28 18.2056 28 19.0012V23.0012H33.3333C34.3942 23.0012 35.4116 23.3173 36.1618 23.8799C36.9119 24.4425 37.3333 25.2056 37.3333 26.0012C37.3333 26.7969 36.9119 27.5599 36.1618 28.1225C35.4116 28.6852 34.3942 29.0012 33.3333 29.0012Z" fill="black"/>
</g>
<defs>
<clipPath id="clip0_6013_51890">
<rect width="48" height="44" fill="white" transform="translate(0 0.000976562)"/>
</clipPath>
</defs>
</svg>
