<svg width="48" height="48" viewBox="0 0 48 48" fill="none" xmlns="http://www.w3.org/2000/svg">
<g clip-path="url(#clip0_6013_51892)">
<path d="M16.63 8.22098C16.4503 8.07986 16.2285 8.00316 16 8.00316C15.7715 8.00316 15.5497 8.07986 15.37 8.22098L0.370006 20.701C0.253985 20.7951 0.160527 20.914 0.0964982 21.049C0.0324695 21.184 -0.00050219 21.3316 5.78147e-06 21.481V48.001H32V21.481C32.0005 21.3316 31.9675 21.184 31.9035 21.049C31.8395 20.914 31.746 20.7951 31.63 20.701L16.63 8.22098ZM23 33.001H19V37.001C19 37.7966 18.6839 38.5597 18.1213 39.1223C17.5587 39.6849 16.7957 40.001 16 40.001C15.2044 40.001 14.4413 39.6849 13.8787 39.1223C13.3161 38.5597 13 37.7966 13 37.001V33.001H9.00001C8.20436 33.001 7.44129 32.6849 6.87869 32.1223C6.31608 31.5597 6.00001 30.7966 6.00001 30.001C6.00001 29.2053 6.31608 28.4423 6.87869 27.8797C7.44129 27.317 8.20436 27.001 9.00001 27.001H13V23.001C13 22.2053 13.3161 21.4423 13.8787 20.8797C14.4413 20.317 15.2044 20.001 16 20.001C16.7957 20.001 17.5587 20.317 18.1213 20.8797C18.6839 21.4423 19 22.2053 19 23.001V27.001H23C23.7957 27.001 24.5587 27.317 25.1213 27.8797C25.6839 28.4423 26 29.2053 26 30.001C26 30.7966 25.6839 31.5597 25.1213 32.1223C24.5587 32.6849 23.7957 33.001 23 33.001ZM37 2.00098V1.50098C37 1.10315 36.842 0.721621 36.5607 0.440316C36.2794 0.159012 35.8978 0.000976563 35.5 0.000976562C35.1022 0.000976563 34.7206 0.159012 34.4393 0.440316C34.158 0.721621 34 1.10315 34 1.50098V48.001H37V10.001H48V2.00098H37Z" fill="black"/>
</g>
<defs>
<clipPath id="clip0_6013_51892">
<rect width="48" height="48" fill="white" transform="translate(0 0.000976562)"/>
</clipPath>
</defs>
</svg>
