<svg width="48" height="44" viewBox="0 0 48 44" fill="none" xmlns="http://www.w3.org/2000/svg">
<g clip-path="url(#clip0_6013_51895)">
<path d="M48 38.001V44.001H0V38.001C0 32.001 4.94118 26.601 12.7059 24.301V31.001H11.2941C8.18824 31.001 5.64706 32.801 5.64706 35.001V41.001C5.64706 41.601 6.21176 42.001 7.05882 42.001H9.88235C10.7294 42.001 11.2941 41.601 11.2941 41.001C11.2941 40.401 10.7294 40.001 9.88235 40.001H8.47059V35.001C8.47059 33.901 9.74118 33.001 11.2941 33.001H16.9412C18.4941 33.001 19.7647 33.901 19.7647 35.001V40.001H18.3529C17.5059 40.001 16.9412 40.401 16.9412 41.001C16.9412 41.601 17.5059 42.001 18.3529 42.001H21.1765C22.0235 42.001 22.5882 41.601 22.5882 41.001V35.001C22.5882 32.801 20.0471 31.001 16.9412 31.001H15.5294V23.601C17.3647 23.201 19.2 23.001 21.1765 23.001H26.8235C28.8 23.001 30.6353 23.201 32.4706 23.601V31.201C31.2 31.501 30.3529 32.201 29.9294 33.001C29.0824 34.601 30.3529 36.301 32.4706 36.801C34.5882 37.301 37.1294 36.501 37.8353 35.001C38.5412 33.501 37.4118 31.701 35.2941 31.201V24.301C43.0588 26.601 48 32.001 48 38.001ZM24 20.001C31.7647 20.001 38.1176 15.501 38.1176 10.001C38.1176 4.50098 31.7647 0.000976562 24 0.000976562C16.2353 0.000976562 9.88235 4.50098 9.88235 10.001C9.88235 15.501 16.2353 20.001 24 20.001Z" fill="black"/>
</g>
<defs>
<clipPath id="clip0_6013_51895">
<rect width="48" height="44" fill="white" transform="translate(0 0.000976562)"/>
</clipPath>
</defs>
</svg>
