<svg width="48" height="48" viewBox="0 0 48 48" fill="none" xmlns="http://www.w3.org/2000/svg">
<g clip-path="url(#clip0_6013_51887)">
<path d="M47.903 24.047C47.8392 23.9129 47.7462 23.7947 47.631 23.701L32 11.001L16.37 23.701C16.2545 23.7947 16.1614 23.9129 16.0974 24.0472C16.0334 24.1814 16.0001 24.3283 16 24.477V48.001H48V24.477C48.0001 24.3282 47.9669 24.1813 47.903 24.047ZM41 35.001C41 35.2662 40.8946 35.5205 40.7071 35.7081C40.5196 35.8956 40.2652 36.001 40 36.001H35V41.001C35 41.2662 34.8946 41.5205 34.7071 41.7081C34.5196 41.8956 34.2652 42.001 34 42.001H30C29.7348 42.001 29.4804 41.8956 29.2929 41.7081C29.1054 41.5205 29 41.2662 29 41.001V36.001H24C23.7348 36.001 23.4804 35.8956 23.2929 35.7081C23.1054 35.5205 23 35.2662 23 35.001V31.001C23 30.7358 23.1054 30.4814 23.2929 30.2939C23.4804 30.1063 23.7348 30.001 24 30.001H29V25.001C29 24.7358 29.1054 24.4814 29.2929 24.2939C29.4804 24.1063 29.7348 24.001 30 24.001H34C34.2652 24.001 34.5196 24.1063 34.7071 24.2939C34.8946 24.4814 35 24.7358 35 25.001V30.001H40C40.2652 30.001 40.5196 30.1063 40.7071 30.2939C40.8946 30.4814 41 30.7358 41 31.001V35.001ZM20 10.001C20 8.02317 19.4135 6.08977 18.3147 4.44528C17.2159 2.80079 15.6541 1.51906 13.8268 0.762186C11.9996 0.0053094 9.98891 -0.192724 8.0491 0.193128C6.10929 0.578981 4.32746 1.53139 2.92894 2.92991C1.53041 4.32844 0.578004 6.11027 0.192152 8.05008C-0.193701 9.98989 0.00433284 12.0006 0.761209 13.8278C1.51809 15.6551 2.79981 17.2169 4.4443 18.3157C6.08879 19.4145 8.02219 20.001 10 20.001C12.6522 20.001 15.1957 18.9474 17.0711 17.072C18.9464 15.1967 20 12.6531 20 10.001ZM15.65 7.76098L8.65 13.761C8.45867 13.9246 8.21267 14.01 7.96113 14.0002C7.70958 13.9903 7.471 13.886 7.293 13.708L4.293 10.708C4.11085 10.5194 4.01005 10.2668 4.01233 10.0046C4.01461 9.74238 4.11978 9.49157 4.30519 9.30616C4.49059 9.12075 4.74141 9.01559 5.0036 9.01331C5.2658 9.01103 5.5184 9.11182 5.707 9.29398L8.05301 11.639L14.35 6.24198C14.5527 6.08123 14.8098 6.00528 15.0673 6.03009C15.3248 6.0549 15.5627 6.17853 15.7309 6.37502C15.8992 6.57151 15.9848 6.82556 15.9697 7.08382C15.9546 7.34207 15.84 7.58443 15.65 7.75998" fill="black"/>
</g>
<defs>
<clipPath id="clip0_6013_51887">
<rect width="48" height="48" fill="white" transform="translate(0 0.000976562)"/>
</clipPath>
</defs>
</svg>
