<svg width="48" height="48" viewBox="0 0 48 48" fill="none" xmlns="http://www.w3.org/2000/svg">
<g clip-path="url(#clip0_6013_51884)">
<path d="M47.903 24.047C47.8392 23.9129 47.7462 23.7947 47.631 23.701L32 11.001L16.37 23.701C16.2545 23.7947 16.1614 23.9129 16.0974 24.0472C16.0334 24.1814 16.0001 24.3283 16 24.477V48.001H48V24.477C48.0001 24.3282 47.9669 24.1813 47.903 24.047ZM41 35.001C41 35.2662 40.8946 35.5205 40.7071 35.7081C40.5196 35.8956 40.2652 36.001 40 36.001H35V41.001C35 41.2662 34.8946 41.5205 34.7071 41.7081C34.5196 41.8956 34.2652 42.001 34 42.001H30C29.7348 42.001 29.4804 41.8956 29.2929 41.7081C29.1054 41.5205 29 41.2662 29 41.001V36.001H24C23.7348 36.001 23.4804 35.8956 23.2929 35.7081C23.1054 35.5205 23 35.2662 23 35.001V31.001C23 30.7358 23.1054 30.4814 23.2929 30.2939C23.4804 30.1063 23.7348 30.001 24 30.001H29V25.001C29 24.7358 29.1054 24.4814 29.2929 24.2939C29.4804 24.1063 29.7348 24.001 30 24.001H34C34.2652 24.001 34.5196 24.1063 34.7071 24.2939C34.8946 24.4814 35 24.7358 35 25.001V30.001H40C40.2652 30.001 40.5196 30.1063 40.7071 30.2939C40.8946 30.4814 41 30.7358 41 31.001V35.001ZM20 10.001C20 8.02317 19.4135 6.08977 18.3147 4.44528C17.2159 2.80079 15.6541 1.51906 13.8268 0.762186C11.9996 0.0053094 9.98891 -0.192724 8.0491 0.193128C6.10929 0.578981 4.32746 1.53139 2.92894 2.92991C1.53041 4.32844 0.578004 6.11027 0.192152 8.05008C-0.193701 9.98989 0.00433284 12.0006 0.761209 13.8278C1.51809 15.6551 2.79981 17.2169 4.4443 18.3157C6.08879 19.4145 8.02219 20.001 10 20.001C12.6522 20.001 15.1957 18.9474 17.0711 17.072C18.9464 15.1967 20 12.6531 20 10.001ZM14.707 13.294C14.8025 13.3862 14.8787 13.4966 14.9311 13.6186C14.9835 13.7406 15.0111 13.8718 15.0123 14.0046C15.0134 14.1374 14.9881 14.269 14.9378 14.3919C14.8875 14.5148 14.8133 14.6265 14.7194 14.7204C14.6255 14.8143 14.5139 14.8885 14.391 14.9388C14.2681 14.9891 14.1364 15.0144 14.0036 15.0132C13.8708 15.0121 13.7396 14.9845 13.6176 14.9321C13.4956 14.8797 13.3853 14.8035 13.293 14.708L10 11.415L6.707 14.708C6.5184 14.8901 6.2658 14.9909 6.0036 14.9887C5.74141 14.9864 5.49059 14.8812 5.30519 14.6958C5.11978 14.5104 5.01461 14.2596 5.01233 13.9974C5.01005 13.7352 5.11085 13.4826 5.293 13.294L8.58601 10.001L5.293 6.70798C5.11085 6.51938 5.01005 6.26678 5.01233 6.00458C5.01461 5.74238 5.11978 5.49157 5.30519 5.30616C5.49059 5.12075 5.74141 5.01558 6.0036 5.01331C6.2658 5.01103 6.5184 5.11182 6.707 5.29398L10 8.58698L13.293 5.29398C13.4816 5.11182 13.7342 5.01103 13.9964 5.01331C14.2586 5.01558 14.5094 5.12075 14.6948 5.30616C14.8802 5.49157 14.9854 5.74238 14.9877 6.00458C14.99 6.26678 14.8892 6.51938 14.707 6.70798L11.414 10.001L14.707 13.294Z" fill="black"/>
</g>
<defs>
<clipPath id="clip0_6013_51884">
<rect width="48" height="48" fill="white" transform="translate(0 0.000976562)"/>
</clipPath>
</defs>
</svg>
