<svg width="48" height="48" viewBox="0 0 48 48" fill="none" xmlns="http://www.w3.org/2000/svg">
<g clip-path="url(#clip0_6013_51897)">
<path d="M29.6471 3.00098C29.6471 1.30098 27.8118 0.000976562 25.4118 0.000976562C23.0118 0.000976562 21.1765 1.30098 21.1765 3.00098V6.00098H29.6471V3.00098ZM21.1765 26.001H29.6471V24.001H36.7059C42.9176 24.001 48 20.401 48 16.001C48 11.601 42.9176 8.00098 36.7059 8.00098H16.3765C15.3882 7.40098 13.9765 7.00098 12.7059 7.00098H5.64706C2.54118 7.00098 0 8.80098 0 11.001C0 13.201 2.54118 15.001 5.64706 15.001H12.7059C14.1176 15.001 15.3882 14.601 16.3765 14.001H36.7059C38.2588 14.001 39.5294 14.901 39.5294 16.001C39.5294 17.101 38.2588 18.001 36.7059 18.001H29.6471V16.001H21.1765V18.001H16.9412C10.7294 18.001 5.64706 21.601 5.64706 26.001C5.64706 30.401 10.7294 34.001 16.9412 34.001H31.0588C32.6118 34.001 33.8824 34.901 33.8824 36.001C33.8824 37.101 32.6118 38.001 31.0588 38.001H29.6471V36.001H21.1765V38.001H18.3529C15.9529 38.001 14.1176 39.301 14.1176 41.001C14.1176 42.701 15.9529 44.001 18.3529 44.001H21.1765V45.001C21.1765 45.301 21.1765 45.701 21.4588 46.001C21.4588 46.101 21.6 46.301 21.7412 46.401C21.7412 46.401 21.7412 46.501 21.8824 46.601C21.8824 46.601 21.8824 46.701 22.0235 46.801C22.4471 47.301 23.1529 47.601 24 47.801H26.5412C27.5294 47.601 28.3765 47.201 28.9412 46.601L29.0824 46.401C29.0824 46.401 29.0824 46.301 29.2235 46.201C29.2235 46.101 29.3647 45.901 29.5059 45.801C29.6471 45.501 29.7882 45.101 29.7882 44.801V43.801H31.2C37.4118 43.801 42.4941 40.201 42.4941 35.801C42.4941 31.401 37.4118 27.801 31.2 27.801H17.0824C15.5294 27.801 14.2588 26.901 14.2588 25.801C14.2588 24.701 15.5294 23.801 17.0824 23.801H21.3176V25.801L21.1765 26.001ZM5.64706 11.001C4.8 11.001 4.23529 10.601 4.23529 10.001C4.23529 9.40098 4.8 9.00098 5.64706 9.00098C6.49412 9.00098 7.05882 9.40098 7.05882 10.001C7.05882 10.601 6.49412 11.001 5.64706 11.001Z" fill="black"/>
</g>
<defs>
<clipPath id="clip0_6013_51897">
<rect width="48" height="48" fill="white" transform="translate(0 0.000976562)"/>
</clipPath>
</defs>
</svg>
