<svg width="48" height="48" viewBox="0 0 48 48" fill="none" xmlns="http://www.w3.org/2000/svg">
<g clip-path="url(#clip0_6013_51881)">
<path d="M47.903 24.047C47.8392 23.9129 47.7462 23.7947 47.631 23.701L32 11.001L16.37 23.701C16.2545 23.7947 16.1614 23.9129 16.0974 24.0472C16.0334 24.1814 16.0001 24.3283 16 24.477V48.001H48V24.477C48.0001 24.3282 47.9669 24.1813 47.903 24.047ZM41 35.001C41 35.2662 40.8946 35.5205 40.7071 35.7081C40.5196 35.8956 40.2652 36.001 40 36.001H35V41.001C35 41.2662 34.8946 41.5205 34.7071 41.7081C34.5196 41.8956 34.2652 42.001 34 42.001H30C29.7348 42.001 29.4804 41.8956 29.2929 41.7081C29.1054 41.5205 29 41.2662 29 41.001V36.001H24C23.7348 36.001 23.4804 35.8956 23.2929 35.7081C23.1054 35.5205 23 35.2662 23 35.001V31.001C23 30.7358 23.1054 30.4814 23.2929 30.2939C23.4804 30.1063 23.7348 30.001 24 30.001H29V25.001C29 24.7358 29.1054 24.4814 29.2929 24.2939C29.4804 24.1063 29.7348 24.001 30 24.001H34C34.2652 24.001 34.5196 24.1063 34.7071 24.2939C34.8946 24.4814 35 24.7358 35 25.001V30.001H40C40.2652 30.001 40.5196 30.1063 40.7071 30.2939C40.8946 30.4814 41 30.7358 41 31.001V35.001ZM20 10.001C20 8.02317 19.4135 6.08977 18.3147 4.44528C17.2159 2.80079 15.6541 1.51906 13.8268 0.762186C11.9996 0.0053094 9.98891 -0.192724 8.0491 0.193128C6.10929 0.578981 4.32746 1.53139 2.92894 2.92991C1.53041 4.32844 0.578004 6.11027 0.192152 8.05008C-0.193701 9.98989 0.00433284 12.0006 0.761209 13.8278C1.51809 15.6551 2.79981 17.2169 4.4443 18.3157C6.08879 19.4145 8.02219 20.001 10 20.001C12.6522 20.001 15.1957 18.9474 17.0711 17.072C18.9464 15.1967 20 12.6531 20 10.001ZM9 4.00098C9 3.73576 9.10536 3.48141 9.2929 3.29387C9.48043 3.10634 9.73479 3.00098 10 3.00098C10.2652 3.00098 10.5196 3.10634 10.7071 3.29387C10.8946 3.48141 11 3.73576 11 4.00098V12.001C11 12.2662 10.8946 12.5206 10.7071 12.7081C10.5196 12.8956 10.2652 13.001 10 13.001C9.73479 13.001 9.48043 12.8956 9.2929 12.7081C9.10536 12.5206 9 12.2662 9 12.001V4.00098ZM10 17.135C9.77572 17.135 9.55647 17.0685 9.36999 16.9439C9.1835 16.8193 9.03816 16.6422 8.95233 16.4349C8.8665 16.2277 8.84404 15.9997 8.88779 15.7797C8.93155 15.5598 9.03955 15.3577 9.19815 15.1991C9.35674 15.0405 9.5588 14.9325 9.77877 14.8888C9.99875 14.845 10.2268 14.8675 10.434 14.9533C10.6412 15.0391 10.8183 15.1845 10.9429 15.371C11.0675 15.5575 11.134 15.7767 11.134 16.001C11.134 16.3017 11.0145 16.5902 10.8019 16.8028C10.5892 17.0155 10.3008 17.135 10 17.135Z" fill="black"/>
</g>
<defs>
<clipPath id="clip0_6013_51881">
<rect width="48" height="48" fill="white" transform="translate(0 0.000976562)"/>
</clipPath>
</defs>
</svg>
