<svg width="48" height="48" viewBox="0 0 48 48" fill="none" xmlns="http://www.w3.org/2000/svg">
<g clip-path="url(#clip0_6013_51900)">
<path d="M22.5884 6.50098C22.5884 4.77707 21.6216 3.12377 19.9007 1.90478C18.1798 0.685796 15.8457 0.000976563 13.412 0.000976562C10.9782 0.000976563 8.64416 0.685796 6.92323 1.90478C5.20231 3.12377 4.23551 4.77707 4.23551 6.50098V31.578C2.61508 32.6559 1.39841 34.0023 0.694954 35.4959C-0.00849884 36.9896 -0.176657 38.5837 0.205608 40.1349C0.587873 41.686 1.50857 43.1455 2.88485 44.382C4.26114 45.6185 6.04983 46.5933 8.09 47.2186C10.1302 47.8438 12.3578 48.1 14.5724 47.9641C16.7871 47.8282 18.9193 47.3043 20.7772 46.4398C22.6351 45.5752 24.1604 44.3971 25.2159 43.0113C26.2714 41.6255 26.8239 40.0756 26.8237 38.501C26.8269 37.2029 26.4525 35.9182 25.7238 34.7271C24.9952 33.536 23.9278 32.464 22.5884 31.578V6.50098ZM13.412 45.001C11.5108 45.002 9.65613 44.5844 8.10464 43.8061C6.55316 43.0277 5.38154 41.927 4.75189 40.6564C4.12224 39.3857 4.06568 38.0078 4.59005 36.7133C5.11441 35.4189 6.19378 34.2719 7.6788 33.431L8.4708 32.981V6.50098C8.4708 5.57272 8.99139 4.68248 9.91804 4.0261C10.8447 3.36973 12.1015 3.00098 13.412 3.00098C14.7225 3.00098 15.9793 3.36973 16.9059 4.0261C17.8326 4.68248 18.3532 5.57272 18.3532 6.50098V32.981L19.1452 33.431C20.6302 34.2719 21.7095 35.4189 22.2339 36.7133C22.7583 38.0078 22.7017 39.3857 22.0721 40.6564C21.4424 41.927 20.2708 43.0277 18.7193 43.8061C17.1678 44.5844 15.3132 45.002 13.412 45.001Z" fill="black"/>
<path d="M15.5299 34.798V8.50098C15.5299 8.10315 15.3067 7.72162 14.9096 7.44032C14.5125 7.15901 13.9738 7.00098 13.4122 7.00098C12.8506 7.00098 12.3119 7.15901 11.9148 7.44032C11.5177 7.72162 11.2946 8.10315 11.2946 8.50098V34.798C10.0797 35.1461 9.07357 35.7826 8.44862 36.5986C7.82366 37.4145 7.6188 38.359 7.86913 39.2701C8.11946 40.1813 8.80939 41.0025 9.8207 41.5928C10.832 42.1832 12.1017 42.5061 13.4122 42.5061C14.7227 42.5061 15.9924 42.1832 17.0037 41.5928C18.015 41.0025 18.705 40.1813 18.9553 39.2701C19.2056 38.359 19.0007 37.4145 18.3758 36.5986C17.7508 35.7826 16.7447 35.1461 15.5299 34.798ZM45.8828 10.001H39.5299V5.50098C39.5299 5.10315 39.3067 4.72162 38.9096 4.44032C38.5125 4.15901 37.9738 4.00098 37.4122 4.00098C36.8506 4.00098 36.3119 4.15901 35.9148 4.44032C35.5177 4.72162 35.2946 5.10315 35.2946 5.50098V10.001H28.9416C28.38 10.001 27.8414 10.159 27.4442 10.4403C27.0471 10.7216 26.824 11.1032 26.824 11.501C26.824 11.8988 27.0471 12.2803 27.4442 12.5616C27.8414 12.8429 28.38 13.001 28.9416 13.001H35.2946V17.501C35.2946 17.8988 35.5177 18.2803 35.9148 18.5616C36.3119 18.8429 36.8506 19.001 37.4122 19.001C37.9738 19.001 38.5125 18.8429 38.9096 18.5616C39.3067 18.2803 39.5299 17.8988 39.5299 17.501V13.001H45.8828C46.4444 13.001 46.9831 12.8429 47.3802 12.5616C47.7773 12.2803 48.0004 11.8988 48.0004 11.501C48.0004 11.1032 47.7773 10.7216 47.3802 10.4403C46.9831 10.159 46.4444 10.001 45.8828 10.001Z" fill="black"/>
</g>
<defs>
<clipPath id="clip0_6013_51900">
<rect width="48" height="48" fill="white" transform="translate(0 0.000976562)"/>
</clipPath>
</defs>
</svg>
