<svg width="48" height="40" viewBox="0 0 48 40" fill="none" xmlns="http://www.w3.org/2000/svg">
<g clip-path="url(#clip0_6013_51904)">
<path d="M11.2337 31.0008C10.7646 31.0011 10.3149 31.1874 9.98315 31.5188L4.51587 36.9828C4.19306 37.3161 4.01425 37.7629 4.01802 38.2268C4.02179 38.6908 4.20783 39.1346 4.53601 39.4627C4.8642 39.7907 5.30823 39.9767 5.77234 39.9804C6.23645 39.9842 6.68344 39.8055 7.01691 39.4828L12.4842 34.0188C12.7315 33.7715 12.8999 33.4565 12.9681 33.1136C13.0363 32.7707 13.0013 32.4153 12.8675 32.0923C12.7336 31.7692 12.507 31.4931 12.2162 31.2989C11.9253 31.1046 11.5834 31.0009 11.2337 31.0008ZM24.2461 31.0008C23.7771 31.0011 23.3273 31.1874 22.9956 31.5188L17.5283 36.9828C17.2055 37.3161 17.0267 37.7629 17.0304 38.2268C17.0342 38.6908 17.2202 39.1346 17.5484 39.4627C17.8766 39.7907 18.3207 39.9767 18.7848 39.9804C19.2489 39.9842 19.6959 39.8055 20.0293 39.4828L25.4966 34.0188C25.7439 33.7715 25.9123 33.4565 25.9805 33.1136C26.0488 32.7707 26.0137 32.4153 25.8799 32.0923C25.746 31.7692 25.5194 31.4931 25.2286 31.2989C24.9378 31.1046 24.5959 31.0009 24.2461 31.0008ZM37.2515 31.0008C36.7825 31.0011 36.3328 31.1874 36.001 31.5188L30.5337 36.9828C30.2109 37.3161 30.0321 37.7629 30.0359 38.2268C30.0396 38.6908 30.2257 39.1346 30.5539 39.4627C30.882 39.7907 31.3261 39.9767 31.7902 39.9804C32.2543 39.9842 32.7013 39.8055 33.0348 39.4828L38.502 34.0188C38.7493 33.7715 38.9177 33.4565 38.986 33.1136C39.0542 32.7707 39.0191 32.4153 38.8853 32.0923C38.7515 31.7692 38.5248 31.4931 38.234 31.2989C37.9432 31.1046 37.6013 31.0009 37.2515 31.0008ZM38.9962 9.01079C37.9156 9.00627 36.8435 9.20296 35.8349 9.59079L35.8249 9.59579C35.3527 6.76293 33.8363 4.20953 31.5745 2.43862C29.3126 0.667716 26.4693 -0.192294 23.6046 0.0280193C20.74 0.248333 18.0617 1.533 16.0975 3.62892C14.1333 5.72485 13.0255 8.48007 12.9924 11.3518C12.004 10.9952 10.939 10.9052 9.90467 11.091C8.87039 11.2769 7.90336 11.7318 7.10099 12.4102C6.29863 13.0885 5.68928 13.9662 5.33432 14.9549C4.97936 15.9436 4.89133 17.0083 5.07911 18.0418L5.0721 18.0408C4.87661 18.0129 4.67932 17.9996 4.48186 18.0008C3.28788 18.0008 2.14281 18.4749 1.29855 19.3188C0.454284 20.1627 -0.0200195 21.3073 -0.0200195 22.5008C-0.0200195 23.6943 0.454284 24.8389 1.29855 25.6828C2.14281 26.5267 3.28788 27.0008 4.48186 27.0008H38.9962C41.0792 27.0017 43.0981 26.2806 44.7088 24.9604C46.3196 23.6403 47.4226 21.8027 47.8299 19.7608C47.9424 19.1809 47.9994 18.5915 48 18.0008C48 16.8194 47.767 15.6495 47.3144 14.5582C46.8618 13.4668 46.1985 12.4753 45.3622 11.6404C44.526 10.8054 43.5334 10.1434 42.4411 9.69225C41.3487 9.24104 40.1782 9.00948 38.9962 9.01079Z" fill="black"/>
</g>
<defs>
<clipPath id="clip0_6013_51904">
<rect width="48" height="40" fill="white" transform="translate(0 0.000976562)"/>
</clipPath>
</defs>
</svg>
