<svg width="48" height="35" viewBox="0 0 48 35" fill="none" xmlns="http://www.w3.org/2000/svg">
<g clip-path="url(#clip0_6013_51907)">
<path d="M46.5002 3.00098C46.898 3.00098 47.2795 2.84294 47.5608 2.56164C47.8421 2.28033 48.0002 1.8988 48.0002 1.50098C48.0002 1.10315 47.8421 0.721621 47.5608 0.440316C47.2795 0.159012 46.898 0.000976563 46.5002 0.000976563L8.50016 0.000976562C8.10233 0.000976563 7.7208 0.159012 7.4395 0.440316C7.15819 0.721621 7.00016 1.10315 7.00016 1.50098C7.00016 1.8988 7.15819 2.28033 7.4395 2.56164C7.7208 2.84294 8.10233 3.00098 8.50016 3.00098H26.0002V10.001H8.74016C8.39625 9.02525 7.72684 8.1977 6.84452 7.65749C5.96219 7.11729 4.92076 6.89738 3.89535 7.03474C2.86995 7.1721 1.92312 7.65836 1.21408 8.41175C0.505047 9.16514 0.0770549 10.1397 0.00207967 11.1715C-0.0728956 12.2034 0.209719 13.2296 0.802398 14.0775C1.39508 14.9255 2.26167 15.5435 3.25645 15.8277C4.25122 16.1118 5.3135 16.0448 6.26465 15.6378C7.2158 15.2308 7.99781 14.5087 8.47916 13.593L17.0002 17.001V19.001H17.0072C17.0072 19.045 17.0002 19.088 17.0002 19.133C17.0076 21.4146 17.8925 23.6058 19.4716 25.2527C21.0507 26.8996 23.2029 27.8757 25.4822 27.979C25.5022 27.982 25.5202 27.989 25.5402 27.991C25.6702 28.001 25.7902 28.001 25.9202 28.001H27.0002V32.001H18.4232C18.2363 32.001 18.0512 32.0378 17.8786 32.1093C17.706 32.1808 17.5491 32.2856 17.4169 32.4178C17.2848 32.5499 17.18 32.7068 17.1085 32.8794C17.037 33.0521 17.0002 33.2371 17.0002 33.424V33.578C17.0002 33.9554 17.1501 34.3173 17.4169 34.5842C17.6838 34.8511 18.0458 35.001 18.4232 35.001H40.7702C40.9231 35.0014 41.0752 34.9767 41.2202 34.928L46.0282 33.325C46.3862 33.2056 46.6822 32.9489 46.8509 32.6114C47.0197 32.2738 47.0475 31.883 46.9282 31.525C46.8088 31.1669 46.5521 30.871 46.2146 30.7022C45.877 30.5334 45.4862 30.5056 45.1282 30.625L41.2202 31.928C41.0752 31.9767 40.9231 32.0014 40.7702 32.001H39.0002V27.941C41.2843 27.685 43.3839 26.5645 44.8682 24.8096C46.3525 23.0546 47.1089 20.7982 46.9822 18.5032C46.8556 16.2082 45.8555 14.0487 44.1871 12.4677C42.5188 10.8867 40.3086 10.0041 38.0102 10.001H29.0002V3.00098H46.5002ZM4.50016 13.001C4.20349 13.001 3.91348 12.913 3.6668 12.7482C3.42013 12.5834 3.22787 12.3491 3.11434 12.075C3.00081 11.8009 2.9711 11.4993 3.02898 11.2083C3.08686 10.9174 3.22972 10.6501 3.4395 10.4403C3.64928 10.2305 3.91655 10.0877 4.20752 10.0298C4.49849 9.97192 4.80009 10.0016 5.07418 10.1152C5.34827 10.2287 5.58254 10.4209 5.74736 10.6676C5.91218 10.9143 6.00016 11.2043 6.00016 11.501C6.00016 11.8988 5.84212 12.2803 5.56082 12.5616C5.27951 12.8429 4.89798 13.001 4.50016 13.001ZM30.0002 32.001V28.001H36.0002V32.001H30.0002ZM44.0002 19.001H37.0002V13.001C37.3244 13.0013 37.6483 13.0213 37.9702 13.061C41.3802 13.461 44.0002 15.971 44.0002 19.001Z" fill="black"/>
</g>
<defs>
<clipPath id="clip0_6013_51907">
<rect width="48" height="35" fill="white" transform="translate(0 0.000976562)"/>
</clipPath>
</defs>
</svg>
