<svg width="48" height="48" viewBox="0 0 48 48" fill="none" xmlns="http://www.w3.org/2000/svg">
<g clip-path="url(#clip0_6013_51909)">
<path d="M24 0.000976563C19.2533 0.000976563 14.6131 1.40855 10.6663 4.04571C6.71954 6.68286 3.64341 10.4311 1.8269 14.8166C0.0103989 19.202 -0.464881 24.0276 0.461164 28.6831C1.38721 33.3387 3.67299 37.6151 7.02945 40.9715C10.3859 44.328 14.6623 46.6138 19.3178 47.5398C23.9734 48.4659 28.799 47.9906 33.1844 46.1741C37.5698 44.3576 41.3181 41.2814 43.9553 37.3347C46.5924 33.3879 48 28.7477 48 24.001C47.9984 17.6363 45.4693 11.5327 40.9688 7.03217C36.4683 2.53164 30.3647 0.00256714 24 0.000976563ZM24 43.001C20.2422 43.001 16.5687 41.8866 13.4442 39.7989C10.3196 37.7112 7.88437 34.7438 6.4463 31.272C5.00823 27.8002 4.63197 23.9799 5.36509 20.2943C6.09821 16.6086 7.90778 13.2231 10.565 10.5659C13.2222 7.90875 16.6077 6.09918 20.2933 5.36606C23.9789 4.63294 27.7992 5.0092 31.271 6.44727C34.7428 7.88533 37.7102 10.3206 39.7979 13.4451C41.8857 16.5697 43 20.2431 43 24.001C42.999 29.0398 40.9968 33.8719 37.4339 37.4348C33.8709 40.9978 29.0388 42.9999 24 43.001Z" fill="black"/>
<path d="M31.5 12.001C30.837 12.001 30.2011 12.2644 29.7322 12.7332C29.2634 13.2021 29 13.838 29 14.501V21.001H19V14.501C19 13.838 18.7366 13.2021 18.2678 12.7332C17.7989 12.2644 17.163 12.001 16.5 12.001C15.837 12.001 15.2011 12.2644 14.7322 12.7332C14.2634 13.2021 14 13.838 14 14.501V33.501C14 34.164 14.2634 34.7999 14.7322 35.2688C15.2011 35.7376 15.837 36.001 16.5 36.001C17.163 36.001 17.7989 35.7376 18.2678 35.2688C18.7366 34.7999 19 34.164 19 33.501V26.001H29V33.501C29 34.164 29.2634 34.7999 29.7322 35.2688C30.2011 35.7376 30.837 36.001 31.5 36.001C32.163 36.001 32.7989 35.7376 33.2678 35.2688C33.7366 34.7999 34 34.164 34 33.501V14.501C34.0013 14.1723 33.9376 13.8466 33.8124 13.5427C33.6872 13.2388 33.5031 12.9627 33.2707 12.7303C33.0383 12.4979 32.7622 12.3138 32.4583 12.1886C32.1544 12.0634 31.8287 11.9997 31.5 12.001Z" fill="black"/>
</g>
<defs>
<clipPath id="clip0_6013_51909">
<rect width="48" height="48" fill="white" transform="translate(0 0.000976562)"/>
</clipPath>
</defs>
</svg>
