<svg width="48" height="48" viewBox="0 0 48 48" fill="none" xmlns="http://www.w3.org/2000/svg">
<g clip-path="url(#clip0_6013_51913)">
<path d="M24.0002 48.001C27.7873 48.001 30.8574 46.2101 30.8574 44.001C30.8574 41.7918 27.7873 40.001 24.0002 40.001C20.2131 40.001 17.1431 41.7918 17.1431 44.001C17.1431 46.2101 20.2131 48.001 24.0002 48.001Z" fill="black"/>
<path d="M48 14.001C48 10.2879 45.4714 6.72699 40.9706 4.10148C36.4697 1.47597 30.3652 0.000976563 24 0.000976562C17.6348 0.000976563 11.5303 1.47597 7.02944 4.10148C2.52856 6.72699 0 10.2879 0 14.001C0 15.0618 0.722447 16.0793 2.00841 16.8294C3.29437 17.5795 5.03852 18.001 6.85714 18.001C8.67577 18.001 10.4199 17.5795 11.7059 16.8294C12.9918 16.0793 13.7143 15.0618 13.7143 14.001C13.7143 12.8143 14.3175 11.6543 15.4477 10.6676C16.578 9.68086 18.1844 8.91183 20.0638 8.4577C21.9433 8.00357 24.0114 7.88475 26.0066 8.11627C28.0019 8.34778 29.8346 8.91922 31.2731 9.75834C32.7116 10.5975 33.6912 11.6665 34.0881 12.8304C34.485 13.9943 34.2813 15.2007 33.5028 16.2971C32.7243 17.3934 31.4059 18.3305 29.7144 18.9898C28.023 19.6491 26.0343 20.001 24 20.001C22.1814 20.001 20.4372 20.4224 19.1513 21.1726C17.8653 21.9227 17.1429 22.9401 17.1429 24.001V33.001C17.1429 34.0618 17.8653 35.0793 19.1513 35.8294C20.4372 36.5795 22.1814 37.001 24 37.001C25.8186 37.001 27.5628 36.5795 28.8487 35.8294C30.1347 35.0793 30.8571 34.0618 30.8571 33.001V27.411C35.8055 26.547 40.145 24.7762 43.2327 22.3608C46.3205 19.9454 47.9921 17.014 48 14.001Z" fill="black"/>
</g>
<defs>
<clipPath id="clip0_6013_51913">
<rect width="48" height="48" fill="white" transform="translate(0 0.000976562)"/>
</clipPath>
</defs>
</svg>
