<svg width="48" height="42" viewBox="0 0 48 42" fill="none" xmlns="http://www.w3.org/2000/svg">
<g clip-path="url(#clip0_6013_51917)">
<path d="M16.0002 21.0011C15.9973 19.8756 16.2325 18.7621 16.6904 17.7339C17.1483 16.7057 17.8185 15.786 18.6571 15.0352C19.4956 14.2844 20.4835 13.7194 21.5559 13.3775C22.6282 13.0356 23.7608 12.9243 24.8792 13.0511L31.1652 6.76614C28.813 6.24387 26.4096 5.98726 24.0002 6.00114C14.1682 6.00114 6.08321 9.77614 0.61721 18.8041C0.213575 19.4656 -0.000135055 20.2255 -0.000487844 21.0004C-0.000840633 21.7753 0.212177 22.5353 0.61521 23.1971C2.3278 26.0921 4.56062 28.6456 7.20121 30.7291L16.0512 21.8801C16.0181 21.5883 16.0011 21.2949 16.0002 21.0011ZM47.3842 18.8051C45.6716 15.9102 43.4388 13.3566 40.7982 11.2731L31.9502 20.1211C32.0853 21.3132 31.9499 22.5205 31.5541 23.653C31.1582 24.7856 30.512 25.8143 29.6637 26.6626C28.8154 27.511 27.7866 28.1571 26.6541 28.553C25.5215 28.9489 24.3143 29.0843 23.1222 28.9491L16.8362 35.2351C19.188 35.7577 21.5911 36.0146 24.0002 36.0011C33.8312 36.0011 41.9172 32.2261 47.3842 23.1971C47.7873 22.5356 48.0006 21.7758 48.0006 21.0011C48.0006 20.2264 47.7873 19.4667 47.3842 18.8051ZM5.00021 42.0011C4.60471 42.0011 4.21811 41.8837 3.88929 41.6639C3.56047 41.4442 3.30419 41.1318 3.15285 40.7664C3.00151 40.4011 2.96191 39.999 3.03904 39.6111C3.11618 39.2232 3.30659 38.8668 3.58621 38.5871L41.5862 0.587139C41.7707 0.396119 41.9914 0.243754 42.2354 0.138936C42.4794 0.0341181 42.7418 -0.0210544 43.0074 -0.023362C43.273 -0.0256696 43.5363 0.0249338 43.7821 0.125496C44.0279 0.226057 44.2512 0.374564 44.439 0.562349C44.6268 0.750134 44.7753 0.973438 44.8759 1.21923C44.9764 1.46502 45.027 1.72838 45.0247 1.99394C45.0224 2.2595 44.9672 2.52194 44.8624 2.76595C44.7576 3.00996 44.6052 3.23065 44.4142 3.41514L6.41421 41.4151C6.03922 41.7902 5.5306 42.001 5.00021 42.0011Z" fill="black"/>
</g>
<defs>
<clipPath id="clip0_6013_51917">
<rect width="48" height="42" fill="white" transform="translate(0 0.000976562)"/>
</clipPath>
</defs>
</svg>
