<svg width="48" height="48" viewBox="0 0 48 48" fill="none" xmlns="http://www.w3.org/2000/svg">
<g clip-path="url(#clip0_6013_51920)">
<path d="M46.5 45.001H1.5C1.10218 45.001 0.720644 45.159 0.43934 45.4403C0.158035 45.7216 0 46.1032 0 46.501C0 46.8988 0.158035 47.2803 0.43934 47.5616C0.720644 47.8429 1.10218 48.001 1.5 48.001H46.5C46.8978 48.001 47.2794 47.8429 47.5607 47.5616C47.842 47.2803 48 46.8988 48 46.501C48 46.1032 47.842 45.7216 47.5607 45.4403C47.2794 45.159 46.8978 45.001 46.5 45.001ZM5.5 43.001H42.5C42.8978 43.001 43.2794 42.8429 43.5607 42.5616C43.842 42.2803 44 41.8988 44 41.501C44 41.1032 43.842 40.7216 43.5607 40.4403C43.2794 40.159 42.8978 40.001 42.5 40.001H5.5C5.10218 40.001 4.72064 40.159 4.43934 40.4403C4.15804 40.7216 4 41.1032 4 41.501C4 41.8988 4.15804 42.2803 4.43934 42.5616C4.72064 42.8429 5.10218 43.001 5.5 43.001ZM28 6.00098H26V2.00098C26 1.47054 25.7893 0.961836 25.4142 0.586763C25.0391 0.21169 24.5304 0.000976563 24 0.000976562C23.4696 0.000976563 22.9609 0.21169 22.5858 0.586763C22.2107 0.961836 22 1.47054 22 2.00098V6.00098H20C17.08 9.20098 14.84 13.141 13.75 20.001H34.25C33.16 13.141 30.92 9.20098 28 6.00098ZM21 28.001C21 26.341 24 25.001 24 25.001C24 25.001 27 26.341 27 28.001V38.001H35V31.001C35.0215 27.9943 34.8646 24.989 34.53 22.001H13.47C13.1354 24.989 12.9785 27.9943 13 31.001V38.001H21V28.001ZM42 14.501C42 13.8379 41.7366 13.2021 41.2678 12.7332C40.7989 12.2644 40.163 12.001 39.5 12.001C38.837 12.001 38.2011 12.2644 37.7322 12.7332C37.2634 13.2021 37 13.8379 37 14.501V20.001H42V14.501Z" fill="black"/>
<path d="M37 22.001H42V38.001H37V22.001Z" fill="black"/>
<path d="M11 14.501C11 13.8379 10.7366 13.2021 10.2678 12.7332C9.79893 12.2644 9.16304 12.001 8.5 12.001C7.83696 12.001 7.20107 12.2644 6.73223 12.7332C6.26339 13.2021 6 13.8379 6 14.501V20.001H11V14.501Z" fill="black"/>
<path d="M6 22.001H11V38.001H6V22.001Z" fill="black"/>
</g>
<defs>
<clipPath id="clip0_6013_51920">
<rect width="48" height="48" fill="white" transform="translate(0 0.000976562)"/>
</clipPath>
</defs>
</svg>
