<svg width="48" height="30" viewBox="0 0 48 30" fill="none" xmlns="http://www.w3.org/2000/svg">
<g clip-path="url(#clip0_6013_51926)">
<path d="M48 21.001V27.001C48 27.7966 47.6839 28.5597 47.1213 29.1223C46.5587 29.6849 45.7957 30.001 45 30.001C44.2043 30.001 43.4413 29.6849 42.8787 29.1223C42.3161 28.5597 42 27.7966 42 27.001V25.001H6V27.001C6 27.7966 5.68393 28.5597 5.12132 29.1223C4.55871 29.6849 3.79565 30.001 3 30.001C2.20435 30.001 1.44129 29.6849 0.87868 29.1223C0.31607 28.5597 0 27.7966 0 27.001L0 3.00098C0 2.20533 0.31607 1.44227 0.87868 0.879656C1.44129 0.317047 2.20435 0.000976563 3 0.000976562C3.79565 0.000976563 4.55871 0.317047 5.12132 0.879656C5.68393 1.44227 6 2.20533 6 3.00098V19.001H46C46.5304 19.001 47.0391 19.2117 47.4142 19.5868C47.7893 19.9618 48 20.4705 48 21.001ZM13 8.00098C12.2089 8.00098 11.4355 8.23557 10.7777 8.6751C10.1199 9.11462 9.60723 9.73934 9.30448 10.4702C9.00173 11.2011 8.92252 12.0054 9.07686 12.7813C9.2312 13.5573 9.61216 14.27 10.1716 14.8294C10.731 15.3888 11.4437 15.7698 12.2196 15.9241C12.9956 16.0785 13.7998 15.9992 14.5307 15.6965C15.2616 15.3937 15.8864 14.8811 16.3259 14.2233C16.7654 13.5655 17 12.7921 17 12.001C17 10.9401 16.5786 9.9227 15.8284 9.17255C15.0783 8.4224 14.0609 8.00098 13 8.00098ZM43 8.00098H23C21.9391 8.00098 20.9217 8.4224 20.1716 9.17255C19.4214 9.9227 19 10.9401 19 12.001C19 13.0618 19.4214 14.0793 20.1716 14.8294C20.9217 15.5795 21.9391 16.001 23 16.001H43C44.0609 16.001 45.0783 15.5795 45.8284 14.8294C46.5786 14.0793 47 13.0618 47 12.001C47 10.9401 46.5786 9.9227 45.8284 9.17255C45.0783 8.4224 44.0609 8.00098 43 8.00098Z" fill="black"/>
</g>
<defs>
<clipPath id="clip0_6013_51926">
<rect width="48" height="30" fill="white" transform="translate(0 0.000976562)"/>
</clipPath>
</defs>
</svg>
