<svg width="48" height="48" viewBox="0 0 48 48" fill="none" xmlns="http://www.w3.org/2000/svg">
<g clip-path="url(#clip0_6013_51929)">
<path d="M42 0.000976563C40.4087 0.000976563 38.8826 0.422404 37.7574 1.17255C36.6321 1.92269 36 2.94011 36 4.00098V20.001H12V4.00098C12 2.94011 11.3679 1.92269 10.2426 1.17255C9.11742 0.422404 7.5913 0.000976563 6 0.000976562C4.4087 0.000976563 2.88258 0.422404 1.75736 1.17255C0.632141 1.92269 0 2.94011 0 4.00098L0 44.001C0 45.0618 0.632141 46.0793 1.75736 46.8294C2.88258 47.5795 4.4087 48.001 6 48.001C7.5913 48.001 9.11742 47.5795 10.2426 46.8294C11.3679 46.0793 12 45.0618 12 44.001V28.001H36V44.001C36 45.0618 36.6321 46.0793 37.7574 46.8294C38.8826 47.5795 40.4087 48.001 42 48.001C43.5913 48.001 45.1174 47.5795 46.2426 46.8294C47.3679 46.0793 48 45.0618 48 44.001V4.00098C48 2.94011 47.3679 1.92269 46.2426 1.17255C45.1174 0.422404 43.5913 0.000976563 42 0.000976563Z" fill="black"/>
</g>
<defs>
<clipPath id="clip0_6013_51929">
<rect width="48" height="48" fill="white" transform="translate(0 0.000976562)"/>
</clipPath>
</defs>
</svg>
