<svg width="48" height="48" viewBox="0 0 48 48" fill="none" xmlns="http://www.w3.org/2000/svg">
<g clip-path="url(#clip0_6013_51931)">
<path d="M45 6.00098H3C2.20508 6.00256 1.4434 6.21378 0.881302 6.58851C0.319207 6.96324 0.00237409 7.47103 0 8.00098L0 30.001H48V8.00098C47.9976 7.47103 47.6808 6.96324 47.1187 6.58851C46.5566 6.21378 45.7949 6.00256 45 6.00098ZM16.5 13.001C17.0933 13.001 17.6734 13.1183 18.1667 13.338C18.6601 13.5578 19.0446 13.8702 19.2716 14.2356C19.4987 14.6011 19.5581 15.0032 19.4424 15.3912C19.3266 15.7791 19.0409 16.1355 18.6213 16.4152C18.2018 16.6949 17.6672 16.8854 17.0853 16.9625C16.5033 17.0397 15.9001 17.0001 15.3519 16.8487C14.8038 16.6974 14.3352 16.441 14.0056 16.1121C13.6759 15.7832 13.5 15.3965 13.5 15.001C13.5024 14.471 13.8192 13.9632 14.3813 13.5885C14.9434 13.2138 15.7051 13.0026 16.5 13.001ZM43.5 24.501C43.5 24.8988 43.2629 25.2803 42.841 25.5616C42.419 25.8429 41.8467 26.001 41.25 26.001C40.6533 26.001 40.081 25.8429 39.659 25.5616C39.2371 25.2803 39 24.8988 39 24.501V23.001H9V24.501C9 24.8988 8.76295 25.2803 8.34099 25.5616C7.91903 25.8429 7.34674 26.001 6.75 26.001C6.15326 26.001 5.58097 25.8429 5.15901 25.5616C4.73705 25.2803 4.5 24.8988 4.5 24.501V11.501C4.5 11.1032 4.73705 10.7216 5.15901 10.4403C5.58097 10.159 6.15326 10.001 6.75 10.001C7.34674 10.001 7.91903 10.159 8.34099 10.4403C8.76295 10.7216 9 11.1032 9 11.501V20.001H43.5V24.501ZM43.5 15.141C43.5006 15.3853 43.4288 15.6274 43.2888 15.8532C43.1488 16.0791 42.9433 16.2843 42.6842 16.4571C42.425 16.6299 42.1172 16.7669 41.7784 16.8602C41.4396 16.9535 41.0766 17.0014 40.71 17.001H26.79C26.4234 17.0014 26.0604 16.9535 25.7216 16.8602C25.3828 16.7669 25.075 16.6299 24.8158 16.4571C24.5567 16.2843 24.3512 16.0791 24.2112 15.8532C24.0712 15.6274 23.9994 15.3853 24 15.141V14.861C23.9994 14.6166 24.0712 14.3746 24.2112 14.1487C24.3512 13.9229 24.5567 13.7177 24.8158 13.5449C25.075 13.3721 25.3828 13.2351 25.7216 13.1418C26.0604 13.0484 26.4234 13.0006 26.79 13.001H40.71C41.0766 13.0006 41.4396 13.0484 41.7784 13.1418C42.1172 13.2351 42.425 13.3721 42.6842 13.5449C42.9433 13.7177 43.1488 13.9229 43.2888 14.1487C43.4288 14.3746 43.5006 14.6166 43.5 14.861V15.141ZM9 4.00098H39C39.7957 4.00098 40.5587 3.79026 41.1213 3.41519C41.6839 3.04012 42 2.53141 42 2.00098C42 1.47054 41.6839 0.961836 41.1213 0.586763C40.5587 0.21169 39.7957 0.000976563 39 0.000976562L9 0.000976563C8.20435 0.000976563 7.44129 0.21169 6.87868 0.586763C6.31607 0.961836 6 1.47054 6 2.00098C6 2.53141 6.31607 3.04012 6.87868 3.41519C7.44129 3.79026 8.20435 4.00098 9 4.00098ZM0 48.001H18V38.001C18.0024 37.471 18.3192 36.9632 18.8813 36.5885C19.4434 36.2138 20.2051 36.0026 21 36.001H27C27.7949 36.0026 28.5566 36.2138 29.1187 36.5885C29.6808 36.9632 29.9976 37.471 30 38.001V48.001H48V32.001H0V48.001Z" fill="black"/>
</g>
<defs>
<clipPath id="clip0_6013_51931">
<rect width="48" height="48" fill="white" transform="translate(0 0.000976562)"/>
</clipPath>
</defs>
</svg>
