<svg width="48" height="48" viewBox="0 0 48 48" fill="none" xmlns="http://www.w3.org/2000/svg">
<g clip-path="url(#clip0_6013_51937)">
<path d="M47.81 20.9711L32.64 8.23114C32.4603 8.08147 32.2339 7.99951 32 7.99951C31.7661 7.99951 31.5397 8.08147 31.36 8.23114L24.98 13.5811C26.1507 15.9092 26.8379 18.4503 27 21.0511C27.0253 24.4334 25.9728 27.7358 23.9949 30.4796C22.0171 33.2234 19.2168 35.2659 16 36.3111V47.0011C16.0008 47.2661 16.1064 47.52 16.2938 47.7074C16.4811 47.8947 16.735 48.0003 17 48.0011H28V36.0011C28.0008 35.7362 28.1064 35.4823 28.2938 35.2949C28.4811 35.1075 28.735 35.0019 29 35.0011H35C35.265 35.0019 35.5189 35.1075 35.7062 35.2949C35.8936 35.4823 35.9992 35.7362 36 36.0011V48.0011H48V21.3811C47.9985 21.3033 47.9809 21.2267 47.9482 21.1561C47.9155 21.0855 47.8684 21.0225 47.81 20.9711Z" fill="black"/>
<path d="M23.0002 21.051C22.8937 19.3969 22.4835 17.7765 21.7902 16.271C19.1902 9.98098 13.1802 1.96098 11.7902 0.15098C11.7572 0.104746 11.7137 0.0670524 11.6633 0.0410438C11.6128 0.0150351 11.5569 0.00146484 11.5002 0.00146484C11.4434 0.00146484 11.3875 0.0150351 11.337 0.0410438C11.2866 0.0670524 11.2431 0.104746 11.2102 0.15098C9.42015 2.48098 0.000154524 15.071 0.000154524 21.051C-0.0587616 24.1604 1.11957 27.166 3.27608 29.4069C5.43258 31.6478 8.39074 32.9406 11.5002 33.001C13.05 33.0019 14.5829 32.6783 16.0002 32.051C18.1046 31.0893 19.8855 29.5387 21.1277 27.5867C22.3699 25.6346 23.0202 23.3647 23.0002 21.051ZM11.5002 30.001C10.019 29.9783 8.60739 29.3683 7.57596 28.305C6.54453 27.2417 5.97771 25.8122 6.00015 24.331C6.00015 21.501 10.5102 15.181 11.3602 14.071C11.377 14.0501 11.3984 14.0333 11.4226 14.0217C11.4468 14.0101 11.4733 14.0041 11.5002 14.0041C11.527 14.0041 11.5535 14.0101 11.5777 14.0217C11.602 14.0333 11.6233 14.0501 11.6402 14.071C13.3151 16.3041 14.7907 18.6798 16.0502 21.171V21.181C16.5738 22.1571 16.8969 23.2281 17.0002 24.331C17.0033 25.4905 16.6547 26.6238 16.0002 27.581C15.5062 28.3226 14.8374 28.9313 14.0526 29.3533C13.2678 29.7754 12.3912 29.9978 11.5002 30.001Z" fill="black"/>
</g>
<defs>
<clipPath id="clip0_6013_51937">
<rect width="48" height="48" fill="white" transform="translate(0 0.000976562)"/>
</clipPath>
</defs>
</svg>
