<svg width="48" height="48" viewBox="0 0 48 48" fill="none" xmlns="http://www.w3.org/2000/svg">
<g clip-path="url(#clip0_6013_51948)">
<path d="M10 0.000976563C8.02219 0.000976563 6.08879 0.587466 4.4443 1.68628C2.79981 2.78509 1.51809 4.34688 0.761209 6.17414C0.00433284 8.0014 -0.193701 10.0121 0.192152 11.9519C0.578004 13.8917 1.53041 15.6735 2.92894 17.072C4.32746 18.4706 6.10929 19.423 8.0491 19.8088C9.98891 20.1947 11.9996 19.9966 13.8268 19.2398C15.6541 18.4829 17.2159 17.2012 18.3147 15.5567C19.4135 13.9122 20 11.9788 20 10.001C19.9989 7.34914 18.945 4.80621 17.0699 2.93108C15.1948 1.05595 12.6518 0.00203666 10 0.000976563ZM15.65 7.76098L8.65 13.761C8.46886 13.9159 8.23835 14.001 8 14.001C7.73462 14.0004 7.47993 13.8963 7.29 13.711L4.29 10.711C4.19677 10.6177 4.12281 10.507 4.07234 10.3852C4.02188 10.2634 3.99591 10.1328 3.99591 10.001C3.99591 9.73467 4.1017 9.47928 4.29 9.29098C4.47831 9.10267 4.7337 8.99689 5 8.99689C5.26631 8.99689 5.5217 9.10267 5.71 9.29098L8.05 11.641L14.35 6.24098C14.5516 6.06859 14.8134 5.98333 15.0778 6.00396C15.2087 6.01417 15.3364 6.05007 15.4534 6.10962C15.5705 6.16916 15.6746 6.25117 15.76 6.35098C15.8454 6.45078 15.9102 6.56642 15.9509 6.69129C15.9916 6.81617 16.0072 6.94783 15.997 7.07876C15.9868 7.20969 15.9509 7.33733 15.8914 7.45438C15.8318 7.57144 15.7498 7.67562 15.65 7.76098ZM47.82 22.851L33.64 10.233C33.4603 10.0833 33.2339 10.0014 33 10.0014C32.7662 10.0014 32.5397 10.0833 32.36 10.233L18.18 22.851C18.1257 22.8987 18.0817 22.957 18.0507 23.0224C18.0198 23.0877 18.0025 23.1587 18 23.231V48.001H29V38.001C29 37.4705 29.2107 36.9618 29.5858 36.5868C29.9609 36.2117 30.4696 36.001 31 36.001H35C35.5304 36.001 36.0391 36.2117 36.4142 36.5868C36.7893 36.9618 37 37.4705 37 38.001V48.001H48V23.231C47.9975 23.1587 47.9803 23.0877 47.9493 23.0224C47.9183 22.957 47.8743 22.8987 47.82 22.851Z" fill="black"/>
</g>
<defs>
<clipPath id="clip0_6013_51948">
<rect width="48" height="48" fill="white" transform="translate(0 0.000976562)"/>
</clipPath>
</defs>
</svg>
