<svg width="48" height="44" viewBox="0 0 48 44" fill="none" xmlns="http://www.w3.org/2000/svg">
<g clip-path="url(#clip0_6013_51951)">
<path d="M24.8853 0.254221C24.6413 0.0917089 24.3263 0.00195313 24 0.00195312C23.6737 0.00195312 23.3587 0.0917089 23.1147 0.254221L0.437333 15.7032C0.299695 15.7969 0.189689 15.9111 0.114375 16.0386C0.0390608 16.166 0.000102461 16.3038 0 16.4432L0 44.0012H18.6667V34.0012C18.6688 33.4713 18.9504 32.9635 19.45 32.5888C19.9497 32.214 20.6267 32.0028 21.3333 32.0012H26.6667C27.3733 32.0028 28.0503 32.214 28.55 32.5888C29.0496 32.9635 29.3312 33.4713 29.3333 34.0012V44.0012H48V16.4442C47.9999 16.3048 47.9609 16.167 47.8856 16.0396C47.8103 15.9121 47.7003 15.7979 47.5627 15.7042L24.8853 0.254221Z" fill="black"/>
</g>
<defs>
<clipPath id="clip0_6013_51951">
<rect width="48" height="44" fill="white" transform="translate(0 0.000976562)"/>
</clipPath>
</defs>
</svg>
