<svg width="48" height="48" viewBox="0 0 48 48" fill="none" xmlns="http://www.w3.org/2000/svg">
<g clip-path="url(#clip0_6013_51941)">
<path d="M10 0.000976563C8.02219 0.000976563 6.08879 0.587466 4.4443 1.68628C2.79981 2.78509 1.51809 4.34688 0.761209 6.17414C0.00433284 8.0014 -0.193701 10.0121 0.192152 11.9519C0.578004 13.8917 1.53041 15.6735 2.92894 17.072C4.32746 18.4706 6.10929 19.423 8.0491 19.8088C9.98891 20.1947 11.9996 19.9966 13.8268 19.2398C15.6541 18.4829 17.2159 17.2012 18.3147 15.5567C19.4135 13.9122 20 11.9788 20 10.001C19.9989 7.34914 18.945 4.80621 17.0699 2.93108C15.1948 1.05595 12.6518 0.00203666 10 0.000976563ZM14.71 13.291C14.8969 13.48 15.0017 13.7351 15.0017 14.001C15.0017 14.2668 14.8969 14.5219 14.71 14.711C14.5204 14.8969 14.2655 15.001 14 15.001C13.7345 15.001 13.4796 14.8969 13.29 14.711L10 11.421L6.71 14.711C6.52044 14.8969 6.26552 15.001 6 15.001C5.73449 15.001 5.47957 14.8969 5.29 14.711C5.10314 14.5219 4.99834 14.2668 4.99834 14.001C4.99834 13.7351 5.10314 13.48 5.29 13.291L8.58 10.001L5.29 6.71098C5.1017 6.52267 4.99591 6.26728 4.99591 6.00098C4.99591 5.73467 5.1017 5.47928 5.29 5.29098C5.47831 5.10267 5.7337 4.99688 6 4.99688C6.26631 4.99688 6.5217 5.10267 6.71 5.29098L10 8.58098L13.29 5.29098C13.3832 5.19774 13.4939 5.12378 13.6158 5.07332C13.7376 5.02286 13.8681 4.99688 14 4.99688C14.1319 4.99688 14.2624 5.02286 14.3843 5.07332C14.5061 5.12378 14.6168 5.19774 14.71 5.29098C14.8032 5.38421 14.8772 5.49491 14.9277 5.61673C14.9781 5.73855 15.0041 5.86912 15.0041 6.00098C15.0041 6.13284 14.9781 6.2634 14.9277 6.38523C14.8772 6.50705 14.8032 6.61774 14.71 6.71098L11.42 10.001L14.71 13.291ZM47.82 22.851L33.64 10.233C33.4603 10.0833 33.2339 10.0014 33 10.0014C32.7662 10.0014 32.5397 10.0833 32.36 10.233L18.18 22.851C18.1257 22.8987 18.0817 22.957 18.0507 23.0224C18.0198 23.0877 18.0025 23.1587 18 23.231V48.001H29V38.001C29 37.4705 29.2107 36.9618 29.5858 36.5868C29.9609 36.2117 30.4696 36.001 31 36.001H35C35.5304 36.001 36.0391 36.2117 36.4142 36.5868C36.7893 36.9618 37 37.4705 37 38.001V48.001H48V23.231C47.9975 23.1587 47.9803 23.0877 47.9493 23.0224C47.9183 22.957 47.8743 22.8987 47.82 22.851Z" fill="black"/>
</g>
<defs>
<clipPath id="clip0_6013_51941">
<rect width="48" height="48" fill="white" transform="translate(0 0.000976562)"/>
</clipPath>
</defs>
</svg>
