<svg width="48" height="48" viewBox="0 0 48 48" fill="none" xmlns="http://www.w3.org/2000/svg">
<g clip-path="url(#clip0_6013_51934)">
<path d="M10 0.000976563C8.02219 0.000976563 6.08879 0.587466 4.4443 1.68628C2.79981 2.78509 1.51809 4.34688 0.761209 6.17414C0.00433284 8.0014 -0.193701 10.0121 0.192152 11.9519C0.578004 13.8917 1.53041 15.6735 2.92894 17.072C4.32746 18.4706 6.10929 19.423 8.0491 19.8088C9.98891 20.1947 11.9996 19.9966 13.8268 19.2398C15.6541 18.4829 17.2159 17.2012 18.3147 15.5567C19.4135 13.9122 20 11.9788 20 10.001C19.9989 7.34914 18.945 4.80621 17.0699 2.93108C15.1948 1.05595 12.6518 0.00203666 10 0.000976563ZM10 17.001C9.80222 17.001 9.60888 16.9423 9.44443 16.8324C9.27999 16.7226 9.15181 16.5664 9.07613 16.3837C9.00044 16.2009 8.98063 15.9999 9.01922 15.8059C9.05781 15.6119 9.15305 15.4337 9.2929 15.2939C9.43275 15.154 9.61093 15.0588 9.80491 15.0202C9.9989 14.9816 10.2 15.0014 10.3827 15.0771C10.5654 15.1528 10.7216 15.281 10.8315 15.4454C10.9414 15.6099 11 15.8032 11 16.001C10.9992 16.2659 10.8936 16.5198 10.7062 16.7072C10.5189 16.8946 10.265 17.0002 10 17.001ZM11 12.001C11 12.2662 10.8946 12.5205 10.7071 12.7081C10.5196 12.8956 10.2652 13.001 10 13.001C9.73479 13.001 9.48043 12.8956 9.2929 12.7081C9.10536 12.5205 9 12.2662 9 12.001V4.00098C9 3.73576 9.10536 3.48141 9.2929 3.29387C9.48043 3.10633 9.73479 3.00098 10 3.00098C10.2652 3.00098 10.5196 3.10633 10.7071 3.29387C10.8946 3.48141 11 3.73576 11 4.00098V12.001ZM47.82 22.851L33.64 10.233C33.4603 10.0833 33.2339 10.0014 33 10.0014C32.7662 10.0014 32.5397 10.0833 32.36 10.233L18.18 22.851C18.1257 22.8987 18.0817 22.957 18.0507 23.0224C18.0198 23.0877 18.0025 23.1587 18 23.231V48.001H29V38.001C29 37.4705 29.2107 36.9618 29.5858 36.5868C29.9609 36.2117 30.4696 36.001 31 36.001H35C35.5304 36.001 36.0391 36.2117 36.4142 36.5868C36.7893 36.9618 37 37.4705 37 38.001V48.001H48V23.231C47.9975 23.1587 47.9803 23.0877 47.9493 23.0224C47.9183 22.957 47.8743 22.8987 47.82 22.851Z" fill="black"/>
</g>
<defs>
<clipPath id="clip0_6013_51934">
<rect width="48" height="48" fill="white" transform="translate(0 0.000976562)"/>
</clipPath>
</defs>
</svg>
