<svg width="48" height="48" viewBox="0 0 48 48" fill="none" xmlns="http://www.w3.org/2000/svg">
<g clip-path="url(#clip0_6013_51944)">
<path d="M10 5.00098C9.20516 5.00361 8.44363 5.32053 7.88159 5.88257C7.31955 6.44461 7.00264 7.20614 7 8.00098H13C12.9974 7.20614 12.6804 6.44461 12.1184 5.88257C11.5564 5.32053 10.7948 5.00361 10 5.00098ZM47.82 22.851L33.64 10.231C33.4603 10.0813 33.2339 9.99935 33 9.99935C32.7661 9.99935 32.5397 10.0813 32.36 10.231L18.18 22.851C18.1257 22.8987 18.0817 22.957 18.0507 23.0224C18.0197 23.0877 18.0025 23.1587 18 23.231V48.001H29V38.001C29.0016 37.471 29.2128 36.9632 29.5875 36.5885C29.9623 36.2138 30.4701 36.0026 31 36.001H35C35.5299 36.0026 36.0377 36.2138 36.4125 36.5885C36.7872 36.9632 36.9984 37.471 37 38.001V48.001H48V23.231C47.9975 23.1587 47.9803 23.0877 47.9493 23.0224C47.9183 22.957 47.8743 22.8987 47.82 22.851Z" fill="black"/>
<path d="M10 0.000976563C8.02219 0.000976563 6.08879 0.587466 4.4443 1.68628C2.79981 2.78509 1.51809 4.34688 0.761209 6.17414C0.00433284 8.0014 -0.193701 10.0121 0.192152 11.9519C0.578004 13.8917 1.53041 15.6735 2.92894 17.072C4.32746 18.4706 6.10929 19.423 8.0491 19.8088C9.98891 20.1947 11.9996 19.9966 13.8268 19.2398C15.6541 18.4829 17.2159 17.2012 18.3147 15.5567C19.4135 13.9122 20 11.9788 20 10.001C19.9989 7.34914 18.945 4.80621 17.0699 2.93108C15.1948 1.05595 12.6518 0.00203666 10 0.000976563ZM15 14.001C14.9984 14.5309 14.7872 15.0387 14.4125 15.4134C14.0377 15.7882 13.53 15.9994 13 16.001H7C6.47006 15.9994 5.96227 15.7882 5.58754 15.4134C5.21281 15.0387 5.00159 14.5309 5 14.001V8.00098C5 6.67489 5.52679 5.40312 6.46447 4.46544C7.40215 3.52776 8.67392 3.00098 10 3.00098C11.3261 3.00098 12.5979 3.52776 13.5355 4.46544C14.4732 5.40312 15 6.67489 15 8.00098V14.001Z" fill="black"/>
<path d="M11 10.001H9C8.44772 10.001 8 10.4487 8 11.001V13.001C8 13.5533 8.44772 14.001 9 14.001H11C11.5523 14.001 12 13.5533 12 13.001V11.001C12 10.4487 11.5523 10.001 11 10.001Z" fill="black"/>
</g>
<defs>
<clipPath id="clip0_6013_51944">
<rect width="48" height="48" fill="white" transform="translate(0 0.000976562)"/>
</clipPath>
</defs>
</svg>
