<svg width="48" height="48" viewBox="0 0 48 48" fill="none" xmlns="http://www.w3.org/2000/svg">
<g clip-path="url(#clip0_6013_51957)">
<path d="M38.1015 32.121L37.9115 31.881C35.924 35.3921 32.6847 38.0241 28.841 39.251C28.2606 39.4368 27.6695 39.5871 27.0708 39.701H27.0608C26.2893 39.8556 25.5069 39.9492 24.7207 39.981L25.2507 39.561C25.5737 39.3019 25.8083 38.9489 25.9221 38.5508C26.036 38.1527 26.0234 37.7291 25.8863 37.3384C25.7491 36.9477 25.494 36.6093 25.1563 36.3697C24.8185 36.1301 24.4147 36.0013 24.0006 36.001C23.5456 35.9989 23.1039 36.1544 22.7506 36.441L19.2103 39.271L17.7503 40.441C17.5164 40.6282 17.3275 40.8656 17.1977 41.1357C17.0679 41.4057 17.0004 41.7014 17.0002 42.001C17.0012 42.2765 17.059 42.5489 17.1702 42.801C17.3041 43.0946 17.5023 43.3544 17.7503 43.561L22.7506 47.561C23.1039 47.8476 23.5456 48.0031 24.0006 48.001C24.4147 48.0007 24.8185 47.8718 25.1563 47.6323C25.494 47.3927 25.7491 47.0543 25.8863 46.6636C26.0234 46.2729 26.036 45.8493 25.9221 45.4512C25.8083 45.0531 25.5737 44.7001 25.2507 44.441L24.6807 43.981C25.3671 43.9698 26.052 43.913 26.7308 43.811C27.2709 43.741 27.8109 43.641 28.3409 43.521C31.0531 42.9144 33.6095 41.7504 35.8476 40.1029C38.0857 38.4553 39.9567 36.3604 41.3417 33.951C40.0623 33.7929 38.8975 33.135 38.1015 32.121ZM9.89877 15.881L10.0888 16.121C12.0763 12.6099 15.3156 9.97789 19.1593 8.751C19.7397 8.56519 20.3308 8.41491 20.9295 8.301H20.9395C21.711 8.14644 22.4934 8.05282 23.2796 8.021L22.7496 8.441C22.4266 8.70011 22.192 9.05307 22.0781 9.45118C21.9643 9.84929 21.9768 10.2729 22.114 10.6636C22.2512 11.0543 22.5063 11.3927 22.844 11.6323C23.1818 11.8718 23.5856 12.0007 23.9996 12.001C24.4547 12.0031 24.8963 11.8476 25.2497 11.561L28.7899 8.731L30.25 7.561C30.4839 7.37375 30.6728 7.13635 30.8026 6.86634C30.9324 6.59632 30.9999 6.30059 31.0001 6.001C30.9991 5.72547 30.9412 5.45311 30.8301 5.201C30.6962 4.90734 30.498 4.64759 30.25 4.441L25.2497 0.440997C24.8963 0.154385 24.4547 -0.00108309 23.9996 0.000997171C23.5856 0.00131978 23.1818 0.130148 22.844 0.369703C22.5063 0.609258 22.2512 0.947729 22.114 1.33841C21.9768 1.72908 21.9643 2.15271 22.0781 2.55082C22.192 2.94892 22.4266 3.30189 22.7496 3.561L23.3196 4.021C22.6332 4.03221 21.9483 4.089 21.2695 4.191C20.7294 4.261 20.1894 4.361 19.6594 4.481C16.9408 5.08794 14.3787 6.25517 12.1367 7.90815C9.89468 9.56113 8.02211 11.6635 6.63856 14.081C7.92086 14.2254 9.09342 14.8728 9.89877 15.881ZM8.74869 28.841C8.32935 27.5047 8.08398 26.12 8.01865 24.721L8.43867 25.251C8.62545 25.4854 8.86276 25.6746 9.1329 25.8045C9.40304 25.9344 9.69903 26.0015 9.99877 26.001C10.4538 26.0031 10.8955 25.8476 11.2489 25.561C11.6624 25.2293 11.9273 24.7471 11.9855 24.2202C12.0436 23.6933 11.8902 23.1648 11.5589 22.751L8.72869 19.211L7.55862 17.751C7.36745 17.5244 7.1283 17.3432 6.85849 17.2204C6.58867 17.0976 6.29493 17.0363 5.99852 17.041C5.72058 17.0402 5.44524 17.0946 5.18847 17.201C4.89591 17.3179 4.63783 17.5071 4.43843 17.751L0.438175 22.751C0.106885 23.1648 -0.0465513 23.6933 0.0115799 24.2202C0.0697111 24.7471 0.334655 25.2293 0.748195 25.561C1.10157 25.8476 1.54327 26.0031 1.99827 26.001C2.29801 26.0015 2.594 25.9344 2.86414 25.8045C3.13428 25.6746 3.3716 25.4854 3.55837 25.251L4.0184 24.681C4.02961 25.3673 4.08641 26.0522 4.18841 26.731C4.25841 27.271 4.35842 27.811 4.47843 28.341C5.08507 31.053 6.24917 33.6092 7.89679 35.8472C9.5444 38.0852 11.6395 39.9561 14.049 41.341C14.2072 40.0617 14.8651 38.8969 15.8791 38.101L16.1192 37.911C12.6078 35.9236 9.97566 32.6845 8.74869 28.841ZM47.2511 22.441C46.8977 22.1544 46.456 21.9989 46.001 22.001C45.7013 22.0005 45.4053 22.0676 45.1352 22.1975C44.865 22.3274 44.6277 22.5166 44.4409 22.751L43.9809 23.321C43.9697 22.6347 43.9129 21.9498 43.8109 21.271C43.7409 20.731 43.6409 20.191 43.5209 19.661C42.9142 16.949 41.7501 14.3928 40.1025 12.1548C38.4549 9.91678 36.3598 8.0459 33.9503 6.661C33.7921 7.9403 33.1342 9.10508 32.1202 9.901L31.8801 10.091C35.3915 12.0784 38.0236 15.3175 39.2506 19.161C39.6699 20.4973 39.9153 21.882 39.9806 23.281L39.5606 22.751C39.3738 22.5166 39.1365 22.3274 38.8664 22.1975C38.5963 22.0676 38.3003 22.0005 38.0005 22.001C37.5455 21.9989 37.1038 22.1544 36.7504 22.441C36.3369 22.7727 36.072 23.2549 36.0138 23.7818C35.9557 24.3087 36.1091 24.8372 36.4404 25.251L39.2706 28.791L40.4407 30.251C40.6279 30.4849 40.8653 30.6737 41.1354 30.8035C41.4054 30.9333 41.7012 31.0008 42.0008 31.001C42.2763 31 42.5487 30.9422 42.8008 30.831C43.0947 30.6974 43.3545 30.4992 43.5609 30.251L47.5611 25.251C47.8924 24.8372 48.0458 24.3087 47.9877 23.7818C47.9296 23.2549 47.6646 22.7727 47.2511 22.441Z" fill="black"/>
</g>
<defs>
<clipPath id="clip0_6013_51957">
<rect width="48" height="48" fill="white" transform="translate(0 0.000976562)"/>
</clipPath>
</defs>
</svg>
