<svg width="48" height="48" viewBox="0 0 48 48" fill="none" xmlns="http://www.w3.org/2000/svg">
<g clip-path="url(#clip0_6013_51953)">
<path d="M43.42 32.001H43V29.001C43 27.6749 42.4732 26.4031 41.5355 25.4654C40.5979 24.5278 39.3261 24.001 38 24.001H33V21.011C32.9992 20.2129 32.6818 19.4478 32.1175 18.8835C31.5532 18.3192 30.7881 18.0018 29.99 18.001H3.01C2.21194 18.0018 1.4468 18.3192 0.882486 18.8835C0.318173 19.4478 0.00079422 20.2129 0 21.011L0 44.001H5C4.99737 43.001 5.24597 42.0164 5.72297 41.1375C6.19998 40.2586 6.8901 39.5137 7.73 38.971C8.63554 38.3824 9.68317 38.0491 10.7624 38.0063C11.8415 37.9635 12.9123 38.2128 13.8615 38.7279C14.8108 39.243 15.6035 40.0048 16.1559 40.9329C16.7083 41.861 16.9999 42.9209 17 44.001H29C29 42.4097 29.6321 40.8836 30.7574 39.7583C31.8826 38.6331 33.4087 38.001 35 38.001C36.5913 38.001 38.1174 38.6331 39.2426 39.7583C40.3679 40.8836 41 42.4097 41 44.001H46.47C46.6711 44.0018 46.8705 43.9627 47.0564 43.8861C47.2424 43.8095 47.4114 43.6968 47.5536 43.5546C47.6959 43.4124 47.8085 43.2434 47.8852 43.0574C47.9618 42.8714 48.0008 42.6721 48 42.471V36.581C48 35.3663 47.5175 34.2013 46.6586 33.3424C45.7996 32.4835 44.6347 32.001 43.42 32.001ZM40 32.001H33V27.001H37.11C37.4897 27.0003 37.8658 27.0746 38.2167 27.2196C38.5677 27.3646 38.8865 27.5775 39.155 27.846C39.4235 28.1145 39.6363 28.4333 39.7814 28.7842C39.9264 29.1352 40.0007 29.5113 40 29.891V32.001Z" fill="black"/>
<path d="M11 40.0011C10.2089 40.0011 9.43552 40.2357 8.77772 40.6752C8.11992 41.1147 7.60723 41.7394 7.30448 42.4703C7.00173 43.2012 6.92252 44.0055 7.07686 44.7814C7.2312 45.5574 7.61216 46.2701 8.17157 46.8295C8.73098 47.3889 9.44372 47.7699 10.2196 47.9242C10.9956 48.0785 11.7998 47.9993 12.5307 47.6966C13.2616 47.3938 13.8864 46.8811 14.3259 46.2233C14.7654 45.5656 15 44.7922 15 44.0011C15.0013 43.4754 14.8988 42.9547 14.6982 42.4688C14.4977 41.9829 14.2031 41.5414 13.8314 41.1697C13.4597 40.798 13.0182 40.5034 12.5323 40.3029C12.0464 40.1023 11.5257 39.9997 11 40.0011ZM35 40.0011C34.2089 40.0011 33.4355 40.2357 32.7777 40.6752C32.1199 41.1147 31.6072 41.7394 31.3045 42.4703C31.0017 43.2012 30.9225 44.0055 31.0769 44.7814C31.2312 45.5574 31.6122 46.2701 32.1716 46.8295C32.731 47.3889 33.4437 47.7699 34.2196 47.9242C34.9956 48.0785 35.7998 47.9993 36.5307 47.6966C37.2616 47.3938 37.8864 46.8811 38.3259 46.2233C38.7654 45.5656 39 44.7922 39 44.0011C39.0013 43.4754 38.8988 42.9547 38.6982 42.4688C38.4977 41.9829 38.2031 41.5414 37.8314 41.1697C37.4597 40.798 37.0182 40.5034 36.5323 40.3029C36.0464 40.1023 35.5257 39.9997 35 40.0011ZM1.5 10.0011H42.752L38.402 14.3511C38.2579 14.4952 38.1435 14.6663 38.0655 14.8546C37.9875 15.0429 37.9474 15.2447 37.9474 15.4486C37.9474 15.6524 37.9875 15.8542 38.0655 16.0425C38.1435 16.2308 38.2579 16.4019 38.402 16.5461C38.5461 16.6902 38.7172 16.8045 38.9055 16.8825C39.0938 16.9605 39.2957 17.0007 39.4995 17.0007C39.7033 17.0007 39.9052 16.9605 40.0935 16.8825C40.2818 16.8045 40.4529 16.6902 40.597 16.5461L47.545 9.59906C47.6894 9.45508 47.8039 9.28402 47.8821 9.09569C47.9602 8.90736 48.0005 8.70547 48.0005 8.50156C48.0005 8.29766 47.9602 8.09576 47.8821 7.90743C47.8039 7.71911 47.6894 7.54805 47.545 7.40406L40.597 0.456064C40.4529 0.311938 40.2818 0.197612 40.0935 0.119611C39.9052 0.0416111 39.7033 0.00146484 39.4995 0.00146484C39.2957 0.00146484 39.0938 0.0416111 38.9055 0.119611C38.7172 0.197612 38.5461 0.311938 38.402 0.456064C38.2579 0.60019 38.1435 0.771292 38.0655 0.959602C37.9875 1.14791 37.9474 1.34974 37.9474 1.55356C37.9474 1.75739 37.9875 1.95922 38.0655 2.14753C38.1435 2.33584 38.2579 2.50694 38.402 2.65106L42.752 7.00106H1.5C1.10218 7.00106 0.720644 7.1591 0.43934 7.4404C0.158035 7.72171 0 8.10324 0 8.50106C0 8.89889 0.158035 9.28042 0.43934 9.56172C0.720644 9.84303 1.10218 10.0011 1.5 10.0011Z" fill="black"/>
</g>
<defs>
<clipPath id="clip0_6013_51953">
<rect width="48" height="48" fill="white" transform="translate(0 0.000976562)"/>
</clipPath>
</defs>
</svg>
