<svg width="48" height="48" viewBox="0 0 48 48" fill="none" xmlns="http://www.w3.org/2000/svg">
<g clip-path="url(#clip0_6013_51960)">
<path d="M45.6701 12.6686C45.6444 12.4693 45.5789 12.2772 45.4776 12.1037C45.3762 11.9302 45.241 11.7788 45.0801 11.6585L30.5001 0.338062C30.2127 0.119083 29.8614 0.000488281 29.5001 0.000488281C29.1388 0.000488281 28.7874 0.119083 28.5001 0.338062L13.9201 11.6585C13.7591 11.7788 13.6239 11.9302 13.5226 12.1037C13.4212 12.2772 13.3557 12.4693 13.3301 12.6686L12.5601 18.3688L15.6601 15.9687C16.4731 15.3394 17.472 14.998 18.5001 14.998C19.5281 14.998 20.5271 15.3394 21.3401 15.9687L27.0001 20.3689L29.0001 21.919L31.6901 24.009L32.9701 24.9991L35.8901 27.2692C36.7809 27.9321 37.3882 28.9073 37.5901 29.9993H48.0001L45.6701 12.6686Z" fill="black"/>
<path d="M34.08 29.6591L29 25.7189L28.08 24.9989L27 24.1589L19.5 18.3386C19.2148 18.1153 18.8622 17.9955 18.5 17.9986C18.1378 17.9955 17.7852 18.1153 17.5 18.3386L11.99 22.6188L2.92 29.6591C2.75902 29.7793 2.62385 29.9307 2.52249 30.1042C2.42114 30.2777 2.35568 30.4698 2.33 30.6691L0 47.9998H18V38.2894C18 38.2505 18.0078 38.212 18.023 38.1761C18.0382 38.1402 18.0604 38.1078 18.0884 38.0807C18.1164 38.0537 18.1496 38.0325 18.1859 38.0186C18.2223 38.0046 18.2611 37.9981 18.3 37.9994C18.3527 37.9994 18.4045 38.0132 18.4501 38.0396C18.4958 38.0659 18.5337 38.1038 18.56 38.1494L24 47.9998H37L34.67 30.6691C34.6443 30.4698 34.5789 30.2777 34.4775 30.1042C34.3762 29.9307 34.241 29.7793 34.08 29.6591Z" fill="black"/>
</g>
<defs>
<clipPath id="clip0_6013_51960">
<rect width="48" height="48" fill="white" transform="translate(0 0.000976562)"/>
</clipPath>
</defs>
</svg>
