<svg width="48" height="48" viewBox="0 0 48 48" fill="none" xmlns="http://www.w3.org/2000/svg">
<g clip-path="url(#clip0_6013_51964)">
<path d="M9 4.00098C9 1.80098 10.8 0.000976562 13 0.000976562C15.2 0.000976562 17 1.80098 17 4.00098C17 6.20098 15.2 8.00098 13 8.00098C10.8 8.00098 9 6.20098 9 4.00098ZM33.5 27.801L39.2 33.401C39.9 34.101 41.1 34.101 41.8 33.401L47.4 27.901C48 27.301 48.1 26.301 47.7 25.601C47.2 24.901 46.1 24.701 45.4 25.301C45.3 25.301 45.3 25.401 45.2 25.501L42 28.301V15.701C42.1 14.901 41.5 14.101 40.7 14.001C39.9 13.901 39.1 14.501 39 15.301V28.201L35.8 25.401C35.2 24.701 34.1 24.701 33.4 25.401C32.8 26.101 32.8 27.201 33.5 27.801ZM47.9 47.101C47.7 47.601 47.2 48.001 46.7 48.001H1.3C0.8 47.901 0.3 47.601 0.1 47.101C0 46.901 0 46.701 0 46.501C0.1 45.901 0.5 45.401 1 45.301C1.2 45.201 2.6 44.801 4.9 44.301C5.8 44.001 6.8 43.801 8 43.601V15.301C5.5 16.601 3.9 19.201 4 22.001C4 23.101 3.1 24.001 2 24.001C0.9 24.001 0 23.101 0 22.001C0 15.201 5.6 10.001 13 10.001C20.4 10.001 26 15.201 26 22.001C26 23.101 25.1 24.001 24 24.001C22.9 24.001 22 23.101 22 22.001C22.1 19.201 20.5 16.601 18 15.301V42.301C26.5 41.601 35.1 42.301 43.4 44.301C44.6 44.601 45.8 44.901 47 45.301H47.1C47.8 45.601 48.2 46.401 47.9 47.101ZM14 31.001H12V42.901C12.3 42.901 13 42.801 14 42.701V31.001Z" fill="black"/>
</g>
<defs>
<clipPath id="clip0_6013_51964">
<rect width="48" height="48" fill="white" transform="translate(0 0.000976562)"/>
</clipPath>
</defs>
</svg>
