<svg width="48" height="41" viewBox="0 0 48 41" fill="none" xmlns="http://www.w3.org/2000/svg">
<g clip-path="url(#clip0_6013_51966)">
<path d="M24 11.0713C10.766 11.0713 0 16.0378 0 22.1415C0 22.6753 0.421427 23.1873 1.17157 23.5647C1.92172 23.9422 2.93913 24.1543 4 24.1543C5.06087 24.1543 6.07828 23.9422 6.82843 23.5647C7.57857 23.1873 8 22.6753 8 22.1415C8.01899 21.0498 8.57733 19.9777 9.62473 19.0216C10.6721 18.0656 12.1757 17.2556 14 16.6648V23.1479H34V16.6648C35.8243 17.2556 37.3279 18.0656 38.3753 19.0216C39.4227 19.9777 39.981 21.0498 40 22.1415C40 22.6753 40.4214 23.1873 41.1716 23.5647C41.9217 23.9422 42.9391 24.1543 44 24.1543C45.0609 24.1543 46.0783 23.9422 46.8284 23.5647C47.5786 23.1873 48 22.6753 48 22.1415C48 16.0378 37.234 11.0713 24 11.0713Z" fill="black"/>
<path d="M24 9.05841C28.9706 9.05841 33 7.03084 33 4.5297C33 2.02855 28.9706 0.000976562 24 0.000976562C19.0294 0.000976562 15 2.02855 15 4.5297C15 7.03084 19.0294 9.05841 24 9.05841Z" fill="black"/>
<path d="M18.2802 37.3376C16.8969 36.8529 15.78 36.1998 15.0334 35.4394C14.2869 34.6789 13.9349 33.8357 14.0104 32.9884C14.0858 32.141 14.5863 31.3171 15.465 30.5933C16.3438 29.8695 17.5723 29.2693 19.0362 28.8488C19.1036 28.8306 19.1616 28.8048 19.2056 28.7734C19.2497 28.7419 19.2785 28.7058 19.2897 28.6677C19.301 28.6297 19.2944 28.5908 19.2706 28.5543C19.2467 28.5178 19.2061 28.4845 19.1522 28.4573L14.0882 25.9091C14.0017 25.8663 13.8882 25.8401 13.7673 25.8349C13.6464 25.8298 13.5257 25.8461 13.4262 25.881C11.1147 26.7246 9.23552 27.833 7.94421 29.1145C6.6529 30.396 5.98653 31.8138 6.00021 33.2506C6.01389 34.6875 6.70723 36.102 8.02289 37.3773C9.33854 38.6525 11.2387 39.7518 13.5662 40.5842C14.3635 40.8754 15.3418 41.0132 16.3237 40.9725C17.3056 40.9319 18.226 40.7156 18.9182 40.3628C19.311 40.1523 19.6089 39.9016 19.7917 39.6279C19.9744 39.3541 20.0377 39.0638 19.9771 38.7766C19.9166 38.4895 19.7336 38.2123 19.4408 37.9639C19.1479 37.7156 18.752 37.502 18.2802 37.3376ZM34.5742 25.881C34.4748 25.8463 34.3545 25.8302 34.2341 25.8353C34.1136 25.8405 34.0005 25.8666 33.9142 25.9091L28.8482 28.4573C28.7942 28.4845 28.7537 28.5178 28.7298 28.5543C28.7059 28.5908 28.6993 28.6297 28.7106 28.6677C28.7219 28.7058 28.7507 28.7419 28.7947 28.7734C28.8387 28.8048 28.8968 28.8306 28.9642 28.8488C30.428 29.2693 31.6565 29.8695 32.5353 30.5933C33.4141 31.3171 33.9145 32.141 33.99 32.9884C34.0654 33.8357 33.7135 34.6789 32.9669 35.4394C32.2203 36.1998 31.1034 36.8529 29.7202 37.3376C29.0228 37.5825 28.4988 37.9329 28.2241 38.3379C27.9494 38.7428 27.9383 39.1813 28.1924 39.5896C28.4466 39.998 28.9528 40.355 29.6375 40.6087C30.3222 40.8625 31.1498 40.9998 32.0002 41.0008C32.8154 40.9986 33.6102 40.8723 34.2802 40.6385C36.6378 39.8139 38.5689 38.7171 39.9118 37.4401C41.2547 36.163 41.9705 34.7427 41.9992 33.2979C42.028 31.8532 41.369 30.426 40.0772 29.1356C38.7854 27.8452 36.8985 26.7293 34.5742 25.881Z" fill="black"/>
</g>
<defs>
<clipPath id="clip0_6013_51966">
<rect width="48" height="41" fill="white" transform="translate(0 0.000976562)"/>
</clipPath>
</defs>
</svg>
