<svg width="48" height="48" viewBox="0 0 48 48" fill="none" xmlns="http://www.w3.org/2000/svg">
<g clip-path="url(#clip0_6013_51971)">
<path d="M0 0.000976562H18.1622V7.00098H0V0.000976562ZM1.2973 9.00098H16.8649V42.001C16.8649 45.301 13.3622 48.001 9.08108 48.001C4.8 48.001 1.2973 45.301 1.2973 42.001V9.00098ZM5.18919 28.001H12.973V17.001H5.18919V28.001ZM48 27.501C48 28.301 47.0919 29.001 46.0541 29.001H45.7946L42.0324 28.701C41.773 29.301 41.3838 29.801 40.8649 30.301L42.2919 31.601C42.9405 32.201 42.9405 33.201 42.0324 33.701C41.2541 34.201 39.9568 34.201 39.3081 33.501L37.8811 32.201C37.1027 32.501 36.1946 32.801 35.1568 32.901L35.027 34.701C34.8973 35.501 34.1189 36.001 33.0811 36.001H32.8216C31.7838 35.901 31.0054 35.201 31.1351 34.301L31.3946 32.701C30.227 32.501 29.1892 32.101 28.2811 31.601L26.4649 32.701C25.5568 33.201 24.3892 33.101 23.7405 32.401C23.0919 31.701 23.2216 30.801 24.1297 30.301L25.8162 29.301C25.2973 28.601 25.0378 27.901 24.9081 27.201L22.4432 27.001C21.4054 26.901 20.627 26.201 20.7568 25.301C20.8865 24.501 21.7946 23.901 22.9622 24.001L25.0378 24.201C25.2973 23.401 25.8162 22.601 26.4649 21.901L23.8703 19.501C23.2216 18.901 23.2216 17.901 24.1297 17.401C24.9081 16.901 26.2054 16.901 26.8541 17.601L29.4486 19.901C30.7459 19.401 32.173 19.101 33.6 19.001L33.8595 17.301C33.9892 16.501 34.8973 15.901 36.0649 16.001C37.1027 16.101 37.8811 16.801 37.7514 17.701L37.4919 19.601C38.4 19.901 39.3081 20.401 40.0865 21.001L41.1243 20.401C42.0324 19.901 43.2 20.001 43.8486 20.701C44.4973 21.401 44.3676 22.301 43.4595 22.801L42.2919 23.501C42.6811 24.201 42.9405 25.001 42.9405 25.801L46.4432 26.101C47.2216 26.101 48 26.701 48 27.501ZM33.7297 24.001C33.7297 22.901 32.5622 22.001 31.1351 22.001C29.7081 22.001 28.5405 22.901 28.5405 24.001C28.5405 25.101 29.7081 26.001 31.1351 26.001C32.5622 26.001 33.7297 25.101 33.7297 24.001ZM37.6216 28.501C37.6216 27.701 36.7135 27.001 35.6757 27.001C34.6378 27.001 33.7297 27.701 33.7297 28.501C33.7297 29.301 34.6378 30.001 35.6757 30.001C36.7135 30.001 37.6216 29.301 37.6216 28.501Z" fill="black"/>
</g>
<defs>
<clipPath id="clip0_6013_51971">
<rect width="48" height="48" fill="white" transform="translate(0 0.000976562)"/>
</clipPath>
</defs>
</svg>
