<svg width="48" height="44" viewBox="0 0 48 44" fill="none" xmlns="http://www.w3.org/2000/svg">
<g clip-path="url(#clip0_6013_51973)">
<path d="M34.5489 23.0111L31.6253 22.7111C31.5855 21.9186 31.4012 21.1378 31.0798 20.4011L32.0944 19.6911C32.2648 19.5703 32.4077 19.4199 32.5148 19.2485C32.6218 19.0771 32.691 18.888 32.7184 18.6921C32.7457 18.4961 32.7307 18.2972 32.6742 18.1066C32.6176 17.916 32.5207 17.7374 32.3889 17.5811C32.2571 17.4249 32.093 17.2939 31.906 17.1958C31.719 17.0976 31.5127 17.0342 31.299 17.0092C31.0853 16.9841 30.8682 16.9978 30.6603 17.0497C30.4523 17.1015 30.2576 17.1903 30.0871 17.3111L29.2362 17.9211C28.5884 17.3575 27.8392 16.9007 27.0216 16.5711L27.2616 14.6711C27.2909 14.4733 27.2768 14.2721 27.2201 14.0793C27.1634 13.8866 27.0653 13.7061 26.9316 13.5486C26.7978 13.391 26.6311 13.2595 26.4412 13.1618C26.2513 13.064 26.042 13.002 25.8256 12.9794C25.6092 12.9568 25.3901 12.974 25.181 13.03C24.972 13.086 24.7772 13.1797 24.6082 13.3056C24.4392 13.4315 24.2992 13.587 24.1967 13.7631C24.0941 13.9392 24.0309 14.1324 24.0107 14.3311L23.7925 16.0111C22.5826 16.0393 21.3973 16.3306 20.3344 16.8611L18.1525 14.5211C18.0122 14.3714 17.841 14.2485 17.6488 14.1595C17.4566 14.0704 17.2471 14.0169 17.0323 14.0021C16.8176 13.9872 16.6017 14.0113 16.3971 14.0729C16.1925 14.1345 16.0031 14.2325 15.8398 14.3611C15.6765 14.4898 15.5424 14.6468 15.4453 14.823C15.3481 14.9991 15.2898 15.1911 15.2736 15.388C15.2574 15.5849 15.2836 15.7827 15.3508 15.9703C15.418 16.1578 15.5249 16.3314 15.6653 16.4811L17.8689 18.8411C17.3023 19.5438 16.8842 20.3375 16.6362 21.1811L14.9125 21.0111C14.4864 20.9749 14.0616 21.0932 13.7295 21.3406C13.3973 21.588 13.1841 21.9449 13.1356 22.3347C13.087 22.7245 13.2071 23.1162 13.4699 23.4259C13.7328 23.7355 14.1175 23.9385 14.5416 23.9911L16.4835 24.1911C16.6229 24.9434 16.8956 25.6696 17.2907 26.3411L15.9053 27.3111C15.561 27.5551 15.3365 27.9145 15.2813 28.3102C15.226 28.7059 15.3445 29.1055 15.6107 29.4211C15.8769 29.7368 16.269 29.9425 16.7006 29.9931C17.1323 30.0438 17.5682 29.9351 17.9125 29.6911L19.4398 28.6111C20.2204 29.1381 21.1007 29.528 22.0362 29.7611L21.8289 31.3311C21.804 31.5269 21.8216 31.7252 21.8805 31.9147C21.9395 32.1043 22.0387 32.2812 22.1726 32.4355C22.3064 32.5897 22.4721 32.7182 22.6603 32.8136C22.8484 32.9089 23.0552 32.9693 23.2689 32.9911C23.3303 32.9993 23.3924 33.0027 23.4544 33.0011C23.8562 33.0011 24.2439 32.8655 24.5437 32.6202C24.8434 32.3749 25.0343 32.0371 25.0798 31.6711L25.3089 29.8911C26.0932 29.7666 26.8515 29.5304 27.5562 29.1911L28.7562 30.4811C29.0408 30.7819 29.4435 30.9675 29.8766 30.9975C30.3098 31.0274 30.7383 30.8994 31.0689 30.6411C31.3986 30.3811 31.6021 30.0118 31.6349 29.6143C31.6676 29.2167 31.5268 28.8236 31.2435 28.5211L30.0544 27.2511C30.4628 26.767 30.8002 26.2358 31.058 25.6711L34.178 25.9911C34.2394 25.9993 34.3014 26.0027 34.3635 26.0011C34.7808 26.0004 35.1821 25.8535 35.4852 25.5905C35.7883 25.3275 35.9703 24.9683 35.994 24.5863C36.0177 24.2043 35.8813 23.8285 35.6127 23.5357C35.344 23.2429 34.9635 23.0552 34.5489 23.0111ZM21.818 23.0011C21.3865 23.0011 20.9646 22.8838 20.6058 22.6641C20.247 22.4443 19.9674 22.132 19.8023 21.7665C19.6371 21.4011 19.5939 20.9989 19.6781 20.611C19.7623 20.223 19.9701 19.8666 20.2752 19.5869C20.5804 19.3072 20.9691 19.1167 21.3924 19.0396C21.8156 18.9624 22.2543 19.002 22.6529 19.1534C23.0516 19.3048 23.3924 19.5611 23.6321 19.89C23.8719 20.2189 23.9998 20.6056 23.9998 21.0011C23.9981 21.5311 23.7677 22.0389 23.3589 22.4136C22.9501 22.7883 22.3961 22.9996 21.818 23.0011ZM25.6362 27.0011C25.3125 27.0011 24.9962 26.9132 24.7271 26.7483C24.458 26.5835 24.2482 26.3493 24.1244 26.0752C24.0005 25.8011 23.9681 25.4995 24.0313 25.2085C24.0944 24.9175 24.2503 24.6503 24.4791 24.4405C24.708 24.2307 24.9995 24.0878 25.3169 24.03C25.6344 23.9721 25.9634 24.0018 26.2624 24.1153C26.5614 24.2289 26.817 24.4211 26.9968 24.6678C27.1766 24.9145 27.2725 25.2045 27.2725 25.5011C27.2725 25.899 27.1001 26.2805 26.7933 26.5618C26.4864 26.8431 26.0702 27.0011 25.6362 27.0011Z" fill="black"/>
<path d="M41.4545 0.000976563H6.54545C4.81011 0.00282917 3.14642 0.635565 1.91935 1.76038C0.692279 2.8852 0.00202103 4.41025 0 6.00098L0 38.001C0.00202103 39.5917 0.692279 41.1168 1.91935 42.2416C3.14642 43.3664 4.81011 43.9991 6.54545 44.001H41.4545C43.1899 43.9991 44.8536 43.3664 46.0806 42.2416C47.3077 41.1168 47.998 39.5917 48 38.001V6.00098C47.998 4.41025 47.3077 2.8852 46.0806 1.76038C44.8536 0.635565 43.1899 0.00282917 41.4545 0.000976563ZM43.6364 38.001C43.6355 38.5312 43.4054 39.0394 42.9964 39.4143C42.5874 39.7892 42.0329 40.0002 41.4545 40.001H6.54545C5.96707 40.0002 5.41261 39.7892 5.00363 39.4143C4.59465 39.0394 4.3645 38.5312 4.36364 38.001V6.00098C4.3645 5.47079 4.59465 4.96254 5.00363 4.58764C5.41261 4.21274 5.96707 4.00177 6.54545 4.00098H41.4545C42.0329 4.00177 42.5874 4.21274 42.9964 4.58764C43.4054 4.96254 43.6355 5.47079 43.6364 6.00098V38.001Z" fill="black"/>
</g>
<defs>
<clipPath id="clip0_6013_51973">
<rect width="48" height="44" fill="white" transform="translate(0 0.000976562)"/>
</clipPath>
</defs>
</svg>
