<svg width="48" height="44" viewBox="0 0 48 44" fill="none" xmlns="http://www.w3.org/2000/svg">
<g clip-path="url(#clip0_6013_51976)">
<path d="M2 8.00656H6.317C6.7296 9.17848 7.49639 10.1936 8.5115 10.9117C9.52662 11.6298 10.74 12.0155 11.984 12.0155C13.228 12.0155 14.4414 11.6298 15.4565 10.9117C16.4716 10.1936 17.2384 9.17848 17.651 8.00656H46C46.5304 8.00656 47.0391 7.79615 47.4142 7.42163C47.7893 7.0471 48 6.53913 48 6.00947C48 5.47981 47.7893 4.97184 47.4142 4.59731C47.0391 4.22278 46.5304 4.01237 46 4.01237H17.651C17.2389 2.84 16.4722 1.82438 15.4571 1.10588C14.4419 0.387381 13.2283 0.00146484 11.984 0.00146484C10.7397 0.00146484 9.52609 0.387381 8.51092 1.10588C7.49575 1.82438 6.72913 2.84 6.317 4.01237H2C1.46957 4.01237 0.960859 4.22278 0.585786 4.59731C0.210714 4.97184 0 5.47981 0 6.00947C0 6.53913 0.210714 7.0471 0.585786 7.42163C0.960859 7.79615 1.46957 8.00656 2 8.00656ZM11.984 3.9954C12.3827 3.9954 12.7724 4.11344 13.1039 4.33459C13.4354 4.55575 13.6938 4.87009 13.8464 5.23787C13.9991 5.60565 14.039 6.01036 13.9613 6.40083C13.8836 6.7913 13.6917 7.15 13.4099 7.43157C13.128 7.71315 12.7689 7.90495 12.3779 7.98274C11.9869 8.06053 11.5816 8.0208 11.2132 7.86859C10.8448 7.71638 10.5299 7.45852 10.3082 7.1276C10.0866 6.79668 9.9682 6.40757 9.968 6.00947C9.96879 5.47572 10.1814 4.96404 10.5593 4.58653C10.9372 4.20902 11.4495 3.99645 11.984 3.9954ZM46 35.9978H25.683C25.2709 34.8255 24.5042 33.8099 23.4891 33.0914C22.4739 32.3729 21.2603 31.9869 20.016 31.9869C18.7717 31.9869 17.5581 32.3729 16.5429 33.0914C15.5278 33.8099 14.7611 34.8255 14.349 35.9978H2C1.46957 35.9978 0.960859 36.2083 0.585786 36.5828C0.210714 36.9573 0 37.4653 0 37.9949C0 38.5246 0.210714 39.0326 0.585786 39.4071C0.960859 39.7816 1.46957 39.992 2 39.992H14.349C14.7616 41.164 15.5284 42.1791 16.5435 42.8972C17.5586 43.6153 18.772 44.0009 20.016 44.0009C21.26 44.0009 22.4734 43.6153 23.4885 42.8972C24.5036 42.1791 25.2704 41.164 25.683 39.992H46C46.5304 39.992 47.0391 39.7816 47.4142 39.4071C47.7893 39.0326 48 38.5246 48 37.9949C48 37.4653 47.7893 36.9573 47.4142 36.5828C47.0391 36.2083 46.5304 35.9978 46 35.9978ZM20.016 40.007C19.6172 40.007 19.2274 39.8889 18.8959 39.6677C18.5643 39.4464 18.3059 39.132 18.1534 38.7641C18.0008 38.3962 17.9609 37.9914 18.0388 37.6008C18.1167 37.2103 18.3088 36.8516 18.5908 36.5701C18.8729 36.2886 19.2322 36.097 19.6233 36.0194C20.0144 35.9419 20.4198 35.9819 20.7882 36.1344C21.1565 36.2869 21.4713 36.5451 21.6927 36.8763C21.9141 37.2074 22.0322 37.5968 22.032 37.9949C22.0307 38.5283 21.8178 39.0395 21.44 39.4166C21.0622 39.7937 20.5502 40.006 20.016 40.007ZM46 20.0041H41.683C41.2704 18.8322 40.5036 17.8171 39.4885 17.099C38.4734 16.3809 37.26 15.9952 36.016 15.9952C34.772 15.9952 33.5586 16.3809 32.5435 17.099C31.5284 17.8171 30.7616 18.8322 30.349 20.0041H2C1.46957 20.0041 0.960859 20.2145 0.585786 20.589C0.210714 20.9636 0 21.4715 0 22.0012C0 22.5309 0.210714 23.0388 0.585786 23.4134C0.960859 23.7879 1.46957 23.9983 2 23.9983H30.349C30.7611 25.1707 31.5278 26.1863 32.5429 26.9048C33.5581 27.6233 34.7717 28.0092 36.016 28.0092C37.2603 28.0092 38.4739 27.6233 39.4891 26.9048C40.5042 26.1863 41.2709 25.1707 41.683 23.9983H46C46.5304 23.9983 47.0391 23.7879 47.4142 23.4134C47.7893 23.0388 48 22.5309 48 22.0012C48 21.4715 47.7893 20.9636 47.4142 20.589C47.0391 20.2145 46.5304 20.0041 46 20.0041ZM36.016 24.0153C35.6173 24.0153 35.2276 23.8972 34.8961 23.6761C34.5646 23.4549 34.3062 23.1406 34.1536 22.7728C34.0009 22.405 33.961 22.0003 34.0387 21.6098C34.1164 21.2194 34.3083 20.8607 34.5901 20.5791C34.872 20.2975 35.2311 20.1057 35.6221 20.0279C36.0131 19.9501 36.4184 19.9899 36.7868 20.1421C37.1552 20.2943 37.4701 20.5522 37.6918 20.8831C37.9134 21.214 38.0318 21.6031 38.032 22.0012C38.0312 22.535 37.8186 23.0466 37.4407 23.4241C37.0628 23.8017 36.5505 24.0142 36.016 24.0153Z" fill="black"/>
</g>
<defs>
<clipPath id="clip0_6013_51976">
<rect width="48" height="44" fill="white" transform="translate(0 0.000976562)"/>
</clipPath>
</defs>
</svg>
