<svg width="48" height="48" viewBox="0 0 48 48" fill="none" xmlns="http://www.w3.org/2000/svg">
<g clip-path="url(#clip0_6013_51979)">
<path d="M45.3898 27.0008C45.7266 27.0143 46.0625 26.9596 46.3776 26.84C46.6926 26.7205 46.9803 26.5385 47.2233 26.305C47.4663 26.0715 47.6596 25.7914 47.7917 25.4813C47.9238 25.1713 47.9919 24.8378 47.9919 24.5008C47.9919 24.1638 47.9238 23.8303 47.7917 23.5203C47.6596 23.2102 47.4663 22.9301 47.2233 22.6966C46.9803 22.4631 46.6926 22.2812 46.3776 22.1616C46.0625 22.042 45.7266 21.9873 45.3898 22.0008H41.9998V18.0008H45.3898C45.7266 18.0143 46.0625 17.9596 46.3776 17.84C46.6926 17.7205 46.9803 17.5385 47.2233 17.305C47.4663 17.0715 47.6596 16.7914 47.7917 16.4813C47.9238 16.1713 47.9919 15.8378 47.9919 15.5008C47.9919 15.1638 47.9238 14.8303 47.7917 14.5203C47.6596 14.2102 47.4663 13.9301 47.2233 13.6966C46.9803 13.4631 46.6926 13.2812 46.3776 13.1616C46.0625 13.042 45.7266 12.9873 45.3898 13.0008H41.9998V8.07081C41.9998 7.78703 41.8871 7.51487 41.6864 7.31421C41.4858 7.11354 41.2136 7.00081 40.9298 7.00081H35.9998V2.61081C36.0133 2.27409 35.9586 1.93812 35.8391 1.62306C35.7195 1.308 35.5375 1.02033 35.304 0.777331C35.0706 0.534329 34.7904 0.340995 34.4804 0.208929C34.1703 0.076864 33.8368 0.00878906 33.4998 0.00878906C33.1628 0.00878906 32.8293 0.076864 32.5193 0.208929C32.2093 0.340995 31.9291 0.534329 31.6956 0.777331C31.4622 1.02033 31.2802 1.308 31.1606 1.62306C31.041 1.93812 30.9864 2.27409 30.9998 2.61081V7.00081H26.9998V2.61081C27.0133 2.27409 26.9586 1.93812 26.8391 1.62306C26.7195 1.308 26.5375 1.02033 26.304 0.777331C26.0706 0.534329 25.7904 0.340995 25.4804 0.208929C25.1703 0.076864 24.8368 0.00878906 24.4998 0.00878906C24.1628 0.00878906 23.8293 0.076864 23.5193 0.208929C23.2093 0.340995 22.9291 0.534329 22.6956 0.777331C22.4622 1.02033 22.2802 1.308 22.1606 1.62306C22.041 1.93812 21.9864 2.27409 21.9998 2.61081V7.00081H17.9998V2.61081C18.0133 2.27409 17.9586 1.93812 17.8391 1.62306C17.7195 1.308 17.5375 1.02033 17.304 0.777331C17.0706 0.534329 16.7904 0.340995 16.4804 0.208929C16.1703 0.076864 15.8368 0.00878906 15.4998 0.00878906C15.1628 0.00878906 14.8293 0.076864 14.5193 0.208929C14.2093 0.340995 13.9291 0.534329 13.6956 0.777331C13.4622 1.02033 13.2802 1.308 13.1606 1.62306C13.041 1.93812 12.9864 2.27409 12.9998 2.61081V7.00081H8.06983C7.78605 7.00081 7.51389 7.11354 7.31323 7.31421C7.11256 7.51487 6.99983 7.78703 6.99983 8.07081V13.0008H2.60983C2.27311 12.9873 1.93714 13.042 1.62208 13.1616C1.30702 13.2812 1.01936 13.4631 0.776354 13.6966C0.533352 13.9301 0.340018 14.2102 0.207953 14.5203C0.0758874 14.8303 0.0078125 15.1638 0.0078125 15.5008C0.0078125 15.8378 0.0758874 16.1713 0.207953 16.4813C0.340018 16.7914 0.533352 17.0715 0.776354 17.305C1.01936 17.5385 1.30702 17.7205 1.62208 17.84C1.93714 17.9596 2.27311 18.0143 2.60983 18.0008H6.99983V22.0008H2.60983C2.27311 21.9873 1.93714 22.042 1.62208 22.1616C1.30702 22.2812 1.01936 22.4631 0.776354 22.6966C0.533352 22.9301 0.340018 23.2102 0.207953 23.5203C0.0758874 23.8303 0.0078125 24.1638 0.0078125 24.5008C0.0078125 24.8378 0.0758874 25.1713 0.207953 25.4813C0.340018 25.7914 0.533352 26.0715 0.776354 26.305C1.01936 26.5385 1.30702 26.7205 1.62208 26.84C1.93714 26.9596 2.27311 27.0143 2.60983 27.0008H6.99983V31.0008H2.60983C2.27311 30.9873 1.93714 31.042 1.62208 31.1616C1.30702 31.2812 1.01936 31.4631 0.776354 31.6966C0.533352 31.9301 0.340018 32.2102 0.207953 32.5203C0.0758874 32.8303 0.0078125 33.1638 0.0078125 33.5008C0.0078125 33.8378 0.0758874 34.1713 0.207953 34.4813C0.340018 34.7914 0.533352 35.0715 0.776354 35.305C1.01936 35.5385 1.30702 35.7205 1.62208 35.84C1.93714 35.9596 2.27311 36.0143 2.60983 36.0008H6.99983V40.9308C6.99983 41.2146 7.11256 41.4867 7.31323 41.6874C7.51389 41.8881 7.78605 42.0008 8.06983 42.0008H12.9998V45.3908C12.9864 45.7275 13.041 46.0635 13.1606 46.3786C13.2802 46.6936 13.4622 46.9813 13.6956 47.2243C13.9291 47.4673 14.2093 47.6606 14.5193 47.7927C14.8293 47.9248 15.1628 47.9928 15.4998 47.9928C15.8368 47.9928 16.1703 47.9248 16.4804 47.7927C16.7904 47.6606 17.0706 47.4673 17.304 47.2243C17.5375 46.9813 17.7195 46.6936 17.8391 46.3786C17.9586 46.0635 18.0133 45.7275 17.9998 45.3908V42.0008H21.9998V45.3908C21.9864 45.7275 22.041 46.0635 22.1606 46.3786C22.2802 46.6936 22.4622 46.9813 22.6956 47.2243C22.9291 47.4673 23.2093 47.6606 23.5193 47.7927C23.8293 47.9248 24.1628 47.9928 24.4998 47.9928C24.8368 47.9928 25.1703 47.9248 25.4804 47.7927C25.7904 47.6606 26.0706 47.4673 26.304 47.2243C26.5375 46.9813 26.7195 46.6936 26.8391 46.3786C26.9586 46.0635 27.0133 45.7275 26.9998 45.3908V42.0008H30.9998V45.3908C30.9864 45.7275 31.041 46.0635 31.1606 46.3786C31.2802 46.6936 31.4622 46.9813 31.6956 47.2243C31.9291 47.4673 32.2093 47.6606 32.5193 47.7927C32.8293 47.9248 33.1628 47.9928 33.4998 47.9928C33.8368 47.9928 34.1703 47.9248 34.4804 47.7927C34.7904 47.6606 35.0706 47.4673 35.304 47.2243C35.5375 46.9813 35.7195 46.6936 35.8391 46.3786C35.9586 46.0635 36.0133 45.7275 35.9998 45.3908V42.0008H40.9298C41.2136 42.0008 41.4858 41.8881 41.6864 41.6874C41.8871 41.4867 41.9998 41.2146 41.9998 40.9308V36.0008H45.3898C45.7266 36.0143 46.0625 35.9596 46.3776 35.84C46.6926 35.7205 46.9803 35.5385 47.2233 35.305C47.4663 35.0715 47.6596 34.7914 47.7917 34.4813C47.9238 34.1713 47.9919 33.8378 47.9919 33.5008C47.9919 33.1638 47.9238 32.8303 47.7917 32.5203C47.6596 32.2102 47.4663 31.9301 47.2233 31.6966C46.9803 31.4631 46.6926 31.2812 46.3776 31.1616C46.0625 31.042 45.7266 30.9873 45.3898 31.0008H41.9998V27.0008H45.3898ZM35.9998 31.0008V35.3608C35.9985 35.5301 35.9307 35.6922 35.8109 35.8119C35.6912 35.9317 35.5292 35.9995 35.3598 36.0008H13.6398C13.4705 35.9995 13.3085 35.9317 13.1887 35.8119C13.069 35.6922 13.0011 35.5301 12.9998 35.3608V13.6408C13.0009 13.4714 13.0686 13.3092 13.1884 13.1894C13.3082 13.0696 13.4704 13.0019 13.6398 13.0008H35.3598C35.5292 13.0019 35.6914 13.0696 35.8112 13.1894C35.931 13.3092 35.9988 13.4714 35.9998 13.6408V31.0008Z" fill="black"/>
</g>
<defs>
<clipPath id="clip0_6013_51979">
<rect width="48" height="48" fill="white" transform="translate(0 0.000976562)"/>
</clipPath>
</defs>
</svg>
