<svg width="48" height="48" viewBox="0 0 48 48" fill="none" xmlns="http://www.w3.org/2000/svg">
<g clip-path="url(#clip0_6013_51981)">
<path d="M26 0.000976562V48.001H48V0.000976562H26ZM39 42.001C39 42.5314 38.7893 43.0401 38.4142 43.4152C38.0391 43.7903 37.5304 44.001 37 44.001C36.4696 44.001 35.9609 43.7903 35.5858 43.4152C35.2107 43.0401 35 42.5314 35 42.001V36.001C35.0016 35.471 35.2128 34.9632 35.5875 34.5885C35.9623 34.2138 36.4701 34.0026 37 34.001C37.5293 34.0046 38.0359 34.2165 38.4102 34.5908C38.7844 34.9651 38.9963 35.4717 39 36.001V42.001ZM39 27.001C39 27.5314 38.7893 28.0401 38.4142 28.4152C38.0391 28.7903 37.5304 29.001 37 29.001C36.4696 29.001 35.9609 28.7903 35.5858 28.4152C35.2107 28.0401 35 27.5314 35 27.001V21.001C35.0016 20.471 35.2128 19.9632 35.5875 19.5885C35.9623 19.2138 36.4701 19.0026 37 19.001C37.5293 19.0046 38.0359 19.2165 38.4102 19.5908C38.7844 19.9651 38.9963 20.4717 39 21.001V27.001ZM39 12.001C39 12.5314 38.7893 13.0401 38.4142 13.4152C38.0391 13.7903 37.5304 14.001 37 14.001C36.4696 14.001 35.9609 13.7903 35.5858 13.4152C35.2107 13.0401 35 12.5314 35 12.001V6.00098C35.0016 5.47103 35.2128 4.96324 35.5875 4.58851C35.9623 4.21378 36.4701 4.00256 37 4.00098C37.5293 4.00464 38.0359 4.21653 38.4102 4.59082C38.7844 4.9651 38.9963 5.47168 39 6.00098V12.001ZM0 32.001C4.694 32.001 9 35.307 9 40.001V48.001H15V40.001C15 35.307 19.306 32.001 24 32.001V24.001H0V32.001Z" fill="black"/>
</g>
<defs>
<clipPath id="clip0_6013_51981">
<rect width="48" height="48" fill="white" transform="translate(0 0.000976562)"/>
</clipPath>
</defs>
</svg>
