<svg width="48" height="48" viewBox="0 0 48 48" fill="none" xmlns="http://www.w3.org/2000/svg">
<g clip-path="url(#clip0_6013_51984)">
<path d="M14.52 41.531C13.7189 41.0698 13.0834 40.5201 12.6507 39.914C12.2181 39.3079 11.9968 38.6575 12 38.001C12 36.6749 12.9031 35.4031 14.5105 34.4654C16.118 33.5278 18.2981 33.001 20.5714 33.001H27.4971C27.6925 33.0013 27.8875 33.0113 28.08 33.031L32.5714 18.001H10.2857C7.55847 18.0023 4.94358 18.6349 3.01512 19.7598C1.08667 20.8847 0.00226987 22.4101 0 24.001L0 44.001C0 45.0618 0.722447 46.0793 2.00841 46.8294C3.29437 47.5795 5.03852 48.001 6.85714 48.001H30.8571C32.6758 48.001 34.4199 47.5795 35.7059 46.8294C36.9918 46.0793 37.7143 45.0618 37.7143 44.001V43.001H20.5714C19.4459 43.0028 18.331 42.8738 17.292 42.6214C16.253 42.369 15.3106 41.9983 14.52 41.531Z" fill="black"/>
<path d="M15.4287 38.001C15.431 38.7962 15.9735 39.5585 16.9375 40.1208C17.9015 40.6832 19.2083 40.9997 20.5716 41.001H25.7144L27.4973 35.001H20.5716C19.8959 35.0005 19.2268 35.0777 18.6024 35.2283C17.9781 35.3788 17.4107 35.5998 16.933 35.8785C16.4553 36.1572 16.0765 36.4881 15.8184 36.8523C15.5602 37.2165 15.4278 37.6069 15.4287 38.001ZM41.1601 18.001L41.143 35.001V41.001H42.8573C43.5329 41.0015 44.2021 40.9243 44.8264 40.7737C45.4508 40.6231 46.0181 40.4022 46.4958 40.1235C46.9736 39.8448 47.3524 39.5139 47.6105 39.1497C47.8686 38.7854 48.001 38.3951 48.0001 38.001V22.001C48.0015 20.9416 47.2819 19.9252 45.9993 19.1752C44.7167 18.4252 42.9762 18.0028 41.1601 18.001Z" fill="black"/>
<path d="M24 14.001C30.6274 14.001 36 10.867 36 7.00098C36 3.13498 30.6274 0.000976562 24 0.000976562C17.3726 0.000976562 12 3.13498 12 7.00098C12 10.867 17.3726 14.001 24 14.001Z" fill="black"/>
</g>
<defs>
<clipPath id="clip0_6013_51984">
<rect width="48" height="48" fill="white" transform="translate(0 0.000976562)"/>
</clipPath>
</defs>
</svg>
