<svg id="injured_1" width="48" height="48" viewBox="0 0 28 48" fill="none" xmlns="http://www.w3.org/2000/svg">
<g clip-path="url(#clip0_7271_53823)">
<path d="M8.47 41.53C8.00269 41.0688 7.632 40.5191 7.3796 39.913C7.1272 39.3069 6.99815 38.6566 7 38C7 36.6739 7.52678 35.4021 8.46447 34.4645C9.40215 33.5268 10.6739 33 12 33H16.04C16.154 33.0003 16.2677 33.0103 16.38 33.03L19 18H6C4.40911 18.0013 2.88375 18.6339 1.75882 19.7588C0.63389 20.8838 0.00132409 22.4091 0 24L0 44C0 45.0609 0.421427 46.0783 1.17157 46.8284C1.92172 47.5786 2.93913 48 4 48H18C19.0609 48 20.0783 47.5786 20.8284 46.8284C21.5786 46.0783 22 45.0609 22 44V43H12C11.3434 43.0019 10.6931 42.8728 10.087 42.6204C9.4809 42.368 8.93118 41.9973 8.47 41.53Z" fill="currentColor"/>
<path d="M9 38C9.00132 38.7952 9.31782 39.5575 9.88014 40.1199C10.4425 40.6822 11.2048 40.9987 12 41H15L16.04 35H12C11.6059 34.9995 11.2155 35.0767 10.8513 35.2273C10.4871 35.3779 10.1562 35.5988 9.87751 35.8775C9.59883 36.1562 9.37787 36.4871 9.22729 36.8513C9.07671 37.2155 8.99948 37.6059 9 38ZM24.01 18L24 35V41H25C25.3941 41.0005 25.7845 40.9233 26.1487 40.7727C26.5129 40.6221 26.8438 40.4012 27.1225 40.1225C27.4012 39.8438 27.6221 39.5129 27.7727 39.1487C27.9233 38.7845 28.0005 38.3941 28 38V22C28.0008 20.9406 27.581 19.9243 26.8328 19.1742C26.0847 18.4242 25.0694 18.0019 24.01 18Z" fill="currentColor"/>
<path d="M14 14C17.866 14 21 10.866 21 7C21 3.13401 17.866 0 14 0C10.134 0 7 3.13401 7 7C7 10.866 10.134 14 14 14Z" fill="currentColor"/>
</g>
<defs>
<clipPath id="clip0_7271_53823">
<rect width="28" height="48" fill="white"/>
</clipPath>
</defs>
</svg>
