<svg width="48" height="48" viewBox="0 0 48 48" fill="none" xmlns="http://www.w3.org/2000/svg">
<g clip-path="url(#clip0_6013_51989)">
<path d="M27.5 40.001H20.5C20.1022 40.001 19.7206 40.159 19.4393 40.4403C19.158 40.7216 19 41.1032 19 41.501C19 41.8988 19.158 42.2803 19.4393 42.5616C19.7206 42.8429 20.1022 43.001 20.5 43.001H27.5C27.8978 43.001 28.2794 42.8429 28.5607 42.5616C28.842 42.2803 29 41.8988 29 41.501C29 41.1032 28.842 40.7216 28.5607 40.4403C28.2794 40.159 27.8978 40.001 27.5 40.001ZM24 14.001C21.5302 13.9998 19.1319 14.8302 17.1916 16.3584C15.2514 17.8867 13.8821 20.0236 13.3046 22.425C12.7271 24.8263 12.9749 27.3522 14.0081 29.5955C15.0413 31.8389 16.7997 33.669 19 34.791V37.001C19 37.2662 19.1054 37.5205 19.2929 37.7081C19.4804 37.8956 19.7348 38.001 20 38.001H28C28.2652 38.001 28.5196 37.8956 28.7071 37.7081C28.8946 37.5205 29 37.2662 29 37.001V34.791C31.2003 33.669 32.9587 31.8389 33.9919 29.5955C35.0251 27.3522 35.2729 24.8263 34.6954 22.425C34.1179 20.0236 32.7486 17.8867 30.8084 16.3584C28.8681 14.8302 26.4698 13.9998 24 14.001ZM24 10.001C24.5304 10.001 25.0391 9.79026 25.4142 9.41519C25.7893 9.04012 26 8.53141 26 8.00098V2.00098C26 1.47054 25.7893 0.961836 25.4142 0.586763C25.0391 0.21169 24.5304 0.000976563 24 0.000976562C23.4696 0.000976563 22.9609 0.21169 22.5858 0.586763C22.2107 0.961836 22 1.47054 22 2.00098V8.00098C22 8.53141 22.2107 9.04012 22.5858 9.41519C22.9609 9.79026 23.4696 10.001 24 10.001ZM8 22.001H2C1.46957 22.001 0.960859 22.2117 0.585786 22.5868C0.210714 22.9618 0 23.4705 0 24.001C0 24.5314 0.210714 25.0401 0.585786 25.4152C0.960859 25.7903 1.46957 26.001 2 26.001H8C8.53043 26.001 9.03914 25.7903 9.41421 25.4152C9.78929 25.0401 10 24.5314 10 24.001C10 23.4705 9.78929 22.9618 9.41421 22.5868C9.03914 22.2117 8.53043 22.001 8 22.001ZM46 22.001H40C39.4696 22.001 38.9609 22.2117 38.5858 22.5868C38.2107 22.9618 38 23.4705 38 24.001C38 24.5314 38.2107 25.0401 38.5858 25.4152C38.9609 25.7903 39.4696 26.001 40 26.001H46C46.5304 26.001 47.0391 25.7903 47.4142 25.4152C47.7893 25.0401 48 24.5314 48 24.001C48 23.4705 47.7893 22.9618 47.4142 22.5868C47.0391 22.2117 46.5304 22.001 46 22.001ZM13.946 10.733L10.155 6.08098C9.81683 5.67969 9.33449 5.4274 8.812 5.3785C8.28951 5.32961 7.76873 5.48803 7.36198 5.8196C6.95522 6.15117 6.69508 6.62932 6.63766 7.15094C6.58023 7.67256 6.73012 8.19586 7.055 8.60798L10.845 13.258C11.1845 13.6546 11.6656 13.9028 12.1855 13.9495C12.7055 13.9962 13.2231 13.8378 13.6279 13.508C14.0326 13.1782 14.2923 12.7032 14.3516 12.1845C14.4108 11.6659 14.2649 11.1445 13.945 10.732M40.66 5.79498C40.4564 5.62888 40.222 5.50455 39.9703 5.42908C39.7186 5.3536 39.4545 5.32848 39.193 5.35513C38.9316 5.38178 38.678 5.4597 38.4467 5.58441C38.2154 5.70913 38.0109 5.8782 37.845 6.08198L34.055 10.732C33.7198 11.1431 33.5616 11.6705 33.6152 12.1982C33.6688 12.7259 33.9299 13.2107 34.341 13.546C34.7521 13.8812 35.2795 14.0394 35.8072 13.9858C36.335 13.9321 36.8198 13.6711 37.155 13.26L40.945 8.60998C41.1111 8.4064 41.2356 8.17208 41.3111 7.92041C41.3867 7.66873 41.4119 7.40464 41.3853 7.14321C41.3588 6.88179 41.2809 6.62816 41.1563 6.39682C41.0317 6.16549 40.8637 5.96097 40.66 5.79498ZM27 45.001H21C20.7348 45.001 20.4804 45.1063 20.2929 45.2939C20.1054 45.4814 20 45.7358 20 46.001C20 46.5314 20.2107 47.0401 20.5858 47.4152C20.9609 47.7903 21.4696 48.001 22 48.001H26C26.5304 48.001 27.0391 47.7903 27.4142 47.4152C27.7893 47.0401 28 46.5314 28 46.001C28 45.7358 27.8946 45.4814 27.7071 45.2939C27.5196 45.1063 27.2652 45.001 27 45.001Z" fill="black"/>
</g>
<defs>
<clipPath id="clip0_6013_51989">
<rect width="48" height="48" fill="white" transform="translate(0 0.000976562)"/>
</clipPath>
</defs>
</svg>
