<svg width="48" height="48" viewBox="0 0 48 48" fill="none" xmlns="http://www.w3.org/2000/svg">
<g clip-path="url(#clip0_6013_51992)">
<path d="M19.7502 21.1059L21.0564 25.891C21.1612 26.275 21.4142 26.6016 21.7598 26.7991C22.1054 26.9965 22.5153 27.0486 22.8992 26.9438C23.2832 26.839 23.6098 26.586 23.8072 26.2403C24.0047 25.8947 24.0567 25.4848 23.9519 25.1008L22.4517 19.6096C22.3916 19.3901 22.2824 19.1872 22.1323 19.0162C21.9823 18.8451 21.7953 18.7105 21.5855 18.6224L17.0028 16.6979V13.1661L20.7254 11.1186C20.9273 11.0075 21.1009 10.8514 21.2327 10.6623C21.3646 10.4732 21.4511 10.2563 21.4855 10.0284L21.9856 6.72763C22.0426 6.33545 21.9422 5.93663 21.7062 5.61826C21.4702 5.29989 21.1178 5.08783 20.726 5.02838C20.3342 4.96893 19.9348 5.06693 19.615 5.30097C19.2952 5.53501 19.081 5.88608 19.0191 6.27753L18.63 8.84612L16.5677 9.98038C16.3084 9.3955 15.9394 8.86581 15.4805 8.42002L18.8231 2.2126C18.9236 2.03873 18.9883 1.84643 19.0132 1.64711C19.038 1.44779 19.0226 1.24551 18.9679 1.05225C18.9131 0.858992 18.8201 0.678698 18.6944 0.522058C18.5687 0.365419 18.4128 0.235623 18.2359 0.140368C18.0591 0.0451136 17.8649 -0.0136609 17.665 -0.0324701C17.465 -0.0512792 17.2633 -0.0297399 17.0718 0.0308706C16.8803 0.0914811 16.7029 0.189929 16.5502 0.320376C16.3974 0.450822 16.2725 0.610613 16.1826 0.790271L12.7941 7.08171C12.5325 7.03436 12.2677 7.00794 12.0019 7.00269C11.7358 7.00822 11.4706 7.03498 11.2088 7.08271L7.82223 0.790271C7.73189 0.611555 7.60669 0.452733 7.454 0.323169C7.30132 0.193604 7.12425 0.0959179 6.93322 0.0358682C6.74219 -0.0241816 6.54108 -0.0453796 6.34173 -0.0264763C6.14238 -0.00757314 5.94883 0.0510487 5.77249 0.145934C5.59616 0.240819 5.4406 0.370047 5.31498 0.526001C5.18937 0.681955 5.09625 0.861479 5.0411 1.05399C4.98596 1.2465 4.96991 1.44811 4.9939 1.64692C5.01789 1.84573 5.08144 2.03773 5.18079 2.2116L8.52235 8.41902C8.06349 8.86481 7.69443 9.3945 7.43517 9.97938L5.37382 8.84612L4.98376 6.27753C4.92189 5.88608 4.70767 5.53501 4.38787 5.30097C4.06807 5.06693 3.66866 4.96893 3.27686 5.02838C2.88506 5.08783 2.53269 5.29989 2.29669 5.61826C2.0607 5.93663 1.96024 6.33545 2.01726 6.72763L2.51735 10.0284C2.55179 10.2563 2.63828 10.4732 2.77011 10.6623C2.90193 10.8514 3.07554 11.0075 3.27747 11.1186L7.00209 13.1661V16.6979L2.41933 18.6224C2.20955 18.7105 2.02256 18.8451 1.8725 19.0162C1.72245 19.1872 1.61325 19.3901 1.55319 19.6096L0.0529359 25.1008C0.00105513 25.291 -0.0128707 25.4895 0.0119535 25.685C0.0367777 25.8805 0.0998658 26.0692 0.197616 26.2403C0.295366 26.4115 0.425863 26.5617 0.581657 26.6824C0.737451 26.8031 0.915491 26.8919 1.10561 26.9438C1.29573 26.9956 1.49421 27.0096 1.68971 26.9848C1.88521 26.9599 2.07391 26.8968 2.24503 26.7991C2.41615 26.7013 2.56634 26.5708 2.68703 26.415C2.80772 26.2592 2.89654 26.0812 2.94842 25.891L4.25464 21.1059L7.00209 19.9527V20.0057C7.00209 21.3321 7.52897 22.6041 8.4668 23.542C9.40464 24.4799 10.6766 25.0068 12.0029 25.0068C13.3292 25.0068 14.6012 24.4799 15.5391 23.542C16.4769 22.6041 17.0038 21.3321 17.0038 20.0057V19.9527L19.7502 21.1059ZM47.4358 27.8695C47.1249 27.6212 46.7282 27.5066 46.3328 27.5509C45.9374 27.5951 45.5758 27.7947 45.3275 28.1055L43.7062 30.135L41.3528 30.086C41.4206 29.4503 41.366 28.8076 41.1918 28.1926L47.1898 24.4867C47.5198 24.2738 47.7532 23.9399 47.8398 23.5568C47.9263 23.1736 47.8592 22.7719 47.6529 22.4377C47.4465 22.1035 47.1173 21.8635 46.736 21.7694C46.3547 21.6752 45.9517 21.7344 45.6135 21.9341L39.5325 25.689C39.1325 25.3361 38.6659 25.0667 38.1603 24.8968L38.3733 17.7532C38.3835 17.5537 38.3537 17.3542 38.2858 17.1664C38.2179 16.9786 38.1132 16.8063 37.9778 16.6595C37.8423 16.5127 37.679 16.3944 37.4973 16.3115C37.3156 16.2287 37.1191 16.183 36.9195 16.1771C36.7199 16.1711 36.5211 16.2051 36.3348 16.277C36.1485 16.3489 35.9784 16.4573 35.8346 16.5958C35.6907 16.7343 35.5759 16.9002 35.497 17.0836C35.418 17.2671 35.3765 17.4644 35.3748 17.6641L35.1648 24.7118C34.545 24.8687 33.961 25.143 33.4445 25.5199L32.2243 23.5055L33.1715 21.0869C33.247 20.9028 33.2852 20.7054 33.2837 20.5064C33.2822 20.3073 33.2412 20.1106 33.1629 19.9275C33.0847 19.7445 32.9708 19.5789 32.8279 19.4403C32.685 19.3017 32.516 19.193 32.3307 19.1204C32.1453 19.0478 31.9474 19.0128 31.7484 19.0175C31.5494 19.0221 31.3534 19.0663 31.1716 19.1475C30.9899 19.2287 30.8261 19.3452 30.6899 19.4903C30.5536 19.6354 30.4476 19.8062 30.378 19.9927L29.1608 23.1014C29.0766 23.316 29.0431 23.5471 29.0627 23.7767C29.0823 24.0064 29.1545 24.2285 29.2738 24.4257L31.4742 28.0605L29.7089 31.1192L24.7781 30.4951C24.5523 30.4667 24.3231 30.4901 24.1077 30.5634C23.8923 30.6367 23.6964 30.758 23.5348 30.9182L19.4842 34.9321C19.2015 35.2122 19.0418 35.5932 19.04 35.9911C19.0382 36.3891 19.1946 36.7714 19.4747 37.0541C19.7548 37.3367 20.1357 37.4965 20.5336 37.4983C20.9316 37.5001 21.3139 37.3437 21.5965 37.0636L25.1271 33.5638L28.0816 33.9379L28.0546 33.9839C27.3915 35.1325 27.2118 36.4976 27.555 37.7787C27.8983 39.0599 28.7363 40.1522 29.8849 40.8154C31.0335 41.4786 32.3985 41.6583 33.6795 41.3151C34.9606 40.9718 36.0529 40.1337 36.716 38.985L36.743 38.939L38.5434 41.3116L37.2801 46.1187C37.2234 46.3112 37.2058 46.5132 37.2285 46.7127C37.2512 46.9121 37.3137 47.105 37.4123 47.2799C37.5109 47.4548 37.6435 47.6081 37.8024 47.7307C37.9613 47.8534 38.1433 47.9429 38.3374 47.994C38.5315 48.0451 38.7339 48.0567 38.9326 48.0281C39.1313 47.9995 39.3223 47.9314 39.4942 47.8277C39.666 47.724 39.8153 47.5868 39.9333 47.4244C40.0512 47.2619 40.1353 47.0774 40.1806 46.8818L41.6309 41.3676C41.689 41.1474 41.6962 40.9169 41.652 40.6935C41.6078 40.4701 41.5134 40.2597 41.3758 40.0783L38.3703 36.1204L40.1366 33.0617L44.3843 33.1497H44.4163C44.6414 33.1498 44.8637 33.0992 45.0666 33.0017C45.2695 32.9043 45.4479 32.7624 45.5885 32.5866L47.6719 29.978C47.9201 29.667 48.0347 29.2702 47.9905 28.8748C47.9462 28.4794 47.7467 28.1178 47.4358 27.8695Z" fill="black"/>
</g>
<defs>
<clipPath id="clip0_6013_51992">
<rect width="48" height="48" fill="white" transform="translate(0 0.000976562)"/>
</clipPath>
</defs>
</svg>
