<svg width="48" height="44" viewBox="0 0 48 44" fill="none" xmlns="http://www.w3.org/2000/svg">
<g clip-path="url(#clip0_6013_51998)">
<path d="M14.077 25.7013C13.7662 25.9512 13.5084 26.2605 13.3185 26.6111C13.1287 26.9618 13.0107 27.3467 12.9714 27.7435C12.9321 28.1403 12.9723 28.541 13.0896 28.9221C13.207 29.3031 13.3991 29.657 13.6548 29.9629C13.9105 30.2689 14.2247 30.5208 14.5789 30.7039C14.9331 30.887 15.3203 30.9977 15.7178 31.0295C16.1152 31.0612 16.5151 31.0134 16.8939 30.8889C17.2727 30.7643 17.6228 30.5655 17.9239 30.304C19.5968 28.8132 21.7594 27.9894 24.0002 27.9894C26.2411 27.9894 28.4037 28.8132 30.0766 30.304C30.3777 30.5655 30.7278 30.7643 31.1066 30.8889C31.4854 31.0134 31.8852 31.0612 32.2827 31.0295C32.6802 30.9977 33.0674 30.887 33.4216 30.7039C33.7758 30.5208 34.0899 30.2689 34.3457 29.9629C34.6014 29.657 34.7935 29.3031 34.9109 28.9221C35.0282 28.541 35.0684 28.1403 35.0291 27.7435C34.9898 27.3467 34.8718 26.9618 34.682 26.6111C34.4921 26.2605 34.2343 25.9512 33.9235 25.7013C31.1741 23.3028 27.6489 21.9813 24.0002 21.9813C20.3516 21.9813 16.8264 23.3028 14.077 25.7013ZM46.7893 7.59557C40.2143 2.66609 32.2181 0.00146484 24.0002 0.00146484C15.7824 0.00146484 7.7862 2.66609 1.21122 7.59557C0.572459 8.07001 0.14834 8.77876 0.0321632 9.56589C-0.0840131 10.353 0.11727 11.1541 0.591732 11.7928C1.06619 12.4315 1.77497 12.8556 2.56214 12.9718C3.34931 13.088 4.15038 12.8867 4.78914 12.4122C10.3314 8.2561 17.0721 6.00943 23.9997 6.00943C30.9273 6.00943 37.6681 8.2561 43.2103 12.4122C43.8491 12.8867 44.6502 13.088 45.4374 12.9718C46.2245 12.8556 46.9333 12.4315 47.4078 11.7928C47.8822 11.1541 48.0835 10.353 47.9673 9.56589C47.8512 8.77876 47.428 8.07001 46.7893 7.59557Z" fill="black"/>
<path d="M6.07686 17.7083C5.76609 17.958 5.50826 18.2672 5.31847 18.6178C5.12867 18.9683 5.01073 19.3533 4.97155 19.75C4.93236 20.1467 4.97272 20.5473 5.09026 20.9282C5.20779 21.3091 5.40015 21.6628 5.65606 21.9685C5.91198 22.2741 6.2263 22.5257 6.58064 22.7084C6.93497 22.8911 7.32219 23.0012 7.71963 23.0324C8.11706 23.0636 8.51672 23.0152 8.89521 22.89C9.2737 22.7648 9.62341 22.5653 9.92386 22.3033C13.8266 18.9062 18.8262 17.0351 24.0004 17.0351C29.1745 17.0351 34.1741 18.9062 38.0769 22.3033C38.3773 22.5653 38.727 22.7648 39.1055 22.89C39.484 23.0152 39.8837 23.0636 40.2811 23.0324C40.6785 23.0012 41.0658 22.8911 41.4201 22.7084C41.7744 22.5257 42.0887 22.2741 42.3447 21.9685C42.6006 21.6628 42.7929 21.3091 42.9105 20.9282C43.028 20.5473 43.0684 20.1467 43.0292 19.75C42.99 19.3533 42.872 18.9683 42.6823 18.6178C42.4925 18.2672 42.2346 17.958 41.9239 17.7083C36.9545 13.3829 30.5885 11.0005 24.0004 11.0005C17.4122 11.0005 11.0463 13.3829 6.07686 17.7083Z" fill="black"/>
<path d="M24 44.002C26.7614 44.002 29 41.7634 29 39.002C29 36.2405 26.7614 34.002 24 34.002C21.2386 34.002 19 36.2405 19 39.002C19 41.7634 21.2386 44.002 24 44.002Z" fill="black"/>
</g>
<defs>
<clipPath id="clip0_6013_51998">
<rect width="48" height="44" fill="white" transform="translate(0 0.000976562)"/>
</clipPath>
</defs>
</svg>
