<svg id="displaced" width="48" height="48" viewBox="0 0 48 43" fill="none" xmlns="http://www.w3.org/2000/svg">
<g clip-path="url(#clip0_6013_51995)">
<path d="M47.5447 20.3969L40.5967 13.4479C40.3056 13.1568 39.9109 12.9932 39.4992 12.9932C39.0876 12.9932 38.6928 13.1568 38.4017 13.4479C38.1106 13.7391 37.9471 14.134 37.9471 14.5457C37.9471 14.9575 38.1106 15.3524 38.4017 15.6435L42.7517 19.9947H29.4997C29.1019 19.9947 28.7204 20.1528 28.4391 20.4342C28.1577 20.7156 27.9997 21.0972 27.9997 21.4952C27.9997 21.8931 28.1577 22.2747 28.4391 22.5561C28.7204 22.8375 29.1019 22.9956 29.4997 22.9956H42.7517L38.4017 27.3468C38.1106 27.6379 37.9471 28.0328 37.9471 28.4446C37.9471 28.8564 38.1106 29.2513 38.4017 29.5424C38.6928 29.8336 39.0876 29.9971 39.4992 29.9971C39.9109 29.9971 40.3056 29.8336 40.5967 29.5424L47.5447 22.5935C47.6891 22.4494 47.8036 22.2783 47.8818 22.09C47.9599 21.9016 48.0002 21.6996 48.0002 21.4957C48.0002 21.2917 47.9599 21.0897 47.8818 20.9014C47.8036 20.713 47.6891 20.5419 47.5447 20.3979M29.7977 2.75193C29.5503 2.00024 29.0856 1.33882 28.4624 0.851307C27.8392 0.363796 27.0855 0.0720937 26.2965 0.0130914C25.5076 -0.0459109 24.7189 0.130437 24.0301 0.519832C23.3413 0.909227 22.7835 1.49418 22.4271 2.20071C22.0707 2.90725 21.9318 3.70363 22.0279 4.48914C22.124 5.27465 22.4509 6.01402 22.9671 6.61372C23.4833 7.21343 24.1657 7.64655 24.928 7.8583C25.6903 8.07005 26.4983 8.05092 27.2497 7.80334C28.2572 7.47139 29.0916 6.75273 29.5695 5.80543C30.0473 4.85813 30.1294 3.75977 29.7977 2.75193ZM20.7347 23.5077L24.6657 15.7165C25.2456 14.5672 25.3453 13.2345 24.9428 12.0116C24.5404 10.7887 23.6688 9.77579 22.5197 9.19573L19.9637 7.90537C19.8276 7.83867 19.6843 7.78766 19.5367 7.75333C16.2308 6.30478 12.497 6.17173 9.09637 7.38129C5.69574 8.59086 2.88419 11.052 1.23471 14.2631C0.998177 14.7499 0.961792 15.31 1.13336 15.8233C1.30493 16.3366 1.67079 16.7622 2.15245 17.0088C2.6341 17.2554 3.1932 17.3034 3.70978 17.1424C4.22637 16.9814 4.65931 16.6243 4.91571 16.1477C5.85866 14.3133 7.34288 12.8136 9.16702 11.8518C10.9912 10.89 13.0669 10.5127 15.1127 10.7712L0.22771 39.9653C0.103217 40.2096 0.02804 40.476 0.00647194 40.7493C-0.0150961 41.0226 0.0173669 41.2975 0.102008 41.5583C0.186648 41.8191 0.321809 42.0606 0.499772 42.2691C0.677736 42.4777 0.895017 42.6491 1.13921 42.7736C1.3834 42.8981 1.64973 42.9733 1.92297 42.9949C2.19622 43.0165 2.47104 42.984 2.73174 42.8993C2.99244 42.8147 3.23391 42.6795 3.44238 42.5015C3.65085 42.3234 3.82222 42.1061 3.94671 41.8618L12.9887 24.1279L17.4637 26.3885C19.7914 27.6574 21.5295 29.7879 22.3056 32.3233C23.0817 34.8587 22.8341 37.5974 21.6157 39.9523C21.4841 40.1961 21.4022 40.4636 21.375 40.7393C21.3477 41.015 21.3756 41.2933 21.457 41.5581C21.5384 41.8229 21.6717 42.0689 21.8491 42.2817C22.0265 42.4944 22.2444 42.6697 22.4902 42.7974C22.736 42.925 23.0048 43.0025 23.2808 43.0252C23.5569 43.0479 23.8346 43.0154 24.098 42.9296C24.3614 42.8439 24.605 42.7065 24.8148 42.5256C25.0245 42.3447 25.1962 42.1238 25.3197 41.8759C26.9201 38.7803 27.3374 35.2073 26.4934 31.8261C25.6494 28.4449 23.602 25.4875 20.7347 23.5077Z" fill="currentColor"/>
</g>
<defs>
<clipPath id="clip0_6013_51995">
<rect width="48" height="43" fill="white" transform="translate(0 0.000976562)"/>
</clipPath>
</defs>
</svg>
