<svg width="48" height="48" viewBox="0 0 48 48" fill="none" xmlns="http://www.w3.org/2000/svg">
<g clip-path="url(#clip0_6013_52003)">
<path d="M46.1045 29.001H23.8955C23.6582 29.0017 23.4308 29.0962 23.263 29.264C23.0952 29.4318 23.0007 29.6592 23 29.8965V42.6282C23.0042 44.0519 23.5715 45.416 24.5782 46.4227C25.5849 47.4294 26.9491 47.9968 28.3728 48.001H41.6272C43.0509 47.9968 44.4151 47.4294 45.4218 46.4227C46.4285 45.416 46.9958 44.0519 47 42.6282V29.8965C47 29.7789 46.9769 29.6624 46.9319 29.5538C46.8869 29.4451 46.8209 29.3464 46.7377 29.2632C46.6546 29.1801 46.5558 29.1141 46.4472 29.0691C46.3385 29.0241 46.2221 29.001 46.1045 29.001Z" fill="black"/>
<path d="M11.5 18.001C15.0899 18.001 18 15.0908 18 11.501C18 7.91113 15.0899 5.00098 11.5 5.00098C7.91015 5.00098 5 7.91113 5 11.501C5 15.0908 7.91015 18.001 11.5 18.001Z" fill="black"/>
<path d="M46 23.001H38C38 22.2053 37.6839 21.4423 37.1213 20.8797C36.5587 20.317 35.7956 20.001 35 20.001C34.2044 20.001 33.4413 20.317 32.8787 20.8797C32.3161 21.4423 32 22.2053 32 23.001H24C23.4696 23.001 22.9609 23.2117 22.5858 23.5868C22.2107 23.9618 22 24.4705 22 25.001C22 25.5314 22.2107 26.0401 22.5858 26.4152C22.9609 26.7903 23.4696 27.001 24 27.001H46C46.5304 27.001 47.0391 26.7903 47.4142 26.4152C47.7893 26.0401 48 25.5314 48 25.001C48 24.4705 47.7893 23.9618 47.4142 23.5868C47.0391 23.2117 46.5304 23.001 46 23.001Z" fill="black"/>
<path d="M17.5 45.001H1.5C1.10218 45.001 0.720644 45.159 0.43934 45.4403C0.158035 45.7216 0 46.1032 0 46.501C0 46.8988 0.158035 47.2803 0.43934 47.5616C0.720644 47.8429 1.10218 48.001 1.5 48.001H17.5C17.8978 48.001 18.2794 47.8429 18.5607 47.5616C18.842 47.2803 19 46.8988 19 46.501C19 46.1032 18.842 45.7216 18.5607 45.4403C18.2794 45.159 17.8978 45.001 17.5 45.001Z" fill="black"/>
<path d="M31.9998 13.001C31.9998 13.2662 32.1052 13.5206 32.2927 13.7081C32.4802 13.8956 32.7346 14.001 32.9998 14.001H45.4998C46.1628 14.001 46.7987 13.7376 47.2676 13.2688C47.7364 12.7999 47.9998 12.164 47.9998 11.501C47.9998 10.838 47.7364 10.2021 47.2676 9.73323C46.7987 9.26439 46.1628 9.00099 45.4998 9.00099H32.9998C32.7346 9.00099 32.4802 9.10635 32.2927 9.29389C32.1052 9.48142 31.9998 9.73578 31.9998 10.001H22.8998C22.5189 7.10606 21.0512 4.46439 18.7942 2.61188C16.5372 0.759369 13.6601 -0.165253 10.7464 0.0255816C7.8328 0.216417 5.10085 1.50842 3.10479 3.63949C1.10873 5.77056 -0.00195312 8.58111 -0.00195312 11.501C-0.00195313 14.4209 1.10873 17.2314 3.10479 19.3625C5.10085 21.4936 7.8328 22.7856 10.7464 22.9764C13.6601 23.1672 16.5372 22.2426 18.7942 20.3901C21.0512 18.5376 22.5189 15.8959 22.8998 13.001H31.9998ZM11.4998 20.001C9.81866 20.001 8.17527 19.5025 6.77745 18.5685C5.37964 17.6345 4.29017 16.307 3.64683 14.7538C3.00348 13.2006 2.83515 11.4916 3.16313 9.84273C3.4911 8.19389 4.30065 6.67933 5.48939 5.49059C6.67814 4.30184 8.19269 3.49229 9.84153 3.16432C11.4904 2.83634 13.1994 3.00467 14.7526 3.64802C16.3058 4.29136 17.6333 5.38083 18.5673 6.77865C19.5013 8.17647 19.9998 9.81985 19.9998 11.501C19.9983 13.7549 19.1023 15.916 17.5085 17.5097C15.9148 19.1035 13.7537 19.9995 11.4998 20.001Z" fill="black"/>
<path d="M17 33.0012H16V30.9121C16 30.7945 15.9769 30.6781 15.9319 30.5694C15.8869 30.4608 15.8209 30.362 15.7377 30.2789C15.6546 30.1957 15.5559 30.1297 15.4472 30.0847C15.3385 30.0397 15.2221 30.0166 15.1045 30.0166H2.89551C2.65822 30.0173 2.43086 30.1119 2.26307 30.2797C2.09528 30.4475 2.00071 30.6748 2 30.9121V37.6284C2.00415 39.0521 2.57155 40.4163 3.57824 41.423C4.58494 42.4297 5.94912 42.9971 7.3728 43.0012H10.6272C12.0509 42.9971 13.4151 42.4297 14.4218 41.423C15.4285 40.4163 15.9958 39.0521 16 37.6284V37.0012H17C17.5304 37.0012 18.0391 36.7905 18.4142 36.4154C18.7893 36.0404 19 35.5317 19 35.0012C19 34.4708 18.7893 33.9621 18.4142 33.587C18.0391 33.2119 17.5304 33.0012 17 33.0012Z" fill="black"/>
</g>
<defs>
<clipPath id="clip0_6013_52003">
<rect width="48" height="48" fill="white" transform="translate(0 0.000976562)"/>
</clipPath>
</defs>
</svg>
