<svg width="48" height="48" viewBox="0 0 48 48" fill="none" xmlns="http://www.w3.org/2000/svg">
<g clip-path="url(#clip0_6013_52012)">
<path d="M45.992 48.001H16.1651C15.8132 48.001 15.4674 47.9086 15.1626 47.733C14.8578 47.5575 14.6047 47.305 14.4287 47.001C14.2527 46.6969 14.16 46.3521 14.16 46.001C14.16 45.6499 14.2527 45.305 14.4287 45.001L27.0684 23.1636V22.001H30.076C30.3419 22.001 30.5969 21.8956 30.7849 21.7081C30.9729 21.5205 31.0785 21.2662 31.0785 21.001C31.0785 20.7358 30.9729 20.4814 30.7849 20.2939C30.5969 20.1063 30.3419 20.001 30.076 20.001H27.0684V17.001H30.076C30.3419 17.001 30.5969 16.8956 30.7849 16.7081C30.9729 16.5205 31.0785 16.2662 31.0785 16.001C31.0785 15.7358 30.9729 15.4814 30.7849 15.2939C30.5969 15.1063 30.3419 15.001 30.076 15.001H27.0684V12.001H30.076C30.3419 12.001 30.5969 11.8956 30.7849 11.7081C30.9729 11.5205 31.0785 11.2662 31.0785 11.001C31.0785 10.7358 30.9729 10.4814 30.7849 10.2939C30.5969 10.1063 30.3419 10.001 30.076 10.001H27.0684V8.00098L25.2102 6.14746C25.1162 6.05368 25.0634 5.92655 25.0633 5.79398V4.50098C25.0633 4.43531 25.0763 4.37029 25.1015 4.30961C25.1266 4.24894 25.1636 4.19382 25.2101 4.14739C25.2567 4.10095 25.3119 4.06412 25.3728 4.039C25.4336 4.01388 25.4988 4.00096 25.5646 4.00098H36.5925C36.6583 4.00096 36.7235 4.01388 36.7843 4.039C36.8451 4.06412 36.9004 4.10095 36.947 4.14739C36.9935 4.19382 37.0304 4.24894 37.0556 4.30961C37.0808 4.37029 37.0938 4.43531 37.0937 4.50098V5.79398C37.0937 5.92656 37.0408 6.0537 36.9469 6.14749L35.0887 8.00098V23.1636L47.7284 45.001C47.9044 45.305 47.997 45.6499 47.997 46.001C47.997 46.3521 47.9044 46.6969 47.7284 47.001C47.5524 47.305 47.2993 47.5575 46.9945 47.733C46.6897 47.9086 46.3439 48.001 45.992 48.001ZM11.5291 0.000976579H0.501267C0.435435 0.0009595 0.370244 0.0138807 0.30942 0.039002C0.248596 0.0641233 0.19333 0.100952 0.146779 0.147385C0.100229 0.193818 0.0633067 0.248944 0.0381218 0.309615C0.0129369 0.370285 -1.71061e-05 0.435311 1.69532e-08 0.500977V1.79398C7.32266e-05 1.92656 0.0528885 2.0537 0.146851 2.14749L2.00507 4.00098V6.00098H5.01267C5.27856 6.00098 5.53355 6.10633 5.72157 6.29387C5.90958 6.48141 6.0152 6.73576 6.0152 7.00098C6.0152 7.26619 5.90958 7.52055 5.72157 7.70808C5.53355 7.89562 5.27856 8.00098 5.01267 8.00098H2.00507V11.001H5.01267C5.27856 11.001 5.53355 11.1063 5.72157 11.2939C5.90958 11.4814 6.0152 11.7358 6.0152 12.001C6.0152 12.2662 5.90958 12.5205 5.72157 12.7081C5.53355 12.8956 5.27856 13.001 5.01267 13.001H2.00507V16.001H5.01267C5.27856 16.001 5.53355 16.1063 5.72157 16.2939C5.90958 16.4814 6.0152 16.7358 6.0152 17.001C6.0152 17.2662 5.90958 17.5205 5.72157 17.7081C5.53355 17.8956 5.27856 18.001 5.01267 18.001H2.00507V21.001H5.01267C5.27856 21.001 5.53355 21.1063 5.72157 21.2939C5.90958 21.4814 6.0152 21.7358 6.0152 22.001C6.0152 22.2662 5.90958 22.5205 5.72157 22.7081C5.53355 22.8956 5.27856 23.001 5.01267 23.001H2.00507V26.001H5.01267C5.27856 26.001 5.53355 26.1063 5.72157 26.2939C5.90958 26.4814 6.0152 26.7358 6.0152 27.001C6.0152 27.2662 5.90958 27.5205 5.72157 27.7081C5.53355 27.8956 5.27856 28.001 5.01267 28.001H2.00507V31.001H5.01267C5.27856 31.001 5.53355 31.1063 5.72157 31.2939C5.90958 31.4814 6.0152 31.7358 6.0152 32.001C6.0152 32.2662 5.90958 32.5205 5.72157 32.7081C5.53355 32.8956 5.27856 33.001 5.01267 33.001H2.00507V36.001C2.00507 37.0618 2.42756 38.0793 3.17961 38.8294C3.93165 39.5795 4.95165 40.001 6.0152 40.001C7.07875 40.001 8.09875 39.5795 8.85079 38.8294C9.60284 38.0793 10.0253 37.0618 10.0253 36.001V4.00098L11.8836 2.14746C11.9775 2.05368 12.0303 1.92655 12.0304 1.79398V0.500977C12.0304 0.435311 12.0175 0.370285 11.9923 0.309615C11.9671 0.248944 11.9302 0.193818 11.8836 0.147385C11.8371 0.100952 11.7818 0.0641233 11.721 0.039002C11.6602 0.0138807 11.595 0.0009595 11.5291 0.000976579Z" fill="black"/>
</g>
<defs>
<clipPath id="clip0_6013_52012">
<rect width="48" height="48" fill="white" transform="translate(0 0.000976562)"/>
</clipPath>
</defs>
</svg>
