<svg width="48" height="48" viewBox="0 0 48 48" fill="none" xmlns="http://www.w3.org/2000/svg">
<g clip-path="url(#clip0_6013_52016)">
<path d="M47.6099 19.707C47.3965 19.1651 47.0736 18.6732 46.6613 18.2619C46.249 17.8507 45.7562 17.529 45.2139 17.317C44.0992 16.8724 42.8559 16.876 41.7439 17.327C41.5748 17.4101 41.4246 17.5272 41.3029 17.671C41.1811 17.8148 41.0903 17.9822 41.0361 18.1627C40.982 18.3432 40.9656 18.5329 40.9881 18.72C41.0106 18.907 41.0715 19.0875 41.1669 19.25C41.3234 19.5496 41.5785 19.786 41.8891 19.9196C42.1996 20.0531 42.5467 20.0755 42.8719 19.983C43.273 19.9121 43.6857 19.949 44.0679 20.09C44.2408 20.1596 44.398 20.263 44.5304 20.3942C44.6628 20.5254 44.7677 20.6817 44.8389 20.854C45.0547 21.4033 45.0445 22.0156 44.8105 22.5574C44.5765 23.0992 44.1377 23.5265 43.5899 23.746C43.1984 23.9122 42.7777 23.9986 42.3524 24.0004C41.9271 24.0021 41.5057 23.919 41.1129 23.756C40.7302 23.5969 40.3833 23.3628 40.0927 23.0673C39.802 22.7719 39.5736 22.4212 39.4209 22.036L32.8539 7.85698C32.7713 7.67586 32.6536 7.51298 32.5075 7.37783C32.3614 7.24268 32.1898 7.13795 32.0028 7.06976C31.8158 7.00157 31.6171 6.97127 31.4183 6.98063C31.2195 6.98999 31.0246 7.03883 30.8448 7.12429C30.6651 7.20975 30.5041 7.33014 30.3714 7.47842C30.2386 7.62671 30.1367 7.79993 30.0715 7.988C30.0064 8.17607 29.9793 8.37523 29.9919 8.57386C30.0045 8.7725 30.0565 8.96664 30.1449 9.14498L36.6809 23.253C36.9847 23.9894 37.4318 24.6581 37.996 25.2204C38.5602 25.7828 39.2305 26.2276 39.9679 26.529C40.7177 26.8396 41.5212 27 42.3329 27.001C43.1603 26.9988 43.9792 26.8337 44.7429 26.515C46.0231 25.989 47.0433 24.9779 47.5807 23.7024C48.118 22.4268 48.1279 20.9905 47.6099 19.707ZM21.0499 7.33098C20.8731 6.93501 20.5854 6.59871 20.2216 6.36272C19.8578 6.12672 19.4335 6.00114 18.9999 6.00114C18.5662 6.00114 18.1419 6.12672 17.7781 6.36272C17.4143 6.59871 17.1266 6.93501 16.9499 7.33098L0.195858 44.841C0.0432154 45.1836 -0.021189 45.559 0.00852309 45.9329C0.0382351 46.3068 0.161117 46.6673 0.365955 46.9815C0.570793 47.2958 0.851063 47.5537 1.18119 47.7317C1.51131 47.9098 1.88077 48.0024 2.25586 48.001H35.7439C36.1199 48.0021 36.4902 47.909 36.8209 47.7301C37.1517 47.5512 37.4323 47.2923 37.6372 46.977C37.8421 46.6617 37.9647 46.3001 37.9938 45.9252C38.0229 45.5503 37.9576 45.1741 37.8039 44.831L21.0499 7.33098ZM37.1429 9.51498C37.2316 9.66307 37.3572 9.78567 37.5074 9.87084C37.6575 9.95601 37.8272 10.0008 37.9999 10.001H42.9999C43.1725 10.0008 43.3422 9.95601 43.4924 9.87084C43.6425 9.78567 43.7681 9.66307 43.8569 9.51498L45.8569 5.51498C45.9499 5.35968 45.9991 5.18202 45.9991 5.00098C45.9991 4.81993 45.9499 4.64228 45.8569 4.48698L43.8569 0.486977C43.7681 0.338879 43.6425 0.216281 43.4924 0.131114C43.3422 0.0459468 43.1725 0.00111302 42.9999 0.000976562L37.9999 0.000976563C37.8272 0.00111302 37.6575 0.0459468 37.5074 0.131114C37.3572 0.216281 37.2316 0.338879 37.1429 0.486977L35.1429 4.48698C35.0498 4.64228 35.0006 4.81993 35.0006 5.00098C35.0006 5.18202 35.0498 5.35968 35.1429 5.51498L37.1429 9.51498Z" fill="black"/>
</g>
<defs>
<clipPath id="clip0_6013_52016">
<rect width="48" height="48" fill="white" transform="translate(0 0.000976562)"/>
</clipPath>
</defs>
</svg>
