<svg width="48" height="33" viewBox="0 0 48 33" fill="none" xmlns="http://www.w3.org/2000/svg">
<g clip-path="url(#clip0_6013_52019)">
<path d="M47 27.001H31C30.9963 27.5303 30.7844 28.0369 30.4102 28.4111C30.0359 28.7854 29.5293 28.9973 29 29.001H19C18.4701 28.9994 17.9623 28.7882 17.5875 28.4134C17.2128 28.0387 17.0016 27.5309 17 27.001H1C0.735027 27.0018 0.481133 27.1074 0.293767 27.2947C0.106402 27.4821 0.000791363 27.736 0 28.001L0 32.001C0.000791363 32.2659 0.106402 32.5198 0.293767 32.7072C0.481133 32.8946 0.735027 33.0002 1 33.001H47C47.265 33.0002 47.5189 32.8946 47.7062 32.7072C47.8936 32.5198 47.9992 32.2659 48 32.001V28.001C47.9992 27.736 47.8936 27.4821 47.7062 27.2947C47.5189 27.1074 47.265 27.0018 47 27.001ZM7 24.001H8V5.00098H40V24.001H45V2.00098C45 1.7341 44.9466 1.46991 44.843 1.22398C44.6406 0.743386 44.2584 0.360874 43.778 0.157977C43.5318 0.0541953 43.2672 0.000810957 43 0.000976948H5C4.46957 0.000976948 3.96086 0.211691 3.58579 0.586763C3.21071 0.961836 3 1.47054 3 2.00098V24.001H7Z" fill="black"/>
</g>
<defs>
<clipPath id="clip0_6013_52019">
<rect width="48" height="33" fill="white" transform="translate(0 0.000976562)"/>
</clipPath>
</defs>
</svg>
