<svg width="48" height="48" viewBox="0 0 48 48" fill="none" xmlns="http://www.w3.org/2000/svg">
<g clip-path="url(#clip0_6013_52022)">
<path d="M0 42.955V46.501C0 46.8988 0.344804 47.2803 0.95856 47.5616C1.57232 47.8429 2.40475 48.001 3.27273 48.001C4.14071 48.001 4.97314 47.8429 5.58689 47.5616C6.20065 47.2803 6.54545 46.8988 6.54545 46.501V45.001H41.4545V46.501C41.4545 46.8988 41.7994 47.2803 42.4131 47.5616C43.0269 47.8429 43.8593 48.001 44.7273 48.001C45.5953 48.001 46.4277 47.8429 47.0414 47.5616C47.6552 47.2803 48 46.8988 48 46.501V8.00098H0V42.955ZM37.0909 25.001C37.0909 24.7358 37.3208 24.4814 37.7299 24.2939C38.1391 24.1063 38.6941 24.001 39.2727 24.001C39.8514 24.001 40.4063 24.1063 40.8155 24.2939C41.2247 24.4814 41.4545 24.7358 41.4545 25.001V28.001C41.4545 28.2662 41.2247 28.5205 40.8155 28.7081C40.4063 28.8956 39.8514 29.001 39.2727 29.001C38.6941 29.001 38.1391 28.8956 37.7299 28.7081C37.3208 28.5205 37.0909 28.2662 37.0909 28.001V25.001ZM34.9091 0.000976562H13.0909C9.61898 0.000976563 6.28926 0.633118 3.83424 1.75834C1.37922 2.88355 0 4.40968 0 6.00098H48C48 4.40968 46.6208 2.88355 44.1658 1.75834C41.7107 0.633118 38.381 0.000976563 34.9091 0.000976562Z" fill="black"/>
</g>
<defs>
<clipPath id="clip0_6013_52022">
<rect width="48" height="48" fill="white" transform="translate(0 0.000976562)"/>
</clipPath>
</defs>
</svg>
