<svg width="48" height="32" viewBox="0 0 48 32" fill="none" xmlns="http://www.w3.org/2000/svg">
<g clip-path="url(#clip0_6013_52025)">
<path d="M12.1849 17.841C12.4227 16.4841 12.9003 15.1805 13.5955 13.991C13.9625 13.3475 14.3913 12.7413 14.876 12.181C15.0417 11.9779 15.2188 11.7843 15.4062 11.601C13.7968 10.5516 11.9155 9.99546 9.99397 10.001C7.79399 10.0005 5.65532 10.7256 3.90963 12.0639C2.16394 13.4022 0.908781 15.2788 0.338808 17.4028C-0.231165 19.5268 -0.0841008 21.7794 0.757194 23.8113C1.59849 25.8432 3.087 27.5409 4.99188 28.641V30.001C4.99347 30.531 5.20478 31.0388 5.57966 31.4135C5.95455 31.7882 6.46255 31.9994 6.99272 32.001H12.9952C13.5259 32.001 14.0348 31.7903 14.41 31.4152C14.7853 31.0402 14.9961 30.5315 14.9961 30.001V27.921C14.4647 27.333 13.9985 26.6892 13.6055 26.001C12.1781 23.5358 11.6746 20.6433 12.1849 17.841ZM2.98105 20.001C2.98035 18.161 3.70244 16.3942 4.99188 15.081V24.921C3.70244 23.6078 2.98035 21.8411 2.98105 20.001Z" fill="black"/>
<path d="M9.99874 8.00098C12.2088 8.00098 14.0004 6.21012 14.0004 4.00098C14.0004 1.79184 12.2088 0.000976562 9.99874 0.000976562C7.78868 0.000976562 5.99707 1.79184 5.99707 4.00098C5.99707 6.21012 7.78868 8.00098 9.99874 8.00098Z" fill="black"/>
<path d="M38.0056 8.00098C40.2156 8.00098 42.0072 6.21012 42.0072 4.00098C42.0072 1.79184 40.2156 0.000976562 38.0056 0.000976562C35.7955 0.000976562 34.0039 1.79184 34.0039 4.00098C34.0039 6.21012 35.7955 8.00098 38.0056 8.00098Z" fill="black"/>
<path d="M38.0057 10.001C36.0734 9.9955 34.1816 10.5551 32.5635 11.611C32.7572 11.8048 32.9409 12.0084 33.1137 12.221C33.5919 12.7734 34.0172 13.3693 34.3842 14.001C35.439 15.8231 35.9944 17.8909 35.9944 19.996C35.9944 22.1011 35.439 24.169 34.3842 25.991C33.9857 26.67 33.5235 27.3096 33.0037 27.901V30.001C33.0052 30.531 33.2166 31.0388 33.5914 31.4135C33.9663 31.7882 34.4743 31.9994 35.0045 32.001H41.007C41.5372 31.9994 42.0452 31.7882 42.4201 31.4135C42.7949 31.0388 43.0062 30.531 43.0078 30.001V28.641C44.9127 27.5409 46.4012 25.8432 47.2425 23.8113C48.0838 21.7794 48.2309 19.5268 47.6609 17.4028C47.0909 15.2788 45.8358 13.4022 44.0901 12.0639C42.3444 10.7256 40.2057 10.0005 38.0057 10.001ZM43.0078 24.921V15.081C44.2968 16.3945 45.0189 18.1611 45.0189 20.001C45.0189 21.841 44.2968 23.6075 43.0078 24.921Z" fill="black"/>
<path d="M23.9997 8.00098C26.2098 8.00098 28.0014 6.21012 28.0014 4.00098C28.0014 1.79184 26.2098 0.000976562 23.9997 0.000976562C21.7897 0.000976562 19.998 1.79184 19.998 4.00098C19.998 6.21012 21.7897 8.00098 23.9997 8.00098Z" fill="black"/>
<path d="M33.9937 20.001C33.9995 18.5009 33.6606 17.0195 33.0033 15.671C32.9433 15.541 32.8833 15.421 32.8132 15.291C32.3332 14.3989 31.7229 13.5833 31.0025 12.871C29.1367 11.0309 26.6206 9.99973 23.9996 10.001C23.3656 10.0031 22.733 10.06 22.1088 10.171C20.1695 10.5321 18.3844 11.4697 16.9866 12.861C16.259 13.567 15.6479 14.3838 15.1759 15.281C15.1079 15.3968 15.0477 15.5171 14.9958 15.641C14.5951 16.4464 14.3121 17.3052 14.1555 18.191C13.7759 20.2782 14.0702 22.432 14.9958 24.341C15.0558 24.461 15.1159 24.591 15.1859 24.711C16.066 26.3498 17.386 27.7108 18.9975 28.641V29.101C18.9975 29.131 19.0075 29.161 19.0075 29.191C19.0075 29.221 18.9975 29.241 18.9975 29.271V30.001C18.9991 30.5309 19.2104 31.0387 19.5853 31.4134C19.9601 31.7882 20.4681 31.9994 20.9983 32.001H27.0008C27.531 31.9994 28.039 31.7882 28.4139 31.4134C28.7888 31.0387 29.0001 30.5309 29.0016 30.001V29.271C29.0016 29.241 28.9916 29.221 28.9916 29.191C28.9916 29.161 29.0016 29.131 29.0016 29.101V28.641C29.7305 28.2213 30.4028 27.7105 31.0025 27.121C31.7252 26.4107 32.3358 25.5947 32.8132 24.701C32.8833 24.581 32.9433 24.451 33.0033 24.321C33.6591 22.9755 33.9979 21.4977 33.9937 20.001ZM18.9975 24.911C18.933 24.8484 18.8729 24.7816 18.8174 24.711C17.7131 23.523 17.0677 21.9811 16.9966 20.361C17.0229 20.1217 17.0229 19.8803 16.9966 19.641C17.0679 18.018 17.7132 16.473 18.8174 15.281C18.8674 15.211 18.9375 15.151 18.9975 15.081V24.911ZM29.1817 24.701C29.1266 24.775 29.0664 24.8452 29.0016 24.911V15.091C29.0661 15.1535 29.1263 15.2203 29.1817 15.291C30.2999 16.5051 30.9428 18.0814 30.9925 19.731C30.9803 19.9108 30.9803 20.0912 30.9925 20.271C30.9413 21.9172 30.2985 23.4899 29.1817 24.701Z" fill="black"/>
</g>
<defs>
<clipPath id="clip0_6013_52025">
<rect width="48" height="32" fill="white" transform="translate(0 0.000976562)"/>
</clipPath>
</defs>
</svg>
