<svg width="48" height="48" viewBox="0 0 48 48" fill="none" xmlns="http://www.w3.org/2000/svg">
<g clip-path="url(#clip0_6013_52033)">
<path d="M14 27.001C14 25.9401 14.4214 24.9227 15.1716 24.1726C15.9217 23.4224 16.9391 23.001 18 23.001H24V1.00098C23.9992 0.736003 23.8936 0.482109 23.7062 0.294744C23.5189 0.107379 23.265 0.00176793 23 0.000976563L1 0.000976562C0.735027 0.00176793 0.481133 0.107379 0.293767 0.294744C0.106402 0.482109 0.000791363 0.736003 0 1.00098L0 30.001C0.000791363 30.2659 0.106402 30.5198 0.293767 30.7072C0.481133 30.8946 0.735027 31.0002 1 31.001H14V27.001ZM10 6.00098H20C20.2652 6.00098 20.5196 6.10633 20.7071 6.29387C20.8946 6.48141 21 6.73576 21 7.00098C21 7.26619 20.8946 7.52055 20.7071 7.70808C20.5196 7.89562 20.2652 8.00098 20 8.00098H10C9.73478 8.00098 9.48043 7.89562 9.29289 7.70808C9.10536 7.52055 9 7.26619 9 7.00098C9 6.73576 9.10536 6.48141 9.29289 6.29387C9.48043 6.10633 9.73478 6.00098 10 6.00098ZM6 28.001H3V3.00098H6V28.001ZM9 13.001C9.00079 12.736 9.1064 12.4821 9.29377 12.2947C9.48113 12.1074 9.73503 12.0018 10 12.001H20C20.2652 12.001 20.5196 12.1063 20.7071 12.2939C20.8946 12.4814 21 12.7358 21 13.001C21 13.2662 20.8946 13.5205 20.7071 13.7081C20.5196 13.8956 20.2652 14.001 20 14.001H10C9.73503 14.0002 9.48113 13.8946 9.29377 13.7072C9.1064 13.5198 9.00079 13.2659 9 13.001Z" fill="black"/>
<path d="M18 25.001C17.4701 25.0026 16.9623 25.2138 16.5875 25.5885C16.2128 25.9632 16.0016 26.471 16 27.001V42.001H20V29.001H42V42.001H46V27.001C45.9984 26.471 45.7872 25.9632 45.4125 25.5885C45.0377 25.2138 44.5299 25.0026 44 25.001H18ZM47 44.001H36C35.9992 44.2659 35.8936 44.5198 35.7062 44.7072C35.5189 44.8946 35.265 45.0002 35 45.001H27C26.735 45.0002 26.4811 44.8946 26.2938 44.7072C26.1064 44.5198 26.0008 44.2659 26 44.001H15C14.735 44.0018 14.4811 44.1074 14.2938 44.2947C14.1064 44.4821 14.0008 44.736 14 45.001V47.001C14.0008 47.2659 14.1064 47.5198 14.2938 47.7072C14.4811 47.8946 14.735 48.0002 15 48.001H47C47.265 48.0002 47.5189 47.8946 47.7062 47.7072C47.8936 47.5198 47.9992 47.2659 48 47.001V45.001C47.9992 44.736 47.8936 44.4821 47.7062 44.2947C47.5189 44.1074 47.265 44.0018 47 44.001Z" fill="black"/>
</g>
<defs>
<clipPath id="clip0_6013_52033">
<rect width="48" height="48" fill="white" transform="translate(0 0.000976562)"/>
</clipPath>
</defs>
</svg>
