<svg width="48" height="44" viewBox="0 0 48 44" fill="none" xmlns="http://www.w3.org/2000/svg">
<g clip-path="url(#clip0_6013_52037)">
<path d="M24 0.000976562C19.2533 0.000976562 14.6131 1.29125 10.6663 3.70865C6.71955 6.12604 3.64341 9.56197 1.8269 13.5819C0.0103989 17.6019 -0.464881 22.0254 0.461164 26.293C1.38721 30.5605 3.67299 34.4806 7.02945 37.5573C10.3859 40.6341 14.6623 42.7294 19.3178 43.5783C23.9734 44.4271 28.799 43.9915 33.1844 42.3263C37.5698 40.6612 41.3181 37.8414 43.9553 34.2235C46.5924 30.6056 48 26.3522 48 22.001C48 16.1662 45.4715 10.5704 40.9706 6.44463C36.4697 2.31883 30.3652 0.000976563 24 0.000976562ZM40.9015 13.027L36.2422 15.862C36.0081 15.9891 35.7307 16.0315 35.4643 15.9809C35.1978 15.9302 34.9617 15.79 34.8022 15.588C33.7553 14.2383 32.4687 13.0592 30.996 12.1C30.7753 11.9537 30.6222 11.7371 30.5669 11.4926C30.5116 11.2482 30.5581 10.9936 30.6971 10.779L33.7898 6.50798C33.862 6.39116 33.9593 6.28896 34.0758 6.20755C34.1923 6.12614 34.3256 6.06721 34.4676 6.03432C34.6096 6.00142 34.7574 5.99524 34.9021 6.01615C35.0468 6.03706 35.1854 6.08463 35.3095 6.15598C37.6947 7.58187 39.73 9.44747 41.2855 11.634C41.3633 11.7477 41.4152 11.8747 41.438 12.0074C41.4608 12.14 41.4541 12.2755 41.4182 12.4057C41.3823 12.5359 41.318 12.658 41.2292 12.7648C41.1404 12.8716 41.0289 12.9608 40.9015 13.027ZM14.1818 22.001C14.1818 20.2209 14.7577 18.4809 15.8365 17.0008C16.9153 15.5208 18.4487 14.3672 20.2428 13.6861C22.0368 13.0049 24.0109 12.8266 25.9154 13.1739C27.82 13.5212 29.5694 14.3783 30.9425 15.637C32.3156 16.8957 33.2507 18.4993 33.6295 20.2452C34.0084 21.991 33.8139 23.8006 33.0708 25.4451C32.3277 27.0897 31.0693 28.4953 29.4547 29.4842C27.8401 30.4731 25.9419 31.001 24 31.001C21.3961 31.001 18.8988 30.0528 17.0575 28.3649C15.2162 26.6771 14.1818 24.3879 14.1818 22.001ZM14.6116 6.50798L17.3029 10.68C17.442 10.8946 17.4884 11.1492 17.4331 11.3936C17.3778 11.6381 17.2247 11.8547 17.004 12.001C15.4962 12.9943 14.1745 14.2058 13.0909 15.588C12.9314 15.79 12.6953 15.9302 12.4289 15.9809C12.1624 16.0315 11.885 15.9891 11.6509 15.862L7.09747 13.001C6.96987 12.9348 6.85825 12.8456 6.76934 12.7387C6.68044 12.6318 6.61609 12.5096 6.5802 12.3793C6.5443 12.249 6.53761 12.1133 6.56051 11.9806C6.58342 11.8479 6.63545 11.7208 6.71347 11.607C8.4175 9.41512 10.5866 7.5611 13.0909 6.15598C13.215 6.08446 13.3537 6.03677 13.4985 6.01577C13.6433 5.99477 13.7913 6.00091 13.9334 6.03381C14.0756 6.06671 14.209 6.1257 14.3255 6.2072C14.4421 6.2887 14.5394 6.39102 14.6116 6.50798ZM7.09856 30.975L11.7578 28.14C11.9919 28.0128 12.2694 27.9704 12.5358 28.0211C12.8022 28.0718 13.0383 28.2119 13.1978 28.414C14.2447 29.7637 15.5313 30.9427 17.004 31.902C17.2247 32.0482 17.3778 32.2649 17.4331 32.5093C17.4884 32.7538 17.442 33.0083 17.3029 33.223L14.2102 37.494C14.138 37.6108 14.0407 37.713 13.9242 37.7944C13.8077 37.8758 13.6744 37.9347 13.5324 37.9676C13.3904 38.0005 13.2426 38.0067 13.0979 37.9858C12.9532 37.9649 12.8146 37.9173 12.6906 37.846C10.3053 36.4201 8.27007 34.5545 6.71456 32.368C6.63672 32.2542 6.58483 32.1272 6.56202 31.9946C6.53921 31.8619 6.54595 31.7264 6.58184 31.5963C6.61772 31.4661 6.68201 31.3439 6.77082 31.2371C6.85963 31.1304 6.97112 31.0412 7.09856 30.975ZM33.8182 37.495L30.6971 33.322C30.5581 33.1073 30.5116 32.8528 30.5669 32.6083C30.6222 32.3639 30.7753 32.1472 30.996 32.001C32.5039 31.0077 33.8255 29.7962 34.9091 28.414C35.0686 28.2119 35.3048 28.0718 35.5712 28.0211C35.8376 27.9704 36.115 28.0128 36.3491 28.14L40.9015 30.607C41.0291 30.6732 41.1407 30.7624 41.2296 30.8693C41.3185 30.9761 41.3828 31.0984 41.4187 31.2287C41.4546 31.359 41.4613 31.4946 41.4384 31.6273C41.4155 31.7601 41.3635 31.8872 41.2855 32.001C39.7525 34.2962 37.7299 36.2842 35.3389 37.846C35.2148 37.9175 35.0761 37.9652 34.9313 37.9862C34.7865 38.0072 34.6386 38.001 34.4964 37.9681C34.3543 37.9352 34.2209 37.8763 34.1043 37.7948C33.9877 37.7133 33.8904 37.6119 33.8182 37.495Z" fill="black"/>
</g>
<defs>
<clipPath id="clip0_6013_52037">
<rect width="48" height="44" fill="white" transform="translate(0 0.000976562)"/>
</clipPath>
</defs>
</svg>
