<svg width="48" height="48" viewBox="0 0 48 48" fill="none" xmlns="http://www.w3.org/2000/svg">
<g clip-path="url(#clip0_6013_52043)">
<path d="M23.9999 16.001C22.7549 16.001 21.4949 16.071 20.3099 16.191C17.0849 16.511 14.1149 17.271 11.4449 18.371C7.19922 20.1 3.86829 22.6689 1.91627 25.7197C-0.0357544 28.7705 -0.511642 32.1513 0.554917 35.391C0.764917 36.051 1.03492 36.701 1.36492 37.331C2.30992 39.121 3.70492 40.751 5.48992 42.181C6.04492 42.651 6.65992 43.081 7.31992 43.501C11.6399 46.281 17.5199 48.001 23.9999 48.001C29.1449 48.001 33.8849 46.921 37.7849 45.091C38.3699 44.821 38.9249 44.541 39.4649 44.241C39.5399 44.201 39.5999 44.161 39.6599 44.121C39.7799 44.051 39.8999 44.001 40.0049 43.931C40.2599 43.761 40.5299 43.611 40.7849 43.431C40.8449 43.401 40.8899 43.371 40.9499 43.341C41.1149 43.221 41.2949 43.101 41.4599 42.991C43.7249 41.381 45.5099 39.461 46.6349 37.331C47.5199 35.671 47.9999 33.871 47.9999 32.001C47.9999 23.171 37.2449 16.001 23.9999 16.001ZM41.4329 35.001H29.2499C28.6532 35.001 28.0809 35.159 27.6589 35.4403C27.237 35.7216 26.9999 36.1032 26.9999 36.501C26.9999 36.8988 27.237 37.2803 27.6589 37.5616C28.0809 37.8429 28.6532 38.001 29.2499 38.001H29.9999V39.501C29.9999 39.8988 30.237 40.2803 30.6589 40.5616C31.0809 40.8429 31.6532 41.001 32.2499 41.001H35.9189L35.6699 41.141L35.6099 41.181C35.1899 41.411 34.7849 41.621 34.3349 41.821C31.3098 43.2498 27.6923 44.0153 23.9849 44.011C19.2899 44.011 14.8499 42.811 11.4749 40.631C10.9499 40.301 10.5149 39.981 10.1099 39.651C8.74492 38.551 7.70992 37.331 7.00492 36.001C6.77992 35.571 6.56992 35.091 6.38992 34.541C6.11992 33.711 5.98492 32.861 5.98492 32.001C5.98492 28.479 8.25442 25.245 12.1319 22.989C12.3554 23.419 12.8579 23.757 13.4999 23.909V26.001H12.7649C12.1642 26.001 11.5881 26.1601 11.1633 26.4432C10.7386 26.7264 10.4999 27.1105 10.4999 27.511V28.491C10.4999 29.325 11.5139 30.001 12.7649 30.001H13.4999V31.503C13.4999 32.154 14.1284 32.703 14.9999 32.91V36.505C14.9999 37.331 16.0049 38.001 17.2439 38.001H18.7559C19.9949 38.001 20.9999 37.331 20.9999 36.505V35.001H23.2529C24.4949 35.001 25.4999 34.331 25.4999 33.503V30.001H27.7349C28.3356 30.001 28.9117 29.8419 29.3365 29.5587C29.7613 29.2755 29.9999 28.8915 29.9999 28.491V27.511C29.9999 27.1105 29.7613 26.7264 29.3365 26.4432C28.9117 26.1601 28.3356 26.001 27.7349 26.001H19.4999V23.909C20.3714 23.702 20.9999 23.153 20.9999 22.501V20.169C21.0704 20.162 21.1394 20.148 21.2099 20.141C22.1399 20.041 23.0699 19.991 23.9849 19.991C33.9149 19.991 41.9999 25.381 41.9999 32.001C42.0014 33.0129 41.8109 34.0209 41.4329 35.001ZM35.3774 13.414C35.5174 13.5073 35.6704 13.5906 35.8364 13.664C35.9084 13.696 35.9864 13.718 36.0599 13.745C36.1559 13.781 36.2504 13.82 36.3524 13.848C36.4514 13.875 36.5519 13.89 36.6524 13.91C36.7394 13.927 36.8219 13.95 36.9119 13.962C37.3001 14.0137 37.6998 14.0137 38.0879 13.962C38.1779 13.95 38.2604 13.927 38.3474 13.91C38.4479 13.89 38.5484 13.875 38.6474 13.848C38.7494 13.82 38.8424 13.781 38.9399 13.745C39.0149 13.718 39.0914 13.696 39.1634 13.665C39.3294 13.591 39.4824 13.5073 39.6224 13.414L47.1224 8.41498C47.401 8.22916 47.6219 8.00858 47.7725 7.76585C47.9232 7.52311 48.0007 7.26297 48.0005 7.00027C48.0004 6.73757 47.9226 6.47747 47.7717 6.2348C47.6208 5.99214 47.3996 5.77167 47.1209 5.58598C46.8422 5.40029 46.5113 5.25302 46.1472 5.15257C45.7831 5.05213 45.3929 5.00048 44.9989 5.00057C44.6048 5.00066 44.2147 5.0525 43.8507 5.15311C43.4867 5.25373 43.1559 5.40116 42.8774 5.58698L40.4999 7.17298V2.00098C40.4999 1.47054 40.1838 0.961836 39.6212 0.586763C39.0586 0.21169 38.2956 0.000976563 37.4999 0.000976562C36.7043 0.000976563 35.9412 0.21169 35.3786 0.586763C34.816 0.961836 34.4999 1.47054 34.4999 2.00098V7.17298L32.1209 5.58698C31.8442 5.39596 31.5131 5.24359 31.1471 5.13877C30.7811 5.03396 30.3875 4.97878 29.9891 4.97648C29.5908 4.97417 29.1957 5.02477 28.8271 5.12533C28.4584 5.22589 28.1234 5.3744 27.8417 5.56219C27.5601 5.74997 27.3373 5.97328 27.1865 6.21907C27.0356 6.46486 26.9597 6.72822 26.9632 6.99378C26.9666 7.25934 27.0494 7.52178 27.2066 7.76579C27.3638 8.00979 27.5924 8.23048 27.8789 8.41498L35.3774 13.414ZM5.12092 8.41498L7.49992 6.82898V12.001C7.49992 12.5314 7.81599 13.0401 8.3786 13.4152C8.94121 13.7903 9.70427 14.001 10.4999 14.001C11.2956 14.001 12.0586 13.7903 12.6212 13.4152C13.1838 13.0401 13.4999 12.5314 13.4999 12.001V6.82898L15.8789 8.41498C16.1557 8.606 16.4867 8.75836 16.8527 8.86318C17.2187 8.968 17.6124 9.02317 18.0107 9.02548C18.409 9.02779 18.8041 8.97718 19.1728 8.87662C19.5415 8.77606 19.8764 8.62755 20.1581 8.43977C20.4398 8.25198 20.6625 8.02868 20.8134 7.78288C20.9642 7.53709 21.0401 7.27373 21.0367 7.00817C21.0332 6.74262 20.9504 6.48018 20.7932 6.23617C20.636 5.99216 20.4074 5.77147 20.1209 5.58698L12.6224 0.587977C12.4822 0.494747 12.3284 0.411005 12.1634 0.337977C12.0899 0.304977 12.0134 0.282977 11.9399 0.255977C11.8439 0.220977 11.7494 0.180977 11.6474 0.153977C11.5484 0.126977 11.4479 0.110977 11.3474 0.0909766C11.2604 0.0749766 11.1779 0.0509766 11.0879 0.0399766C10.6998 -0.0117464 10.3001 -0.0117464 9.91192 0.0399766C9.82192 0.0519766 9.73942 0.0749766 9.65242 0.0919766C9.55192 0.111977 9.45142 0.126977 9.35242 0.153977C9.25042 0.181977 9.15742 0.220977 9.05992 0.256977C8.98492 0.283977 8.90842 0.305977 8.83642 0.336977C8.67042 0.410977 8.51742 0.494643 8.37742 0.587977L0.877417 5.58698C0.598883 5.7728 0.377977 5.99337 0.227311 6.23611C0.0766447 6.47884 -0.000830374 6.73899 -0.000691089 7.00168C-0.000551804 7.26438 0.0771991 7.52449 0.228122 7.76715C0.379046 8.00982 0.600186 8.23029 0.878917 8.41598C1.15765 8.60167 1.48851 8.74894 1.85261 8.84938C2.21672 8.94982 2.60693 9.00147 3.00098 9.00138C3.39502 9.00129 3.78518 8.94946 4.14918 8.84884C4.51318 8.74822 4.84238 8.6008 5.12092 8.41498Z" fill="black"/>
</g>
<defs>
<clipPath id="clip0_6013_52043">
<rect width="48" height="48" fill="white" transform="translate(0 0.000976562)"/>
</clipPath>
</defs>
</svg>
