<svg width="48" height="48" viewBox="0 0 48 48" fill="none" xmlns="http://www.w3.org/2000/svg">
<g clip-path="url(#clip0_6013_52046)">
<path d="M47.0727 24.9316H7.47268C7.22576 24.9343 6.98992 25.0263 6.81633 25.1878C6.64274 25.3493 6.54539 25.5672 6.54541 25.7942V27.9407H43.6909C43.8272 27.9397 43.9625 27.9637 44.0887 28.0113C44.2149 28.0589 44.3295 28.129 44.4259 28.2177C44.5224 28.3063 44.5987 28.4118 44.6504 28.5278C44.7021 28.6438 44.7282 28.7681 44.7272 28.8935V42.9858H47.0727C47.3186 42.9858 47.5545 42.896 47.7284 42.7361C47.9023 42.5762 48 42.3594 48 42.1332V25.7942C48 25.5672 47.9026 25.3493 47.729 25.1878C47.5554 25.0263 47.3196 24.9343 47.0727 24.9316Z" fill="black"/>
<path d="M41.6179 29.9467H2.01792C1.89615 29.9467 1.77557 29.9687 1.66307 30.0116C1.55056 30.0544 1.44834 30.1172 1.36224 30.1964C1.27613 30.2755 1.20783 30.3695 1.16123 30.473C1.11463 30.5764 1.09065 30.6873 1.09065 30.7992V47.1382C1.09063 47.3653 1.18797 47.5832 1.36156 47.7447C1.53516 47.9062 1.77099 47.9982 2.01792 48.0008H41.6179C41.8648 47.9982 42.1007 47.9062 42.2743 47.7447C42.4479 47.5832 42.5452 47.3653 42.5452 47.1382V30.7992C42.5452 30.6873 42.5212 30.5764 42.4746 30.473C42.428 30.3695 42.3597 30.2755 42.2736 30.1964C42.1875 30.1172 42.0853 30.0544 41.9728 30.0116C41.8603 29.9687 41.7397 29.9467 41.6179 29.9467ZM7.6361 40.9798C7.20458 40.9798 6.78275 40.8621 6.42395 40.6417C6.06515 40.4213 5.7855 40.108 5.62036 39.7414C5.45523 39.3749 5.41202 38.9715 5.49621 38.5824C5.58039 38.1933 5.78819 37.8358 6.09332 37.5553C6.39845 37.2747 6.78722 37.0837 7.21045 37.0063C7.63368 36.9289 8.07237 36.9686 8.47105 37.1204C8.86972 37.2723 9.21047 37.5294 9.45022 37.8593C9.68996 38.1892 9.81792 38.577 9.81792 38.9738C9.81619 39.5053 9.58577 40.0146 9.17697 40.3905C8.76818 40.7663 8.21422 40.9782 7.6361 40.9798ZM21.8179 44.9918C20.5233 44.9918 19.2579 44.6389 18.1815 43.9776C17.1051 43.3163 16.2661 42.3764 15.7707 41.2768C15.2753 40.1771 15.1457 38.9671 15.3982 37.7997C15.6508 36.6323 16.2742 35.56 17.1896 34.7183C18.105 33.8767 19.2713 33.3035 20.541 33.0713C21.8107 32.8391 23.1267 32.9583 24.3228 33.4138C25.5188 33.8693 26.541 34.6406 27.2603 35.6303C27.9795 36.62 28.3634 37.7835 28.3634 38.9738C28.3619 40.5694 27.6719 42.0994 26.4447 43.2277C25.2175 44.356 23.5534 44.9905 21.8179 44.9918ZM35.9997 40.9798C35.5682 40.9798 35.1464 40.8621 34.7876 40.6417C34.4288 40.4213 34.1491 40.108 33.984 39.7414C33.8189 39.3749 33.7757 38.9715 33.8598 38.5824C33.944 38.1933 34.1518 37.8358 34.457 37.5553C34.7621 37.2747 35.1509 37.0837 35.5741 37.0063C35.9973 36.9289 36.436 36.9686 36.8347 37.1204C37.2334 37.2723 37.5741 37.5294 37.8139 37.8593C38.0536 38.1892 38.1816 38.577 38.1816 38.9738C38.1798 39.5053 37.9494 40.0146 37.5406 40.3905C37.1318 40.7663 36.5779 40.9782 35.9997 40.9798ZM20.6048 12.1172L17.8917 11.4482C16.4944 11.1038 15.0056 11.2839 13.7527 11.9489C12.4998 12.6138 11.5855 13.7091 11.211 14.9938L11.019 15.6538L13.7321 16.3228C14.424 16.4933 15.1457 16.5368 15.856 16.4508C16.5662 16.3648 17.2511 16.1511 17.8714 15.8217C18.4918 15.4924 19.0356 15.0539 19.4716 14.5314C19.9077 14.0088 20.2275 13.4124 20.4128 12.7762L20.6048 12.1172ZM19.9994 17.8664L22.7125 18.5354C23.4044 18.7059 24.1261 18.7494 24.8363 18.6635C25.5466 18.5775 26.2314 18.3637 26.8518 18.0344C27.4722 17.705 28.0159 17.2666 28.452 16.744C28.888 16.2214 29.2079 15.625 29.3932 14.9888L29.5852 14.3288L26.8721 13.6598C26.1802 13.4893 25.4585 13.4458 24.7482 13.5318C24.038 13.6178 23.3531 13.8315 22.7328 14.1609C22.1124 14.4902 21.5686 14.9287 21.1326 15.4513C20.6965 15.9738 20.3767 16.5702 20.1914 17.2065L19.9994 17.8664ZM28.9786 20.0791L31.6928 20.7471C33.0901 21.0914 34.579 20.9113 35.8319 20.2464C37.0847 19.5815 37.999 18.4862 38.3736 17.2014L38.5656 16.5415L35.8514 15.8724C34.4541 15.5284 32.9654 15.7088 31.7127 16.3739C30.4601 17.0391 29.5461 18.1344 29.1717 19.4191L28.9786 20.0791ZM18.6936 8.69592L21.4077 9.36392L21.5997 8.70394C21.7852 8.06775 21.8325 7.4042 21.739 6.7512C21.6455 6.09819 21.413 5.46851 21.0548 4.89813C20.6966 4.32774 20.2197 3.82781 19.6513 3.42689C19.0829 3.02597 18.4343 2.73192 17.7423 2.56151L15.0292 1.89351L14.8372 2.55349C14.4627 3.83821 14.6586 5.2071 15.3818 6.35903C16.105 7.51095 17.2963 8.35156 18.6936 8.69592ZM27.6739 10.9076L30.387 11.5766L30.5801 10.9166C30.7655 10.2804 30.8128 9.61684 30.7193 8.96383C30.6258 8.31083 30.3933 7.68115 30.0351 7.11076C29.6769 6.54038 29.2 6.04045 28.6317 5.63953C28.0633 5.23861 27.4146 4.94456 26.7226 4.77415L24.0096 4.10515L23.8165 4.76613C23.4423 6.05084 23.6385 7.4196 24.3619 8.57132C25.0853 9.72304 26.2767 10.5634 27.6739 10.9076ZM36.6543 13.1202L39.3674 13.7892L39.5594 13.1282C39.9336 11.8436 39.7375 10.475 39.0143 9.32331C38.2912 8.17161 37.1001 7.33116 35.703 6.98679L32.9899 6.31778L32.7968 6.97776C32.6114 7.61396 32.5641 8.2775 32.6576 8.93051C32.7511 9.58352 32.9836 10.2132 33.3418 10.7836C33.7 11.354 34.1769 11.8539 34.7453 12.2548C35.3136 12.6557 35.9623 12.9498 36.6543 13.1202ZM47.9463 17.377C47.9991 17.1962 48.0126 17.0077 47.9861 16.8222C47.9597 16.6367 47.8937 16.4578 47.792 16.2957C47.6903 16.1336 47.5548 15.9915 47.3933 15.8776C47.2319 15.7637 47.0476 15.6801 46.851 15.6317L41.3637 14.2807L40.5608 17.0329L46.0481 18.385C46.2447 18.4335 46.4498 18.4459 46.6517 18.4215C46.8535 18.3971 47.0482 18.3363 47.2244 18.2427C47.4007 18.1491 47.5552 18.0245 47.6791 17.8759C47.803 17.7274 47.8937 17.5578 47.9463 17.377ZM4.33719 11.058C3.94023 10.9602 3.5173 11.0115 3.16142 11.2004C2.80555 11.3894 2.54588 11.7006 2.43956 12.0655C2.33323 12.4305 2.38895 12.8194 2.59445 13.1466C2.79996 13.4738 3.13842 13.7125 3.53537 13.8103L7.52701 14.7932C7.72442 14.8443 7.93092 14.8589 8.13451 14.8361C8.33811 14.8133 8.53475 14.7535 8.71303 14.6603C8.8913 14.5671 9.04767 14.4422 9.17305 14.293C9.29843 14.1437 9.39032 13.9731 9.44341 13.7909C9.49649 13.6088 9.50971 13.4188 9.48229 13.2319C9.45487 13.045 9.38735 12.865 9.28367 12.7023C9.17998 12.5396 9.04219 12.3974 8.87828 12.2841C8.71437 12.1707 8.52761 12.0884 8.32883 12.042L4.33719 11.058ZM6.74374 2.80224L10.7354 3.78519C11.1323 3.88295 11.5553 3.83172 11.9111 3.64277C12.267 3.45382 12.5267 3.14264 12.633 2.77766C12.7393 2.41269 12.6836 2.02383 12.4781 1.69663C12.2726 1.36943 11.9341 1.13069 11.5372 1.03293L7.54556 0.0499802C7.1486 -0.0477801 6.72566 0.0034481 6.36979 0.192395C6.01391 0.381342 5.75425 0.692531 5.64792 1.0575C5.54159 1.42247 5.59731 1.81133 5.80281 2.13853C6.00832 2.46574 6.34678 2.70448 6.74374 2.80224ZM12.1241 10.0269C12.5211 10.1247 12.944 10.0734 13.2999 9.8845C13.6557 9.69555 13.9154 9.38436 14.0217 9.01939C14.1281 8.65442 14.0723 8.26556 13.8668 7.93836C13.6613 7.61116 13.3229 7.37241 12.9259 7.27465L1.95246 4.57054C1.75591 4.52194 1.55087 4.50941 1.34905 4.53366C1.14723 4.55791 0.952579 4.61848 0.776215 4.71189C0.420032 4.90056 0.159953 5.21159 0.0531912 5.57656C-0.0535704 5.94153 0.00173102 6.33055 0.20693 6.65803C0.412129 6.98552 0.750416 7.22464 1.14737 7.3228L12.1241 10.0269Z" fill="black"/>
</g>
<defs>
<clipPath id="clip0_6013_52046">
<rect width="48" height="48" fill="white" transform="translate(0 0.000976562)"/>
</clipPath>
</defs>
</svg>
