<svg width="48" height="36" viewBox="0 0 48 36" fill="none" xmlns="http://www.w3.org/2000/svg">
<g clip-path="url(#clip0_6013_52050)">
<path d="M46.707 10.775L40.464 5.86294L41.771 4.54147C42.0155 4.29463 42.2095 4.00155 42.3419 3.67896C42.4743 3.35637 42.5426 3.01059 42.5427 2.66136C42.5428 2.31214 42.4749 1.9663 42.3427 1.64361C42.2106 1.32091 42.0168 1.02767 41.7725 0.78063C41.5282 0.53359 41.2381 0.337588 40.9188 0.203815C40.5995 0.0700421 40.2572 0.0011175 39.9116 0.000976778C39.5659 0.00083606 39.2236 0.0694819 38.9042 0.202995C38.5848 0.336508 38.2945 0.532274 38.05 0.779115L35.926 2.926L35.562 2.55825C35.3176 2.31128 35.0275 2.11536 34.7081 1.98167C34.3888 1.84798 34.0465 1.77915 33.7009 1.7791C33.3552 1.77906 33.0129 1.8478 32.6935 1.9814C32.3742 2.115 32.084 2.31084 31.8395 2.55775C31.3458 3.0564 31.0684 3.73277 31.0683 4.43806C31.0682 4.78729 31.1363 5.1331 31.2685 5.45577C31.4008 5.77843 31.5946 6.07161 31.839 6.31859L32.203 6.68634L31.188 7.71179H5.497C4.03959 7.71339 2.64233 8.29902 1.61179 9.34018C0.581245 10.3813 0.00158817 11.793 0 13.2654L0 22.4965C0 23.0324 0.210714 23.5464 0.585786 23.9253C0.960859 24.3042 1.46957 24.5171 2 24.5171C2.53043 24.5171 3.03914 24.3042 3.41421 23.9253C3.78929 23.5464 4 23.0324 4 22.4965V13.2654C4.00106 12.8649 4.15901 12.4811 4.43933 12.1979C4.71966 11.9146 5.09956 11.7551 5.496 11.754H6V32.9703C6 33.7741 6.31607 34.5451 6.87868 35.1135C7.44129 35.6819 8.20435 36.0012 9 36.0012C9.79565 36.0012 10.5587 35.6819 11.1213 35.1135C11.6839 34.5451 12 33.7741 12 32.9703V26.9085H13.794C14.8712 28.1762 16.2068 29.1936 17.7095 29.8912C19.2122 30.5887 20.8463 30.9499 22.5 30.9499C24.1537 30.9499 25.7878 30.5887 27.2905 29.8912C28.7932 29.1936 30.1288 28.1762 31.206 26.9085H33V32.9703C33 33.7741 33.3161 34.5451 33.8787 35.1135C34.4413 35.6819 35.2043 36.0012 36 36.0012C36.7957 36.0012 37.5587 35.6819 38.1213 35.1135C38.6839 34.5451 39 33.7741 39 32.9703V16.8055H44.657C45.3525 16.8061 46.0308 16.587 46.597 16.179C47.1633 15.771 47.5891 15.1943 47.815 14.5297C48.0409 13.8651 48.0555 13.1458 47.8568 12.4724C47.6582 11.799 47.2562 11.2062 46.707 10.775Z" fill="black"/>
</g>
<defs>
<clipPath id="clip0_6013_52050">
<rect width="48" height="36" fill="white" transform="translate(0 0.000976562)"/>
</clipPath>
</defs>
</svg>
