<svg width="48" height="48" viewBox="0 0 48 48" fill="none" xmlns="http://www.w3.org/2000/svg">
<g clip-path="url(#clip0_6013_52056)">
<path d="M24 0.000976562C10.74 0.000976562 0 7.62209 0 17.0081C0 25.0905 17.745 42.7494 22.725 47.5427C22.8641 47.6838 23.0534 47.7996 23.2759 47.8797C23.4984 47.9598 23.7472 48.0018 24 48.0018C24.2528 48.0018 24.5016 47.9598 24.7241 47.8797C24.9466 47.7996 25.1359 47.6838 25.275 47.5427C30.255 42.7494 48 25.0905 48 17.0081C48 7.62209 37.26 0.000976562 24 0.000976562ZM24 23.9373C21.6266 23.9373 19.3065 23.4668 17.3332 22.5853C15.3598 21.7038 13.8217 20.4509 12.9134 18.985C12.0052 17.5192 11.7676 15.9062 12.2306 14.35C12.6936 12.7939 13.8365 11.3644 15.5147 10.2425C17.1929 9.12057 19.3311 8.35653 21.6589 8.04699C23.9867 7.73745 26.3995 7.89632 28.5922 8.5035C30.7849 9.11068 32.6591 10.1389 33.9776 11.4582C35.2962 12.7774 36 14.3284 36 15.9151C36 18.0427 34.7357 20.0832 32.4853 21.5876C30.2348 23.0921 27.1826 23.9373 24 23.9373Z" fill="black"/>
</g>
<defs>
<clipPath id="clip0_6013_52056">
<rect width="48" height="48" fill="white" transform="translate(0 0.000976562)"/>
</clipPath>
</defs>
</svg>
