<svg width="48" height="48" viewBox="0 0 48 48" fill="none" xmlns="http://www.w3.org/2000/svg">
<g clip-path="url(#clip0_6013_52052)">
<path d="M10 5.00098C9.20459 5.00177 8.44199 5.3181 7.87956 5.88053C7.31712 6.44297 7.00079 7.20557 7 8.00098H13C12.9992 7.20557 12.6829 6.44297 12.1204 5.88053C11.558 5.3181 10.7954 5.00177 10 5.00098Z" fill="black"/>
<path d="M10 0.000976563C8.02219 0.000976563 6.08879 0.587466 4.4443 1.68628C2.79981 2.78509 1.51809 4.34688 0.761209 6.17414C0.00433284 8.0014 -0.193701 10.0121 0.192152 11.9519C0.578004 13.8917 1.53041 15.6735 2.92894 17.072C4.32746 18.4706 6.10929 19.423 8.0491 19.8088C9.98891 20.1947 11.9996 19.9966 13.8268 19.2398C15.6541 18.4829 17.2159 17.2012 18.3147 15.5567C19.4135 13.9122 20 11.9788 20 10.001C19.9989 7.34914 18.945 4.80621 17.0699 2.93108C15.1948 1.05595 12.6518 0.00203666 10 0.000976563ZM15 14.001C15 14.5314 14.7893 15.0401 14.4142 15.4152C14.0391 15.7903 13.5304 16.001 13 16.001H7C6.46957 16.001 5.96086 15.7903 5.58579 15.4152C5.21072 15.0401 5 14.5314 5 14.001V8.00098C5 6.67489 5.52679 5.40312 6.46447 4.46544C7.40215 3.52776 8.67392 3.00098 10 3.00098C11.3261 3.00098 12.5979 3.52776 13.5355 4.46544C14.4732 5.40312 15 6.67489 15 8.00098V14.001ZM34 6.00098C26.268 6.00098 20 12.664 20 20.883C20 27.951 30.353 43.406 33.253 47.597C33.3341 47.7212 33.4448 47.8232 33.5753 47.8939C33.7057 47.9645 33.8517 48.0015 34 48.0015C34.1483 48.0015 34.2943 47.9645 34.4247 47.8939C34.5552 47.8232 34.6659 47.7212 34.747 47.597C37.647 43.406 48 27.951 48 20.883C48 12.664 41.732 6.00098 34 6.00098ZM34 25.001C32.8133 25.001 31.6533 24.6491 30.6666 23.9898C29.6799 23.3305 28.9109 22.3934 28.4567 21.2971C28.0026 20.2007 27.8838 18.9943 28.1153 17.8304C28.3468 16.6665 28.9182 15.5975 29.7574 14.7583C30.5965 13.9192 31.6656 13.3478 32.8295 13.1163C33.9933 12.8848 35.1997 13.0036 36.2961 13.4577C37.3925 13.9118 38.3295 14.6809 38.9888 15.6676C39.6481 16.6542 40 17.8143 40 19.001C40 20.5923 39.3679 22.1184 38.2426 23.2436C37.1174 24.3688 35.5913 25.001 34 25.001Z" fill="black"/>
<path d="M11 10.001H9C8.44772 10.001 8 10.4487 8 11.001V13.001C8 13.5533 8.44772 14.001 9 14.001H11C11.5523 14.001 12 13.5533 12 13.001V11.001C12 10.4487 11.5523 10.001 11 10.001Z" fill="black"/>
</g>
<defs>
<clipPath id="clip0_6013_52052">
<rect width="48" height="48" fill="white" transform="translate(0 0.000976562)"/>
</clipPath>
</defs>
</svg>
