<svg width="48" height="38" viewBox="0 0 48 38" fill="none" xmlns="http://www.w3.org/2000/svg">
<g clip-path="url(#clip0_6013_52058)">
<path d="M47.9904 23.6021C47.8151 17.2487 45.1548 11.2176 40.581 6.80458C36.0071 2.39152 29.8848 -0.0513541 23.5293 0.000818825C23.1267 -0.000258808 22.7399 0.157859 22.4533 0.440716C22.1667 0.723573 22.0035 1.10824 21.9993 1.5109C22.0056 1.91198 22.1698 2.2944 22.4562 2.57521C22.7426 2.85603 23.1282 3.01261 23.5293 3.01098C28.458 2.9809 33.2448 4.65932 37.0754 7.7607C40.9061 10.8621 43.5439 15.1948 44.5402 20.0219C44.4602 20.0219 44.3802 20.0019 44.3002 20.0019H42.2901C41.6139 20.0026 40.951 20.1897 40.3741 20.5425C39.7972 20.8954 39.3287 21.4003 39.02 22.002H37.9399L31.4397 15.5816C31.0522 15.2064 30.534 14.9966 29.9946 14.9966C29.4552 14.9966 28.937 15.2064 28.5495 15.5816L25.9994 18.1018L23.4393 15.5816C23.0519 15.2064 22.5337 14.9966 21.9943 14.9966C21.4549 14.9966 20.9367 15.2064 20.5492 15.5816L14.0589 22.002H6.49863C6.03898 22.002 5.58384 22.0925 5.15918 22.2684C4.73452 22.4443 4.34867 22.7021 4.02365 23.0272C3.69863 23.3522 3.44081 23.738 3.26491 24.1627C3.08902 24.5874 2.99848 25.0425 2.99848 25.5022C2.99848 25.9618 3.08902 26.417 3.26491 26.8416C3.44081 27.2663 3.69863 27.6521 4.02365 27.9772C4.34867 28.3022 4.73452 28.56 5.15918 28.7359C5.58384 28.9118 6.03898 29.0023 6.49863 29.0023H6.96865L0.488377 35.4027C0.238871 35.6356 0.0746923 35.9454 0.0221139 36.2826C-0.0304645 36.6199 0.0315961 36.965 0.198365 37.2628C0.31787 37.4602 0.480467 37.6279 0.673987 37.7536C0.867508 37.8793 1.08694 37.9595 1.31586 37.9884C1.54479 38.0172 1.77727 37.9939 1.99592 37.9202C2.21457 37.8465 2.41372 37.7243 2.57846 37.5628L11.2488 29.0023H12.9989C12.9975 29.2587 13.0472 29.5128 13.1451 29.7497C13.2429 29.9867 13.387 30.2018 13.5689 30.3824L8.48871 35.4027C8.34319 35.539 8.22625 35.703 8.14471 35.885C8.06317 36.067 8.01866 36.2633 8.01377 36.4627C8.00889 36.6621 8.04372 36.8604 8.11624 37.0462C8.18877 37.2319 8.29753 37.4014 8.4362 37.5447C8.57487 37.688 8.74067 37.8023 8.92395 37.8809C9.10722 37.9595 9.3043 38.0009 9.50372 38.0026C9.70313 38.0042 9.90088 37.9662 10.0855 37.8907C10.27 37.8152 10.4377 37.7038 10.5788 37.5628L17.2291 31.0024H24.9394L20.4892 35.4027C20.3437 35.539 20.2267 35.703 20.1452 35.885C20.0637 36.067 20.0192 36.2633 20.0143 36.4627C20.0094 36.6621 20.0442 36.8604 20.1167 37.0462C20.1893 37.2319 20.298 37.4014 20.4367 37.5447C20.5754 37.688 20.7412 37.8023 20.9244 37.8809C21.1077 37.9595 21.3048 38.0009 21.5042 38.0026C21.7036 38.0042 21.9014 37.9662 22.086 37.8907C22.2705 37.8152 22.4382 37.7038 22.5793 37.5628L27.4995 32.7125L32.3997 37.5528C32.6865 37.8375 33.0736 37.9981 33.4777 38C33.8818 38.0019 34.2704 37.8449 34.5598 37.5628C34.7005 37.4231 34.8119 37.2568 34.8877 37.0736C34.9635 36.8904 35.002 36.6939 35.0011 36.4956C35.0001 36.2974 34.9597 36.1013 34.8823 35.9188C34.8048 35.7363 34.6918 35.5711 34.5498 35.4327L30.0596 31.0024H34.7698L41.4001 37.5528C41.6868 37.8375 42.074 37.9981 42.4781 38C42.8822 38.0019 43.2708 37.8449 43.5602 37.5628C43.7008 37.4231 43.8123 37.2568 43.8881 37.0736C43.9638 36.8904 44.0024 36.6939 44.0014 36.4956C44.0005 36.2974 43.9601 36.1013 43.8826 35.9188C43.8052 35.7363 43.6922 35.5711 43.5502 35.4327L39.06 31.0024H44.3002C44.7865 31.0038 45.2682 30.909 45.7178 30.7235C46.1673 30.538 46.5757 30.2655 46.9195 29.9216C47.2634 29.5778 47.5359 29.1693 47.7214 28.7198C47.9069 28.2703 48.0017 27.7885 48.0004 27.3023V23.7021C48.0004 23.6621 47.9904 23.6321 47.9904 23.6021ZM22.0493 22.002H18.3391L21.9993 18.3918L23.8493 20.2219L22.0493 22.002ZM29.9396 22.002L28.1395 20.2219L29.9996 18.3918L33.6598 22.002H29.9396ZM44.5002 27.0022C44.2035 27.0022 43.9135 26.9143 43.6668 26.7494C43.4201 26.5846 43.2279 26.3503 43.1143 26.0762C43.0008 25.8021 42.9711 25.5005 43.029 25.2095C43.0868 24.9185 43.2297 24.6512 43.4395 24.4414C43.6493 24.2317 43.9166 24.0888 44.2076 24.0309C44.4985 23.973 44.8002 24.0027 45.0743 24.1163C45.3484 24.2298 45.5826 24.4221 45.7475 24.6688C45.9123 24.9154 46.0003 25.2055 46.0003 25.5022C46.0003 25.9 45.8422 26.2816 45.5609 26.5629C45.2796 26.8442 44.8981 27.0022 44.5002 27.0022Z" fill="black"/>
</g>
<defs>
<clipPath id="clip0_6013_52058">
<rect width="48" height="38" fill="white" transform="translate(0 0.000976562)"/>
</clipPath>
</defs>
</svg>
