<svg width="48" height="39" viewBox="0 0 48 39" fill="none" xmlns="http://www.w3.org/2000/svg">
<g clip-path="url(#clip0_6013_52060)">
<path d="M25.9998 37.881C25.9882 37.816 25.9701 37.7524 25.9458 37.691C25.934 37.6305 25.9166 37.5712 25.8938 37.514C25.8695 37.4776 25.8427 37.4429 25.8138 37.41C25.7683 37.3366 25.7135 37.2693 25.6508 37.21L25.6428 37.2L21.9879 34.177V18.752L25.0046 19.471V12.621L21.9879 11.203V2.99298C21.9879 2.19945 21.6726 1.43842 21.1114 0.877313C20.5501 0.316204 19.7889 0.000976562 18.9952 0.000976562C18.2015 0.000976563 17.4403 0.316204 16.8791 0.877313C16.3179 1.43842 16.0026 2.19945 16.0026 2.99298V11.201L1.22016 18.161C0.824302 18.3272 0.493984 18.6188 0.279949 18.991C0.247097 19.0338 0.220181 19.0809 0.199931 19.131C0.178962 19.169 0.162193 19.2093 0.149919 19.251C0.119777 19.3035 0.0994424 19.3611 0.0899055 19.421C-0.0144025 19.7479 -0.0282281 20.0969 0.0498963 20.431C0.0398941 20.441 0.0498963 20.451 0.0498963 20.461C0.0602252 20.5238 0.0804831 20.5845 0.10991 20.641C0.126102 20.7114 0.153094 20.7788 0.189928 20.841C0.355592 21.2124 0.636065 21.5208 0.990112 21.721C1.03298 21.7538 1.08008 21.7807 1.13014 21.801C1.16822 21.8219 1.20847 21.8387 1.25017 21.851C1.30275 21.8811 1.36036 21.9014 1.42021 21.911C1.60776 21.9708 1.80347 22.0012 2.00034 22.001C2.1451 21.9999 2.28931 21.9832 2.43044 21.951H2.46045L16.0036 18.761V34.183L12.3647 37.2L12.3567 37.21C12.2961 37.2681 12.243 37.3336 12.1987 37.405C12.1678 37.4396 12.1394 37.4764 12.1137 37.515L12.0076 37.882C12.0093 37.9245 12.0136 37.967 12.0206 38.009C12.0192 38.0966 12.0293 38.184 12.0506 38.269L12.0526 38.282C12.1152 38.3892 12.1752 38.4979 12.2327 38.608L12.2427 38.616C12.2961 38.6702 12.3555 38.7182 12.4197 38.759C12.4603 38.7958 12.5038 38.8293 12.5498 38.859C12.5819 38.8706 12.6146 38.8807 12.6478 38.889C12.7332 38.9263 12.8234 38.9516 12.9158 38.964C12.9523 38.9626 12.9887 38.9593 13.0249 38.954C13.1186 38.9561 13.2123 38.945 13.3029 38.921L13.3149 38.92L19.0042 37.053L24.6725 38.913L24.6945 38.92C24.9187 38.997 25.1637 38.9855 25.3797 38.888C25.4115 38.8739 25.4426 38.8582 25.4727 38.841C25.5703 38.7889 25.6585 38.7209 25.7338 38.64C25.7468 38.626 25.7638 38.621 25.7768 38.607C25.7795 38.6003 25.7828 38.594 25.7868 38.588C25.861 38.4968 25.9186 38.3932 25.9568 38.282V38.269C25.9793 38.1825 25.9901 38.0933 25.9888 38.004C25.9954 37.9633 25.9994 37.9222 26.0008 37.881M30.2168 16.581C30.8741 16.2929 31.573 16.1106 32.2873 16.041H32.2973C32.533 16.0136 32.7701 16.0003 33.0075 16.001H42.0095C42.9419 16.0005 43.8649 16.1869 44.7239 16.5494C45.583 16.9118 46.3605 17.4428 47.0107 18.111V12.001C47.0116 11.7381 46.9605 11.4776 46.8603 11.2345C46.7601 10.9914 46.6127 10.7706 46.4268 10.5847C46.2409 10.3988 46.02 10.2515 45.7768 10.1513C45.5337 10.0512 45.2732 10.0001 45.0102 10.001H30.0068C29.7438 10.0001 29.4833 10.0512 29.2401 10.1513C28.997 10.2515 28.7761 10.3988 28.5902 10.5847C28.4042 10.7706 28.2569 10.9914 28.1567 11.2345C28.0565 11.4776 28.0054 11.7381 28.0063 12.001V18.111C28.5807 17.5167 29.2586 17.0322 30.0068 16.681C30.0748 16.6436 30.1449 16.6102 30.2168 16.581Z" fill="black"/>
<path d="M47.0104 26.001V23.001C47.0104 21.6749 46.4835 20.4032 45.5456 19.4655C44.6077 18.5278 43.3357 18.001 42.0093 18.001H33.0072C31.9244 17.9966 30.8702 18.348 30.0065 19.001C29.8973 19.0725 29.7966 19.1564 29.7065 19.251C29.171 19.7179 28.7421 20.2943 28.4487 20.9413C28.1553 21.5883 28.0044 22.2907 28.0061 23.001V26.001C27.7411 26.0018 27.4871 26.1074 27.2997 26.2948C27.1123 26.4822 27.0067 26.736 27.0059 27.001V35.001C27.0067 35.266 27.1123 35.5199 27.2997 35.7073C27.4871 35.8946 27.7411 36.0002 28.0061 36.001H29.0063V37.501C29.0063 37.8988 29.1644 38.2804 29.4458 38.5617C29.7271 38.843 30.1087 39.001 30.5067 39.001C30.9046 39.001 31.2862 38.843 31.5676 38.5617C31.8489 38.2804 32.007 37.8988 32.007 37.501V36.001H43.0095V37.501C43.0095 37.8988 43.1676 38.2804 43.449 38.5617C43.7303 38.843 44.112 39.001 44.5099 39.001C44.9078 39.001 45.2894 38.843 45.5708 38.5617C45.8521 38.2804 46.0102 37.8988 46.0102 37.501V36.001H47.0004C47.2655 36.0002 47.5194 35.8946 47.7068 35.7073C47.8942 35.5199 47.9999 35.266 48.0007 35.001V27.001C48.0007 26.7375 47.8967 26.4847 47.7113 26.2974C47.5258 26.1102 47.274 26.0037 47.0104 26.001ZM31.0068 23.001C31.0086 22.6127 31.123 22.2332 31.336 21.9084C31.549 21.5836 31.8515 21.3275 32.2071 21.171H32.2171C32.4652 21.0584 32.7347 21.0004 33.0072 21.001H42.0093C42.4554 21.0038 42.888 21.1545 43.2392 21.4296C43.5904 21.7047 43.8403 22.0886 43.9497 22.521C43.9901 22.6778 44.0103 22.8391 44.0098 23.001V26.001H31.0068V23.001ZM31.5069 32.001C31.2102 32.001 30.9201 31.913 30.6733 31.7482C30.4266 31.5834 30.2343 31.3491 30.1208 31.075C30.0072 30.801 29.9775 30.4994 30.0354 30.2084C30.0933 29.9174 30.2362 29.6501 30.446 29.4404C30.6558 29.2306 30.9232 29.0877 31.2142 29.0298C31.5052 28.972 31.8069 29.0017 32.081 29.1152C32.3552 29.2287 32.5895 29.421 32.7544 29.6677C32.9192 29.9143 33.0072 30.2043 33.0072 30.501C33.0072 30.8988 32.8492 31.2804 32.5678 31.5617C32.2864 31.843 31.9048 32.001 31.5069 32.001ZM43.5096 32.001C43.2129 32.001 42.9228 31.913 42.6761 31.7482C42.4294 31.5834 42.2371 31.3491 42.1235 31.075C42.0099 30.801 41.9802 30.4994 42.0381 30.2084C42.096 29.9174 42.2389 29.6501 42.4487 29.4404C42.6586 29.2306 42.9259 29.0877 43.2169 29.0298C43.508 28.972 43.8096 29.0017 44.0838 29.1152C44.358 29.2287 44.5923 29.421 44.7571 29.6677C44.922 29.9143 45.01 30.2043 45.01 30.501C45.01 30.8988 44.8519 31.2804 44.5705 31.5617C44.2892 31.843 43.9076 32.001 43.5096 32.001Z" fill="black"/>
</g>
<defs>
<clipPath id="clip0_6013_52060">
<rect width="48" height="39" fill="white" transform="translate(0 0.000976562)"/>
</clipPath>
</defs>
</svg>
