<svg width="48" height="40" viewBox="0 0 48 40" fill="none" xmlns="http://www.w3.org/2000/svg">
<g clip-path="url(#clip0_6013_52064)">
<path d="M45 0.000979237H38V33.001H43C43.5299 33.0026 44.0377 33.2138 44.4125 33.5885C44.7872 33.9632 44.9984 34.471 45 35.001C44.9961 35.5302 44.7841 36.0366 44.4099 36.4109C44.0356 36.7851 43.5292 36.9971 43 37.001H3V8.00098H35V5.00098H0V40.001H45C45.3941 40.0015 45.7845 39.9243 46.1487 39.7737C46.5129 39.6231 46.8438 39.4022 47.1225 39.1235C47.4012 38.8448 47.6221 38.5139 47.7727 38.1497C47.9233 37.7854 48.0005 37.3951 48 37.001V3.00098C48.0005 2.60687 47.9233 2.21652 47.7727 1.85231C47.6221 1.48809 47.4012 1.15717 47.1225 0.878485C46.8438 0.599804 46.5129 0.378846 46.1487 0.228268C45.7845 0.0776906 45.3941 0.000452698 45 0.000979237Z" fill="black"/>
<path d="M14 34.001C14 34.2662 14.1054 34.5205 14.2929 34.7081C14.4804 34.8956 14.7348 35.001 15 35.001H16C16.2652 35.001 16.5196 34.8956 16.7071 34.7081C16.8946 34.5205 17 34.2662 17 34.001V32.001H18C18.2652 32.001 18.5196 31.8956 18.7071 31.7081C18.8946 31.5205 19 31.2662 19 31.001V27.001H20C20.2652 27.001 20.5196 26.8956 20.7071 26.7081C20.8946 26.5205 21 26.2662 21 26.001V25.001C21 24.7358 20.8946 24.4814 20.7071 24.2939C20.5196 24.1063 20.2652 24.001 20 24.001H15V22.001C15.2652 22.001 15.5196 21.8956 15.7071 21.7081C15.8946 21.5205 16 21.2662 16 21.001V20.001H17C17.2652 20.001 17.5196 19.8956 17.7071 19.7081C17.8946 19.5205 18 19.2662 18 19.001V17.001H19C19.2652 17.001 19.5196 16.8956 19.7071 16.7081C19.8946 16.5205 20 16.2662 20 16.001V15.001C20 14.7358 19.8946 14.4814 19.7071 14.2939C19.5196 14.1063 19.2652 14.001 19 14.001H14V12.001C14 11.7358 13.8946 11.4814 13.7071 11.2939C13.5196 11.1063 13.2652 11.001 13 11.001H10C9.73478 11.001 9.48043 11.1063 9.29289 11.2939C9.10536 11.4814 9 11.7358 9 12.001V14.001H7C6.73478 14.001 6.48043 14.1063 6.29289 14.2939C6.10536 14.4814 6 14.7358 6 15.001V16.001C6 16.2662 6.10536 16.5205 6.29289 16.7081C6.48043 16.8956 6.73478 17.001 7 17.001H9V19.001C9 19.2662 9.10536 19.5205 9.29289 19.7081C9.48043 19.8956 9.73478 20.001 10 20.001H11V21.001C11 21.2662 11.1054 21.5205 11.2929 21.7081C11.4804 21.8956 11.7348 22.001 12 22.001V24.001H11C10.7348 24.001 10.4804 24.1063 10.2929 24.2939C10.1054 24.4814 10 24.7358 10 25.001V26.001C10 26.2662 10.1054 26.5205 10.2929 26.7081C10.4804 26.8956 10.7348 27.001 11 27.001H12V29.001C12 29.2662 12.1054 29.5205 12.2929 29.7081C12.4804 29.8956 12.7348 30.001 13 30.001H14V34.001ZM32 24.001H35V12.001H26C25.7348 12.001 25.4804 12.1063 25.2929 12.2939C25.1054 12.4814 25 12.7358 25 13.001V15.001C25 15.2662 25.1054 15.5205 25.2929 15.7081C25.4804 15.8956 25.7348 16.001 26 16.001H27V18.001H24C23.735 18.0018 23.4811 18.1074 23.2938 18.2947C23.1064 18.4821 23.0008 18.736 23 19.001V20.001C23.0008 20.2659 23.1064 20.5198 23.2938 20.7072C23.4811 20.8946 23.735 21.0002 24 21.001H25V24.001H24C23.7348 24.001 23.4804 24.1063 23.2929 24.2939C23.1054 24.4814 23 24.7358 23 25.001V26.001C23 26.2662 23.1054 26.5205 23.2929 26.7081C23.4804 26.8956 23.7348 27.001 24 27.001H25V29.001C25 29.2662 25.1054 29.5205 25.2929 29.7081C25.4804 29.8956 25.7348 30.001 26 30.001H27V32.001C27.0008 32.2659 27.1064 32.5198 27.2938 32.7072C27.4811 32.8946 27.735 33.0002 28 33.001H31C31.265 33.0002 31.5189 32.8946 31.7062 32.7072C31.8936 32.5198 31.9992 32.2659 32 32.001V29.001H33C33.2652 29.001 33.5196 28.8956 33.7071 28.7081C33.8946 28.5205 34 28.2662 34 28.001V27.001C34 26.7358 33.8946 26.4814 33.7071 26.2939C33.5196 26.1063 33.2652 26.001 33 26.001H32V24.001Z" fill="black"/>
</g>
<defs>
<clipPath id="clip0_6013_52064">
<rect width="48" height="40" fill="white" transform="translate(0 0.000976562)"/>
</clipPath>
</defs>
</svg>
