<svg width="48" height="41" viewBox="0 0 48 41" fill="none" xmlns="http://www.w3.org/2000/svg">
<g clip-path="url(#clip0_6013_52072)">
<path d="M1.412 13.001L5.765 0.667977C5.83389 0.472916 5.96157 0.30402 6.13046 0.184561C6.29935 0.0651023 6.50113 0.000961428 6.708 0.000976565H40.33C40.5283 0.000973886 40.7221 0.059915 40.8868 0.17031C41.0515 0.280706 41.1797 0.437572 41.255 0.620977L46.353 13.001H1.412ZM0.706 15.001L0 17.001V19.001C0 20.0618 0.421427 21.0793 1.17157 21.8294C1.92172 22.5795 2.93913 23.001 4 23.001C5.06087 23.001 6.07828 22.5795 6.82843 21.8294C7.57857 21.0793 8 20.0618 8 19.001C8 20.0618 8.42143 21.0793 9.17157 21.8294C9.92172 22.5795 10.9391 23.001 12 23.001C13.0609 23.001 14.0783 22.5795 14.8284 21.8294C15.5786 21.0793 16 20.0618 16 19.001C16 20.0618 16.4214 21.0793 17.1716 21.8294C17.9217 22.5795 18.9391 23.001 20 23.001C21.0609 23.001 22.0783 22.5795 22.8284 21.8294C23.5786 21.0793 24 20.0618 24 19.001C24 20.0618 24.4214 21.0793 25.1716 21.8294C25.9217 22.5795 26.9391 23.001 28 23.001C29.0609 23.001 30.0783 22.5795 30.8284 21.8294C31.5786 21.0793 32 20.0618 32 19.001C32 20.0618 32.4214 21.0793 33.1716 21.8294C33.9217 22.5795 34.9391 23.001 36 23.001C37.0609 23.001 38.0783 22.5795 38.8284 21.8294C39.5786 21.0793 40 20.0618 40 19.001C40 20.0618 40.4214 21.0793 41.1716 21.8294C41.9217 22.5795 42.9391 23.001 44 23.001C45.0609 23.001 46.0783 22.5795 46.8284 21.8294C47.5786 21.0793 48 20.0618 48 19.001V17.001L47.177 15.001H0.706ZM40 23.461C38.9037 24.4526 37.4782 25.0016 36 25.0016C34.5218 25.0016 33.0963 24.4526 32 23.461C30.9037 24.4526 29.4782 25.0016 28 25.0016C26.5218 25.0016 25.0963 24.4526 24 23.461C22.9037 24.4526 21.4782 25.0016 20 25.0016C18.5218 25.0016 17.0963 24.4526 16 23.461C14.9037 24.4526 13.4782 25.0016 12 25.0016C10.5218 25.0016 9.09629 24.4526 8 23.461C6.90326 24.4518 5.47799 25.0005 4 25.001V41.001H8V31.001C8 30.4705 8.21071 29.9618 8.58579 29.5868C8.96086 29.2117 9.46957 29.001 10 29.001H14C14.5304 29.001 15.0391 29.2117 15.4142 29.5868C15.7893 29.9618 16 30.4705 16 31.001V41.001H44V25.001C42.522 25.0005 41.0967 24.4518 40 23.461Z" fill="black"/>
</g>
<defs>
<clipPath id="clip0_6013_52072">
<rect width="48" height="41" fill="white" transform="translate(0 0.000976562)"/>
</clipPath>
</defs>
</svg>
