<svg width="48" height="48" viewBox="0 0 48 48" fill="none" xmlns="http://www.w3.org/2000/svg">
<g clip-path="url(#clip0_6013_52068)">
<path d="M47.177 22.001H14.992C13.4105 22.6611 11.7138 23.001 10 23.001C8.28625 23.001 6.58952 22.6611 5.008 22.001H0.706L0 24.001V26.001C0 27.0618 0.421427 28.0793 1.17157 28.8294C1.92172 29.5795 2.93913 30.001 4 30.001C5.06087 30.001 6.07828 29.5795 6.82843 28.8294C7.57857 28.0793 8 27.0618 8 26.001C8 27.0618 8.42143 28.0793 9.17157 28.8294C9.92172 29.5795 10.9391 30.001 12 30.001C13.0609 30.001 14.0783 29.5795 14.8284 28.8294C15.5786 28.0793 16 27.0618 16 26.001C16 27.0618 16.4214 28.0793 17.1716 28.8294C17.9217 29.5795 18.9391 30.001 20 30.001C21.0609 30.001 22.0783 29.5795 22.8284 28.8294C23.5786 28.0793 24 27.0618 24 26.001C24 27.0618 24.4214 28.0793 25.1716 28.8294C25.9217 29.5795 26.9391 30.001 28 30.001C29.0609 30.001 30.0783 29.5795 30.8284 28.8294C31.5786 28.0793 32 27.0618 32 26.001C32 27.0618 32.4214 28.0793 33.1716 28.8294C33.9217 29.5795 34.9391 30.001 36 30.001C37.0609 30.001 38.0783 29.5795 38.8284 28.8294C39.5786 28.0793 40 27.0618 40 26.001C40 27.0618 40.4214 28.0793 41.1716 28.8294C41.9217 29.5795 42.9391 30.001 44 30.001C45.0609 30.001 46.0783 29.5795 46.8284 28.8294C47.5786 28.0793 48 27.0618 48 26.001V24.001L47.177 22.001ZM18.295 20.001H46.353L41.255 7.62098C41.1797 7.43757 41.0515 7.28071 40.8868 7.17031C40.7221 7.05992 40.5283 7.00097 40.33 7.00098H22.637C23.2078 9.35694 23.1033 11.8261 22.3353 14.1253C21.5674 16.4246 20.1671 18.461 18.295 20.001ZM10 5.00098C9.20459 5.00177 8.44199 5.3181 7.87956 5.88053C7.31712 6.44297 7.00079 7.20557 7 8.00098H13C12.9992 7.20557 12.6829 6.44297 12.1204 5.88053C11.558 5.3181 10.7954 5.00177 10 5.00098ZM44 32.001V48.001H16V38.001C15.9984 37.471 15.7872 36.9632 15.4125 36.5885C15.0377 36.2138 14.5299 36.0026 14 36.001H10C9.47005 36.0026 8.96227 36.2138 8.58753 36.5885C8.2128 36.9632 8.00158 37.471 8 38.001V48.001H4V32.001C5.47782 31.9995 6.90276 31.4509 8 30.461C9.09649 31.4521 10.5219 32.0009 12 32.0009C13.4781 32.0009 14.9035 31.4521 16 30.461C17.0965 31.4521 18.5219 32.0009 20 32.0009C21.4781 32.0009 22.9035 31.4521 24 30.461C25.0965 31.4521 26.5219 32.0009 28 32.0009C29.4781 32.0009 30.9035 31.4521 32 30.461C33.0965 31.4521 34.5219 32.0009 36 32.0009C37.4781 32.0009 38.9035 31.4521 40 30.461C41.0972 31.4509 42.5222 31.9995 44 32.001Z" fill="black"/>
<path d="M19.54 7.00098C18.8236 4.72139 17.3146 2.77367 15.2863 1.5105C13.2579 0.247343 10.8443 -0.247754 8.48247 0.114862C6.12063 0.477478 3.96671 1.67384 2.41072 3.4873C0.854728 5.30077 -0.000462077 7.61147 1.87306e-07 10.001C1.87306e-07 12.6531 1.05357 15.1967 2.92893 17.072C4.8043 18.9474 7.34784 20.001 10 20.001C12.6522 20.001 15.1957 18.9474 17.0711 17.072C18.9464 15.1967 20 12.6531 20 10.001C20.0018 8.98328 19.8466 7.97139 19.54 7.00098ZM15 14.001C14.9984 14.5309 14.7872 15.0387 14.4125 15.4134C14.0377 15.7882 13.5299 15.9994 13 16.001H7C6.47005 15.9994 5.96227 15.7882 5.58753 15.4134C5.2128 15.0387 5.00158 14.5309 5 14.001V8.00098C4.99875 6.76103 5.45828 5.56485 6.28937 4.64465C7.12047 3.72445 8.26383 3.14588 9.4975 3.02127C10.7312 2.89666 11.9671 3.23488 12.9655 3.97029C13.9638 4.7057 14.6533 5.78583 14.9 7.00098C14.969 7.32978 15.0025 7.66503 15 8.00098V14.001Z" fill="black"/>
<path d="M11 10.001H9C8.44772 10.001 8 10.4487 8 11.001V13.001C8 13.5533 8.44772 14.001 9 14.001H11C11.5523 14.001 12 13.5533 12 13.001V11.001C12 10.4487 11.5523 10.001 11 10.001Z" fill="black"/>
</g>
<defs>
<clipPath id="clip0_6013_52068">
<rect width="48" height="48" fill="white" transform="translate(0 0.000976562)"/>
</clipPath>
</defs>
</svg>
