<svg width="48" height="37" viewBox="0 0 48 37" fill="none" xmlns="http://www.w3.org/2000/svg">
<g clip-path="url(#clip0_6013_52075)">
<path d="M46 20.0034H41V15.0041H46C46.5304 15.0041 47.0391 14.7934 47.4142 14.4184C47.7893 14.0434 48 13.5347 48 13.0044C48 12.474 47.7893 11.9654 47.4142 11.5903C47.0391 11.2153 46.5304 11.0046 46 11.0046H40.699L30.275 2.06484C28.7224 0.733388 26.7445 0.00146484 24.699 0.00146484C22.6535 0.00146484 20.6756 0.733388 19.123 2.06484L8.699 11.0036H2C1.46957 11.0036 0.960859 11.2143 0.585786 11.5893C0.210714 11.9644 0 12.473 0 13.0034C0 13.5337 0.210714 14.0424 0.585786 14.4174C0.960859 14.7924 1.46957 15.0031 2 15.0031H8V20.0024H2C1.46957 20.0024 0.960859 20.2131 0.585786 20.5881C0.210714 20.9631 0 21.4718 0 22.0021C0 22.5325 0.210714 23.0411 0.585786 23.4162C0.960859 23.7912 1.46957 24.0019 2 24.0019H8.396C9.19062 27.6822 11.2222 30.9792 14.1523 33.344C17.0825 35.7087 20.7344 36.9985 24.5 36.9985C28.2656 36.9985 31.9175 35.7087 34.8477 33.344C37.7778 30.9792 39.8094 27.6822 40.604 24.0019H46C46.5304 24.0019 47.0391 23.7912 47.4142 23.4162C47.7893 23.0411 48 22.5325 48 22.0021C48 21.4718 47.7893 20.9631 47.4142 20.5881C47.0391 20.2131 46.5304 20.0034 46 20.0034Z" fill="black"/>
</g>
<defs>
<clipPath id="clip0_6013_52075">
<rect width="48" height="37" fill="white" transform="translate(0 0.000976562)"/>
</clipPath>
</defs>
</svg>
