<svg width="48" height="48" viewBox="0 0 48 48" fill="none" xmlns="http://www.w3.org/2000/svg">
<g clip-path="url(#clip0_6013_52078)">
<path d="M44.3077 0.000976563H3.69231C2.71395 0.00255929 1.77649 0.213781 1.08468 0.588511C0.39287 0.963242 0.00292196 1.47103 0 2.00098L0 14.001H48V2.00098C47.9971 1.47103 47.6071 0.963242 46.9153 0.588511C46.2235 0.213781 45.2861 0.00255929 44.3077 0.000976563ZM40.6154 8.00098C40.6125 8.53092 40.2225 9.03871 39.5307 9.41344C38.8389 9.78817 37.9014 9.99939 36.9231 10.001H11.0769C10.0986 9.99939 9.16111 9.78817 8.4693 9.41344C7.77749 9.03871 7.38754 8.53092 7.38462 8.00098V6.00098C7.38754 5.47103 7.77749 4.96324 8.4693 4.58851C9.16111 4.21378 10.0986 4.00256 11.0769 4.00098H36.9231C37.9014 4.00256 38.8389 4.21378 39.5307 4.58851C40.2225 4.96324 40.6125 5.47103 40.6154 6.00098V8.00098ZM0 46.001C0.00292196 46.5309 0.39287 47.0387 1.08468 47.4134C1.77649 47.7882 2.71395 47.9994 3.69231 48.001H44.3077C45.2861 47.9994 46.2235 47.7882 46.9153 47.4134C47.6071 47.0387 47.9971 46.5309 48 46.001V17.001H0V46.001Z" fill="black"/>
</g>
<defs>
<clipPath id="clip0_6013_52078">
<rect width="48" height="48" fill="white" transform="translate(0 0.000976562)"/>
</clipPath>
</defs>
</svg>
