<svg width="48" height="48" viewBox="0 0 48 48" fill="none" xmlns="http://www.w3.org/2000/svg">
<g clip-path="url(#clip0_6013_52083)">
<path d="M31.5102 14.5112C32.3146 13.7253 32.955 12.7876 33.3944 11.7524C33.8339 10.7173 34.0635 9.6052 34.07 8.48065C34.0766 7.3561 33.8599 6.24144 33.4326 5.20122C33.0053 4.16101 32.3758 3.21593 31.5806 2.42074C30.7854 1.62556 29.8403 0.996064 28.8001 0.568738C27.7599 0.141413 26.6452 -0.0752522 25.5207 -0.0687035C24.3961 -0.0621548 23.2841 0.167477 22.2489 0.606889C21.2137 1.0463 20.276 1.68676 19.4902 2.49115L10.9902 10.9912L2.49018 19.4912C1.68578 20.277 1.04532 21.2147 0.605912 22.2499C0.166501 23.285 -0.0631314 24.3971 -0.0696801 25.5217C-0.0762288 26.6462 0.140436 27.7609 0.567762 28.8011C0.995088 29.8413 1.62458 30.7864 2.41977 31.5816C3.21496 32.3767 4.16003 33.0062 5.20025 33.4336C6.24046 33.8609 7.35513 34.0776 8.47967 34.071C9.60422 34.0645 10.7163 33.8348 11.7515 33.3954C12.7866 32.956 13.7243 32.3155 14.5102 31.5112L23.0102 23.0112L31.5102 14.5112ZM13.1102 13.1112L21.6102 4.61115C22.6422 3.58012 24.0414 3.00098 25.5002 3.00098C26.959 3.00098 28.3581 3.58012 29.3902 4.61115C30.418 5.64487 30.995 7.04339 30.995 8.50115C30.995 9.95892 30.418 11.3574 29.3902 12.3912L20.8902 20.8912L13.1102 13.1112ZM35.0002 22.0012C32.5998 21.9986 30.2456 22.6613 28.1991 23.9159C26.1526 25.1704 24.4939 26.9677 23.4072 29.108C22.3205 31.2483 21.8482 33.648 22.0429 36.0405C22.2376 38.433 23.0917 40.7247 24.5102 42.6612L42.6602 24.5112C40.4405 22.8777 37.7561 21.9981 35.0002 22.0012ZM45.4902 27.3412L27.3402 45.4912C29.8416 47.3236 32.9161 48.2004 36.0078 47.9632C39.0995 47.726 42.0042 46.3903 44.1968 44.1978C46.3894 42.0052 47.725 39.1004 47.9622 36.0088C48.1995 32.9171 47.3226 29.8426 45.4902 27.3412Z" fill="black"/>
</g>
<defs>
<clipPath id="clip0_6013_52083">
<rect width="48" height="48" fill="white" transform="translate(0 0.000976562)"/>
</clipPath>
</defs>
</svg>
