<svg width="48" height="41" viewBox="0 0 48 41" fill="none" xmlns="http://www.w3.org/2000/svg">
<g clip-path="url(#clip0_6013_52081)">
<path d="M46 9.00098H35V2.00098C34.9984 1.47103 34.7872 0.963242 34.4125 0.588511C34.0377 0.213781 33.5299 0.00255929 33 0.000976562L15 0.000976563C14.4701 0.00255929 13.9623 0.213781 13.5875 0.588511C13.2128 0.963242 13.0016 1.47103 13 2.00098V9.00098H2C1.47005 9.00256 0.962265 9.21378 0.587535 9.58851C0.212805 9.96324 0.00158273 10.471 0 11.001L0 39.001C0.00158273 39.5309 0.212805 40.0387 0.587535 40.4134C0.962265 40.7882 1.47005 40.9994 2 41.001H46C46.5299 40.9994 47.0377 40.7882 47.4125 40.4134C47.7872 40.0387 47.9984 39.5309 48 39.001V11.001C47.9984 10.471 47.7872 9.96324 47.4125 9.58851C47.0377 9.21378 46.5299 9.00256 46 9.00098ZM18 5.00098H30V9.00098H18V5.00098ZM20.27 27.271C20.0374 27.503 19.7614 27.6869 19.4577 27.8121C19.1539 27.9374 18.8285 28.0016 18.5 28.001H16V30.501C16 31.164 15.7366 31.7999 15.2678 32.2687C14.7989 32.7376 14.163 33.001 13.5 33.001C12.837 33.001 12.2011 32.7376 11.7322 32.2687C11.2634 31.7999 11 31.164 11 30.501V28.001H8.5C7.83696 28.001 7.20107 27.7376 6.73223 27.2687C6.26339 26.7999 6 26.164 6 25.501C6 24.8379 6.26339 24.2021 6.73223 23.7332C7.20107 23.2644 7.83696 23.001 8.5 23.001H11V20.501C11 19.8379 11.2634 19.2021 11.7322 18.7332C12.2011 18.2644 12.837 18.001 13.5 18.001C14.163 18.001 14.7989 18.2644 15.2678 18.7332C15.7366 19.2021 16 19.8379 16 20.501V23.001H18.5C18.9945 23.0015 19.4777 23.1485 19.8887 23.4234C20.2997 23.6983 20.6201 24.0887 20.8095 24.5455C20.9988 25.0023 21.0486 25.5049 20.9526 25.99C20.8566 26.475 20.6191 26.9208 20.27 27.271Z" fill="black"/>
</g>
<defs>
<clipPath id="clip0_6013_52081">
<rect width="48" height="41" fill="white" transform="translate(0 0.000976562)"/>
</clipPath>
</defs>
</svg>
