<svg width="48" height="48" viewBox="0 0 48 48" fill="none" xmlns="http://www.w3.org/2000/svg">
<g clip-path="url(#clip0_6013_52086)">
<path d="M32 21.001C32.5299 20.9994 33.0377 20.7882 33.4125 20.4134C33.7872 20.0387 33.9984 19.5309 34 19.001V2.00098C33.9984 1.47103 33.7872 0.963242 33.4125 0.588511C33.0377 0.213781 32.5299 0.00255929 32 0.000976562L2 0.000976563C1.47005 0.00255929 0.962265 0.213781 0.587535 0.588511C0.212805 0.963242 0.00158273 1.47103 0 2.00098L0 19.001C0.00158273 19.5309 0.212805 20.0387 0.587535 20.4134C0.962265 20.7882 1.47005 20.9994 2 21.001H8.209L12.342 24.743C12.4878 24.8723 12.6684 24.9561 12.8613 24.9839C13.0542 25.0117 13.2511 24.9823 13.4275 24.8994C13.6039 24.8166 13.7522 24.6838 13.8539 24.5175C13.9557 24.3512 14.0065 24.1588 14 23.964V21.001H32ZM6.5 5.00098H27.5C27.8978 5.00098 28.2794 5.15901 28.5607 5.44032C28.842 5.72162 29 6.10315 29 6.50098C29 6.8988 28.842 7.28033 28.5607 7.56164C28.2794 7.84294 27.8978 8.00098 27.5 8.00098H6.5C6.10218 8.00098 5.72064 7.84294 5.43934 7.56164C5.15804 7.28033 5 6.8988 5 6.50098C5 6.10315 5.15804 5.72162 5.43934 5.44032C5.72064 5.15901 6.10218 5.00098 6.5 5.00098ZM5 13.501C5 13.1032 5.15804 12.7216 5.43934 12.4403C5.72064 12.159 6.10218 12.001 6.5 12.001H27.5C27.8978 12.001 28.2794 12.159 28.5607 12.4403C28.842 12.7216 29 13.1032 29 13.501C29 13.8988 28.842 14.2803 28.5607 14.5616C28.2794 14.8429 27.8978 15.001 27.5 15.001H6.5C6.10218 15.001 5.72064 14.8429 5.43934 14.5616C5.15804 14.2803 5 13.8988 5 13.501ZM45.22 27.781C44.338 26.8981 43.2904 26.198 42.1372 25.721C40.984 25.2439 39.748 24.9992 38.5 25.001H26.5C23.9804 25.001 21.5641 26.0019 19.7825 27.7835C18.0009 29.5651 17 31.9814 17 34.501C17 37.0205 18.0009 39.4369 19.7825 41.2185C21.5641 43.0001 23.9804 44.001 26.5 44.001H33V46.999C33 47.191 33.0553 47.379 33.1593 47.5405C33.2633 47.7019 33.4116 47.83 33.5865 47.9095C33.7614 47.9889 33.9554 48.0163 34.1454 47.9883C34.3354 47.9604 34.5134 47.8783 34.658 47.752L39 44.001C39.3592 43.9817 39.7167 43.9383 40.07 43.871H40.08C41.7996 43.58 43.406 42.8215 44.7233 41.6785C46.0407 40.5356 47.0182 39.0523 47.5489 37.391C48.0797 35.7296 48.1431 33.9543 47.7323 32.2593C47.3216 30.5643 46.4524 29.015 45.22 27.781ZM40.5 39.001H24.5C24.1022 39.001 23.7206 38.8429 23.4393 38.5616C23.158 38.2803 23 37.8988 23 37.501C23 37.1032 23.158 36.7216 23.4393 36.4403C23.7206 36.159 24.1022 36.001 24.5 36.001H40.5C40.8978 36.001 41.2794 36.159 41.5607 36.4403C41.842 36.7216 42 37.1032 42 37.501C42 37.8988 41.842 38.2803 41.5607 38.5616C41.2794 38.8429 40.8978 39.001 40.5 39.001ZM40.5 33.001H24.5C24.1022 33.001 23.7206 32.8429 23.4393 32.5616C23.158 32.2803 23 31.8988 23 31.501C23 31.1032 23.158 30.7216 23.4393 30.4403C23.7206 30.159 24.1022 30.001 24.5 30.001H40.5C40.8978 30.001 41.2794 30.159 41.5607 30.4403C41.842 30.7216 42 31.1032 42 31.501C42 31.8988 41.842 32.2803 41.5607 32.5616C41.2794 32.8429 40.8978 33.001 40.5 33.001Z" fill="black"/>
</g>
<defs>
<clipPath id="clip0_6013_52086">
<rect width="48" height="48" fill="white" transform="translate(0 0.000976562)"/>
</clipPath>
</defs>
</svg>
