<svg width="48" height="30" viewBox="0 0 48 30" fill="none" xmlns="http://www.w3.org/2000/svg">
<g clip-path="url(#clip0_6013_52089)">
<path d="M3 6.00098H45C45.7957 6.00098 46.5587 5.68491 47.1213 5.1223C47.6839 4.55969 48 3.79663 48 3.00098C48 2.20533 47.6839 1.44227 47.1213 0.879656C46.5587 0.317047 45.7957 0.000976563 45 0.000976563L3 0.000976562C2.20435 0.000976563 1.44129 0.317047 0.87868 0.879656C0.31607 1.44227 0 2.20533 0 3.00098C0 3.79663 0.31607 4.55969 0.87868 5.1223C1.44129 5.68491 2.20435 6.00098 3 6.00098ZM45 24.001H3C2.20435 24.001 1.44129 24.317 0.87868 24.8797C0.31607 25.4423 0 26.2053 0 27.001C0 27.7966 0.31607 28.5597 0.87868 29.1223C1.44129 29.6849 2.20435 30.001 3 30.001H45C45.7957 30.001 46.5587 29.6849 47.1213 29.1223C47.6839 28.5597 48 27.7966 48 27.001C48 26.2053 47.6839 25.4423 47.1213 24.8797C46.5587 24.317 45.7957 24.001 45 24.001ZM45 12.001H3C2.20435 12.001 1.44129 12.317 0.87868 12.8797C0.31607 13.4423 0 14.2053 0 15.001C0 15.7966 0.31607 16.5597 0.87868 17.1223C1.44129 17.6849 2.20435 18.001 3 18.001H45C45.7957 18.001 46.5587 17.6849 47.1213 17.1223C47.6839 16.5597 48 15.7966 48 15.001C48 14.2053 47.6839 13.4423 47.1213 12.8797C46.5587 12.317 45.7957 12.001 45 12.001Z" fill="black"/>
</g>
<defs>
<clipPath id="clip0_6013_52089">
<rect width="48" height="30" fill="white" transform="translate(0 0.000976562)"/>
</clipPath>
</defs>
</svg>
