<svg width="48" height="28" viewBox="0 0 48 28" fill="none" xmlns="http://www.w3.org/2000/svg">
<g clip-path="url(#clip0_6013_52092)">
<path d="M46.464 7.53698C46.1209 7.1947 45.6561 7.00249 45.1715 7.00249C44.6869 7.00249 44.2221 7.1947 43.879 7.53698L40 11.415L36.121 7.53698C35.7768 7.20088 35.314 7.01401 34.833 7.01686C34.352 7.01972 33.8914 7.21208 33.5513 7.55224C33.2111 7.8924 33.0187 8.35293 33.0159 8.83397C33.013 9.31502 33.1999 9.7778 33.536 10.122L37.414 14.001L33.536 17.88C33.1999 18.2241 33.013 18.6869 33.0159 19.168C33.0187 19.649 33.2111 20.1096 33.5513 20.4497C33.8914 20.7899 34.352 20.9822 34.833 20.9851C35.314 20.9879 35.7768 20.8011 36.121 20.465L40 16.587L43.879 20.465C44.2232 20.8011 44.686 20.9879 45.167 20.9851C45.648 20.9822 46.1086 20.7899 46.4487 20.4497C46.7889 20.1096 46.9813 19.649 46.9841 19.168C46.987 18.6869 46.8001 18.2241 46.464 17.88L42.586 14.001L46.464 10.122C46.8063 9.77891 46.9985 9.31409 46.9985 8.82948C46.9985 8.34487 46.8063 7.88004 46.464 7.53698ZM14.464 7.53698C14.1209 7.1947 13.6561 7.00249 13.1715 7.00249C12.6869 7.00249 12.2221 7.1947 11.879 7.53698L8 11.415L4.121 7.53698C3.77683 7.20088 3.31404 7.01401 2.833 7.01686C2.35195 7.01972 1.89142 7.21208 1.55126 7.55224C1.21111 7.8924 1.01874 8.35293 1.01589 8.83397C1.01303 9.31502 1.19991 9.7778 1.536 10.122L5.414 14.001L1.536 17.88C1.19991 18.2241 1.01303 18.6869 1.01589 19.168C1.01874 19.649 1.21111 20.1096 1.55126 20.4497C1.89142 20.7899 2.35195 20.9822 2.833 20.9851C3.31404 20.9879 3.77683 20.8011 4.121 20.465L8 16.587L11.879 20.465C12.2232 20.8011 12.686 20.9879 13.167 20.9851C13.648 20.9822 14.1086 20.7899 14.4487 20.4497C14.7889 20.1096 14.9813 19.649 14.9841 19.168C14.987 18.6869 14.8001 18.2241 14.464 17.88L10.586 14.001L14.464 10.122C14.8063 9.77891 14.9985 9.31409 14.9985 8.82948C14.9985 8.34487 14.8063 7.88004 14.464 7.53698ZM30.464 7.53698C30.1209 7.1947 29.6561 7.00249 29.1715 7.00249C28.6869 7.00249 28.2221 7.1947 27.879 7.53698L24 11.415L20.121 7.53698C19.7768 7.20088 19.314 7.01401 18.833 7.01686C18.3519 7.01972 17.8914 7.21208 17.5513 7.55224C17.2111 7.8924 17.0187 8.35293 17.0159 8.83397C17.013 9.31502 17.1999 9.7778 17.536 10.122L21.414 14.001L17.536 17.88C17.1999 18.2241 17.013 18.6869 17.0159 19.168C17.0187 19.649 17.2111 20.1096 17.5513 20.4497C17.8914 20.7899 18.3519 20.9822 18.833 20.9851C19.314 20.9879 19.7768 20.8011 20.121 20.465L24 16.587L27.879 20.465C28.2232 20.8011 28.686 20.9879 29.167 20.9851C29.6481 20.9822 30.1086 20.7899 30.4487 20.4497C30.7889 20.1096 30.9813 19.649 30.9841 19.168C30.987 18.6869 30.8001 18.2241 30.464 17.88L26.586 14.001L30.464 10.122C30.8063 9.77891 30.9985 9.31409 30.9985 8.82948C30.9985 8.34487 30.8063 7.88004 30.464 7.53698ZM2 4.00098H46C46.5304 4.00098 47.0391 3.79026 47.4142 3.41519C47.7893 3.04012 48 2.53141 48 2.00098C48 1.47054 47.7893 0.961836 47.4142 0.586763C47.0391 0.21169 46.5304 0.000976563 46 0.000976562L2 0.000976563C1.46957 0.000976563 0.960859 0.21169 0.585786 0.586763C0.210714 0.961836 0 1.47054 0 2.00098C0 2.53141 0.210714 3.04012 0.585786 3.41519C0.960859 3.79026 1.46957 4.00098 2 4.00098ZM46 24.001H2C1.46957 24.001 0.960859 24.2117 0.585786 24.5868C0.210714 24.9618 0 25.4705 0 26.001C0 26.5314 0.210714 27.0401 0.585786 27.4152C0.960859 27.7903 1.46957 28.001 2 28.001H46C46.5304 28.001 47.0391 27.7903 47.4142 27.4152C47.7893 27.0401 48 26.5314 48 26.001C48 25.4705 47.7893 24.9618 47.4142 24.5868C47.0391 24.2117 46.5304 24.001 46 24.001Z" fill="black"/>
</g>
<defs>
<clipPath id="clip0_6013_52092">
<rect width="48" height="28" fill="white" transform="translate(0 0.000976562)"/>
</clipPath>
</defs>
</svg>
