<svg width="48" height="48" viewBox="0 0 48 48" fill="none" xmlns="http://www.w3.org/2000/svg">
<g clip-path="url(#clip0_6013_52095)">
<path d="M11.9998 28.001C12.0025 29.061 12.4248 30.0769 13.1743 30.8265C13.9239 31.5761 14.9398 31.9983 15.9998 32.001H31.9998C33.0607 32.001 34.0781 31.5795 34.8283 30.8294C35.5784 30.0793 35.9998 29.0618 35.9998 28.001C35.9998 26.9401 35.5784 25.9227 34.8283 25.1726C34.0781 24.4224 33.0607 24.001 31.9998 24.001H15.9998C14.9398 24.0036 13.9239 24.4259 13.1743 25.1755C12.4248 25.925 12.0025 26.9409 11.9998 28.001ZM23.9998 15.001C24.5303 15.001 25.039 14.7903 25.4141 14.4152C25.7891 14.0401 25.9998 13.5314 25.9998 13.001V2.00098C25.9998 1.47054 25.7891 0.961836 25.4141 0.586763C25.039 0.21169 24.5303 0.000976563 23.9998 0.000976562C23.4694 0.000976563 22.9607 0.21169 22.5856 0.586763C22.2106 0.961836 21.9998 1.47054 21.9998 2.00098V13.001C21.9998 13.5314 22.2106 14.0401 22.5856 14.4152C22.9607 14.7903 23.4694 15.001 23.9998 15.001ZM35.9998 19.001C36.5302 19.0009 37.0389 18.7901 37.4138 18.415L44.4138 11.415C44.7782 11.0378 44.9797 10.5326 44.9752 10.0082C44.9706 9.48378 44.7603 8.98216 44.3895 8.61134C44.0187 8.24052 43.517 8.03018 42.9926 8.02563C42.4682 8.02107 41.963 8.22266 41.5858 8.58698L34.5858 15.587C34.3062 15.8667 34.1158 16.223 34.0387 16.6109C33.9615 16.9988 34.0011 17.4009 34.1525 17.7663C34.3038 18.1317 34.5601 18.444 34.8889 18.6638C35.2177 18.8835 35.6043 19.0009 35.9998 19.001ZM10.5858 18.415C10.963 18.7793 11.4682 18.9809 11.9926 18.9763C12.517 18.9718 13.0187 18.7614 13.3895 18.3906C13.7603 18.0198 13.9706 17.5182 13.9752 16.9938C13.9797 16.4694 13.7782 15.9642 13.4138 15.587L6.41384 8.58698C6.03663 8.22266 5.53143 8.02107 5.00704 8.02563C4.48264 8.03018 3.98102 8.24052 3.6102 8.61134C3.23938 8.98216 3.02905 9.48378 3.02449 10.0082C3.01993 10.5326 3.22152 11.0378 3.58584 11.415L10.5858 18.415Z" fill="black"/>
<path d="M46 35.001H2C0.89543 35.001 0 35.8964 0 37.001V46.001C0 47.1055 0.89543 48.001 2 48.001H46C47.1046 48.001 48 47.1055 48 46.001V37.001C48 35.8964 47.1046 35.001 46 35.001Z" fill="black"/>
</g>
<defs>
<clipPath id="clip0_6013_52095">
<rect width="48" height="48" fill="white" transform="translate(0 0.000976562)"/>
</clipPath>
</defs>
</svg>
