<svg id="missing_1" width="48" height="48" viewBox="0 0 42 48" fill="none" xmlns="http://www.w3.org/2000/svg">
<g clip-path="url(#clip0_7271_53828)">
<path d="M29 10C21.589 10 16 15.159 16 22C16 22.5304 16.2107 23.0391 16.5858 23.4142C16.9609 23.7893 17.4696 24 18 24C18.5304 24 19.0391 23.7893 19.4142 23.4142C19.7893 23.0391 20 22.5304 20 22C19.9737 20.615 20.3341 19.2501 21.0407 18.0586C21.7473 16.8671 22.7721 15.8962 24 15.255V46C24 46.5304 24.2107 47.0391 24.5858 47.4142C24.9609 47.7893 25.4696 48 26 48C26.5304 48 27.0391 47.7893 27.4142 47.4142C27.7893 47.0391 28 46.5304 28 46V31H30V46C30 46.5304 30.2107 47.0391 30.5858 47.4142C30.9609 47.7893 31.4696 48 32 48C32.5304 48 33.0391 47.7893 33.4142 47.4142C33.7893 47.0391 34 46.5304 34 46V15.255C35.2279 15.8962 36.2527 16.8671 36.9593 18.0586C37.6659 19.2501 38.0263 20.615 38 22C38 22.5304 38.2107 23.0391 38.5858 23.4142C38.9609 23.7893 39.4696 24 40 24C40.5304 24 41.0391 23.7893 41.4142 23.4142C41.7893 23.0391 42 22.5304 42 22C42 15.159 36.411 10 29 10Z" fill="currentColor"/>
<path d="M29 8C31.2091 8 33 6.20914 33 4C33 1.79086 31.2091 0 29 0C26.7909 0 25 1.79086 25 4C25 6.20914 26.7909 8 29 8Z" fill="currentColor"/>
<path d="M8 0C6.41775 0 4.87103 0.469192 3.55544 1.34824C2.23985 2.22729 1.21447 3.47672 0.608967 4.93853C0.00346625 6.40034 -0.15496 8.00887 0.153721 9.56072C0.462403 11.1126 1.22433 12.538 2.34315 13.6569C3.46197 14.7757 4.88743 15.5376 6.43928 15.8463C7.99113 16.155 9.59966 15.9965 11.0615 15.391C12.5233 14.7855 13.7727 13.7602 14.6518 12.4446C15.5308 11.129 16 9.58225 16 8C16 5.87827 15.1571 3.84344 13.6569 2.34315C12.1566 0.842855 10.1217 0 8 0ZM8 14.09C7.78442 14.09 7.57368 14.0261 7.39443 13.9063C7.21518 13.7865 7.07547 13.6163 6.99298 13.4171C6.91048 13.218 6.88889 12.9988 6.93095 12.7874C6.97301 12.5759 7.07682 12.3817 7.22926 12.2293C7.3817 12.0768 7.57592 11.973 7.78736 11.9309C7.99879 11.8889 8.21796 11.9105 8.41713 11.993C8.6163 12.0755 8.78653 12.2152 8.90631 12.3944C9.02608 12.5737 9.09 12.7844 9.09 13C9.08921 13.2888 8.97412 13.5656 8.76988 13.7699C8.56563 13.9741 8.28885 14.0892 8 14.09ZM10.94 5.8C10.8357 6.30718 10.6024 6.77888 10.2626 7.16953C9.92273 7.56017 9.48787 7.85654 9 8.03V9.6C9 9.86522 8.89465 10.1196 8.70711 10.3071C8.51957 10.4946 8.26522 10.6 8 10.6C7.73479 10.6 7.48043 10.4946 7.2929 10.3071C7.10536 10.1196 7 9.86522 7 9.6V7.2C7.0008 6.93503 7.10641 6.68113 7.29377 6.49377C7.48114 6.3064 7.73503 6.20079 8 6.2C8.07365 6.19739 8.1471 6.19071 8.22 6.18C8.40797 6.13619 8.57945 6.03944 8.71414 5.90121C8.84883 5.76297 8.94109 5.58904 8.98 5.4C8.99337 5.33417 9.00007 5.26717 9 5.2C8.9974 5.12635 8.99072 5.05291 8.98 4.98C8.93619 4.79203 8.83945 4.62056 8.70121 4.48587C8.56298 4.35118 8.38904 4.25891 8.2 4.22C8.06497 4.19016 7.92504 4.19016 7.79 4.22C7.62032 4.2571 7.46306 4.33733 7.33344 4.45294C7.20381 4.56855 7.10619 4.71564 7.05 4.88C6.95688 5.12152 6.77373 5.31753 6.53907 5.4268C6.30441 5.53606 6.03652 5.55008 5.79173 5.46589C5.54695 5.38171 5.34435 5.20588 5.22653 4.9754C5.10872 4.74491 5.08487 4.47771 5.16 4.23C5.32914 3.7383 5.62237 3.29859 6.01129 2.95346C6.40022 2.60833 6.87168 2.36947 7.38 2.26C7.78615 2.18046 8.20386 2.18046 8.61 2.26C9.18047 2.38143 9.70376 2.66493 10.1171 3.07646C10.5304 3.48799 10.8161 4.01006 10.94 4.58C10.9795 4.78431 10.9996 4.9919 11 5.2C11.0002 5.40151 10.9801 5.60252 10.94 5.8Z" fill="currentColor"/>
</g>
<defs>
<clipPath id="clip0_7271_53828">
<rect width="42" height="48" fill="white"/>
</clipPath>
</defs>
</svg>
