<svg width="48" height="48" viewBox="0 0 48 48" fill="none" xmlns="http://www.w3.org/2000/svg">
<g clip-path="url(#clip0_6013_52099)">
<path d="M33.1428 10.001C24.6731 10.001 18.2856 15.16 18.2856 22.001C18.2856 22.5314 18.5265 23.0401 18.9551 23.4152C19.3838 23.7903 19.9651 24.001 20.5714 24.001C21.1776 24.001 21.7589 23.7903 22.1876 23.4152C22.6163 23.0401 22.8571 22.5314 22.8571 22.001C22.8271 20.616 23.2389 19.2511 24.0465 18.0596C24.854 16.8681 26.0252 15.8972 27.4285 15.256V46.001C27.4285 46.5314 27.6693 47.0401 28.098 47.4152C28.5266 47.7903 29.108 48.001 29.7142 48.001C30.3204 48.001 30.9018 47.7903 31.3305 47.4152C31.7591 47.0401 31.9999 46.5314 31.9999 46.001V31.001H34.2856V46.001C34.2856 46.5314 34.5265 47.0401 34.9551 47.4152C35.3838 47.7903 35.9651 48.001 36.5714 48.001C37.1776 48.001 37.7589 47.7903 38.1876 47.4152C38.6163 47.0401 38.8571 46.5314 38.8571 46.001V15.256C40.2604 15.8972 41.4316 16.8681 42.2391 18.0596C43.0466 19.2511 43.4585 20.616 43.4285 22.001C43.4285 22.5314 43.6693 23.0401 44.098 23.4152C44.5266 23.7903 45.108 24.001 45.7142 24.001C46.3204 24.001 46.9018 23.7903 47.3305 23.4152C47.7591 23.0401 47.9999 22.5314 47.9999 22.001C47.9999 15.16 41.6125 10.001 33.1428 10.001Z" fill="black"/>
<path d="M33.1427 8.00098C35.6674 8.00098 37.7141 6.21012 37.7141 4.00098C37.7141 1.79184 35.6674 0.000976562 33.1427 0.000976562C30.618 0.000976562 28.5713 1.79184 28.5713 4.00098C28.5713 6.21012 30.618 8.00098 33.1427 8.00098Z" fill="black"/>
<path d="M9.14286 0.000976563C7.33458 0.000976563 5.5669 0.470168 4.06336 1.34922C2.55983 2.22827 1.38796 3.4777 0.695963 4.93951C0.00396143 6.40132 -0.177098 8.00985 0.175682 9.5617C0.528461 11.1135 1.39923 12.539 2.67789 13.6578C3.95654 14.7767 5.58564 15.5386 7.35918 15.8473C9.13272 16.1559 10.971 15.9975 12.6417 15.392C14.3123 14.7865 15.7402 13.7611 16.7449 12.4455C17.7495 11.1299 18.2857 9.58323 18.2857 8.00098C18.2857 5.87924 17.3225 3.84441 15.6078 2.34412C13.8932 0.843831 11.5677 0.000976563 9.14286 0.000976563ZM9.14286 14.091C8.89648 14.091 8.65564 14.027 8.45078 13.9073C8.24592 13.7875 8.08626 13.6173 7.99197 13.4181C7.89769 13.2189 7.87302 12.9998 7.92108 12.7883C7.96915 12.5769 8.08779 12.3827 8.26201 12.2302C8.43622 12.0778 8.65819 11.974 8.89984 11.9319C9.14148 11.8899 9.39195 11.9114 9.61958 11.9939C9.8472 12.0764 10.0418 12.2162 10.1786 12.3954C10.3155 12.5747 10.3886 12.7854 10.3886 13.001C10.3877 13.2898 10.2561 13.5666 10.0227 13.7708C9.78929 13.9751 9.47297 14.0902 9.14286 14.091ZM12.5029 5.80098C12.3837 6.30815 12.1171 6.77986 11.7287 7.1705C11.3403 7.56115 10.8433 7.85752 10.2857 8.03098V9.60098C10.2857 9.86619 10.1653 10.1205 9.95098 10.3081C9.73666 10.4956 9.44597 10.601 9.14286 10.601C8.83976 10.601 8.54907 10.4956 8.33474 10.3081C8.12041 10.1205 8 9.86619 8 9.60098V7.20098C8.00091 6.936 8.12161 6.68211 8.33574 6.49474C8.54987 6.30738 8.84004 6.20177 9.14286 6.20098C9.22703 6.19837 9.31097 6.19169 9.39429 6.18098C9.60911 6.13717 9.80508 6.04042 9.95901 5.90218C10.1129 5.76395 10.2184 5.59002 10.2629 5.40098C10.2781 5.33515 10.2858 5.26815 10.2857 5.20098C10.2827 5.12733 10.2751 5.05389 10.2629 4.98098C10.2128 4.79301 10.1022 4.62153 9.94424 4.48684C9.78626 4.35215 9.58748 4.25989 9.37143 4.22098C9.2171 4.19113 9.05719 4.19113 8.90286 4.22098C8.70893 4.25807 8.52922 4.3383 8.38107 4.45392C8.23292 4.56953 8.12136 4.71662 8.05715 4.88098C7.95072 5.1225 7.74141 5.31851 7.47322 5.42777C7.20504 5.53704 6.89888 5.55105 6.61912 5.46687C6.33937 5.38269 6.10783 5.20686 5.97318 4.97637C5.83854 4.74588 5.81128 4.47869 5.89715 4.23098C6.09044 3.73927 6.42556 3.29957 6.87005 2.95444C7.31454 2.60931 7.85334 2.37044 8.43429 2.26098C8.89845 2.18144 9.37584 2.18144 9.84 2.26098C10.492 2.38241 11.09 2.66591 11.5624 3.07744C12.0347 3.48897 12.3613 4.01104 12.5029 4.58098C12.548 4.78529 12.571 4.99288 12.5714 5.20098C12.5717 5.40248 12.5487 5.6035 12.5029 5.80098Z" fill="black"/>
</g>
<defs>
<clipPath id="clip0_6013_52099">
<rect width="48" height="48" fill="white" transform="translate(0 0.000976562)"/>
</clipPath>
</defs>
</svg>
