<svg width="48" height="48" viewBox="0 0 48 48" fill="none" xmlns="http://www.w3.org/2000/svg">
<g clip-path="url(#clip0_6013_52109)">
<path d="M40.6154 0.000976563H7.38462C5.42609 0.000976563 3.54779 0.422404 2.1629 1.17255C0.77802 1.92269 0 2.94011 0 4.00098L0 44.001C0 45.0618 0.77802 46.0793 2.1629 46.8294C3.54779 47.5795 5.42609 48.001 7.38462 48.001H40.6154C42.5739 48.001 44.4522 47.5795 45.8371 46.8294C47.222 46.0793 48 45.0618 48 44.001V4.00098C48 2.94011 47.222 1.92269 45.8371 1.17255C44.4522 0.422404 42.5739 0.000976563 40.6154 0.000976563ZM18.4615 3.00098H29.5385C30.0281 3.00098 30.4977 3.10633 30.8439 3.29387C31.1901 3.48141 31.3846 3.73576 31.3846 4.00098C31.3846 4.26619 31.1901 4.52055 30.8439 4.70808C30.4977 4.89562 30.0281 5.00098 29.5385 5.00098H18.4615C17.9719 5.00098 17.5023 4.89562 17.1561 4.70808C16.8099 4.52055 16.6154 4.26619 16.6154 4.00098C16.6154 3.73576 16.8099 3.48141 17.1561 3.29387C17.5023 3.10633 17.9719 3.00098 18.4615 3.00098ZM11.0769 45.001C10.3467 45.001 9.63278 44.8837 9.02559 44.6639C8.41839 44.4442 7.94514 44.1318 7.66568 43.7663C7.38621 43.4009 7.31309 42.9988 7.45556 42.6108C7.59803 42.2228 7.94969 41.8665 8.46607 41.5868C8.98245 41.3071 9.64035 41.1166 10.3566 41.0394C11.0728 40.9622 11.8152 41.0018 12.4899 41.1532C13.1646 41.3046 13.7412 41.5609 14.147 41.8898C14.5527 42.2187 14.7692 42.6054 14.7692 43.001C14.7663 43.5309 14.3764 44.0387 13.6846 44.4134C12.9927 44.7882 12.0553 44.9994 11.0769 45.001ZM11.0769 37.001C10.3467 37.001 9.63278 36.8837 9.02559 36.6639C8.41839 36.4442 7.94514 36.1318 7.66568 35.7663C7.38621 35.4009 7.31309 34.9988 7.45556 34.6108C7.59803 34.2228 7.94969 33.8665 8.46607 33.5868C8.98245 33.3071 9.64035 33.1166 10.3566 33.0394C11.0728 32.9622 11.8152 33.0018 12.4899 33.1532C13.1646 33.3046 13.7412 33.5609 14.147 33.8898C14.5527 34.2187 14.7692 34.6054 14.7692 35.001C14.7663 35.5309 14.3764 36.0387 13.6846 36.4134C12.9927 36.7882 12.0553 36.9994 11.0769 37.001ZM11.0769 29.001C10.3467 29.001 9.63278 28.8837 9.02559 28.6639C8.41839 28.4442 7.94514 28.1318 7.66568 27.7663C7.38621 27.4009 7.31309 26.9988 7.45556 26.6108C7.59803 26.2228 7.94969 25.8665 8.46607 25.5868C8.98245 25.3071 9.64035 25.1166 10.3566 25.0394C11.0728 24.9622 11.8152 25.0018 12.4899 25.1532C13.1646 25.3046 13.7412 25.5609 14.147 25.8898C14.5527 26.2187 14.7692 26.6054 14.7692 27.001C14.7663 27.5309 14.3764 28.0387 13.6846 28.4134C12.9927 28.7882 12.0553 28.9994 11.0769 29.001ZM24 45.001C23.2697 45.001 22.5559 44.8837 21.9487 44.6639C21.3415 44.4442 20.8682 44.1318 20.5888 43.7663C20.3093 43.4009 20.2362 42.9988 20.3786 42.6108C20.5211 42.2228 20.8728 41.8665 21.3891 41.5868C21.9055 41.3071 22.5634 41.1166 23.2797 41.0394C23.9959 40.9622 24.7383 41.0018 25.413 41.1532C26.0877 41.3046 26.6643 41.5609 27.07 41.8898C27.4758 42.2187 27.6923 42.6054 27.6923 43.001C27.6894 43.5309 27.2994 44.0387 26.6076 44.4134C25.9158 44.7882 24.9784 44.9994 24 45.001ZM24 37.001C23.2697 37.001 22.5559 36.8837 21.9487 36.6639C21.3415 36.4442 20.8682 36.1318 20.5888 35.7663C20.3093 35.4009 20.2362 34.9988 20.3786 34.6108C20.5211 34.2228 20.8728 33.8665 21.3891 33.5868C21.9055 33.3071 22.5634 33.1166 23.2797 33.0394C23.9959 32.9622 24.7383 33.0018 25.413 33.1532C26.0877 33.3046 26.6643 33.5609 27.07 33.8898C27.4758 34.2187 27.6923 34.6054 27.6923 35.001C27.6894 35.5309 27.2994 36.0387 26.6076 36.4134C25.9158 36.7882 24.9784 36.9994 24 37.001ZM24 29.001C23.2697 29.001 22.5559 28.8837 21.9487 28.6639C21.3415 28.4442 20.8682 28.1318 20.5888 27.7663C20.3093 27.4009 20.2362 26.9988 20.3786 26.6108C20.5211 26.2228 20.8728 25.8665 21.3891 25.5868C21.9055 25.3071 22.5634 25.1166 23.2797 25.0394C23.9959 24.9622 24.7383 25.0018 25.413 25.1532C26.0877 25.3046 26.6643 25.5609 27.07 25.8898C27.4758 26.2187 27.6923 26.6054 27.6923 27.001C27.6894 27.5309 27.2994 28.0387 26.6076 28.4134C25.9158 28.7882 24.9784 28.9994 24 29.001ZM36.9231 45.001C36.1928 45.001 35.4789 44.8837 34.8717 44.6639C34.2645 44.4442 33.7913 44.1318 33.5118 43.7663C33.2324 43.4009 33.1592 42.9988 33.3017 42.6108C33.4442 42.2228 33.7958 41.8665 34.3122 41.5868C34.8286 41.3071 35.4865 41.1166 36.2027 41.0394C36.919 40.9622 37.6614 41.0018 38.3361 41.1532C39.0107 41.3046 39.5874 41.5609 39.9931 41.8898C40.3988 42.2187 40.6154 42.6054 40.6154 43.001C40.6125 43.5309 40.2225 44.0387 39.5307 44.4134C38.8389 44.7882 37.9014 44.9994 36.9231 45.001ZM36.9231 37.001C36.1928 37.001 35.4789 36.8837 34.8717 36.6639C34.2645 36.4442 33.7913 36.1318 33.5118 35.7663C33.2324 35.4009 33.1592 34.9988 33.3017 34.6108C33.4442 34.2228 33.7958 33.8665 34.3122 33.5868C34.8286 33.3071 35.4865 33.1166 36.2027 33.0394C36.919 32.9622 37.6614 33.0018 38.3361 33.1532C39.0107 33.3046 39.5874 33.5609 39.9931 33.8898C40.3988 34.2187 40.6154 34.6054 40.6154 35.001C40.6125 35.5309 40.2225 36.0387 39.5307 36.4134C38.8389 36.7882 37.9014 36.9994 36.9231 37.001ZM36.9231 29.001C36.1928 29.001 35.4789 28.8837 34.8717 28.6639C34.2645 28.4442 33.7913 28.1318 33.5118 27.7663C33.2324 27.4009 33.1592 26.9988 33.3017 26.6108C33.4442 26.2228 33.7958 25.8665 34.3122 25.5868C34.8286 25.3071 35.4865 25.1166 36.2027 25.0394C36.919 24.9622 37.6614 25.0018 38.3361 25.1532C39.0107 25.3046 39.5874 25.5609 39.9931 25.8898C40.3988 26.2187 40.6154 26.6054 40.6154 27.001C40.6125 27.5309 40.2225 28.0387 39.5307 28.4134C38.8389 28.7882 37.9014 28.9994 36.9231 29.001ZM40.6154 21.001C40.6139 21.2659 40.4189 21.5198 40.073 21.7072C39.7271 21.8946 39.2584 22.0002 38.7692 22.001H9.23077C8.74159 22.0002 8.27286 21.8946 7.92696 21.7072C7.58105 21.5198 7.38608 21.2659 7.38462 21.001V9.00098C7.38608 8.736 7.58105 8.48211 7.92696 8.29474C8.27286 8.10738 8.74159 8.00177 9.23077 8.00098H38.7692C39.2584 8.00177 39.7271 8.10738 40.073 8.29474C40.4189 8.48211 40.6139 8.736 40.6154 9.00098V21.001Z" fill="black"/>
</g>
<defs>
<clipPath id="clip0_6013_52109">
<rect width="48" height="48" fill="white" transform="translate(0 0.000976562)"/>
</clipPath>
</defs>
</svg>
