<svg width="48" height="30" viewBox="0 0 48 30" fill="none" xmlns="http://www.w3.org/2000/svg">
<g clip-path="url(#clip0_6013_52104)">
<path fill-rule="evenodd" clip-rule="evenodd" d="M43.42 14.001H43V11.001C43 9.67489 42.4732 8.40312 41.5355 7.46544C40.5979 6.52776 39.3261 6.00098 38 6.00098H33V3.01098C32.9992 2.21292 32.6818 1.44777 32.1175 0.883462C31.5532 0.31915 30.7881 0.00177078 29.99 0.000976562H3.01C2.21194 0.00177078 1.4468 0.31915 0.882486 0.883462C0.318173 1.44777 0.00079422 2.21292 0 3.01098L0 26.001H5C5 24.4097 5.63214 22.8836 6.75736 21.7583C7.88258 20.6331 9.4087 20.001 11 20.001C12.5913 20.001 14.1174 20.6331 15.2426 21.7583C16.3679 22.8836 17 24.4097 17 26.001H29C28.9985 24.7607 29.3827 23.5506 30.0993 22.5383C30.816 21.526 31.8297 20.7616 33 20.351C33.6409 20.1176 34.3179 19.9991 35 20.001C36.5909 20.0023 38.1162 20.6349 39.2412 21.7598C40.3661 22.8847 40.9987 24.4101 41 26.001H46.47C46.6711 26.0018 46.8705 25.9627 47.0564 25.8861C47.2424 25.8095 47.4114 25.6968 47.5536 25.5546C47.6959 25.4124 47.8085 25.2434 47.8852 25.0574C47.9618 24.8714 48.0008 24.6721 48 24.471V18.581C48 17.3663 47.5175 16.2013 46.6586 15.3424C45.7996 14.4835 44.6347 14.001 43.42 14.001ZM37.11 9.00098C37.4897 9.00032 37.8658 9.07462 38.2167 9.21962C38.5677 9.36463 38.8865 9.57748 39.155 9.84597C39.4235 10.1145 39.6363 10.4333 39.7814 10.7842C39.9264 11.1352 40.0007 11.5113 40 11.891V14.001H33V9.00098H37.11ZM21 12.001H19V14.001C18.9961 14.5302 18.7841 15.0366 18.4099 15.4109C18.0357 15.7851 17.5292 15.9971 17 16.001C16.4701 15.9994 15.9623 15.7882 15.5875 15.4134C15.2128 15.0387 15.0016 14.5309 15 14.001V12.001H13C12.4708 11.9971 11.9643 11.7851 11.5901 11.4109C11.2159 11.0366 11.0039 10.5302 11 10.001C11.0016 9.47103 11.2128 8.96324 11.5875 8.58851C11.9623 8.21378 12.4701 8.00256 13 8.00098H15V6.00098C15.0037 5.47168 15.2156 4.9651 15.5898 4.59082C15.9641 4.21653 16.4707 4.00464 17 4.00098C17.5299 4.00256 18.0377 4.21378 18.4125 4.58851C18.7872 4.96324 18.9984 5.47103 19 6.00098V8.00098H21C21.5293 8.00464 22.0359 8.21653 22.4102 8.59082C22.7844 8.9651 22.9963 9.47168 23 10.001C22.9984 10.5309 22.7872 11.0387 22.4125 11.4134C22.0377 11.7882 21.5299 11.9994 21 12.001Z" fill="black"/>
<path d="M11 30.001C13.2091 30.001 15 28.2101 15 26.001C15 23.7918 13.2091 22.001 11 22.001C8.79086 22.001 7 23.7918 7 26.001C7 28.2101 8.79086 30.001 11 30.001Z" fill="black"/>
<path fill-rule="evenodd" clip-rule="evenodd" d="M35 22.001C34.2089 22.001 33.4355 22.2356 32.7777 22.6751C32.1199 23.1146 31.6072 23.7394 31.3045 24.4703C31.0017 25.2012 30.9225 26.0054 31.0769 26.7814C31.2312 27.5573 31.6122 28.27 32.1716 28.8294C32.731 29.3888 33.4437 29.7698 34.2196 29.9241C34.9956 30.0785 35.7998 29.9993 36.5307 29.6965C37.2616 29.3938 37.8864 28.8811 38.3259 28.2233C38.7654 27.5655 39 26.7921 39 26.001C39.0013 25.4753 38.8988 24.9546 38.6982 24.4687C38.4977 23.9828 38.2031 23.5413 37.8314 23.1696C37.4597 22.7979 37.0182 22.5033 36.5323 22.3028C36.0464 22.1022 35.5257 21.9997 35 22.001Z" fill="black"/>
</g>
<defs>
<clipPath id="clip0_6013_52104">
<rect width="48" height="30" fill="white" transform="translate(0 0.000976562)"/>
</clipPath>
</defs>
</svg>
