<svg width="48" height="43" viewBox="0 0 48 43" fill="none" xmlns="http://www.w3.org/2000/svg">
<g clip-path="url(#clip0_6013_52111)">
<path d="M47 0.000976562H1C0.735027 0.00176793 0.481133 0.107379 0.293767 0.294744C0.106402 0.482109 0.000791363 0.736003 0 1.00098L0 32.001C0.000791363 32.2659 0.106402 32.5198 0.293767 32.7072C0.481133 32.8946 0.735027 33.0002 1 33.001H19V39.001H10C9.46957 39.001 8.96086 39.2117 8.58579 39.5868C8.21071 39.9618 8 40.4705 8 41.001V42.501C8 42.6336 8.05268 42.7608 8.14645 42.8545C8.24021 42.9483 8.36739 43.001 8.5 43.001H39.5C39.6326 43.001 39.7598 42.9483 39.8536 42.8545C39.9473 42.7608 40 42.6336 40 42.501V41.001C40 40.4705 39.7893 39.9618 39.4142 39.5868C39.0391 39.2117 38.5304 39.001 38 39.001H29V33.001H47C47.265 33.0002 47.5189 32.8946 47.7062 32.7072C47.8936 32.5198 47.9992 32.2659 48 32.001V1.00098C47.9992 0.736003 47.8936 0.482109 47.7062 0.294744C47.5189 0.107379 47.265 0.00176793 47 0.000976562ZM25.9 31.501C25.784 31.9156 25.5355 32.2809 25.1924 32.5412C24.8493 32.8014 24.4306 32.9423 24 32.9423C23.5694 32.9423 23.1507 32.8014 22.8076 32.5412C22.4645 32.2809 22.216 31.9156 22.1 31.501C22.0518 31.3285 22.0282 31.1501 22.03 30.971C22.0256 30.6299 22.1156 30.2942 22.29 30.001C22.4607 29.6976 22.709 29.445 23.0095 29.2693C23.31 29.0935 23.6519 29.0009 24 29.0009C24.3481 29.0009 24.69 29.0935 24.9905 29.2693C25.291 29.445 25.5393 29.6976 25.71 30.001C25.8844 30.2942 25.9744 30.6299 25.97 30.971C25.9718 31.1501 25.9482 31.3285 25.9 31.501ZM4 27.001V4.00098H44V27.001H4Z" fill="black"/>
</g>
<defs>
<clipPath id="clip0_6013_52111">
<rect width="48" height="43" fill="white" transform="translate(0 0.000976562)"/>
</clipPath>
</defs>
</svg>
