<svg width="48" height="48" viewBox="0 0 48 48" fill="none" xmlns="http://www.w3.org/2000/svg">
<g clip-path="url(#clip0_6013_52113)">
<path d="M8.38048 33.801L1.20048 40.981C0.428699 41.7528 -0.00488283 42.7995 -0.00488281 43.891C-0.0048828 44.9824 0.428699 46.0292 1.20048 46.801C1.97226 47.5728 3.01902 48.0063 4.11048 48.0063C5.20194 48.0063 6.2487 47.5728 7.02048 46.801L14.2005 39.621C11.9398 38.0306 9.97086 36.0616 8.38048 33.801ZM28.0005 0.000977188C24.0449 0.000977188 20.1781 1.17396 16.8891 3.37159C13.6001 5.56921 11.0366 8.69279 9.52289 12.3473C8.00914 16.0018 7.61307 20.0232 8.38477 23.9028C9.15648 27.7824 11.0613 31.3461 13.8583 34.1431C16.6554 36.9402 20.2191 38.845 24.0987 39.6167C27.9783 40.3884 31.9996 39.9923 35.6541 38.4786C39.3087 36.9648 42.4322 34.4014 44.6299 31.1124C46.8275 27.8234 48.0005 23.9566 48.0005 20.001C48.0011 17.3744 47.4843 14.7733 46.4794 12.3465C45.4745 9.91972 44.0014 7.71468 42.1441 5.85738C40.2868 4.00007 38.0817 2.52691 35.6549 1.52205C33.2281 0.517187 30.6271 0.000320286 28.0005 0.000977188ZM39.0005 30.181C36.9517 32.3909 34.2848 33.9325 31.3472 34.6048C28.4097 35.2772 25.3377 35.0492 22.5316 33.9505C19.7256 32.8518 17.3155 30.9334 15.6154 28.4452C13.9153 25.957 13.0041 23.0145 13.0005 20.001C12.9975 17.5574 13.5916 15.1502 14.731 12.9886C15.8704 10.8269 17.5207 8.97639 19.5382 7.59787C21.5558 6.21935 23.8796 5.35459 26.3075 5.0788C28.7354 4.803 31.1939 5.12453 33.4693 6.01542C35.7446 6.9063 37.7679 8.33957 39.3631 10.1906C40.9583 12.0416 42.0771 14.2543 42.6223 16.6362C43.1675 19.0181 43.1226 21.4972 42.4913 23.8578C41.8601 26.2184 40.6618 28.389 39.0005 30.181Z" fill="black"/>
<path d="M39.414 18.5871L33.414 12.5871C33.2295 12.3961 33.0088 12.2438 32.7648 12.1389C32.5208 12.0341 32.2584 11.9789 31.9928 11.9766C31.7272 11.9743 31.4639 12.0249 31.2181 12.1255C30.9723 12.2261 30.749 12.3746 30.5612 12.5623C30.3734 12.7501 30.2249 12.9734 30.1244 13.2192C30.0238 13.465 29.9732 13.7284 29.9755 13.9939C29.9778 14.2595 30.033 14.5219 30.1378 14.7659C30.2426 15.01 30.395 15.2306 30.586 15.4151L33.172 18.0011H18C17.4696 18.0011 16.9609 18.2119 16.5858 18.5869C16.2107 18.962 16 19.4707 16 20.0011C16 20.5316 16.2107 21.0403 16.5858 21.4154C16.9609 21.7904 17.4696 22.0011 18 22.0011H33.172L30.586 24.5871C30.395 24.7716 30.2426 24.9923 30.1378 25.2363C30.033 25.4803 29.9778 25.7428 29.9755 26.0083C29.9732 26.2739 30.0238 26.5373 30.1244 26.783C30.2249 27.0288 30.3734 27.2521 30.5612 27.4399C30.749 27.6277 30.9723 27.7762 31.2181 27.8768C31.4639 27.9773 31.7272 28.0279 31.9928 28.0256C32.2584 28.0233 32.5208 27.9682 32.7648 27.8633C33.0088 27.7585 33.2295 27.6062 33.414 27.4151L39.414 21.4151C39.7889 21.0401 39.9996 20.5315 39.9996 20.0011C39.9996 19.4708 39.7889 18.9622 39.414 18.5871Z" fill="black"/>
</g>
<defs>
<clipPath id="clip0_6013_52113">
<rect width="48" height="48" fill="white" transform="translate(0 0.000976562)"/>
</clipPath>
</defs>
</svg>
