<svg width="48" height="48" viewBox="0 0 48 48" fill="none" xmlns="http://www.w3.org/2000/svg">
<g clip-path="url(#clip0_6013_52117)">
<path d="M24 10.001C37.2548 10.001 48 7.7624 48 5.00098C48 2.23955 37.2548 0.000976562 24 0.000976562C10.7452 0.000976562 0 2.23955 0 5.00098C0 7.7624 10.7452 10.001 24 10.001Z" fill="black"/>
<path d="M24 29.001C37.2548 29.001 48 26.7624 48 24.001C48 21.2396 37.2548 19.001 24 19.001C10.7452 19.001 0 21.2396 0 24.001C0 26.7624 10.7452 29.001 24 29.001Z" fill="black"/>
<path d="M24 48.001C37.2548 48.001 48 45.7624 48 43.001C48 40.2396 37.2548 38.001 24 38.001C10.7452 38.001 0 40.2396 0 43.001C0 45.7624 10.7452 48.001 24 48.001Z" fill="black"/>
</g>
<defs>
<clipPath id="clip0_6013_52117">
<rect width="48" height="48" fill="white" transform="translate(0 0.000976562)"/>
</clipPath>
</defs>
</svg>
