<svg width="48" height="48" viewBox="0 0 48 48" fill="none" xmlns="http://www.w3.org/2000/svg">
<g clip-path="url(#clip0_6013_52122)">
<path d="M46.5 45.0011H1.5C1.10218 45.0011 0.720644 45.1591 0.43934 45.4404C0.158035 45.7217 0 46.1032 0 46.5011C0 46.8989 0.158035 47.2804 0.43934 47.5617C0.720644 47.843 1.10218 48.0011 1.5 48.0011H46.5C46.8978 48.0011 47.2794 47.843 47.5607 47.5617C47.842 47.2804 48 46.8989 48 46.5011C48 46.1032 47.842 45.7217 47.5607 45.4404C47.2794 45.1591 46.8978 45.0011 46.5 45.0011ZM5.5 43.0011H42.5C42.8978 43.0011 43.2794 42.843 43.5607 42.5617C43.842 42.2804 44 41.8989 44 41.5011C44 41.1032 43.842 40.7217 43.5607 40.4404C43.2794 40.1591 42.8978 40.0011 42.5 40.0011H5.5C5.10218 40.0011 4.72064 40.1591 4.43934 40.4404C4.15804 40.7217 4 41.1032 4 41.5011C4 41.8989 4.15804 42.2804 4.43934 42.5617C4.72064 42.843 5.10218 43.0011 5.5 43.0011ZM12.94 20.2311C13.2626 20.5566 13.6178 20.8481 14 21.1011V38.0011H21V27.2611C21 25.4611 24 24.0011 24 24.0011C24 24.0011 27 25.4611 27 27.2611V38.0011H34V21.1011C34.3822 20.8481 34.7374 20.5566 35.06 20.2311L35.11 20.1911C36.3447 18.9505 37.0379 17.2714 37.0379 15.5211C37.0379 13.7707 36.3447 12.0916 35.11 10.8511L24.44 0.181065C24.3223 0.066232 24.1644 0.00195313 24 0.00195312C23.8356 0.00195313 23.6777 0.066232 23.56 0.181065L12.89 10.8511C11.6553 12.0916 10.9621 13.7707 10.9621 15.5211C10.9621 17.2714 11.6553 18.9505 12.89 20.1911L12.94 20.2311ZM24 9.00107C24.262 9.00212 24.5232 9.02892 24.78 9.08107C23.9328 9.25818 23.1813 9.74322 22.671 10.4424C22.1607 11.1415 21.9278 12.005 22.0174 12.866C22.1069 13.7269 22.5126 14.524 23.1559 15.1031C23.7992 15.6822 24.6344 16.0022 25.5 16.0011C26.0129 16.0025 26.5192 15.8862 26.98 15.6611C26.6072 16.0836 26.1485 16.4217 25.6346 16.6527C25.1208 16.8838 24.5635 17.0026 24 17.0011C22.9391 17.0011 21.9217 16.5796 21.1716 15.8295C20.4214 15.0793 20 14.0619 20 13.0011C20 11.9402 20.4214 10.9228 21.1716 10.1726C21.9217 9.42249 22.9391 9.00107 24 9.00107Z" fill="black"/>
</g>
<defs>
<clipPath id="clip0_6013_52122">
<rect width="48" height="48" fill="white" transform="translate(0 0.000976562)"/>
</clipPath>
</defs>
</svg>
