<svg width="48" height="48" viewBox="0 0 48 48" fill="none" xmlns="http://www.w3.org/2000/svg">
<g clip-path="url(#clip0_6013_52125)">
<path d="M18.7676 25.84L15.7176 22.79C15.4574 22.5301 15.1299 22.3478 14.7719 22.2636C14.4138 22.1793 14.0394 22.1964 13.6906 22.313L1.6906 26.319C1.37667 26.4172 1.08547 26.577 0.834027 26.7891C0.582588 27.0012 0.375963 27.2612 0.226239 27.5541C0.0765142 27.847 -0.0133037 28.1668 -0.0379609 28.4948C-0.062618 28.8228 -0.0216195 29.1524 0.0826366 29.4644C0.186893 29.7764 0.352313 30.0644 0.569221 30.3117C0.786129 30.559 1.05017 30.7605 1.3459 30.9045C1.64162 31.0485 1.9631 31.1321 2.29152 31.1504C2.61994 31.1687 2.94871 31.1213 3.2586 31.011L12.4386 27.951L4.7316 35.733C4.2627 36.2019 3.99927 36.8379 3.99927 37.501C3.99927 38.1642 4.2627 38.8001 4.7316 39.269C5.20051 39.7379 5.83647 40.0014 6.4996 40.0014C7.16273 40.0014 7.7987 39.7379 8.2676 39.269L20.1816 27.254L18.7676 25.84ZM25.4846 18.415L27.2526 20.183L39.2676 8.26904C39.7365 7.80014 39.9999 7.16417 39.9999 6.50104C39.9999 5.83792 39.7365 5.20195 39.2676 4.73304C38.7987 4.26414 38.1627 4.00072 37.4996 4.00072C36.8365 4.00072 36.2005 4.26414 35.7316 4.73304L27.9496 12.441L31.0106 3.26104C31.1209 2.95116 31.1683 2.62239 31.15 2.29396C31.1317 1.96554 31.0481 1.64407 30.9041 1.34834C30.7601 1.05261 30.5585 0.78857 30.3113 0.571662C30.064 0.354754 29.7759 0.189334 29.464 0.085078C29.152 -0.0191781 28.8224 -0.0601766 28.4944 -0.0355195C28.1664 -0.0108623 27.8466 0.0789556 27.5537 0.22868C27.2608 0.378405 27.0007 0.58503 26.7887 0.836468C26.5766 1.08791 26.4168 1.37911 26.3186 1.69304L22.3126 13.693C22.1959 14.0421 22.1788 14.4168 22.2633 14.775C22.3477 15.1332 22.5303 15.4608 22.7906 15.721L25.4846 18.415ZM45.1196 25.001L47.5596 22.561C47.8246 22.2767 47.9688 21.9006 47.962 21.512C47.9551 21.1234 47.7977 20.7526 47.5228 20.4778C47.248 20.203 46.8773 20.0456 46.4886 20.0387C46.1 20.0318 45.724 20.1761 45.4396 20.441L20.4396 45.441C20.2922 45.5784 20.174 45.744 20.092 45.928C20.0101 46.112 19.966 46.3106 19.9624 46.512C19.9589 46.7134 19.9959 46.9135 20.0714 47.1002C20.1468 47.287 20.2591 47.4567 20.4015 47.5991C20.544 47.7416 20.7136 47.8538 20.9004 47.9293C21.0872 48.0047 21.2872 48.0418 21.4886 48.0382C21.6901 48.0347 21.8887 47.9906 22.0727 47.9086C22.2567 47.8266 22.4223 47.7084 22.5596 47.561L24.9996 45.121L27.4396 47.561C27.7206 47.8424 28.1019 48.0007 28.4996 48.001H29.4996C29.8973 48.0007 30.2786 47.8424 30.5596 47.561L33.4996 44.621L36.4396 47.561C36.7209 47.8419 37.1021 47.9997 37.4996 47.9997C37.8971 47.9997 38.2784 47.8419 38.5596 47.561L47.5596 38.561C47.8405 38.2798 47.9983 37.8985 47.9983 37.501C47.9983 37.1035 47.8405 36.7223 47.5596 36.441L44.6196 33.501L47.5596 30.561C47.6998 30.4226 47.811 30.2575 47.8865 30.0754C47.9621 29.8934 48.0005 29.6981 47.9996 29.501V28.501C48.0005 28.304 47.9621 28.1087 47.8865 27.9267C47.811 27.7446 47.6998 27.5795 47.5596 27.441L45.1196 25.001ZM38.4996 31.622L40.3796 33.502L37.9996 35.879L36.1216 34.001L38.4996 31.622ZM28.9996 44.881L27.1196 43.001L29.4996 40.622L31.3796 42.502L28.9996 44.881ZM31.6206 38.501L33.9996 36.122L35.8796 38.002L33.4996 40.38L31.6206 38.501ZM37.4996 44.38L35.6196 42.5L37.9996 40.122L39.8786 42.001L37.4996 44.38ZM41.9996 39.88L40.1196 38L42.4996 35.622L44.3786 37.501L41.9996 39.88ZM42.4996 31.38L40.6216 29.501L43.0016 27.121L44.8796 29.001L42.4996 31.38ZM22.3456 25.181L23.0156 25.851C23.0126 25.901 22.9996 25.95 22.9996 26.001C22.9933 26.4653 23.0964 26.9245 23.3003 27.3415C23.5043 27.7586 23.8035 28.1218 24.1738 28.4018C24.5441 28.6819 24.9751 28.8709 25.4319 28.9536C25.8887 29.0364 26.3586 29.0105 26.8036 28.878C26.8323 28.9276 26.864 28.9754 26.8986 29.021L28.4386 30.561C28.7214 30.8344 29.1002 30.9858 29.4935 30.9826C29.8868 30.9793 30.2631 30.8218 30.5413 30.5438C30.8196 30.2658 30.9775 29.8896 30.9811 29.4963C30.9847 29.1031 30.8337 28.7241 30.5606 28.441L29.0206 26.901C28.9746 26.8661 28.9265 26.834 28.8766 26.805C29.009 26.3601 29.0349 25.8902 28.9522 25.4333C28.8695 24.9765 28.6804 24.5455 28.4004 24.1753C28.1203 23.805 27.7571 23.5058 27.3401 23.3018C26.923 23.0978 26.4638 22.9948 25.9996 23.001C25.9486 23.001 25.8996 23.014 25.8496 23.016L25.1796 22.346L11.4456 8.61104C11.2608 8.41913 11.0395 8.26598 10.7948 8.16056C10.5501 8.05514 10.2868 7.99956 10.0203 7.99706C9.75387 7.99456 9.48959 8.0452 9.24294 8.14602C8.99628 8.24683 8.7722 8.3958 8.58378 8.58422C8.39536 8.77264 8.24639 8.99672 8.14557 9.24338C8.04476 9.49003 7.99412 9.75431 7.99662 10.0208C7.99911 10.2872 8.0547 10.5505 8.16012 10.7952C8.26554 11.0399 8.41869 11.2612 8.6106 11.446L22.3456 25.181Z" fill="black"/>
</g>
<defs>
<clipPath id="clip0_6013_52125">
<rect width="48" height="48" fill="white" transform="translate(0 0.000976562)"/>
</clipPath>
</defs>
</svg>
