<svg width="48" height="48" viewBox="0 0 48 48" fill="none" xmlns="http://www.w3.org/2000/svg">
<g clip-path="url(#clip0_6013_52128)">
<path d="M48.0001 8.00108C47.9998 5.9171 47.1857 3.9156 45.7314 2.42297C44.2771 0.93034 42.2974 0.0645584 40.2142 0.0100614C38.1309 -0.0444357 36.1087 0.716659 34.5783 2.13121C33.0479 3.54576 32.1304 5.50196 32.0211 7.58308L14.0171 13.7401C13.0344 12.6124 11.7553 11.7826 10.325 11.345C8.89464 10.9074 7.37027 10.8793 5.92481 11.2641C4.47935 11.6489 3.17065 12.431 2.14717 13.5219C1.1237 14.6127 0.426417 15.9685 0.134429 17.4356C-0.157558 18.9026 -0.0325648 20.4221 0.495231 21.8217C1.02303 23.2213 1.9325 24.4449 3.12047 25.3538C4.30844 26.2627 5.72737 26.8205 7.21628 26.9639C8.70519 27.1073 10.2045 26.8306 11.5441 26.1651L24.4301 37.4281C23.9526 38.8276 23.8724 40.332 24.1983 41.7744C24.5243 43.2167 25.2437 44.5404 26.2766 45.5986C27.3095 46.6567 28.6155 47.4078 30.0496 47.7685C31.4836 48.1292 32.9896 48.0853 34.4002 47.6417C35.8108 47.1981 37.0708 46.3722 38.0403 45.2556C39.0098 44.1391 39.6509 42.7757 39.8923 41.3168C40.1336 39.858 39.9659 38.3607 39.4077 36.9914C38.8495 35.6221 37.9226 34.4344 36.7301 33.5601L41.1781 15.9051C43.0737 15.6239 44.8053 14.6712 46.0575 13.2205C47.3096 11.7697 47.999 9.91747 48.0001 8.00108ZM28.3521 32.8871L15.5301 21.6811C15.7893 20.9502 15.9409 20.1856 15.9801 19.4111L33.9771 13.2551C34.3838 13.7213 34.8432 14.1387 35.3461 14.4991L30.9161 32.0831C30.0222 32.2046 29.1553 32.4764 28.3521 32.8871Z" fill="black"/>
</g>
<defs>
<clipPath id="clip0_6013_52128">
<rect width="48" height="48" fill="white" transform="translate(0 0.000976562)"/>
</clipPath>
</defs>
</svg>
