<svg width="48" height="48" viewBox="0 0 48 48" fill="none" xmlns="http://www.w3.org/2000/svg">
<g clip-path="url(#clip0_6013_52130)">
<path d="M4.57143 18.001C7.09616 18.001 9.14286 16.2101 9.14286 14.001C9.14286 11.7918 7.09616 10.001 4.57143 10.001C2.0467 10.001 0 11.7918 0 14.001C0 16.2101 2.0467 18.001 4.57143 18.001Z" fill="black"/>
<path d="M45.999 27.4391C43.0773 25.4757 39.5433 24.3347 35.8643 24.1668C32.1854 23.999 28.5348 24.8123 25.3956 26.4991L15.7019 18.7891C17.4918 16.3788 18.3937 13.5461 18.2859 10.6731C18.067 6.85053 16.1931 3.24424 13.0447 0.587139C12.8339 0.396119 12.5817 0.243754 12.3028 0.138936C12.0239 0.0341181 11.724 -0.0210544 11.4205 -0.023362C11.117 -0.0256696 10.816 0.0249338 10.5351 0.125496C10.2542 0.226057 9.99902 0.374564 9.78441 0.562349C9.5698 0.750134 9.40008 0.973438 9.28515 1.21923C9.17022 1.46502 9.11239 1.72838 9.11503 1.99394C9.11767 2.2595 9.18072 2.52194 9.30051 2.76595C9.4203 3.00996 9.59444 3.23065 9.81274 3.41514C12.0997 5.32527 13.4908 7.91269 13.7145 10.6721C13.7122 13.6951 12.8093 15.9541 10.9556 17.5771C10.9327 17.5971 10.9179 17.6201 10.8973 17.6401L8.41389 19.9371C6.82777 21.2378 5.5663 22.8114 4.70878 24.5592C3.85125 26.307 3.41622 28.1911 3.43103 30.0931C3.79845 33.6607 5.66513 36.9823 8.66989 39.4151C9.10098 39.7795 9.67835 39.981 10.2777 39.9765C10.877 39.9719 11.4503 39.7616 11.874 39.3908C12.2978 39.02 12.5382 38.5183 12.5434 37.9939C12.5486 37.4695 12.3182 36.9643 11.9019 36.5871C9.7206 34.8474 8.33366 32.4749 7.99789 29.9091C7.96199 28.2146 8.49914 26.5485 9.54189 25.1201L37.3087 47.4731C37.7549 47.8325 38.346 48.0221 38.9519 48.0001C39.5578 47.9782 40.1289 47.7465 40.5396 47.3561C40.9503 46.9657 41.167 46.4486 41.1419 45.9184C41.1168 45.3882 40.8521 44.8885 40.4059 44.5291L24.8779 32.0291C29.0116 27.9601 37.1922 26.3991 43.1442 30.5641C43.6178 30.8954 44.2224 31.0485 44.825 30.9897C45.4275 30.9309 45.9787 30.665 46.3573 30.2506C46.7359 29.8362 46.9108 29.3072 46.8436 28.78C46.7764 28.2527 46.4726 27.7704 45.999 27.4391ZM29.143 10.0011C29.5977 10.0011 30.0337 9.8431 30.3552 9.5618C30.6767 9.28049 30.8573 8.89896 30.8573 8.50114V1.50114C30.8573 1.10331 30.6767 0.721783 30.3552 0.440479C30.0337 0.159174 29.5977 0.00113892 29.143 0.00113892C28.6884 0.00113892 28.2523 0.159174 27.9308 0.440479C27.6094 0.721783 27.4287 1.10331 27.4287 1.50114V8.50114C27.4287 8.89896 27.6094 9.28049 27.9308 9.5618C28.2523 9.8431 28.6884 10.0011 29.143 10.0011ZM46.2859 15.0011H38.2859C37.8312 15.0011 37.3952 15.1592 37.0737 15.4405C36.7522 15.7218 36.5716 16.1033 36.5716 16.5011C36.5716 16.899 36.7522 17.2805 37.0737 17.5618C37.3952 17.8431 37.8312 18.0011 38.2859 18.0011H46.2859C46.7405 18.0011 47.1766 17.8431 47.4981 17.5618C47.8196 17.2805 48.0002 16.899 48.0002 16.5011C48.0002 16.1033 47.8196 15.7218 47.4981 15.4405C47.1766 15.1592 46.7405 15.0011 46.2859 15.0011ZM37.2116 11.5611L42.9259 6.56114C43.2287 6.27679 43.3936 5.9007 43.3857 5.51209C43.3779 5.12349 43.198 4.75272 42.8839 4.4779C42.5698 4.20307 42.1461 4.04565 41.7019 4.03879C41.2578 4.03193 40.828 4.17618 40.503 4.44114L34.7887 9.44114C34.6203 9.57846 34.4852 9.74406 34.3915 9.92806C34.2978 10.1121 34.2475 10.3107 34.2434 10.5121C34.2393 10.7135 34.2817 10.9136 34.3679 11.1003C34.4541 11.2871 34.5824 11.4568 34.7452 11.5992C34.908 11.7417 35.1019 11.8539 35.3154 11.9294C35.5288 12.0048 35.7575 12.0419 35.9877 12.0383C36.2178 12.0348 36.4448 11.9907 36.6551 11.9087C36.8654 11.8267 37.0547 11.7085 37.2116 11.5611Z" fill="black"/>
</g>
<defs>
<clipPath id="clip0_6013_52130">
<rect width="48" height="48" fill="white" transform="translate(0 0.000976562)"/>
</clipPath>
</defs>
</svg>
