<svg width="48" height="48" viewBox="0 0 48 48" fill="none" xmlns="http://www.w3.org/2000/svg">
<g clip-path="url(#clip0_6013_52134)">
<path d="M16 8.50098C16 10.2249 16.7827 11.8782 18.1758 13.0972C19.569 14.3162 21.4584 15.001 23.4286 15.001C25.3988 15.001 27.2883 14.3162 28.6814 13.0972C30.0745 11.8782 30.8572 10.2249 30.8572 8.50098C30.8588 7.99551 30.7897 7.49177 30.6515 7.00098H16.2058C16.0676 7.49177 15.9985 7.99551 16 8.50098ZM17.1429 5.00098H29.7143C30.019 4.99707 30.3198 4.94068 30.5996 4.83503C30.8794 4.72938 31.1326 4.57655 31.3449 4.38525C31.5571 4.19396 31.7242 3.96795 31.8366 3.72014C31.9491 3.47233 32.0046 3.20757 32 2.94098V2.06098C32.004 1.7937 31.9477 1.52836 31.8343 1.28014C31.721 1.03192 31.5528 0.805677 31.3395 0.614358C31.1261 0.423039 30.8718 0.270391 30.591 0.165142C30.3101 0.0598936 30.0084 0.0041085 29.7029 0.000976562L29.5658 0.000976563L16.9943 0.760977C16.4078 0.802697 15.8611 1.03742 15.4645 1.41784C15.0679 1.79826 14.8509 2.29609 14.8572 2.81098V2.94098C14.8527 3.20757 14.9082 3.47233 15.0206 3.72014C15.133 3.96795 15.3001 4.19396 15.5124 4.38525C15.7246 4.57655 15.9779 4.72938 16.2576 4.83503C16.5374 4.94068 16.8382 4.99707 17.1429 5.00098Z" fill="black"/>
<path d="M45.6688 29.8209C43.4311 25.6803 39.6732 22.3147 34.9945 20.2609L37.0402 17.1609C37.1908 16.9338 37.2886 16.683 37.3282 16.4227C37.3677 16.1625 37.3482 15.898 37.2707 15.6444C37.1932 15.3907 37.0592 15.153 36.8765 14.9448C36.6938 14.7365 36.4659 14.5619 36.2059 14.4309L40.2059 8.37088L41.063 7.07088C41.1401 6.95547 41.1617 6.81803 41.1232 6.68869C41.0846 6.55935 40.989 6.44866 40.8573 6.38088L38.3773 5.13088C38.1149 5.00051 37.8042 4.96625 37.513 5.03556C37.2218 5.10488 36.9738 5.27215 36.823 5.50088C36.7203 5.65232 36.6651 5.8248 36.663 6.00088C36.6622 6.17709 36.7147 6.35036 36.815 6.50314C36.9154 6.65592 37.0601 6.78278 37.2345 6.87088L33.0859 13.1609C32.6851 13.1612 32.2914 13.2538 31.9444 13.4293C31.5973 13.6049 31.3092 13.8571 31.1088 14.1609L28.3545 18.3409C26.9181 18.1102 25.4605 17.9964 24.0002 18.0009C21.0543 17.9903 18.1308 18.4478 15.3716 19.3509L15.3945 19.3809L15.9316 20.2009L18.8573 24.6309H18.8688L18.8802 24.6709L21.5316 28.6809L22.4002 30.0009L33.5316 46.8709C34.0196 46.3412 34.2858 45.6813 34.2859 45.0009V26.8709C36.9899 28.5865 39.0313 30.9832 40.1373 33.7409C40.8108 35.4317 41.1508 37.2104 41.143 39.0009C41.143 39.7965 41.5043 40.5596 42.1472 41.1222C42.7902 41.6848 43.6623 42.0009 44.5716 42.0009C45.4809 42.0009 46.353 41.6848 46.996 41.1222C47.639 40.5596 48.0002 39.7965 48.0002 39.0009C48.0144 35.8271 47.2178 32.6907 45.6688 29.8209ZM28.5716 29.0009C28.1195 29.0009 27.6776 28.8836 27.3017 28.6638C26.9259 28.4441 26.6329 28.1317 26.4599 27.7663C26.2869 27.4008 26.2416 26.9987 26.3298 26.6107C26.418 26.2227 26.6357 25.8664 26.9554 25.5867C27.275 25.307 27.6823 25.1165 28.1257 25.0393C28.5691 24.9621 29.0287 25.0018 29.4463 25.1531C29.864 25.3045 30.221 25.5608 30.4721 25.8897C30.7233 26.2186 30.8573 26.6053 30.8573 27.0009C30.8555 27.5308 30.6141 28.0386 30.1859 28.4134C29.7576 28.7881 29.1773 28.9993 28.5716 29.0009ZM15.6573 25.7709L13.7259 22.8509L12.263 20.6309L12.2516 20.6109C7.91856 22.6897 4.44672 25.913 2.33161 29.8209C0.782543 32.6907 -0.0140106 35.8271 0.000186493 39.0009C0.000186493 39.7965 0.36141 40.5596 1.00439 41.1222C1.64737 41.6848 2.51944 42.0009 3.42876 42.0009C4.33807 42.0009 5.21014 41.6848 5.85312 41.1222C6.49611 40.5596 6.85733 39.7965 6.85733 39.0009C6.84952 37.2104 7.1896 35.4317 7.86304 33.7409C8.96911 30.9832 11.0105 28.5865 13.7145 26.8709V45.0009C13.7139 45.395 13.8021 45.7853 13.9742 46.1496C14.1463 46.5138 14.3988 46.8447 14.7173 47.1234C15.0358 47.4021 15.414 47.623 15.8303 47.7736C16.2465 47.9242 16.6926 48.0014 17.143 48.0009H30.3202L15.6688 25.8009L15.6573 25.7709Z" fill="black"/>
</g>
<defs>
<clipPath id="clip0_6013_52134">
<rect width="48" height="48" fill="white" transform="translate(0 0.000976562)"/>
</clipPath>
</defs>
</svg>
