<svg width="48" height="48" viewBox="0 0 48 48" fill="none" xmlns="http://www.w3.org/2000/svg">
<g clip-path="url(#clip0_6013_52138)">
<path d="M45 6.00098H37.5C37.4977 5.47103 37.1808 4.96324 36.6187 4.58851C36.0566 4.21378 35.295 4.00256 34.5 4.00098H30C30 2.94011 29.3679 1.92269 28.2427 1.17255C27.1175 0.422404 25.5913 0.000976563 24 0.000976562C22.4087 0.000976563 20.8826 0.422404 19.7574 1.17255C18.6322 1.92269 18 2.94011 18 4.00098H13.5C12.7051 4.00256 11.9434 4.21378 11.3813 4.58851C10.8193 4.96324 10.5024 5.47103 10.5 6.00098H3.00005C2.176 6.02363 1.39866 6.26216 0.836926 6.66474C0.275191 7.06732 -0.0255519 7.60141 4.491e-05 8.15098V45.851C-0.0255519 46.4005 0.275191 46.9346 0.836926 47.3372C1.39866 47.7398 2.176 47.9783 3.00005 48.001H45C45.8241 47.9783 46.6014 47.7398 47.1632 47.3372C47.7249 46.9346 48.0256 46.4005 48 45.851V8.15098C48.0256 7.60141 47.7249 7.06732 47.1632 6.66474C46.6014 6.26216 45.8241 6.02363 45 6.00098ZM25.5 5.00098C25.5 5.19876 25.4121 5.3921 25.2473 5.55655C25.0824 5.721 24.8482 5.84917 24.5741 5.92486C24.3 6.00054 23.9984 6.02035 23.7074 5.98176C23.4164 5.94318 23.1492 5.84794 22.9394 5.70808C22.7296 5.56823 22.5867 5.39005 22.5289 5.19607C22.471 5.00209 22.5007 4.80102 22.6142 4.61829C22.7278 4.43557 22.92 4.27939 23.1667 4.16951C23.4134 4.05963 23.7034 4.00098 24 4.00098C24.3975 4.00177 24.7783 4.10738 25.0594 4.29474C25.3404 4.48211 25.4989 4.736 25.5 5.00098ZM42 44.001H6.00004V10.001H10.5C10.5024 10.5309 10.8193 11.0387 11.3813 11.4134C11.9434 11.7882 12.7051 11.9994 13.5 12.001H34.5C35.295 11.9994 36.0566 11.7882 36.6187 11.4134C37.1808 11.0387 37.4977 10.5309 37.5 10.001H42V44.001Z" fill="black"/>
<path d="M23.9552 35.4011C23.2729 35.4011 22.6058 35.536 22.0385 35.7887C21.4711 36.0415 21.0289 36.4007 20.7678 36.8209C20.5067 37.2412 20.4384 37.7037 20.5715 38.1498C20.7046 38.596 21.0332 39.0058 21.5157 39.3275C21.9982 39.6491 22.6129 39.8682 23.2821 39.9569C23.9514 40.0457 24.6451 40.0001 25.2755 39.826C25.9059 39.652 26.4447 39.3572 26.8238 38.9789C27.2029 38.6007 27.4052 38.156 27.4052 37.7011C27.4052 37.0911 27.0417 36.5061 26.3947 36.0748C25.7477 35.6434 24.8702 35.4011 23.9552 35.4011ZM25.8002 16.9811C24.5666 16.8188 23.2968 16.8222 22.0652 16.9911C20.3338 17.2293 18.7433 17.7973 17.4866 18.6263C16.2299 19.4552 15.3609 20.5095 14.9852 21.6611C14.9003 21.8696 14.8599 22.0851 14.8652 22.3011C14.8637 22.8106 15.1543 23.3013 15.6777 23.6726C16.2011 24.0439 16.9175 24.2678 17.6804 24.2985C18.4433 24.3291 19.1949 24.1642 19.7814 23.8376C20.3679 23.5109 20.7449 23.0471 20.8352 22.5411C20.8471 22.5294 20.8524 22.5152 20.8502 22.5011C20.9913 22.1126 21.292 21.758 21.7186 21.4772C22.1452 21.1963 22.6808 21.0003 23.2652 20.9111C23.7054 20.8523 24.1582 20.8489 24.6002 20.9011C25.2018 20.9889 25.7537 21.1886 26.1918 21.4772C26.6299 21.7657 26.9362 22.1312 27.0752 22.5311C27.1183 22.6827 27.1384 22.8368 27.1352 22.9911C27.1385 23.1355 27.1184 23.2796 27.0752 23.4211C26.9402 23.9037 26.5523 24.3386 25.9808 24.6482C25.4093 24.9577 24.6914 25.1218 23.9552 25.1111C23.1596 25.1111 22.3965 25.3218 21.8339 25.6969C21.2713 26.072 20.9552 26.5807 20.9552 27.1111V31.2311C20.9552 31.7615 21.2713 32.2703 21.8339 32.6453C22.3965 33.0204 23.1596 33.2311 23.9552 33.2311C24.7509 33.2311 25.5139 33.0204 26.0765 32.6453C26.6391 32.2703 26.9552 31.7615 26.9552 31.2311V28.7811C28.462 28.4324 29.8071 27.8289 30.8588 27.0296C31.9106 26.2302 32.633 25.2625 32.9552 24.2211C33.0755 23.816 33.1358 23.4041 33.1352 22.9911C33.135 22.5683 33.0747 22.1464 32.9552 21.7311C32.5807 20.5625 31.7052 19.4915 30.435 18.6483C29.1648 17.8051 27.5547 17.2259 25.8002 16.9811Z" fill="black"/>
</g>
<defs>
<clipPath id="clip0_6013_52138">
<rect width="48" height="48" fill="white" transform="translate(0 0.000976562)"/>
</clipPath>
</defs>
</svg>
