<svg width="48" height="36" viewBox="0 0 48 36" fill="none" xmlns="http://www.w3.org/2000/svg">
<g clip-path="url(#clip0_6013_52142)">
<path d="M46.829 15.1731L32.829 1.17308C32.079 0.422782 31.0616 0.00116415 30.0007 0.000976625C28.9398 0.0007891 27.9223 0.422047 27.172 1.17208C26.4217 1.92211 26.0001 2.93948 25.9999 4.00037C25.9997 5.06127 26.421 6.07878 27.171 6.82908L34.343 14.0011H4C2.93913 14.0011 1.92172 14.4225 1.17157 15.1727C0.421427 15.9228 0 16.9402 0 18.0011C0 19.0619 0.421427 20.0794 1.17157 20.8295C1.92172 21.5797 2.93913 22.0011 4 22.0011H34.343L27.171 29.1731C26.7996 29.5446 26.5051 29.9856 26.3041 30.471C26.1032 30.9563 25.9998 31.4765 25.9999 32.0018C26 32.5271 26.1035 33.0472 26.3047 33.5325C26.5058 34.0178 26.8005 34.4587 27.172 34.8301C27.5435 35.2015 27.9845 35.496 28.4699 35.697C28.9552 35.8979 29.4754 36.0013 30.0007 36.0012C30.526 36.0011 31.0461 35.8975 31.5314 35.6964C32.0167 35.4953 32.4576 35.2006 32.829 34.8291L46.829 20.8291C47.5789 20.079 48.0001 19.0617 48.0001 18.0011C48.0001 16.9404 47.5789 15.9232 46.829 15.1731Z" fill="black"/>
</g>
<defs>
<clipPath id="clip0_6013_52142">
<rect width="48" height="36" fill="white" transform="translate(0 0.000976562)"/>
</clipPath>
</defs>
</svg>
