<svg width="48" height="48" viewBox="0 0 48 48" fill="none" xmlns="http://www.w3.org/2000/svg">
<g clip-path="url(#clip0_6013_52144)">
<path d="M37.5 14.001C37.1025 14.0018 36.7217 14.1074 36.4407 14.2947C36.1596 14.4821 36.0012 14.736 36 15.001V21.001C36 21.2662 36.158 21.5205 36.4393 21.7081C36.7206 21.8956 37.1022 22.001 37.5 22.001C37.8978 22.001 38.2794 21.8956 38.5607 21.7081C38.842 21.5205 39 21.2662 39 21.001V15.001C38.9988 14.736 38.8404 14.4821 38.5593 14.2947C38.2783 14.1074 37.8975 14.0018 37.5 14.001Z" fill="black"/>
<path d="M45 6.00098H3C2.20508 6.00256 1.4434 6.21378 0.881302 6.58851C0.319207 6.96324 0.00237409 7.47103 0 8.00098L0 30.001H48V8.00098C47.9976 7.47103 47.6808 6.96324 47.1187 6.58851C46.5566 6.21378 45.7949 6.00256 45 6.00098ZM16.5 23.001C16.5003 23.2259 16.3862 23.4442 16.1765 23.6204C15.9667 23.7965 15.6736 23.9201 15.345 23.971C15.2321 23.9899 15.1164 23.9999 15 24.001C14.723 24.0004 14.4516 23.9487 14.216 23.8517C13.9804 23.7546 13.7896 23.6159 13.665 23.451L9 17.241V23.001C9 23.2662 8.84196 23.5205 8.56066 23.7081C8.27936 23.8956 7.89782 24.001 7.5 24.001C7.10218 24.001 6.72064 23.8956 6.43934 23.7081C6.15804 23.5205 6 23.2662 6 23.001V13.001C6.00199 12.7771 6.11666 12.5601 6.32563 12.3847C6.5346 12.2094 6.82579 12.086 7.15254 12.0341C7.4793 11.9822 7.82271 12.005 8.12776 12.0987C8.43282 12.1924 8.68186 12.3517 8.835 12.551L13.5 18.761V13.001C13.5 12.7358 13.658 12.4814 13.9393 12.2939C14.2206 12.1063 14.6022 12.001 15 12.001C15.3978 12.001 15.7794 12.1063 16.0607 12.2939C16.342 12.4814 16.5 12.7358 16.5 13.001V23.001ZM30 20.501C30 21.4292 29.4469 22.3195 28.4623 22.9759C27.4777 23.6322 26.1424 24.001 24.75 24.001C23.3576 24.001 22.0223 23.6322 21.0377 22.9759C20.0531 22.3195 19.5 21.4292 19.5 20.501V15.001C19.504 14.2061 19.9793 13.4446 20.8224 12.8826C21.6654 12.3205 22.8077 12.0036 24 12.001H27C27.3978 12.001 27.7794 12.1063 28.0607 12.2939C28.342 12.4814 28.5 12.7358 28.5 13.001C28.5 13.2662 28.342 13.5205 28.0607 13.7081C27.7794 13.8956 27.3978 14.001 27 14.001H24C23.6025 14.0018 23.2217 14.1074 22.9407 14.2947C22.6596 14.4821 22.5012 14.736 22.5 15.001V20.501C22.5 20.8988 22.7371 21.2803 23.159 21.5616C23.581 21.8429 24.1533 22.001 24.75 22.001C25.3467 22.001 25.919 21.8429 26.341 21.5616C26.7629 21.2803 27 20.8988 27 20.501V19.001H25.5C25.1022 19.001 24.7206 18.8956 24.4393 18.7081C24.158 18.5205 24 18.2662 24 18.001C24 17.7358 24.158 17.4814 24.4393 17.2939C24.7206 17.1063 25.1022 17.001 25.5 17.001H27C27.7949 17.0026 28.5566 17.2138 29.1187 17.5885C29.6808 17.9632 29.9976 18.471 30 19.001V20.501ZM42 21.001C42 21.7966 41.5259 22.5597 40.682 23.1223C39.8381 23.6849 38.6935 24.001 37.5 24.001C36.3065 24.001 35.1619 23.6849 34.318 23.1223C33.4741 22.5597 33 21.7966 33 21.001V15.001C33 14.2053 33.4741 13.4423 34.318 12.8797C35.1619 12.317 36.3065 12.001 37.5 12.001C38.6935 12.001 39.8381 12.317 40.682 12.8797C41.5259 13.4423 42 14.2053 42 15.001V21.001ZM9 4.00098H39C39.7957 4.00098 40.5587 3.79026 41.1213 3.41519C41.6839 3.04012 42 2.53141 42 2.00098C42 1.47054 41.6839 0.961836 41.1213 0.586763C40.5587 0.21169 39.7957 0.000976563 39 0.000976562L9 0.000976563C8.20435 0.000976563 7.44129 0.21169 6.87868 0.586763C6.31607 0.961836 6 1.47054 6 2.00098C6 2.53141 6.31607 3.04012 6.87868 3.41519C7.44129 3.79026 8.20435 4.00098 9 4.00098ZM0 48.001H18V38.001C18.0024 37.471 18.3192 36.9632 18.8813 36.5885C19.4434 36.2138 20.2051 36.0026 21 36.001H27C27.7949 36.0026 28.5566 36.2138 29.1187 36.5885C29.6808 36.9632 29.9976 37.471 30 38.001V48.001H48V32.001H0V48.001Z" fill="black"/>
</g>
<defs>
<clipPath id="clip0_6013_52144">
<rect width="48" height="48" fill="white" transform="translate(0 0.000976562)"/>
</clipPath>
</defs>
</svg>
