<svg width="48" height="35" viewBox="0 0 48 35" fill="none" xmlns="http://www.w3.org/2000/svg">
<g clip-path="url(#clip0_6013_52148)">
<path d="M47.5 0.000976563H16.5C16.3674 0.000976563 16.2402 0.053655 16.1464 0.147423C16.0527 0.241191 16 0.368368 16 0.500977V8.00098H26.5C27.1628 8.00177 27.7982 8.26542 28.2669 8.73409C28.7356 9.20275 28.9992 9.83818 29 10.501V34.501C29.0002 34.6689 28.9834 34.8364 28.95 35.001H47.5C47.6326 35.001 47.7598 34.9483 47.8536 34.8545C47.9473 34.7608 48 34.6336 48 34.501V0.500977C48 0.368368 47.9473 0.241191 47.8536 0.147423C47.7598 0.053655 47.6326 0.000976563 47.5 0.000976563ZM43.56 20.561C43.2788 20.8419 42.8975 20.9997 42.5 20.9997C42.1025 20.9997 41.7212 20.8419 41.44 20.561L40 19.123V27.501C40 27.8988 39.842 28.2803 39.5607 28.5616C39.2794 28.8429 38.8978 29.001 38.5 29.001C38.1022 29.001 37.7206 28.8429 37.4393 28.5616C37.158 28.2803 37 27.8988 37 27.501V19.122L35.56 20.562C35.277 20.8351 34.898 20.9861 34.5047 20.9825C34.1114 20.9789 33.7353 20.821 33.4573 20.5427C33.1793 20.2645 33.0217 19.8882 33.0185 19.4949C33.0153 19.1016 33.1666 18.7227 33.44 18.44L37.39 14.49C37.395 14.484 37.403 14.483 37.409 14.477C37.5466 14.3287 37.7129 14.2099 37.8979 14.128C38.0828 14.046 38.2826 14.0026 38.4848 14.0004C38.6871 13.9981 38.8878 14.0371 39.0745 14.1149C39.2612 14.1927 39.4302 14.3078 39.571 14.453L39.578 14.458L43.561 18.44C43.7004 18.5793 43.811 18.7447 43.8864 18.9267C43.9618 19.1088 44.0007 19.3039 44.0007 19.501C44.0007 19.698 43.9618 19.8932 43.8864 20.0752C43.811 20.2573 43.7004 20.4227 43.561 20.562" fill="black"/>
<path d="M26.5 10.001H0.5C0.367392 10.001 0.240215 10.0537 0.146447 10.1474C0.0526784 10.2412 0 10.3684 0 10.501L0 34.501C0 34.6336 0.0526784 34.7608 0.146447 34.8545C0.240215 34.9483 0.367392 35.001 0.5 35.001H26.5C26.6326 35.001 26.7598 34.9483 26.8536 34.8545C26.9473 34.7608 27 34.6336 27 34.501V10.501C27 10.3684 26.9473 10.2412 26.8536 10.1474C26.7598 10.0537 26.6326 10.001 26.5 10.001ZM17 19.001H10C9.46957 19.001 8.96086 18.7903 8.58579 18.4152C8.21071 18.0401 8 17.5314 8 17.001C8 16.4705 8.21071 15.9618 8.58579 15.5868C8.96086 15.2117 9.46957 15.001 10 15.001H17C17.5304 15.001 18.0391 15.2117 18.4142 15.5868C18.7893 15.9618 19 16.4705 19 17.001C19 17.5314 18.7893 18.0401 18.4142 18.4152C18.0391 18.7903 17.5304 19.001 17 19.001Z" fill="black"/>
</g>
<defs>
<clipPath id="clip0_6013_52148">
<rect width="48" height="35" fill="white" transform="translate(0 0.000976562)"/>
</clipPath>
</defs>
</svg>
