<svg width="48" height="42" viewBox="0 0 48 42" fill="none" xmlns="http://www.w3.org/2000/svg">
<g clip-path="url(#clip0_6013_52152)">
<path d="M43.4286 0.000976563H4.57143C3.35901 0.000976563 2.19625 0.422404 1.33894 1.17255C0.481631 1.92269 0 2.94011 0 4.00098L0 38.001C0 39.0618 0.481631 40.0793 1.33894 40.8294C2.19625 41.5795 3.35901 42.001 4.57143 42.001H43.4286C44.641 42.001 45.8038 41.5795 46.6611 40.8294C47.5184 40.0793 48 39.0618 48 38.001V4.00098C48 2.94011 47.5184 1.92269 46.6611 1.17255C45.8038 0.422404 44.641 0.000976563 43.4286 0.000976563ZM20.5714 29.501C20.5704 29.8364 20.4418 30.1619 20.2059 30.4263C19.97 30.6907 19.6402 30.8788 19.2686 30.961C19.1338 30.9888 18.9956 31.0022 18.8571 31.001C18.5448 31.0005 18.2384 30.9258 17.9707 30.7849C17.703 30.644 17.484 30.4422 17.3371 30.201L10.2857 18.541V29.501C10.2857 29.8988 10.1051 30.2803 9.78361 30.5616C9.46212 30.8429 9.02609 31.001 8.57143 31.001C8.11677 31.001 7.68074 30.8429 7.35925 30.5616C7.03775 30.2803 6.85714 29.8988 6.85714 29.501V12.501C6.85815 12.1656 6.98675 11.84 7.22266 11.5756C7.45857 11.3113 7.78836 11.1232 8.16 11.041C8.53266 10.9636 8.92408 10.9962 9.27337 11.1337C9.62267 11.2711 9.91027 11.5057 10.0914 11.801L17.1429 23.461V12.501C17.1429 12.1032 17.3235 11.7216 17.645 11.4403C17.9665 11.159 18.4025 11.001 18.8571 11.001C19.3118 11.001 19.7478 11.159 20.0693 11.4403C20.3908 11.7216 20.5714 12.1032 20.5714 12.501V29.501ZM32.5714 19.001C33.0261 19.001 33.4621 19.159 33.7836 19.4403C34.1051 19.7216 34.2857 20.1032 34.2857 20.501C34.2857 20.8988 34.1051 21.2803 33.7836 21.5616C33.4621 21.8429 33.0261 22.001 32.5714 22.001H27.4286V29.501C27.4286 29.8988 27.248 30.2803 26.9265 30.5616C26.605 30.8429 26.1689 31.001 25.7143 31.001C25.2596 31.001 24.8236 30.8429 24.5021 30.5616C24.1806 30.2803 24 29.8988 24 29.501V12.501C24 12.1032 24.1806 11.7216 24.5021 11.4403C24.8236 11.159 25.2596 11.001 25.7143 11.001H32.5714C33.0261 11.001 33.4621 11.159 33.7836 11.4403C34.1051 11.7216 34.2857 12.1032 34.2857 12.501C34.2857 12.8988 34.1051 13.2803 33.7836 13.5616C33.4621 13.8429 33.0261 14.001 32.5714 14.001H27.4286V19.001H32.5714ZM41.1429 29.501C41.1429 29.8988 40.9622 30.2803 40.6408 30.5616C40.3193 30.8429 39.8832 31.001 39.4286 31.001C38.9739 31.001 38.5379 30.8429 38.2164 30.5616C37.8949 30.2803 37.7143 29.8988 37.7143 29.501V12.501C37.7143 12.1032 37.8949 11.7216 38.2164 11.4403C38.5379 11.159 38.9739 11.001 39.4286 11.001C39.8832 11.001 40.3193 11.159 40.6408 11.4403C40.9622 11.7216 41.1429 12.1032 41.1429 12.501V29.501Z" fill="black"/>
</g>
<defs>
<clipPath id="clip0_6013_52152">
<rect width="48" height="42" fill="white" transform="translate(0 0.000976562)"/>
</clipPath>
</defs>
</svg>
