<svg width="48" height="44" viewBox="0 0 48 44" fill="none" xmlns="http://www.w3.org/2000/svg">
<g clip-path="url(#clip0_6013_52154)">
<path d="M24 0.000976562C19.2533 0.000976562 14.6131 1.29125 10.6663 3.70865C6.71955 6.12604 3.64341 9.56197 1.8269 13.5819C0.0103989 17.6019 -0.464881 22.0254 0.461164 26.293C1.38721 30.5605 3.67299 34.4806 7.02945 37.5573C10.3859 40.6341 14.6623 42.7294 19.3178 43.5783C23.9734 44.4271 28.799 43.9915 33.1844 42.3263C37.5698 40.6612 41.3181 37.8414 43.9553 34.2235C46.5924 30.6056 48 26.3522 48 22.001C48 16.1662 45.4715 10.5704 40.9706 6.44463C36.4697 2.31883 30.3652 0.000976563 24 0.000976562ZM39.4364 16.091L22.5273 32.091C22.2225 32.3787 21.8579 32.6074 21.4551 32.7637C21.0522 32.92 20.6193 33.0007 20.1818 33.001H20.16C19.7179 33.0011 19.2804 32.9177 18.875 32.7559C18.4696 32.5942 18.1049 32.3576 17.8036 32.061L8.53092 23.061C8.22514 22.7766 7.98437 22.4391 7.82271 22.0684C7.66106 21.6976 7.58177 21.301 7.5895 20.9018C7.59724 20.5025 7.69183 20.1087 7.86774 19.7435C8.04366 19.3782 8.29735 19.0488 8.61394 18.7745C8.93054 18.5003 9.30367 18.2867 9.71147 18.1464C10.1193 18.0061 10.5535 17.9418 10.9888 17.9573C11.424 17.9728 11.8515 18.0678 12.2462 18.2367C12.6409 18.4056 12.9949 18.645 13.2873 18.941L20.2146 25.661L34.7455 11.911C35.0449 11.6286 35.402 11.4031 35.7965 11.2473C36.191 11.0915 36.6151 11.0084 37.0446 11.0028C37.4742 10.9973 37.9007 11.0693 38.2998 11.2148C38.6989 11.3604 39.0629 11.5765 39.3709 11.851C39.6789 12.1254 39.9249 12.4528 40.0949 12.8144C40.2649 13.1761 40.3555 13.5648 40.3616 13.9586C40.3677 14.3523 40.2891 14.7432 40.1304 15.1091C39.9716 15.475 39.7358 15.8086 39.4364 16.091Z" fill="black"/>
</g>
<defs>
<clipPath id="clip0_6013_52154">
<rect width="48" height="44" fill="white" transform="translate(0 0.000976562)"/>
</clipPath>
</defs>
</svg>
