<svg width="48" height="48" viewBox="0 0 48 48" fill="none" xmlns="http://www.w3.org/2000/svg">
<g clip-path="url(#clip0_6013_52156)">
<path d="M1.5 42.001C1.5 45.301 5.55 48.001 10.5 48.001C15.45 48.001 19.5 45.301 19.5 42.001V9.00098H1.5V42.001ZM6 17.001H15V28.001H6V17.001ZM0 0.000976562H21V7.00098H0V0.000976562ZM47.1 21.401L35.1 29.401C33.9 30.201 32.1 30.201 30.9 29.401L24.9 25.401C23.7 24.601 23.7 23.401 24.9 22.601C26.1 21.801 27.9 21.801 29.1 22.601L33 25.201L42.9 18.601C44.1 17.801 45.9 17.801 47.1 18.601C48.3 19.401 48.3 20.601 47.1 21.401Z" fill="black"/>
</g>
<defs>
<clipPath id="clip0_6013_52156">
<rect width="48" height="48" fill="white" transform="translate(0 0.000976562)"/>
</clipPath>
</defs>
</svg>
