<svg width="48" height="48" viewBox="0 0 48 48" fill="none" xmlns="http://www.w3.org/2000/svg">
<g clip-path="url(#clip0_6013_52158)">
<path d="M10.9091 20.001C13.0667 20.001 15.1759 19.4145 16.9699 18.3157C18.7638 17.2169 20.1621 15.6551 20.9878 13.8278C21.8135 12.0006 22.0295 9.98989 21.6086 8.05008C21.1876 6.11027 20.1486 4.32844 18.623 2.92991C17.0973 1.53139 15.1535 0.578981 13.0373 0.193128C10.9212 -0.192724 8.72774 0.0053094 6.73436 0.762186C4.74099 1.51906 3.03722 2.80079 1.83851 4.44528C0.639807 6.08977 0 8.02317 0 10.001C0.00115647 12.6528 1.15088 15.1957 3.19648 17.0709C5.24208 18.946 8.01618 19.9999 10.9091 20.001ZM5.77091 6.71098C5.56549 6.52268 5.45008 6.26728 5.45008 6.00098C5.45008 5.73468 5.56549 5.47928 5.77091 5.29098C5.97633 5.10268 6.25494 4.99689 6.54545 4.99689C6.83597 4.99689 7.11458 5.10268 7.32 5.29098L10.9091 8.58098L14.4982 5.29098C14.5999 5.19774 14.7206 5.12378 14.8535 5.07332C14.9864 5.02286 15.1289 4.99689 15.2727 4.99689C15.4166 4.99689 15.559 5.02286 15.6919 5.07332C15.8248 5.12378 15.9456 5.19774 16.0473 5.29098C16.149 5.38422 16.2297 5.49491 16.2847 5.61673C16.3398 5.73855 16.3681 5.86912 16.3681 6.00098C16.3681 6.13284 16.3398 6.26341 16.2847 6.38523C16.2297 6.50705 16.149 6.61774 16.0473 6.71098L12.4582 10.001L16.0473 13.291C16.2511 13.48 16.3655 13.7352 16.3655 14.001C16.3655 14.2668 16.2511 14.5219 16.0473 14.711C15.8405 14.8969 15.5624 15.001 15.2727 15.001C14.9831 15.001 14.705 14.8969 14.4982 14.711L10.9091 11.421L7.32 14.711C7.1132 14.8969 6.83511 15.001 6.54545 15.001C6.2558 15.001 5.97771 14.8969 5.77091 14.711C5.56705 14.5219 5.45273 14.2668 5.45273 14.001C5.45273 13.7352 5.56705 13.48 5.77091 13.291L9.36 10.001L5.77091 6.71098ZM48 9.97098V30.151C48 40.011 40.0364 48.001 30.5455 48.001C21.0545 48.001 13.0909 40.011 13.0909 30.151V22.831C15.0203 22.5634 16.8682 21.932 18.5179 20.9764C20.1675 20.0209 21.583 18.7621 22.6748 17.2796C23.7667 15.797 24.5112 14.123 24.8614 12.3633C25.2115 10.6036 25.1597 8.7964 24.7091 7.05598L30.3382 6.04098C30.4744 6.01046 30.6166 6.01046 30.7527 6.04098L47.1164 8.99098C47.3648 9.03505 47.5888 9.1569 47.75 9.33568C47.9112 9.51446 47.9995 9.73904 48 9.97098Z" fill="black"/>
</g>
<defs>
<clipPath id="clip0_6013_52158">
<rect width="48" height="48" fill="white" transform="translate(0 0.000976562)"/>
</clipPath>
</defs>
</svg>
