<svg width="48" height="48" viewBox="0 0 48 48" fill="none" xmlns="http://www.w3.org/2000/svg">
<g clip-path="url(#clip0_6013_52160)">
<path d="M22.7368 48.001H25.2632C26.6032 48.001 27.8884 47.5795 28.8359 46.8294C29.7835 46.0793 30.3158 45.0618 30.3158 44.001H17.6842C17.6842 45.0618 18.2165 46.0793 19.1641 46.8294C20.1116 47.5795 21.3968 48.001 22.7368 48.001ZM42.3158 33.001H42.1048L39.7301 18.901C39.3673 16.7555 38.3098 14.7207 36.6602 12.9944C35.0106 11.2681 32.825 9.90897 30.3158 9.04898V5.00098C30.3158 3.67489 29.6504 2.40312 28.4659 1.46544C27.2815 0.527761 25.6751 0.000976563 24 0.000976562C22.3249 0.000976563 20.7185 0.527761 19.5341 1.46544C18.3496 2.40312 17.6842 3.67489 17.6842 5.00098V9.04898C15.175 9.90897 12.9894 11.2681 11.3398 12.9944C9.69021 14.7207 8.63265 16.7555 8.26989 18.901L5.89516 33.001H5.68421C4.17666 33.001 2.73086 33.4751 1.66487 34.319C0.598871 35.1629 0 36.3075 0 37.501C0 38.6945 0.598871 39.839 1.66487 40.683C2.73086 41.5269 4.17666 42.001 5.68421 42.001H42.3158C43.8233 42.001 45.2691 41.5269 46.3351 40.683C47.4011 39.839 48 38.6945 48 37.501C48 36.3075 47.4011 35.1629 46.3351 34.319C45.2691 33.4751 43.8233 33.001 42.3158 33.001ZM24 3.00098C24.4997 3.00098 24.9881 3.11827 25.4035 3.33804C25.819 3.5578 26.1428 3.87016 26.334 4.23561C26.5252 4.60106 26.5753 5.0032 26.4778 5.39116C26.3803 5.77912 26.1397 6.13549 25.7864 6.41519C25.4331 6.6949 24.9829 6.88538 24.4929 6.96255C24.0028 7.03972 23.4948 7.00011 23.0332 6.84874C22.5716 6.69736 22.177 6.44102 21.8994 6.11212C21.6218 5.78322 21.4737 5.39654 21.4737 5.00098C21.4737 4.47054 21.7398 3.96184 22.2136 3.58676C22.6874 3.21169 23.33 3.00098 24 3.00098Z" fill="black"/>
</g>
<defs>
<clipPath id="clip0_6013_52160">
<rect width="48" height="48" fill="white" transform="translate(0 0.000976562)"/>
</clipPath>
</defs>
</svg>
