<svg width="48" height="48" viewBox="0 0 48 48" fill="none" xmlns="http://www.w3.org/2000/svg">
<g clip-path="url(#clip0_6013_52163)">
<path d="M39.4667 19.801C38.9334 19.301 38.1334 19.001 37.3334 19.001H13.6001C12.6667 19.001 11.7334 19.401 11.2001 20.101L0.266729 36.601C-0.266604 37.401 6.27041e-05 38.401 0.800063 39.001C0.800063 39.001 17.0667 48.001 24.0001 48.001C25.2001 48.001 26.2667 47.601 26.9334 46.901C27.4667 46.401 27.8667 45.701 28.0001 45.001C28.0001 44.001 28.0001 42.001 24.0001 41.001C18.4001 39.401 14.5334 38.601 13.0667 38.001C12.2667 37.701 11.7334 37.201 12.1334 36.601C13.7334 34.201 14.5334 31.701 14.6667 29.001C14.6667 27.001 16.0001 26.001 17.3334 26.001C18.6667 26.001 20.0001 27.001 20.0001 29.001C20.0001 32.401 26.6667 36.401 28.8001 37.601C29.2001 37.801 29.3334 38.201 29.3334 38.501C29.3334 40.001 29.0667 43.001 32.6667 43.001C37.3334 43.001 48.0001 38.001 48.0001 33.001C48.0001 28.901 41.7334 22.101 39.4667 19.801ZM32.0001 34.001C29.0667 34.001 26.6667 32.201 26.6667 30.001C26.6667 27.801 29.0667 26.001 32.0001 26.001C34.9334 26.001 37.3334 27.801 37.3334 30.001C37.3334 32.201 34.9334 34.001 32.0001 34.001ZM16.0001 7.00098C16.0001 3.10098 20.1334 0.000976562 25.3334 0.000976562C30.5334 0.000976562 34.6667 3.10098 34.6667 7.00098C34.6667 10.901 30.5334 14.001 25.3334 14.001C20.1334 14.001 16.0001 10.901 16.0001 7.00098Z" fill="black"/>
</g>
<defs>
<clipPath id="clip0_6013_52163">
<rect width="48" height="48" fill="white" transform="translate(0 0.000976562)"/>
</clipPath>
</defs>
</svg>
