<svg width="48" height="48" viewBox="0 0 48 48" fill="none" xmlns="http://www.w3.org/2000/svg">
<g clip-path="url(#clip0_6013_52165)">
<path d="M9.33602 10.001H38.664C38.9535 10.001 39.2352 9.9303 39.4664 9.79963C39.6976 9.66896 39.8659 9.48539 39.9457 9.27666C40.0255 9.06794 40.0126 8.8454 39.9088 8.64268C39.8051 8.43995 39.6162 8.26806 39.3707 8.15298L24.7067 0.152979C24.4948 0.0536462 24.2499 0.000976563 24 0.000976562C23.7501 0.000976562 23.5053 0.0536462 23.2934 0.152979L8.62936 8.15298C8.38384 8.26806 8.19495 8.43995 8.09121 8.64268C7.98748 8.8454 7.97454 9.06794 8.05435 9.27666C8.13417 9.48539 8.3024 9.66896 8.53363 9.79963C8.76485 9.9303 9.0465 10.001 9.33602 10.001ZM45.3334 44.001H40.4334L35.496 23.001H35.8667C36.2344 23.001 36.5985 22.9467 36.9382 22.8411C37.2779 22.7356 37.5866 22.5809 37.8466 22.3859C38.1066 22.1909 38.3128 21.9594 38.4536 21.7046C38.5943 21.4498 38.6667 21.1768 38.6667 20.901V12.001H9.33336V20.901C9.33336 21.1768 9.40578 21.4498 9.54649 21.7046C9.68721 21.9594 9.89345 22.1909 10.1535 22.3859C10.4135 22.5809 10.7221 22.7356 11.0618 22.8411C11.4016 22.9467 11.7657 23.001 12.1334 23.001H12.4267L7.49202 44.001H2.66669C2.31661 43.9999 1.9698 44.0515 1.64685 44.1529C1.3239 44.2542 1.03139 44.4032 0.78669 44.591C0.536327 44.7745 0.337681 44.9939 0.202546 45.2361C0.0674104 45.4783 -0.00145997 45.7384 2.34638e-05 46.001C0.00213377 46.5309 0.283763 47.0387 0.783403 47.4134C1.28304 47.7882 1.9601 47.9994 2.66669 48.001H45.3334C46.039 47.9971 46.7142 47.7851 47.2132 47.4109C47.7122 47.0366 47.9948 46.5302 48 46.001C47.9979 45.471 47.7163 44.9632 47.2166 44.5885C46.717 44.2138 46.04 44.0026 45.3334 44.001ZM24 37.321L32.9067 44.001H15.0934L24 37.321ZM14.048 39.145L15.904 31.249L20.24 34.501L14.048 39.145ZM33.8614 39.076L27.76 34.501L32.032 31.298L33.8614 39.076ZM15.3334 16.001H32.6667C33.1971 16.001 33.7058 16.159 34.0809 16.4403C34.456 16.7216 34.6667 17.1032 34.6667 17.501C34.6667 17.8988 34.456 18.2803 34.0809 18.5616C33.7058 18.8429 33.1971 19.001 32.6667 19.001H15.3334C14.8029 19.001 14.2942 18.8429 13.9191 18.5616C13.5441 18.2803 13.3334 17.8988 13.3334 17.501C13.3334 17.1032 13.5441 16.7216 13.9191 16.4403C14.2942 16.159 14.8029 16.001 15.3334 16.001ZM30.08 23.001L30.904 26.503L24 31.681L17.0307 26.454L17.844 23.001H30.08Z" fill="black"/>
</g>
<defs>
<clipPath id="clip0_6013_52165">
<rect width="48" height="48" fill="white" transform="translate(0 0.000976562)"/>
</clipPath>
</defs>
</svg>
