<svg width="48" height="48" viewBox="0 0 48 48" fill="none" xmlns="http://www.w3.org/2000/svg">
<g clip-path="url(#clip0_6013_52168)">
<path d="M46.4998 44.9849H33.2848L26.5338 19.6542C27.2612 18.9864 27.7488 18.0958 27.9208 17.1207L37.7878 15.0818L39.9968 25.8826C40.2078 25.8554 40.4198 25.8283 40.6328 25.7841C42.7796 25.3714 44.6755 24.1185 45.9038 22.3009C47.132 20.4833 47.5921 18.2497 47.1828 16.0912L45.2198 6.48975C44.7491 4.34381 43.45 2.47364 41.6082 1.29042C39.7663 0.107196 37.5325 -0.292227 35.3978 0.179966C35.188 0.226083 34.9799 0.279738 34.7738 0.340828L36.9828 11.1427L26.7788 13.251C26.2564 12.6826 25.5968 12.2596 24.864 12.0228C24.1312 11.7859 23.35 11.7434 22.5961 11.8992C21.8421 12.0551 21.1409 12.404 20.5605 12.9122C19.98 13.4205 19.5399 14.0708 19.2828 14.8002L7.87284 17.1579C7.71311 16.7139 7.40278 16.3407 6.99643 16.104C6.59008 15.8673 6.11373 15.7823 5.65117 15.8638C5.1886 15.9453 4.76944 16.1882 4.46741 16.5498C4.16538 16.9113 3.99982 17.3684 3.99984 17.8405V38.9536H1.99984C1.73463 38.9536 1.48027 39.0595 1.29274 39.248C1.1052 39.4366 0.999843 39.6923 0.999843 39.959V45.0774C0.665902 45.1949 0.384193 45.4276 0.204747 45.7341C0.0253006 46.0407 -0.0402684 46.4013 0.0196847 46.7518C0.0796379 47.1024 0.261233 47.4203 0.532219 47.649C0.803205 47.8777 1.14604 48.0024 1.49984 48.001H46.4998C46.8977 48.001 47.2792 47.8421 47.5605 47.5593C47.8418 47.2765 47.9998 46.8929 47.9998 46.4929C47.9998 46.093 47.8418 45.7094 47.5605 45.4266C47.2792 45.1437 46.8977 44.9849 46.4998 44.9849ZM21.1088 28.8997H25.8908L27.4988 34.932H19.5008L21.1088 28.8997ZM18.4288 38.9536H28.5708L30.1788 44.9859H16.8198L18.4288 38.9536ZM24.8188 24.8782H22.1808L23.2588 20.8315C23.3398 20.8366 23.4168 20.8557 23.4998 20.8557C23.5828 20.8557 23.6598 20.8356 23.7408 20.8315L24.8188 24.8782ZM7.99984 21.1955C8.13488 21.1954 8.26957 21.1816 8.40184 21.1543L19.7418 18.8117C19.9478 19.1215 20.1909 19.4044 20.4658 19.6542L13.7148 44.9849H10.9998V39.9579C10.9998 39.6913 10.8945 39.4356 10.707 39.247C10.5194 39.0585 10.2651 38.9526 9.99984 38.9526H7.99984V21.1955Z" fill="black"/>
</g>
<defs>
<clipPath id="clip0_6013_52168">
<rect width="48" height="48" fill="white" transform="translate(0 0.000976562)"/>
</clipPath>
</defs>
</svg>
