<svg width="48" height="48" viewBox="0 0 48 48" fill="none" xmlns="http://www.w3.org/2000/svg">
<g clip-path="url(#clip0_6013_52170)">
<path d="M33.6 20.6748V15.0008C34.2359 15 34.8453 14.8944 35.295 14.707C35.7446 14.5197 35.9981 14.2658 36 14.0008V11.0008C35.9981 10.7358 35.7446 10.4819 35.295 10.2946C34.8453 10.1072 34.2359 10.0016 33.6 10.0008H28.8V0.249814C28.8 0.0268138 27.9312 -0.0831861 27.4344 0.0768138L19.4256 2.66081C19.358 2.68047 19.3024 2.70644 19.2632 2.73666C19.2241 2.76687 19.2024 2.80049 19.2 2.83481V10.0008H14.4C13.7641 10.0016 13.1547 10.1072 12.705 10.2946C12.2554 10.4819 12.0019 10.7358 12 11.0008V14.0008C12.0019 14.2658 12.2554 14.5197 12.705 14.707C13.1547 14.8944 13.7641 15 14.4 15.0008V20.6748C10.1544 21.3759 6.51189 22.592 3.9444 24.1657C1.37691 25.7393 0.0027697 27.598 0 29.5008L0 46.0008C0 46.5312 0.505713 47.04 1.40589 47.415C2.30606 47.7901 3.52696 48.0008 4.8 48.0008H43.2C44.473 48.0008 45.6939 47.7901 46.5941 47.415C47.4943 47.04 48 46.5312 48 46.0008V29.5008C47.9972 27.598 46.6231 25.7393 44.0556 24.1657C41.4881 22.592 37.8456 21.3759 33.6 20.6748Z" fill="black"/>
</g>
<defs>
<clipPath id="clip0_6013_52170">
<rect width="48" height="48" fill="white" transform="translate(0 0.000976562)"/>
</clipPath>
</defs>
</svg>
