<svg width="48" height="48" viewBox="0 0 48 48" fill="none" xmlns="http://www.w3.org/2000/svg">
<g clip-path="url(#clip0_6013_52172)">
<path d="M33 22.651V44.001H4.00001V20.001H20.09L29.09 11.001H2.20001C1.91088 11.0002 1.62444 11.0566 1.35717 11.1668C1.0899 11.2771 0.847054 11.4391 0.642608 11.6436C0.438161 11.848 0.27614 12.0909 0.165861 12.3581C0.0555807 12.6254 -0.000783553 12.9119 8.22746e-06 13.201V45.801C-0.000783553 46.0901 0.0555807 46.3766 0.165861 46.6438C0.27614 46.9111 0.438161 47.1539 0.642608 47.3584C0.847054 47.5628 1.0899 47.7249 1.35717 47.8351C1.62444 47.9454 1.91088 48.0018 2.20001 48.001H34.8C35.0891 48.0018 35.3756 47.9454 35.6428 47.8351C35.9101 47.7249 36.153 47.5628 36.3574 47.3584C36.5619 47.1539 36.7239 46.9111 36.8342 46.6438C36.9444 46.3766 37.0008 46.0901 37 45.801V18.651L33 22.651ZM11.5 14.001C11.7967 14.001 12.0867 14.089 12.3334 14.2538C12.58 14.4186 12.7723 14.6529 12.8858 14.927C12.9994 15.201 13.0291 15.5026 12.9712 15.7936C12.9133 16.0846 12.7704 16.3519 12.5607 16.5616C12.3509 16.7714 12.0836 16.9143 11.7926 16.9722C11.5017 17.03 11.2001 17.0003 10.926 16.8868C10.6519 16.7733 10.4176 16.581 10.2528 16.3343C10.088 16.0877 10 15.7977 10 15.501C10 15.1032 10.158 14.7216 10.4393 14.4403C10.7207 14.159 11.1022 14.001 11.5 14.001ZM5.50001 14.001C5.79668 14.001 6.08669 14.089 6.33336 14.2538C6.58004 14.4186 6.7723 14.6529 6.88583 14.927C6.99936 15.201 7.02906 15.5026 6.97119 15.7936C6.91331 16.0846 6.77045 16.3519 6.56067 16.5616C6.35089 16.7714 6.08362 16.9143 5.79264 16.9722C5.50167 17.03 5.20007 17.0003 4.92598 16.8868C4.65189 16.7733 4.41763 16.581 4.2528 16.3343C4.08798 16.0877 4.00001 15.7977 4.00001 15.501C4.00001 15.1032 4.15804 14.7216 4.43935 14.4403C4.72065 14.159 5.10218 14.001 5.50001 14.001Z" fill="black"/>
<path d="M45.9995 0.000976563H24.9995C24.4691 0.000976563 23.9604 0.21169 23.5853 0.586763C23.2102 0.961836 22.9995 1.47054 22.9995 2.00098C22.9995 2.53141 23.2102 3.04012 23.5853 3.41519C23.9604 3.79026 24.4691 4.00098 24.9995 4.00098H41.0295L18.5145 26.516C18.1207 26.9098 17.8994 27.444 17.8994 28.001C17.8994 28.558 18.1207 29.0921 18.5145 29.486C18.9084 29.8798 19.4425 30.1011 19.9995 30.1011C20.5565 30.1011 21.0907 29.8798 21.4845 29.486L43.9995 6.97098V23.001C43.9995 23.5314 44.2102 24.0401 44.5853 24.4152C44.9604 24.7903 45.4691 25.001 45.9995 25.001C46.53 25.001 47.0387 24.7903 47.4137 24.4152C47.7888 24.0401 47.9995 23.5314 47.9995 23.001V2.00098C47.9995 1.47054 47.7888 0.961836 47.4137 0.586763C47.0387 0.21169 46.53 0.000976563 45.9995 0.000976563Z" fill="black"/>
</g>
<defs>
<clipPath id="clip0_6013_52172">
<rect width="48" height="48" fill="white" transform="translate(0 0.000976562)"/>
</clipPath>
</defs>
</svg>
