<svg width="48" height="48" viewBox="0 0 48 48" fill="none" xmlns="http://www.w3.org/2000/svg">
<g clip-path="url(#clip0_6013_52176)">
<path d="M24 0.000976562C10.84 0.000976562 0 8.02148 0 17.9221C0 27.6827 14.28 40.8235 23.6 47.874C23.8267 48.044 24.1733 48.044 24.4 47.874C33.72 40.8235 48 27.6827 48 17.9221C48 8.02148 37.16 0.000976562 24 0.000976562ZM24 30.0028C15.16 30.0028 8 24.6325 8 18.0021C8 11.3617 15.16 6.00135 24 6.00135C32.84 6.00135 40 11.3617 40 18.0021C40 24.6325 32.84 30.0028 24 30.0028Z" fill="black"/>
<path d="M30.0402 13.5119C29.8393 13.3564 29.5994 13.2322 29.3342 13.1464C29.0691 13.0607 28.7839 13.0151 28.4952 13.0123C28.2065 13.0096 27.9199 13.0496 27.6519 13.1302C27.3839 13.2108 27.1398 13.3303 26.9336 13.4819L24.0002 16.062L21.0669 13.4819C20.8607 13.3303 20.6166 13.2108 20.3486 13.1302C20.0806 13.0496 19.794 13.0096 19.5052 13.0123C19.2165 13.0151 18.9314 13.0607 18.6663 13.1464C18.4011 13.2322 18.1612 13.3564 17.9602 13.5119C17.1069 14.1619 17.1202 15.202 18.0002 15.842L20.8002 18.0072L18.0002 20.1723C17.1202 20.8123 17.1069 21.8524 17.9602 22.5024C18.1612 22.658 18.4011 22.7822 18.6663 22.8679C18.9314 22.9536 19.2165 22.9992 19.5052 23.002C19.794 23.0048 20.0806 22.9647 20.3486 22.8842C20.6166 22.8036 20.8607 22.684 21.0669 22.5325L24.0002 19.9523L26.9336 22.5325C27.1398 22.684 27.3839 22.8036 27.6519 22.8842C27.9199 22.9647 28.2065 23.0048 28.4952 23.002C28.7839 22.9992 29.0691 22.9536 29.3342 22.8679C29.5994 22.7822 29.8393 22.658 30.0402 22.5024C30.8936 21.8524 30.8802 20.8123 30.0002 20.1723L27.2002 18.0072L30.0002 15.842C30.8802 15.202 30.8936 14.1619 30.0402 13.5119Z" fill="black"/>
</g>
<defs>
<clipPath id="clip0_6013_52176">
<rect width="48" height="48" fill="white" transform="translate(0 0.000976562)"/>
</clipPath>
</defs>
</svg>
