<svg width="48" height="44" viewBox="0 0 48 44" fill="none" xmlns="http://www.w3.org/2000/svg">
<g clip-path="url(#clip0_6013_52180)">
<path d="M10.0501 26.0952L11.9376 24.3649C12.2345 24.089 12.4282 23.7339 12.4908 23.3507C12.5424 23.0411 12.5136 22.7246 12.4067 22.4271C12.2998 22.1295 12.1178 21.8593 11.8754 21.6385C11.5875 21.3763 11.2268 21.1912 10.8324 21.1034C10.4928 21.0244 10.1368 21.0268 9.79855 21.1106C9.46032 21.1943 9.15131 21.3565 8.90129 21.5815L6.02205 24.2219L3.7167 26.3352C3.33142 26.7045 3.12162 27.1988 3.13327 27.7097C3.14493 28.2206 3.3771 28.7064 3.77889 29.0606C3.98109 29.2479 4.22167 29.3967 4.48679 29.4985C4.75191 29.6003 5.03636 29.653 5.32379 29.6537C5.85827 29.6539 6.37147 29.4618 6.75304 29.1187L10.0501 26.0952Z" fill="black"/>
<path d="M24.5948 10.6485L24.3024 10.9166L20.3168 14.5701L20.1706 14.7042L18.6159 16.1194C18.2282 16.474 17.7677 16.7547 17.2609 16.9453C16.7542 17.1359 16.2113 17.2325 15.6636 17.2296C15.5381 17.2296 15.4126 17.2196 15.2872 17.2096C15.2457 17.2096 15.1933 17.2006 15.1519 17.2006C14.3748 17.1163 13.6395 16.8328 13.0302 16.3828C12.421 15.9327 11.9625 15.3342 11.7076 14.6561C11.4526 13.978 11.4114 13.2477 11.5887 12.549C11.7661 11.8504 12.1548 11.2118 12.7101 10.7065L21.589 2.57624C21.8083 2.37621 22.0385 2.17418 22.2676 1.99315C19.2198 0.273025 15.5892 -0.361434 12.0648 0.210199C8.54046 0.781833 5.36772 2.51977 3.14881 5.09413C0.929897 7.66848 -0.180727 10.9001 0.0277453 14.1755C0.236218 17.4509 1.74928 20.5421 4.27972 22.8625L4.40519 22.9775L7.42081 20.213C7.80324 19.8639 8.25743 19.5877 8.75709 19.4006C9.25675 19.2135 9.79195 19.1191 10.3317 19.1229C11.0707 19.1194 11.7976 19.2943 12.4396 19.63C12.7784 19.8045 13.0903 20.0198 13.3669 20.2701C13.9049 20.7662 14.2903 21.3838 14.4842 22.0603C14.5653 22.3576 14.6106 22.6622 14.6194 22.9685C14.6351 23.3301 14.5857 23.6917 14.4732 24.0387C14.8224 23.9463 15.1845 23.9015 15.5479 23.9056C16.6699 23.9028 17.7481 24.3043 18.5502 25.0234C19.3523 25.7426 19.8139 26.7219 19.8357 27.7502C19.8518 28.1122 19.8027 28.4741 19.6906 28.8214C20.0397 28.7287 20.4018 28.6836 20.7652 28.6874C21.8874 28.6846 22.9658 29.0862 23.7679 29.8056C24.57 30.525 25.0315 31.5045 25.053 32.533C25.0686 32.8947 25.0192 33.2562 24.9068 33.6032C25.256 33.5108 25.6181 33.466 25.9815 33.4702C27.1034 33.4673 28.1817 33.8688 28.9837 34.588C29.7858 35.3071 30.2475 36.2864 30.2692 37.3148C30.2902 37.895 30.162 38.4716 29.895 38.998C30.2756 39.1423 30.6833 39.217 31.0951 39.2181C31.6402 39.2175 32.1758 39.0865 32.6487 38.8381C33.1216 38.5896 33.5156 38.2322 33.7917 37.8013C34.0678 37.3705 34.2163 36.881 34.2227 36.3813C34.2291 35.8816 34.0931 35.3891 33.8282 34.9524C34.4275 35.2958 35.1362 35.4427 35.8384 35.3689C36.5407 35.2952 37.1948 35.0053 37.6939 34.5466C38.1931 34.0878 38.5077 33.4874 38.5863 32.8435C38.665 32.1996 38.503 31.5503 38.1268 31.0018C38.5901 31.2465 39.1153 31.3755 39.6499 31.3758C40.2688 31.3755 40.8737 31.2071 41.3882 30.8918C41.9026 30.5765 42.3036 30.1284 42.5404 29.6043C42.7772 29.0801 42.8392 28.5034 42.7185 27.9469C42.5979 27.3905 42.3 26.8793 41.8625 26.478L24.5948 10.6485Z" fill="black"/>
<path d="M25.9821 35.3927C25.8734 35.393 25.7649 35.4028 25.6581 35.4217C25.2407 35.481 24.854 35.6583 24.5518 35.9287L19.3672 40.6815C18.9816 41.0508 18.7716 41.5454 18.7832 42.0565C18.7949 42.5676 19.0273 43.0537 19.4294 43.4079C19.6314 43.5951 19.8718 43.7438 20.1368 43.8456C20.4017 43.9473 20.6859 44.0002 20.9732 44.001C21.5078 44.0009 22.021 43.8084 22.4024 43.4649L27.5881 38.7112C27.8848 38.4356 28.0784 38.0809 28.1413 37.698C28.187 37.4129 28.1655 37.1222 28.0781 36.8454C27.9907 36.5686 27.8395 36.3123 27.6347 36.0937C27.4299 35.8751 27.1762 35.6994 26.8909 35.5785C26.6056 35.4575 26.2953 35.3942 25.981 35.3927M17.7066 28.1335C17.7524 27.8485 17.7309 27.5578 17.6435 27.2811C17.5562 27.0044 17.4051 26.7481 17.2004 26.5296C16.9957 26.311 16.7422 26.1353 16.457 26.0143C16.1719 25.8933 15.8617 25.8298 15.5475 25.8281C15.4391 25.8286 15.331 25.8383 15.2245 25.8571C14.8072 25.9165 14.4204 26.0938 14.1182 26.3642L8.93254 31.116C8.54707 31.4855 8.33725 31.98 8.34911 32.4912C8.36097 33.0023 8.59356 33.4883 8.99582 33.8424C9.1979 34.0295 9.4383 34.1783 9.70322 34.2801C9.96815 34.3818 10.2524 34.4347 10.5396 34.4355C11.0743 34.4354 11.5875 34.2429 11.9689 33.8994L17.1546 29.1457C17.4512 28.8701 17.6449 28.5153 17.7077 28.1325M22.9239 32.9163C22.9699 32.6312 22.9485 32.3404 22.8612 32.0636C22.774 31.7867 22.6229 31.5303 22.4182 31.3116C22.2135 31.093 21.9599 30.9172 21.6747 30.7961C21.3894 30.675 21.0791 30.6115 20.7648 30.6099C20.6564 30.6107 20.5482 30.6207 20.4418 30.6399C20.0246 30.699 19.6379 30.8759 19.3355 31.146L14.1499 35.8997C13.7646 36.269 13.5548 36.7633 13.5664 37.2742C13.5781 37.7851 13.8103 38.2709 14.212 38.6252C14.4143 38.8124 14.6548 38.9612 14.92 39.063C15.1851 39.1648 15.4695 39.2175 15.757 39.2183C16.2914 39.2184 16.8046 39.0263 17.1862 38.6832L22.3719 33.9294C22.6683 33.6534 22.8616 33.2993 22.9239 32.9163ZM43.719 3.92464C41.1357 1.55468 37.6766 0.15923 34.0253 0.0140457C30.374 -0.131138 26.7961 0.984506 23.9986 3.14052C23.6757 3.38956 23.3625 3.6476 23.0603 3.92464L14.1913 12.0559C13.8008 12.4151 13.5816 12.9016 13.5816 13.4087C13.5816 13.9158 13.8008 14.4022 14.1913 14.7614C14.5851 15.1163 15.1153 15.3151 15.6675 15.3151C16.2197 15.3151 16.7498 15.1163 17.1437 14.7614L24.8343 7.71224L27.4845 10.1426L42.4665 23.8768C42.9054 23.5616 43.3236 23.223 43.719 22.8627C45.076 21.6194 46.1525 20.1433 46.887 18.5186C47.6214 16.8938 47.9994 15.1524 47.9994 13.3936C47.9994 11.6349 47.6214 9.89347 46.887 8.26874C46.1525 6.644 45.076 5.16786 43.719 3.92464Z" fill="black"/>
</g>
<defs>
<clipPath id="clip0_6013_52180">
<rect width="48" height="44" fill="white" transform="translate(0 0.000976562)"/>
</clipPath>
</defs>
</svg>
