<svg width="48" height="44" viewBox="0 0 48 44" fill="none" xmlns="http://www.w3.org/2000/svg">
<g clip-path="url(#clip0_6013_52185)">
<path d="M47.1208 4.87982L43.1208 0.879824C42.5582 0.317411 41.7953 0.00146484 40.9998 0.00146484C40.2043 0.00146484 39.4414 0.317411 38.8788 0.879824L14.6198 25.1378C12.4988 24.0305 10.0514 23.7192 7.7207 24.2605C5.39005 24.8017 3.33024 26.1596 1.91428 28.0883C0.498319 30.017 -0.18019 32.389 0.0016189 34.7748C0.183428 37.1605 1.21354 39.4023 2.90541 41.0942C4.59728 42.7861 6.83907 43.8162 9.22482 43.998C11.6106 44.1798 13.9826 43.5013 15.9113 42.0853C17.84 40.6694 19.1979 38.6096 19.7391 36.2789C20.2804 33.9482 19.9691 31.5008 18.8618 29.3798L33.4898 14.7518L35.3698 16.6308C35.9366 17.1719 36.6927 17.4696 37.4762 17.4604C38.2598 17.4513 39.0086 17.1359 39.5627 16.5817C40.1167 16.0276 40.4319 15.2786 40.4409 14.4951C40.4499 13.7115 40.1519 12.9555 39.6108 12.3888L37.7318 10.5088L40.9998 7.24382L42.8788 9.12382C43.443 9.6788 44.2037 9.98834 44.9951 9.98503C45.7865 9.98171 46.5445 9.66581 47.1041 9.10612C47.6636 8.54644 47.9793 7.78832 47.9825 6.99691C47.9856 6.2055 47.6759 5.44391 47.1208 4.87982ZM9.99977 38.0008C9.20865 38.0008 8.43529 37.7662 7.77749 37.3267C7.1197 36.8872 6.60701 36.2625 6.30426 35.5316C6.00151 34.8007 5.92229 33.9964 6.07663 33.2205C6.23098 32.4445 6.61194 31.7318 7.17135 31.1724C7.73076 30.613 8.44349 30.232 9.21941 30.0777C9.99534 29.9233 10.7996 30.0026 11.5305 30.3053C12.2614 30.6081 12.8861 31.1207 13.3257 31.7785C13.7652 32.4363 13.9998 33.2097 13.9998 34.0008C13.9985 35.0613 13.5766 36.0779 12.8267 36.8278C12.0769 37.5776 11.0602 37.9995 9.99977 38.0008Z" fill="black"/>
</g>
<defs>
<clipPath id="clip0_6013_52185">
<rect width="48" height="44" fill="white" transform="translate(0 0.000976562)"/>
</clipPath>
</defs>
</svg>
