<svg width="48" height="44" viewBox="0 0 48 44" fill="none" xmlns="http://www.w3.org/2000/svg">
<g clip-path="url(#clip0_6013_52187)">
<path d="M24 0.000976767C19.2533 0.000976767 14.6131 1.29125 10.6663 3.70865C6.71955 6.12604 3.64341 9.56197 1.8269 13.5819C0.0103989 17.6019 -0.464881 22.0254 0.461164 26.293C1.38721 30.5605 3.67299 34.4806 7.02945 37.5573C10.3859 40.6341 14.6623 42.7294 19.3178 43.5783C23.9734 44.4271 28.799 43.9915 33.1844 42.3263C37.5698 40.6612 41.3181 37.8414 43.9553 34.2235C46.5924 30.6056 48 26.3522 48 22.001C48.0004 19.1118 47.38 16.2508 46.174 13.5815C44.968 10.9121 43.2002 8.48672 40.9715 6.44375C38.7428 4.40078 36.0969 2.78029 33.1849 1.67482C30.2729 0.569361 27.1519 0.000582706 24 0.000976767ZM20.7273 30.846C20.7273 30.9977 20.6947 31.1478 20.6314 31.288C20.5681 31.4281 20.4752 31.5554 20.3582 31.6627C20.2412 31.7699 20.1023 31.855 19.9495 31.9131C19.7966 31.9711 19.6327 32.001 19.4673 32.001H17.6236C17.2895 32.001 16.969 31.8793 16.7327 31.6627C16.4964 31.4461 16.3636 31.1523 16.3636 30.846V13.156C16.3636 12.8497 16.4964 12.5559 16.7327 12.3393C16.969 12.1227 17.2895 12.001 17.6236 12.001H19.4673C19.8015 12.001 20.1219 12.1227 20.3582 12.3393C20.5945 12.5559 20.7273 12.8497 20.7273 13.156V30.846ZM31.6364 30.846C31.6364 31.1523 31.5036 31.4461 31.2673 31.6627C31.031 31.8793 30.7105 32.001 30.3764 32.001H28.5327C28.1986 32.001 27.8781 31.8793 27.6418 31.6627C27.4055 31.4461 27.2727 31.1523 27.2727 30.846V13.156C27.2727 13.0043 27.3053 12.8541 27.3687 12.714C27.432 12.5738 27.5248 12.4465 27.6418 12.3393C27.7588 12.232 27.8977 12.1469 28.0506 12.0889C28.2034 12.0309 28.3673 12.001 28.5327 12.001H30.3764C30.7105 12.001 31.031 12.1227 31.2673 12.3393C31.5036 12.5559 31.6364 12.8497 31.6364 13.156V30.846Z" fill="black"/>
</g>
<defs>
<clipPath id="clip0_6013_52187">
<rect width="48" height="44" fill="white" transform="translate(0 0.000976562)"/>
</clipPath>
</defs>
</svg>
