<svg width="48" height="32" viewBox="0 0 48 32" fill="none" xmlns="http://www.w3.org/2000/svg">
<g clip-path="url(#clip0_6013_52189)">
<path d="M40.3636 0.940977V0.000976562L48 7.00098H41.2145C41.1028 7.00098 40.9922 6.9808 40.8889 6.9416C40.7857 6.9024 40.6919 6.84495 40.6129 6.77252C40.5339 6.70009 40.4712 6.6141 40.4284 6.51947C40.3857 6.42484 40.3636 6.32341 40.3636 6.22098V0.940977ZM48 9.00098V30.001C48 30.5314 47.7701 31.0401 47.361 31.4152C46.9518 31.7903 46.3968 32.001 45.8182 32.001H2.18182C1.60316 32.001 1.04821 31.7903 0.63904 31.4152C0.22987 31.0401 0 30.5314 0 30.001V2.00098C0 1.47054 0.22987 0.961836 0.63904 0.586763C1.04821 0.21169 1.60316 0.000976563 2.18182 0.000976563L38.1818 0.000976562V6.22098C38.1827 6.95803 38.5025 7.66468 39.071 8.18586C39.6396 8.70704 40.4105 9.00018 41.2145 9.00098H48ZM18.5455 15.001C18.5446 14.2056 18.1995 13.443 17.5859 12.8805C16.9724 12.3181 16.1404 12.0018 15.2727 12.001H12C11.7107 12.001 11.4332 12.1063 11.2286 12.2939C11.024 12.4814 10.9091 12.7358 10.9091 13.001V23.001C10.9091 23.2662 11.024 23.5205 11.2286 23.7081C11.4332 23.8956 11.7107 24.001 12 24.001C12.2893 24.001 12.5668 23.8956 12.7714 23.7081C12.976 23.5205 13.0909 23.2662 13.0909 23.001V19.001H15.2727C16.1404 19.0002 16.9724 18.6839 17.5859 18.1214C18.1995 17.559 18.5446 16.7964 18.5455 16.001V15.001ZM28.3636 15.001C28.3628 14.2056 28.0177 13.443 27.4041 12.8805C26.7906 12.3181 25.9586 12.0018 25.0909 12.001H21.8182C21.5289 12.001 21.2514 12.1063 21.0468 12.2939C20.8422 12.4814 20.7273 12.7358 20.7273 13.001V23.001C20.7273 23.2662 20.8422 23.5205 21.0468 23.7081C21.2514 23.8956 21.5289 24.001 21.8182 24.001H25.0909C25.9586 24.0002 26.7906 23.6839 27.4041 23.1214C28.0177 22.559 28.3628 21.7964 28.3636 21.001V15.001ZM38.1818 13.001C38.1818 12.7358 38.0669 12.4814 37.8623 12.2939C37.6577 12.1063 37.3802 12.001 37.0909 12.001H31.6364C31.347 12.001 31.0696 12.1063 30.865 12.2939C30.6604 12.4814 30.5455 12.7358 30.5455 13.001V23.001C30.5455 23.2662 30.6604 23.5205 30.865 23.7081C31.0696 23.8956 31.347 24.001 31.6364 24.001C31.9257 24.001 32.2032 23.8956 32.4078 23.7081C32.6123 23.5205 32.7273 23.2662 32.7273 23.001V19.001H34.9091C35.1984 19.001 35.4759 18.8956 35.6805 18.7081C35.8851 18.5205 36 18.2662 36 18.001C36 17.7358 35.8851 17.4814 35.6805 17.2939C35.4759 17.1063 35.1984 17.001 34.9091 17.001H32.7273V14.001H37.0909C37.3802 14.001 37.6577 13.8956 37.8623 13.7081C38.0669 13.5205 38.1818 13.2662 38.1818 13.001ZM25.0909 14.001H22.9091V22.001H25.0909C25.3802 22.001 25.6577 21.8956 25.8623 21.7081C26.0669 21.5205 26.1818 21.2662 26.1818 21.001V15.001C26.1818 14.7358 26.0669 14.4814 25.8623 14.2939C25.6577 14.1063 25.3802 14.001 25.0909 14.001ZM15.2727 14.001H13.0909V17.001H15.2727C15.5621 17.001 15.8395 16.8956 16.0441 16.7081C16.2487 16.5205 16.3636 16.2662 16.3636 16.001V15.001C16.3636 14.7358 16.2487 14.4814 16.0441 14.2939C15.8395 14.1063 15.5621 14.001 15.2727 14.001Z" fill="black"/>
</g>
<defs>
<clipPath id="clip0_6013_52189">
<rect width="48" height="32" fill="white" transform="translate(0 0.000976562)"/>
</clipPath>
</defs>
</svg>
