<svg width="48" height="39" viewBox="0 0 48 39" fill="none" xmlns="http://www.w3.org/2000/svg">
<g clip-path="url(#clip0_6013_52191)">
<path d="M45.5 19.0012H42.98C42.3253 13.5496 39.6159 8.55302 35.4043 5.03016C31.1927 1.5073 25.796 -0.276559 20.3145 0.0422792C14.833 0.361118 9.67957 2.75865 5.90482 6.74605C2.13006 10.7334 0.0182625 16.0105 0 21.5012L0 27.0012C0 28.062 0.421427 29.0794 1.17157 29.8296C1.92172 30.5797 2.93913 31.0012 4 31.0012H21.01L29.01 39.0012H36.5C36.8978 39.0012 37.2794 38.8431 37.5607 38.5618C37.842 38.2805 38 37.899 38 37.5012C38 37.1033 37.842 36.7218 37.5607 36.4405C37.2794 36.1592 36.8978 36.0012 36.5 36.0012H32V24.0012H45.5C46.163 24.0012 46.7989 23.7378 47.2678 23.2689C47.7366 22.8001 48 22.1642 48 21.5012C48 20.8381 47.7366 20.2022 47.2678 19.7334C46.7989 19.2645 46.163 19.0012 45.5 19.0012ZM19.98 16.5012C19.98 16.9608 19.8895 17.4159 19.7136 17.8405C19.5377 18.2652 19.2799 18.651 18.9549 18.976C18.6299 19.301 18.244 19.5588 17.8194 19.7347C17.3948 19.9106 16.9396 20.0012 16.48 20.0012C16.0204 20.0012 15.5652 19.9106 15.1406 19.7347C14.716 19.5588 14.3301 19.301 14.0051 18.976C13.6801 18.651 13.4223 18.2652 13.2464 17.8405C13.0705 17.4159 12.98 16.9608 12.98 16.5012V9.00115C12.98 8.73594 13.0854 8.48158 13.2729 8.29405C13.4604 8.10651 13.7148 8.00115 13.98 8.00115C14.2452 8.00115 14.4996 8.10651 14.6871 8.29405C14.8746 8.48158 14.98 8.73594 14.98 9.00115V16.5012C14.98 16.899 15.138 17.2805 15.4193 17.5618C15.7006 17.8431 16.0822 18.0012 16.48 18.0012C16.8778 18.0012 17.2594 17.8431 17.5407 17.5618C17.822 17.2805 17.98 16.899 17.98 16.5012V9.00115C17.98 8.73594 18.0854 8.48158 18.2729 8.29405C18.4604 8.10651 18.7148 8.00115 18.98 8.00115C19.2452 8.00115 19.4996 8.10651 19.6871 8.29405C19.8746 8.48158 19.98 8.73594 19.98 9.00115V16.5012ZM23.98 19.0012C23.98 19.2664 23.8746 19.5207 23.6871 19.7083C23.4996 19.8958 23.2452 20.0012 22.98 20.0012C22.7148 20.0012 22.4604 19.8958 22.2729 19.7083C22.0854 19.5207 21.98 19.2664 21.98 19.0012V9.00115C21.9813 8.77723 22.0578 8.56024 22.1971 8.38493C22.3364 8.20962 22.5305 8.08614 22.7484 8.03427C22.9662 7.98241 23.1951 8.00516 23.3985 8.09888C23.6019 8.19259 23.7679 8.35186 23.87 8.55115L26.98 14.7612V9.00115C26.98 8.73594 27.0854 8.48158 27.2729 8.29405C27.4604 8.10651 27.7148 8.00115 27.98 8.00115C28.2452 8.00115 28.4996 8.10651 28.6871 8.29405C28.8746 8.48158 28.98 8.73594 28.98 9.00115V19.0012C28.9802 19.2261 28.9041 19.4444 28.7643 19.6206C28.6245 19.7967 28.4291 19.9203 28.21 19.9712C28.1348 19.99 28.0576 20.0001 27.98 20.0012C27.7953 20.0006 27.6144 19.9489 27.4573 19.8518C27.3002 19.7548 27.1731 19.6161 27.09 19.4512L23.98 13.2412V19.0012ZM29 33.0112L24 28.0112L28 24.0012H29V33.0112Z" fill="black"/>
</g>
<defs>
<clipPath id="clip0_6013_52191">
<rect width="48" height="39" fill="white" transform="translate(0 0.000976562)"/>
</clipPath>
</defs>
</svg>
