<svg width="48" height="40" viewBox="0 0 48 40" fill="none" xmlns="http://www.w3.org/2000/svg">
<g clip-path="url(#clip0_6013_52200)">
<path d="M46.5 37.001H1.5C0.7 37.001 0 37.701 0 38.501C0 39.301 0.7 40.001 1.5 40.001H46.5C47.3 40.001 48 39.301 48 38.501C48 37.701 47.3 37.001 46.5 37.001ZM1.5 3.00098H46.5C47.3 3.00098 48 2.30098 48 1.50098C48 0.700977 47.3 0.000976562 46.5 0.000976562H1.5C0.7 0.000976562 0 0.700977 0 1.50098C0 2.30098 0.7 3.00098 1.5 3.00098ZM5 26.601V30.001H13V29.001C13 25.701 14.5 22.601 17.1 20.501C15.8 19.501 14.2 19.001 12.6 19.001C8.4 19.001 5 22.401 5 26.601ZM43 30.001V26.601C43 22.401 39.6 19.101 35.4 19.001C33.8 19.001 32.2 19.501 30.9 20.501C33.5 22.601 35 25.701 35 29.001V30.001H43ZM33 30.001V29.001C33 24.001 28.9 20.001 23.9 20.101C19 20.101 15 24.101 15 29.001V33.001H33V30.001Z" fill="black"/>
<path d="M24 18.001C26.7614 18.001 29 15.7624 29 13.001C29 10.2396 26.7614 8.00098 24 8.00098C21.2386 8.00098 19 10.2396 19 13.001C19 15.7624 21.2386 18.001 24 18.001Z" fill="black"/>
<path d="M13 17.001C15.2091 17.001 17 15.2101 17 13.001C17 10.7918 15.2091 9.00098 13 9.00098C10.7909 9.00098 9 10.7918 9 13.001C9 15.2101 10.7909 17.001 13 17.001Z" fill="black"/>
<path d="M35 17.001C37.2091 17.001 39 15.2101 39 13.001C39 10.7918 37.2091 9.00098 35 9.00098C32.7909 9.00098 31 10.7918 31 13.001C31 15.2101 32.7909 17.001 35 17.001Z" fill="black"/>
</g>
<defs>
<clipPath id="clip0_6013_52200">
<rect width="48" height="40" fill="white" transform="translate(0 0.000976562)"/>
</clipPath>
</defs>
</svg>
