<svg width="48" height="34" viewBox="0 0 48 34" fill="none" xmlns="http://www.w3.org/2000/svg">
<g clip-path="url(#clip0_6013_52213)">
<path d="M1.50293 18.98C1.90075 18.98 2.28229 18.8219 2.56359 18.5406C2.84489 18.2593 3.00293 17.8778 3.00293 17.48C2.9963 16.4033 3.26927 15.3433 3.79513 14.4038C4.32099 13.4643 5.08173 12.6773 6.00293 12.12V21.001C6.00293 22.0618 6.42436 23.0792 7.1745 23.8294C7.92465 24.5795 8.94206 25.001 10.0029 25.001C11.0638 25.001 12.0812 24.5795 12.8314 23.8294C13.5815 23.0792 14.0029 22.0618 14.0029 21.001V12.122C14.9231 12.6796 15.6828 13.4665 16.208 14.4056C16.7331 15.3447 17.0056 16.404 16.9989 17.48C16.9989 17.8778 17.157 18.2593 17.4383 18.5406C17.7196 18.8219 18.1011 18.98 18.4989 18.98C18.8968 18.98 19.2783 18.8219 19.5596 18.5406C19.8409 18.2593 19.9989 17.8778 19.9989 17.48L19.9979 17.454L19.9989 17.441C19.9956 16.377 20.3495 15.3428 21.0039 14.504V18.001C21.0183 18.7867 21.3405 19.5355 21.9013 20.0861C22.462 20.6367 23.2165 20.9452 24.0024 20.9452C24.7883 20.9452 25.5428 20.6367 26.1036 20.0861C26.6644 19.5355 26.9866 18.7867 27.0009 18.001V14.501C27.6558 15.3403 28.0098 16.3753 28.0059 17.44L28.0039 17.479C28.0039 17.8768 28.162 18.2583 28.4433 18.5396C28.7246 18.8209 29.1061 18.979 29.5039 18.979C29.9018 18.979 30.2833 18.8209 30.5646 18.5396C30.8459 18.2583 31.0039 17.8768 31.0039 17.479C31.0786 16.2532 31.4917 15.0722 32.1973 14.0672C32.9029 13.0621 33.8734 12.2725 35.0009 11.786L33.0729 19.001C32.9281 19.7287 32.9465 20.4795 33.1267 21.1993C33.307 21.9191 33.6446 22.5899 34.1153 23.1635C34.586 23.7372 35.1781 24.1992 35.8489 24.5165C36.5196 24.8338 37.2524 24.9983 37.9944 24.9983C38.7364 24.9983 39.4692 24.8338 40.14 24.5165C40.8108 24.1992 41.4028 23.7372 41.8735 23.1635C42.3442 22.5899 42.6819 21.9191 42.8621 21.1993C43.0424 20.4795 43.0608 19.7287 42.9159 19.001L41.0009 11.787C42.129 12.273 43.1001 13.0625 43.8063 14.0676C44.5125 15.0726 44.926 16.2539 45.0009 17.48C45.0009 17.8778 45.159 18.2593 45.4403 18.5406C45.7216 18.8219 46.1031 18.98 46.5009 18.98C46.8988 18.98 47.2803 18.8219 47.5616 18.5406C47.8429 18.2593 48.0009 17.8778 48.0009 17.48C48.0009 12.091 43.7029 8.02695 38.0029 8.02695C36.2865 7.9784 34.5869 8.37622 33.0703 9.18148C31.5537 9.98675 30.2721 11.1719 29.3509 12.621C28.7259 11.794 27.9175 11.1232 26.9894 10.6614C26.0613 10.1996 25.0388 9.95928 24.0022 9.95938C22.9655 9.95948 21.9431 10.2 21.0151 10.662C20.0871 11.124 19.2789 11.7949 18.6539 12.622C17.7327 11.1724 16.4508 9.98688 14.9338 9.18142C13.4169 8.37596 11.7168 7.97816 9.99993 8.02695C4.29993 8.02695 0.00292969 12.091 0.00292969 17.481C0.00292969 17.8788 0.160965 18.2603 0.44227 18.5416C0.723574 18.8229 1.1051 18.98 1.50293 18.98Z" fill="black"/>
<path d="M38.0029 6.00098C39.6598 6.00098 41.0029 4.65783 41.0029 3.00098C41.0029 1.34412 39.6598 0.000976562 38.0029 0.000976562C36.3461 0.000976562 35.0029 1.34412 35.0029 3.00098C35.0029 4.65783 36.3461 6.00098 38.0029 6.00098Z" fill="black"/>
<path d="M10.002 6.00098C11.6588 6.00098 13.002 4.65783 13.002 3.00098C13.002 1.34412 11.6588 0.000976562 10.002 0.000976562C8.3451 0.000976562 7.00195 1.34412 7.00195 3.00098C7.00195 4.65783 8.3451 6.00098 10.002 6.00098Z" fill="black"/>
<path d="M24.002 8.00121C24.4974 8.00121 24.9818 7.8543 25.3937 7.57904C25.8056 7.30379 26.1267 6.91256 26.3163 6.45483C26.5059 5.99711 26.5555 5.49343 26.4589 5.00751C26.3622 4.52159 26.1236 4.07524 25.7733 3.72491C25.423 3.37458 24.9766 3.136 24.4907 3.03934C24.0048 2.94269 23.5011 2.9923 23.0434 3.18189C22.5856 3.37149 22.1944 3.69256 21.9192 4.10451C21.6439 4.51645 21.497 5.00077 21.497 5.49621C21.497 6.16058 21.7609 6.79774 22.2307 7.26751C22.7005 7.73729 23.3376 8.00121 24.002 8.00121ZM46 30.0012H2C1.46957 30.0012 0.960859 30.2119 0.585786 30.587C0.210714 30.9621 0 31.4708 0 32.0012C0 32.5316 0.210714 33.0404 0.585786 33.4154C0.960859 33.7905 1.46957 34.0012 2 34.0012H46C46.5304 34.0012 47.0391 33.7905 47.4142 33.4154C47.7893 33.0404 48 32.5316 48 32.0012C48 31.4708 47.7893 30.9621 47.4142 30.587C47.0391 30.2119 46.5304 30.0012 46 30.0012Z" fill="black"/>
</g>
<defs>
<clipPath id="clip0_6013_52213">
<rect width="48.001" height="34" fill="white" transform="translate(0 0.000976562)"/>
</clipPath>
</defs>
</svg>
