<svg width="48" height="40" viewBox="0 0 48 40" fill="none" xmlns="http://www.w3.org/2000/svg">
<g clip-path="url(#clip0_6013_52227)">
<path d="M17.101 19.501C15.801 18.501 14.201 18.001 12.601 18.001C8.40098 18.001 5.00098 21.401 5.00098 25.601V29.001H13.001V28.001C13.001 24.701 14.501 21.601 17.101 19.501ZM43.001 29.001V25.601C43.001 21.401 39.601 18.101 35.401 18.001C33.801 18.001 32.201 18.501 30.901 19.501C33.501 21.601 35.001 24.701 35.001 28.001V29.001H43.001ZM29.401 20.901C25.401 17.901 19.801 18.701 16.801 22.701C15.601 24.201 15.001 26.101 15.001 28.001V32.001H33.001V28.001C33.001 25.201 31.701 22.601 29.401 20.901Z" fill="black"/>
<path d="M24.001 17.001C26.7624 17.001 29.001 14.7624 29.001 12.001C29.001 9.23955 26.7624 7.00098 24.001 7.00098C21.2396 7.00098 19.001 9.23955 19.001 12.001C19.001 14.7624 21.2396 17.001 24.001 17.001Z" fill="black"/>
<path d="M13.001 16.001C15.2101 16.001 17.001 14.2101 17.001 12.001C17.001 9.79184 15.2101 8.00098 13.001 8.00098C10.7918 8.00098 9.00098 9.79184 9.00098 12.001C9.00098 14.2101 10.7918 16.001 13.001 16.001Z" fill="black"/>
<path d="M35.001 16.001C37.2101 16.001 39.001 14.2101 39.001 12.001C39.001 9.79184 37.2101 8.00098 35.001 8.00098C32.7918 8.00098 31.001 9.79184 31.001 12.001C31.001 14.2101 32.7918 16.001 35.001 16.001Z" fill="black"/>
<path d="M8.50098 37.001H3.00098V31.501C3.00098 30.701 2.30098 30.001 1.50098 30.001C0.700977 30.001 0.000976562 30.701 0.000976562 31.501V38.501C0.000976562 39.301 0.700977 40.001 1.50098 40.001H8.50098C9.30098 40.001 10.001 39.301 10.001 38.501C10.001 37.701 9.30098 37.001 8.50098 37.001ZM28.501 37.001H19.501C18.701 37.001 18.001 37.701 18.001 38.501C18.001 39.301 18.701 40.001 19.501 40.001H28.501C29.301 40.001 30.001 39.301 30.001 38.501C30.001 37.701 29.301 37.001 28.501 37.001ZM19.501 3.00098H28.501C29.301 3.00098 30.001 2.30098 30.001 1.50098C30.001 0.700977 29.301 0.000976562 28.501 0.000976562H19.501C18.701 0.000976562 18.001 0.700977 18.001 1.50098C18.001 2.30098 18.701 3.00098 19.501 3.00098ZM1.50098 10.001C2.30098 10.001 3.00098 9.30098 3.00098 8.50098V3.00098H8.50098C9.30098 3.00098 10.001 2.30098 10.001 1.50098C10.001 0.700977 9.30098 0.000976562 8.50098 0.000976562H1.50098C0.700977 0.000976562 0.000976562 0.700977 0.000976562 1.50098V8.50098C0.000976562 9.30098 0.700977 10.001 1.50098 10.001ZM46.501 0.000976562H39.501C38.701 0.000976562 38.001 0.700977 38.001 1.50098C38.001 2.30098 38.701 3.00098 39.501 3.00098H45.001V8.50098C45.001 9.30098 45.701 10.001 46.501 10.001C47.301 10.001 48.001 9.30098 48.001 8.50098V1.50098C48.001 0.700977 47.301 0.000976562 46.501 0.000976562ZM46.501 30.001C45.701 30.001 45.001 30.701 45.001 31.501V37.001H39.501C38.701 37.001 38.001 37.701 38.001 38.501C38.001 39.301 38.701 40.001 39.501 40.001H46.501C47.301 40.001 48.001 39.301 48.001 38.501V31.501C48.001 30.701 47.301 30.001 46.501 30.001Z" fill="black"/>
</g>
<defs>
<clipPath id="clip0_6013_52227">
<rect width="48" height="40" fill="white" transform="translate(0.000976562 0.000976562)"/>
</clipPath>
</defs>
</svg>
