<svg width="48" height="48" viewBox="0 0 48 48" fill="none" xmlns="http://www.w3.org/2000/svg">
<g clip-path="url(#clip0_6013_52234)">
<path d="M38.001 31.0269C36.2846 30.9784 34.5849 31.3762 33.0684 32.1815C31.5518 32.9867 30.2702 34.1719 29.349 35.6209C28.7239 34.7939 27.9156 34.1232 26.9875 33.6614C26.0594 33.1996 25.0369 32.9593 24.0002 32.9594C22.9636 32.9595 21.9411 33.1999 21.0131 33.6619C20.0851 34.1239 19.2769 34.7948 18.652 35.6219C17.7308 34.1725 16.4491 32.9871 14.9323 32.1816C13.4156 31.3762 11.7157 30.9783 9.99898 31.0269C4.29898 31.0269 0.000976562 35.0909 0.000976562 40.4809C0.000976563 40.8788 0.159012 41.2603 0.440316 41.5416C0.721621 41.8229 1.10315 41.9809 1.50098 41.9809C1.8988 41.9809 2.28033 41.8229 2.56164 41.5416C2.84294 41.2603 3.00098 40.8788 3.00098 40.4809C2.99435 39.4043 3.26732 38.3443 3.79318 37.4048C4.31904 36.4652 5.07978 35.6783 6.00098 35.1209V44.0009C6.00098 45.0618 6.4224 46.0792 7.17255 46.8294C7.92269 47.5795 8.94011 48.0009 10.001 48.0009C11.0618 48.0009 12.0793 47.5795 12.8294 46.8294C13.5795 46.0792 14.001 45.0618 14.001 44.0009V35.1219C14.9213 35.6795 15.6813 36.4663 16.2066 37.4054C16.7319 38.3445 17.0046 39.4039 16.998 40.4799C16.998 40.8778 17.156 41.2593 17.4373 41.5406C17.7186 41.8219 18.1002 41.9799 18.498 41.9799C18.8958 41.9799 19.2773 41.8219 19.5586 41.5406C19.8399 41.2593 19.998 40.8778 19.998 40.4799L19.996 40.4539L19.998 40.4409C19.994 39.3772 20.3472 38.343 21.001 37.5039V41.0009C21.001 41.7963 21.3169 42.5591 21.8794 43.1215C22.4418 43.684 23.2046 43.9999 24 43.9999C24.7954 43.9999 25.5582 43.684 26.1206 43.1215C26.683 42.5591 26.999 41.7963 26.999 41.0009V37.5009C27.6532 38.3407 28.007 39.3754 28.004 40.4399L28.002 40.4789C28.002 40.8768 28.16 41.2583 28.4413 41.5396C28.7226 41.8209 29.1042 41.9789 29.502 41.9789C29.8998 41.9789 30.2813 41.8209 30.5626 41.5396C30.8439 41.2583 31.002 40.8768 31.002 40.4789C30.997 39.2856 31.3332 38.1156 31.971 37.107C32.6088 36.0983 33.5217 35.293 34.602 34.7859L33.068 42.0009C32.9233 42.7301 32.9423 43.4822 33.1236 44.2032C33.3049 44.9241 33.6439 45.5958 34.1162 46.1698C34.5886 46.7438 35.1824 47.2058 35.8549 47.5225C36.5274 47.8392 37.2618 48.0027 38.0052 48.0012C38.7485 47.9997 39.4823 47.8332 40.1535 47.5138C40.8247 47.1944 41.4167 46.7299 41.8867 46.154C42.3566 45.5781 42.6929 44.905 42.8713 44.1834C43.0496 43.4617 43.0656 42.7095 42.918 41.9809L41.399 34.7869C42.4793 35.294 43.3921 36.0993 44.0299 37.108C44.6678 38.1166 45.004 39.2865 44.999 40.4799C44.999 40.8778 45.157 41.2593 45.4383 41.5406C45.7196 41.8219 46.1012 41.9799 46.499 41.9799C46.8968 41.9799 47.2783 41.8219 47.5596 41.5406C47.8409 41.2593 47.999 40.8778 47.999 40.4799C47.999 35.0909 43.701 31.0269 38.001 31.0269Z" fill="black"/>
<path d="M38.001 29.001C39.6578 29.001 41.001 27.6578 41.001 26.001C41.001 24.3441 39.6578 23.001 38.001 23.001C36.3441 23.001 35.001 24.3441 35.001 26.001C35.001 27.6578 36.3441 29.001 38.001 29.001Z" fill="black"/>
<path d="M10 29.001C11.6569 29.001 13 27.6578 13 26.001C13 24.3441 11.6569 23.001 10 23.001C8.34315 23.001 7 24.3441 7 26.001C7 27.6578 8.34315 29.001 10 29.001Z" fill="black"/>
<path d="M24.001 31.001C24.4964 31.0008 24.9806 30.8537 25.3925 30.5783C25.8043 30.3029 26.1252 29.9117 26.3146 29.4539C26.5041 28.9962 26.5535 28.4925 26.4568 28.0067C26.36 27.5208 26.1213 27.0746 25.771 26.7243C25.4206 26.3741 24.9742 26.1356 24.4884 26.039C24.0025 25.9425 23.4988 25.9921 23.0412 26.1818C22.5835 26.3714 22.1923 26.6925 21.9171 27.1044C21.6419 27.5163 21.495 28.0006 21.495 28.496C21.495 29.1603 21.7589 29.7975 22.2287 30.2673C22.6985 30.7371 23.3367 31.001 24.001 31.001ZM14.426 15.561C14.7068 15.842 15.0876 16.0001 15.4849 16.0007C15.8822 16.0012 16.2634 15.8442 16.545 15.564L20.558 11.564C20.6975 11.4249 20.8083 11.2597 20.884 11.0778C20.9597 10.896 20.9988 10.701 20.9991 10.504C20.9995 10.307 20.961 10.1118 20.8859 9.92969C20.8108 9.74756 20.7006 9.58201 20.5615 9.44248C20.4224 9.30295 20.2573 9.19217 20.0754 9.11649C19.8935 9.0408 19.6985 9.00167 19.5015 9.00135C19.3045 9.00102 19.1094 9.0395 18.9272 9.11459C18.7451 9.18968 18.5795 9.29991 18.44 9.43898L16.999 11.001V1.50098C16.999 1.10315 16.841 0.721621 16.5597 0.440316C16.2784 0.159012 15.8968 0.000976563 15.499 0.000976562C15.1012 0.000976563 14.7197 0.159012 14.4384 0.440316C14.1571 0.721621 13.999 1.10315 13.999 1.50098L14.001 11.001L12.56 9.44098C12.4207 9.30159 12.2553 9.19101 12.0733 9.11557C11.8912 9.04013 11.6961 9.0013 11.499 9.0013C11.302 9.0013 11.1068 9.04013 10.9248 9.11557C10.7427 9.19101 10.5773 9.30159 10.438 9.44098C10.1565 9.72474 9.99854 10.1083 9.99854 10.508C9.99854 10.9077 10.1565 11.2912 10.438 11.575L14.426 15.561ZM31.426 15.561C31.7068 15.842 32.0876 16.0001 32.4849 16.0007C32.8822 16.0012 33.2634 15.8442 33.545 15.564L37.558 11.564C37.6975 11.4249 37.8083 11.2597 37.884 11.0778C37.9597 10.896 37.9988 10.701 37.9991 10.504C37.9995 10.307 37.961 10.1118 37.8859 9.92969C37.8108 9.74756 37.7006 9.58201 37.5615 9.44248C37.4224 9.30295 37.2573 9.19217 37.0754 9.11649C36.8935 9.0408 36.6985 9.00167 36.5015 9.00135C36.3045 9.00102 36.1094 9.0395 35.9272 9.11459C35.7451 9.18968 35.5795 9.29991 35.44 9.43898L33.999 11.001V1.50098C33.999 1.10315 33.841 0.721621 33.5597 0.440316C33.2784 0.159012 32.8968 0.000976563 32.499 0.000976562C32.1012 0.000976563 31.7197 0.159012 31.4384 0.440316C31.1571 0.721621 30.999 1.10315 30.999 1.50098V11.001L29.559 9.44098C29.2778 9.16008 28.8965 9.0023 28.499 9.0023C28.1015 9.0023 27.7203 9.16008 27.439 9.44098C27.1575 9.72474 26.9995 10.1083 26.9995 10.508C26.9995 10.9077 27.1575 11.2912 27.439 11.575L31.426 15.561Z" fill="black"/>
</g>
<defs>
<clipPath id="clip0_6013_52234">
<rect width="47.999" height="48" fill="white" transform="translate(0.000976562 0.000976562)"/>
</clipPath>
</defs>
</svg>
