<svg width="48" height="40" viewBox="0 0 48 40" fill="none" xmlns="http://www.w3.org/2000/svg">
<g clip-path="url(#clip0_6013_52193)">
<path d="M17.13 19.511C15.8307 18.5382 14.2531 18.0089 12.63 18.001C8.55 18.001 5 21.391 5 25.581V29.001H13V27.971C13 24.601 14.63 21.531 17.13 19.511ZM43 29.001V25.581C43 21.391 39.45 18.001 35.37 18.001C33.72 18.001 32.15 18.561 30.87 19.511C33.37 21.531 35 24.601 35 27.971V29.001H43ZM29.42 20.881C27.89 19.721 25.99 19.031 24 19.031C22.01 19.031 20.11 19.721 18.58 20.881C16.43 22.521 15 25.081 15 27.971V32.001H33V27.971C33 25.081 31.57 22.521 29.42 20.881Z" fill="black"/>
<path d="M24 17.001C26.7614 17.001 29 14.7624 29 12.001C29 9.23955 26.7614 7.00098 24 7.00098C21.2386 7.00098 19 9.23955 19 12.001C19 14.7624 21.2386 17.001 24 17.001Z" fill="black"/>
<path d="M13 16.001C15.2091 16.001 17 14.2101 17 12.001C17 9.79184 15.2091 8.00098 13 8.00098C10.7909 8.00098 9 9.79184 9 12.001C9 14.2101 10.7909 16.001 13 16.001Z" fill="black"/>
<path d="M35 16.001C37.2091 16.001 39 14.2101 39 12.001C39 9.79184 37.2091 8.00098 35 8.00098C32.7909 8.00098 31 9.79184 31 12.001C31 14.2101 32.7909 16.001 35 16.001Z" fill="black"/>
<path d="M3.43982 5.5608C3.57877 5.70063 3.744 5.81161 3.926 5.88734C4.108 5.96307 4.30319 6.00206 4.50032 6.00206C4.69745 6.00206 4.89263 5.96307 5.07464 5.88734C5.25664 5.81161 5.42187 5.70063 5.56082 5.5608C5.84172 5.27954 5.9995 4.8983 5.9995 4.5008C5.9995 4.10329 5.84172 3.72205 5.56082 3.4408L2.56082 0.440796C2.42252 0.297466 2.25705 0.183117 2.07408 0.104418C1.89112 0.0257194 1.69431 -0.0157518 1.49514 -0.0175758C1.29597 -0.0193998 1.09843 0.01846 0.914056 0.0937943C0.729677 0.169129 0.562147 0.280429 0.421242 0.421201C0.280337 0.561973 0.168879 0.729398 0.0933708 0.913706C0.0178625 1.09801 -0.0201835 1.29551 -0.0185473 1.49468C-0.0169111 1.69385 0.0243745 1.8907 0.1029 2.07374C0.181426 2.25679 0.29562 2.42236 0.438819 2.5608L3.43982 5.5608ZM44.5598 5.5608L47.5598 2.5608C47.7072 2.42347 47.8254 2.25787 47.9074 2.07387C47.9894 1.88987 48.0334 1.69125 48.037 1.48984C48.0406 1.28843 48.0035 1.08838 47.9281 0.9016C47.8526 0.714824 47.7403 0.545156 47.5979 0.402719C47.4555 0.260281 47.2858 0.147992 47.099 0.0725501C46.9122 -0.0028919 46.7122 -0.0399412 46.5108 -0.0363877C46.3094 -0.0328341 46.1107 0.0112496 45.9267 0.0932335C45.7427 0.175217 45.5771 0.293422 45.4398 0.440796L42.4398 3.4408C42.2924 3.57812 42.1742 3.74372 42.0923 3.92772C42.0103 4.11172 41.9662 4.31034 41.9626 4.51175C41.9591 4.71316 41.9961 4.91321 42.0716 5.09999C42.147 5.28677 42.2593 5.45643 42.4017 5.59887C42.5442 5.74131 42.7139 5.8536 42.9006 5.92904C43.0874 6.00448 43.2875 6.04153 43.4889 6.03798C43.6903 6.03443 43.8889 5.99034 44.0729 5.90836C44.2569 5.82637 44.4225 5.70817 44.5598 5.5608ZM4.49982 34.0008C4.11582 34.0008 3.73182 34.1468 3.43982 34.4408L0.439819 37.4408C0.292445 37.5781 0.174241 37.7437 0.0922569 37.9277C0.010273 38.1117 -0.0338106 38.3103 -0.0373642 38.5118C-0.0409178 38.7132 -0.00386846 38.9132 0.0715736 39.1C0.147016 39.2868 0.259305 39.4564 0.401742 39.5989C0.54418 39.7413 0.713847 39.8536 0.900624 39.929C1.0874 40.0045 1.28746 40.0415 1.48886 40.038C1.69027 40.0344 1.8889 39.9903 2.0729 39.9084C2.25689 39.8264 2.42249 39.7082 2.55982 39.5608L5.55982 36.5608C5.76933 36.351 5.91198 36.0839 5.96975 35.7931C6.02752 35.5023 5.99782 35.2009 5.88439 34.9269C5.77097 34.653 5.57892 34.4189 5.33248 34.254C5.08605 34.0892 4.7963 34.0011 4.49982 34.0008ZM44.5598 34.4408C44.4225 34.2934 44.2569 34.1752 44.0729 34.0932C43.8889 34.0112 43.6903 33.9672 43.4889 33.9636C43.2875 33.9601 43.0874 33.9971 42.9006 34.0726C42.7139 34.148 42.5442 34.2603 42.4017 34.4027C42.2593 34.5452 42.147 34.7148 42.0716 34.9016C41.9961 35.0884 41.9591 35.2884 41.9626 35.4898C41.9662 35.6912 42.0103 35.8899 42.0923 36.0739C42.1742 36.2579 42.2924 36.4235 42.4398 36.5608L45.4398 39.5608C45.5788 39.7006 45.744 39.8116 45.926 39.8873C46.108 39.9631 46.3032 40.0021 46.5003 40.0021C46.6975 40.0021 46.8926 39.9631 47.0746 39.8873C47.2566 39.8116 47.4219 39.7006 47.5608 39.5608C47.8417 39.2795 47.9995 38.8983 47.9995 38.5008C47.9995 38.1033 47.8417 37.722 47.5608 37.4408L44.5598 34.4408Z" fill="black"/>
</g>
<defs>
<clipPath id="clip0_6013_52193">
<rect width="48" height="40" fill="white" transform="translate(0 0.000976562)"/>
</clipPath>
</defs>
</svg>
