<svg width="48" height="48" viewBox="0 0 48 48" fill="none" xmlns="http://www.w3.org/2000/svg">
<g clip-path="url(#clip0_6013_52241)">
<path d="M40.6953 7.46603C41.4104 7.86134 42.2316 8.04461 43.0553 7.99267C43.8791 7.94073 44.6682 7.65591 45.323 7.17422C45.9778 6.69253 46.4688 6.03561 46.7341 5.28651C46.9993 4.5374 47.0268 3.72976 46.813 2.9657C46.5993 2.20163 46.1539 1.51545 45.5332 0.99392C44.9126 0.472387 44.1445 0.13892 43.326 0.0356799C42.5076 -0.0675601 41.6756 0.0640635 40.9352 0.413909C40.1949 0.763754 39.5794 1.31611 39.1666 2.00114C38.8926 2.45609 38.7147 2.95831 38.6433 3.47912C38.5718 3.99993 38.6081 4.52913 38.75 5.0365C38.892 5.54387 39.1368 6.01948 39.4706 6.43617C39.8044 6.85286 40.2206 7.20346 40.6953 7.46603ZM31.5332 34.2335C31.1575 34.0731 30.7525 33.9853 30.3413 33.9751C29.9302 33.9649 29.521 34.0325 29.1371 34.174C28.7533 34.3156 28.4023 34.5283 28.1044 34.8C27.8065 35.0717 27.5674 35.3971 27.4008 35.7574C26.4998 37.619 25.0629 39.1955 23.2591 40.3015C21.4553 41.4076 19.3596 41.9973 17.2181 42.0013C14.313 41.9987 11.5277 40.8916 9.47342 38.9231C7.41919 36.9546 6.2639 34.2854 6.26114 31.5015C6.26114 25.8106 11.5174 21.0017 17.7399 21.0017C18.5702 21.0017 19.3665 20.6857 19.9535 20.1231C20.5406 19.5605 20.8705 18.7974 20.8705 18.0018C20.8705 17.2062 20.5406 16.4431 19.9535 15.8805C19.3665 15.3179 18.5702 15.0019 17.7399 15.0019C8.12383 15.0019 0 22.5587 0 31.5015C0.0234198 35.2919 1.4001 38.9604 3.90111 41.8971C6.40213 44.8337 9.87677 46.8614 13.7473 47.6431C17.6178 48.4249 21.6509 47.9134 25.176 46.1939C28.701 44.4743 31.5057 41.6503 33.1235 38.1914C33.4601 37.4644 33.4816 36.6391 33.1834 35.8969C32.8852 35.1548 32.2916 34.5564 31.5332 34.2335Z" fill="black"/>
<path d="M47.1691 23.9666C46.8531 23.6396 46.4652 23.384 46.0335 23.2182C45.6019 23.0523 45.1372 22.9804 44.673 23.0076L35.4691 23.5586L41.2481 15.5118C41.309 15.4162 41.3613 15.3158 41.4047 15.2118C41.6281 14.8325 41.7429 14.4033 41.7374 13.9678C41.7319 13.5322 41.6063 13.1059 41.3733 12.7318C41.1883 12.4412 40.9475 12.1867 40.6637 11.9819L37.0114 9.5519L28.6632 3.98202C28.1615 3.6296 27.5446 3.46105 26.9244 3.50691C26.3042 3.55277 25.7216 3.81001 25.2822 4.23202L20.5864 8.73192C20.0965 9.20134 19.8213 9.83802 19.8213 10.5019C19.8213 11.1658 20.0965 11.8024 20.5864 12.2718C21.0762 12.7413 21.7406 13.005 22.4334 13.005C23.1262 13.005 23.7906 12.7413 24.2804 12.2718L27.4006 9.28191L31.8355 12.2118L24.5309 24.0616C24.1784 24.6707 23.998 25.3574 24.0074 26.0538C24.0169 26.7501 24.216 27.4321 24.5849 28.0321C24.9539 28.6322 25.4799 29.1295 26.111 29.4749C26.7422 29.8203 27.4564 30.0018 28.1832 30.0015L28.2396 29.9915C28.2834 29.9905 28.3241 29.9985 28.3679 29.9955L41.2252 29.2255L39.6828 39.5773C39.5654 40.365 39.7792 41.1651 40.2774 41.8017C40.7755 42.4383 41.5172 42.8591 42.3391 42.9717C43.1611 43.0843 43.9961 42.8794 44.6604 42.402C45.3247 41.9246 45.7639 41.2139 45.8814 40.4263L47.9684 26.4266C48.0342 25.9854 47.9966 25.5357 47.8584 25.1102C47.7201 24.6846 47.4846 24.294 47.1691 23.9666Z" fill="black"/>
</g>
<defs>
<clipPath id="clip0_6013_52241">
<rect width="48" height="48" fill="white" transform="translate(0 0.000976562)"/>
</clipPath>
</defs>
</svg>
