<svg width="48" height="40" viewBox="0 0 48 40" fill="none" xmlns="http://www.w3.org/2000/svg">
<g clip-path="url(#clip0_6013_52220)">
<path d="M13.001 29.001C13.001 25.701 14.501 22.601 17.101 20.501C15.801 19.501 14.201 19.001 12.601 19.001C8.40098 19.001 5.00098 22.401 5.00098 26.601V30.001H13.001V29.001ZM35.001 29.001V30.001H43.001V26.601C43.001 22.401 39.601 19.101 35.401 19.001C33.801 19.001 32.201 19.501 30.901 20.501C33.501 22.601 35.001 25.701 35.001 29.001ZM15.001 30.001V33.001H33.001V29.001C33.001 24.001 28.901 20.001 23.901 20.101C19.001 20.101 15.001 24.101 15.001 29.001V30.001Z" fill="black"/>
<path d="M24.001 18.001C26.7624 18.001 29.001 15.7624 29.001 13.001C29.001 10.2396 26.7624 8.00098 24.001 8.00098C21.2396 8.00098 19.001 10.2396 19.001 13.001C19.001 15.7624 21.2396 18.001 24.001 18.001Z" fill="black"/>
<path d="M13.001 17.001C15.2101 17.001 17.001 15.2101 17.001 13.001C17.001 10.7918 15.2101 9.00098 13.001 9.00098C10.7918 9.00098 9.00098 10.7918 9.00098 13.001C9.00098 15.2101 10.7918 17.001 13.001 17.001Z" fill="black"/>
<path d="M35.001 17.001C37.2101 17.001 39.001 15.2101 39.001 13.001C39.001 10.7918 37.2101 9.00098 35.001 9.00098C32.7918 9.00098 31.001 10.7918 31.001 13.001C31.001 15.2101 32.7918 17.001 35.001 17.001Z" fill="black"/>
<path d="M47.601 0.400977C47.301 0.100977 46.901 0.000976562 46.501 0.000976562H1.50098C0.700977 0.000976562 0.000976562 0.700977 0.000976562 1.50098V38.401C0.000976562 39.201 0.700977 39.901 1.50098 39.901H46.501C47.301 39.901 48.001 39.201 48.001 38.401V1.50098C48.001 1.10098 47.801 0.700977 47.601 0.400977ZM3.00098 34.201V3.00098H45.001V37.001H3.00098V34.301V34.201Z" fill="black"/>
</g>
<defs>
<clipPath id="clip0_6013_52220">
<rect width="48" height="40" fill="white" transform="translate(0.000976562 0.000976562)"/>
</clipPath>
</defs>
</svg>
