<svg width="48" height="32" viewBox="0 0 48 32" fill="none" xmlns="http://www.w3.org/2000/svg">
<g clip-path="url(#clip0_6013_52206)">
<path d="M13 21.001C13 17.701 14.5 14.601 17.1 12.501C15.8 11.501 14.2 11.001 12.6 11.001C8.4 11.001 5 14.401 5 18.601V22.001H13V21.001ZM35 21.001V22.001H43V18.601C43 14.401 39.6 11.101 35.4 11.001C33.8 11.001 32.2 11.501 30.9 12.501C33.5 14.601 35 17.701 35 21.001ZM15 22.001V25.001H33V21.001C33 16.001 28.9 12.001 23.9 12.101C19 12.101 15 16.101 15 21.001V22.001Z" fill="black"/>
<path d="M24 10.001C26.7614 10.001 29 7.7624 29 5.00098C29 2.23955 26.7614 0.000976562 24 0.000976562C21.2386 0.000976562 19 2.23955 19 5.00098C19 7.7624 21.2386 10.001 24 10.001Z" fill="black"/>
<path d="M13 9.00098C15.2091 9.00098 17 7.21012 17 5.00098C17 2.79184 15.2091 1.00098 13 1.00098C10.7909 1.00098 9 2.79184 9 5.00098C9 7.21012 10.7909 9.00098 13 9.00098Z" fill="black"/>
<path d="M35 9.00098C37.2091 9.00098 39 7.21012 39 5.00098C39 2.79184 37.2091 1.00098 35 1.00098C32.7909 1.00098 31 2.79184 31 5.00098C31 7.21012 32.7909 9.00098 35 9.00098Z" fill="black"/>
<path d="M46.5 29.001H1.5C0.7 29.001 0 29.701 0 30.501C0 31.301 0.7 32.001 1.5 32.001H46.5C47.3 32.001 48 31.301 48 30.501C48 29.701 47.3 29.001 46.5 29.001Z" fill="black"/>
</g>
<defs>
<clipPath id="clip0_6013_52206">
<rect width="48" height="32" fill="white" transform="translate(0 0.000976562)"/>
</clipPath>
</defs>
</svg>
