<svg width="48" height="48" viewBox="0 0 48 48" fill="none" xmlns="http://www.w3.org/2000/svg">
<g clip-path="url(#clip0_6013_52245)">
<path d="M47.001 42.002H1.00098C0.448692 42.002 0.000976562 42.4497 0.000976562 43.002V47.002C0.000976562 47.5542 0.448692 48.002 1.00098 48.002H47.001C47.5533 48.002 48.001 47.5542 48.001 47.002V43.002C48.001 42.4497 47.5533 42.002 47.001 42.002Z" fill="black"/>
<path d="M5.43716 17.559L5.43916 17.563L5.45316 17.572C5.5894 17.7058 5.74994 17.8124 5.92616 17.886C5.93949 17.89 5.95283 17.894 5.96616 17.898C6.13213 17.9622 6.30821 17.9964 6.48616 17.999L6.50116 18.002L6.51416 18C6.69352 17.9976 6.871 17.963 7.03816 17.898C7.05016 17.894 7.06249 17.8903 7.07516 17.887C7.25436 17.8124 7.41737 17.7037 7.55516 17.567L7.56216 17.563L7.56516 17.559L12.5622 12.562C12.7015 12.4227 12.812 12.2574 12.8875 12.0754C12.9629 11.8934 13.0017 11.6983 13.0018 11.5013C13.0018 11.3043 12.9631 11.1093 12.8877 10.9272C12.8124 10.7452 12.7019 10.5798 12.5627 10.4405C12.4234 10.3011 12.258 10.1906 12.0761 10.1152C11.8941 10.0397 11.699 10.0009 11.502 10.0008C11.1042 10.0008 10.7226 10.1587 10.4412 10.44L8.00016 12.881V1.50098C8.00016 1.10315 7.84213 0.721621 7.56082 0.440316C7.27952 0.159012 6.89799 0.000976563 6.50016 0.000976562C6.10234 0.000976563 5.72081 0.159012 5.4395 0.440316C5.1582 0.721621 5.00016 1.10315 5.00016 1.50098V12.881L2.56016 10.441C2.27739 10.1676 1.89855 10.0162 1.50526 10.0195C1.11196 10.0227 0.735663 10.1803 0.457418 10.4583C0.179174 10.7362 0.0212429 11.1124 0.0176411 11.5057C0.0140393 11.899 0.165055 12.2779 0.438161 12.561L5.43716 17.559ZM12.3312 21.672L10.0012 39.002H28.0012V29.292C28.0032 29.2267 28.0265 29.1639 28.0675 29.1131C28.1085 29.0623 28.1649 29.0262 28.2283 29.0103C28.2916 28.9945 28.3584 28.9998 28.4185 29.0253C28.4785 29.0509 28.5286 29.0954 28.5612 29.152L34.0012 39.002H47.0012L44.6712 21.672C44.6455 21.4727 44.58 21.2806 44.4787 21.1071C44.3773 20.9336 44.2421 20.7822 44.0812 20.662L29.5012 9.34198C29.2138 9.12301 28.8625 9.00442 28.5012 9.00442C28.1399 9.00442 27.7885 9.12301 27.5012 9.34198L12.9212 20.662C12.7602 20.7822 12.625 20.9336 12.5237 21.1071C12.4223 21.2806 12.3568 21.4727 12.3312 21.672Z" fill="black"/>
</g>
<defs>
<clipPath id="clip0_6013_52245">
<rect width="48.001" height="48.001" fill="white" transform="translate(0 0.000976562)"/>
</clipPath>
</defs>
</svg>
