<svg id="person_2" width="48" height="48" viewBox="0 0 26 48" fill="none" xmlns="http://www.w3.org/2000/svg">
<g clip-path="url(#clip0_7266_53814)">
<path d="M12.991 10C5.464 10 0 15.047 0 22C0 22.5304 0.210714 23.0391 0.585786 23.4142C0.960859 23.7893 1.46957 24 2 24C2.53043 24 3.03914 23.7893 3.41421 23.4142C3.78929 23.0391 4 22.5304 4 22C3.97053 20.5815 4.32607 19.1814 5.02882 17.9489C5.73158 16.7163 6.75526 15.6972 7.991 15V46C7.991 46.5304 8.20171 47.0391 8.57679 47.4142C8.95186 47.7893 9.46057 48 9.991 48C10.5214 48 11.0301 47.7893 11.4052 47.4142C11.7803 47.0391 11.991 46.5304 11.991 46V31H13.991V46C13.991 46.5304 14.2017 47.0391 14.5768 47.4142C14.9519 47.7893 15.4606 48 15.991 48C16.5214 48 17.0301 47.7893 17.4052 47.4142C17.7803 47.0391 17.991 46.5304 17.991 46V14.999C19.2278 15.6956 20.2526 16.7146 20.9563 17.9474C21.66 19.1802 22.0162 20.5808 21.987 22C21.987 22.5304 22.1977 23.0391 22.5728 23.4142C22.9479 23.7893 23.4566 24 23.987 24C24.5174 24 25.0261 23.7893 25.4012 23.4142C25.7763 23.0391 25.987 22.5304 25.987 22C25.987 15.047 20.521 10 12.991 10Z" fill="currentColor"/>
<path d="M12.9912 8C15.2003 8 16.9912 6.20914 16.9912 4C16.9912 1.79086 15.2003 0 12.9912 0C10.7821 0 8.99121 1.79086 8.99121 4C8.99121 6.20914 10.7821 8 12.9912 8Z" fill="currentColor"/>
</g>
<defs>
<clipPath id="clip0_7266_53814">
<rect width="25.987" height="48" fill="white"/>
</clipPath>
</defs>
</svg>
