<svg width="48" height="48" viewBox="0 0 48 48" fill="none" xmlns="http://www.w3.org/2000/svg">
<g clip-path="url(#clip0_6013_52249)">
<path d="M24.0102 10.001C10.0849 10.001 0.000976562 15.051 0.000976562 22.001C0.000976563 22.5314 0.390136 23.0401 1.08284 23.4152C1.77555 23.7903 2.71507 24.001 3.69471 24.001C4.67434 24.001 5.61386 23.7903 6.30657 23.4152C6.99927 23.0401 7.38843 22.5314 7.38843 22.001C7.38843 20.4586 8.27846 18.9549 9.9341 17.6998C11.5897 16.4448 13.9283 15.5012 16.6228 15.001L9.2353 34.001C9.21259 34.1354 9.24476 34.2708 9.32955 34.3977C9.41433 34.5247 9.54964 34.6399 9.72589 34.7353C9.90214 34.8308 10.115 34.904 10.3494 34.9499C10.5838 34.9958 10.8339 35.0133 11.0822 35.001H14.7759V46.001C14.7759 46.5314 15.1651 47.0401 15.8578 47.4152C16.5505 47.7903 17.49 48.001 18.4696 48.001C19.4493 48.001 20.3888 47.7903 21.0815 47.4152C21.7742 47.0401 22.1633 46.5314 22.1633 46.001V35.001H25.8571V46.001C25.8571 46.5314 26.2462 47.0401 26.9389 47.4152C27.6317 47.7903 28.5712 48.001 29.5508 48.001C30.5304 48.001 31.47 47.7903 32.1627 47.4152C32.8554 47.0401 33.2445 46.5314 33.2445 46.001V35.001H36.9383C37.1865 35.0133 37.4366 34.9958 37.671 34.9499C37.9054 34.904 38.1183 34.8308 38.2945 34.7353C38.4708 34.6399 38.6061 34.5247 38.6909 34.3977C38.7757 34.2708 38.8078 34.1354 38.7851 34.001L31.3977 15.001C34.0729 15.5176 36.3918 16.4653 38.0426 17.7167C39.6935 18.9681 40.5971 20.4632 40.632 22.001C40.632 22.5314 41.0211 23.0401 41.7139 23.4152C42.4066 23.7903 43.3461 24.001 44.3257 24.001C45.3054 24.001 46.2449 23.7903 46.9376 23.4152C47.6303 23.0401 48.0194 22.5314 48.0194 22.001C48.0194 15.051 37.9171 10.001 24.0102 10.001Z" fill="black"/>
<path d="M23.9919 8.00098C28.0719 8.00098 31.3794 6.21012 31.3794 4.00098C31.3794 1.79184 28.0719 0.000976562 23.9919 0.000976562C19.912 0.000976562 16.6045 1.79184 16.6045 4.00098C16.6045 6.21012 19.912 8.00098 23.9919 8.00098Z" fill="black"/>
</g>
<defs>
<clipPath id="clip0_6013_52249">
<rect width="48" height="48" fill="white" transform="translate(0.000976562 0.000976562)"/>
</clipPath>
</defs>
</svg>
