<svg width="48" height="48" viewBox="0 0 48 48" fill="none" xmlns="http://www.w3.org/2000/svg">
<g clip-path="url(#clip0_6013_52253)">
<path d="M23.9964 10.001C10.0934 10.001 0.000976562 15.048 0.000976562 22.001C0.000976563 22.5314 0.390181 23.0401 1.08297 23.4152C1.77576 23.7903 2.71538 24.001 3.69513 24.001C4.67488 24.001 5.6145 23.7903 6.30729 23.4152C7.00008 23.0401 7.38929 22.5314 7.38929 22.001C7.33485 20.5824 7.99157 19.1824 9.2896 17.9498C10.5876 16.7172 12.4785 15.6982 14.761 15.001V46.001C14.761 46.5314 15.1502 47.0401 15.843 47.4152C16.5358 47.7903 17.4754 48.001 18.4551 48.001C19.4349 48.001 20.3745 47.7903 21.0673 47.4152C21.7601 47.0401 22.1493 46.5314 22.1493 46.001V31.001H25.8434V46.001C25.8434 46.5314 26.2326 47.0401 26.9254 47.4152C27.6182 47.7903 28.5578 48.001 29.5376 48.001C30.5173 48.001 31.457 47.7903 32.1498 47.4152C32.8425 47.0401 33.2317 46.5314 33.2317 46.001V15C35.5163 15.6966 37.4091 16.7155 38.7089 17.9484C40.0086 19.1812 40.6665 20.5818 40.6127 22.001C40.6127 22.5314 41.0019 23.0401 41.6947 23.4152C42.3874 23.7903 43.3271 24.001 44.3068 24.001C45.2866 24.001 46.2262 23.7903 46.919 23.4152C47.6118 23.0401 48.001 22.5314 48.001 22.001C48.001 15.048 37.9049 10.001 23.9964 10.001Z" fill="black"/>
<path d="M23.9967 8.00098C28.0772 8.00098 31.385 6.21012 31.385 4.00098C31.385 1.79184 28.0772 0.000976562 23.9967 0.000976562C19.9163 0.000976562 16.6084 1.79184 16.6084 4.00098C16.6084 6.21012 19.9163 8.00098 23.9967 8.00098Z" fill="black"/>
</g>
<defs>
<clipPath id="clip0_6013_52253">
<rect width="48" height="48" fill="white" transform="translate(0.000976562 0.000976562)"/>
</clipPath>
</defs>
</svg>
