<svg width="48" height="32" viewBox="0 0 48 32" fill="none" xmlns="http://www.w3.org/2000/svg">
<g clip-path="url(#clip0_6013_52257)">
<path d="M24.001 26.001C21.7885 25.9977 19.6546 25.1806 18.0059 23.7052C16.3572 22.2299 15.309 20.1995 15.061 18.001H0.000976563V30.001C0.00255929 30.5309 0.213781 31.0387 0.588511 31.4134C0.963242 31.7882 1.47103 31.9994 2.00098 32.001H46.001C46.5309 31.9994 47.0387 31.7882 47.4134 31.4134C47.7882 31.0387 47.9994 30.5309 48.001 30.001V18.001H32.941C32.693 20.1995 31.6447 22.2299 29.996 23.7052C28.3473 25.1806 26.2134 25.9977 24.001 26.001ZM46.001 6.00098H33.001V2.00098C32.9994 1.47103 32.7882 0.963242 32.4134 0.588511C32.0387 0.213781 31.5309 0.00255929 31.001 0.000976562L17.001 0.000976563C16.471 0.00255929 15.9632 0.213781 15.5885 0.588511C15.2138 0.963242 15.0026 1.47103 15.001 2.00098V6.00098H10.001V4.00098C10.001 3.73576 9.89562 3.48141 9.70808 3.29387C9.52055 3.10633 9.26619 3.00098 9.00098 3.00098H6.00098C5.73576 3.00098 5.48141 3.10633 5.29387 3.29387C5.10633 3.48141 5.00098 3.73576 5.00098 4.00098V6.00098H2.00098C1.47103 6.00256 0.963242 6.21378 0.588511 6.58851C0.213781 6.96324 0.00255929 7.47103 0.000976562 8.00098L0.000976563 16.001H15.061C15.3054 13.8009 16.3525 11.7681 18.002 10.2918C19.6514 8.81544 21.7873 7.99917 24.001 7.99917C26.2146 7.99917 28.3505 8.81544 30 10.2918C31.6494 11.7681 32.6966 13.8009 32.941 16.001H48.001V8.00098C47.9994 7.47103 47.7882 6.96324 47.4134 6.58851C47.0387 6.21378 46.5309 6.00256 46.001 6.00098ZM42.501 12.001H37.501C37.1032 12.001 36.7216 11.8429 36.4403 11.5616C36.159 11.2803 36.001 10.8988 36.001 10.501C36.001 10.1032 36.159 9.72162 36.4403 9.44032C36.7216 9.15901 37.1032 9.00098 37.501 9.00098H42.501C42.8988 9.00098 43.2803 9.15901 43.5616 9.44032C43.8429 9.72162 44.001 10.1032 44.001 10.501C44.001 10.8988 43.8429 11.2803 43.5616 11.5616C43.2803 11.8429 42.8988 12.001 42.501 12.001Z" fill="black"/>
<path d="M24.0009 24.0012C25.5492 24.0023 27.0541 23.4893 28.2794 22.5428C29.5047 21.5962 30.381 20.2696 30.7709 18.7712C31.0787 17.6112 31.0787 16.3911 30.7709 15.2312C30.3798 13.7334 29.5031 12.4077 28.2781 11.4615C27.053 10.5152 25.5488 10.002 24.0009 10.002C22.453 10.002 20.9487 10.5152 19.7237 11.4615C18.4987 12.4077 17.622 13.7334 17.2309 15.2312C16.923 16.3911 16.923 17.6112 17.2309 18.7712C17.6207 20.2696 18.4971 21.5962 19.7224 22.5428C20.9477 23.4893 22.4526 24.0023 24.0009 24.0012ZM20.1309 16.0012C20.3517 15.1426 20.8518 14.3819 21.5524 13.8387C22.253 13.2955 23.1144 13.0007 24.0009 13.0007C24.8874 13.0007 25.7487 13.2955 26.4493 13.8387C27.1499 14.3819 27.65 15.1426 27.8709 16.0012C28.0447 16.6565 28.0447 17.3458 27.8709 18.0012C27.65 18.8597 27.1499 19.6204 26.4493 20.1636C25.7487 20.7068 24.8874 21.0016 24.0009 21.0016C23.1144 21.0016 22.253 20.7068 21.5524 20.1636C20.8518 19.6204 20.3517 18.8597 20.1309 18.0012C19.957 17.3458 19.957 16.6565 20.1309 16.0012Z" fill="black"/>
</g>
<defs>
<clipPath id="clip0_6013_52257">
<rect width="48" height="32" fill="white" transform="translate(0.000976562 0.000976562)"/>
</clipPath>
</defs>
</svg>
