<svg width="48" height="48" viewBox="0 0 48 48" fill="none" xmlns="http://www.w3.org/2000/svg">
<g clip-path="url(#clip0_6013_52265)">
<path d="M39.001 7.50087C39.0011 7.59661 38.9914 7.69211 38.972 7.78587C38.9539 7.87678 38.9275 7.96583 38.893 8.05187L38.89 8.06187C38.806 8.26712 38.6776 8.4512 38.514 8.60087L32.538 14.5669C32.4007 14.7072 32.237 14.8189 32.0563 14.8955C31.8757 14.9722 31.6816 15.0122 31.4853 15.0134C31.289 15.0146 31.0945 14.9768 30.9129 14.9024C30.7313 14.8279 30.5663 14.7181 30.4274 14.5795C30.2885 14.4408 30.1784 14.276 30.1036 14.0946C30.0288 13.9131 29.9906 13.7187 29.9914 13.5224C29.9922 13.3261 30.0319 13.132 30.1082 12.9511C30.1845 12.7703 30.2959 12.6064 30.436 12.4689L33.911 9.00087H14.092L17.566 12.4689C17.8396 12.7486 17.9917 13.1249 17.9894 13.5162C17.9871 13.9074 17.8304 14.282 17.5535 14.5584C17.2766 14.8348 16.9017 14.9907 16.5105 14.9923C16.1192 14.9939 15.7431 14.841 15.464 14.5669L9.48698 8.59987C9.32382 8.45039 9.19576 8.26667 9.11198 8.06187L9.10798 8.05087C9.03808 7.87588 9.00178 7.68929 9.00098 7.50087C9.00203 7.31311 9.03833 7.12723 9.10798 6.95287L9.11198 6.93887C9.19528 6.73543 9.32227 6.55279 9.48398 6.40387L15.464 0.435868C15.6004 0.292366 15.7642 0.177601 15.9456 0.0983253C16.1271 0.0190496 16.3226 -0.023136 16.5206 -0.0257495C16.7186 -0.0283631 16.9151 0.00864815 17.0986 0.0831067C17.282 0.157565 17.4488 0.267967 17.589 0.407818C17.7292 0.547668 17.8399 0.714143 17.9148 0.897447C17.9897 1.08075 18.0272 1.27718 18.0251 1.47519C18.0229 1.67319 17.9812 1.86876 17.9024 2.0504C17.8235 2.23204 17.7092 2.39608 17.566 2.53287L14.091 6.00087H33.909L30.435 2.53287C30.1615 2.25305 30.0095 1.8766 30.012 1.48534C30.0145 1.09407 30.1713 0.719607 30.4484 0.44333C30.7255 0.167053 31.1004 0.0112895 31.4917 0.00989214C31.8829 0.0084948 32.2589 0.161576 32.538 0.435868L38.518 6.40387C38.6797 6.55279 38.8067 6.73543 38.89 6.93887L38.894 6.95287V6.95487C38.9279 7.03965 38.954 7.12734 38.972 7.21687C38.9906 7.31007 39.0003 7.40583 39.001 7.50087ZM47.001 21.0009C47.001 20.2097 46.7664 19.4364 46.3269 18.7786C45.8873 18.1208 45.2626 17.6081 44.5317 17.3053C43.8008 17.0026 42.9965 16.9234 42.2206 17.0777C41.4447 17.2321 40.732 17.613 40.1726 18.1724C39.6131 18.7319 39.2322 19.4446 39.0778 20.2205C38.9235 20.9964 39.0027 21.8007 39.3055 22.5316C39.6082 23.2625 40.1209 23.8872 40.7787 24.3267C41.4365 24.7663 42.2099 25.0009 43.001 25.0009C44.0618 25.0009 45.0793 24.5794 45.8294 23.8293C46.5795 23.0791 47.001 22.0617 47.001 21.0009ZM48.001 27.8629C46.3974 27.2859 44.7052 26.9942 43.001 27.0009C35.59 27.0009 30.001 32.1609 30.001 39.0009C30.001 39.5313 30.2117 40.04 30.5868 40.4151C30.9618 40.7902 31.4705 41.0009 32.001 41.0009C32.5314 41.0009 33.0401 40.7902 33.4152 40.4151C33.7903 40.04 34.001 39.5313 34.001 39.0009C33.9747 37.6159 34.3351 36.251 35.0417 35.0595C35.7483 33.868 36.7731 32.8971 38.001 32.2559V48.0009H48.001V32.2559V27.8629ZM5.00098 25.0009C5.7921 25.0009 6.56546 24.7663 7.22326 24.3267C7.88105 23.8872 8.39374 23.2625 8.6965 22.5316C8.99925 21.8007 9.07846 20.9964 8.92412 20.2205C8.76978 19.4446 8.38881 18.7319 7.8294 18.1724C7.26999 17.613 6.55726 17.2321 5.78134 17.0777C5.00541 16.9234 4.20115 17.0026 3.47024 17.3053C2.73934 17.6081 2.11462 18.1208 1.6751 18.7786C1.23557 19.4364 1.00098 20.2097 1.00098 21.0009C1.00098 22.0617 1.4224 23.0791 2.17255 23.8293C2.92269 24.5794 3.94011 25.0009 5.00098 25.0009ZM5.00098 27.0009C3.29677 26.9942 1.60456 27.2859 0.000976563 27.8629L0.000976562 48.0009H10.001V32.2559C11.2289 32.8971 12.2537 33.868 12.9603 35.0595C13.6668 36.251 14.0272 37.6159 14.001 39.0009C14.001 39.5313 14.2117 40.04 14.5868 40.4151C14.9618 40.7902 15.4705 41.0009 16.001 41.0009C16.5314 41.0009 17.0401 40.7902 17.4152 40.4151C17.7903 40.04 18.001 39.5313 18.001 39.0009C18.001 32.1609 12.412 27.0009 5.00098 27.0009Z" fill="black"/>
</g>
<defs>
<clipPath id="clip0_6013_52265">
<rect width="48" height="48" fill="white" transform="translate(0.000976562 0.000976562)"/>
</clipPath>
</defs>
</svg>
