<svg width="48" height="48" viewBox="0 0 48 48" fill="none" xmlns="http://www.w3.org/2000/svg">
<g clip-path="url(#clip0_6013_52261)">
<path d="M24.001 0.000976562C19.2542 0.000976563 14.6141 1.40855 10.6673 4.04571C6.72052 6.68286 3.64438 10.4311 1.82788 14.8166C0.0113754 19.202 -0.463905 24.0276 0.462141 28.6831C1.38819 33.3387 3.67396 37.6151 7.03042 40.9715C10.3869 44.328 14.6633 46.6138 19.3188 47.5398C23.9744 48.4659 28.8 47.9906 33.1854 46.1741C37.5708 44.3576 41.3191 41.2814 43.9563 37.3347C46.5934 33.3879 48.001 28.7477 48.001 24.001C48.001 17.6358 45.4724 11.5313 40.9715 7.03041C36.4707 2.52954 30.3662 0.000976563 24.001 0.000976562ZM24.001 42.001C20.4409 42.001 16.9608 40.9453 14.0007 38.9674C11.0406 36.9896 8.73353 34.1783 7.37116 30.8893C6.00878 27.6002 5.65232 23.981 6.34685 20.4894C7.04139 16.9977 8.75572 13.7904 11.2731 11.2731C13.7904 8.75571 16.9977 7.04138 20.4894 6.34684C23.981 5.65231 27.6002 6.00877 30.8893 7.37114C34.1784 8.73352 36.9896 11.0406 38.9674 14.0007C40.9453 16.9608 42.001 20.4409 42.001 24.001C41.9957 28.7732 40.0976 33.3485 36.7231 36.7231C33.3486 40.0976 28.7733 41.9957 24.001 42.001Z" fill="black"/>
<path d="M34.1217 13.8798C33.5591 13.3174 32.7962 13.0015 32.0007 13.0015C31.2052 13.0015 30.4423 13.3174 29.8797 13.8798L24.0007 20.0008L18.1217 13.8798C17.5559 13.3333 16.7981 13.031 16.0115 13.0378C15.2249 13.0446 14.4725 13.3601 13.9163 13.9164C13.3601 14.4726 13.0445 15.225 13.0377 16.0116C13.0309 16.7982 13.3333 17.556 13.8797 18.1218L20.0007 24.0008L13.8797 29.8798C13.5932 30.1566 13.3647 30.4876 13.2074 30.8536C13.0502 31.2196 12.9674 31.6133 12.964 32.0116C12.9605 32.41 13.0364 32.805 13.1873 33.1737C13.3381 33.5424 13.5609 33.8773 13.8425 34.159C14.1242 34.4407 14.4592 34.6634 14.8279 34.8143C15.1966 34.9651 15.5916 35.041 15.9899 35.0376C16.3883 35.0341 16.7819 34.9514 17.1479 34.7941C17.514 34.6369 17.845 34.4084 18.1217 34.1218L24.0007 28.0008L29.8797 34.1218C30.4455 34.6683 31.2033 34.9707 31.9899 34.9638C32.7765 34.957 33.529 34.6415 34.0852 34.0853C34.6414 33.5291 34.9569 32.7766 34.9638 31.99C34.9706 31.2034 34.6682 30.4456 34.1217 29.8798L28.0007 24.0008L34.1217 18.1218C34.6841 17.5592 35.0001 16.7963 35.0001 16.0008C35.0001 15.2053 34.6841 14.4424 34.1217 13.8798Z" fill="black"/>
</g>
<defs>
<clipPath id="clip0_6013_52261">
<rect width="48" height="48" fill="white" transform="translate(0.000976562 0.000976562)"/>
</clipPath>
</defs>
</svg>
