<svg width="48" height="44" viewBox="0 0 48 44" fill="none" xmlns="http://www.w3.org/2000/svg">
<g clip-path="url(#clip0_6013_52268)">
<path d="M40.3642 0.000976562H5.81514C4.24921 0.025713 2.75785 0.618528 1.66792 1.64949C0.577997 2.68046 -0.0215832 4.06547 0.000594022 5.50098V43.081C-0.00157277 43.1998 0.0218236 43.3179 0.069447 43.4285C0.11707 43.539 0.187988 43.6399 0.278148 43.7253C0.368309 43.8108 0.475947 43.8791 0.594914 43.9264C0.713881 43.9737 0.841847 43.999 0.971503 44.001H17.4551V32.001C17.4551 30.9401 17.9149 29.9227 18.7332 29.1726C19.5516 28.4224 20.6615 28.001 21.8188 28.001H34.9097V14.001H40.3642C42.3895 14.001 44.3319 13.2635 45.764 11.9507C47.1961 10.638 48.0006 8.85749 48.0006 7.00098C48.0006 5.14446 47.1961 3.36398 45.764 2.05123C44.3319 0.738474 42.3895 0.000976563 40.3642 0.000976562ZM4.68059 13.291L11.226 7.29098C11.3278 7.19774 11.4485 7.12378 11.5814 7.07332C11.7143 7.02286 11.8567 6.99688 12.0006 6.99688C12.1444 6.99688 12.2869 7.02286 12.4198 7.07332C12.5527 7.12378 12.6734 7.19774 12.7751 7.29098C12.8769 7.38421 12.9575 7.49491 13.0126 7.61673C13.0676 7.73855 13.096 7.86912 13.096 8.00098C13.096 8.13284 13.0676 8.2634 13.0126 8.38523C12.9575 8.50705 12.8769 8.61774 12.7751 8.71098L6.22969 14.711C6.02289 14.8969 5.74479 15.001 5.45514 15.001C5.16549 15.001 4.88739 14.8969 4.68059 14.711C4.47674 14.5219 4.36241 14.2668 4.36241 14.001C4.36241 13.7351 4.47674 13.48 4.68059 13.291ZM21.5024 10.711L4.04787 26.711C3.84107 26.8969 3.56297 27.001 3.27332 27.001C2.98367 27.001 2.70557 26.8969 2.49878 26.711C2.29492 26.5219 2.18059 26.2668 2.18059 26.001C2.18059 25.7351 2.29492 25.48 2.49878 25.291L19.9533 9.29098C20.055 9.19774 20.1758 9.12378 20.3087 9.07332C20.4416 9.02286 20.584 8.99689 20.7279 8.99689C20.8717 8.99689 21.0142 9.02286 21.147 9.07332C21.2799 9.12378 21.4007 9.19774 21.5024 9.29098C21.6041 9.38422 21.6848 9.4949 21.7399 9.61673C21.7949 9.73855 21.8232 9.86912 21.8232 10.001C21.8232 10.1328 21.7949 10.2634 21.7399 10.3852C21.6848 10.507 21.6041 10.6177 21.5024 10.711ZM34.9097 12.001V11.891C34.9443 11.9323 34.9846 11.9692 35.0297 12.001H34.9097ZM40.3642 11.001C39.5012 11.001 38.6575 10.7664 37.9399 10.3269C37.2223 9.88733 36.663 9.26262 36.3328 8.53171C36.0025 7.80081 35.9161 6.99654 36.0844 6.22062C36.2528 5.44469 36.6684 4.73196 37.2787 4.17255C37.8889 3.61314 38.6665 3.23218 39.5129 3.07784C40.3594 2.92349 41.2368 3.00271 42.0341 3.30546C42.8315 3.60821 43.513 4.1209 43.9925 4.7787C44.4719 5.43649 44.7279 6.20985 44.7279 7.00098C44.7279 8.06184 44.2681 9.07926 43.4498 9.8294C42.6314 10.5795 41.5215 11.001 40.3642 11.001Z" fill="black"/>
<path d="M19.6367 32.001V44.001L34.9094 30.001H21.8185C21.2404 30.0026 20.6865 30.2138 20.2777 30.5885C19.8689 30.9632 19.6384 31.471 19.6367 32.001Z" fill="black"/>
</g>
<defs>
<clipPath id="clip0_6013_52268">
<rect width="48" height="44" fill="white" transform="translate(0.000976562 0.000976562)"/>
</clipPath>
</defs>
</svg>
