<svg width="48" height="48" viewBox="0 0 48 48" fill="none" xmlns="http://www.w3.org/2000/svg">
<g clip-path="url(#clip0_6013_52272)">
<path d="M45 6.00195H3C2.20508 6.00354 1.4434 6.21476 0.881302 6.58949C0.319207 6.96422 0.00237409 7.47201 0 8.00195L0 30.002H48V8.00195C47.9976 7.47201 47.6808 6.96422 47.1187 6.58949C46.5566 6.21476 45.7949 6.00354 45 6.00195ZM34.5 20.002C34.5048 20.9291 34.2294 21.8474 33.69 22.702C33.6907 22.7074 33.6897 22.7128 33.6871 22.718C33.6846 22.7231 33.6804 22.7279 33.675 22.732C32.8694 23.9984 31.5223 25.0788 29.8018 25.8383C28.0813 26.5977 26.0635 27.0027 24 27.0027C21.9365 27.0027 19.9187 26.5977 18.1982 25.8383C16.4777 25.0788 15.1306 23.9984 14.325 22.732C14.3196 22.7279 14.3154 22.7231 14.3129 22.718C14.3103 22.7128 14.3093 22.7074 14.31 22.702C13.7706 21.8474 13.4952 20.9291 13.5 20.002V11.752C13.5034 11.5347 13.6117 11.324 13.809 11.151C14.0062 10.9781 14.2819 10.8522 14.595 10.792L23.595 9.08195C23.8599 9.03243 24.1401 9.03243 24.405 9.08195L33.405 10.792C33.7181 10.8522 33.9938 10.9781 34.191 11.151C34.3883 11.324 34.4966 11.5347 34.5 11.752V20.002ZM9 4.00195H39C39.7957 4.00195 40.5587 3.79124 41.1213 3.41617C41.6839 3.04109 42 2.53239 42 2.00195C42 1.47152 41.6839 0.962812 41.1213 0.58774C40.5587 0.212667 39.7957 0.00195313 39 0.00195312L9 0.00195313C8.20435 0.00195313 7.44129 0.212667 6.87868 0.58774C6.31607 0.962812 6 1.47152 6 2.00195C6 2.53239 6.31607 3.04109 6.87868 3.41617C7.44129 3.79124 8.20435 4.00195 9 4.00195ZM0 48.002H18V38.002C18.0024 37.472 18.3192 36.9642 18.8813 36.5895C19.4434 36.2148 20.2051 36.0035 21 36.002H27C27.7949 36.0035 28.5566 36.2148 29.1187 36.5895C29.6808 36.9642 29.9976 37.472 30 38.002V48.002H48V32.002H0V48.002Z" fill="black"/>
<path d="M29.2199 16.6321L26.3999 16.5921C26.2363 16.5899 26.0781 16.5527 25.9485 16.4861C25.8189 16.4196 25.7248 16.327 25.6799 16.2221L24.7499 14.3721C24.6998 14.2656 24.6001 14.1726 24.4652 14.1066C24.3303 14.0405 24.1673 14.0049 23.9999 14.0049C23.8325 14.0049 23.6695 14.0405 23.5346 14.1066C23.3997 14.1726 23.3 14.2656 23.2499 14.3721L22.3199 16.2221C22.275 16.327 22.1809 16.4196 22.0513 16.4861C21.9217 16.5527 21.7635 16.5899 21.5999 16.5921L18.7799 16.6321C18.6118 16.6394 18.451 16.6804 18.3186 16.7498C18.1862 16.8192 18.0884 16.9137 18.0381 17.0208C17.9878 17.1279 17.9873 17.2427 18.0367 17.3501C18.0861 17.4574 18.1831 17.5522 18.3149 17.6221L20.5649 18.8121C20.6945 18.8828 20.7894 18.9777 20.8375 19.0846C20.8856 19.1915 20.8847 19.3056 20.8349 19.4121L20.0249 21.2921C19.9709 21.3985 19.9686 21.5135 20.0184 21.6208C20.0681 21.7281 20.1673 21.8222 20.3018 21.8898C20.4364 21.9573 20.5994 21.9949 20.7679 21.9971C20.9363 21.9993 21.1014 21.9661 21.2399 21.9021L23.5499 20.7821C23.6807 20.7187 23.8382 20.6845 23.9999 20.6845C24.1616 20.6845 24.3191 20.7187 24.4499 20.7821L26.7599 21.9021C26.8984 21.9661 27.0635 21.9993 27.2319 21.9971C27.4003 21.9949 27.5634 21.9573 27.698 21.8898C27.8325 21.8222 27.9317 21.7281 27.9814 21.6208C28.0312 21.5135 28.0289 21.3985 27.9749 21.2921L27.1649 19.4121C27.1151 19.3056 27.1142 19.1915 27.1623 19.0846C27.2104 18.9777 27.3053 18.8828 27.4349 18.8121L29.6849 17.6221C29.8167 17.5522 29.9137 17.4574 29.9631 17.3501C30.0125 17.2427 30.012 17.1279 29.9617 17.0208C29.9114 16.9137 29.8136 16.8192 29.6812 16.7498C29.5488 16.6804 29.388 16.6394 29.2199 16.6321Z" fill="black"/>
</g>
<defs>
<clipPath id="clip0_6013_52272">
<rect width="48" height="48" fill="white" transform="translate(0 0.00195312)"/>
</clipPath>
</defs>
</svg>
