<svg width="48" height="42" viewBox="0 0 48 42" fill="none" xmlns="http://www.w3.org/2000/svg">
<g clip-path="url(#clip0_6013_52276)">
<path d="M47.0613 0.00195312H18.9764C18.8492 0.00583238 18.7239 0.0347825 18.6079 0.0871486C18.4918 0.139515 18.3872 0.21427 18.3 0.307141C18.2128 0.400012 18.1448 0.509178 18.0997 0.628398C18.0547 0.747619 18.0336 0.874556 18.0376 1.00195V5.53195L18.9764 5.72195C19.8285 5.89897 20.5936 6.36455 21.143 7.04028C21.6924 7.71602 21.9924 8.56064 21.9926 9.43195L22.0326 21.472C22.0721 24.9383 20.851 28.3007 18.5969 30.932C18.4171 31.142 18.2273 31.342 18.0376 31.532V41.002C18.0336 41.1293 18.0547 41.2563 18.0997 41.3755C18.1448 41.4947 18.2128 41.6039 18.3 41.6968C18.3872 41.7896 18.4918 41.8644 18.6079 41.9168C18.7239 41.9691 18.8492 41.9981 18.9764 42.002H39.0114V36.002C39.014 35.2071 39.3305 34.4456 39.8919 33.8835C40.4532 33.3215 41.2138 33.0046 42.0076 33.002H48.0001V1.00195C48.0041 0.874556 47.983 0.747619 47.938 0.628398C47.893 0.509178 47.8249 0.400012 47.7377 0.307141C47.6505 0.21427 47.5459 0.139515 47.4298 0.0871486C47.3138 0.0347825 47.1886 0.00583238 47.0613 0.00195312ZM39.9702 29.002H26.0676C25.8027 29.002 25.5486 28.8966 25.3613 28.7091C25.174 28.5215 25.0688 28.2672 25.0688 28.002C25.0688 27.7367 25.174 27.4824 25.3613 27.2948C25.5486 27.1073 25.8027 27.002 26.0676 27.002H39.9702C40.2351 27.002 40.4891 27.1073 40.6764 27.2948C40.8637 27.4824 40.9689 27.7367 40.9689 28.002C40.9689 28.2672 40.8637 28.5215 40.6764 28.7091C40.4891 28.8966 40.2351 29.002 39.9702 29.002ZM39.9702 23.002H26.0676C25.8027 23.002 25.5486 22.8966 25.3613 22.7091C25.174 22.5215 25.0688 22.2672 25.0688 22.002C25.0688 21.7367 25.174 21.4824 25.3613 21.2948C25.5486 21.1073 25.8027 21.002 26.0676 21.002H39.9702C40.2351 21.002 40.4891 21.1073 40.6764 21.2948C40.8637 21.4824 40.9689 21.7367 40.9689 22.002C40.9689 22.2672 40.8637 22.5215 40.6764 22.7091C40.4891 22.8966 40.2351 23.002 39.9702 23.002ZM39.9702 17.002H26.0676C25.8027 17.002 25.5486 16.8966 25.3613 16.7091C25.174 16.5215 25.0688 16.2672 25.0688 16.002C25.0688 15.7367 25.174 15.4824 25.3613 15.2948C25.5486 15.1073 25.8027 15.002 26.0676 15.002H39.9702C40.2351 15.002 40.4891 15.1073 40.6764 15.2948C40.8637 15.4824 40.9689 15.7367 40.9689 16.002C40.9689 16.2672 40.8637 16.5215 40.6764 16.7091C40.4891 16.8966 40.2351 17.002 39.9702 17.002ZM39.9702 11.002H26.0676C25.8027 11.002 25.5486 10.8966 25.3613 10.7091C25.174 10.5215 25.0688 10.2672 25.0688 10.002C25.0688 9.73674 25.174 9.48238 25.3613 9.29485C25.5486 9.10731 25.8027 9.00195 26.0676 9.00195H39.9702C40.2351 9.00195 40.4891 9.10731 40.6764 9.29485C40.8637 9.48238 40.9689 9.73674 40.9689 10.002C40.9689 10.2672 40.8637 10.5215 40.6764 10.7091C40.4891 10.8966 40.2351 11.002 39.9702 11.002Z" fill="black"/>
<path d="M42.0076 35.002C41.743 35.0027 41.4894 35.1084 41.3023 35.2957C41.1151 35.4831 41.0097 35.737 41.0089 36.002V42.002L48.0001 35.002H42.0076ZM20.0351 21.482L19.9951 9.43195C19.9991 9.02212 19.8608 8.62362 19.604 8.30447C19.3472 7.98532 18.9877 7.76529 18.5869 7.68195L18.0376 7.57195L10.3272 6.03195C10.2151 6.01228 10.1015 6.00225 9.98764 6.00195C9.8738 6.00225 9.76019 6.01228 9.64806 6.03195L1.39838 7.73195C0.998615 7.81939 0.641216 8.04222 0.386487 8.36285C0.131758 8.68348 -0.00470536 9.08228 0.00012391 9.49195L0.0300865 21.542C0.0500615 27.882 4.61436 33.002 10.0376 33.002H10.0675C11.6776 32.9522 13.2497 32.5009 14.6415 31.6889C16.0332 30.8769 17.2005 29.7299 18.0376 28.352C19.3578 26.3058 20.0521 23.9179 20.0351 21.482Z" fill="black"/>
</g>
<defs>
<clipPath id="clip0_6013_52276">
<rect width="48" height="42" fill="white" transform="translate(0 0.00195312)"/>
</clipPath>
</defs>
</svg>
