<svg width="48" height="43" viewBox="0 0 48 43" fill="none" xmlns="http://www.w3.org/2000/svg">
<g clip-path="url(#clip0_6013_52293)">
<path d="M38.8984 30.9828C38.9334 30.9848 38.9684 30.9928 39.0044 30.9928C41.3903 30.9928 43.6784 30.0448 45.3654 28.3575C47.0524 26.6701 48.0002 24.3816 48.0002 21.9953C48.0002 19.609 47.0524 17.3204 45.3654 15.6331C43.6784 13.9457 41.3903 12.9978 39.0044 12.9978L29.5017 12.9998C29.1038 12.9998 28.7222 13.1578 28.4409 13.4392C28.1596 13.7206 28.0015 14.1023 28.0015 14.5002C28.0015 14.8981 28.1596 15.2798 28.4409 15.5611C28.7222 15.8425 29.1038 16.0006 29.5017 16.0006L39.0044 15.9986C40.5946 15.9986 42.1195 16.6304 43.2439 17.755C44.3683 18.8796 44.9999 20.4049 44.9999 21.9953C44.9999 23.5857 44.3683 25.111 43.2439 26.2356C42.1195 27.3602 40.5946 27.992 39.0044 27.992C38.9492 27.9953 38.8942 28.001 38.8394 28.009C38.8044 28.006 38.7694 27.999 38.7334 27.999H35.1341L39.2865 23.8448C39.4339 23.7074 39.5521 23.5418 39.6341 23.3577C39.7161 23.1737 39.7601 22.975 39.7637 22.7735C39.7672 22.5721 39.7302 22.372 39.6547 22.1851C39.5793 21.9983 39.467 21.8286 39.3246 21.6861C39.1821 21.5436 39.0124 21.4313 38.8256 21.3559C38.6388 21.2804 38.4388 21.2433 38.2373 21.2469C38.0359 21.2504 37.8373 21.2945 37.6533 21.3765C37.4692 21.4585 37.3036 21.5768 37.1663 21.7242L30.4527 28.4371C30.3133 28.5764 30.2028 28.7419 30.1273 28.924C30.0519 29.1061 30.013 29.3013 30.013 29.4984C30.013 29.6955 30.0519 29.8907 30.1273 30.0728C30.2028 30.2549 30.3133 30.4203 30.4527 30.5597L37.1653 37.2735C37.303 37.4193 37.4686 37.5359 37.6522 37.6165C37.8358 37.6972 38.0337 37.7402 38.2342 37.743C38.4347 37.7459 38.6337 37.7085 38.8195 37.6331C39.0053 37.5576 39.1741 37.4457 39.3159 37.304C39.4577 37.1622 39.5696 36.9934 39.6451 36.8076C39.7206 36.6218 39.7581 36.4228 39.7554 36.2222C39.7526 36.0217 39.7097 35.8238 39.6292 35.6401C39.5486 35.4564 39.4321 35.2908 39.2865 35.153L35.1341 30.9988H38.7334C38.7886 30.9957 38.8437 30.9904 38.8984 30.9828ZM29.8007 2.75291C29.5533 2.00122 29.0885 1.33979 28.4653 0.852283C27.842 0.364772 27.0882 0.0730702 26.2992 0.0140679C25.5102 -0.0449344 24.7214 0.131413 24.0326 0.520809C23.3438 0.910204 22.7859 1.49516 22.4295 2.20169C22.0731 2.90823 21.9341 3.70461 22.0302 4.49012C22.1264 5.27563 22.4532 6.01499 22.9695 6.6147C23.4857 7.21441 24.1682 7.64752 24.9306 7.85927C25.6929 8.07102 26.501 8.0519 27.2525 7.80432C28.2601 7.47236 29.0946 6.75371 29.5724 5.80641C30.0503 4.85911 30.1324 3.76075 29.8007 2.75291ZM20.7369 23.5087L24.6683 15.7175C25.2482 14.5682 25.3479 13.2354 24.9454 12.0125C24.5429 10.7897 23.6712 9.77677 22.5221 9.19671L19.9659 7.90634C19.8297 7.83964 19.6865 7.78863 19.5388 7.7543C16.2326 6.30575 12.4985 6.1727 9.09761 7.38227C5.6967 8.59183 2.88492 11.053 1.2353 14.2641C0.998748 14.7509 0.962361 15.311 1.13394 15.8243C1.30553 16.3376 1.67141 16.7632 2.15311 17.0098C2.63481 17.2564 3.19395 17.3043 3.71058 17.1433C4.22721 16.9823 4.66018 16.6252 4.91661 16.1486C5.85964 14.3143 7.34398 12.8145 9.16827 11.8527C10.9926 10.8909 13.0685 10.5137 15.1145 10.7721L0.228217 39.9663C0.103714 40.2106 0.0285306 40.477 0.00696076 40.7503C-0.0146091 41.0236 0.0178567 41.2985 0.102504 41.5593C0.187152 41.82 0.322324 42.0616 0.500302 42.2701C0.67828 42.4786 0.89558 42.6501 1.13979 42.7746C1.38401 42.8991 1.65035 42.9743 1.92362 42.9959C2.19689 43.0175 2.47173 42.985 2.73245 42.9003C2.99318 42.8157 3.23467 42.6805 3.44316 42.5024C3.65164 42.3244 3.82302 42.1071 3.94753 41.8628L12.9903 24.1289L17.4657 26.3895C19.7935 27.6584 21.5318 29.7888 22.308 32.3243C23.0841 34.8597 22.8365 37.5983 21.618 39.9533C21.4863 40.197 21.4045 40.4645 21.3773 40.7402C21.35 41.0159 21.3779 41.2943 21.4593 41.5591C21.5407 41.8239 21.674 42.0699 21.8514 42.2826C22.0288 42.4954 22.2468 42.6707 22.4926 42.7984C22.7384 42.926 23.0072 43.0034 23.2833 43.0261C23.5593 43.0489 23.8371 43.0164 24.1005 42.9306C24.3639 42.8448 24.6075 42.7075 24.8173 42.5266C25.0271 42.3456 25.1987 42.1248 25.3223 41.8768C26.9228 38.7813 27.3402 35.2083 26.4961 31.8271C25.652 28.4459 23.6044 25.4884 20.7369 23.5087Z" fill="black"/>
</g>
<defs>
<clipPath id="clip0_6013_52293">
<rect width="48" height="43" fill="white" transform="translate(0 0.00195312)"/>
</clipPath>
</defs>
</svg>
