<svg width="48" height="48" viewBox="0 0 48 48" fill="none" xmlns="http://www.w3.org/2000/svg">
<g clip-path="url(#clip0_6013_52280)">
<path d="M43.5 48.002C45.9853 48.002 48 45.9872 48 43.502C48 41.0167 45.9853 39.002 43.5 39.002C41.0147 39.002 39 41.0167 39 43.502C39 45.9872 41.0147 48.002 43.5 48.002Z" fill="black"/>
<path d="M43.5 36.002C45.9853 36.002 48 33.9872 48 31.502C48 29.0167 45.9853 27.002 43.5 27.002C41.0147 27.002 39 29.0167 39 31.502C39 33.9872 41.0147 36.002 43.5 36.002Z" fill="black"/>
<path d="M43.5 24.002C45.9853 24.002 48 21.9872 48 19.502C48 17.0167 45.9853 15.002 43.5 15.002C41.0147 15.002 39 17.0167 39 19.502C39 21.9872 41.0147 24.002 43.5 24.002Z" fill="black"/>
<path d="M31.5 48.002C33.9853 48.002 36 45.9872 36 43.502C36 41.0167 33.9853 39.002 31.5 39.002C29.0147 39.002 27 41.0167 27 43.502C27 45.9872 29.0147 48.002 31.5 48.002Z" fill="black"/>
<path d="M31.5 36.002C33.9853 36.002 36 33.9872 36 31.502C36 29.0167 33.9853 27.002 31.5 27.002C29.0147 27.002 27 29.0167 27 31.502C27 33.9872 29.0147 36.002 31.5 36.002Z" fill="black"/>
<path d="M19.5 48.002C21.9853 48.002 24 45.9872 24 43.502C24 41.0167 21.9853 39.002 19.5 39.002C17.0147 39.002 15 41.0167 15 43.502C15 45.9872 17.0147 48.002 19.5 48.002Z" fill="black"/>
<path d="M7.5 48.002C9.98528 48.002 12 45.9872 12 43.502C12 41.0167 9.98528 39.002 7.5 39.002C5.01472 39.002 3 41.0167 3 43.502C3 45.9872 5.01472 48.002 7.5 48.002Z" fill="black"/>
<path d="M19.5 36.002C21.9853 36.002 24 33.9872 24 31.502C24 29.0167 21.9853 27.002 19.5 27.002C17.0147 27.002 15 29.0167 15 31.502C15 33.9872 17.0147 36.002 19.5 36.002Z" fill="black"/>
<path d="M31.5 24.002C33.9853 24.002 36 21.9872 36 19.502C36 17.0167 33.9853 15.002 31.5 15.002C29.0147 15.002 27 17.0167 27 19.502C27 21.9872 29.0147 24.002 31.5 24.002Z" fill="black"/>
<path d="M43.5 12.002C45.9853 12.002 48 9.98723 48 7.50195C48 5.01667 45.9853 3.00195 43.5 3.00195C41.0147 3.00195 39 5.01667 39 7.50195C39 9.98723 41.0147 12.002 43.5 12.002Z" fill="black"/>
<path d="M19.0002 6.82995V11.002C19.0002 11.5324 19.2109 12.0411 19.5859 12.4162C19.961 12.7912 20.4697 13.002 21.0002 13.002C21.5306 13.002 22.0393 12.7912 22.4144 12.4162C22.7894 12.0411 23.0002 11.5324 23.0002 11.002V2.00195C23.0002 1.47152 22.7894 0.962812 22.4144 0.58774C22.0393 0.212667 21.5306 0.00195313 21.0002 0.00195312L12.0002 0.00195313C11.4697 0.00195313 10.961 0.212667 10.5859 0.58774C10.2109 0.962812 10.0002 1.47152 10.0002 2.00195C10.0002 2.53239 10.2109 3.04109 10.5859 3.41617C10.961 3.79124 11.4697 4.00195 12.0002 4.00195H16.1722L0.586162 19.588C0.395142 19.7724 0.242778 19.9931 0.13796 20.2371C0.0331416 20.4812 -0.0220309 20.7436 -0.0243385 21.0092C-0.0266462 21.2747 0.0239572 21.5381 0.124519 21.7839C0.225081 22.0297 0.373587 22.253 0.561372 22.4407C0.749158 22.6285 0.972462 22.777 1.21825 22.8776C1.46405 22.9782 1.72741 23.0288 1.99296 23.0265C2.25852 23.0241 2.52096 22.969 2.76497 22.8642C3.00898 22.7593 3.22967 22.607 3.41416 22.416L19.0002 6.82995Z" fill="black"/>
</g>
<defs>
<clipPath id="clip0_6013_52280">
<rect width="48" height="48" fill="white" transform="translate(0 0.00195312)"/>
</clipPath>
</defs>
</svg>
