<svg width="48" height="48" viewBox="0 0 48 48" fill="none" xmlns="http://www.w3.org/2000/svg">
<g clip-path="url(#clip0_6013_52313)">
<path d="M46.8897 32.8808C46.1791 32.3183 45.2154 32.0024 44.2106 32.0024C43.2057 32.0024 42.2421 32.3183 41.5314 32.8808C37.7745 35.7235 32.9509 37.521 27.7895 38.0018V24.0018H36.6316C37.6367 24.0018 38.6005 23.6857 39.3112 23.1231C40.0219 22.5605 40.4211 21.7974 40.4211 21.0018C40.4211 20.2061 40.0219 19.443 39.3112 18.8804C38.6005 18.3178 37.6367 18.0018 36.6316 18.0018H27.7895V11.1918C29.2344 10.5314 30.3636 9.51197 31.0021 8.29171C31.6406 7.07144 31.7526 5.71849 31.3208 4.44269C30.8889 3.16689 29.9374 2.03954 28.6138 1.23549C27.2902 0.43143 25.6684 -0.00439453 24.0001 -0.00439453C22.3317 -0.00439453 20.7099 0.43143 19.3863 1.23549C18.0627 2.03954 17.1112 3.16689 16.6793 4.44269C16.2475 5.71849 16.3596 7.07144 16.998 8.29171C17.6365 9.51197 18.7657 10.5314 20.2106 11.1918V18.0018H11.3685C10.3634 18.0018 9.39957 18.3178 8.68891 18.8804C7.97825 19.443 7.579 20.2061 7.579 21.0018C7.579 21.7974 7.97825 22.5605 8.68891 23.1231C9.39957 23.6857 10.3634 24.0018 11.3685 24.0018H20.2106V38.0018C15.0492 37.521 10.2256 35.7235 6.46868 32.8808C5.75179 32.3439 4.79866 32.0497 3.81198 32.0605C2.82529 32.0714 1.88287 32.3865 1.18511 32.9389C0.487346 33.4913 0.0892836 34.2374 0.0755621 35.0185C0.0618406 35.7997 0.433542 36.5542 1.11163 37.1218C6.29548 41.0782 13.0372 43.5068 20.2106 44.0018V45.0018C20.2106 45.7974 20.6098 46.5605 21.3205 47.1231C22.0312 47.6857 22.995 48.0018 24.0001 48.0018C25.0051 48.0018 25.969 47.6857 26.6796 47.1231C27.3903 46.5605 27.7895 45.7974 27.7895 45.0018V44.0018C34.9632 43.5073 41.7054 41.0791 46.8897 37.1228C47.6002 36.5602 47.9992 35.7973 47.9992 35.0018C47.9992 34.2063 47.6002 33.4433 46.8897 32.8808ZM24.0001 4.00176C24.4997 4.00176 24.9881 4.11906 25.4036 4.33882C25.8191 4.55858 26.1429 4.87094 26.3341 5.23639C26.5253 5.60184 26.5753 6.00398 26.4778 6.39194C26.3803 6.7799 26.1397 7.13627 25.7864 7.41597C25.4331 7.69568 24.983 7.88616 24.4929 7.96333C24.0029 8.0405 23.4949 8.00089 23.0333 7.84952C22.5716 7.69814 22.1771 7.4418 21.8995 7.1129C21.6219 6.784 21.4737 6.39732 21.4737 6.00176C21.4757 5.47181 21.7425 4.96402 22.2159 4.58929C22.6892 4.21456 23.3306 4.00334 24.0001 4.00176Z" fill="black"/>
</g>
<defs>
<clipPath id="clip0_6013_52313">
<rect width="48" height="48" fill="white" transform="translate(0 0.00195312)"/>
</clipPath>
</defs>
</svg>
