<svg width="48" height="48" viewBox="0 0 48 48" fill="none" xmlns="http://www.w3.org/2000/svg">
<g clip-path="url(#clip0_6013_52309)">
<path d="M20 10.002C20 8.02415 19.4135 6.09075 18.3147 4.44626C17.2159 2.80176 15.6541 1.52004 13.8268 0.763162C11.9996 0.00628597 9.98891 -0.191747 8.0491 0.194105C6.10929 0.579957 4.32746 1.53236 2.92894 2.93089C1.53041 4.32941 0.578004 6.11125 0.192152 8.05105C-0.193701 9.99086 0.00433284 12.0015 0.761209 13.8288C1.51809 15.6561 2.79981 17.2178 4.4443 18.3167C6.08879 19.4155 8.02219 20.002 10 20.002C12.6518 20.0009 15.1948 18.947 17.0699 17.0719C18.945 15.1967 19.9989 12.6538 20 10.002ZM8 14.002C7.73462 14.0013 7.47993 13.8973 7.29 13.712L4.29 10.712C4.19677 10.6187 4.12281 10.508 4.07234 10.3862C4.02188 10.2644 3.99591 10.1338 3.99591 10.002C3.99591 9.73566 4.1017 9.48026 4.29 9.29196C4.47831 9.10365 4.7337 8.99787 5 8.99787C5.26631 8.99787 5.5217 9.10365 5.71 9.29196L8.05 11.642L14.35 6.24196C14.5516 6.06957 14.8134 5.98431 15.0778 6.00494C15.2087 6.01515 15.3364 6.05105 15.4534 6.1106C15.5705 6.17014 15.6746 6.25215 15.76 6.35196C15.8454 6.45176 15.9102 6.5674 15.9509 6.69228C15.9916 6.81715 16.0072 6.94881 15.997 7.07974C15.9868 7.21067 15.9509 7.33831 15.8914 7.45536C15.8318 7.57242 15.7498 7.6766 15.65 7.76196L8.65 13.762C8.46886 13.9169 8.23835 14.002 8 14.002Z" fill="black"/>
<path d="M47.1212 33.881C46.5586 33.3185 45.7957 33.0026 45.0002 33.0026C44.2047 33.0026 43.4418 33.3185 42.8792 33.881C39.9323 36.8258 36.1198 38.7494 32.0002 39.37V26.002H39.0002C39.7958 26.002 40.5589 25.6859 41.1215 25.1233C41.6841 24.5607 42.0002 23.7976 42.0002 23.002C42.0002 22.2063 41.6841 21.4432 41.1215 20.8806C40.5589 20.318 39.7958 20.002 39.0002 20.002H32.0002V13.002C32.9055 12.5175 33.6625 11.7967 34.1908 10.9163C34.719 10.0359 34.9987 9.0287 35.0002 8.00195C35.0002 6.41065 34.368 4.88453 33.2428 3.75931C32.1176 2.63409 30.5915 2.00195 29.0002 2.00195C27.4089 2.00195 25.8828 2.63409 24.7575 3.75931C23.6323 4.88453 23.0002 6.41065 23.0002 8.00195C23.0016 9.0287 23.2814 10.0359 23.8096 10.9163C24.3379 11.7967 25.0949 12.5175 26.0002 13.002V20.002H19.0002C18.2045 20.002 17.4415 20.318 16.8789 20.8806C16.3163 21.4432 16.0002 22.2063 16.0002 23.002C16.0002 23.7976 16.3163 24.5607 16.8789 25.1233C17.4415 25.6859 18.2045 26.002 19.0002 26.002H26.0002V39.37C21.8805 38.7491 18.0679 36.8251 15.1212 33.88C14.8434 33.5977 14.5125 33.3732 14.1475 33.2195C13.7826 33.0657 13.3908 32.9858 12.9948 32.9842C12.5988 32.9826 12.2063 33.0595 11.8402 33.2103C11.474 33.3612 11.1413 33.583 10.8613 33.8631C10.5813 34.1432 10.3596 34.4759 10.2088 34.8421C10.058 35.2083 9.98128 35.6007 9.98294 35.9967C9.9846 36.3928 10.0646 36.7845 10.2185 37.1495C10.3723 37.5144 10.5969 37.8452 10.8792 38.123C14.9599 42.2087 20.3065 44.7884 26.0442 45.44C26.1458 46.1515 26.5007 46.8025 27.0437 47.2735C27.5867 47.7445 28.2814 48.0037 29.0002 48.0037C29.719 48.0037 30.4136 47.7445 30.9566 47.2735C31.4997 46.8025 31.8546 46.1515 31.9562 45.44C37.6938 44.7884 43.0405 42.2087 47.1212 38.123C47.6836 37.5604 47.9995 36.7974 47.9995 36.002C47.9995 35.2065 47.6836 34.4435 47.1212 33.881ZM29.0002 10.002C28.6046 10.002 28.2179 9.88465 27.889 9.66489C27.5601 9.44513 27.3038 9.13277 27.1524 8.76732C27.0011 8.40187 26.9614 7.99973 27.0386 7.61177C27.1158 7.22381 27.3063 6.86744 27.586 6.58774C27.8657 6.30803 28.222 6.11755 28.61 6.04038C28.998 5.96321 29.4001 6.00282 29.7656 6.15419C30.131 6.30557 30.4434 6.56191 30.6631 6.89081C30.8829 7.21971 31.0002 7.60639 31.0002 8.00195C30.9986 8.5319 30.7874 9.03969 30.4127 9.41442C30.0379 9.78915 29.5301 10.0004 29.0002 10.002Z" fill="black"/>
</g>
<defs>
<clipPath id="clip0_6013_52309">
<rect width="48" height="48" fill="white" transform="translate(0 0.00195312)"/>
</clipPath>
</defs>
</svg>
