<svg width="48" height="44" viewBox="0 0 48 44" fill="none" xmlns="http://www.w3.org/2000/svg">
<g clip-path="url(#clip0_6013_52315)">
<path d="M24.0055 17.0017C25.5965 17.0017 27.1223 16.5803 28.2472 15.8302C29.3722 15.08 30.0042 14.0626 30.0042 13.0017C30.0042 11.1017 25.5652 7.24173 24.3205 6.11173C24.286 6.07707 24.2392 6.04864 24.1842 6.02898C24.1293 6.00931 24.0679 5.99902 24.0055 5.99902C23.9432 5.99902 23.8818 6.00931 23.8268 6.02898C23.7719 6.04864 23.7251 6.07707 23.6906 6.11173C22.4459 7.24173 18.0068 11.1017 18.0068 13.0017C18.0068 14.0626 18.6388 15.08 19.7638 15.8302C20.8888 16.5803 22.4146 17.0017 24.0055 17.0017Z" fill="black"/>
<path d="M46.481 0.00181812H1.52081C1.32168 -0.00517778 1.12255 0.0154842 0.936035 0.0624946C0.749515 0.109505 0.579675 0.181839 0.437276 0.274912C0.294877 0.367985 0.183025 0.479768 0.108809 0.603176C0.0345928 0.726585 -0.000369382 0.858928 0.00613802 0.991818L5.55492 41.4818C5.70539 42.2001 6.25045 42.8556 7.08446 43.3212C7.91847 43.7868 8.98201 44.0294 10.0689 44.0018H37.9328C39.0198 44.0294 40.0833 43.7868 40.9173 43.3212C41.7513 42.8556 42.2964 42.2001 42.4469 41.4818L47.9956 0.991818C48.0022 0.858928 47.9672 0.726585 47.893 0.603176C47.8188 0.479768 47.7069 0.367985 47.5645 0.274912C47.4221 0.181839 47.2523 0.109505 47.0658 0.0624946C46.8792 0.0154842 46.6801 -0.00517778 46.481 0.00181812ZM39.3275 20.2418C38.0432 20.0748 36.7369 19.9944 35.4284 20.0018C32.6719 19.9618 29.9411 20.363 27.4651 21.1718C25.7538 21.753 23.851 22.0384 21.9313 22.0018C20.0166 22.0371 18.1192 21.7517 16.4125 21.1718C13.9973 20.3795 11.3357 19.9786 8.64425 20.0018L6.45473 4.00182H41.5471L39.3275 20.2418Z" fill="black"/>
</g>
<defs>
<clipPath id="clip0_6013_52315">
<rect width="48" height="44" fill="white" transform="translate(0 0.00195312)"/>
</clipPath>
</defs>
</svg>
