<svg width="48" height="44" viewBox="0 0 48 44" fill="none" xmlns="http://www.w3.org/2000/svg">
<g clip-path="url(#clip0_6013_52319)">
<path d="M46.4805 0.00181812H1.52032C1.3212 -0.00517778 1.12207 0.0154842 0.935546 0.0624946C0.749027 0.109505 0.579186 0.181839 0.436787 0.274912C0.294389 0.367985 0.182537 0.479768 0.108321 0.603176C0.0341046 0.726585 -0.000857663 0.858928 0.00564974 0.991818L5.55444 41.4818C5.7049 42.2001 6.24996 42.8556 7.08397 43.3212C7.91798 43.7868 8.98153 44.0294 10.0684 44.0018H37.9324C39.0193 44.0294 40.0828 43.7868 40.9168 43.3212C41.7508 42.8556 42.2959 42.2001 42.4464 41.4818L47.9952 0.991818C48.0017 0.858928 47.9667 0.726585 47.8925 0.603176C47.8183 0.479768 47.7064 0.367985 47.564 0.274912C47.4216 0.181839 47.2518 0.109505 47.0653 0.0624946C46.8787 0.0154842 46.6796 -0.00517778 46.4805 0.00181812ZM39.3271 20.2418C38.0427 20.0748 36.7364 19.9944 35.4279 20.0018C32.6714 19.9618 29.9406 20.363 27.4646 21.1718C25.7533 21.753 23.8506 22.0384 21.9309 22.0018C20.0161 22.0371 18.1187 21.7517 16.4121 21.1718C13.9969 20.3795 11.3352 19.9786 8.64376 20.0018L6.45424 4.00182H41.5466L39.3271 20.2418Z" fill="black"/>
</g>
<defs>
<clipPath id="clip0_6013_52319">
<rect width="48" height="44" fill="white" transform="translate(0 0.00195312)"/>
</clipPath>
</defs>
</svg>
