<svg width="48" height="48" viewBox="0 0 48 48" fill="none" xmlns="http://www.w3.org/2000/svg">
<g clip-path="url(#clip0_6013_52321)">
<path d="M46.4707 28.492L36.002 13.002H11.9973L1.52862 28.492C0.0675159 31.0326 -0.3538 33.8416 0.318164 36.5621C0.990128 39.2827 2.72506 41.7922 5.30269 43.772C7.03267 45.1181 9.1089 46.187 11.4057 46.9141C13.7025 47.6412 16.1722 48.0113 18.6653 48.002H29.334C31.8271 48.0113 34.2968 47.6412 36.5936 46.9141C38.8904 46.187 40.9666 45.1181 42.6966 43.772C45.2742 41.7922 47.0092 39.2827 47.6811 36.5621C48.3531 33.8416 47.9318 31.0326 46.4707 28.492ZM32.748 35.442C32.9351 35.5805 33.0837 35.7456 33.185 35.9276C33.2864 36.1095 33.3386 36.3048 33.3386 36.502C33.3386 36.6992 33.2864 36.8944 33.185 37.0764C33.0837 37.2583 32.9351 37.4234 32.748 37.562C32.5626 37.7014 32.3422 37.812 32.0997 37.8875C31.8571 37.963 31.597 38.0019 31.3344 38.0019C31.0718 38.0019 30.8117 37.963 30.5692 37.8875C30.3266 37.812 30.1063 37.7014 29.9208 37.562L23.9997 33.122L18.0785 37.562C17.893 37.7014 17.6727 37.812 17.4302 37.8875C17.1876 37.963 16.9275 38.0019 16.6649 38.0019C16.4023 38.0019 16.1422 37.963 15.8996 37.8875C15.6571 37.812 15.4367 37.7014 15.2513 37.562C15.0642 37.4234 14.9157 37.2583 14.8143 37.0764C14.7129 36.8944 14.6607 36.6992 14.6607 36.502C14.6607 36.3048 14.7129 36.1095 14.8143 35.9276C14.9157 35.7456 15.0642 35.5805 15.2513 35.442L21.1724 31.002L15.2513 26.562C14.8979 26.2776 14.7056 25.9015 14.7147 25.5129C14.7239 25.1243 14.9338 24.7535 15.3003 24.4787C15.6668 24.2039 16.1613 24.0465 16.6795 24.0396C17.1977 24.0327 17.6993 24.177 18.0785 24.442L23.9997 28.882L29.9208 24.442C30.3 24.177 30.8016 24.0327 31.3198 24.0396C31.838 24.0465 32.3325 24.2039 32.699 24.4787C33.0655 24.7535 33.2754 25.1243 33.2846 25.5129C33.2937 25.9015 33.1014 26.2776 32.748 26.562L26.8269 31.002L32.748 35.442ZM11.9893 11.002H22.6621L20.4616 3.56795C20.33 3.12399 20.0005 2.72693 19.5276 2.44225C19.0546 2.15756 18.4663 2.00226 17.8598 2.00195H10.6584C10.4586 2.00183 10.2613 2.03537 10.0811 2.1001C9.90092 2.16483 9.74243 2.2591 9.61735 2.37593C9.49227 2.49276 9.40379 2.62918 9.35847 2.77509C9.31314 2.92101 9.31212 3.0727 9.35547 3.21895L11.9893 11.002ZM30.669 11.002H36.0007L38.6465 1.18195C38.6806 1.03737 38.672 0.888943 38.6214 0.74711C38.5708 0.605278 38.4793 0.473485 38.3535 0.361004C38.2276 0.248523 38.0704 0.158086 37.893 0.0960536C37.7155 0.0340215 37.5221 0.00190153 37.3262 0.00195319H33.3375C32.6324 0.00866836 31.9586 0.221414 31.4595 0.594929C30.9604 0.968445 30.6753 1.47325 30.665 2.00195C30.6581 1.47467 30.3765 0.970316 29.8804 0.596615C29.3842 0.222915 28.7129 0.00949809 28.0098 0.00195319H24.009C23.8132 0.00190153 23.6197 0.0340215 23.4423 0.0960536C23.2648 0.158086 23.1076 0.248523 22.9818 0.361004C22.8559 0.473485 22.7645 0.605278 22.7138 0.74711C22.6632 0.888943 22.6546 1.03737 22.6887 1.18195L25.3292 11.002H30.669Z" fill="black"/>
</g>
<defs>
<clipPath id="clip0_6013_52321">
<rect width="48" height="48" fill="white" transform="translate(0 0.00195312)"/>
</clipPath>
</defs>
</svg>
