<svg width="48" height="48" viewBox="0 0 48 48" fill="none" xmlns="http://www.w3.org/2000/svg">
<g clip-path="url(#clip0_6013_52324)">
<path d="M47 13.002H43V2.00195C43 1.47152 42.7893 0.962812 42.4142 0.58774C42.0391 0.212667 41.5304 0.00195313 41 0.00195313C40.4696 0.00195313 39.9609 0.212667 39.5858 0.58774C39.2107 0.962812 39 1.47152 39 2.00195V13.002H31V2.00195C31 1.47152 30.7893 0.962812 30.4142 0.58774C30.0391 0.212667 29.5304 0.00195313 29 0.00195313C28.4696 0.00195313 27.9609 0.212667 27.5858 0.58774C27.2107 0.962812 27 1.47152 27 2.00195V13.002H23C22.7348 13.002 22.4804 13.1073 22.2929 13.2948C22.1054 13.4824 22 13.7367 22 14.002V22.002C22.0178 24.4384 22.6733 26.8276 23.9014 28.9319C25.1296 31.0362 26.8874 32.7822 29 33.996V37.002C29 37.2672 29.1054 37.5215 29.2929 37.7091C29.4804 37.8966 29.7348 38.002 30 38.002H32V48.002H38V38.002H40C40.2652 38.002 40.5196 37.8966 40.7071 37.7091C40.8946 37.5215 41 37.2672 41 37.002V33.996C43.1126 32.7822 44.8704 31.0362 46.0986 28.9319C47.3267 26.8276 47.9822 24.4384 48 22.002V14.002C48 13.7367 47.8946 13.4824 47.7071 13.2948C47.5196 13.1073 47.2652 13.002 47 13.002ZM10 0.00195313C8.02219 0.00195313 6.08879 0.588443 4.4443 1.68726C2.79981 2.78607 1.51809 4.34786 0.761209 6.17512C0.00433284 8.00238 -0.193701 10.013 0.192152 11.9529C0.578004 13.8927 1.53041 15.6745 2.92894 17.073C4.32746 18.4715 6.10929 19.424 8.0491 19.8098C9.98891 20.1957 11.9996 19.9976 13.8268 19.2407C15.6541 18.4839 17.2159 17.2021 18.3147 15.5577C19.4135 13.9132 20 11.9798 20 10.002C19.9989 7.35011 18.945 4.80719 17.0699 2.93206C15.1948 1.05692 12.6518 0.00301322 10 0.00195313ZM10 17.002C9.80222 17.002 9.60888 16.9433 9.44443 16.8334C9.27999 16.7235 9.15181 16.5674 9.07613 16.3846C9.00044 16.2019 8.98063 16.0008 9.01922 15.8069C9.05781 15.6129 9.15305 15.4347 9.2929 15.2948C9.43275 15.155 9.61093 15.0598 9.80491 15.0212C9.9989 14.9826 10.2 15.0024 10.3827 15.0781C10.5654 15.1538 10.7216 15.2819 10.8315 15.4464C10.9414 15.6108 11 15.8042 11 16.002C10.9992 16.2669 10.8936 16.5208 10.7062 16.7082C10.5189 16.8955 10.265 17.0012 10 17.002ZM11 12.002C11 12.2672 10.8946 12.5215 10.7071 12.7091C10.5196 12.8966 10.2652 13.002 10 13.002C9.73479 13.002 9.48043 12.8966 9.2929 12.7091C9.10536 12.5215 9 12.2672 9 12.002V4.00195C9 3.73674 9.10536 3.48238 9.2929 3.29485C9.48043 3.10731 9.73479 3.00195 10 3.00195C10.2652 3.00195 10.5196 3.10731 10.7071 3.29485C10.8946 3.48238 11 3.73674 11 4.00195V12.002Z" fill="black"/>
</g>
<defs>
<clipPath id="clip0_6013_52324">
<rect width="48" height="48" fill="white" transform="translate(0 0.00195312)"/>
</clipPath>
</defs>
</svg>
