<svg width="48" height="48" viewBox="0 0 48 48" fill="none" xmlns="http://www.w3.org/2000/svg">
<g clip-path="url(#clip0_6013_52332)">
<path d="M47 13.002H43V2.00195C43 1.47152 42.7893 0.962812 42.4142 0.58774C42.0391 0.212667 41.5304 0.00195313 41 0.00195313C40.4696 0.00195313 39.9609 0.212667 39.5858 0.58774C39.2107 0.962812 39 1.47152 39 2.00195V13.002H31V2.00195C31 1.47152 30.7893 0.962812 30.4142 0.58774C30.0391 0.212667 29.5304 0.00195313 29 0.00195313C28.4696 0.00195313 27.9609 0.212667 27.5858 0.58774C27.2107 0.962812 27 1.47152 27 2.00195V13.002H23C22.7348 13.002 22.4804 13.1073 22.2929 13.2948C22.1054 13.4824 22 13.7367 22 14.002V22.002C22.0178 24.4384 22.6733 26.8276 23.9014 28.9319C25.1296 31.0362 26.8874 32.7822 29 33.996V37.002C29 37.2672 29.1054 37.5215 29.2929 37.7091C29.4804 37.8966 29.7348 38.002 30 38.002H32V48.002H38V38.002H40C40.2652 38.002 40.5196 37.8966 40.7071 37.7091C40.8946 37.5215 41 37.2672 41 37.002V33.996C43.1126 32.7822 44.8704 31.0362 46.0986 28.9319C47.3267 26.8276 47.9822 24.4384 48 22.002V14.002C48 13.7367 47.8946 13.4824 47.7071 13.2948C47.5196 13.1073 47.2652 13.002 47 13.002ZM10 0.00195313C8.02219 0.00195313 6.08879 0.588443 4.4443 1.68726C2.79981 2.78607 1.51809 4.34786 0.761209 6.17512C0.00433284 8.00238 -0.193701 10.013 0.192152 11.9529C0.578004 13.8927 1.53041 15.6745 2.92894 17.073C4.32746 18.4715 6.10929 19.424 8.0491 19.8098C9.98891 20.1957 11.9996 19.9976 13.8268 19.2407C15.6541 18.4839 17.2159 17.2021 18.3147 15.5577C19.4135 13.9132 20 11.9798 20 10.002C19.9989 7.35011 18.945 4.80719 17.0699 2.93206C15.1948 1.05692 12.6518 0.00301322 10 0.00195313ZM14.71 13.292C14.8969 13.481 15.0017 13.7361 15.0017 14.002C15.0017 14.2678 14.8969 14.5229 14.71 14.712C14.5204 14.8979 14.2655 15.002 14 15.002C13.7345 15.002 13.4796 14.8979 13.29 14.712L10 11.422L6.71 14.712C6.52044 14.8979 6.26552 15.002 6 15.002C5.73449 15.002 5.47957 14.8979 5.29 14.712C5.10314 14.5229 4.99834 14.2678 4.99834 14.002C4.99834 13.7361 5.10314 13.481 5.29 13.292L8.58 10.002L5.29 6.71195C5.1017 6.52365 4.99591 6.26825 4.99591 6.00195C4.99591 5.73565 5.1017 5.48026 5.29 5.29195C5.47831 5.10365 5.7337 4.99786 6 4.99786C6.26631 4.99786 6.5217 5.10365 6.71 5.29195L10 8.58195L13.29 5.29195C13.3832 5.19871 13.4939 5.12475 13.6158 5.07429C13.7376 5.02383 13.8681 4.99786 14 4.99786C14.1319 4.99786 14.2624 5.02383 14.3843 5.07429C14.5061 5.12475 14.6168 5.19871 14.71 5.29195C14.8032 5.38519 14.8772 5.49588 14.9277 5.6177C14.9781 5.73953 15.0041 5.87009 15.0041 6.00195C15.0041 6.13381 14.9781 6.26438 14.9277 6.3862C14.8772 6.50802 14.8032 6.61871 14.71 6.71195L11.42 10.002L14.71 13.292Z" fill="black"/>
</g>
<defs>
<clipPath id="clip0_6013_52332">
<rect width="48" height="48" fill="white" transform="translate(0 0.00195312)"/>
</clipPath>
</defs>
</svg>
