<svg width="48" height="48" viewBox="0 0 48 48" fill="none" xmlns="http://www.w3.org/2000/svg">
<g clip-path="url(#clip0_6013_52330)">
<path d="M46.1538 13.002H38.7692V2.00195C38.7692 1.47152 38.3802 0.962812 37.6878 0.58774C36.9953 0.212667 36.0562 0.00195313 35.0769 0.00195312C34.0977 0.00195313 33.1585 0.212667 32.4661 0.58774C31.7736 0.962812 31.3846 1.47152 31.3846 2.00195V13.002H16.6154V2.00195C16.6154 1.47152 16.2264 0.962812 15.5339 0.58774C14.8415 0.212667 13.9023 0.00195313 12.9231 0.00195312C11.9438 0.00195313 11.0047 0.212667 10.3122 0.58774C9.61978 0.962812 9.23077 1.47152 9.23077 2.00195V13.002H1.84615C1.35652 13.002 0.886947 13.1073 0.540726 13.2948C0.194505 13.4824 0 13.7367 0 14.002L0 22.002C0.0327817 24.4384 1.24306 26.8276 3.51036 28.9319C5.77766 31.0362 9.02291 32.7822 12.9231 33.996V37.002C12.9231 37.2672 13.1176 37.5215 13.4638 37.7091C13.81 37.8966 14.2796 38.002 14.7692 38.002H18.4615V48.002H29.5385V38.002H33.2308C33.7204 38.002 34.19 37.8966 34.5362 37.7091C34.8824 37.5215 35.0769 37.2672 35.0769 37.002V33.996C38.9771 32.7822 42.2223 31.0362 44.4896 28.9319C46.7569 26.8276 47.9672 24.4384 48 22.002V14.002C48 13.7367 47.8055 13.4824 47.4593 13.2948C47.1131 13.1073 46.6435 13.002 46.1538 13.002Z" fill="black"/>
</g>
<defs>
<clipPath id="clip0_6013_52330">
<rect width="48" height="48" fill="white" transform="translate(0 0.00195312)"/>
</clipPath>
</defs>
</svg>
