<svg width="48" height="48" viewBox="0 0 48 48" fill="none" xmlns="http://www.w3.org/2000/svg">
<g clip-path="url(#clip0_6013_52327)">
<path d="M47 13.002H43V2.00195C43 1.47152 42.7893 0.962812 42.4142 0.58774C42.0391 0.212667 41.5304 0.00195313 41 0.00195313C40.4696 0.00195313 39.9609 0.212667 39.5858 0.58774C39.2107 0.962812 39 1.47152 39 2.00195V13.002H31V2.00195C31 1.47152 30.7893 0.962812 30.4142 0.58774C30.0391 0.212667 29.5304 0.00195313 29 0.00195313C28.4696 0.00195313 27.9609 0.212667 27.5858 0.58774C27.2107 0.962812 27 1.47152 27 2.00195V13.002H23C22.7348 13.002 22.4804 13.1073 22.2929 13.2948C22.1054 13.4824 22 13.7367 22 14.002V22.002C22.0178 24.4384 22.6733 26.8276 23.9014 28.9319C25.1296 31.0362 26.8874 32.7822 29 33.996V37.002C29 37.2672 29.1054 37.5215 29.2929 37.7091C29.4804 37.8966 29.7348 38.002 30 38.002H32V48.002H38V38.002H40C40.2652 38.002 40.5196 37.8966 40.7071 37.7091C40.8946 37.5215 41 37.2672 41 37.002V33.996C43.1126 32.7822 44.8704 31.0362 46.0986 28.9319C47.3267 26.8276 47.9822 24.4384 48 22.002V14.002C48 13.7367 47.8946 13.4824 47.7071 13.2948C47.5196 13.1073 47.2652 13.002 47 13.002ZM10 0.00195313C8.02219 0.00195313 6.08879 0.588443 4.4443 1.68726C2.79981 2.78607 1.51809 4.34786 0.761209 6.17512C0.00433284 8.00238 -0.193701 10.013 0.192152 11.9529C0.578004 13.8927 1.53041 15.6745 2.92894 17.073C4.32746 18.4715 6.10929 19.424 8.0491 19.8098C9.98891 20.1957 11.9996 19.9976 13.8268 19.2407C15.6541 18.4839 17.2159 17.2021 18.3147 15.5577C19.4135 13.9132 20 11.9798 20 10.002C19.9989 7.35011 18.945 4.80719 17.0699 2.93206C15.1948 1.05692 12.6518 0.00301322 10 0.00195313ZM15.65 7.76195L8.65 13.762C8.46886 13.9169 8.23835 14.002 8 14.002C7.73462 14.0013 7.47993 13.8973 7.29 13.712L4.29 10.712C4.19677 10.6187 4.12281 10.508 4.07234 10.3862C4.02188 10.2644 3.99591 10.1338 3.99591 10.002C3.99591 9.73565 4.1017 9.48026 4.29 9.29195C4.47831 9.10365 4.7337 8.99786 5 8.99786C5.26631 8.99786 5.5217 9.10365 5.71 9.29195L8.05 11.642L14.35 6.24195C14.5516 6.06956 14.8134 5.9843 15.0778 6.00493C15.2087 6.01515 15.3364 6.05105 15.4534 6.11059C15.5705 6.17013 15.6746 6.25215 15.76 6.35195C15.8454 6.45176 15.9102 6.5674 15.9509 6.69227C15.9916 6.81714 16.0072 6.9488 15.997 7.07973C15.9868 7.21067 15.9509 7.3383 15.8914 7.45536C15.8318 7.57241 15.7498 7.67659 15.65 7.76195Z" fill="black"/>
</g>
<defs>
<clipPath id="clip0_6013_52327">
<rect width="48" height="48" fill="white" transform="translate(0 0.00195312)"/>
</clipPath>
</defs>
</svg>
