<svg width="48" height="48" viewBox="0 0 48 48" fill="none" xmlns="http://www.w3.org/2000/svg">
<g clip-path="url(#clip0_6013_52335)">
<path d="M37.7147 18.0221V18.0021L35.7947 11.3521C35.7702 11.0071 35.5299 10.6793 35.1194 10.4305C34.7088 10.1818 34.1563 10.0294 33.5662 10.0021H22.0124C21.9717 10.0012 21.931 10.0046 21.8924 10.0121L21.8821 10.0131C16.0465 10.0772 10.4866 11.4733 6.39554 13.9017C2.30449 16.3301 0.0083862 19.5973 0 23.0021C0 23.5325 0.361211 24.0412 1.00417 24.4163C1.64713 24.7914 2.51917 25.0021 3.42845 25.0021C4.33773 25.0021 5.20977 24.7914 5.85273 24.4163C6.49569 24.0412 6.8569 23.5325 6.8569 23.0021C6.89313 20.9425 8.08676 18.9467 10.2547 17.3209C12.4226 15.6952 15.445 14.5293 18.8582 14.0021L10.3385 34.1921C10.2406 34.3905 10.2178 34.5991 10.2717 34.8032C10.3255 35.0073 10.4547 35.2021 10.6503 35.3743C10.8459 35.5464 11.1033 35.6917 11.4046 35.8001C11.706 35.9085 12.0441 35.9774 12.3956 36.0021H18.8582V46.0021C18.8582 46.5325 19.2194 47.0412 19.8624 47.4163C20.5053 47.7914 21.3774 48.0021 22.2866 48.0021C23.1959 48.0021 24.068 47.7914 24.7109 47.4163C25.3539 47.0412 25.7151 46.5325 25.7151 46.0021V36.0021H29.1435V46.0021C29.1435 46.5325 29.5047 47.0412 30.1477 47.4163C30.7907 47.7914 31.6627 48.0021 32.572 48.0021C33.4813 48.0021 34.3533 47.7914 34.9963 47.4163C35.6392 47.0412 36.0004 46.5325 36.0004 46.0021V34.8021C37.5338 33.9924 38.6047 32.9279 39.0689 31.7521C41.7453 31.3354 44.0933 30.3929 45.7169 29.0836C47.3405 27.7744 48.1402 26.1785 47.981 24.5652C47.8219 22.952 46.7137 21.4201 44.8434 20.2281C42.9732 19.0361 40.4553 18.2569 37.7147 18.0221ZM41.7602 25.8421L41.3145 26.1121L39.0003 27.5121L36.8918 28.7821C36.7761 28.8518 36.6376 28.9072 36.4845 28.945C36.3313 28.9828 36.1667 29.0023 36.0004 29.0023C35.8341 29.0023 35.6695 28.9828 35.5164 28.945C35.3633 28.9072 35.2247 28.8518 35.109 28.7821L32.6063 27.2721L30.6863 26.1121L30.2406 25.8421C29.5222 25.4018 29.1287 24.8146 29.1448 24.2069C29.1608 23.5991 29.5851 23.0193 30.3263 22.5921C30.6888 22.3944 31.1147 22.2407 31.5796 22.1396C32.0445 22.0386 32.5391 21.9923 33.0349 22.0035C33.5306 22.0147 34.0176 22.083 34.4678 22.2046C34.918 22.3263 35.3224 22.4987 35.6576 22.7121L36.0004 22.9121L36.3433 22.7121C36.7836 22.4421 37.3311 22.2394 37.9375 22.1221C38.574 21.9913 39.2602 21.966 39.9199 22.049C40.5796 22.1319 41.1869 22.3199 41.6745 22.5921C42.4158 23.0193 42.8401 23.5991 42.8561 24.2069C42.8721 24.8146 42.4786 25.4018 41.7602 25.8421Z" fill="black"/>
<path d="M29.144 8.00195C32.931 8.00195 36.0009 6.21109 36.0009 4.00195C36.0009 1.79281 32.931 0.00195312 29.144 0.00195312C25.357 0.00195312 22.2871 1.79281 22.2871 4.00195C22.2871 6.21109 25.357 8.00195 29.144 8.00195Z" fill="black"/>
</g>
<defs>
<clipPath id="clip0_6013_52335">
<rect width="48" height="48" fill="white" transform="translate(0 0.00195312)"/>
</clipPath>
</defs>
</svg>
