<svg width="48" height="48" viewBox="0 0 48 48" fill="none" xmlns="http://www.w3.org/2000/svg">
<g clip-path="url(#clip0_6013_52339)">
<path fill-rule="evenodd" clip-rule="evenodd" d="M13.4138 35.5881C13.0388 35.2132 12.5302 35.0025 11.9998 35.0025C11.4695 35.0025 10.9609 35.2132 10.5858 35.5881L7.49984 38.6741L4.41384 35.5881C4.03663 35.2238 3.53143 35.0222 3.00704 35.0268C2.48264 35.0313 1.98102 35.2417 1.6102 35.6125C1.23938 35.9833 1.02905 36.4849 1.02449 37.0093C1.01993 37.5337 1.22152 38.0389 1.58584 38.4161L4.67184 41.5021L1.58584 44.5881C1.39482 44.7726 1.24245 44.9933 1.13763 45.2373C1.03282 45.4813 0.977645 45.7438 0.975337 46.0093C0.973029 46.2749 1.02363 46.5382 1.12419 46.784C1.22476 47.0298 1.37326 47.2531 1.56105 47.4409C1.74883 47.6287 1.97214 47.7772 2.21793 47.8778C2.46372 47.9783 2.72708 48.0289 2.99264 48.0266C3.2582 48.0243 3.52064 47.9691 3.76465 47.8643C4.00865 47.7595 4.22934 47.6071 4.41384 47.4161L7.49984 44.3301L10.5858 47.4161C10.963 47.7804 11.4682 47.982 11.9926 47.9775C12.517 47.9729 13.0187 47.7626 13.3895 47.3918C13.7603 47.0209 13.9706 46.5193 13.9752 45.9949C13.9797 45.4705 13.7782 44.9653 13.4138 44.5881L10.3278 41.5021L13.4138 38.4161C13.7888 38.0411 13.9994 37.5324 13.9994 37.0021C13.9994 36.4718 13.7888 35.9632 13.4138 35.5881ZM12.5858 17.5881L5.99984 24.1741L3.41384 21.5881C3.03663 21.2238 2.53143 21.0222 2.00704 21.0268C1.48264 21.0313 0.981017 21.2417 0.610201 21.6125C0.239384 21.9833 0.0290465 22.4849 0.0244897 23.0093C0.0199328 23.5337 0.221522 24.0389 0.585838 24.4161L4.58584 28.4161C4.96089 28.7911 5.46951 29.0017 5.99984 29.0017C6.53017 29.0017 7.03878 28.7911 7.41384 28.4161L15.4138 20.4161C15.7782 20.0389 15.9797 19.5337 15.9752 19.0093C15.9706 18.4849 15.7603 17.9833 15.3895 17.6125C15.0187 17.2417 14.517 17.0313 13.9926 17.0268C13.4682 17.0222 12.963 17.2238 12.5858 17.5881ZM44.9998 22.0021H22.9998C22.2042 22.0021 21.4411 22.3182 20.8785 22.8808C20.3159 23.4434 19.9998 24.2065 19.9998 25.0021C19.9998 25.7978 20.3159 26.5608 20.8785 27.1234C21.4411 27.686 22.2042 28.0021 22.9998 28.0021H44.9998C45.7955 28.0021 46.5585 27.686 47.1212 27.1234C47.6838 26.5608 47.9998 25.7978 47.9998 25.0021C47.9998 24.2065 47.6838 23.4434 47.1212 22.8808C46.5585 22.3182 45.7955 22.0021 44.9998 22.0021ZM12.5858 0.588116L5.99984 7.17412L3.41384 4.58812C3.03663 4.2238 2.53143 4.02221 2.00704 4.02677C1.48264 4.03132 0.981017 4.24166 0.610201 4.61248C0.239384 4.98329 0.0290465 5.48492 0.0244897 6.00931C0.0199328 6.53371 0.221522 7.03891 0.585838 7.41612L4.58584 11.4161C4.96089 11.7911 5.46951 12.0017 5.99984 12.0017C6.53017 12.0017 7.03878 11.7911 7.41384 11.4161L15.4138 3.41612C15.6049 3.23162 15.7572 3.01093 15.862 2.76692C15.9669 2.52292 16.022 2.26048 16.0243 1.99492C16.0266 1.72936 15.976 1.466 15.8755 1.22021C15.7749 0.974415 15.6264 0.751111 15.4386 0.563326C15.2508 0.37554 15.0275 0.227034 14.7817 0.126472C14.536 0.0259104 14.2726 -0.0246931 14.007 -0.0223854C13.7415 -0.0200778 13.479 0.0350947 13.235 0.139913C12.991 0.244731 12.7703 0.397095 12.5858 0.588116ZM22.9998 11.0021H44.9998C45.7955 11.0021 46.5585 10.686 47.1212 10.1234C47.6838 9.56083 47.9998 8.79776 47.9998 8.00212C47.9998 7.20647 47.6838 6.4434 47.1212 5.8808C46.5585 5.31819 45.7955 5.00212 44.9998 5.00212H22.9998C22.2042 5.00212 21.4411 5.31819 20.8785 5.8808C20.3159 6.4434 19.9998 7.20647 19.9998 8.00212C19.9998 8.79776 20.3159 9.56083 20.8785 10.1234C21.4411 10.686 22.2042 11.0021 22.9998 11.0021ZM44.9998 39.0021H22.9998C22.2042 39.0021 21.4411 39.3182 20.8785 39.8808C20.3159 40.4434 19.9998 41.2065 19.9998 42.0021C19.9998 42.7978 20.3159 43.5608 20.8785 44.1234C21.4411 44.686 22.2042 45.0021 22.9998 45.0021H44.9998C45.7955 45.0021 46.5585 44.686 47.1212 44.1234C47.6838 43.5608 47.9998 42.7978 47.9998 42.0021C47.9998 41.2065 47.6838 40.4434 47.1212 39.8808C46.5585 39.3182 45.7955 39.0021 44.9998 39.0021Z" fill="black"/>
</g>
<defs>
<clipPath id="clip0_6013_52339">
<rect width="48" height="48" fill="white" transform="translate(0 0.00195312)"/>
</clipPath>
</defs>
</svg>
