<svg width="48" height="36" viewBox="0 0 48 36" fill="none" xmlns="http://www.w3.org/2000/svg">
<g clip-path="url(#clip0_6013_52342)">
<path d="M44.0001 14.002H13.6571L20.8291 6.83004C21.5653 6.07702 21.9749 5.06405 21.9689 4.01096C21.9629 2.95786 21.5419 1.94961 20.7971 1.20501C20.0524 0.460418 19.0441 0.0395517 17.991 0.0337521C16.9379 0.0279525 15.925 0.437687 15.1721 1.17404L1.17212 15.174C0.422238 15.9241 0.000976562 16.9414 0.000976562 18.002C0.000976562 19.0627 0.422238 20.0799 1.17212 20.83L15.1721 34.83C15.542 35.2083 15.9832 35.5095 16.4702 35.7161C16.9573 35.9227 17.4805 36.0306 18.0095 36.0336C18.5386 36.0366 19.063 35.9347 19.5523 35.7336C20.0417 35.5326 20.4863 35.2364 20.8604 34.8624C21.2346 34.4883 21.5308 34.0437 21.7319 33.5544C21.9331 33.0651 22.0351 32.5407 22.0322 32.0117C22.0293 31.4826 21.9215 30.9594 21.715 30.4723C21.5084 29.9852 21.2074 29.544 20.8291 29.174L13.6571 22.002H44.0001C45.061 22.002 46.0784 21.5806 46.8285 20.8305C47.5787 20.0803 48.0001 19.0629 48.0001 18.002C48.0001 16.9412 47.5787 15.9238 46.8285 15.1736C46.0784 14.4235 45.061 14.002 44.0001 14.002Z" fill="black"/>
</g>
<defs>
<clipPath id="clip0_6013_52342">
<rect width="48" height="36" fill="white" transform="translate(0 0.00195312)"/>
</clipPath>
</defs>
</svg>
