<svg width="48" height="42" viewBox="0 0 48 42" fill="none" xmlns="http://www.w3.org/2000/svg">
<g clip-path="url(#clip0_6013_52344)">
<path d="M44 1.00195C44 0.449953 43.311 0.00195312 42.462 0.00195312H5.538C4.688 0.00195312 4 0.449953 4 1.00195V4.00195H44V1.00195ZM46 6.00195H2C1.47005 6.00354 0.962265 6.21476 0.587535 6.58949C0.212805 6.96422 0.00158273 7.47201 0 8.00195L0 23.962C0.00158273 24.4919 0.212805 24.9997 0.587535 25.3744C0.962265 25.7491 1.47005 25.9604 2 25.962H8V15.992H40V25.962H46C46.5299 25.9604 47.0377 25.7491 47.4125 25.3744C47.7872 24.9997 47.9984 24.4919 48 23.962V8.00195C47.9984 7.47201 47.7872 6.96422 47.4125 6.58949C47.0377 6.21476 46.5299 6.00354 46 6.00195ZM31 13.002C30.6044 13.002 30.2178 12.8847 29.8889 12.6649C29.56 12.4451 29.3036 12.1328 29.1522 11.7673C29.0009 11.4019 28.9613 10.9997 29.0384 10.6118C29.1156 10.2238 29.3061 9.86744 29.5858 9.58774C29.8655 9.30803 30.2219 9.11755 30.6098 9.04038C30.9978 8.96321 31.3999 9.00282 31.7654 9.15419C32.1308 9.30557 32.4432 9.56191 32.6629 9.89081C32.8827 10.2197 33 10.6064 33 11.002C32.9984 11.5319 32.7872 12.0397 32.4125 12.4144C32.0377 12.7891 31.5299 13.0004 31 13.002ZM38 13.002C37.6044 13.002 37.2178 12.8847 36.8889 12.6649C36.56 12.4451 36.3036 12.1328 36.1522 11.7673C36.0009 11.4019 35.9613 10.9997 36.0384 10.6118C36.1156 10.2238 36.3061 9.86744 36.5858 9.58774C36.8655 9.30803 37.2219 9.11755 37.6098 9.04038C37.9978 8.96321 38.3999 9.00282 38.7654 9.15419C39.1308 9.30557 39.4432 9.56191 39.6629 9.89081C39.8827 10.2197 40 10.6064 40 11.002C39.9984 11.5319 39.7872 12.0397 39.4125 12.4144C39.0377 12.7891 38.5299 13.0004 38 13.002Z" fill="black"/>
<path d="M10 25.9622V41.0022C10.0008 41.2672 10.1064 41.5211 10.2938 41.7084C10.4811 41.8958 10.735 42.0014 11 42.0022H37C37.265 42.0014 37.5189 41.8958 37.7062 41.7084C37.8936 41.5211 37.9992 41.2672 38 41.0022V17.9922H10V25.9622ZM34 35.0022H14C13.7348 35.0022 13.4804 34.8968 13.2929 34.7093C13.1054 34.5218 13 34.2674 13 34.0022C13 33.737 13.1054 33.4826 13.2929 33.2951C13.4804 33.1075 13.7348 33.0022 14 33.0022H34C34.2652 33.0022 34.5196 33.1075 34.7071 33.2951C34.8946 33.4826 35 33.737 35 34.0022C35 34.2674 34.8946 34.5218 34.7071 34.7093C34.5196 34.8968 34.2652 35.0022 34 35.0022ZM34 29.0022H14C13.7348 29.0022 13.4804 28.8968 13.2929 28.7093C13.1054 28.5218 13 28.2674 13 28.0022C13 27.737 13.1054 27.4826 13.2929 27.2951C13.4804 27.1075 13.7348 27.0022 14 27.0022H34C34.2652 27.0022 34.5196 27.1075 34.7071 27.2951C34.8946 27.4826 35 27.737 35 28.0022C35 28.2674 34.8946 28.5218 34.7071 28.7093C34.5196 28.8968 34.2652 29.0022 34 29.0022Z" fill="black"/>
</g>
<defs>
<clipPath id="clip0_6013_52344">
<rect width="48" height="42" fill="white" transform="translate(0 0.00195312)"/>
</clipPath>
</defs>
</svg>
