<svg width="48" height="48" viewBox="0 0 48 48" fill="none" xmlns="http://www.w3.org/2000/svg">
<g clip-path="url(#clip0_6013_52348)">
<path d="M45 5.00195C44.206 5.00719 43.4459 5.32495 42.8845 5.88643C42.323 6.4479 42.0052 7.20792 42 8.00195V24.002L37.194 28.846C37.1196 28.9868 37.0118 29.1072 36.8799 29.1967C36.7481 29.2861 36.5964 29.3418 36.438 29.3589C36.2796 29.376 36.1195 29.3539 35.9716 29.2946C35.8238 29.2354 35.6927 29.1407 35.59 29.019C35.3619 28.7854 35.2341 28.4719 35.2341 28.1455C35.2341 27.819 35.3619 27.5055 35.59 27.272L39.646 23.145C40.0369 22.7435 40.2557 22.2053 40.2557 21.645C40.2557 21.0846 40.0369 20.5464 39.646 20.145C39.4541 19.9484 39.2249 19.7922 38.9717 19.6856C38.7186 19.579 38.4467 19.524 38.172 19.524C37.8973 19.524 37.6254 19.579 37.3723 19.6856C37.1191 19.7922 36.8899 19.9484 36.698 20.145L28.83 28.152C28.2066 28.7895 27.7233 29.5502 27.4111 30.3854C27.0989 31.2206 26.9647 32.1118 27.017 33.002H27V48.002H36V38.347C36.6183 38.0401 37.1811 37.6322 37.665 37.14L47.135 27.524C47.69 26.9571 48.0006 26.1952 48 25.402V8.00195C47.9948 7.20792 47.677 6.4479 47.1155 5.88643C46.5541 5.32495 45.794 5.00719 45 5.00195ZM19.17 28.151L11.302 20.145C11.1101 19.9484 10.8809 19.7922 10.6277 19.6856C10.3746 19.579 10.1027 19.524 9.828 19.524C9.55332 19.524 9.28141 19.579 9.02828 19.6856C8.77514 19.7922 8.54589 19.9484 8.354 20.145C7.96306 20.5464 7.74429 21.0846 7.74429 21.645C7.74429 22.2053 7.96306 22.7435 8.354 23.145L12.41 27.272C12.6381 27.5055 12.7659 27.819 12.7659 28.1455C12.7659 28.4719 12.6381 28.7854 12.41 29.019C12.2982 29.1334 12.1647 29.2243 12.0173 29.2864C11.8698 29.3485 11.7115 29.3805 11.5515 29.3805C11.3915 29.3805 11.2332 29.3485 11.0857 29.2864C10.9383 29.2243 10.8048 29.1334 10.693 29.019L6 24.002V8.00195C5.99476 7.20792 5.67701 6.4479 5.11553 5.88643C4.55405 5.32495 3.79403 5.00719 3 5.00195C2.20597 5.00719 1.44595 5.32495 0.884472 5.88643C0.322995 6.4479 0.00524152 7.20792 2.18515e-07 8.00195V25.402C-0.000300907 26.1954 0.310634 26.9573 0.866 27.524L10.336 37.14C10.8196 37.6321 11.382 38.04 12 38.347V48.002H21V33.002H20.983C21.0355 32.1117 20.9013 31.2203 20.5891 30.3849C20.2769 29.5495 19.7935 28.7886 19.17 28.151Z" fill="black"/>
<path d="M24 18.002C28.9706 18.002 33 13.9725 33 9.00195C33 4.03139 28.9706 0.00195312 24 0.00195312C19.0294 0.00195312 15 4.03139 15 9.00195C15 13.9725 19.0294 18.002 24 18.002Z" fill="black"/>
</g>
<defs>
<clipPath id="clip0_6013_52348">
<rect width="48" height="48" fill="white" transform="translate(0 0.00195312)"/>
</clipPath>
</defs>
</svg>
