<svg width="48" height="48" viewBox="0 0 48 48" fill="none" xmlns="http://www.w3.org/2000/svg">
<g clip-path="url(#clip0_6013_52352)">
<path d="M24.0359 0.00195312H23.9639C16.4096 0.00195312 10.2856 3.57427 10.2856 7.98095V25.023C10.2856 29.4296 16.4096 33.002 23.9639 33.002H24.0359C31.5902 33.002 37.7142 29.4296 37.7142 25.023V7.98095C37.7142 3.57427 31.5902 0.00195312 24.0359 0.00195312Z" fill="black"/>
<path d="M48 24.502C48 24.1041 47.7291 23.7226 47.2468 23.4413C46.7646 23.16 46.1106 23.002 45.4286 23.002C44.7466 23.002 44.0925 23.16 43.6103 23.4413C43.1281 23.7226 42.8571 24.1041 42.8571 24.502C42.8571 27.4193 40.8704 30.2172 37.334 32.2801C33.7976 34.343 29.0012 35.502 24 35.502C18.9988 35.502 14.2024 34.343 10.666 32.2801C7.12959 30.2172 5.14286 27.4193 5.14286 24.502C5.14286 24.1041 4.87194 23.7226 4.3897 23.4413C3.90747 23.16 3.25341 23.002 2.57143 23.002C1.88944 23.002 1.23539 23.16 0.753154 23.4413C0.270918 23.7226 0 24.1041 0 24.502C0.00286124 27.8669 2.08388 31.1186 5.86187 33.6615C9.63986 36.2043 14.8619 37.8681 20.5714 38.348V44.002H13.7143C13.1128 44.0038 12.5226 44.097 12.0017 44.2724C11.4808 44.4478 11.0472 44.6993 10.7435 45.0022C10.4399 45.305 10.2768 45.6488 10.2701 45.9996C10.2635 46.3505 10.4136 46.6963 10.7057 47.003C10.9957 47.3126 11.4264 47.5697 11.9505 47.746C12.4746 47.9222 13.0718 48.0108 13.6766 48.002H34.2857C34.8874 48.0002 35.4779 47.907 35.9991 47.7315C36.5202 47.5561 36.954 47.3045 37.2577 47.0015C37.5613 46.6985 37.7244 46.3545 37.7308 46.0035C37.7373 45.6526 37.5868 45.3067 37.2943 45C37.0041 44.6904 36.5733 44.4336 36.0492 44.2575C35.5251 44.0815 34.928 43.993 34.3234 44.002H27.4286V38.337C33.1313 37.8526 38.3459 36.1891 42.122 33.6496C45.898 31.1101 47.9841 27.8636 48 24.502Z" fill="black"/>
</g>
<defs>
<clipPath id="clip0_6013_52352">
<rect width="48" height="48" fill="white" transform="translate(0 0.00195312)"/>
</clipPath>
</defs>
</svg>
