<svg width="48" height="39" viewBox="0 0 48 39" fill="none" xmlns="http://www.w3.org/2000/svg">
<g clip-path="url(#clip0_6013_52356)">
<path d="M45 10.0019H16.767L39.517 3.93391C40.0154 3.78456 40.436 3.44687 40.6895 2.99252C40.943 2.53816 41.0094 2.0029 40.8747 1.50035C40.7401 0.997797 40.4148 0.567509 39.9681 0.300812C39.5214 0.0341146 38.9883 -0.0479966 38.482 0.0719056L1.482 9.93991C1.03575 10.0602 0.644943 10.3314 0.37604 10.7073C0.107137 11.0833 -0.0232675 11.5407 0.007 12.0019H0V36.0019C0.0026363 36.7967 0.319553 37.5583 0.881592 38.1203C1.44363 38.6824 2.20516 38.9993 3 39.0019H45C45.7948 38.9993 46.5564 38.6824 47.1184 38.1203C47.6804 37.5583 47.9974 36.7967 48 36.0019V13.0019C47.9974 12.2071 47.6804 11.4455 47.1184 10.8835C46.5564 10.3215 45.7948 10.0045 45 10.0019ZM9 33.5019C9 33.8997 8.84196 34.2813 8.56066 34.5626C8.27936 34.8439 7.89782 35.0019 7.5 35.0019C7.10218 35.0019 6.72064 34.8439 6.43934 34.5626C6.15804 34.2813 6 33.8997 6 33.5019V24.5019C6 24.1041 6.15804 23.7226 6.43934 23.4412C6.72064 23.1599 7.10218 23.0019 7.5 23.0019C7.89782 23.0019 8.27936 23.1599 8.56066 23.4412C8.84196 23.7226 9 24.1041 9 24.5019V33.5019ZM16 33.5019C16 33.8997 15.842 34.2813 15.5607 34.5626C15.2794 34.8439 14.8978 35.0019 14.5 35.0019C14.1022 35.0019 13.7206 34.8439 13.4393 34.5626C13.158 34.2813 13 33.8997 13 33.5019V24.5019C13 24.1041 13.158 23.7226 13.4393 23.4412C13.7206 23.1599 14.1022 23.0019 14.5 23.0019C14.8978 23.0019 15.2794 23.1599 15.5607 23.4412C15.842 23.7226 16 24.1041 16 24.5019V33.5019ZM23 33.5019C23 33.8997 22.842 34.2813 22.5607 34.5626C22.2794 34.8439 21.8978 35.0019 21.5 35.0019C21.1022 35.0019 20.7206 34.8439 20.4393 34.5626C20.158 34.2813 20 33.8997 20 33.5019V24.5019C20 24.1041 20.158 23.7226 20.4393 23.4412C20.7206 23.1599 21.1022 23.0019 21.5 23.0019C21.8978 23.0019 22.2794 23.1599 22.5607 23.4412C22.842 23.7226 23 24.1041 23 24.5019V33.5019ZM36 35.0019C34.8133 35.0019 33.6533 34.65 32.6666 33.9907C31.6799 33.3314 30.9108 32.3944 30.4567 31.298C30.0026 30.2016 29.8838 28.9953 30.1153 27.8314C30.3468 26.6675 30.9182 25.5984 31.7574 24.7593C32.5965 23.9201 33.6656 23.3487 34.8295 23.1172C35.9933 22.8857 37.1997 23.0045 38.2961 23.4586C39.3925 23.9128 40.3295 24.6818 40.9888 25.6685C41.6481 26.6552 42 27.8152 42 29.0019C41.9987 30.5928 41.3661 32.1182 40.2412 33.2431C39.1162 34.368 37.5909 35.0006 36 35.0019ZM40.5 18.0019H7.5C7.10218 18.0019 6.72064 17.8439 6.43934 17.5626C6.15804 17.2813 6 16.8997 6 16.5019C6 16.1041 6.15804 15.7225 6.43934 15.4412C6.72064 15.1599 7.10218 15.0019 7.5 15.0019H40.5C40.8978 15.0019 41.2794 15.1599 41.5607 15.4412C41.842 15.7225 42 16.1041 42 16.5019C42 16.8997 41.842 17.2813 41.5607 17.5626C41.2794 17.8439 40.8978 18.0019 40.5 18.0019Z" fill="black"/>
</g>
<defs>
<clipPath id="clip0_6013_52356">
<rect width="48" height="39" fill="white" transform="translate(0 0.00195312)"/>
</clipPath>
</defs>
</svg>
