<svg width="48" height="48" viewBox="0 0 48 48" fill="none" xmlns="http://www.w3.org/2000/svg">
<g clip-path="url(#clip0_6013_52358)">
<path d="M21.5 15.002C25.0899 15.002 28 12.0918 28 8.50195C28 4.9121 25.0899 2.00195 21.5 2.00195C17.9101 2.00195 15 4.9121 15 8.50195C15 12.0918 17.9101 15.002 21.5 15.002Z" fill="black"/>
<path d="M8.86888e-07 38.952C-0.000312187 39.3623 0.0822649 39.7685 0.242778 40.1461C0.403292 40.5238 0.638435 40.8651 0.9341 41.1497C1.22977 41.4342 1.57986 41.6561 1.96339 41.8021C2.34691 41.948 2.75596 42.015 3.166 41.999C3.94951 41.9333 4.6786 41.5717 5.20503 40.9876C5.73146 40.4036 6.01571 39.6411 6 38.855C5.98974 36.5452 6.52838 34.2661 7.57153 32.2054C8.61469 30.1446 10.1325 28.3612 12 27.002V44.032C12 45.0849 12.4183 46.0947 13.1628 46.8392C13.9073 47.5837 14.9171 48.002 15.97 48.002H27.03C27.5554 48.0007 28.0754 47.8959 28.5603 47.6936C29.0452 47.4913 29.4855 47.1954 29.856 46.823C29.9028 46.7756 29.9396 46.7193 29.9643 46.6575C29.989 46.5957 30.0012 46.5295 30 46.463V19.582C27.2941 18.5156 24.4084 17.9792 21.5 18.002C9.22 18.002 8.86888e-07 26.952 8.86888e-07 38.952ZM48 23.002V20.109C48.011 19.6221 47.8503 19.1468 47.5461 18.7665C47.2418 18.3862 46.8134 18.1251 46.336 18.029C46.0489 17.98 45.7547 17.9944 45.4737 18.071C45.1928 18.1476 44.932 18.2847 44.7095 18.4726C44.487 18.6605 44.3083 18.8947 44.1857 19.1589C44.0632 19.423 43.9998 19.7108 44 20.002V23.002C44 23.5324 43.7893 24.0411 43.4142 24.4162C43.0391 24.7912 42.5304 25.002 42 25.002V11.002C41.9984 10.472 41.7872 9.96422 41.4125 9.58949C41.0377 9.21476 40.5299 9.00354 40 9.00195V0.501953C40 0.369345 39.9473 0.242168 39.8536 0.1484C39.7598 0.0546316 39.6326 0.00195313 39.5 0.00195312L37 0.00195313C36.7348 0.00195313 36.4804 0.10731 36.2929 0.294846C36.1054 0.482383 36 0.736737 36 1.00195C36 1.26717 36.1054 1.52152 36.2929 1.70906C36.4804 1.8966 36.7348 2.00195 37 2.00195V9.28195C36.6977 9.45646 36.4464 9.70704 36.271 10.0088C36.0955 10.3105 36.0021 10.6529 36 11.002V17.002H35C34.4701 17.0035 33.9623 17.2148 33.5875 17.5895C33.2128 17.9642 33.0016 18.472 33 19.002V34.002C33.0016 34.5319 33.2128 35.0397 33.5875 35.4144C33.9623 35.7891 34.4701 36.0004 35 36.002H36V46.002C36.0016 46.5319 36.2128 47.0397 36.5875 47.4144C36.9623 47.7891 37.4701 48.0004 38 48.002H43C43.3042 48.0013 43.6042 47.9314 43.8774 47.7976C44.1506 47.6638 44.3897 47.4696 44.5767 47.2296C44.7636 46.9897 44.8935 46.7103 44.9564 46.4127C45.0194 46.1151 45.0138 45.8071 44.94 45.512C44.94 45.512 42 36.082 42 36.002H45.893C46.3799 36.0129 46.8551 35.8522 47.2354 35.548C47.6157 35.2438 47.8768 34.8154 47.973 34.338C48.0219 34.0509 48.0076 33.7566 47.9309 33.4757C47.8543 33.1947 47.7173 32.9339 47.5294 32.7114C47.3415 32.489 47.1073 32.3102 46.8431 32.1877C46.5789 32.0651 46.2912 32.0017 46 32.002H42V29.002C43.5907 29.0001 45.1158 28.3674 46.2406 27.2425C47.3654 26.1177 47.9981 24.5927 48 23.002Z" fill="black"/>
</g>
<defs>
<clipPath id="clip0_6013_52358">
<rect width="48" height="48" fill="white" transform="translate(0 0.00195312)"/>
</clipPath>
</defs>
</svg>
