<svg width="48" height="48" viewBox="0 0 48 48" fill="none" xmlns="http://www.w3.org/2000/svg">
<g clip-path="url(#clip0_6013_52362)">
<path d="M1.38421 11.1332L9.89421 13.8982L25.3822 18.9322C26.1552 19.1822 27.0002 18.7302 27.0002 18.0652V11.0022H34.0002V13.0022H44.5832C45.0368 13.0099 45.4874 12.9273 45.9087 12.7591C46.33 12.5909 46.7136 12.3404 47.0371 12.0224C47.3606 11.7044 47.6175 11.3251 47.7929 10.9068C47.9683 10.4884 48.0587 10.0393 48.0587 9.58566C48.0587 9.13201 47.9683 8.68291 47.7929 8.26454C47.6175 7.84617 47.3606 7.46691 47.0371 7.14889C46.7136 6.83087 46.33 6.58045 45.9087 6.41224C45.4874 6.24403 45.0368 6.1614 44.5832 6.16916H34.0002V8.00216H27.0002V0.939156C27.0002 0.274156 26.1552 -0.178844 25.3822 0.0721564L9.89321 5.10616L1.38421 7.87116C0.997618 7.93487 0.646224 8.13383 0.392699 8.43255C0.139173 8.73128 0 9.11035 0 9.50216C0 9.89396 0.139173 10.273 0.392699 10.5718C0.646224 10.8705 0.997618 11.0694 1.38421 11.1332Z" fill="black"/>
<path d="M47 37.002H26C25.4477 37.002 25 37.4497 25 38.002V47.002C25 47.5542 25.4477 48.002 26 48.002H47C47.5523 48.002 48 47.5542 48 47.002V38.002C48 37.4497 47.5523 37.002 47 37.002Z" fill="black"/>
<path d="M35 24.002H13C12.4477 24.002 12 24.4497 12 25.002V34.002C12 34.5542 12.4477 35.002 13 35.002H35C35.5523 35.002 36 34.5542 36 34.002V25.002C36 24.4497 35.5523 24.002 35 24.002Z" fill="black"/>
<path d="M22 37.002H1C0.447715 37.002 0 37.4497 0 38.002V47.002C0 47.5542 0.447715 48.002 1 48.002H22C22.5523 48.002 23 47.5542 23 47.002V38.002C23 37.4497 22.5523 37.002 22 37.002Z" fill="black"/>
<path d="M47 24.002H39C38.4477 24.002 38 24.4497 38 25.002V34.002C38 34.5542 38.4477 35.002 39 35.002H47C47.5523 35.002 48 34.5542 48 34.002V25.002C48 24.4497 47.5523 24.002 47 24.002Z" fill="black"/>
</g>
<defs>
<clipPath id="clip0_6013_52362">
<rect width="48" height="48" fill="white" transform="translate(0 0.00195312)"/>
</clipPath>
</defs>
</svg>
