<svg width="48" height="47" viewBox="0 0 48 47" fill="none" xmlns="http://www.w3.org/2000/svg">
<g clip-path="url(#clip0_6013_52369)">
<path d="M29.7982 6.8091C29.5508 6.05847 29.0861 5.39797 28.4629 4.91115C27.8397 4.42432 27.086 4.13303 26.297 4.07411C25.5081 4.01519 24.7193 4.19129 24.0306 4.58014C23.3418 4.96899 22.784 5.55312 22.4276 6.25866C22.0712 6.9642 21.9323 7.75946 22.0284 8.54387C22.1245 9.32828 22.4514 10.0666 22.9676 10.6655C23.4838 11.2643 24.1662 11.6968 24.9285 11.9083C25.6908 12.1197 26.4988 12.1006 27.2502 11.8534C28.2577 11.5219 29.0921 10.8043 29.57 9.85831C30.0478 8.91234 30.1299 7.81552 29.7982 6.8091ZM20.7352 27.5367L24.6662 19.7555C25.2461 18.6077 25.3458 17.2769 24.9433 16.0557C24.5409 14.8346 23.6692 13.8231 22.5202 13.2438L19.9642 11.9553C19.8281 11.8883 19.6849 11.8371 19.5372 11.8025C16.2311 10.356 12.4973 10.2233 9.09663 11.4314C5.69599 12.6394 2.88451 15.0973 1.2352 18.3041C1.10481 18.5462 1.02408 18.8118 0.997753 19.0854C0.971424 19.3589 1.00002 19.635 1.08187 19.8975C1.16372 20.1599 1.29717 20.4033 1.47442 20.6136C1.65166 20.8238 1.86912 20.9966 2.11406 21.1218C2.35901 21.2471 2.62651 21.3222 2.9009 21.3428C3.17528 21.3635 3.45104 21.3292 3.712 21.2421C3.97296 21.1549 4.21389 21.0166 4.42067 20.8353C4.62745 20.654 4.79591 20.4332 4.9162 20.186C5.85916 18.3543 7.34337 16.8566 9.16751 15.8961C10.9917 14.9357 13.0674 14.559 15.1132 14.8171L0.2282 43.9702C-0.023225 44.4628 -0.0684415 45.035 0.102498 45.5609C0.273437 46.0868 0.64653 46.5234 1.1397 46.7745C1.63287 47.0257 2.20572 47.0708 2.73223 46.9001C3.25874 46.7293 3.69578 46.3567 3.9472 45.8641L12.9892 28.155L17.4642 30.4125C19.7913 31.6802 21.5289 33.8076 22.305 36.3392C23.081 38.8709 22.8338 41.6054 21.6162 43.9572C21.4827 44.2008 21.3993 44.4685 21.3708 44.7447C21.3424 45.0209 21.3694 45.3 21.4504 45.5656C21.5314 45.8312 21.6647 46.0779 21.8425 46.2914C22.0202 46.5048 22.2389 46.6807 22.4856 46.8085C22.7324 46.9364 23.0022 47.0138 23.2792 47.0361C23.5563 47.0584 23.8351 47.0252 24.0991 46.9384C24.3631 46.8516 24.6072 46.7131 24.8169 46.5308C25.0266 46.3485 25.1977 46.1263 25.3202 45.877C26.92 42.786 27.337 39.2185 26.493 35.8425C25.649 32.4665 23.602 29.5136 20.7352 27.5367ZM47.5452 22.3795L40.5972 15.4394C40.4531 15.2954 40.282 15.1812 40.0937 15.1033C39.9054 15.0254 39.7035 14.9853 39.4997 14.9853C39.2959 14.9853 39.094 15.0254 38.9057 15.1033C38.7174 15.1812 38.5463 15.2954 38.4022 15.4394C38.2581 15.5833 38.1437 15.7542 38.0657 15.9423C37.9877 16.1304 37.9476 16.332 37.9476 16.5356C37.9476 16.7392 37.9877 16.9408 38.0657 17.1289C38.1437 17.317 38.2581 17.4879 38.4022 17.6319L42.7522 21.977H29.5002C29.1024 21.977 28.7208 22.1349 28.4395 22.4158C28.1582 22.6968 28.0002 23.0779 28.0002 23.4753C28.0002 23.8727 28.1582 24.2538 28.4395 24.5348C28.7208 24.8158 29.1024 24.9736 29.5002 24.9736H42.7522L38.4022 29.3187C38.1111 29.6095 37.9476 30.0038 37.9476 30.415C37.9476 30.8262 38.1111 31.2205 38.4022 31.5112C38.6933 31.802 39.0881 31.9653 39.4997 31.9653C39.9113 31.9653 40.3061 31.802 40.5972 31.5112L47.5452 24.5721C47.6896 24.4282 47.8041 24.2574 47.8823 24.0693C47.9604 23.8811 48.0007 23.6795 48.0007 23.4758C48.0007 23.2721 47.9604 23.0705 47.8823 22.8823C47.8041 22.6942 47.6896 22.5234 47.5452 22.3795Z" fill="black"/>
<path d="M33.5 27.9704C33.1022 27.9704 32.7206 28.1283 32.4393 28.4093C32.158 28.6902 32 29.0713 32 29.4687V34.4631C32 34.8605 32.158 35.2416 32.4393 35.5226C32.7206 35.8035 33.1022 35.9614 33.5 35.9614C33.8978 35.9614 34.2794 35.8035 34.5607 35.5226C34.842 35.2416 35 34.8605 35 34.4631V29.4687C35 29.0713 34.842 28.6902 34.5607 28.4093C34.2794 28.1283 33.8978 27.9704 33.5 27.9704ZM33.5 18.9806C33.8978 18.9806 34.2794 18.8227 34.5607 18.5417C34.842 18.2607 35 17.8796 35 17.4822V12.4879C35 12.0905 34.842 11.7094 34.5607 11.4284C34.2794 11.1474 33.8978 10.9896 33.5 10.9896C33.1022 10.9896 32.7206 11.1474 32.4393 11.4284C32.158 11.7094 32 12.0905 32 12.4879V17.4822C32 17.8796 32.158 18.2607 32.4393 18.5417C32.7206 18.8227 33.1022 18.9806 33.5 18.9806ZM33.5 7.99294C33.8978 7.99294 34.2794 7.83508 34.5607 7.5541C34.842 7.27311 35 6.89201 35 6.49463V1.50026C35 1.10289 34.842 0.721786 34.5607 0.440798C34.2794 0.15981 33.8978 0.00195313 33.5 0.00195312C33.1022 0.00195313 32.7206 0.15981 32.4393 0.440798C32.158 0.721786 32 1.10289 32 1.50026V6.49463C32 6.89201 32.158 7.27311 32.4393 7.5541C32.7206 7.83508 33.1022 7.99294 33.5 7.99294ZM33.5 38.958C33.1022 38.958 32.7206 39.1159 32.4393 39.3969C32.158 39.6779 32 40.059 32 40.4563V45.4507C32 45.8481 32.158 46.2292 32.4393 46.5102C32.7206 46.7912 33.1022 46.949 33.5 46.949C33.8978 46.949 34.2794 46.7912 34.5607 46.5102C34.842 46.2292 35 45.8481 35 45.4507V40.4563C35 40.059 34.842 39.6779 34.5607 39.3969C34.2794 39.1159 33.8978 38.958 33.5 38.958Z" fill="black"/>
</g>
<defs>
<clipPath id="clip0_6013_52369">
<rect width="48" height="47" fill="white" transform="translate(0 0.00195312)"/>
</clipPath>
</defs>
</svg>
