<svg width="48" height="32" viewBox="0 0 48 32" fill="none" xmlns="http://www.w3.org/2000/svg">
<g clip-path="url(#clip0_6013_52373)">
<path d="M45 0.00195312H3C2.20516 0.00458943 1.44363 0.321507 0.881592 0.883545C0.319553 1.44558 0.0026363 2.20711 0 3.00195L0 29.002C0.0026363 29.7968 0.319553 30.5583 0.881592 31.1204C1.44363 31.6824 2.20516 31.9993 3 32.002H45C45.7948 31.9993 46.5564 31.6824 47.1184 31.1204C47.6804 30.5583 47.9974 29.7968 48 29.002V3.00195C47.9974 2.20711 47.6804 1.44558 47.1184 0.883545C46.5564 0.321507 45.7948 0.00458943 45 0.00195312ZM8.46 5.46195C9.2795 4.63739 10.3597 4.12268 11.5163 4.00562C12.6729 3.88857 13.8344 4.17641 14.8025 4.82005C15.7706 5.4637 16.4854 6.42327 16.825 7.5351C17.1646 8.64693 17.1079 9.84214 16.6646 10.9169C16.2214 11.9916 15.419 12.8792 14.3944 13.4284C13.3697 13.9776 12.1863 14.1543 11.0459 13.9283C9.90557 13.7024 8.87891 13.0878 8.14109 12.1894C7.40326 11.291 6.99997 10.1645 7 9.00195C6.99982 7.6754 7.52472 6.4027 8.46 5.46195ZM20 26.002H4V25.002C4 22.8802 4.84285 20.8454 6.34315 19.3451C7.84344 17.8448 9.87827 17.002 12 17.002C14.1217 17.002 16.1566 17.8448 17.6569 19.3451C19.1571 20.8454 20 22.8802 20 25.002V26.002ZM40.52 24.002H25.49C25.0922 24.002 24.7106 23.8439 24.4293 23.5626C24.148 23.2813 23.99 22.8998 23.99 22.502C23.99 22.1041 24.148 21.7226 24.4293 21.4413C24.7106 21.16 25.0922 21.002 25.49 21.002H40.52C40.9178 21.002 41.2994 21.16 41.5807 21.4413C41.862 21.7226 42.02 22.1041 42.02 22.502C42.02 22.8998 41.862 23.2813 41.5807 23.5626C41.2994 23.8439 40.9178 24.002 40.52 24.002ZM40.52 18.002H25.49C25.0922 18.002 24.7106 17.8439 24.4293 17.5626C24.148 17.2813 23.99 16.8998 23.99 16.502C23.99 16.1041 24.148 15.7226 24.4293 15.4413C24.7106 15.16 25.0922 15.002 25.49 15.002H40.52C40.9178 15.002 41.2994 15.16 41.5807 15.4413C41.862 15.7226 42.02 16.1041 42.02 16.502C42.02 16.8998 41.862 17.2813 41.5807 17.5626C41.2994 17.8439 40.9178 18.002 40.52 18.002ZM40.52 12.002H25.49C25.0922 12.002 24.7106 11.8439 24.4293 11.5626C24.148 11.2813 23.99 10.8998 23.99 10.502C23.99 10.1041 24.148 9.7226 24.4293 9.44129C24.7106 9.15999 25.0922 9.00195 25.49 9.00195H40.52C40.9178 9.00195 41.2994 9.15999 41.5807 9.44129C41.862 9.7226 42.02 10.1041 42.02 10.502C42.02 10.8998 41.862 11.2813 41.5807 11.5626C41.2994 11.8439 40.9178 12.002 40.52 12.002Z" fill="black"/>
</g>
<defs>
<clipPath id="clip0_6013_52373">
<rect width="48" height="32" fill="white" transform="translate(0 0.00195312)"/>
</clipPath>
</defs>
</svg>
