<svg width="48" height="48" viewBox="0 0 48 48" fill="none" xmlns="http://www.w3.org/2000/svg">
<g clip-path="url(#clip0_6013_52375)">
<path d="M24 0.00195312C17.6348 0.00195313 11.5303 1.79302 7.02944 4.98114C2.52856 8.16926 0 12.4933 0 17.002H48C48 12.4933 45.4714 8.16926 40.9706 4.98114C36.4697 1.79302 30.3652 0.00195313 24 0.00195312ZM40.1802 19.42L24.0014 30.422L7.81835 19.42C7.41323 19.1444 6.87015 18.9941 6.3086 19.0022C5.74705 19.0102 5.21303 19.176 4.824 19.463C4.43497 19.7499 4.22282 20.1346 4.2342 20.5324C4.24559 20.9301 4.47958 21.3084 4.88471 21.584L22.5318 33.584C22.5459 33.594 22.5642 33.596 22.5784 33.605C22.7629 33.7265 22.9766 33.8236 23.2094 33.892C23.2245 33.896 23.2405 33.8993 23.2574 33.902C23.7339 34.0341 24.2633 34.0341 24.7398 33.902C24.7567 33.8993 24.7727 33.896 24.7878 33.892C25.0205 33.8236 25.2343 33.7265 25.4188 33.605C25.4329 33.596 25.4513 33.593 25.4654 33.584L43.1125 21.584C43.5176 21.3084 43.7516 20.9301 43.763 20.5324C43.7744 20.1346 43.5622 19.7499 43.1732 19.463C42.7841 19.176 42.2501 19.0102 41.6886 19.0022C41.127 18.9941 40.584 19.1444 40.1788 19.42" fill="black"/>
<path d="M31.0587 36.002H16.9411C16.1614 36.002 15.5293 36.4497 15.5293 37.002V47.002C15.5293 47.5542 16.1614 48.002 16.9411 48.002H31.0587C31.8384 48.002 32.4705 47.5542 32.4705 47.002V37.002C32.4705 36.4497 31.8384 36.002 31.0587 36.002Z" fill="black"/>
</g>
<defs>
<clipPath id="clip0_6013_52375">
<rect width="48" height="48" fill="white" transform="translate(0 0.00195312)"/>
</clipPath>
</defs>
</svg>
