<svg width="48" height="8" viewBox="0 0 48 8" fill="none" xmlns="http://www.w3.org/2000/svg">
<g clip-path="url(#clip0_6013_52387)">
<path d="M3.99952 8.00195C3.47424 8.00202 2.95408 7.89872 2.46875 7.69797C1.98342 7.49721 1.54243 7.20292 1.17095 6.8319C0.420711 6.0826 -0.000843923 5.06625 -0.000976531 4.00645C-0.00110914 2.94664 0.420191 1.93019 1.17024 1.1807C1.92029 0.431211 2.93766 0.0100776 3.99852 0.00994516L43.9985 0.00195316C45.0594 0.00182068 46.0779 0.4227 46.8281 1.172C47.5783 1.9213 47.9999 2.93765 48 3.99746C48.0002 5.05726 47.5789 6.07372 46.8288 6.8232C46.0788 7.57269 45.0614 7.99383 44.0005 7.99396L3.99952 8.00195Z" fill="black"/>
</g>
<defs>
<clipPath id="clip0_6013_52387">
<rect width="48" height="8" fill="white" transform="translate(0 0.00195312)"/>
</clipPath>
</defs>
</svg>
