<svg width="48" height="48" viewBox="0 0 48 48" fill="none" xmlns="http://www.w3.org/2000/svg">
<g clip-path="url(#clip0_6013_52379)">
<path d="M43.81 17.0849C43.1153 12.3406 40.737 8.00462 37.1095 4.86891C33.4821 1.73319 28.8477 0.0070732 24.0528 0.00586001C19.2579 0.00464683 14.6226 1.72842 10.9936 4.8623C7.36463 7.99618 4.98414 12.331 4.287 17.0749C3.09825 17.2453 2.01066 17.8383 1.22337 18.7451C0.436085 19.6519 0.00178765 20.812 9.98096e-08 22.0129V30.9909C-0.000131239 31.6489 0.129359 32.3005 0.381077 32.9085C0.632794 33.5164 1.00181 34.0689 1.46704 34.5342C1.93228 34.9995 2.48462 35.3686 3.09253 35.6205C3.70043 35.8723 4.35199 36.0019 5.01 36.0019H8.996C9.52749 36.0019 10.0372 35.7908 10.413 35.415C10.7889 35.0391 11 34.5294 11 33.9979V19.0059C11 18.4744 10.7889 17.9647 10.413 17.5889C10.0372 17.2131 9.52749 17.0019 8.996 17.0019H8.34C9.03595 13.3455 10.9857 10.0464 13.8531 7.6733C16.7205 5.30018 20.3259 4.00171 24.048 4.00171C27.7701 4.00171 31.3755 5.30018 34.2429 7.6733C37.1103 10.0464 39.0601 13.3455 39.756 17.0019H39.004C38.4725 17.0019 37.9628 17.2131 37.587 17.5889C37.2111 17.9647 37 18.4744 37 19.0059V33.9979C37 34.5294 37.2111 35.0391 37.587 35.415C37.9628 35.7908 38.4725 36.0019 39.004 36.0019H39.952C39.6859 37.6723 38.8339 39.1934 37.5486 40.2927C36.2632 41.3921 34.6284 41.998 32.937 42.0019H29.445C29.0047 41.2394 28.3251 40.6434 27.5116 40.3064C26.6981 39.9694 25.7962 39.9103 24.9456 40.1382C24.0951 40.3661 23.3435 40.8683 22.8075 41.5669C22.2714 42.2655 21.9809 43.1214 21.9809 44.0019C21.9809 44.8825 22.2714 45.7384 22.8075 46.437C23.3435 47.1356 24.0951 47.6377 24.9456 47.8656C25.7962 48.0935 26.6981 48.0344 27.5116 47.6974C28.3251 47.3605 29.0047 46.7645 29.445 46.0019H32.937C35.7077 45.9986 38.3773 44.9611 40.4231 43.0925C42.4688 41.2239 43.7434 38.659 43.997 35.8999C45.1274 35.668 46.1431 35.0529 46.8724 34.1587C47.6018 33.2645 48.0001 32.1459 48 30.9919V22.0139C47.9986 20.8293 47.5766 19.6836 46.8092 18.7811C46.0419 17.8786 44.979 17.2768 43.81 17.0849Z" fill="black"/>
</g>
<defs>
<clipPath id="clip0_6013_52379">
<rect width="48" height="48" fill="white" transform="translate(0 0.00195312)"/>
</clipPath>
</defs>
</svg>
