<svg width="48" height="42" viewBox="0 0 48 42" fill="none" xmlns="http://www.w3.org/2000/svg">
<g clip-path="url(#clip0_6013_52382)">
<path d="M47.0605 0.00195313H18.9405C18.8131 0.00583238 18.6877 0.0347825 18.5715 0.0871486C18.4553 0.139515 18.3505 0.21427 18.2632 0.307141C18.1759 0.400012 18.1078 0.509178 18.0627 0.628398C18.0176 0.747619 17.9965 0.874556 18.0005 1.00195V26.002H24.0005C25.3266 26.002 26.5983 26.5287 27.536 27.4664C28.4737 28.4041 29.0005 29.6759 29.0005 31.002C29.0005 32.328 28.4737 33.5998 27.536 34.5375C26.5983 35.4752 25.3266 36.002 24.0005 36.002H18.0005V41.002C17.9965 41.1293 18.0176 41.2563 18.0627 41.3755C18.1078 41.4947 18.1759 41.6039 18.2632 41.6968C18.3505 41.7896 18.4553 41.8644 18.5715 41.9168C18.6877 41.9691 18.8131 41.9981 18.9405 42.002H39.0005V35.782C39.0023 35.0452 39.2958 34.3392 39.8168 33.8182C40.3377 33.2973 41.0437 33.0038 41.7805 33.002H48.0005V1.00195C48.0045 0.874556 47.9833 0.747619 47.9382 0.628398C47.8932 0.509178 47.825 0.400012 47.7377 0.307141C47.6504 0.21427 47.5457 0.139515 47.4295 0.0871486C47.3133 0.0347825 47.1879 0.00583238 47.0605 0.00195313ZM42.0005 23.002H24.0005C23.7353 23.002 23.4809 22.8966 23.2934 22.7091C23.1058 22.5215 23.0005 22.2672 23.0005 22.002C23.0005 21.7367 23.1058 21.4824 23.2934 21.2948C23.4809 21.1073 23.7353 21.002 24.0005 21.002H42.0005C42.2657 21.002 42.5201 21.1073 42.7076 21.2948C42.8951 21.4824 43.0005 21.7367 43.0005 22.002C43.0005 22.2672 42.8951 22.5215 42.7076 22.7091C42.5201 22.8966 42.2657 23.002 42.0005 23.002ZM42.0005 17.002H24.0005C23.7353 17.002 23.4809 16.8966 23.2934 16.7091C23.1058 16.5215 23.0005 16.2672 23.0005 16.002C23.0005 15.7367 23.1058 15.4824 23.2934 15.2948C23.4809 15.1073 23.7353 15.002 24.0005 15.002H42.0005C42.2657 15.002 42.5201 15.1073 42.7076 15.2948C42.8951 15.4824 43.0005 15.7367 43.0005 16.002C43.0005 16.2672 42.8951 16.5215 42.7076 16.7091C42.5201 16.8966 42.2657 17.002 42.0005 17.002ZM42.0005 11.002H24.0005C23.7353 11.002 23.4809 10.8966 23.2934 10.7091C23.1058 10.5215 23.0005 10.2672 23.0005 10.002C23.0005 9.73674 23.1058 9.48238 23.2934 9.29485C23.4809 9.10731 23.7353 9.00195 24.0005 9.00195H42.0005C42.2657 9.00195 42.5201 9.10731 42.7076 9.29485C42.8951 9.48238 43.0005 9.73674 43.0005 10.002C43.0005 10.2672 42.8951 10.5215 42.7076 10.7091C42.5201 10.8966 42.2657 11.002 42.0005 11.002Z" fill="black"/>
<path d="M41.78 35.002C41.5731 35.002 41.3747 35.0841 41.2285 35.2304C41.0822 35.3767 41 35.5751 41 35.782V42.002L48 35.002H41.78Z" fill="black"/>
<path d="M41.78 35.002C41.5731 35.002 41.3747 35.0841 41.2285 35.2304C41.0822 35.3767 41 35.5751 41 35.782V42.002L48 35.002H41.78ZM24 33.002H2C1.46957 33.002 0.960859 32.7912 0.585786 32.4162C0.210714 32.0411 0 31.5324 0 31.002C0 30.4715 0.210714 29.9628 0.585786 29.5877C0.960859 29.2127 1.46957 29.002 2 29.002H24C24.5304 29.002 25.0391 29.2127 25.4142 29.5877C25.7893 29.9628 26 30.4715 26 31.002C26 31.5324 25.7893 32.0411 25.4142 32.4162C25.0391 32.7912 24.5304 33.002 24 33.002Z" fill="black"/>
</g>
<defs>
<clipPath id="clip0_6013_52382">
<rect width="48" height="42" fill="white" transform="translate(0 0.00195312)"/>
</clipPath>
</defs>
</svg>
