<svg width="48" height="48" viewBox="0 0 48 48" fill="none" xmlns="http://www.w3.org/2000/svg">
<g clip-path="url(#clip0_6013_52389)">
<path d="M46.6667 0.00195312H17.3333C16.98 0.00274449 16.6415 0.108355 16.3917 0.295721C16.1419 0.483086 16.0011 0.73698 16 1.00195V12.002H30.6667C31.2281 12.0028 31.783 12.0923 32.2953 12.2646C32.8075 12.4369 33.2657 12.6881 33.64 13.002H42.6667C43.0203 13.002 43.3594 13.1073 43.6095 13.2948C43.8595 13.4824 44 13.7367 44 14.002C44 14.2672 43.8595 14.5215 43.6095 14.7091C43.3594 14.8966 43.0203 15.002 42.6667 15.002H34.6667V18.002H42.6667C43.0203 18.002 43.3594 18.1073 43.6095 18.2948C43.8595 18.4824 44 18.7367 44 19.002C44 19.2672 43.8595 19.5215 43.6095 19.7091C43.3594 19.8966 43.0203 20.002 42.6667 20.002H34.6667V23.002H42.6667C43.0203 23.002 43.3594 23.1073 43.6095 23.2948C43.8595 23.4824 44 23.7367 44 24.002C44 24.2672 43.8595 24.5215 43.6095 24.7091C43.3594 24.8966 43.0203 25.002 42.6667 25.002H34.6667V34.002H46.6667C47.02 34.0012 47.3585 33.8956 47.6083 33.7082C47.8581 33.5208 47.9989 33.2669 48 33.002V1.00195C47.9989 0.73698 47.8581 0.483086 47.6083 0.295721C47.3585 0.108355 47.02 0.00274449 46.6667 0.00195312ZM42.6667 10.002H21.3333C20.9797 10.002 20.6406 9.8966 20.3905 9.70906C20.1405 9.52152 20 9.26717 20 9.00195C20 8.73674 20.1405 8.48238 20.3905 8.29485C20.6406 8.10731 20.9797 8.00195 21.3333 8.00195H42.6667C43.0203 8.00195 43.3594 8.10731 43.6095 8.29485C43.8595 8.48238 44 8.73674 44 9.00195C44 9.26717 43.8595 9.52152 43.6095 9.70906C43.3594 9.8966 43.0203 10.002 42.6667 10.002Z" fill="black"/>
<path d="M30.6667 14.002H1.33333C0.980036 14.0027 0.64151 14.1084 0.39169 14.2957C0.14187 14.4831 0.00105515 14.737 0 15.002L0 47.002C0.00105515 47.2669 0.14187 47.5208 0.39169 47.7082C0.64151 47.8956 0.980036 48.0012 1.33333 48.002H30.6667C31.02 48.0012 31.3585 47.8956 31.6083 47.7082C31.8581 47.5208 31.9989 47.2669 32 47.002V15.002C31.9989 14.737 31.8581 14.4831 31.6083 14.2957C31.3585 14.1084 31.02 14.0027 30.6667 14.002ZM5.33333 22.002H26.6667C27.0203 22.002 27.3594 22.1073 27.6095 22.2948C27.8595 22.4824 28 22.7367 28 23.002C28 23.2672 27.8595 23.5215 27.6095 23.7091C27.3594 23.8966 27.0203 24.002 26.6667 24.002H5.33333C4.97971 24.002 4.64057 23.8966 4.39052 23.7091C4.14048 23.5215 4 23.2672 4 23.002C4 22.7367 4.14048 22.4824 4.39052 22.2948C4.64057 22.1073 4.97971 22.002 5.33333 22.002ZM5.33333 27.002H26.6667C27.0203 27.002 27.3594 27.1073 27.6095 27.2948C27.8595 27.4824 28 27.7367 28 28.002C28 28.2672 27.8595 28.5215 27.6095 28.7091C27.3594 28.8966 27.0203 29.002 26.6667 29.002H5.33333C4.97971 29.002 4.64057 28.8966 4.39052 28.7091C4.14048 28.5215 4 28.2672 4 28.002C4 27.7367 4.14048 27.4824 4.39052 27.2948C4.64057 27.1073 4.97971 27.002 5.33333 27.002ZM26.6667 39.002H5.33333C4.97971 39.002 4.64057 38.8966 4.39052 38.7091C4.14048 38.5215 4 38.2672 4 38.002C4 37.7367 4.14048 37.4824 4.39052 37.2948C4.64057 37.1073 4.97971 37.002 5.33333 37.002H26.6667C27.0203 37.002 27.3594 37.1073 27.6095 37.2948C27.8595 37.4824 28 37.7367 28 38.002C28 38.2672 27.8595 38.5215 27.6095 38.7091C27.3594 38.8966 27.0203 39.002 26.6667 39.002ZM5.33333 34.002C4.97971 34.002 4.64057 33.8966 4.39052 33.7091C4.14048 33.5215 4 33.2672 4 33.002C4 32.7367 4.14048 32.4824 4.39052 32.2948C4.64057 32.1073 4.97971 32.002 5.33333 32.002H26.6667C27.0203 32.002 27.3594 32.1073 27.6095 32.2948C27.8595 32.4824 28 32.7367 28 33.002C28 33.2672 27.8595 33.5215 27.6095 33.7091C27.3594 33.8966 27.0203 34.002 26.6667 34.002H5.33333Z" fill="black"/>
</g>
<defs>
<clipPath id="clip0_6013_52389">
<rect width="48" height="48" fill="white" transform="translate(0 0.00195312)"/>
</clipPath>
</defs>
</svg>
