<svg width="48" height="48" viewBox="0 0 48 48" fill="none" xmlns="http://www.w3.org/2000/svg">
<g clip-path="url(#clip0_6013_52393)">
<path d="M26.5727 28.692L20.3898 30.412C20.195 30.4689 19.9925 30.4959 19.7895 30.492C19.4426 30.4916 19.1005 30.411 18.7898 30.2567C18.4792 30.1023 18.2084 29.8782 17.9987 29.602C17.8585 29.4217 17.7502 29.2188 17.6786 29.002H6.00323C5.73789 29.002 5.48342 28.8966 5.2958 28.7091C5.10818 28.5215 5.00277 28.2672 5.00277 28.002C5.00277 27.7367 5.10818 27.4824 5.2958 27.2948C5.48342 27.1073 5.73789 27.002 6.00323 27.002H17.7986L18.9091 23.002H6.00323C5.73789 23.002 5.48342 22.8966 5.2958 22.7091C5.10818 22.5215 5.00277 22.2672 5.00277 22.002C5.00277 21.7367 5.10818 21.4824 5.2958 21.2948C5.48342 21.1073 5.73789 21.002 6.00323 21.002H19.5194C19.6606 20.6809 19.8608 20.3891 20.1097 20.142L23.2511 17.002H6.00323C5.73789 17.002 5.48342 16.8966 5.2958 16.7091C5.10818 16.5215 5.00277 16.2672 5.00277 16.002C5.00277 15.7367 5.10818 15.4824 5.2958 15.2948C5.48342 15.1073 5.73789 15.002 6.00323 15.002H25.2521L30.0142 10.242V7.00195C30.0182 6.87456 29.9971 6.74762 29.952 6.6284C29.9069 6.50918 29.8387 6.40001 29.7514 6.30714C29.664 6.21427 29.5592 6.13951 29.443 6.08715C29.3267 6.03478 29.2013 6.00583 29.0738 6.00195H0.940909C0.81345 6.00583 0.688004 6.03478 0.571745 6.08715C0.455485 6.13951 0.350691 6.21427 0.263352 6.30714C0.176013 6.40001 0.107842 6.50918 0.0627368 6.6284C0.0176313 6.74762 -0.00352467 6.87456 0.000478283 7.00195V47.002C-0.00352467 47.1293 0.0176313 47.2563 0.0627368 47.3755C0.107842 47.4947 0.176013 47.6039 0.263352 47.6968C0.350691 47.7896 0.455485 47.8644 0.571745 47.9168C0.688004 47.9691 0.81345 47.9981 0.940909 48.002H21.0101V42.002C21.0127 41.2071 21.3298 40.4456 21.8921 39.8835C22.4544 39.3215 23.2163 39.0046 24.0115 39.002H30.0142V25.802L27.8933 27.922C27.5269 28.2883 27.072 28.5535 26.5727 28.692ZM13.0064 35.002H6.00323C5.73789 35.002 5.48342 34.8966 5.2958 34.7091C5.10818 34.5215 5.00277 34.2672 5.00277 34.002C5.00277 33.7367 5.10818 33.4824 5.2958 33.2948C5.48342 33.1073 5.73789 33.002 6.00323 33.002H13.0064C13.2718 33.002 13.5262 33.1073 13.7139 33.2948C13.9015 33.4824 14.0069 33.7367 14.0069 34.002C14.0069 34.2672 13.9015 34.5215 13.7139 34.7091C13.5262 34.8966 13.2718 35.002 13.0064 35.002Z" fill="black"/>
<path d="M24.0112 41.002C23.7461 41.0028 23.4921 41.1084 23.3046 41.2957C23.1172 41.4831 23.0115 41.737 23.0107 42.002V48.002L30.014 41.002H24.0112ZM47.1518 1.16196C46.8222 0.796466 46.4194 0.504321 45.9696 0.30448C45.5197 0.10464 45.0329 0.00157059 44.5406 0.00196006C44.0809 0.00104031 43.6257 0.0916461 43.2014 0.26849C42.7771 0.445333 42.3923 0.704872 42.0695 1.03196L30.014 13.072L27.0026 16.082L26.0922 16.992L21.5201 21.562C21.3963 21.6817 21.3095 21.8344 21.2699 22.002L19.7793 27.362L19.5492 28.182C19.5388 28.2187 19.5373 28.2572 19.5445 28.2947C19.5518 28.3321 19.5678 28.3672 19.5911 28.3974C19.6145 28.4275 19.6445 28.4518 19.679 28.4682C19.7134 28.4846 19.7511 28.4928 19.7893 28.492C19.813 28.4928 19.8367 28.4894 19.8593 28.482L19.8893 28.472L26.0421 26.762C26.2054 26.7188 26.354 26.6324 26.4723 26.512L30.014 22.972L46.8817 6.11196C47.544 5.47359 47.94 4.60831 47.9901 3.69003C48.0402 2.77175 47.7407 1.86855 47.1518 1.16196Z" fill="black"/>
</g>
<defs>
<clipPath id="clip0_6013_52393">
<rect width="48" height="48" fill="white" transform="translate(0 0.00195312)"/>
</clipPath>
</defs>
</svg>
