<svg width="48" height="48" viewBox="0 0 48 48" fill="none" xmlns="http://www.w3.org/2000/svg">
<g clip-path="url(#clip0_6013_52397)">
<path d="M38 31.0289C36.2836 30.9803 34.584 31.3781 33.0674 32.1834C31.5508 32.9887 30.2692 34.1738 29.348 35.6229C28.7153 34.8071 27.9044 34.1469 26.9774 33.6927C26.0503 33.2386 25.0316 33.0025 23.9993 33.0026C22.9669 33.0027 21.9483 33.2389 21.0213 33.6933C20.0943 34.1476 19.2835 34.808 18.651 35.6239C17.7298 34.1745 16.4481 32.989 14.9314 32.1836C13.4146 31.3781 11.7147 30.9803 9.998 31.0289C4.298 31.0289 0 35.0929 0 40.4809C0 40.8787 0.158035 41.2602 0.43934 41.5415C0.720644 41.8228 1.10218 41.9809 1.5 41.9809C1.89782 41.9809 2.27936 41.8228 2.56066 41.5415C2.84196 41.2602 3 40.8787 3 40.4809C2.99171 39.3872 3.26294 38.3096 3.78797 37.3502C4.313 36.3908 5.07441 35.5815 6 34.9989V44.0019C6 45.0627 6.42143 46.0802 7.17157 46.8303C7.92172 47.5805 8.93913 48.0019 10 48.0019C11.0609 48.0019 12.0783 47.5805 12.8284 46.8303C13.5786 46.0802 14 45.0627 14 44.0019V35.0019C14.9246 35.5845 15.6851 36.3936 16.2096 37.3524C16.7341 38.3112 17.0051 39.388 16.997 40.4809C16.997 40.8787 17.155 41.2602 17.4363 41.5415C17.7176 41.8228 18.0992 41.9809 18.497 41.9809C18.8948 41.9809 19.2764 41.8228 19.5577 41.5415C19.839 41.2602 19.997 40.8787 19.997 40.4809L19.995 40.4539L19.997 40.4409C19.9942 39.2226 20.3424 38.0294 21 37.0039V41.0039C21 41.7993 21.316 42.5621 21.8784 43.1245C22.4408 43.6869 23.2036 44.0029 23.999 44.0029C24.7944 44.0029 25.5572 43.6869 26.1196 43.1245C26.682 42.5621 26.998 41.7993 26.998 41.0039V37.0029C27.6569 38.029 28.0058 39.2234 28.003 40.4429L28.001 40.4819C28.001 40.8797 28.159 41.2612 28.4403 41.5425C28.7216 41.8238 29.1032 41.9819 29.501 41.9819C29.8988 41.9819 30.2804 41.8238 30.5617 41.5425C30.843 41.2612 31.001 40.8797 31.001 40.4819C31.001 37.9549 32.818 36.0699 34.999 35.0019L33.066 42.0019C32.9214 42.731 32.9404 43.4832 33.1216 44.2041C33.3029 44.925 33.6419 45.5967 34.1143 46.1707C34.5866 46.7447 35.1804 47.2068 35.8529 47.5235C36.5254 47.8402 37.2598 48.0037 38.0032 48.0022C38.7466 48.0007 39.4803 47.8342 40.1515 47.5148C40.8227 47.1953 41.4147 46.7309 41.8847 46.155C42.3547 45.579 42.691 44.906 42.8693 44.1843C43.0476 43.4627 43.0636 42.7104 42.916 41.9819L41 35.0019C43.181 36.0699 44.999 37.9549 44.999 40.4819C44.999 40.8797 45.157 41.2612 45.4383 41.5425C45.7196 41.8238 46.1012 41.9819 46.499 41.9819C46.8968 41.9819 47.2784 41.8238 47.5597 41.5425C47.841 41.2612 47.999 40.8797 47.999 40.4819C47.999 35.0919 43.7 31.0289 38 31.0289Z" fill="black"/>
<path d="M38.001 29.0029C39.6578 29.0029 41.001 27.6598 41.001 26.0029C41.001 24.3461 39.6578 23.0029 38.001 23.0029C36.3441 23.0029 35.001 24.3461 35.001 26.0029C35.001 27.6598 36.3441 29.0029 38.001 29.0029Z" fill="black"/>
<path d="M9.99902 29.0029C11.6559 29.0029 12.999 27.6598 12.999 26.0029C12.999 24.3461 11.6559 23.0029 9.99902 23.0029C8.34217 23.0029 6.99902 24.3461 6.99902 26.0029C6.99902 27.6598 8.34217 29.0029 9.99902 29.0029Z" fill="black"/>
<path d="M21.4941 28.4969C21.4941 28.9923 21.641 29.4766 21.9163 29.8885C22.1916 30.3004 22.5828 30.6215 23.0405 30.8111C23.4983 31.0007 24.002 31.0503 24.4879 30.9536C24.9738 30.857 25.4202 30.6184 25.7705 30.2681C26.1209 29.9178 26.3594 29.4714 26.4561 28.9855C26.5528 28.4996 26.5032 27.996 26.3135 27.5383C26.1239 27.0806 25.8029 26.6894 25.3909 26.4141C24.979 26.1389 24.4946 25.992 23.9992 25.992C23.3348 25.992 22.6976 26.2559 22.2278 26.7256C21.7581 27.1954 21.4941 27.8325 21.4941 28.4969ZM12.0239 15.0514C12.0145 15.0959 12.0082 15.141 12.0049 15.1864C11.9979 15.2797 12.0002 15.3735 12.0119 15.4664C12.0235 15.5283 12.0448 15.5881 12.0749 15.6434C12.1409 15.7596 12.2416 15.8523 12.3629 15.9084C12.4188 15.9394 12.4792 15.9614 12.5419 15.9734C12.6098 15.9899 12.6792 15.9993 12.7489 16.0014C12.8303 15.9954 12.9096 15.973 12.982 15.9354C13.0793 15.8754 13.1713 15.8071 13.257 15.7314C13.368 15.6514 15 14.0035 15 14.0035H25.0002L23.0392 22.4931L23.0372 22.4991V22.5031C23.0352 22.5131 23.0335 22.5238 23.0322 22.5351C23.0166 22.6075 23.0072 22.6811 23.0042 22.7551L23.0052 22.7741C23.0038 22.8501 23.0092 22.926 23.0212 23.0011L23.0282 23.0261C23.0413 23.0976 23.0603 23.1678 23.0852 23.2361L23.0982 23.2631C23.1243 23.3289 23.1557 23.3924 23.1922 23.4531C23.2002 23.4651 23.2085 23.4767 23.2172 23.4881C23.2531 23.5437 23.2932 23.5965 23.3372 23.6461C23.3572 23.6691 23.3842 23.6881 23.4072 23.7101C23.4411 23.745 23.4775 23.7774 23.5162 23.8071C23.5653 23.8448 23.6179 23.878 23.6732 23.9061C23.6862 23.9131 23.6852 23.9171 23.6992 23.923L23.7502 23.943C23.7871 23.958 23.8248 23.9706 23.8632 23.981C23.8921 23.988 23.9215 23.9923 23.9512 23.994C23.9782 23.9989 24.0057 24.0009 24.0332 24C24.0872 24.003 24.1032 24 24.1572 24.001C24.2519 24.0008 24.3465 23.9937 24.4402 23.98C24.4824 23.9737 24.5241 23.9647 24.5652 23.953C24.5982 23.943 24.6392 23.928 24.6722 23.9151C24.7101 23.9023 24.7471 23.8873 24.7832 23.8701C24.8179 23.8554 24.8519 23.8387 24.8852 23.8201C24.9198 23.8007 24.9532 23.7794 24.9852 23.7561C25.0172 23.7321 25.0502 23.7021 25.0802 23.6741C25.1161 23.6444 25.1498 23.6124 25.1812 23.5781C25.2032 23.5531 25.2242 23.5201 25.2442 23.4931C25.288 23.4325 25.3265 23.3683 25.3592 23.3011C25.3639 23.2937 25.3682 23.2864 25.3722 23.2791L25.3732 23.2771L25.3782 23.2681L30.0003 14.0035H35.0004C35.5245 13.9837 36.0218 13.7666 36.3927 13.3958C36.7636 13.0249 36.9807 12.5276 37.0005 12.0035C36.9922 11.4846 36.7859 10.9884 36.4238 10.6166C36.0616 10.2448 35.571 10.0255 35.0524 10.0036H30.0003L25.3662 0.731017L25.3632 0.724017L25.3622 0.721017L25.3392 0.684019C25.3086 0.622307 25.2732 0.563123 25.2332 0.507026C25.2112 0.477028 25.1842 0.452029 25.1602 0.42403C25.1324 0.389403 25.1023 0.356665 25.0702 0.326034C25.0376 0.297842 25.0032 0.271789 24.9672 0.248037C24.9372 0.224038 24.9065 0.201372 24.8752 0.18004C24.8399 0.160707 24.8032 0.143042 24.7652 0.127042C24.7299 0.10771 24.6932 0.0900437 24.6552 0.0740444C24.6202 0.0610449 24.5832 0.0540452 24.5472 0.0440456C24.5056 0.0306158 24.4632 0.0199267 24.4202 0.012047C24.3792 0.00604722 24.3372 0.00604722 24.2952 0.0040473C24.2746 0.00190611 24.2538 0.00190611 24.2332 0.0040473C24.1735 0.00222487 24.1137 0.00422889 24.0542 0.0100471C24.0292 0.0140469 24.0042 0.0140469 23.9782 0.0200466L23.9752 0.0210466L23.9402 0.0320461C23.8741 0.0499301 23.8096 0.0730008 23.7472 0.101043L23.7302 0.107043C23.7202 0.111043 23.7152 0.118043 23.7062 0.122042C23.6095 0.169976 23.5191 0.229767 23.4372 0.300035L23.4192 0.314034C23.3431 0.385701 23.2759 0.466279 23.2192 0.554024L23.1852 0.605022C23.133 0.692825 23.0914 0.786467 23.0612 0.884011L23.0472 0.938008C23.0198 1.04016 23.005 1.14527 23.0032 1.251V1.252C23.0037 1.34621 23.0144 1.44009 23.0352 1.53198L23.0362 1.54198L25.0002 10.0036H15C15 10.0036 13.206 8.19871 13.115 8.12371C12.9924 8.04202 12.8471 8.00108 12.6999 8.00671C12.6615 8.00555 12.6231 8.00992 12.5859 8.01971L12.5039 8.03871C12.401 8.07513 12.3047 8.12817 12.2189 8.19571C12.1861 8.22826 12.1544 8.26195 12.1239 8.2967C12.1241 8.29757 12.124 8.29846 12.1238 8.29931C12.1236 8.30015 12.1231 8.30094 12.1226 8.30161C12.122 8.30228 12.1213 8.30281 12.1205 8.30317C12.1197 8.30353 12.1188 8.30371 12.1179 8.3037C12.0831 8.3564 12.0555 8.41359 12.0359 8.47369C12.016 8.53717 12.0052 8.60317 12.0039 8.66969C12.0023 8.70407 12.0036 8.73853 12.0079 8.77268L12.0279 8.85468L12.0399 8.89268L13 12.0045L12.0399 14.9884L12.0239 15.0514Z" fill="black"/>
</g>
<defs>
<clipPath id="clip0_6013_52397">
<rect width="48" height="48" fill="white" transform="translate(0 0.00195312)"/>
</clipPath>
</defs>
</svg>
