<svg width="48" height="48" viewBox="0 0 48 48" fill="none" xmlns="http://www.w3.org/2000/svg">
<g clip-path="url(#clip0_6013_52403)">
<path d="M46.68 1.32206C46.1822 0.823256 45.5742 0.448446 44.9049 0.227873C44.2356 0.00729911 43.5238 -0.0528618 42.827 0.0522439C42.1302 0.15735 41.4679 0.424779 40.8934 0.832954C40.319 1.24113 39.8485 1.77862 39.52 2.40206C40.4394 3.11009 41.1453 4.05828 41.56 5.14206C41.8716 5.93824 42.0223 6.78829 42.0035 7.64307C41.9846 8.49785 41.7965 9.34042 41.45 10.1221L39 15.6321V43.5021C39 44.6955 39.4741 45.8401 40.318 46.684C41.1619 47.528 42.3065 48.0021 43.5 48.0021C44.6935 48.0021 45.8381 47.528 46.682 46.684C47.5259 45.8401 48 44.6955 48 43.5021V4.50206C48.0017 3.91098 47.8858 3.32546 47.6592 2.77955C47.4326 2.23363 47.0998 1.7382 46.68 1.32206Z" fill="black"/>
<path d="M39.6196 9.31201C40.0996 8.21932 40.126 6.98068 39.6927 5.86859C39.2595 4.7565 38.4023 3.86205 37.3096 3.38201C36.2169 2.90197 34.9783 2.87566 33.8662 3.30887C32.7541 3.74207 31.8596 4.59932 31.3796 5.69201L30.9196 6.73201C32.0514 7.73659 32.7738 9.12266 32.949 10.6258C33.1243 12.129 32.74 13.644 31.8696 14.882L18.7096 34.202L15.3796 41.682C14.8992 42.7761 14.8726 44.0162 15.3057 45.1299C15.7388 46.2436 16.5962 47.1399 17.6896 47.622C18.261 47.8699 18.8768 47.9992 19.4996 48.002C20.3731 48.0008 21.2274 47.7459 21.9588 47.2684C22.6901 46.7908 23.2671 46.1112 23.6196 45.312L38.9996 10.712L39.6196 9.31201Z" fill="black"/>
<path d="M20.12 28.5821L23.25 23.9921L30.22 13.7621C30.8388 12.8616 31.0864 11.7571 30.9113 10.6786C30.7362 9.60006 30.1519 8.63063 29.28 7.9721C29.2004 7.8967 29.1133 7.82968 29.02 7.7721C28.8292 7.64324 28.6286 7.52956 28.42 7.4321C27.4346 6.97454 26.3197 6.87808 25.2703 7.15962C24.221 7.44115 23.3041 8.08274 22.68 8.9721L0.780022 40.9721C0.2713 41.714 -0.000651428 42.5926 2.24538e-05 43.4921C-0.00302248 44.4557 0.303695 45.3948 0.874939 46.1709C1.44618 46.947 2.25171 47.5189 3.17272 47.8024C4.09372 48.0859 5.08145 48.0659 5.99022 47.7453C6.89898 47.4248 7.68068 46.8207 8.22002 46.0221L16.95 33.2121L20.12 28.5821Z" fill="black"/>
</g>
<defs>
<clipPath id="clip0_6013_52403">
<rect width="48" height="48" fill="white" transform="translate(0 0.00195312)"/>
</clipPath>
</defs>
</svg>
