<svg width="48" height="48" viewBox="0 0 48 48" fill="none" xmlns="http://www.w3.org/2000/svg">
<g clip-path="url(#clip0_6013_52411)">
<path d="M2.5 26.002C3.16304 26.002 3.79893 25.7386 4.26777 25.2698C4.73661 24.801 5 24.1651 5 23.502C5.00967 21.9612 5.32682 20.4379 5.93285 19.0213C6.53888 17.6046 7.42159 16.3232 8.52926 15.2522C9.63692 14.1811 10.9473 13.3419 12.3834 12.7838C13.8196 12.2257 15.3528 11.9599 16.893 12.002H39.469L36.728 14.743C36.4892 14.9736 36.2988 15.2495 36.1677 15.5545C36.0367 15.8595 35.9678 16.1876 35.9649 16.5195C35.962 16.8515 36.0252 17.1807 36.1509 17.4879C36.2766 17.7952 36.4623 18.0743 36.697 18.309C36.9317 18.5437 37.2109 18.7294 37.5181 18.8551C37.8254 18.9808 38.1546 19.044 38.4865 19.0412C38.8185 19.0383 39.1465 18.9693 39.4515 18.8383C39.7565 18.7073 40.0324 18.5168 40.263 18.278L47.268 11.274C47.7367 10.8052 48 10.1694 48 9.50653C48 8.84362 47.7367 8.20785 47.268 7.73903L40.263 0.734029C39.7934 0.268646 39.1586 0.00823193 38.4974 0.00977242C37.8363 0.0113129 37.2027 0.274682 36.7352 0.742249C36.2678 1.20982 36.0046 1.8435 36.0032 2.50465C36.0019 3.16579 36.2625 3.80055 36.728 4.27003L39.459 7.00203H16.893C14.6941 6.95237 12.5073 7.34232 10.4611 8.14901C8.41488 8.9557 6.55034 10.1629 4.97687 11.6998C3.40339 13.2366 2.15266 15.0722 1.29803 17.0989C0.443408 19.1256 0.00210209 21.3025 0 23.502C0 24.1651 0.263392 24.801 0.732233 25.2698C1.20107 25.7386 1.83696 26.002 2.5 26.002ZM40.263 22.734C39.7934 22.2686 39.1586 22.0082 38.4974 22.0098C37.8363 22.0113 37.2027 22.2747 36.7352 22.7422C36.2678 23.2098 36.0046 23.8435 36.0032 24.5046C36.0019 25.1658 36.2625 25.8006 36.728 26.27L39.459 29.002H16.893C14.6941 28.9524 12.5073 29.3423 10.4611 30.149C8.41488 30.9557 6.55034 32.1629 4.97687 33.6998C3.40339 35.2366 2.15266 37.0722 1.29803 39.0989C0.443408 41.1256 0.00210209 43.3025 0 45.502C0 46.1651 0.263392 46.801 0.732233 47.2698C1.20107 47.7386 1.83696 48.002 2.5 48.002C3.16304 48.002 3.79893 47.7386 4.26777 47.2698C4.73661 46.801 5 46.1651 5 45.502C5.00967 43.9612 5.32682 42.4379 5.93285 41.0213C6.53888 39.6046 7.42159 38.3232 8.52926 37.2522C9.63692 36.1811 10.9473 35.3419 12.3834 34.7838C13.8196 34.2257 15.3528 33.9599 16.893 34.002H39.469L36.728 36.743C36.4892 36.9736 36.2988 37.2495 36.1677 37.5545C36.0367 37.8595 35.9678 38.1876 35.9649 38.5195C35.962 38.8515 36.0252 39.1807 36.1509 39.4879C36.2766 39.7952 36.4623 40.0743 36.697 40.309C36.9317 40.5438 37.2109 40.7294 37.5181 40.8551C37.8254 40.9808 38.1546 41.044 38.4865 41.0412C38.8185 41.0383 39.1465 40.9693 39.4515 40.8383C39.7565 40.7073 40.0324 40.5168 40.263 40.278L47.268 33.274C47.7367 32.8052 48 32.1694 48 31.5065C48 30.8436 47.7367 30.2078 47.268 29.739L40.263 22.734Z" fill="black"/>
</g>
<defs>
<clipPath id="clip0_6013_52411">
<rect width="48" height="48" fill="white" transform="translate(0 0.00195312)"/>
</clipPath>
</defs>
</svg>
