<svg width="48" height="43" viewBox="0 0 48 43" fill="none" xmlns="http://www.w3.org/2000/svg">
<g clip-path="url(#clip0_6013_52408)">
<path d="M19 26.606V40.006C19.0001 40.3993 18.9228 40.7889 18.7723 41.1524C18.6219 41.5159 18.4013 41.8462 18.1231 42.1244C17.845 42.4026 17.5148 42.6233 17.1514 42.7739C16.7879 42.9244 16.3984 43.002 16.005 43.002H2.995C2.20068 43.002 1.43889 42.6864 0.877215 42.1247C0.315544 41.5631 0 40.8013 0 40.007L0 20.569C-3.96351e-09 18.3933 0.428551 16.2389 1.26118 14.2288C2.09382 12.2187 3.31422 10.3924 4.85272 8.85396C6.39121 7.31556 8.21766 6.09526 10.2278 5.26275C12.2379 4.43024 14.3923 4.00182 16.568 4.00195C16.8875 4.00169 17.204 4.06445 17.4992 4.18664C17.7945 4.30883 18.0627 4.48805 18.2886 4.71404C18.5145 4.94003 18.6936 5.20835 18.8157 5.50365C18.9378 5.79895 19.0004 6.11542 19 6.43495V15.255L13.475 20.82L10.828 18.174C10.0736 17.4453 9.06318 17.0421 8.01439 17.0513C6.96561 17.0604 5.96236 17.481 5.22073 18.2227C4.47909 18.9643 4.05842 19.9676 4.0493 21.0163C4.04019 22.0651 4.44337 23.0755 5.172 23.83L7.838 26.496L6.173 28.173C5.79123 28.5422 5.48682 28.9838 5.27754 29.472C5.06825 29.9601 4.95829 30.4851 4.95405 31.0162C4.94981 31.5473 5.0514 32.074 5.25287 32.5654C5.45434 33.0568 5.75166 33.5032 6.1275 33.8785C6.50333 34.2538 6.95014 34.5505 7.44186 34.7513C7.93359 34.9521 8.46037 35.0529 8.99148 35.0479C9.52259 35.0429 10.0474 34.9322 10.5353 34.7223C11.0231 34.5123 11.4643 34.2072 11.833 33.825L19 26.606ZM31.433 4.00195C31.1134 4.00156 30.7968 4.06422 30.5015 4.18635C30.2061 4.30848 29.9377 4.48768 29.7117 4.71368C29.4857 4.93969 29.3065 5.20805 29.1844 5.50342C29.0623 5.79878 28.9996 6.11534 29 6.43495V15.345L34.5 20.845L37.172 18.174C37.541 17.7919 37.9824 17.4872 38.4704 17.2775C38.9584 17.0679 39.4833 16.9576 40.0144 16.953C40.5455 16.9483 41.0722 17.0495 41.5638 17.2507C42.0554 17.4518 42.502 17.7488 42.8776 18.1244C43.2532 18.4999 43.5502 18.9466 43.7513 19.4381C43.9524 19.9297 44.0536 20.4564 44.049 20.9876C44.0444 21.5187 43.934 22.0436 43.7244 22.5316C43.5148 23.0196 43.21 23.461 42.828 23.83L40.156 26.502L41.828 28.174C42.21 28.5429 42.5148 28.9843 42.7244 29.4723C42.934 29.9604 43.0444 30.4852 43.049 31.0163C43.0536 31.5475 42.9524 32.0742 42.7513 32.5658C42.5502 33.0574 42.2532 33.504 41.8776 33.8795C41.502 34.2551 41.0554 34.5521 40.5638 34.7532C40.0722 34.9544 39.5455 35.0556 39.0144 35.051C38.4833 35.0463 37.9584 34.936 37.4704 34.7264C36.9824 34.5167 36.541 34.212 36.172 33.83L29 26.659V40.007C29 40.8013 29.3155 41.5631 29.8772 42.1247C30.4389 42.6864 31.2007 43.002 31.995 43.002H45.005C45.7993 43.002 46.5611 42.6864 47.1228 42.1247C47.6845 41.5631 48 40.8013 48 40.007V20.569C48 16.1751 46.2546 11.9612 43.1476 8.85431C40.0407 5.7474 35.8268 4.00195 31.433 4.00195ZM41.414 19.588C41.0389 19.213 40.5303 19.0024 40 19.0024C39.4697 19.0024 38.9611 19.213 38.586 19.588L34.5 23.674L26 15.174V2.00195C26 1.47152 25.7893 0.962812 25.4142 0.58774C25.0391 0.212667 24.5304 0.00195313 24 0.00195312C23.4696 0.00195313 22.9609 0.212667 22.5858 0.58774C22.2107 0.962812 22 1.47152 22 2.00195V15.072L13.48 23.653L9.414 19.588C9.0368 19.2236 8.53159 19.022 8.0072 19.0266C7.4828 19.0312 6.98118 19.2415 6.61036 19.6123C6.23955 19.9831 6.02921 20.4848 6.02465 21.0092C6.0201 21.5335 6.22168 22.0387 6.586 22.416L10.661 26.491L7.586 29.588C7.22168 29.9652 7.0201 30.4704 7.02465 30.9948C7.02921 31.5191 7.23955 32.0208 7.61036 32.3916C7.98118 32.7624 8.4828 32.9727 9.0072 32.9773C9.53159 32.9819 10.0368 32.7803 10.414 32.416L23.95 18.78L37.586 32.416C37.9632 32.7803 38.4684 32.9819 38.9928 32.9773C39.5172 32.9727 40.0188 32.7624 40.3896 32.3916C40.7605 32.0208 40.9708 31.5191 40.9753 30.9948C40.9799 30.4704 40.7783 29.9652 40.414 29.588L37.328 26.502L41.414 22.416C41.7889 22.0409 41.9996 21.5323 41.9996 21.002C41.9996 20.4716 41.7889 19.963 41.414 19.588Z" fill="black"/>
</g>
<defs>
<clipPath id="clip0_6013_52408">
<rect width="48" height="43" fill="white" transform="translate(0 0.00195312)"/>
</clipPath>
</defs>
</svg>
