<svg width="48" height="48" viewBox="0 0 48 48" fill="none" xmlns="http://www.w3.org/2000/svg">
<g clip-path="url(#clip0_6013_52414)">
<path d="M41.1427 48.0021C39.3243 48.0018 37.5804 47.5803 36.2947 46.8301L2.00902 26.8301C1.37224 26.4586 0.867117 26.0177 0.522491 25.5323C0.177865 25.047 0.000488281 24.5269 0.000488281 24.0016C0.000488281 23.4763 0.177865 22.9561 0.522491 22.4708C0.867117 21.9855 1.37224 21.5445 2.00902 21.1731L36.2947 1.17307C37.5807 0.422903 39.3249 0.00146484 41.1436 0.00146484C42.9623 0.00146485 44.7065 0.422903 45.9925 1.17307C47.2785 1.92323 48.0009 2.94067 48.0009 4.00157C48.0009 5.06246 47.2785 6.0799 45.9925 6.83007L16.5547 24.0021L45.9925 41.1721C46.9524 41.7314 47.6063 42.4444 47.8714 43.2206C48.1365 43.9968 48.0009 44.8015 47.4816 45.5328C46.9624 46.264 46.0829 46.889 44.9545 47.3285C43.8262 47.7681 42.4996 48.0025 41.1427 48.0021Z" fill="black"/>
</g>
<defs>
<clipPath id="clip0_6013_52414">
<rect width="48" height="48" fill="white" transform="translate(0 0.00195312)"/>
</clipPath>
</defs>
</svg>
