<svg width="48" height="29" viewBox="0 0 48 29" fill="none" xmlns="http://www.w3.org/2000/svg">
<g clip-path="url(#clip0_6013_52416)">
<path d="M5.5 13.002H7.5C7.89782 13.002 8.27936 12.8439 8.56066 12.5626C8.84196 12.2813 9 11.8998 9 11.502C9 11.1041 8.84196 10.7226 8.56066 10.4413C8.27936 10.16 7.89782 10.002 7.5 10.002H5.5C5.10218 10.002 4.72064 10.16 4.43934 10.4413C4.15804 10.7226 4 11.1041 4 11.502C4 11.8998 4.15804 12.2813 4.43934 12.5626C4.72064 12.8439 5.10218 13.002 5.5 13.002ZM12.5 13.002H14.5C14.8978 13.002 15.2794 12.8439 15.5607 12.5626C15.842 12.2813 16 11.8998 16 11.502C16 11.1041 15.842 10.7226 15.5607 10.4413C15.2794 10.16 14.8978 10.002 14.5 10.002H12.5C12.1022 10.002 11.7206 10.16 11.4393 10.4413C11.158 10.7226 11 11.1041 11 11.502C11 11.8998 11.158 12.2813 11.4393 12.5626C11.7206 12.8439 12.1022 13.002 12.5 13.002ZM19.5 13.002H21.5C21.8978 13.002 22.2794 12.8439 22.5607 12.5626C22.842 12.2813 23 11.8998 23 11.502C23 11.1041 22.842 10.7226 22.5607 10.4413C22.2794 10.16 21.8978 10.002 21.5 10.002H19.5C19.1022 10.002 18.7206 10.16 18.4393 10.4413C18.158 10.7226 18 11.1041 18 11.502C18 11.8998 18.158 12.2813 18.4393 12.5626C18.7206 12.8439 19.1022 13.002 19.5 13.002ZM26.5 13.002H28.5C28.8978 13.002 29.2794 12.8439 29.5607 12.5626C29.842 12.2813 30 11.8998 30 11.502C30 11.1041 29.842 10.7226 29.5607 10.4413C29.2794 10.16 28.8978 10.002 28.5 10.002H26.5C26.1022 10.002 25.7206 10.16 25.4393 10.4413C25.158 10.7226 25 11.1041 25 11.502C25 11.8998 25.158 12.2813 25.4393 12.5626C25.7206 12.8439 26.1022 13.002 26.5 13.002ZM33.5 13.002H35.5C35.8978 13.0021 36.2794 12.8442 36.5608 12.563C36.8422 12.2818 37.0004 11.9003 37.0005 11.5025C37.0006 11.1046 36.8427 10.723 36.5615 10.4416C36.2803 10.1602 35.8988 10.0021 35.501 10.002H33.501C33.304 10.0019 33.109 10.0406 32.9269 10.1159C32.7449 10.1913 32.5795 10.3017 32.4402 10.4409C32.3009 10.5802 32.1903 10.7455 32.1149 10.9275C32.0394 11.1094 32.0006 11.3045 32.0005 11.5015C32.0004 11.6984 32.0392 11.8935 32.1145 12.0755C32.1898 12.2575 32.3002 12.4229 32.4395 12.5623C32.5787 12.7016 32.744 12.8121 32.926 12.8876C33.108 12.963 33.303 13.0019 33.5 13.002ZM12.5 8.00195H14.5C14.8978 8.00195 15.2794 7.84392 15.5607 7.56261C15.842 7.28131 16 6.89978 16 6.50195C16 6.10413 15.842 5.7226 15.5607 5.44129C15.2794 5.15999 14.8978 5.00195 14.5 5.00195H12.5C12.1022 5.00195 11.7206 5.15999 11.4393 5.44129C11.158 5.7226 11 6.10413 11 6.50195C11 6.89978 11.158 7.28131 11.4393 7.56261C11.7206 7.84392 12.1022 8.00195 12.5 8.00195ZM19.5 8.00195H21.5C21.8978 8.00195 22.2794 7.84392 22.5607 7.56261C22.842 7.28131 23 6.89978 23 6.50195C23 6.10413 22.842 5.7226 22.5607 5.44129C22.2794 5.15999 21.8978 5.00195 21.5 5.00195H19.5C19.1022 5.00195 18.7206 5.15999 18.4393 5.44129C18.158 5.7226 18 6.10413 18 6.50195C18 6.89978 18.158 7.28131 18.4393 7.56261C18.7206 7.84392 19.1022 8.00195 19.5 8.00195ZM26.5 8.00195H28.5C28.8978 8.00195 29.2794 7.84392 29.5607 7.56261C29.842 7.28131 30 6.89978 30 6.50195C30 6.10413 29.842 5.7226 29.5607 5.44129C29.2794 5.15999 28.8978 5.00195 28.5 5.00195H26.5C26.1022 5.00195 25.7206 5.15999 25.4393 5.44129C25.158 5.7226 25 6.10413 25 6.50195C25 6.89978 25.158 7.28131 25.4393 7.56261C25.7206 7.84392 26.1022 8.00195 26.5 8.00195ZM19.5 3.00195H21.5C21.8978 3.00195 22.2794 2.84392 22.5607 2.56261C22.842 2.28131 23 1.89978 23 1.50195C23 1.10413 22.842 0.722597 22.5607 0.441293C22.2794 0.159988 21.8978 0.00195313 21.5 0.00195313L19.5 0.00195312C19.1022 0.00195313 18.7206 0.159988 18.4393 0.441293C18.158 0.722597 18 1.10413 18 1.50195C18 1.89978 18.158 2.28131 18.4393 2.56261C18.7206 2.84392 19.1022 3.00195 19.5 3.00195ZM26.5 3.00195H28.5C28.8978 3.00195 29.2794 2.84392 29.5607 2.56261C29.842 2.28131 30 1.89978 30 1.50195C30 1.10413 29.842 0.722597 29.5607 0.441293C29.2794 0.159988 28.8978 0.00195313 28.5 0.00195313L26.5 0.00195312C26.1022 0.00195313 25.7206 0.159988 25.4393 0.441293C25.158 0.722597 25 1.10413 25 1.50195C25 1.89978 25.158 2.28131 25.4393 2.56261C25.7206 2.84392 26.1022 3.00195 26.5 3.00195ZM33.5 8.00195H35.5C35.8978 8.00209 36.2794 7.84418 36.5608 7.56297C36.8422 7.28176 37.0004 6.90028 37.0005 6.50245C37.0006 6.10463 36.8427 5.72304 36.5615 5.44165C36.2803 5.16025 35.8988 5.00209 35.501 5.00195H33.501C33.304 5.00189 33.109 5.04062 32.9269 5.11594C32.7449 5.19126 32.5795 5.3017 32.4402 5.44094C32.3009 5.58018 32.1903 5.7455 32.1149 5.92747C32.0394 6.10943 32.0006 6.30447 32.0005 6.50145C32.0004 6.69844 32.0392 6.8935 32.1145 7.07552C32.1898 7.25753 32.3002 7.42293 32.4395 7.56226C32.5787 7.70159 32.744 7.81214 32.926 7.88758C33.108 7.96302 33.303 8.00189 33.5 8.00195ZM40.5 13.002H42.5C42.8978 13.0021 43.2794 12.8442 43.5608 12.563C43.8422 12.2818 44.0004 11.9003 44.0005 11.5025C44.0006 11.1046 43.8427 10.723 43.5615 10.4416C43.2803 10.1602 42.8988 10.0021 42.501 10.002H40.501C40.304 10.0019 40.109 10.0406 39.9269 10.1159C39.7449 10.1913 39.5795 10.3017 39.4402 10.4409C39.3009 10.5802 39.1903 10.7455 39.1149 10.9275C39.0394 11.1094 39.0006 11.3045 39.0005 11.5015C39.0004 11.6984 39.0392 11.8935 39.1145 12.0755C39.1898 12.2575 39.3002 12.4229 39.4395 12.5623C39.5787 12.7016 39.744 12.8121 39.926 12.8876C40.108 12.963 40.303 13.0019 40.5 13.002ZM47 15.002H1C0.734784 15.002 0.48043 15.1073 0.292893 15.2948C0.105357 15.4824 0 15.7367 0 16.002C0 19.4498 1.36964 22.7564 3.80761 25.1943C6.24558 27.6323 9.55219 29.002 13 29.002H35C38.4478 29.002 41.7544 27.6323 44.1924 25.1943C46.6304 22.7564 48 19.4498 48 16.002C48 15.7367 47.8946 15.4824 47.7071 15.2948C47.5196 15.1073 47.2652 15.002 47 15.002Z" fill="black"/>
</g>
<defs>
<clipPath id="clip0_6013_52416">
<rect width="48" height="29" fill="white" transform="translate(0 0.00195312)"/>
</clipPath>
</defs>
</svg>
