<svg width="48" height="48" viewBox="0 0 48 48" fill="none" xmlns="http://www.w3.org/2000/svg">
<g clip-path="url(#clip0_6013_52419)">
<path d="M20 10.002C20 8.02415 19.4135 6.09075 18.3147 4.44626C17.2159 2.80176 15.6541 1.52004 13.8268 0.763162C11.9996 0.00628597 9.98891 -0.191747 8.0491 0.194105C6.10929 0.579957 4.32746 1.53236 2.92894 2.93089C1.53041 4.32941 0.578004 6.11125 0.192152 8.05105C-0.193701 9.99086 0.00433284 12.0015 0.761209 13.8288C1.51809 15.6561 2.79981 17.2178 4.4443 18.3167C6.08879 19.4155 8.02219 20.002 10 20.002C12.6518 20.0009 15.1948 18.947 17.0699 17.0719C18.945 15.1967 19.9989 12.6538 20 10.002ZM10 17.002C9.80222 17.002 9.60888 16.9433 9.44443 16.8334C9.27999 16.7235 9.15181 16.5674 9.07613 16.3846C9.00044 16.2019 8.98063 16.0008 9.01922 15.8069C9.05781 15.6129 9.15305 15.4347 9.2929 15.2949C9.43275 15.155 9.61093 15.0598 9.80491 15.0212C9.9989 14.9826 10.2 15.0024 10.3827 15.0781C10.5654 15.1538 10.7216 15.2819 10.8315 15.4464C10.9414 15.6108 11 15.8042 11 16.002C10.9992 16.2669 10.8936 16.5208 10.7062 16.7082C10.5189 16.8956 10.265 17.0012 10 17.002ZM11 12.002C11 12.2672 10.8946 12.5215 10.7071 12.7091C10.5196 12.8966 10.2652 13.002 10 13.002C9.73479 13.002 9.48043 12.8966 9.2929 12.7091C9.10536 12.5215 9 12.2672 9 12.002V4.00196C9 3.73674 9.10536 3.48239 9.2929 3.29485C9.48043 3.10731 9.73479 3.00196 10 3.00196C10.2652 3.00196 10.5196 3.10731 10.7071 3.29485C10.8946 3.48239 11 3.73674 11 4.00196V12.002Z" fill="black"/>
<path d="M18.3 0.00195312C19.9502 1.37028 21.2362 3.12567 22.0434 5.11163C22.8506 7.09759 23.1538 9.25241 22.9261 11.384C22.6984 13.5156 21.9468 15.5577 20.7383 17.3284C19.5298 19.099 17.902 20.5431 16 21.532V48.002H48V0.00195312H18.3ZM34 42.002C34 42.5324 33.7893 43.0411 33.4142 43.4162C33.0391 43.7912 32.5304 44.002 32 44.002C31.4696 44.002 30.9609 43.7912 30.5858 43.4162C30.2107 43.0411 30 42.5324 30 42.002V36.002C30.0016 35.472 30.2128 34.9642 30.5875 34.5895C30.9623 34.2148 31.4701 34.0035 32 34.002C32.5292 34.0059 33.0356 34.2179 33.4099 34.5921C33.7841 34.9663 33.9961 35.4727 34 36.002V42.002ZM34 27.002C34 27.5324 33.7893 28.0411 33.4142 28.4162C33.0391 28.7912 32.5304 29.002 32 29.002C31.4696 29.002 30.9609 28.7912 30.5858 28.4162C30.2107 28.0411 30 27.5324 30 27.002V21.002C30.0016 20.472 30.2128 19.9642 30.5875 19.5895C30.9623 19.2148 31.4701 19.0035 32 19.002C32.5292 19.0059 33.0356 19.2179 33.4099 19.5921C33.7841 19.9663 33.9961 20.4727 34 21.002V27.002ZM34 12.002C34 12.5324 33.7893 13.0411 33.4142 13.4162C33.0391 13.7912 32.5304 14.002 32 14.002C31.4696 14.002 30.9609 13.7912 30.5858 13.4162C30.2107 13.0411 30 12.5324 30 12.002V6.00195C30.0016 5.47201 30.2128 4.96422 30.5875 4.58949C30.9623 4.21476 31.4701 4.00354 32 4.00195C32.5292 4.00588 33.0356 4.21785 33.4099 4.59208C33.7841 4.9663 33.9961 5.47273 34 6.00195V12.002Z" fill="black"/>
</g>
<defs>
<clipPath id="clip0_6013_52419">
<rect width="48" height="48" fill="white" transform="translate(0 0.00195312)"/>
</clipPath>
</defs>
</svg>
