<svg width="48" height="48" viewBox="0 0 48 48" fill="none" xmlns="http://www.w3.org/2000/svg">
<g clip-path="url(#clip0_6013_52442)">
<path d="M0 0.00195312V48.002H48V0.00195312H0ZM27 42.002C27 42.5324 26.6839 43.0411 26.1213 43.4162C25.5587 43.7912 24.7956 44.002 24 44.002C23.2044 44.002 22.4413 43.7912 21.8787 43.4162C21.3161 43.0411 21 42.5324 21 42.002V36.002C21.0024 35.472 21.3192 34.9642 21.8813 34.5895C22.4434 34.2148 23.2051 34.0035 24 34.002C24.794 34.0056 25.5538 34.2175 26.1152 34.5918C26.6767 34.9661 26.9945 35.4727 27 36.002V42.002ZM27 27.002C27 27.5324 26.6839 28.0411 26.1213 28.4162C25.5587 28.7912 24.7956 29.002 24 29.002C23.2044 29.002 22.4413 28.7912 21.8787 28.4162C21.3161 28.0411 21 27.5324 21 27.002V21.002C21.0024 20.472 21.3192 19.9642 21.8813 19.5895C22.4434 19.2148 23.2051 19.0035 24 19.002C24.794 19.0056 25.5538 19.2175 26.1152 19.5918C26.6767 19.9661 26.9945 20.4727 27 21.002V27.002ZM27 12.002C27 12.5324 26.6839 13.0411 26.1213 13.4162C25.5587 13.7912 24.7956 14.002 24 14.002C23.2044 14.002 22.4413 13.7912 21.8787 13.4162C21.3161 13.0411 21 12.5324 21 12.002V6.00195C21.0024 5.47201 21.3192 4.96422 21.8813 4.58949C22.4434 4.21476 23.2051 4.00354 24 4.00195C24.794 4.00562 25.5538 4.21751 26.1152 4.59179C26.6767 4.96607 26.9945 5.47265 27 6.00195V12.002Z" fill="black"/>
</g>
<defs>
<clipPath id="clip0_6013_52442">
<rect width="48" height="48" fill="white" transform="translate(0 0.00195312)"/>
</clipPath>
</defs>
</svg>
