<svg width="48" height="48" viewBox="0 0 48 48" fill="none" xmlns="http://www.w3.org/2000/svg">
<g clip-path="url(#clip0_6013_52430)">
<path d="M10 5.00195C9.20459 5.00275 8.44199 5.31907 7.87956 5.88151C7.31712 6.44395 7.00079 7.20655 7 8.00195H13C12.9992 7.20655 12.6829 6.44395 12.1204 5.88151C11.558 5.31907 10.7954 5.00275 10 5.00195ZM18.3 0.00195312C19.9502 1.37028 21.2362 3.12567 22.0434 5.11163C22.8506 7.09759 23.1538 9.25241 22.9261 11.384C22.6984 13.5156 21.9468 15.5577 20.7383 17.3284C19.5298 19.099 17.902 20.5431 16 21.532V48.002H48V0.00195312H18.3ZM34 42.002C34 42.5324 33.7893 43.0411 33.4142 43.4162C33.0391 43.7912 32.5304 44.002 32 44.002C31.4696 44.002 30.9609 43.7912 30.5858 43.4162C30.2107 43.0411 30 42.5324 30 42.002V36.002C30.0016 35.472 30.2128 34.9642 30.5875 34.5895C30.9623 34.2148 31.4701 34.0035 32 34.002C32.5292 34.0059 33.0356 34.2179 33.4099 34.5921C33.7841 34.9663 33.9961 35.4727 34 36.002V42.002ZM34 27.002C34 27.5324 33.7893 28.0411 33.4142 28.4162C33.0391 28.7912 32.5304 29.002 32 29.002C31.4696 29.002 30.9609 28.7912 30.5858 28.4162C30.2107 28.0411 30 27.5324 30 27.002V21.002C30.0016 20.472 30.2128 19.9642 30.5875 19.5895C30.9623 19.2148 31.4701 19.0035 32 19.002C32.5292 19.0059 33.0356 19.2179 33.4099 19.5921C33.7841 19.9663 33.9961 20.4727 34 21.002V27.002ZM34 12.002C34 12.5324 33.7893 13.0411 33.4142 13.4162C33.0391 13.7912 32.5304 14.002 32 14.002C31.4696 14.002 30.9609 13.7912 30.5858 13.4162C30.2107 13.0411 30 12.5324 30 12.002V6.00195C30.0016 5.47201 30.2128 4.96422 30.5875 4.58949C30.9623 4.21476 31.4701 4.00354 32 4.00195C32.5292 4.00588 33.0356 4.21785 33.4099 4.59208C33.7841 4.9663 33.9961 5.47273 34 6.00195V12.002Z" fill="black"/>
<path d="M20 10.002C20 8.02415 19.4135 6.09075 18.3147 4.44626C17.2159 2.80176 15.6541 1.52004 13.8268 0.763162C11.9996 0.00628597 9.98891 -0.191747 8.0491 0.194105C6.10929 0.579957 4.32746 1.53236 2.92894 2.93089C1.53041 4.32941 0.578004 6.11125 0.192152 8.05105C-0.193701 9.99086 0.00433284 12.0015 0.761209 13.8288C1.51809 15.6561 2.79981 17.2178 4.4443 18.3167C6.08879 19.4155 8.02219 20.002 10 20.002C12.6519 20.0012 15.195 18.9473 17.0702 17.0721C18.9454 15.197 19.9992 12.6539 20 10.002ZM15 14.002C15 14.5324 14.7893 15.0411 14.4142 15.4162C14.0391 15.7912 13.5304 16.002 13 16.002H7C6.46957 16.002 5.96086 15.7912 5.58579 15.4162C5.21072 15.0411 5 14.5324 5 14.002V8.00196C5 6.67588 5.52679 5.40411 6.46447 4.46642C7.40215 3.52874 8.67392 3.00196 10 3.00196C11.3261 3.00196 12.5979 3.52874 13.5355 4.46642C14.4732 5.40411 15 6.67588 15 8.00196V14.002Z" fill="black"/>
<path d="M11 10.002H9C8.44772 10.002 8 10.4497 8 11.002V13.002C8 13.5542 8.44772 14.002 9 14.002H11C11.5523 14.002 12 13.5542 12 13.002V11.002C12 10.4497 11.5523 10.002 11 10.002Z" fill="black"/>
</g>
<defs>
<clipPath id="clip0_6013_52430">
<rect width="48" height="48" fill="white" transform="translate(0 0.00195312)"/>
</clipPath>
</defs>
</svg>
