<svg width="48" height="26" viewBox="0 0 48 26" fill="none" xmlns="http://www.w3.org/2000/svg">
<g clip-path="url(#clip0_6013_52444)">
<path d="M45 20.0019H3C2.20435 20.0019 1.44129 20.318 0.87868 20.8806C0.31607 21.4432 0 22.2063 0 23.0019C0 23.7976 0.31607 24.5606 0.87868 25.1233C1.44129 25.6859 2.20435 26.0019 3 26.0019H45C45.7957 26.0019 46.5587 25.6859 47.1213 25.1233C47.6839 24.5606 48 23.7976 48 23.0019C48 22.2063 47.6839 21.4432 47.1213 20.8806C46.5587 20.318 45.7957 20.0019 45 20.0019ZM15 17.0019H45L34.685 0.444931C34.5764 0.269109 34.4114 0.135331 34.2169 0.0654696C34.0224 -0.00439166 33.8099 -0.0062033 33.6143 0.0603309C33.4186 0.126865 33.2513 0.257809 33.1398 0.431753C33.0282 0.605698 32.9789 0.812353 33 1.01793V14.0019L24.685 0.444931C24.5764 0.269109 24.4114 0.135331 24.2169 0.0654696C24.0224 -0.00439166 23.8099 -0.0062033 23.6143 0.0603309C23.4186 0.126865 23.2513 0.257809 23.1398 0.431753C23.0282 0.605698 22.9789 0.812353 23 1.01793V14.0019L14.685 0.444931C14.5764 0.269109 14.4114 0.135331 14.2169 0.0654696C14.0224 -0.00439166 13.8099 -0.0062033 13.6143 0.0603309C13.4186 0.126865 13.2513 0.257809 13.1398 0.431753C13.0282 0.605698 12.9789 0.812353 13 1.01793V14.0019L4.685 0.444931C4.5764 0.269109 4.41136 0.135331 4.21687 0.0654696C4.02238 -0.00439166 3.80994 -0.0062033 3.61429 0.0603309C3.41863 0.126865 3.25134 0.257809 3.13975 0.431753C3.02817 0.605698 2.9789 0.812353 3 1.01793V17.0019H15Z" fill="black"/>
</g>
<defs>
<clipPath id="clip0_6013_52444">
<rect width="48" height="26" fill="white" transform="translate(0 0.00195312)"/>
</clipPath>
</defs>
</svg>
