<svg width="48" height="30" viewBox="0 0 48 30" fill="none" xmlns="http://www.w3.org/2000/svg">
<g clip-path="url(#clip0_6013_52423)">
<path d="M47.41 0.591971C47.2265 0.404199 47.0071 0.255214 46.7649 0.153863C46.5227 0.0525109 46.2626 0.000858147 46 0.00197072C45.4701 0.00355345 44.9623 0.214775 44.5875 0.589506C44.2128 0.964236 44.0016 1.47202 44 2.00197V8.00197L41 14.002H44V28.002C44 28.5324 44.2107 29.0411 44.5858 29.4162C44.9609 29.7913 45.4696 30.002 46 30.002C46.5304 30.002 47.0391 29.7913 47.4142 29.4162C47.7893 29.0411 48 28.5324 48 28.002V2.00197C48.0011 1.73941 47.9495 1.4793 47.8481 1.23709C47.7468 0.994875 47.5978 0.775495 47.41 0.591971ZM10 4.00197H6L4 8.00197V2.00197C4 1.47154 3.78929 0.96283 3.41421 0.587757C3.03914 0.212684 2.53043 0.00197072 2 0.00197072C1.46957 0.00197072 0.960859 0.212684 0.585786 0.587757C0.210714 0.96283 0 1.47154 0 2.00197L0 28.002C0 28.5324 0.210714 29.0411 0.585786 29.4162C0.960859 29.7913 1.46957 30.002 2 30.002C2.53043 30.002 3.03914 29.7913 3.41421 29.4162C3.78929 29.0411 4 28.5324 4 28.002V14.002H5L10 4.00197Z" fill="black"/>
<path d="M14 4.00195L9 14.002H13L18 4.00195H14Z" fill="black"/>
<path d="M22 4.00195L17 14.002H21L26 4.00195H22Z" fill="black"/>
<path d="M30 4.00195L25 14.002H29L34 4.00195H30Z" fill="black"/>
<path d="M38 4.00195L33 14.002H37L42 4.00195H38Z" fill="black"/>
</g>
<defs>
<clipPath id="clip0_6013_52423">
<rect width="48" height="30" fill="white" transform="translate(0 0.00195312)"/>
</clipPath>
</defs>
</svg>
