<svg width="48" height="48" viewBox="0 0 48 48" fill="none" xmlns="http://www.w3.org/2000/svg">
<g clip-path="url(#clip0_6013_52434)">
<path d="M20 10.002C20 8.02415 19.4135 6.09075 18.3147 4.44626C17.2159 2.80176 15.6541 1.52004 13.8268 0.763162C11.9996 0.00628597 9.98891 -0.191747 8.0491 0.194105C6.10929 0.579957 4.32746 1.53236 2.92894 2.93089C1.53041 4.32941 0.578004 6.11125 0.192152 8.05105C-0.193701 9.99086 0.00433284 12.0015 0.761209 13.8288C1.51809 15.6561 2.79981 17.2178 4.4443 18.3167C6.08879 19.4155 8.02219 20.002 10 20.002C12.6518 20.0009 15.1948 18.947 17.0699 17.0719C18.945 15.1967 19.9989 12.6538 20 10.002ZM14.71 13.292C14.8969 13.481 15.0017 13.7361 15.0017 14.002C15.0017 14.2678 14.8969 14.5229 14.71 14.712C14.5204 14.8979 14.2655 15.002 14 15.002C13.7345 15.002 13.4796 14.8979 13.29 14.712L10 11.422L6.71 14.712C6.52044 14.8979 6.26552 15.002 6 15.002C5.73449 15.002 5.47957 14.8979 5.29 14.712C5.10314 14.5229 4.99834 14.2678 4.99834 14.002C4.99834 13.7361 5.10314 13.481 5.29 13.292L8.58 10.002L5.29 6.71196C5.1017 6.52365 4.99591 6.26826 4.99591 6.00196C4.99591 5.73566 5.1017 5.48026 5.29 5.29196C5.47831 5.10365 5.7337 4.99787 6 4.99787C6.26631 4.99787 6.5217 5.10365 6.71 5.29196L10 8.58196L13.29 5.29196C13.3832 5.19872 13.4939 5.12476 13.6158 5.0743C13.7376 5.02384 13.8681 4.99787 14 4.99787C14.1319 4.99787 14.2624 5.02384 14.3843 5.0743C14.5061 5.12476 14.6168 5.19872 14.71 5.29196C14.8032 5.3852 14.8772 5.49589 14.9277 5.61771C14.9781 5.73953 15.0041 5.8701 15.0041 6.00196C15.0041 6.13382 14.9781 6.26438 14.9277 6.38621C14.8772 6.50803 14.8032 6.61872 14.71 6.71196L11.42 10.002L14.71 13.292Z" fill="black"/>
<path d="M18.3 0.00195312C19.9502 1.37028 21.2362 3.12567 22.0434 5.11163C22.8506 7.09759 23.1538 9.25241 22.9261 11.384C22.6984 13.5156 21.9468 15.5577 20.7383 17.3284C19.5298 19.099 17.902 20.5431 16 21.532V48.002H48V0.00195312H18.3ZM34 42.002C34 42.5324 33.7893 43.0411 33.4142 43.4162C33.0391 43.7912 32.5304 44.002 32 44.002C31.4696 44.002 30.9609 43.7912 30.5858 43.4162C30.2107 43.0411 30 42.5324 30 42.002V36.002C30.0016 35.472 30.2128 34.9642 30.5875 34.5895C30.9623 34.2148 31.4701 34.0035 32 34.002C32.5292 34.0059 33.0356 34.2179 33.4099 34.5921C33.7841 34.9663 33.9961 35.4727 34 36.002V42.002ZM34 27.002C34 27.5324 33.7893 28.0411 33.4142 28.4162C33.0391 28.7912 32.5304 29.002 32 29.002C31.4696 29.002 30.9609 28.7912 30.5858 28.4162C30.2107 28.0411 30 27.5324 30 27.002V21.002C30.0016 20.472 30.2128 19.9642 30.5875 19.5895C30.9623 19.2148 31.4701 19.0035 32 19.002C32.5292 19.0059 33.0356 19.2179 33.4099 19.5921C33.7841 19.9663 33.9961 20.4727 34 21.002V27.002ZM34 12.002C34 12.5324 33.7893 13.0411 33.4142 13.4162C33.0391 13.7912 32.5304 14.002 32 14.002C31.4696 14.002 30.9609 13.7912 30.5858 13.4162C30.2107 13.0411 30 12.5324 30 12.002V6.00195C30.0016 5.47201 30.2128 4.96422 30.5875 4.58949C30.9623 4.21476 31.4701 4.00354 32 4.00195C32.5292 4.00588 33.0356 4.21785 33.4099 4.59208C33.7841 4.9663 33.9961 5.47273 34 6.00195V12.002Z" fill="black"/>
</g>
<defs>
<clipPath id="clip0_6013_52434">
<rect width="48" height="48" fill="white" transform="translate(0 0.00195312)"/>
</clipPath>
</defs>
</svg>
