<svg width="48" height="48" viewBox="0 0 48 48" fill="none" xmlns="http://www.w3.org/2000/svg">
<g clip-path="url(#clip0_6013_52447)">
<path d="M19.208 19.002C15.36 18.453 11.73 16.292 10.23 12.79L10.007 12.268C9.84018 11.879 9.55868 11.5501 9.20006 11.3254C8.84145 11.1006 8.42279 10.9905 8 11.01V11.002H2.236C1.64298 11.002 1.07424 11.2375 0.654909 11.6569C0.235578 12.0762 0 12.6449 0 13.238L0 28.766C0.0032053 28.8514 0.0118898 28.9366 0.026 29.021C0.0119322 29.105 0.00324788 29.1898 0 29.275L0 46.002C0 46.5324 0.210714 47.0411 0.585786 47.4162C0.960859 47.7912 1.46957 48.002 2 48.002C2.53043 48.002 3.03914 47.7912 3.41421 47.4162C3.78929 47.0411 4 46.5324 4 46.002V31.002H6V46.002C6 46.5324 6.21071 47.0411 6.58579 47.4162C6.96086 47.7912 7.46957 48.002 8 48.002C8.53043 48.002 9.03914 47.7912 9.41421 47.4162C9.78929 47.0411 10 46.5324 10 46.002V29.275C9.99675 29.1898 9.98807 29.105 9.974 29.021C9.98811 28.9366 9.99679 28.8514 10 28.766V19.242C12.4649 21.276 15.4504 22.5785 18.618 23.002C18.7172 23.0094 18.8168 23.0094 18.916 23.002C19.4021 23.034 19.8826 22.8838 20.264 22.5808C20.6454 22.2778 20.9003 21.8437 20.979 21.363C21.0564 20.8151 20.9135 20.259 20.5815 19.8164C20.2495 19.3738 19.7556 19.081 19.208 19.002Z" fill="black"/>
<path d="M5 9.00195C7.20914 9.00195 9 7.21109 9 5.00195C9 2.79281 7.20914 1.00195 5 1.00195C2.79086 1.00195 1 2.79281 1 5.00195C1 7.21109 2.79086 9.00195 5 9.00195Z" fill="black"/>
<path d="M34 10.002C36.2091 10.002 38 8.21109 38 6.00195C38 3.79281 36.2091 2.00195 34 2.00195C31.7909 2.00195 30 3.79281 30 6.00195C30 8.21109 31.7909 10.002 34 10.002Z" fill="black"/>
<path d="M46 0.00195313C45.4696 0.00195313 44.9609 0.212667 44.5858 0.58774C44.2107 0.962812 44 1.47152 44 2.00195C43.9656 4.64341 42.9009 7.16698 41.033 9.03493C39.165 10.9029 36.6415 11.9675 34 12.002C28.87 12.002 25 7.70295 25 2.00195C25 1.47152 24.7893 0.962812 24.4142 0.58774C24.0391 0.212667 23.5304 0.00195313 23 0.00195312C22.4696 0.00195313 21.9609 0.212667 21.5858 0.58774C21.2107 0.962812 21 1.47152 21 2.00195C21 8.05295 24.216 12.97 29 14.997V28.822C29.0034 28.8977 29.0111 28.9731 29.023 29.048C29.0111 29.1228 29.0034 29.1982 29 29.274V46.002C29 46.5324 29.2107 47.0411 29.5858 47.4162C29.9609 47.7912 30.4696 48.002 31 48.002C31.5304 48.002 32.0391 47.7912 32.4142 47.4162C32.7893 47.0411 33 46.5324 33 46.002V31.002H35V46.002C35 46.5324 35.2107 47.0411 35.5858 47.4162C35.9609 47.7912 36.4696 48.002 37 48.002C37.5304 48.002 38.0391 47.7912 38.4142 47.4162C38.7893 47.0411 39 46.5324 39 46.002V29.275C38.9966 29.1992 38.9889 29.1238 38.977 29.049C38.989 28.9738 38.9967 28.898 39 28.822V15.027C41.623 13.9936 43.8793 12.2033 45.482 9.88395C47.0846 7.56457 47.9611 4.8209 48 2.00195C48 1.47152 47.7893 0.962812 47.4142 0.58774C47.0391 0.212667 46.5304 0.00195313 46 0.00195313Z" fill="black"/>
</g>
<defs>
<clipPath id="clip0_6013_52447">
<rect width="48" height="48" fill="white" transform="translate(0 0.00195312)"/>
</clipPath>
</defs>
</svg>
