<svg width="48" height="48" viewBox="0 0 48 48" fill="none" xmlns="http://www.w3.org/2000/svg">
<g clip-path="url(#clip0_6013_52453)">
<path d="M37.0348 44.002H26.0061V7.00195H36.3329L31.5996 18.955C31.5272 19.1378 31.4916 19.3331 31.4949 19.5297C31.4981 19.7263 31.5402 19.9203 31.6186 20.1007C31.6971 20.2811 31.8103 20.4443 31.952 20.581C32.0937 20.7177 32.261 20.8252 32.4443 20.8975C32.6277 20.9697 32.8235 21.0052 33.0206 21.0019C33.2177 20.9987 33.4122 20.9567 33.593 20.8785C33.7739 20.8003 33.9375 20.6873 34.0746 20.546C34.2117 20.4047 34.3195 20.2378 34.3919 20.055L38.5387 9.58195L42.6855 20.055C42.7579 20.2378 42.8657 20.4047 43.0028 20.546C43.1399 20.6873 43.3035 20.8003 43.4843 20.8785C43.6652 20.9567 43.8597 20.9987 44.0568 21.0019C44.2539 21.0052 44.4497 20.9697 44.6331 20.8975C44.8164 20.8252 44.9837 20.7177 45.1254 20.581C45.267 20.4443 45.3803 20.2811 45.4588 20.1007C45.5372 19.9203 45.5793 19.7263 45.5825 19.5297C45.5858 19.3331 45.5502 19.1378 45.4778 18.955L39.9323 4.95195C39.8231 4.67192 39.6316 4.43135 39.3829 4.26181C39.1342 4.09227 38.8399 4.00169 38.5387 4.00195H26.0061V2.00195C26.0061 1.47152 25.7948 0.962812 25.4187 0.58774C25.0427 0.212667 24.5326 0.00195313 24.0008 0.00195312C23.469 0.00195313 22.959 0.212667 22.5829 0.58774C22.2069 0.962812 21.9956 1.47152 21.9956 2.00195V4.00195H9.46297C9.16173 4.00169 8.86744 4.09227 8.61873 4.26181C8.37003 4.43135 8.17852 4.67192 8.06934 4.95195L2.5239 18.955C2.45149 19.1378 2.41589 19.3331 2.41915 19.5297C2.42241 19.7263 2.46446 19.9203 2.5429 20.1007C2.62133 20.2811 2.73462 20.4443 2.8763 20.581C3.01797 20.7177 3.18526 20.8252 3.3686 20.8975C3.55194 20.9697 3.74776 21.0052 3.94485 21.0019C4.14195 20.9987 4.33648 20.9567 4.51733 20.8785C4.69818 20.8003 4.86181 20.6873 4.99887 20.546C5.13594 20.4047 5.24376 20.2378 5.31617 20.055L9.46297 9.58195L13.6098 20.055C13.6822 20.2378 13.79 20.4047 13.9271 20.546C14.0641 20.6873 14.2278 20.8003 14.4086 20.8785C14.5895 20.9567 14.784 20.9987 14.9811 21.0019C15.1782 21.0052 15.374 20.9697 15.5573 20.8975C15.7407 20.8252 15.908 20.7177 16.0496 20.581C16.1913 20.4443 16.3046 20.2811 16.383 20.1007C16.4615 19.9203 16.5035 19.7263 16.5068 19.5297C16.5101 19.3331 16.4745 19.1378 16.402 18.955L11.6677 7.00195H21.9946V44.002H10.9659C10.4341 44.002 9.92403 44.2127 9.54798 44.5877C9.17193 44.9628 8.96066 45.4715 8.96066 46.002C8.96066 46.5324 9.17193 47.0411 9.54798 47.4162C9.92403 47.7912 10.4341 48.002 10.9659 48.002H37.0338C37.5656 48.002 38.0756 47.7912 38.4517 47.4162C38.8277 47.0411 39.039 46.5324 39.039 46.002C39.039 45.4715 38.8277 44.9628 38.4517 44.5877C38.0756 44.2127 37.5666 44.002 37.0348 44.002Z" fill="black"/>
<path d="M18.9182 24.314C18.9264 24.2765 18.9262 24.2377 18.9174 24.2004C18.9086 24.1631 18.8916 24.1282 18.8676 24.0982C18.8436 24.0683 18.8131 24.0442 18.7785 24.0275C18.7439 24.0108 18.706 24.0021 18.6676 24.002H0.256623C0.218191 24.0021 0.180281 24.0108 0.145669 24.0275C0.111058 24.0442 0.0806214 24.0683 0.0565896 24.0982C0.0325578 24.1282 0.0155393 24.1631 0.00678064 24.2004C-0.00197798 24.2377 -0.00225489 24.2765 0.0059702 24.314C0.513101 26.4349 1.72217 28.3234 3.43794 29.6746C5.1537 31.0258 7.27599 31.7607 9.46209 31.7607C11.6482 31.7607 13.7705 31.0258 15.4863 29.6746C17.202 28.3234 18.4111 26.4349 18.9182 24.314ZM47.7443 24.002H29.3313C29.2929 24.0021 29.255 24.0108 29.2204 24.0275C29.1858 24.0442 29.1553 24.0683 29.1313 24.0982C29.1073 24.1282 29.0903 24.1631 29.0815 24.2004C29.0727 24.2377 29.0725 24.2765 29.0807 24.314C29.5878 26.4349 30.7969 28.3234 32.5126 29.6746C34.2284 31.0258 36.3507 31.7607 38.5368 31.7607C40.7229 31.7607 42.8452 31.0258 44.561 29.6746C46.2767 28.3234 47.4858 26.4349 47.9929 24.314C48.0012 24.2765 48.0009 24.2377 47.9921 24.2004C47.9834 24.1631 47.9663 24.1282 47.9423 24.0982C47.9183 24.0683 47.8878 24.0442 47.8532 24.0275C47.8186 24.0108 47.7807 24.0021 47.7423 24.002" fill="black"/>
</g>
<defs>
<clipPath id="clip0_6013_52453">
<rect width="48" height="48" fill="white" transform="translate(0 0.00195312)"/>
</clipPath>
</defs>
</svg>
