<svg width="48" height="48" viewBox="0 0 48 48" fill="none" xmlns="http://www.w3.org/2000/svg">
<g clip-path="url(#clip0_6013_52460)">
<path d="M41.499 13.002C45.0889 13.002 47.999 10.0918 47.999 6.50195C47.999 2.9121 45.0889 0.00195312 41.499 0.00195312C37.9092 0.00195312 34.999 2.9121 34.999 6.50195C34.999 10.0918 37.9092 13.002 41.499 13.002Z" fill="black"/>
<path d="M8.50001 12.002H11C11 12.7976 11.3161 13.5607 11.8787 14.1233C12.4413 14.6859 13.2044 15.002 14 15.002H19C19.7957 15.002 20.5587 14.6859 21.1213 14.1233C21.6839 13.5607 22 12.7976 22 12.002C22 11.2063 21.6839 10.4432 21.1213 9.88063C20.5587 9.31802 19.7957 9.00195 19 9.00195H15.95C15.8347 8.43727 15.5279 7.92976 15.0815 7.5653C14.635 7.20084 14.0763 7.00184 13.5 7.00195H8.50001C7.83697 7.00195 7.20109 7.26535 6.73225 7.73419C6.26341 8.20303 6.00001 8.83891 6.00001 9.50195C6.00001 10.165 6.26341 10.8009 6.73225 11.2697C7.20109 11.7386 7.83697 12.002 8.50001 12.002ZM23.04 22.622C22.578 21.8259 21.915 21.1651 21.1174 20.7058C20.3197 20.2465 19.4154 20.0048 18.495 20.0048C17.5746 20.0048 16.6703 20.2465 15.8727 20.7058C15.075 21.1651 14.412 21.8259 13.95 22.622L0.110013 46.732C0.0378609 46.8631 0.00132652 47.0109 0.00404789 47.1606C0.00676927 47.3103 0.0486515 47.4566 0.125524 47.5851C0.202397 47.7135 0.311579 47.8196 0.442199 47.8928C0.572818 47.9659 0.720319 48.0035 0.870013 48.002H17.7L18.26 47.012L27.62 30.602L23.04 22.622ZM47.87 46.472L37.94 29.102C37.5841 28.465 37.0647 27.9346 36.4354 27.5653C35.8061 27.1961 35.0897 27.0014 34.36 27.0014C33.6304 27.0014 32.914 27.1961 32.2846 27.5653C31.6553 27.9346 31.1359 28.465 30.78 29.102L28.78 32.612L20 48.002H46.97C47.1495 48.0025 47.3261 47.9559 47.482 47.867C47.638 47.7781 47.768 47.6499 47.859 47.4952C47.95 47.3404 47.9989 47.1646 48.0009 46.985C48.0028 46.8055 47.9577 46.6286 47.87 46.472Z" fill="black"/>
</g>
<defs>
<clipPath id="clip0_6013_52460">
<rect width="48.001" height="48" fill="white" transform="translate(0 0.00195312)"/>
</clipPath>
</defs>
</svg>
