<svg width="48" height="48" viewBox="0 0 48 48" fill="none" xmlns="http://www.w3.org/2000/svg">
<g clip-path="url(#clip0_6013_52457)">
<path d="M1.5 11.002H12.91L9.435 14.47C9.22733 14.6775 9.08593 14.942 9.02871 15.2299C8.9715 15.5179 9.00103 15.8163 9.11359 16.0875C9.22614 16.3587 9.41664 16.5903 9.66096 16.7531C9.90528 16.9159 10.1924 17.0025 10.486 17.002C10.6812 17.0023 10.8746 16.9641 11.055 16.8895C11.2353 16.8148 11.3992 16.7052 11.537 16.567L17.514 10.601C17.6772 10.4515 17.8052 10.2678 17.889 10.063L17.893 10.051C17.927 9.96553 17.9531 9.87716 17.971 9.78695C17.9904 9.69319 18.0001 9.59769 18 9.50195C17.9994 9.40658 17.9897 9.31148 17.971 9.21795C17.9536 9.12917 17.9281 9.04215 17.895 8.95795L17.893 8.95395L17.889 8.93995C17.8057 8.73652 17.6787 8.55387 17.517 8.40495L13.977 4.87095L11.537 2.43695C11.4006 2.29345 11.2368 2.17869 11.0553 2.09941C10.8739 2.02014 10.6784 1.97795 10.4804 1.97534C10.2824 1.97272 10.0859 2.00973 9.90241 2.08419C9.71893 2.15865 9.55219 2.26905 9.41201 2.4089C9.27183 2.54875 9.16103 2.71523 9.08613 2.89853C9.01124 3.08184 8.97376 3.27827 8.9759 3.47627C8.97804 3.67427 9.01976 3.86985 9.09861 4.05149C9.17745 4.23313 9.29182 4.39717 9.435 4.53395L12.91 8.00195H1.5C1.10218 8.00195 0.720644 8.15999 0.43934 8.44129C0.158035 8.7226 0 9.10413 0 9.50195C0 9.89978 0.158035 10.2813 0.43934 10.5626C0.720644 10.8439 1.10218 11.002 1.5 11.002ZM46.93 16.002H45V13.062C45.0008 12.9225 44.9739 12.7843 44.9209 12.6554C44.8679 12.5264 44.7899 12.4092 44.6913 12.3106C44.5927 12.2121 44.4755 12.134 44.3466 12.081C44.2176 12.028 44.0794 12.0012 43.94 12.002H42V1.50195C42 1.10413 41.842 0.722597 41.5607 0.441293C41.2794 0.159988 40.8978 0.00195313 40.5 0.00195312C40.1022 0.00195313 39.7206 0.159988 39.4393 0.441293C39.158 0.722597 39 1.10413 39 1.50195V12.002H37.06C36.9206 12.0012 36.7824 12.028 36.6534 12.081C36.5245 12.134 36.4073 12.2121 36.3087 12.3106C36.2101 12.4092 36.1321 12.5264 36.0791 12.6554C36.0261 12.7843 35.9992 12.9225 36 13.062V16.002H34.07C33.7862 16.002 33.5141 16.1147 33.3134 16.3153C33.1127 16.516 33 16.7882 33 17.072V45.002H24V38.822C25.5501 38.4543 26.9113 37.5302 27.8249 36.225C28.7386 34.9199 29.1411 33.3246 28.956 31.7423C28.7709 30.1599 28.0111 28.7006 26.821 27.6416C25.6308 26.5825 24.0931 25.9974 22.5 25.9974C20.9069 25.9974 19.3692 26.5825 18.179 27.6416C16.9889 28.7006 16.2291 30.1599 16.044 31.7423C15.8589 33.3246 16.2614 34.9199 17.1751 36.225C18.0887 37.5302 19.4499 38.4543 21 38.822V45.002H0V48.002H48V17.072C48 16.7882 47.8873 16.516 47.6866 16.3153C47.4859 16.1147 47.2138 16.002 46.93 16.002ZM42 31.502C41.9993 31.4361 42.0118 31.3708 42.0367 31.3098C42.0616 31.2489 42.0984 31.1935 42.145 31.1469C42.1915 31.1003 42.2469 31.0635 42.3079 31.0387C42.3688 31.0138 42.4342 31.0013 42.5 31.002H44.5C44.5658 31.0013 44.6312 31.0138 44.6921 31.0387C44.7531 31.0635 44.8085 31.1003 44.855 31.1469C44.9016 31.1935 44.9384 31.2489 44.9633 31.3098C44.9882 31.3708 45.0007 31.4361 45 31.502V33.502C45.0007 33.5678 44.9882 33.6331 44.9633 33.6941C44.9384 33.7551 44.9016 33.8104 44.855 33.857C44.8085 33.9036 44.7531 33.9404 44.6921 33.9653C44.6312 33.9901 44.5658 34.0026 44.5 34.002H42.5C42.4342 34.0026 42.3688 33.9901 42.3079 33.9653C42.2469 33.9404 42.1915 33.9036 42.145 33.857C42.0984 33.8104 42.0616 33.7551 42.0367 33.6941C42.0118 33.6331 41.9993 33.5678 42 33.502V31.502ZM44.5 28.002H42.5C42.4342 28.0026 42.3688 27.9901 42.3079 27.9653C42.2469 27.9404 42.1915 27.9036 42.145 27.857C42.0984 27.8104 42.0616 27.755 42.0367 27.6941C42.0118 27.6331 41.9993 27.5678 42 27.502V25.502C41.9993 25.4361 42.0118 25.3708 42.0367 25.3098C42.0616 25.2489 42.0984 25.1935 42.145 25.1469C42.1915 25.1003 42.2469 25.0635 42.3079 25.0387C42.3688 25.0138 42.4342 25.0013 42.5 25.002H44.5C44.5658 25.0013 44.6312 25.0138 44.6921 25.0387C44.7531 25.0635 44.8085 25.1003 44.855 25.1469C44.9016 25.1935 44.9384 25.2489 44.9633 25.3098C44.9882 25.3708 45.0007 25.4361 45 25.502V27.502C45.0007 27.5678 44.9882 27.6331 44.9633 27.6941C44.9384 27.755 44.9016 27.8104 44.855 27.857C44.8085 27.9036 44.7531 27.9404 44.6921 27.9653C44.6312 27.9901 44.5658 28.0026 44.5 28.002ZM44.5 22.002H42.5C42.4342 22.0026 42.3688 21.9901 42.3079 21.9653C42.2469 21.9404 42.1915 21.9036 42.145 21.857C42.0984 21.8104 42.0616 21.755 42.0367 21.6941C42.0118 21.6331 41.9993 21.5678 42 21.502V19.502C41.9993 19.4361 42.0118 19.3708 42.0367 19.3098C42.0616 19.2489 42.0984 19.1935 42.145 19.1469C42.1915 19.1003 42.2469 19.0635 42.3079 19.0387C42.3688 19.0138 42.4342 19.0013 42.5 19.002H44.5C44.5658 19.0013 44.6312 19.0138 44.6921 19.0387C44.7531 19.0635 44.8085 19.1003 44.855 19.1469C44.9016 19.1935 44.9384 19.2489 44.9633 19.3098C44.9882 19.3708 45.0007 19.4361 45 19.502V21.502C45.0007 21.5678 44.9882 21.6331 44.9633 21.6941C44.9384 21.755 44.9016 21.8104 44.855 21.857C44.8085 21.9036 44.7531 21.9404 44.6921 21.9653C44.6312 21.9901 44.5658 22.0026 44.5 22.002ZM36 19.502C35.9993 19.4361 36.0118 19.3708 36.0367 19.3098C36.0616 19.2489 36.0984 19.1935 36.145 19.1469C36.1915 19.1003 36.2469 19.0635 36.3079 19.0387C36.3688 19.0138 36.4342 19.0013 36.5 19.002H38.5C38.5658 19.0013 38.6312 19.0138 38.6921 19.0387C38.7531 19.0635 38.8085 19.1003 38.855 19.1469C38.9016 19.1935 38.9384 19.2489 38.9633 19.3098C38.9882 19.3708 39.0007 19.4361 39 19.502V21.502C39.0007 21.5678 38.9882 21.6331 38.9633 21.6941C38.9384 21.755 38.9016 21.8104 38.855 21.857C38.8085 21.9036 38.7531 21.9404 38.6921 21.9653C38.6312 21.9901 38.5658 22.0026 38.5 22.002H36.5C36.4342 22.0026 36.3688 21.9901 36.3079 21.9653C36.2469 21.9404 36.1915 21.9036 36.145 21.857C36.0984 21.8104 36.0616 21.755 36.0367 21.6941C36.0118 21.6331 35.9993 21.5678 36 21.502V19.502ZM36 25.502C35.9993 25.4361 36.0118 25.3708 36.0367 25.3098C36.0616 25.2489 36.0984 25.1935 36.145 25.1469C36.1915 25.1003 36.2469 25.0635 36.3079 25.0387C36.3688 25.0138 36.4342 25.0013 36.5 25.002H38.5C38.5658 25.0013 38.6312 25.0138 38.6921 25.0387C38.7531 25.0635 38.8085 25.1003 38.855 25.1469C38.9016 25.1935 38.9384 25.2489 38.9633 25.3098C38.9882 25.3708 39.0007 25.4361 39 25.502V27.502C39.0007 27.5678 38.9882 27.6331 38.9633 27.6941C38.9384 27.755 38.9016 27.8104 38.855 27.857C38.8085 27.9036 38.7531 27.9404 38.6921 27.9653C38.6312 27.9901 38.5658 28.0026 38.5 28.002H36.5C36.4342 28.0026 36.3688 27.9901 36.3079 27.9653C36.2469 27.9404 36.1915 27.9036 36.145 27.857C36.0984 27.8104 36.0616 27.755 36.0367 27.6941C36.0118 27.6331 35.9993 27.5678 36 27.502V25.502ZM36 31.502C35.9993 31.4361 36.0118 31.3708 36.0367 31.3098C36.0616 31.2489 36.0984 31.1935 36.145 31.1469C36.1915 31.1003 36.2469 31.0635 36.3079 31.0387C36.3688 31.0138 36.4342 31.0013 36.5 31.002H38.5C38.5658 31.0013 38.6312 31.0138 38.6921 31.0387C38.7531 31.0635 38.8085 31.1003 38.855 31.1469C38.9016 31.1935 38.9384 31.2489 38.9633 31.3098C38.9882 31.3708 39.0007 31.4361 39 31.502V33.502C39.0007 33.5678 38.9882 33.6331 38.9633 33.6941C38.9384 33.7551 38.9016 33.8104 38.855 33.857C38.8085 33.9036 38.7531 33.9404 38.6921 33.9653C38.6312 33.9901 38.5658 34.0026 38.5 34.002H36.5C36.4342 34.0026 36.3688 33.9901 36.3079 33.9653C36.2469 33.9404 36.1915 33.9036 36.145 33.857C36.0984 33.8104 36.0616 33.7551 36.0367 33.6941C36.0118 33.6331 35.9993 33.5678 36 33.502V31.502ZM42 45.002V40.002C42.0008 39.737 42.1064 39.4831 42.2938 39.2957C42.4811 39.1084 42.735 39.0027 43 39.002H44C44.265 39.0027 44.5189 39.1084 44.7062 39.2957C44.8936 39.4831 44.9992 39.737 45 40.002V45.002H42Z" fill="black"/>
</g>
<defs>
<clipPath id="clip0_6013_52457">
<rect width="48" height="48" fill="white" transform="translate(0 0.00195312)"/>
</clipPath>
</defs>
</svg>
