<svg width="48" height="42" viewBox="0 0 48 42" fill="none" xmlns="http://www.w3.org/2000/svg">
<g clip-path="url(#clip0_6013_52464)">
<path d="M46.786 2.97514L24.286 0.0238763C24.0987 -0.0066567 23.9032 -0.0066567 23.716 0.0238763L1.21598 2.97514C0.874404 3.01923 0.566431 3.14113 0.344783 3.31999C0.123135 3.49884 0.00159737 3.72352 0.000976562 3.95556L0.000976563 24.1442C0.000976563 34.0084 10.951 42.0019 24.001 42.0019C37.051 42.0019 48.001 34.0084 48.001 24.1442V3.95656C48.0004 3.72452 47.8788 3.49984 47.6572 3.32099C47.4355 3.14213 47.1275 3.02023 46.786 2.97614M34.021 21.284L32.971 21.9743L24.541 27.8468C24.4703 27.8944 24.3862 27.9321 24.2935 27.9578C24.2008 27.9836 24.1014 27.9969 24.001 27.9969C23.9006 27.9969 23.8012 27.9836 23.7085 27.9578C23.6158 27.9321 23.5317 27.8944 23.461 27.8468L15.031 21.9743L13.981 21.284C13.3622 20.8846 12.8685 20.4073 12.5286 19.8796C12.1887 19.3519 12.0093 18.7845 12.0009 18.2102C11.9926 17.6359 12.1553 17.0663 12.4798 16.5343C12.8042 16.0023 13.2839 15.5187 13.891 15.1113C15.0691 14.3819 16.6184 13.9778 18.226 13.9809C19.9029 13.9804 21.5132 14.4186 22.711 15.2014L24.001 15.9917L25.291 15.2014C26.4888 14.4186 28.0991 13.9804 29.776 13.9809C31.3835 13.9778 32.9329 14.3819 34.111 15.1113C34.718 15.5187 35.1977 16.0023 35.5222 16.5343C35.8466 17.0663 36.0094 17.6359 36.001 18.2102C35.9926 18.7845 35.8133 19.3519 35.4734 19.8796C35.1335 20.4073 34.6398 20.8846 34.021 21.284Z" fill="black"/>
</g>
<defs>
<clipPath id="clip0_6013_52464">
<rect width="48" height="42" fill="white" transform="translate(0.000976562 0.00195312)"/>
</clipPath>
</defs>
</svg>
