<svg width="48" height="48" viewBox="0 0 48 48" fill="none" xmlns="http://www.w3.org/2000/svg">
<g clip-path="url(#clip0_6013_52466)">
<path d="M44.801 13.002C44.801 9.55414 42.6096 6.24754 38.7088 3.80957C34.808 1.37159 29.5175 0.00195313 24.001 0.00195312C18.4845 0.00195313 13.1939 1.37159 9.29316 3.80957C5.3924 6.24754 3.20098 9.55414 3.20098 13.002L0.000976562 47.002C0.00224274 47.2669 0.17122 47.5208 0.471004 47.7082C0.770789 47.8956 1.17702 48.0012 1.60098 48.002H46.401C46.8249 48.0012 47.2312 47.8956 47.5309 47.7082C47.8307 47.5208 47.9997 47.2669 48.001 47.002L44.801 13.002ZM35.201 7.00195C35.8339 7.00195 36.4526 7.11925 36.9788 7.33901C37.505 7.55878 37.9152 7.87113 38.1574 8.23659C38.3996 8.60204 38.463 9.00417 38.3395 9.39213C38.216 9.7801 37.9112 10.1365 37.4637 10.4162C37.0162 10.6959 36.446 10.8864 35.8253 10.9635C35.2045 11.0407 34.5611 11.0011 33.9764 10.8497C33.3917 10.6983 32.8919 10.442 32.5403 10.1131C32.1887 9.78419 32.001 9.39752 32.001 9.00195C32.0035 8.47201 32.3415 7.96422 32.941 7.58949C33.5406 7.21476 34.3531 7.00354 35.201 7.00195ZM24.001 3.00195C24.6339 3.00195 25.2526 3.11925 25.7788 3.33901C26.305 3.55878 26.7152 3.87113 26.9574 4.23659C27.1996 4.60204 27.263 5.00417 27.1395 5.39213C27.016 5.7801 26.7112 6.13646 26.2637 6.41617C25.8162 6.69587 25.246 6.88635 24.6253 6.96352C24.0045 7.04069 23.3611 7.00109 22.7764 6.84971C22.1917 6.69834 21.6919 6.44199 21.3403 6.11309C20.9887 5.78419 20.801 5.39752 20.801 5.00195C20.8035 4.47201 21.1415 3.96422 21.741 3.58949C22.3406 3.21476 23.1531 3.00354 24.001 3.00195ZM12.801 7.00195C13.4339 7.00195 14.0526 7.11925 14.5788 7.33901C15.105 7.55878 15.5152 7.87113 15.7574 8.23659C15.9996 8.60204 16.063 9.00417 15.9395 9.39213C15.816 9.7801 15.5112 10.1365 15.0637 10.4162C14.6162 10.6959 14.046 10.8864 13.4253 10.9635C12.8045 11.0407 12.1611 11.0011 11.5764 10.8497C10.9917 10.6983 10.4919 10.442 10.1403 10.1131C9.78865 9.78419 9.60098 9.39752 9.60098 9.00195C9.60351 8.47201 9.94146 7.96422 10.541 7.58949C11.1406 7.21476 11.9531 7.00354 12.801 7.00195ZM6.40098 44.002L9.60098 17.002H38.401L41.601 44.002H6.40098Z" fill="black"/>
<path d="M14.4012 42.002C16.1685 42.002 17.6012 41.1065 17.6012 40.002C17.6012 38.8974 16.1685 38.002 14.4012 38.002C12.6339 38.002 11.2012 38.8974 11.2012 40.002C11.2012 41.1065 12.6339 42.002 14.4012 42.002Z" fill="black"/>
<path d="M24.0008 42.002C25.7681 42.002 27.2008 41.1065 27.2008 40.002C27.2008 38.8974 25.7681 38.002 24.0008 38.002C22.2335 38.002 20.8008 38.8974 20.8008 40.002C20.8008 41.1065 22.2335 42.002 24.0008 42.002Z" fill="black"/>
<path d="M33.6014 42.002C35.3687 42.002 36.8014 41.1065 36.8014 40.002C36.8014 38.8974 35.3687 38.002 33.6014 38.002C31.8341 38.002 30.4014 38.8974 30.4014 40.002C30.4014 41.1065 31.8341 42.002 33.6014 42.002Z" fill="black"/>
<path d="M14.4012 36.002C16.1685 36.002 17.6012 35.1065 17.6012 34.002C17.6012 32.8974 16.1685 32.002 14.4012 32.002C12.6339 32.002 11.2012 32.8974 11.2012 34.002C11.2012 35.1065 12.6339 36.002 14.4012 36.002Z" fill="black"/>
<path d="M24.0008 36.002C25.7681 36.002 27.2008 35.1065 27.2008 34.002C27.2008 32.8974 25.7681 32.002 24.0008 32.002C22.2335 32.002 20.8008 32.8974 20.8008 34.002C20.8008 35.1065 22.2335 36.002 24.0008 36.002Z" fill="black"/>
<path d="M14.4012 30.002C16.1685 30.002 17.6012 29.1065 17.6012 28.002C17.6012 26.8974 16.1685 26.002 14.4012 26.002C12.6339 26.002 11.2012 26.8974 11.2012 28.002C11.2012 29.1065 12.6339 30.002 14.4012 30.002Z" fill="black"/>
</g>
<defs>
<clipPath id="clip0_6013_52466">
<rect width="48" height="48" fill="white" transform="translate(0.000976562 0.00195312)"/>
</clipPath>
</defs>
</svg>
