<svg width="48" height="48" viewBox="0 0 48 48" fill="none" xmlns="http://www.w3.org/2000/svg">
<g clip-path="url(#clip0_6013_52475)">
<path d="M18.0026 22.0008C19.0512 22.0028 20.0899 21.7982 21.0594 21.3987C22.0289 20.9992 22.9102 20.4127 23.653 19.6725C24.3959 18.9324 24.9857 18.0532 25.3888 17.0852C25.7919 16.1171 26.0003 15.0791 26.0023 14.0304C26.0023 10.0503 19.4526 1.64993 18.2026 0.0998696C18.1789 0.0695189 18.1485 0.0449738 18.1139 0.0280938C18.0792 0.0112137 18.0412 0.00244141 18.0026 0.00244141C17.9641 0.00244141 17.9261 0.0112137 17.8914 0.0280938C17.8568 0.0449738 17.8264 0.0695189 17.8026 0.0998696C16.5527 1.64993 10.003 10.0503 10.003 14.0304C10.0049 15.0791 10.2134 16.1171 10.6165 17.0852C11.0196 18.0532 11.6094 18.9324 12.3522 19.6725C13.0951 20.4127 13.9764 20.9992 14.9459 21.3987C15.9154 21.7982 16.9541 22.0028 18.0026 22.0008ZM39.0018 29.0011H25.5023C24.5755 29.0055 23.6879 29.3757 23.0325 30.0312C22.3771 30.6866 22.0069 31.5743 22.0025 32.5012C22.0035 33.4292 22.3726 34.3188 23.0287 34.975C23.6848 35.6312 24.5744 36.0003 25.5023 36.0014H31.0021C31.5313 36.0053 32.0377 36.2173 32.4119 36.5915C32.7861 36.9658 32.9981 37.4722 33.002 38.0014C33.0004 38.5314 32.7892 39.0392 32.4145 39.414C32.0398 39.7887 31.532 39.9999 31.0021 40.0015H22.0025C21.4152 39.9957 20.8488 39.7832 20.4025 39.4015L6.8131 26.171C6.41624 25.7757 5.94109 25.4678 5.41819 25.2671C4.89528 25.0665 4.33618 24.9774 3.7768 25.0056C3.21742 25.0339 2.67014 25.1788 2.17012 25.4312C1.67009 25.6836 1.22837 26.0377 0.873351 26.471C0.250121 27.2732 -0.0547823 28.2774 0.0171981 29.2908C0.0891784 30.3041 0.532967 31.2551 1.26333 31.9612L16.4927 46.8318C16.8644 47.2032 17.3057 47.4976 17.7912 47.6984C18.2768 47.8992 18.7972 48.0023 19.3226 48.0019H39.0018C41.3886 48.0019 43.6777 47.0536 45.3655 45.3657C47.0532 43.6778 48.0014 41.3885 48.0014 39.0015V38.0014C48.0014 35.6144 47.0532 33.3251 45.3655 31.6372C43.6777 29.9493 41.3886 29.0011 39.0018 29.0011Z" fill="black"/>
</g>
<defs>
<clipPath id="clip0_6013_52475">
<rect width="48" height="48" fill="white" transform="translate(0.000976562 0.00195312)"/>
</clipPath>
</defs>
</svg>
