<svg width="48" height="48" viewBox="0 0 48 48" fill="none" xmlns="http://www.w3.org/2000/svg">
<g clip-path="url(#clip0_6013_52478)">
<path d="M36.481 0.00195312H12.481C11.7172 0.00195313 10.9846 0.159988 10.4445 0.441293C9.9044 0.722597 9.60098 1.10413 9.60098 1.50195C9.60098 1.89978 9.9044 2.28131 10.4445 2.56261C10.9846 2.84392 11.7172 3.00195 12.481 3.00195H19.201V12.002H11.521C11.0122 12.0027 10.5248 12.1084 10.165 12.2957C9.80527 12.4831 9.6025 12.737 9.60098 13.002V17.002H3.84098C2.82348 17.0035 1.84853 17.2148 1.12904 17.5895C0.409561 17.9642 0.0040154 18.472 0.000976562 19.002L0.000976563 46.002C0.0040154 46.5319 0.409561 47.0397 1.12904 47.4144C1.84853 47.7891 2.82348 48.0004 3.84098 48.002H40.321C41.3385 48.0004 42.3134 47.7891 43.0329 47.4144C43.7524 47.0397 44.1579 46.5319 44.161 46.002V19.002C44.1579 18.472 43.7524 17.9642 43.0329 17.5895C42.3134 17.2148 41.3385 17.0035 40.321 17.002H34.561V13.002C34.5595 12.737 34.3567 12.4831 33.9969 12.2957C33.6372 12.1084 33.1497 12.0027 32.641 12.002H24.961V3.00195H36.481C40.1866 3.00195 42.241 4.57195 42.241 6.50195C42.241 6.89978 42.5444 7.28131 43.0845 7.56261C43.6246 7.84392 44.3572 8.00195 45.121 8.00195C45.8848 8.00195 46.6173 7.84392 47.1574 7.56261C47.6975 7.28131 48.001 6.89978 48.001 6.50195C48.001 2.92195 43.3546 0.00195312 36.481 0.00195312Z" fill="black"/>
</g>
<defs>
<clipPath id="clip0_6013_52478">
<rect width="48" height="48" fill="white" transform="translate(0.000976562 0.00195312)"/>
</clipPath>
</defs>
</svg>
