<svg width="48" height="48" viewBox="0 0 48 48" fill="none" xmlns="http://www.w3.org/2000/svg">
<g clip-path="url(#clip0_6013_52480)">
<path d="M8.99966 39.009C11.5235 41.4927 14.8821 42.9488 18.4215 43.0938C21.9608 43.2388 25.4274 42.0623 28.1463 39.7933C28.2573 39.7013 28.3474 39.5867 28.4103 39.457C28.4733 39.3273 28.5078 39.1857 28.5114 39.0416C28.515 38.8975 28.4876 38.7543 28.4312 38.6216C28.3748 38.489 28.2906 38.3699 28.1843 38.2725L8.73367 20.6875C8.63198 20.5974 8.5132 20.5287 8.38439 20.4855C8.25559 20.4423 8.11941 20.4254 7.98394 20.4358C7.84847 20.4463 7.71648 20.4838 7.59584 20.5463C7.4752 20.6087 7.36836 20.6948 7.2817 20.7994C2.63579 26.2271 3.78677 33.8011 8.99966 39.009ZM47.9009 19.4065C46.4037 14.9152 43.8823 10.833 40.5357 7.48228C37.1892 4.13152 33.109 1.60385 28.6173 0.0987588C28.1127 -0.0650153 27.5637 -0.0217988 27.091 0.218901C26.6183 0.459601 26.2607 0.878067 26.0968 1.38224C25.9329 1.88642 25.9762 2.435 26.217 2.90731C26.4579 3.37963 26.8767 3.73697 27.3813 3.90075C31.2753 5.20589 34.8124 7.39762 37.7133 10.3029C40.6142 13.2082 42.7996 16.7475 44.0969 20.6415C44.1759 20.8937 44.3042 21.1277 44.4743 21.3301C44.6444 21.5324 44.853 21.699 45.088 21.8203C45.323 21.9415 45.5797 22.015 45.8433 22.0365C46.1069 22.0579 46.3721 22.0269 46.6236 21.9452C46.8751 21.8636 47.108 21.7329 47.3086 21.5607C47.5092 21.3885 47.6737 21.1783 47.7925 20.9422C47.9113 20.7061 47.982 20.4488 48.0006 20.1852C48.0192 19.9216 47.9853 19.6569 47.9009 19.4065ZM25.7673 7.18815C25.5242 7.08355 25.2627 7.02822 24.9979 7.02538C24.7332 7.02253 24.4706 7.07223 24.2253 7.17159C23.9799 7.27094 23.7568 7.41797 23.5687 7.60416C23.3807 7.79035 23.2315 8.01199 23.1299 8.25623C23.0282 8.50046 22.9761 8.76244 22.9765 9.02696C22.9769 9.29147 23.0299 9.55328 23.1324 9.79718C23.2348 10.0411 23.3847 10.2622 23.5734 10.4478C23.762 10.6334 23.9857 10.7797 24.2313 10.8782C27.1672 12.0094 29.8336 13.7424 32.0587 15.9654C34.2839 18.1885 36.0185 20.8526 37.1511 23.786C37.2515 24.0285 37.3988 24.2488 37.5845 24.4345C37.7702 24.6201 37.9906 24.7673 38.2333 24.8678C38.4759 24.9683 38.736 25.0201 38.9986 25.0201C39.2613 25.0202 39.5213 24.9685 39.764 24.8682C40.0067 24.7678 40.2272 24.6206 40.413 24.4351C40.5987 24.2495 40.7461 24.0293 40.8467 23.7868C40.9472 23.5444 40.999 23.2845 40.9991 23.022C40.9991 22.7596 40.9475 22.4997 40.847 22.2572C39.5078 18.843 37.4771 15.7421 34.8821 13.149C32.2872 10.5559 29.1841 8.52654 25.7673 7.18815ZM22.9794 14.2855C22.518 14.0381 21.9779 13.9814 21.4752 14.1275C20.9724 14.2737 20.547 14.611 20.2904 15.067C20.0338 15.5231 19.9664 16.0615 20.1027 16.5667C20.239 17.0718 20.5681 17.5034 21.0194 17.7688C24.9272 19.8893 28.1359 23.0963 30.2572 27.0015C30.3854 27.2316 30.5579 27.4342 30.7647 27.5975C30.9715 27.7608 31.2085 27.8817 31.4622 27.9531C31.716 28.0246 31.9813 28.0452 32.243 28.0138C32.5047 27.9825 32.7577 27.8997 32.9873 27.7703C33.2169 27.6409 33.4186 27.4674 33.5809 27.2599C33.7431 27.0523 33.8627 26.8147 33.9328 26.5608C34.0029 26.3069 34.022 26.0416 33.9891 25.7803C33.9562 25.519 33.8719 25.2667 33.7411 25.038C31.253 20.5023 27.519 16.7709 22.9794 14.2855ZM24.4093 23.6111C24.2255 23.4237 24.0062 23.2748 23.7641 23.1731C23.522 23.0715 23.262 23.0191 22.9994 23.0191C22.7368 23.0191 22.4768 23.0715 22.2347 23.1731C21.9926 23.2748 21.7732 23.4237 21.5894 23.6111L18.7095 26.4889L21.6594 29.1767L24.4093 26.4289C24.5969 26.2453 24.7459 26.0261 24.8477 25.7841C24.9494 25.5422 25.0018 25.2824 25.0018 25.02C25.0018 24.7576 24.9494 24.4978 24.8477 24.2559C24.7459 24.014 24.5969 23.7948 24.4093 23.6111ZM6.78671 40.3909C6.69316 40.2716 6.57369 40.1752 6.43735 40.1089C6.30101 40.0426 6.15136 40.0081 5.99972 40.0081C5.84809 40.0081 5.69844 40.0426 5.5621 40.1089C5.42576 40.1752 5.30629 40.2716 5.21274 40.3909L0.212843 46.3901C0.098209 46.5377 0.0273019 46.7145 0.00817466 46.9004C-0.0109526 47.0863 0.0224664 47.2738 0.104637 47.4417C0.186807 47.6095 0.314435 47.751 0.473028 47.85C0.63162 47.949 0.814822 48.0016 1.00183 48.0018H10.9996C11.1867 48.0018 11.37 47.9494 11.5288 47.8504C11.6875 47.7515 11.8153 47.61 11.8976 47.4421C11.9799 47.2742 12.0134 47.0866 11.9943 46.9007C11.9752 46.7147 11.9043 46.5378 11.7896 46.3901L6.78671 40.3909Z" fill="black"/>
</g>
<defs>
<clipPath id="clip0_6013_52480">
<rect width="48" height="48" fill="white" transform="translate(0 0.00195312)"/>
</clipPath>
</defs>
</svg>
