<svg width="48" height="42" viewBox="0 0 48 42" fill="none" xmlns="http://www.w3.org/2000/svg">
<g clip-path="url(#clip0_6013_52483)">
<path d="M42.2857 0.00195312H37.7143V10.002C37.7143 10.2672 37.5939 10.5215 37.3796 10.7091C37.1652 10.8966 36.8745 11.002 36.5714 11.002H6.85714C6.55404 11.002 6.26335 10.8966 6.04902 10.7091C5.83469 10.5215 5.71429 10.2672 5.71429 10.002V0.00195312H2.28571C1.67951 0.00195313 1.09812 0.212667 0.66947 0.58774C0.240816 0.962812 0 1.47152 0 2.00195L0 40.002C0 40.5324 0.240816 41.0411 0.66947 41.4162C1.09812 41.7912 1.67951 42.002 2.28571 42.002H45.7143C46.3205 42.002 46.9019 41.7912 47.3305 41.4162C47.7592 41.0411 48 40.5324 48 40.002V5.00195L42.2857 0.00195312ZM42.2857 36.002C42.2857 36.2672 42.1653 36.5215 41.951 36.7091C41.7367 36.8966 41.446 37.002 41.1429 37.002H6.85714C6.55404 37.002 6.26335 36.8966 6.04902 36.7091C5.83469 36.5215 5.71429 36.2672 5.71429 36.002V18.002C5.71429 17.7367 5.83469 17.4824 6.04902 17.2948C6.26335 17.1073 6.55404 17.002 6.85714 17.002H41.1429C41.446 17.002 41.7367 17.1073 41.951 17.2948C42.1653 17.4824 42.2857 17.7367 42.2857 18.002V36.002Z" fill="black"/>
<path d="M8 0.00195312H35.4286V9.00195H8V0.00195312Z" fill="black"/>
</g>
<defs>
<clipPath id="clip0_6013_52483">
<rect width="48" height="42" fill="white" transform="translate(0 0.00195312)"/>
</clipPath>
</defs>
</svg>
