<svg width="48" height="48" viewBox="0 0 48 48" fill="none" xmlns="http://www.w3.org/2000/svg">
<g clip-path="url(#clip0_6013_52487)">
<path d="M44.5858 27.588L39.9998 32.174V15.002C39.9998 14.4715 39.7891 13.9628 39.4141 13.5877C39.039 13.2127 38.5303 13.002 37.9998 13.002C37.4694 13.002 36.9607 13.2127 36.5856 13.5877C36.2105 13.9628 35.9998 14.4715 35.9998 15.002V32.174L31.4138 27.588C31.0366 27.2236 30.5314 27.022 30.007 27.0266C29.4826 27.0312 28.981 27.2415 28.6102 27.6123C28.2394 27.9831 28.029 28.4848 28.0245 29.0092C28.0199 29.5335 28.2215 30.0387 28.5858 30.416L36.5858 38.416C36.9609 38.7909 37.4695 39.0015 37.9998 39.0015C38.5302 39.0015 39.0388 38.7909 39.4138 38.416L47.4138 30.416C47.7782 30.0387 47.9797 29.5335 47.9752 29.0092C47.9706 28.4848 47.7603 27.9831 47.3895 27.6123C47.0187 27.2415 46.517 27.0312 45.9926 27.0266C45.4682 27.022 44.963 27.2236 44.5858 27.588ZM9.99984 13.002C9.46941 13.002 8.9607 13.2127 8.58562 13.5877C8.21055 13.9628 7.99984 14.4715 7.99984 15.002V32.174L3.41384 27.588C3.03663 27.2236 2.53143 27.022 2.00704 27.0266C1.48264 27.0312 0.981017 27.2415 0.610201 27.6123C0.239384 27.9831 0.0290465 28.4848 0.0244897 29.0092C0.0199328 29.5335 0.221522 30.0387 0.585838 30.416L8.58584 38.416C8.96089 38.7909 9.46951 39.0015 9.99984 39.0015C10.5302 39.0015 11.0388 38.7909 11.4138 38.416L19.4138 30.416C19.7782 30.0387 19.9797 29.5335 19.9752 29.0092C19.9706 28.4848 19.7603 27.9831 19.3895 27.6123C19.0187 27.2415 18.517 27.0312 17.9926 27.0266C17.4682 27.022 16.963 27.2236 16.5858 27.588L11.9998 32.174V15.002C11.9998 14.4715 11.7891 13.9628 11.4141 13.5877C11.039 13.2127 10.5303 13.002 9.99984 13.002Z" fill="black"/>
<path d="M47 44.002H1C0.447715 44.002 0 44.4497 0 45.002V47.002C0 47.5542 0.447715 48.002 1 48.002H47C47.5523 48.002 48 47.5542 48 47.002V45.002C48 44.4497 47.5523 44.002 47 44.002Z" fill="black"/>
<path d="M47 0.00195312H1C0.447715 0.00195312 0 0.449668 0 1.00195V9.00195C0 9.55424 0.447715 10.002 1 10.002H47C47.5523 10.002 48 9.55424 48 9.00195V1.00195C48 0.449668 47.5523 0.00195312 47 0.00195312Z" fill="black"/>
</g>
<defs>
<clipPath id="clip0_6013_52487">
<rect width="48" height="48" fill="white" transform="translate(0 0.00195312)"/>
</clipPath>
</defs>
</svg>
