<svg width="48" height="48" viewBox="0 0 48 48" fill="none" xmlns="http://www.w3.org/2000/svg">
<g clip-path="url(#clip0_6013_52492)">
<path d="M9.99984 39.002C10.5303 39.002 11.039 38.7913 11.4141 38.4162C11.7891 38.0412 11.9998 37.5324 11.9998 37.002V19.83L16.5858 24.416C16.963 24.7803 17.4682 24.9819 17.9926 24.9774C18.517 24.9728 19.0187 24.7625 19.3895 24.3917C19.7603 24.0208 19.9706 23.5192 19.9752 22.9948C19.9797 22.4704 19.7782 21.9652 19.4138 21.588L11.4138 13.588C11.0388 13.2131 10.5302 13.0024 9.99984 13.0024C9.46951 13.0024 8.96089 13.2131 8.58584 13.588L0.585838 21.588C0.221522 21.9652 0.0199328 22.4704 0.0244897 22.9948C0.0290465 23.5192 0.239384 24.0208 0.610201 24.3917C0.981017 24.7625 1.48264 24.9728 2.00704 24.9774C2.53143 24.9819 3.03663 24.7803 3.41384 24.416L7.99984 19.83V37.002C7.99984 37.5324 8.21055 38.0412 8.58562 38.4162C8.9607 38.7913 9.46941 39.002 9.99984 39.002ZM39.4138 13.588C39.0388 13.2131 38.5302 13.0024 37.9998 13.0024C37.4695 13.0024 36.9609 13.2131 36.5858 13.588L28.5858 21.588C28.2215 21.9652 28.0199 22.4704 28.0245 22.9948C28.029 23.5192 28.2394 24.0208 28.6102 24.3917C28.981 24.7625 29.4826 24.9728 30.007 24.9774C30.5314 24.9819 31.0366 24.7803 31.4138 24.416L35.9998 19.83V37.002C35.9998 37.5324 36.2105 38.0412 36.5856 38.4162C36.9607 38.7913 37.4694 39.002 37.9998 39.002C38.5303 39.002 39.039 38.7913 39.4141 38.4162C39.7891 38.0412 39.9998 37.5324 39.9998 37.002V19.83L44.5858 24.416C44.963 24.7803 45.4682 24.9819 45.9926 24.9774C46.517 24.9728 47.0187 24.7625 47.3895 24.3917C47.7603 24.0208 47.9706 23.5192 47.9752 22.9948C47.9797 22.4704 47.7782 21.9652 47.4138 21.588L39.4138 13.588Z" fill="black"/>
<path d="M47 44.002H1C0.447715 44.002 0 44.4497 0 45.002V47.002C0 47.5542 0.447715 48.002 1 48.002H47C47.5523 48.002 48 47.5542 48 47.002V45.002C48 44.4497 47.5523 44.002 47 44.002Z" fill="black"/>
<path d="M47 0.00195312H1C0.447715 0.00195312 0 0.449668 0 1.00195V9.00195C0 9.55424 0.447715 10.002 1 10.002H47C47.5523 10.002 48 9.55424 48 9.00195V1.00195C48 0.449668 47.5523 0.00195312 47 0.00195312Z" fill="black"/>
</g>
<defs>
<clipPath id="clip0_6013_52492">
<rect width="48" height="48" fill="white" transform="translate(0 0.00195312)"/>
</clipPath>
</defs>
</svg>
