<svg width="48" height="48" viewBox="0 0 48 48" fill="none" xmlns="http://www.w3.org/2000/svg">
<g clip-path="url(#clip0_6013_52497)">
<path d="M10 20.002C11.9778 20.002 13.9112 19.4155 15.5557 18.3167C17.2002 17.2178 18.4819 15.6561 19.2388 13.8288C19.9957 12.0015 20.1937 9.99086 19.8079 8.05105C19.422 6.11125 18.4696 4.32941 17.0711 2.93089C15.6725 1.53236 13.8907 0.579957 11.9509 0.194105C10.0111 -0.191747 8.00043 0.00628597 6.17317 0.763162C4.3459 1.52004 2.78412 2.80176 1.6853 4.44626C0.58649 6.09075 0 8.02415 0 10.002C0.0010601 12.6538 1.05497 15.1967 2.9301 17.0719C4.80524 18.947 7.34816 20.0009 10 20.002ZM9 4.00196C9 3.73674 9.10536 3.48239 9.29289 3.29485C9.48043 3.10731 9.73478 3.00196 10 3.00196C10.2652 3.00196 10.5196 3.10731 10.7071 3.29485C10.8946 3.48239 11 3.73674 11 4.00196V12.002C11 12.2672 10.8946 12.5215 10.7071 12.7091C10.5196 12.8966 10.2652 13.002 10 13.002C9.73478 13.002 9.48043 12.8966 9.29289 12.7091C9.10536 12.5215 9 12.2672 9 12.002V4.00196ZM10 15.002C10.1978 15.002 10.3911 15.0606 10.5556 15.1705C10.72 15.2804 10.8482 15.4365 10.9239 15.6193C10.9996 15.802 11.0194 16.0031 10.9808 16.197C10.9422 16.391 10.847 16.5692 10.7071 16.7091C10.5673 16.8489 10.3891 16.9442 10.1951 16.9827C10.0011 17.0213 9.80004 17.0015 9.61732 16.9258C9.43459 16.8501 9.27841 16.722 9.16853 16.5575C9.05865 16.3931 9 16.1997 9 16.002C9.00079 15.737 9.1064 15.4831 9.29377 15.2957C9.48113 15.1084 9.73503 15.0027 10 15.002ZM46.5 45.002H1.5C1.10218 45.002 0.720644 45.16 0.43934 45.4413C0.158035 45.7226 0 46.1041 0 46.502C0 46.8998 0.158035 47.2813 0.43934 47.5626C0.720644 47.8439 1.10218 48.002 1.5 48.002H46.5C46.8978 48.002 47.2794 47.8439 47.5607 47.5626C47.842 47.2813 48 46.8998 48 46.502C48 46.1041 47.842 45.7226 47.5607 45.4413C47.2794 45.16 46.8978 45.002 46.5 45.002Z" fill="black"/>
<path d="M13 22.652V27.002C12.9992 27.2669 12.8936 27.5208 12.7062 27.7082C12.5189 27.8955 12.265 28.0012 12 28.002H10C9.73503 28.0012 9.48113 27.8955 9.29377 27.7082C9.1064 27.5208 9.00079 27.2669 9 27.002V22.962C7.25403 22.8269 5.55334 22.3405 4 21.532V43.002H20V33.002C20.0016 32.472 20.2128 31.9642 20.5875 31.5895C20.9623 31.2148 21.4701 31.0035 22 31.002H26C26.5299 31.0035 27.0377 31.2148 27.4125 31.5895C27.7872 31.9642 27.9984 32.472 28 33.002V43.002H44V18.002C43.9992 17.737 43.8936 17.4831 43.7062 17.2957C43.5189 17.1084 43.265 17.0027 43 17.002H33L26 11.752V8.00195H35V2.00195H26C26 1.47152 25.7893 0.962812 25.4142 0.58774C25.0391 0.212667 24.5304 0.00195313 24 0.00195312C23.4696 0.00195313 22.9609 0.212667 22.5858 0.58774C22.2107 0.962812 22 1.47152 22 2.00195V4.99195C22.7249 6.73221 23.063 8.60923 22.9908 10.4931C22.9186 12.3769 22.4379 14.2225 21.5819 15.9022C20.7259 17.5819 19.5151 19.0554 18.0333 20.2209C16.5515 21.3863 14.8341 22.2158 13 22.652ZM13 38.002C12.9992 38.2669 12.8936 38.5208 12.7062 38.7082C12.5189 38.8956 12.265 39.0012 12 39.002H10C9.73503 39.0012 9.48113 38.8956 9.29377 38.7082C9.1064 38.5208 9.00079 38.2669 9 38.002V33.002C9.00079 32.737 9.1064 32.4831 9.29377 32.2957C9.48113 32.1084 9.73503 32.0027 10 32.002H12C12.265 32.0027 12.5189 32.1084 12.7062 32.2957C12.8936 32.4831 12.9992 32.737 13 33.002V38.002ZM35 22.002C35.0008 21.737 35.1064 21.4831 35.2938 21.2957C35.4811 21.1084 35.735 21.0027 36 21.002H38C38.265 21.0027 38.5189 21.1084 38.7062 21.2957C38.8936 21.4831 38.9992 21.737 39 22.002V27.002C38.9992 27.2669 38.8936 27.5208 38.7062 27.7082C38.5189 27.8955 38.265 28.0012 38 28.002H36C35.735 28.0012 35.4811 27.8955 35.2938 27.7082C35.1064 27.5208 35.0008 27.2669 35 27.002V22.002ZM35 33.002C35.0008 32.737 35.1064 32.4831 35.2938 32.2957C35.4811 32.1084 35.735 32.0027 36 32.002H38C38.265 32.0027 38.5189 32.1084 38.7062 32.2957C38.8936 32.4831 38.9992 32.737 39 33.002V38.002C38.9992 38.2669 38.8936 38.5208 38.7062 38.7082C38.5189 38.8956 38.265 39.0012 38 39.002H36C35.735 39.0012 35.4811 38.8956 35.2938 38.7082C35.1064 38.5208 35.0008 38.2669 35 38.002V33.002ZM28 21.002C28 21.7931 27.7654 22.5664 27.3259 23.2242C26.8864 23.882 26.2616 24.3947 25.5307 24.6975C24.7998 25.0002 23.9956 25.0794 23.2196 24.9251C22.4437 24.7708 21.731 24.3898 21.1716 23.8304C20.6122 23.271 20.2312 22.5582 20.0769 21.7823C19.9225 21.0064 20.0017 20.2021 20.3045 19.4712C20.6072 18.7403 21.1199 18.1156 21.7777 17.6761C22.4355 17.2365 23.2089 17.002 24 17.002C25.0609 17.002 26.0783 17.4234 26.8284 18.1735C27.5786 18.9237 28 19.9411 28 21.002Z" fill="black"/>
</g>
<defs>
<clipPath id="clip0_6013_52497">
<rect width="48" height="48" fill="white" transform="translate(0 0.00195312)"/>
</clipPath>
</defs>
</svg>
