<svg width="48" height="48" viewBox="0 0 48 48" fill="none" xmlns="http://www.w3.org/2000/svg">
<g clip-path="url(#clip0_6013_52519)">
<path d="M46.8287 41.1742L38.3997 32.7462C41.3245 28.4147 42.5306 23.1489 41.7825 17.9762C41.0345 12.8035 38.3861 8.09512 34.3541 4.76967C30.322 1.44421 25.1956 -0.259698 19.9751 -0.00959455C14.7546 0.240509 9.81461 2.42668 6.11894 6.12236C2.42326 9.81803 0.237091 14.7581 -0.0130125 19.9785C-0.263116 25.199 1.44079 30.3254 4.76625 34.3575C8.0917 38.3895 12.8001 41.0379 17.9728 41.7859C23.1455 42.534 28.4113 41.3279 32.7427 38.4032L41.1697 46.8302C41.9198 47.5805 42.9371 48.0021 43.998 48.0023C45.0589 48.0024 46.0764 47.5812 46.8267 46.8312C47.577 46.0811 47.9987 45.0638 47.9988 44.0029C47.999 42.942 47.5788 41.9245 46.8287 41.1742ZM7.99974 21.0022C7.9978 18.8718 8.51945 16.7736 9.51879 14.8921C10.5181 13.0107 11.9645 11.4037 13.7307 10.2125C15.497 9.02129 17.5289 8.2824 19.6477 8.06083C21.7665 7.83926 23.9073 8.1418 25.8817 8.94184C27.8562 9.74188 29.6037 11.0149 30.9707 12.6489C32.3377 14.2829 33.2821 16.2278 33.7209 18.3124C34.1598 20.3971 34.0796 22.5577 33.4874 24.6041C32.8951 26.6505 31.8091 28.52 30.3247 30.0482C30.2747 30.0932 30.2187 30.1262 30.1707 30.1742C30.1227 30.2222 30.0907 30.2782 30.0457 30.3282C28.2138 32.1083 25.8977 33.3089 23.387 33.7799C20.8764 34.2508 18.2826 33.9712 15.9301 32.976C13.5775 31.9808 11.5705 30.3142 10.16 28.1845C8.74948 26.0548 7.99808 23.5566 7.99974 21.0022Z" fill="black"/>
</g>
<defs>
<clipPath id="clip0_6013_52519">
<rect width="48" height="48" fill="white" transform="translate(0 0.00195312)"/>
</clipPath>
</defs>
</svg>
