<svg width="48" height="42" viewBox="0 0 48 42" fill="none" xmlns="http://www.w3.org/2000/svg">
<g clip-path="url(#clip0_6013_52516)">
<path d="M46.785 2.97514L24.285 0.0238763C24.0978 -0.0066567 23.9022 -0.0066567 23.715 0.0238763L1.215 2.97514C0.873428 3.01923 0.565455 3.14113 0.343807 3.31999C0.122159 3.49884 0.00062081 3.72352 0 3.95556L0 24.1442C0 34.0084 10.95 42.0019 24 42.0019C37.05 42.0019 48 34.0084 48 24.1442V3.95656C47.9994 3.72452 47.8778 3.49984 47.6562 3.32099C47.4345 3.14213 47.1266 3.02023 46.785 2.97614M14.538 12.7673C14.677 12.5111 14.9179 12.2849 15.235 12.113C15.5522 11.9412 15.9335 11.8302 16.338 11.7919L23.841 11.0766L20.3445 18.0696L14.5605 14.213C14.3713 14.0928 14.1371 14.0088 13.8825 13.9699L14.538 12.7673ZM39 21.6211C39.0004 21.9826 38.8052 22.3319 38.4502 22.6051C38.0953 22.8782 37.6045 23.0567 37.068 23.1078L28.5 23.9241L27 29.9267L15 30.9271L9 22.9237L12.834 15.8907L19.9395 20.6297C20.2207 20.8173 20.6022 20.9228 21 20.9228C21.1161 20.9231 21.2319 20.9144 21.345 20.8968C21.5936 20.8575 21.823 20.7765 22.0115 20.6615C22.2 20.5464 22.3413 20.4012 22.422 20.2395L26.685 11.7089L31.5 14.9203L37.1925 15.6806C37.7018 15.7487 38.1601 15.9323 38.4896 16.2002C38.8191 16.4681 38.9994 16.8037 39 17.1502V21.6211Z" fill="black"/>
</g>
<defs>
<clipPath id="clip0_6013_52516">
<rect width="48" height="42" fill="white" transform="translate(0 0.00195312)"/>
</clipPath>
</defs>
</svg>
