<svg width="48" height="48" viewBox="0 0 48 48" fill="none" xmlns="http://www.w3.org/2000/svg">
<g clip-path="url(#clip0_6013_52521)">
<path d="M48 9.97196V30.152C48 40.012 40.0364 48.002 30.5455 48.002C21.0545 48.002 13.0909 40.012 13.0909 30.152V22.832C15.0203 22.5644 16.8682 21.9329 18.5179 20.9774C20.1675 20.0219 21.583 18.7631 22.6748 17.2805C23.7667 15.798 24.5112 14.124 24.8614 12.3643C25.2115 10.6045 25.1597 8.79738 24.7091 7.05696L30.3382 6.04196C30.4744 6.01144 30.6166 6.01144 30.7527 6.04196L47.1164 8.99196C47.3648 9.03603 47.5888 9.15788 47.75 9.33666C47.9112 9.51544 47.9995 9.74002 48 9.97196ZM0 10.002C0 8.02415 0.639807 6.09075 1.83851 4.44626C3.03722 2.80176 4.74099 1.52004 6.73436 0.763162C8.72774 0.00628597 10.9212 -0.191747 13.0373 0.194105C15.1535 0.579957 17.0973 1.53236 18.623 2.93089C20.1486 4.32941 21.1876 6.11125 21.6086 8.05105C22.0295 9.99086 21.8135 12.0015 20.9878 13.8288C20.1621 15.6561 18.7638 17.2178 16.9699 18.3167C15.1759 19.4155 13.0667 20.002 10.9091 20.002C8.01618 20.0009 5.24208 18.947 3.19648 17.0719C1.15088 15.1967 0.00115647 12.6538 0 10.002ZM4.68 10.712L7.95273 13.712C8.15992 13.8973 8.43777 14.0013 8.72727 14.002C8.98729 14.002 9.23875 13.9169 9.43636 13.762L17.0727 7.76196C17.1816 7.6766 17.2711 7.57242 17.336 7.45536C17.401 7.33831 17.4402 7.21067 17.4513 7.07974C17.4624 6.94881 17.4453 6.81715 17.401 6.69228C17.3566 6.5674 17.2858 6.45176 17.1927 6.35196C17.0996 6.25215 16.986 6.17014 16.8583 6.1106C16.7306 6.05105 16.5913 6.01515 16.4485 6.00494C16.16 5.98431 15.8744 6.06957 15.6545 6.24196L8.78182 11.642L6.22909 9.29196C6.02367 9.10365 5.74506 8.99787 5.45455 8.99787C5.16403 8.99787 4.88542 9.10365 4.68 9.29196C4.47458 9.48026 4.35917 9.73566 4.35917 10.002C4.35917 10.2683 4.47458 10.5237 4.68 10.712Z" fill="black"/>
</g>
<defs>
<clipPath id="clip0_6013_52521">
<rect width="48" height="48" fill="white" transform="translate(0 0.00195312)"/>
</clipPath>
</defs>
</svg>
