<svg width="48" height="30" viewBox="0 0 48 30" fill="none" xmlns="http://www.w3.org/2000/svg">
<g clip-path="url(#clip0_6013_52525)">
<path d="M47.3837 12.806C41.9167 3.77695 33.8307 0.00195312 23.9997 0.00195312C14.1687 0.00195312 6.08272 3.77695 0.616722 12.805C0.213086 13.4664 -0.000623336 14.2263 -0.000976125 15.0012C-0.00132891 15.7761 0.211689 16.5361 0.614722 17.198C6.08272 26.227 14.1677 30.002 23.9997 30.002C33.8317 30.002 41.9167 26.227 47.3837 17.198C47.7869 16.5364 48.0001 15.7767 48.0001 15.002C48.0001 14.2273 47.7869 13.4675 47.3837 12.806ZM23.9997 23.002C22.4175 23.002 20.8708 22.5328 19.5552 21.6537C18.2396 20.7747 17.2142 19.5252 16.6087 18.0634C16.0032 16.6016 15.8448 14.9931 16.1534 13.4412C16.4621 11.8894 17.224 10.4639 18.3429 9.3451C19.4617 8.22628 20.8872 7.46435 22.439 7.15567C23.9908 6.84699 25.5994 7.00542 27.0612 7.61092C28.523 8.21642 29.7724 9.2418 30.6515 10.5574C31.5305 11.873 31.9997 13.4197 31.9997 15.002C31.9997 17.1237 31.1569 19.1585 29.6566 20.6588C28.1563 22.1591 26.1215 23.002 23.9997 23.002Z" fill="black"/>
</g>
<defs>
<clipPath id="clip0_6013_52525">
<rect width="48" height="30" fill="white" transform="translate(0 0.00195312)"/>
</clipPath>
</defs>
</svg>
