<svg width="48" height="37" viewBox="0 0 48 37" fill="none" xmlns="http://www.w3.org/2000/svg">
<g clip-path="url(#clip0_6013_52527)">
<path d="M18.9995 37.0021C18.432 37.0021 17.871 36.8814 17.3538 36.6479C16.8366 36.4145 16.3749 36.0736 15.9995 35.6481L0.999526 18.6481C0.29763 17.8524 -0.059447 16.8105 0.00684712 15.7516C0.0731412 14.6927 0.557376 13.7035 1.35303 13.0016C2.14867 12.2997 3.19056 11.9426 4.24949 12.0089C5.30841 12.0752 6.29763 12.5594 6.99953 13.3551L18.9645 26.9151L40.9695 1.39105C41.6621 0.587448 42.6456 0.0918952 43.7036 0.0134112C44.7616 -0.0650727 45.8074 0.279941 46.611 0.972554C47.4146 1.66517 47.9102 2.64864 47.9887 3.70663C48.0672 4.76462 47.7221 5.81045 47.0295 6.61405L22.0295 35.6141C21.6565 36.0467 21.1951 36.3945 20.6764 36.6339C20.1577 36.8733 19.5938 36.9988 19.0225 37.0021H18.9995Z" fill="black"/>
</g>
<defs>
<clipPath id="clip0_6013_52527">
<rect width="48" height="37" fill="white" transform="translate(0 0.00195312)"/>
</clipPath>
</defs>
</svg>
