<svg width="48" height="48" viewBox="0 0 48 48" fill="none" xmlns="http://www.w3.org/2000/svg">
<g clip-path="url(#clip0_6013_52529)">
<path d="M15.871 25.3949C15.589 25.1149 15.2078 24.9578 14.8105 24.9578C14.4131 24.9578 14.0319 25.1149 13.75 25.3949L1.74996 37.3949C0.629701 38.5227 0.000976563 40.0478 0.000976562 41.6374C0.000976563 43.2271 0.629701 44.7521 1.74996 45.8799L2.12196 46.2519C3.24979 47.3725 4.7751 48.0014 6.36496 48.0014C7.95482 48.0014 9.48013 47.3725 10.608 46.2519L22.608 34.2519C22.8882 33.9701 23.0455 33.5889 23.0455 33.1914C23.0455 32.794 22.8882 32.4127 22.608 32.1309L15.871 25.3949ZM30.466 21.0699L38.405 13.1319L43.855 12.3769C44.1431 12.3373 44.4173 12.2284 44.6541 12.0597C44.891 11.8909 45.0834 11.6673 45.215 11.4079L47.776 6.38194C47.9485 6.04197 48.0093 5.6562 47.9497 5.27964C47.8901 4.90308 47.7131 4.55497 47.444 4.28493L43.717 0.557935C43.4473 0.288124 43.0992 0.110662 42.7224 0.0510157C42.3457 -0.00863071 41.9597 0.052605 41.62 0.225935L36.594 2.78593C36.3343 2.91767 36.1105 3.11042 35.9418 3.34764C35.773 3.58486 35.6643 3.85947 35.625 4.14793L34.87 9.59593L26.931 17.5359L30.466 21.0699Z" fill="black"/>
<path d="M35.903 30.5428L17.443 12.0848C17.976 10.6241 18.1215 9.05032 17.8653 7.51672C17.6092 5.98312 16.9601 4.54204 15.9813 3.33393C15.0025 2.12582 13.7274 1.1919 12.2803 0.623177C10.8332 0.054455 9.26342 -0.129663 7.72399 0.088766C7.53987 0.116439 7.36705 0.194662 7.22475 0.314729C7.08246 0.434795 6.97628 0.591995 6.91802 0.768829C6.85977 0.945663 6.85173 1.13519 6.8948 1.31633C6.93788 1.49746 7.03037 1.66308 7.16199 1.79477L11.024 5.65677C11.707 6.34107 12.0906 7.26842 12.0906 8.23527C12.0906 9.20211 11.707 10.1295 11.024 10.8138L10.804 11.0338C10.4654 11.3725 10.0634 11.6413 9.6209 11.8247C9.17843 12.0081 8.70417 12.1025 8.22519 12.1026C7.74622 12.1027 7.27192 12.0085 6.82937 11.8252C6.38683 11.642 5.98471 11.3734 5.64599 11.0348L1.79199 7.18177C1.6604 7.05047 1.49501 6.9582 1.31417 6.91519C1.13333 6.87218 0.944104 6.88012 0.7675 6.93813C0.590895 6.99613 0.433816 7.10193 0.313692 7.24379C0.193567 7.38565 0.115096 7.55802 0.0869865 7.74177C-0.129532 9.27819 0.0552889 10.8445 0.623469 12.2883C1.19165 13.7321 2.12385 15.0043 3.32938 15.9812C4.53491 16.958 5.97274 17.6061 7.503 17.8626C9.03326 18.1191 10.6038 17.9751 12.062 17.4448L30.542 35.9248C30.011 37.3858 29.8674 38.9594 30.1252 40.4924C30.383 42.0254 31.0334 43.4655 32.013 44.6725C32.9926 45.8795 34.2682 46.8122 35.7153 47.3799C37.1625 47.9476 38.732 48.1308 40.271 47.9118C40.4547 47.8835 40.6269 47.8049 40.7686 47.6847C40.9104 47.5646 41.016 47.4075 41.0739 47.2309C41.1318 47.0543 41.1397 46.8651 41.0966 46.6844C41.0536 46.5036 40.9613 46.3383 40.83 46.2068L37.414 42.7908C37.0865 42.4633 36.8267 42.0746 36.6495 41.6468C36.4722 41.2189 36.381 40.7604 36.381 40.2973C36.381 39.8342 36.4722 39.3756 36.6495 38.9478C36.8267 38.5199 37.0865 38.1312 37.414 37.8038L37.794 37.4238C38.1215 37.0962 38.5103 36.8364 38.9382 36.6592C39.3662 36.4819 39.8248 36.3907 40.288 36.3907C40.7512 36.3907 41.2098 36.4819 41.6377 36.6592C42.0657 36.8364 42.4545 37.0962 42.782 37.4238L46.202 40.8418C46.3334 40.973 46.4985 41.0653 46.6791 41.1085C46.8598 41.1516 47.0488 41.144 47.2254 41.0863C47.4019 41.0286 47.559 40.9232 47.6793 40.7818C47.7996 40.6403 47.8784 40.4683 47.907 40.2848C48.1297 38.7428 47.9485 37.1695 47.3811 35.7186C46.8137 34.2676 45.8794 32.9888 44.6698 32.007C43.4601 31.0253 42.0163 30.3743 40.4797 30.1176C38.943 29.861 37.3661 30.0075 35.903 30.5428Z" fill="black"/>
</g>
<defs>
<clipPath id="clip0_6013_52529">
<rect width="48" height="48" fill="white" transform="translate(0 0.00195312)"/>
</clipPath>
</defs>
</svg>
