<svg width="48" height="48" viewBox="0 0 48 48" fill="none" xmlns="http://www.w3.org/2000/svg">
<g clip-path="url(#clip0_6013_52535)">
<path d="M0 22.002C0 22.5324 0.38901 23.0411 1.08145 23.4162C1.77389 23.7912 2.71305 24.002 3.69231 24.002C4.67157 24.002 5.61072 23.7912 6.30316 23.4162C6.99561 23.0411 7.38462 22.5324 7.38462 22.002C7.38462 20.4596 8.2743 18.9558 9.9293 17.7008C11.5843 16.4457 13.9219 15.5022 16.6154 15.002L9.23077 33.982C9.20264 34.117 9.23011 34.2538 9.3112 34.3824C9.39229 34.511 9.52498 34.6283 9.69974 34.7258C9.8745 34.8234 10.087 34.8987 10.3219 34.9465C10.5569 34.9942 10.8084 35.0131 11.0585 35.002H14.7508V46.002C14.7508 46.5324 15.1398 47.0411 15.8322 47.4162C16.5247 47.7912 17.4638 48.002 18.4431 48.002C19.4223 48.002 20.3615 47.7912 21.0539 47.4162C21.7464 47.0411 22.1354 46.5324 22.1354 46.002V10.002C9.19385 10.432 0 15.362 0 22.002ZM16.5969 4.00195C16.5904 4.90437 17.1277 5.78329 18.1273 6.50523C19.1269 7.22717 20.5342 7.75268 22.1354 8.00195V0.00195313C20.5342 0.251228 19.1269 0.776741 18.1273 1.49868C17.1277 2.22062 16.5904 3.09954 16.5969 4.00195ZM25.8646 10.002V46.002C25.8646 46.2646 25.9601 46.5247 26.1457 46.7673C26.3312 47.01 26.6032 47.2304 26.9461 47.4162C27.2889 47.6019 27.696 47.7492 28.1439 47.8497C28.5919 47.9502 29.072 48.002 29.5569 48.002C30.0418 48.002 30.5219 47.9502 30.9699 47.8497C31.4179 47.7492 31.8249 47.6019 32.1678 47.4162C32.5106 47.2304 32.7826 47.01 32.9682 46.7673C33.1537 46.5247 33.2492 46.2646 33.2492 46.002V15.002C35.5289 15.7001 37.4173 16.7194 38.7142 17.9518C40.011 19.1842 40.668 20.5837 40.6154 22.002C40.6154 22.5324 41.0044 23.0411 41.6968 23.4162C42.3893 23.7912 43.3284 24.002 44.3077 24.002C45.287 24.002 46.2261 23.7912 46.9185 23.4162C47.611 23.0411 48 22.5324 48 22.002C48 15.362 38.7877 10.432 25.8646 10.002ZM31.4031 4.00195C31.4096 3.09954 30.8723 2.22062 29.8727 1.49868C28.8731 0.776741 27.4658 0.251228 25.8646 0.00195312V8.00195C27.4658 7.75268 28.8731 7.22717 29.8727 6.50523C30.8723 5.78329 31.4096 4.90437 31.4031 4.00195Z" fill="black"/>
</g>
<defs>
<clipPath id="clip0_6013_52535">
<rect width="48" height="48" fill="white" transform="translate(0 0.00195312)"/>
</clipPath>
</defs>
</svg>
