<svg width="48" height="42" viewBox="0 0 48 42" fill="none" xmlns="http://www.w3.org/2000/svg">
<g clip-path="url(#clip0_6013_52538)">
<path d="M44.5207 3.95162L44.1506 3.57164C43.0592 2.4425 41.7516 1.54455 40.3058 0.931275C38.8601 0.318002 37.3056 0.00195312 35.7351 0.00195312C34.1646 0.00195312 32.6102 0.318002 31.1644 0.931275C29.7186 1.54455 28.411 2.4425 27.3196 3.57164L23.9994 7.00148L20.6892 3.57164C19.5977 2.4425 18.2902 1.54455 16.8444 0.931275C15.3986 0.318002 13.8441 0.00195312 12.2736 0.00195312C10.7031 0.00195312 9.14869 0.318002 7.7029 0.931275C6.25712 1.54455 4.94956 2.4425 3.85812 3.57164L3.48809 3.95162C1.25109 6.26353 0.000488281 9.35439 0.000488281 12.5712C0.000488281 15.788 1.25109 18.8789 3.48809 21.1908L23.1093 41.6198C23.2229 41.7406 23.3601 41.8368 23.5123 41.9026C23.6645 41.9684 23.8286 42.0023 23.9944 42.0023C24.1602 42.0023 24.3243 41.9684 24.4765 41.9026C24.6287 41.8368 24.7658 41.7406 24.8794 41.6198L44.5207 21.1908C46.7532 18.8766 48.0008 15.7866 48.0008 12.5712C48.0008 9.35581 46.7532 6.26581 44.5207 3.95162ZM31.4098 22.4107C31.2267 22.599 31.0073 22.7483 30.765 22.8496C30.5227 22.951 30.2624 23.0024 29.9997 23.0007H25.9995V27.0005C25.9995 27.5309 25.7888 28.0396 25.4137 28.4147C25.0386 28.7897 24.5298 29.0004 23.9994 29.0004C23.4689 29.0004 22.9602 28.7897 22.5851 28.4147C22.21 28.0396 21.9992 27.5309 21.9992 27.0005V23.0007H17.999C17.4685 23.0007 16.9598 22.79 16.5847 22.415C16.2096 22.0399 15.9989 21.5312 15.9989 21.0008C15.9989 20.4704 16.2096 19.9617 16.5847 19.5867C16.9598 19.2116 17.4685 19.0009 17.999 19.0009H21.9992V15.0011C21.9994 14.6061 22.1165 14.2201 22.3357 13.8915C22.5549 13.5629 22.8664 13.3066 23.2311 13.1548C23.5957 13.0029 23.9972 12.9624 24.3848 13.0383C24.7725 13.1142 25.129 13.3031 25.4095 13.5812C25.5985 13.7659 25.7482 13.9868 25.8496 14.2309C25.951 14.4749 26.002 14.7369 25.9995 15.0011V19.0009H29.9997C30.5302 19.0009 31.039 19.2116 31.4141 19.5867C31.7891 19.9617 31.9999 20.4704 31.9999 21.0008C32.0016 21.2634 31.9502 21.5237 31.8488 21.766C31.7474 22.0083 31.5981 22.2276 31.4098 22.4107Z" fill="black"/>
</g>
<defs>
<clipPath id="clip0_6013_52538">
<rect width="48" height="42" fill="white" transform="translate(0 0.00195312)"/>
</clipPath>
</defs>
</svg>
