<svg width="48" height="48" viewBox="0 0 48 48" fill="none" xmlns="http://www.w3.org/2000/svg">
<g clip-path="url(#clip0_6013_52540)">
<path d="M35 10.002C27.589 10.002 22 15.162 22 22.002C22 22.5324 22.2107 23.0411 22.5858 23.4162C22.9609 23.7912 23.4696 24.002 24 24.002C24.5304 24.002 25.0391 23.7912 25.4142 23.4162C25.7893 23.0411 26 22.5324 26 22.002C26.0045 20.5646 26.4112 19.1572 27.1742 17.939C27.9371 16.7208 29.0258 15.7405 30.317 15.109L27.014 33.838C26.9902 33.9811 26.9978 34.1278 27.0364 34.2677C27.075 34.4077 27.1436 34.5375 27.2374 34.6483C27.3312 34.7591 27.4481 34.8481 27.5797 34.9091C27.7114 34.9702 27.8548 35.0019 28 35.002H30V46.002C30 46.5324 30.2107 47.0411 30.5858 47.4162C30.9609 47.7912 31.4696 48.002 32 48.002C32.5304 48.002 33.0391 47.7912 33.4142 47.4162C33.7893 47.0411 34 46.5324 34 46.002V35.002H36V46.002C36 46.5324 36.2107 47.0411 36.5858 47.4162C36.9609 47.7912 37.4696 48.002 38 48.002C38.5304 48.002 39.0391 47.7912 39.4142 47.4162C39.7893 47.0411 40 46.5324 40 46.002V35.002H42C42.1452 35.0019 42.2886 34.9702 42.4203 34.9091C42.5519 34.8481 42.6688 34.7591 42.7626 34.6483C42.8564 34.5375 42.925 34.4077 42.9636 34.2677C43.0022 34.1278 43.0098 33.9811 42.986 33.838L39.776 15.158C41.0432 15.7977 42.1085 16.7758 42.854 17.9837C43.5996 19.1917 43.9962 20.5825 44 22.002C44 22.5324 44.2107 23.0411 44.5858 23.4162C44.9609 23.7912 45.4696 24.002 46 24.002C46.5304 24.002 47.0391 23.7912 47.4142 23.4162C47.7893 23.0411 48 22.5324 48 22.002C48 15.162 42.411 10.002 35 10.002Z" fill="black"/>
<path d="M35 8.00195C37.2091 8.00195 39 6.21109 39 4.00195C39 1.79281 37.2091 0.00195312 35 0.00195312C32.7909 0.00195312 31 1.79281 31 4.00195C31 6.21109 32.7909 8.00195 35 8.00195Z" fill="black"/>
<path d="M12.496 41.001C12.0982 41.001 11.7166 41.159 11.4353 41.4403C11.154 41.7216 10.996 42.1031 10.996 42.501V46.5C10.996 46.8978 11.154 47.2793 11.4353 47.5606C11.7166 47.8419 12.0982 48 12.496 48C12.8938 48 13.2754 47.8419 13.5567 47.5606C13.838 47.2793 13.996 46.8978 13.996 46.5V42.5C13.996 42.1021 13.838 41.7206 13.5567 41.4393C13.2754 41.158 12.8938 41.001 12.496 41.001ZM23.498 34.004H19.498C19.1002 34.004 18.7186 34.162 18.4373 34.4433C18.156 34.7246 17.998 35.1061 17.998 35.504C17.998 35.9018 18.156 36.2833 18.4373 36.5646C18.7186 36.8459 19.1002 37.004 19.498 37.004H23.498C23.8958 37.004 24.2774 36.8459 24.5587 36.5646C24.84 36.2833 24.998 35.9018 24.998 35.504C24.998 35.1061 24.84 34.7246 24.5587 34.4433C24.2774 34.162 23.8958 34.004 23.498 34.004ZM12.502 23.002C12.1042 23.002 11.7226 23.16 11.4413 23.4413C11.16 23.7226 11.002 24.1041 11.002 24.502V28.501C11.002 28.8988 11.16 29.2803 11.4413 29.5616C11.7226 29.8429 12.1042 30.001 12.502 30.001C12.8998 30.001 13.2814 29.8429 13.5627 29.5616C13.844 29.2803 14.002 28.8988 14.002 28.501V24.502C14.002 24.1041 13.844 23.7226 13.5627 23.4413C13.2814 23.16 12.8998 23.002 12.502 23.002ZM6.999 35.498C6.999 35.1001 6.84096 34.7186 6.55966 34.4373C6.27836 34.156 5.89682 33.998 5.499 33.998H1.5C1.10218 33.998 0.720644 34.156 0.43934 34.4373C0.158035 34.7186 0 35.1001 0 35.498C0 35.8958 0.158035 36.2773 0.43934 36.5586C0.720644 36.8399 1.10218 36.998 1.5 36.998H5.499C5.89682 36.998 6.27836 36.8399 6.55966 36.5586C6.84096 36.2773 6.999 35.8958 6.999 35.498ZM18.56 39.437C18.4207 39.2976 18.2554 39.1871 18.0734 39.1117C17.8914 39.0362 17.6964 38.9974 17.4994 38.9973C17.3024 38.9973 17.1073 39.036 16.9253 39.1114C16.7432 39.1867 16.5778 39.2972 16.4385 39.4365C16.2992 39.5757 16.1886 39.7411 16.1132 39.9231C16.0378 40.105 15.9989 40.3001 15.9989 40.4971C15.9988 40.6941 16.0376 40.8892 16.1129 41.0712C16.1883 41.2532 16.2987 41.4186 16.438 41.558L19.441 44.562C19.7224 44.8433 20.104 45.0014 20.502 45.0014C20.9 45.0014 21.2816 44.8433 21.563 44.562C21.8444 44.2806 22.0025 43.8989 22.0025 43.501C22.0025 43.103 21.8444 42.7213 21.563 42.44L18.56 39.437ZM18.556 31.565L21.56 28.562C21.8414 28.2806 21.9995 27.8989 21.9995 27.501C21.9995 27.103 21.8414 26.7213 21.56 26.44C21.2786 26.1586 20.897 26.0005 20.499 26.0005C20.101 26.0005 19.7194 26.1586 19.438 26.44L16.435 29.443C16.1536 29.7242 15.9955 30.1057 15.9954 30.5036C15.9953 30.9015 16.1532 31.2831 16.4345 31.5645C16.7158 31.8458 17.0973 32.004 17.4951 32.0041C17.893 32.0042 18.2746 31.8462 18.556 31.565ZM6.441 31.565C6.72239 31.8463 7.10405 32.0044 7.502 32.0044C7.89995 32.0044 8.2816 31.8463 8.563 31.565C8.84439 31.2836 9.00248 30.9019 9.00248 30.504C9.00248 30.106 8.84439 29.7243 8.563 29.443L5.56 26.44C5.42067 26.3006 5.25526 26.1901 5.07321 26.1147C4.89116 26.0393 4.69605 26.0005 4.499 26.0005C4.30195 26.0005 4.10684 26.0393 3.92479 26.1147C3.74274 26.1901 3.57733 26.3006 3.438 26.44C3.29867 26.5793 3.18814 26.7447 3.11274 26.9267C3.03733 27.1088 2.99852 27.3039 2.99852 27.501C2.99852 27.698 3.03733 27.8931 3.11274 28.0752C3.18814 28.2572 3.29867 28.4226 3.438 28.562L6.441 31.565ZM6.441 39.437L3.438 42.44C3.15661 42.7213 2.99852 43.103 2.99852 43.501C2.99852 43.8989 3.15661 44.2806 3.438 44.562C3.71939 44.8433 4.10105 45.0014 4.499 45.0014C4.89695 45.0014 5.27861 44.8433 5.56 44.562L8.563 41.558C8.7062 41.4195 8.82039 41.2539 8.89892 41.0709C8.97744 40.8879 9.01873 40.691 9.02037 40.4918C9.022 40.2927 8.98396 40.0952 8.90845 39.9109C8.83294 39.7266 8.72148 39.5591 8.58058 39.4184C8.43967 39.2776 8.27214 39.1663 8.08776 39.091C7.90338 39.0156 7.70585 38.9778 7.50668 38.9796C7.30751 38.9814 7.1107 39.0229 6.92773 39.1016C6.74477 39.1803 6.5793 39.2936 6.441 39.437Z" fill="black"/>
</g>
<defs>
<clipPath id="clip0_6013_52540">
<rect width="48" height="48" fill="white" transform="translate(0 0.00195312)"/>
</clipPath>
</defs>
</svg>
