<svg width="48" height="36" viewBox="0 0 48 36" fill="none" xmlns="http://www.w3.org/2000/svg">
<g clip-path="url(#clip0_6013_52545)">
<path d="M18 30.002H6V6.00195H18C18.7956 6.00195 19.5587 5.68588 20.1213 5.12327C20.6839 4.56066 21 3.7976 21 3.00195C21 2.2063 20.6839 1.44324 20.1213 0.880633C19.5587 0.318024 18.7956 0.00195313 18 0.00195313L5 0.00195312C3.67441 0.00354098 2.40356 0.530835 1.46622 1.46817C0.528882 2.40551 0.00158786 3.67636 0 5.00195L0 31.002C0.00158786 32.3275 0.528882 33.5984 1.46622 34.5357C2.40356 35.4731 3.67441 36.0004 5 36.002H18C18.7956 36.002 19.5587 35.6859 20.1213 35.1233C20.6839 34.5607 21 33.7976 21 33.002C21 32.2063 20.6839 31.4432 20.1213 30.8806C19.5587 30.318 18.7956 30.002 18 30.002Z" fill="black"/>
<path d="M47.121 15.8811L34.121 2.88106C33.5535 2.34424 32.7989 2.04997 32.0178 2.06084C31.2366 2.0717 30.4906 2.38683 29.9382 2.93923C29.3858 3.49162 29.0706 4.2377 29.0598 5.01883C29.0489 5.79996 29.3432 6.55452 29.88 7.12206L37.758 15.0021H14C13.2044 15.0021 12.4413 15.3181 11.8787 15.8807C11.3161 16.4433 11 17.2064 11 18.0021C11 18.7977 11.3161 19.5608 11.8787 20.1234C12.4413 20.686 13.2044 21.0021 14 21.0021H37.758L29.878 28.8811C29.5957 29.1588 29.3713 29.4897 29.2175 29.8547C29.0638 30.2197 28.9838 30.6115 28.9823 31.0075C28.9807 31.4035 29.0575 31.7959 29.2084 32.1621C29.3592 32.5282 29.5811 32.8609 29.8612 33.1409C30.1412 33.4209 30.4739 33.6427 30.8401 33.7934C31.2064 33.9442 31.5988 34.021 31.9948 34.0193C32.3908 34.0176 32.7826 33.9376 33.1475 33.7838C33.5124 33.6299 33.8433 33.4054 34.121 33.1231L47.121 20.1231C47.6834 19.5605 47.9994 18.7976 47.9994 18.0021C47.9994 17.2066 47.6834 16.4436 47.121 15.8811Z" fill="black"/>
</g>
<defs>
<clipPath id="clip0_6013_52545">
<rect width="48" height="36" fill="white" transform="translate(0 0.00195312)"/>
</clipPath>
</defs>
</svg>
