<svg width="48" height="48" viewBox="0 0 48 48" fill="none" xmlns="http://www.w3.org/2000/svg">
<g clip-path="url(#clip0_6013_52549)">
<path d="M24 17.9961C18.014 17.9961 13.5 22.0801 13.5 27.4961C13.5 27.8939 13.658 28.2755 13.9393 28.5568C14.2206 28.8381 14.6022 28.9961 15 28.9961C15.3978 28.9961 15.7794 28.8381 16.0607 28.5568C16.342 28.2755 16.5 27.8939 16.5 27.4961C16.5093 26.337 16.8418 25.2035 17.4601 24.223C18.0785 23.2425 18.958 22.454 20 21.9461V46.5021C20 46.8999 20.158 47.2815 20.4393 47.5628C20.7206 47.8441 21.1022 48.0021 21.5 48.0021C21.8978 48.0021 22.2794 47.8441 22.5607 47.5628C22.842 47.2815 23 46.8999 23 46.5021V34.0021H25V46.5021C25 46.8999 25.158 47.2815 25.4393 47.5628C25.7206 47.8441 26.1022 48.0021 26.5 48.0021C26.8978 48.0021 27.2794 47.8441 27.5607 47.5628C27.842 47.2815 28 46.8999 28 46.5021V21.9461C29.042 22.454 29.9215 23.2425 30.5399 24.223C31.1582 25.2035 31.4907 26.337 31.5 27.4961C31.5 27.8939 31.658 28.2755 31.9393 28.5568C32.2206 28.8381 32.6022 28.9961 33 28.9961C33.3978 28.9961 33.7794 28.8381 34.0607 28.5568C34.342 28.2755 34.5 27.8939 34.5 27.4961C34.5 22.0801 29.986 17.9961 24 17.9961Z" fill="black"/>
<path d="M24.0518 16.002C25.7086 16.002 27.0518 14.6588 27.0518 13.002C27.0518 11.3451 25.7086 10.002 24.0518 10.002C22.3949 10.002 21.0518 11.3451 21.0518 13.002C21.0518 14.6588 22.3949 16.002 24.0518 16.002Z" fill="black"/>
<path d="M46.757 12.8419L25.257 0.341923C24.8753 0.119894 24.4416 0.00292969 24 0.00292969C23.5584 0.00292969 23.1247 0.119894 22.743 0.341923L1.243 12.8419C0.864997 13.0618 0.551281 13.377 0.333168 13.756C0.115055 14.135 0.000176154 14.5646 0 15.0019L0 45.5019C0 46.165 0.263392 46.8008 0.732233 47.2697C1.20107 47.7385 1.83696 48.0019 2.5 48.0019C3.16304 48.0019 3.79893 47.7385 4.26777 47.2697C4.73661 46.8008 5 46.165 5 45.5019V16.4419L24 5.39392L43 16.4409V45.5019C43 46.165 43.2634 46.8008 43.7322 47.2697C44.2011 47.7385 44.837 48.0019 45.5 48.0019C46.163 48.0019 46.7989 47.7385 47.2678 47.2697C47.7366 46.8008 48 46.165 48 45.5019V15.0019C47.9998 14.5646 47.8849 14.135 47.6668 13.756C47.4487 13.377 47.135 13.0618 46.757 12.8419Z" fill="black"/>
</g>
<defs>
<clipPath id="clip0_6013_52549">
<rect width="48" height="48" fill="white" transform="translate(0 0.00195312)"/>
</clipPath>
</defs>
</svg>
