<svg width="48" height="48" viewBox="0 0 48 48" fill="none" xmlns="http://www.w3.org/2000/svg">
<g clip-path="url(#clip0_6013_52554)">
<path d="M21 0.00195312H15C14.4477 0.00195312 14 0.449668 14 1.00195V7.00195C14 7.55424 14.4477 8.00195 15 8.00195H21C21.5523 8.00195 22 7.55424 22 7.00195V1.00195C22 0.449668 21.5523 0.00195312 21 0.00195312Z" fill="black"/>
<path d="M31 0.00195312H25C24.4477 0.00195312 24 0.449668 24 1.00195V7.00195C24 7.55424 24.4477 8.00195 25 8.00195H31C31.5523 8.00195 32 7.55424 32 7.00195V1.00195C32 0.449668 31.5523 0.00195312 31 0.00195312Z" fill="black"/>
<path d="M9.33 32.0021C10.2898 32.0315 11.2355 31.7663 12.04 31.2421C13.4317 30.4001 15.0337 29.9702 16.66 30.0021C18.2892 29.9721 19.8939 30.4019 21.29 31.2421C22.0929 31.7699 23.0398 32.0354 24 32.0021C24.9569 32.034 25.9002 31.7685 26.7 31.2421C28.0955 30.4003 29.7006 29.9705 31.33 30.0021C32.9563 29.9702 34.5583 30.4001 35.95 31.2421C36.6741 31.714 37.5159 31.9738 38.38 31.9921C40.9585 28.9241 42.5635 25.1569 42.99 21.1721C43.0156 20.8951 42.9828 20.6158 42.8937 20.3523C42.8045 20.0887 42.6611 19.8469 42.4725 19.6423C42.284 19.4378 42.0546 19.2751 41.7992 19.1648C41.5439 19.0545 41.2682 18.9991 40.99 19.0021H5.01C4.73183 18.9991 4.45614 19.0545 4.20075 19.1648C3.94537 19.2751 3.71599 19.4378 3.52746 19.6423C3.33893 19.8469 3.19545 20.0887 3.10631 20.3523C3.01718 20.6158 2.98436 20.8951 3.01 21.1721C3.41721 24.9834 4.90572 28.5988 7.3 31.5921C7.93316 31.8921 8.63004 32.0328 9.33 32.0021ZM46 42.0021C44.3713 41.9702 42.7671 42.4016 41.374 43.2461C40.5563 43.7403 39.619 44.0016 38.6635 44.0016C37.708 44.0016 36.7707 43.7403 35.953 43.2461C34.5599 42.4016 32.9557 41.9702 31.327 42.0021C29.699 41.9706 28.0955 42.402 26.703 43.2461C25.8986 43.7685 24.9537 44.0323 23.995 44.0021C23.0357 44.0327 22.0899 43.7689 21.285 43.2461C19.8928 42.4022 18.2897 41.9708 16.662 42.0021C15.034 41.9706 13.4305 42.402 12.038 43.2461C11.2336 43.7685 10.2887 44.0323 9.33 44.0021C8.37168 44.0321 7.4271 43.7683 6.623 43.2461C5.23081 42.4022 3.62768 41.9708 2 42.0021C1.46957 42.0021 0.960859 42.2128 0.585786 42.5879C0.210714 42.9629 0 43.4716 0 44.0021C0 44.5325 0.210714 45.0412 0.585786 45.4163C0.960859 45.7914 1.46957 46.0021 2 46.0021C2.95832 45.9721 3.9029 46.2359 4.707 46.7581C6.09919 47.6019 7.70232 48.0333 9.33 48.0021C10.9577 48.0333 12.5608 47.6019 13.953 46.7581C14.7574 46.2357 15.7023 45.9719 16.661 46.0021C17.6203 45.9714 18.5661 46.2353 19.371 46.7581C20.7635 47.6021 22.367 48.0335 23.995 48.0021C25.623 48.0335 27.2265 47.6021 28.619 46.7581C29.4361 46.2632 30.3732 46.0015 31.3285 46.0015C32.2838 46.0015 33.2209 46.2632 34.038 46.7581C35.4433 47.5731 37.039 48.0023 38.6635 48.0023C40.288 48.0023 41.8837 47.5731 43.289 46.7581C44.0942 46.2351 45.0403 45.9712 46 46.0021C46.5304 46.0021 47.0391 45.7914 47.4142 45.4163C47.7893 45.0412 48 44.5325 48 44.0021C48 43.4716 47.7893 42.9629 47.4142 42.5879C47.0391 42.2128 46.5304 42.0021 46 42.0021ZM2 38.0021C2.95832 37.9721 3.9029 38.2359 4.707 38.7581C6.09919 39.6019 7.70232 40.0333 9.33 40.0021C10.9577 40.0333 12.5608 39.6019 13.953 38.7581C14.7574 38.2357 15.7023 37.9719 16.661 38.0021C17.6203 37.9714 18.5661 38.2353 19.371 38.7581C20.7635 39.6021 22.367 40.0335 23.995 40.0021C25.623 40.0335 27.2265 39.6021 28.619 38.7581C29.4361 38.2632 30.3732 38.0015 31.3285 38.0015C32.2838 38.0015 33.2209 38.2632 34.038 38.7581C35.4433 39.5731 37.039 40.0023 38.6635 40.0023C40.288 40.0023 41.8837 39.5731 43.289 38.7581C44.0942 38.2351 45.0403 37.9712 46 38.0021C46.5304 38.0021 47.0391 37.7914 47.4142 37.4163C47.7893 37.0412 48 36.5325 48 36.0021C48 35.4716 47.7893 34.9629 47.4142 34.5879C47.0391 34.2128 46.5304 34.0021 46 34.0021C44.3713 33.9702 42.7671 34.4016 41.374 35.2461C40.5563 35.7403 39.619 36.0016 38.6635 36.0016C37.708 36.0016 36.7707 35.7403 35.953 35.2461C34.5599 34.4016 32.9557 33.9702 31.327 34.0021C29.699 33.9706 28.0955 34.402 26.703 35.2461C25.8986 35.7685 24.9537 36.0323 23.995 36.0021C23.0357 36.0327 22.0899 35.7689 21.285 35.2461C19.8928 34.4022 18.2897 33.9708 16.662 34.0021C15.034 33.9706 13.4305 34.402 12.038 35.2461C11.2336 35.7685 10.2887 36.0323 9.33 36.0021C8.37168 36.0321 7.4271 35.7683 6.623 35.2461C5.23081 34.4022 3.62768 33.9708 2 34.0021C1.46957 34.0021 0.960859 34.2128 0.585786 34.5879C0.210714 34.9629 0 35.4716 0 36.0021C0 36.5325 0.210714 37.0412 0.585786 37.4163C0.960859 37.7914 1.46957 38.0021 2 38.0021Z" fill="black"/>
<path d="M37 11.002H9C8.44772 11.002 8 11.4497 8 12.002V15.002C8 15.5542 8.44772 16.002 9 16.002H37C37.5523 16.002 38 15.5542 38 15.002V12.002C38 11.4497 37.5523 11.002 37 11.002Z" fill="black"/>
</g>
<defs>
<clipPath id="clip0_6013_52554">
<rect width="48" height="48" fill="white" transform="translate(0 0.00195312)"/>
</clipPath>
</defs>
</svg>
