<svg width="48" height="48" viewBox="0 0 48 48" fill="none" xmlns="http://www.w3.org/2000/svg">
<g clip-path="url(#clip0_6013_52560)">
<path d="M25.1428 0.00195312C23.022 0.00459847 20.9889 0.742946 19.4893 2.05513C17.9896 3.36731 17.1458 5.14625 17.1428 7.00195V9.29495C9.31764 10.635 3.4285 16.322 3.4285 21.002H37.7142C37.7142 16.322 31.8251 10.634 23.9999 9.29495V7.00195C23.9999 6.73674 24.1203 6.48238 24.3347 6.29485C24.549 6.10731 24.8397 6.00195 25.1428 6.00195H47.9999V0.00195312H25.1428ZM38.6491 23.002H2.49364C2.1763 22.9771 1.85651 23.0103 1.55465 23.0995C1.25278 23.1888 0.975458 23.332 0.740331 23.5201C0.505204 23.7083 0.317427 23.9372 0.188957 24.1923C0.0604878 24.4474 -0.00585938 24.7232 -0.00585938 25.002C-0.00585937 25.2807 0.0604878 25.5565 0.188957 25.8116C0.317427 26.0667 0.505204 26.2956 0.740331 26.4838C0.975458 26.6719 1.25278 26.8152 1.55465 26.9044C1.85651 26.9936 2.1763 27.0268 2.49364 27.002H38.6491C38.9664 27.0268 39.2862 26.9936 39.5881 26.9044C39.8899 26.8152 40.1673 26.6719 40.4024 26.4838C40.6375 26.2956 40.8253 26.0667 40.9538 25.8116C41.0822 25.5565 41.1486 25.2807 41.1486 25.002C41.1486 24.7232 41.0822 24.4474 40.9538 24.1923C40.8253 23.9372 40.6375 23.7083 40.4024 23.5201C40.1673 23.332 39.8899 23.1888 39.5881 23.0995C39.2862 23.0103 38.9664 22.9771 38.6491 23.002ZM20.4845 30.038C19.9519 30.604 17.1428 33.655 17.1428 35.104C17.1752 35.8806 17.5506 36.6161 18.1901 37.1555C18.8295 37.695 19.6831 37.9964 20.5714 37.9964C21.4596 37.9964 22.3132 37.695 22.9527 37.1555C23.5921 36.6161 23.9675 35.8806 23.9999 35.104C23.9999 33.655 21.1908 30.604 20.6582 30.038C20.6475 30.027 20.6342 30.0182 20.6192 30.0121C20.6042 30.0061 20.5879 30.0029 20.5714 30.0029C20.5548 30.0029 20.5385 30.0061 20.5235 30.0121C20.5085 30.0182 20.4952 30.027 20.4845 30.038ZM12.4845 40.038C11.9519 40.604 9.14279 43.655 9.14279 45.104C9.1752 45.8806 9.55062 46.6161 10.1901 47.1555C10.8295 47.695 11.6831 47.9964 12.5714 47.9964C13.4596 47.9964 14.3132 47.695 14.9527 47.1555C15.5921 46.6161 15.9675 45.8806 15.9999 45.104C15.9999 43.655 13.1908 40.604 12.6582 40.038C12.6475 40.027 12.6342 40.0182 12.6192 40.0121C12.6042 40.0061 12.5879 40.0029 12.5714 40.0029C12.5548 40.0029 12.5385 40.0061 12.5235 40.0121C12.5085 40.0182 12.4952 40.027 12.4845 40.038ZM28.4845 40.038C27.9519 40.604 25.1428 43.655 25.1428 45.104C25.1752 45.8806 25.5506 46.6161 26.1901 47.1555C26.8295 47.695 27.6831 47.9964 28.5714 47.9964C29.4596 47.9964 30.3132 47.695 30.9527 47.1555C31.5921 46.6161 31.9675 45.8806 31.9999 45.104C31.9999 43.655 29.1908 40.604 28.6582 40.038C28.6475 40.027 28.6342 40.0182 28.6192 40.0121C28.6042 40.0061 28.5879 40.0029 28.5714 40.0029C28.5548 40.0029 28.5385 40.0061 28.5235 40.0121C28.5085 40.0182 28.4952 40.027 28.4845 40.038ZM4.4845 30.038C3.95193 30.604 1.14279 33.655 1.14279 35.104C1.15841 35.886 1.52837 36.6307 2.17132 37.1741C2.81426 37.7176 3.67755 38.0153 4.57136 38.002C5.46516 38.0153 6.32845 37.7176 6.9714 37.1741C7.61434 36.6307 7.9843 35.886 7.99993 35.104C7.99993 33.655 5.19079 30.604 4.65821 30.038C4.64749 30.027 4.63417 30.0182 4.61917 30.0121C4.60418 30.0061 4.58786 30.0029 4.57136 30.0029C4.55485 30.0029 4.53854 30.0061 4.52354 30.0121C4.50855 30.0182 4.49523 30.027 4.4845 30.038ZM36.4845 30.038C35.9519 30.604 33.1428 33.655 33.1428 35.104C33.1752 35.8806 33.5506 36.6161 34.1901 37.1555C34.8295 37.695 35.6831 37.9964 36.5714 37.9964C37.4596 37.9964 38.3132 37.695 38.9527 37.1555C39.5921 36.6161 39.9675 35.8806 39.9999 35.104C39.9999 33.655 37.1908 30.604 36.6582 30.038C36.6475 30.027 36.6342 30.0182 36.6192 30.0121C36.6042 30.0061 36.5879 30.0029 36.5714 30.0029C36.5549 30.0029 36.5385 30.0061 36.5235 30.0121C36.5085 30.0182 36.4952 30.027 36.4845 30.038Z" fill="black"/>
</g>
<defs>
<clipPath id="clip0_6013_52560">
<rect width="48" height="48" fill="white" transform="translate(0 0.00195312)"/>
</clipPath>
</defs>
</svg>
