<svg width="48" height="48" viewBox="0 0 48 48" fill="none" xmlns="http://www.w3.org/2000/svg">
<g clip-path="url(#clip0_6013_52563)">
<path d="M44.5714 0.00195313H3.42857C2.52009 0.00353585 1.6496 0.214758 1.0072 0.589488C0.364808 0.964218 0.00271325 1.47201 0 2.00195L0 46.002C0.00271325 46.5319 0.364808 47.0397 1.0072 47.4144C1.6496 47.7891 2.52009 48.0004 3.42857 48.002H44.5714C45.4799 48.0004 46.3504 47.7891 46.9928 47.4144C47.6352 47.0397 47.9973 46.5319 48 46.002V2.00195C47.9973 1.47201 47.6352 0.964218 46.9928 0.589488C46.3504 0.214758 45.4799 0.00353585 44.5714 0.00195313ZM18.8571 3.00195H29.1429C29.5975 3.00195 30.0336 3.10731 30.355 3.29485C30.6765 3.48238 30.8571 3.73674 30.8571 4.00195C30.8571 4.26717 30.6765 4.52152 30.355 4.70906C30.0336 4.8966 29.5975 5.00195 29.1429 5.00195H18.8571C18.4025 5.00195 17.9665 4.8966 17.645 4.70906C17.3235 4.52152 17.1429 4.26717 17.1429 4.00195C17.1429 3.73674 17.3235 3.48238 17.645 3.29485C17.9665 3.10731 18.4025 3.00195 18.8571 3.00195ZM24 45.002C23.3219 45.002 22.659 44.8847 22.0952 44.6649C21.5314 44.4451 21.0919 44.1328 20.8324 43.7673C20.5729 43.4019 20.505 42.9997 20.6373 42.6118C20.7696 42.2238 21.0961 41.8674 21.5756 41.5877C22.0551 41.308 22.666 41.1176 23.3311 41.0404C23.9962 40.9632 24.6856 41.0028 25.3121 41.1542C25.9385 41.3056 26.474 41.5619 26.8508 41.8908C27.2275 42.2197 27.4286 42.6064 27.4286 43.002C27.4259 43.5319 27.0638 44.0397 26.4214 44.4144C25.779 44.7891 24.9085 45.0004 24 45.002ZM41.1429 38.002H6.85714V8.00195H41.1429V38.002Z" fill="black"/>
</g>
<defs>
<clipPath id="clip0_6013_52563">
<rect width="48" height="48" fill="white" transform="translate(0 0.00195312)"/>
</clipPath>
</defs>
</svg>
