<svg width="48" height="48" viewBox="0 0 48 48" fill="none" xmlns="http://www.w3.org/2000/svg">
<g clip-path="url(#clip0_6013_52568)">
<path d="M45.2272 20.262C45.4136 20.308 45.6059 20.3316 45.7991 20.332C46.3317 20.3309 46.8457 20.1541 47.2459 19.8346C47.646 19.515 47.9051 19.0743 47.9749 18.5943C48.0448 18.1143 47.9207 17.6275 47.6258 17.2243C47.3308 16.8211 46.885 16.5289 46.371 16.402L43.9843 15.822L46.0521 14.732C46.3019 14.6006 46.5209 14.4258 46.6965 14.2176C46.8721 14.0093 47.0008 13.7716 47.0754 13.5181C47.15 13.2646 47.1689 13.0003 47.131 12.7401C47.0932 12.48 46.9994 12.2291 46.855 12.002C46.7105 11.7748 46.5183 11.5757 46.2892 11.416C46.0602 11.2564 45.7988 11.1393 45.5199 11.0716C45.2411 11.0038 44.9503 10.9866 44.6642 11.021C44.3781 11.0553 44.1022 11.1406 43.8523 11.272L41.7845 12.352L42.4225 10.192C42.5019 9.93726 42.525 9.67076 42.4902 9.40791C42.4555 9.14506 42.3637 8.8911 42.2201 8.66078C42.0765 8.43045 41.8841 8.22835 41.6539 8.0662C41.4237 7.90406 41.1604 7.78509 40.8792 7.71622C40.5981 7.64735 40.3047 7.62994 40.0161 7.665C39.7274 7.70006 39.4494 7.7869 39.198 7.92047C38.9465 8.05404 38.7268 8.23168 38.5516 8.44308C38.3763 8.65449 38.2489 8.89544 38.1769 9.15195L36.3951 15.182L29.2788 18.922C28.4056 18.1683 27.3512 17.6102 26.1992 17.292V10.832L31.0497 6.41195C31.461 6.038 31.692 5.53081 31.692 5.00195C31.692 4.4731 31.461 3.96591 31.0497 3.59195C30.6384 3.218 30.0805 3.00791 29.4988 3.00791C28.9171 3.00791 28.3593 3.218 27.948 3.59195L26.1992 5.17195V2.00195C26.1992 1.47152 25.9674 0.962812 25.5549 0.58774C25.1423 0.212667 24.5828 0.00195313 23.9994 0.00195312C23.416 0.00195313 22.8565 0.212667 22.4439 0.58774C22.0314 0.962812 21.7996 1.47152 21.7996 2.00195V5.17195L20.0508 3.59195C19.8472 3.40679 19.6054 3.25991 19.3393 3.1597C19.0732 3.05949 18.788 3.00791 18.5 3.00791C18.212 3.00791 17.9268 3.05949 17.6607 3.1597C17.3946 3.25991 17.1528 3.40679 16.9492 3.59195C16.7455 3.77712 16.5839 3.99694 16.4737 4.23887C16.3635 4.48079 16.3068 4.74009 16.3068 5.00195C16.3068 5.26381 16.3635 5.52311 16.4737 5.76504C16.5839 6.00697 16.7455 6.22679 16.9492 6.41195L21.7996 10.832V17.292C20.6477 17.6102 19.5932 18.1683 18.72 18.922L11.6037 15.182L9.82192 9.15195C9.74989 8.89544 9.62255 8.65449 9.44727 8.44308C9.27199 8.23168 9.05227 8.05404 8.80086 7.92047C8.54946 7.7869 8.27137 7.70006 7.98276 7.665C7.69414 7.62994 7.40073 7.64735 7.11958 7.71622C6.83842 7.78509 6.57511 7.90406 6.34493 8.0662C6.11475 8.22835 5.9223 8.43045 5.77873 8.66078C5.63516 8.8911 5.54334 9.14506 5.5086 9.40791C5.47386 9.67076 5.4969 9.93726 5.57637 10.192L6.2143 12.352L4.14652 11.272C3.89664 11.1406 3.62076 11.0553 3.33463 11.021C3.04849 10.9866 2.75771 11.0038 2.47889 11.0716C2.20006 11.1393 1.93866 11.2564 1.70959 11.416C1.48052 11.5757 1.28828 11.7748 1.14384 12.002C0.999399 12.2291 0.905592 12.48 0.867772 12.7401C0.829953 13.0003 0.848862 13.2646 0.923419 13.5181C0.997977 13.7716 1.12672 14.0093 1.30231 14.2176C1.47789 14.4258 1.69687 14.6006 1.94675 14.732L4.01453 15.822L1.62779 16.402C1.11384 16.5289 0.668015 16.8211 0.373056 17.2243C0.0780965 17.6275 -0.0459655 18.1143 0.023895 18.5943C0.0937555 19.0743 0.352794 19.515 0.752934 19.8346C1.15307 20.1541 1.66714 20.3309 2.19973 20.332C2.39293 20.3316 2.58523 20.308 2.77166 20.262L9.40396 18.652L16.5202 22.382C16.2269 23.4455 16.2269 24.5584 16.5202 25.622L10.3499 28.852L3.71756 27.242C3.43656 27.1678 3.1421 27.1454 2.85145 27.1761C2.5608 27.2068 2.27983 27.29 2.025 27.4207C1.77018 27.5515 1.54664 27.7272 1.3675 27.9375C1.18836 28.1479 1.05722 28.3886 0.981785 28.6457C0.906347 28.9027 0.888126 29.1708 0.928191 29.4344C0.968257 29.6979 1.0658 29.9515 1.2151 30.1803C1.3644 30.4091 1.56246 30.6084 1.79764 30.7667C2.03282 30.925 2.30041 31.039 2.58468 31.102L4.96043 31.682L1.94675 33.272C1.69614 33.4026 1.4763 33.5769 1.29977 33.7848C1.12323 33.9927 0.993472 34.2302 0.917892 34.4837C0.842313 34.7372 0.822395 35.0018 0.859276 35.2623C0.896156 35.5228 0.989113 35.7741 1.13284 36.002C1.27799 36.2298 1.47109 36.4294 1.7011 36.5894C1.93111 36.7494 2.19353 36.8667 2.47338 36.9344C2.75323 37.0022 3.04502 37.0192 3.3321 36.9845C3.61918 36.9498 3.89592 36.8639 4.14652 36.732L7.1602 35.152L6.52227 37.312C6.44752 37.5661 6.42865 37.8311 6.46673 38.0918C6.5048 38.3526 6.59908 38.604 6.74416 38.8315C6.88924 39.0591 7.08226 39.2584 7.31219 39.4181C7.54212 39.5778 7.80443 39.6946 8.0841 39.762C8.27027 39.8092 8.46275 39.8328 8.65604 39.832C9.13936 39.8308 9.6089 39.6854 9.99243 39.418C10.376 39.1506 10.6523 38.7761 10.7788 38.352L12.5496 32.322L18.72 29.082C19.5932 29.8356 20.6477 30.3937 21.7996 30.712V38.172L16.9492 42.592C16.7455 42.7771 16.5839 42.9969 16.4737 43.2389C16.3635 43.4808 16.3068 43.7401 16.3068 44.002C16.3068 44.2638 16.3635 44.5231 16.4737 44.765C16.5839 45.007 16.7455 45.2268 16.9492 45.412C17.1528 45.5971 17.3946 45.744 17.6607 45.8442C17.9268 45.9444 18.212 45.996 18.5 45.996C18.788 45.996 19.0732 45.9444 19.3393 45.8442C19.6054 45.744 19.8472 45.5971 20.0508 45.412L21.7996 43.832V46.002C21.7996 46.5324 22.0314 47.0411 22.4439 47.4162C22.8565 47.7912 23.416 48.002 23.9994 48.002C24.5828 48.002 25.1423 47.7912 25.5549 47.4162C25.9674 47.0411 26.1992 46.5324 26.1992 46.002V43.832L27.948 45.412C28.1516 45.5971 28.3934 45.744 28.6595 45.8442C28.9256 45.9444 29.2108 45.996 29.4988 45.996C29.7868 45.996 30.072 45.9444 30.3381 45.8442C30.6042 45.744 30.846 45.5971 31.0497 45.412C31.2533 45.2268 31.4149 45.007 31.5251 44.765C31.6353 44.5231 31.692 44.2638 31.692 44.002C31.692 43.7401 31.6353 43.4808 31.5251 43.2389C31.4149 42.9969 31.2533 42.7771 31.0497 42.592L26.1992 38.172V30.712C27.3512 30.3937 28.4056 29.8356 29.2788 29.082L35.4492 32.322L37.22 38.352C37.3466 38.7761 37.6229 39.1506 38.0064 39.418C38.3899 39.6854 38.8595 39.8308 39.3428 39.832C39.5361 39.8328 39.7285 39.8092 39.9147 39.762C40.1944 39.6946 40.4567 39.5778 40.6866 39.4181C40.9166 39.2584 41.1096 39.0591 41.2547 38.8315C41.3997 38.604 41.494 38.3526 41.5321 38.0918C41.5702 37.8311 41.5513 37.5661 41.4766 37.312L40.8386 35.152L43.8523 36.732C44.1029 36.8639 44.3796 36.9498 44.6667 36.9845C44.9538 37.0192 45.2456 37.0022 45.5254 36.9344C45.8053 36.8667 46.0677 36.7494 46.2977 36.5894C46.5277 36.4294 46.7208 36.2298 46.866 36.002C47.0097 35.7741 47.1027 35.5228 47.1395 35.2623C47.1764 35.0018 47.1565 34.7372 47.0809 34.4837C47.0053 34.2302 46.8756 33.9927 46.6991 33.7848C46.5225 33.5769 46.3027 33.4026 46.0521 33.272L43.0384 31.682L45.4141 31.102C45.6984 31.039 45.966 30.925 46.2012 30.7667C46.4364 30.6084 46.6344 30.4091 46.7837 30.1803C46.933 29.9515 47.0306 29.6979 47.0706 29.4344C47.1107 29.1708 47.0925 28.9027 47.017 28.6457C46.9416 28.3886 46.8105 28.1479 46.6313 27.9375C46.4522 27.7272 46.2286 27.5515 45.9738 27.4207C45.719 27.29 45.438 27.2068 45.1474 27.1761C44.8567 27.1454 44.5623 27.1678 44.2813 27.242L37.649 28.852L31.4786 25.622C31.772 24.5584 31.772 23.4455 31.4786 22.382L38.5949 18.652L45.2272 20.262ZM23.9994 27.002C23.3468 27.002 22.7088 26.826 22.1662 26.4964C21.6236 26.1667 21.2007 25.6982 20.9509 25.15C20.7012 24.6018 20.6358 23.9986 20.7632 23.4167C20.8905 22.8347 21.2047 22.3002 21.6662 21.8806C22.1277 21.4611 22.7156 21.1754 23.3557 21.0596C23.9957 20.9438 24.6592 21.0033 25.2621 21.2303C25.8651 21.4574 26.3804 21.8419 26.743 22.3352C27.1055 22.8286 27.2991 23.4086 27.2991 24.002C27.2996 24.3961 27.2147 24.7864 27.0491 25.1506C26.8834 25.5148 26.6404 25.8458 26.3339 26.1244C26.0274 26.4031 25.6634 26.6241 25.2628 26.7747C24.8622 26.9252 24.4329 27.0025 23.9994 27.002Z" fill="black"/>
</g>
<defs>
<clipPath id="clip0_6013_52568">
<rect width="48" height="48" fill="white" transform="translate(0 0.00195312)"/>
</clipPath>
</defs>
</svg>
