<svg width="48" height="48" viewBox="0 0 48 48" fill="none" xmlns="http://www.w3.org/2000/svg">
<g clip-path="url(#clip0_6013_52565)">
<path d="M36.1899 7.33495C36.3927 7.64614 36.7055 7.86929 37.0657 7.95977C37.426 8.05025 37.8071 8.00139 38.1329 7.82295L38.9999 7.35295V8.50195C38.9999 8.89978 39.1579 9.28131 39.4392 9.56261C39.7205 9.84392 40.102 10.002 40.4999 10.002C40.8977 10.002 41.2792 9.84392 41.5605 9.56261C41.8418 9.28131 41.9999 8.89978 41.9999 8.50195V7.35395L42.8669 7.82395C43.1926 8.002 43.5736 8.05054 43.9337 7.95989C44.2937 7.86923 44.6062 7.64605 44.8089 7.33495C44.9012 7.18298 44.9612 7.01355 44.9849 6.8373C45.0087 6.66105 44.9957 6.4818 44.9469 6.31079C44.8981 6.13979 44.8144 5.98073 44.7012 5.8436C44.5879 5.70647 44.4475 5.59424 44.2889 5.51395L43.3429 5.00195L44.2889 4.48995C44.4475 4.40966 44.5879 4.29743 44.7012 4.1603C44.8144 4.02318 44.8981 3.86412 44.9469 3.69311C44.9957 3.52211 45.0087 3.34285 44.9849 3.16661C44.9612 2.99036 44.9012 2.82093 44.8089 2.66895C44.6061 2.35802 44.2935 2.13505 43.9334 2.04458C43.5734 1.95411 43.1925 2.00282 42.8669 2.18095L41.9999 2.65095V1.50195C41.9999 1.10413 41.8418 0.722597 41.5605 0.441293C41.2792 0.159988 40.8977 0.00195313 40.4999 0.00195312C40.102 0.00195313 39.7205 0.159988 39.4392 0.441293C39.1579 0.722597 38.9999 1.10413 38.9999 1.50195V2.64995L38.1329 2.17995C37.8071 2.00191 37.4261 1.95336 37.0661 2.04402C36.706 2.13467 36.3935 2.35785 36.1909 2.66895C36.0985 2.82093 36.0386 2.99036 36.0148 3.16661C35.9911 3.34285 36.004 3.52211 36.0528 3.69311C36.1017 3.86412 36.1853 4.02318 36.2986 4.1603C36.4118 4.29743 36.5522 4.40966 36.7109 4.48995L37.6569 5.00195L36.7109 5.51395C36.5522 5.59424 36.4118 5.70647 36.2986 5.8436C36.1853 5.98073 36.1017 6.13979 36.0528 6.31079C36.004 6.4818 35.9911 6.66105 36.0148 6.8373C36.0386 7.01355 36.0985 7.18298 36.1909 7.33495M47.6099 19.708C47.3965 19.1661 47.0736 18.6742 46.6613 18.2629C46.249 17.8516 45.7562 17.5299 45.2139 17.318C44.0992 16.8734 42.8559 16.877 41.7439 17.328C41.5748 17.4111 41.4246 17.5282 41.3029 17.672C41.1811 17.8158 41.0903 17.9832 41.0361 18.1637C40.982 18.3441 40.9656 18.5339 40.9881 18.7209C41.0106 18.908 41.0715 19.0885 41.1669 19.251C41.3234 19.5505 41.5785 19.787 41.8891 19.9205C42.1996 20.054 42.5467 20.0764 42.8719 19.984C43.273 19.9131 43.6857 19.95 44.0679 20.091C44.2408 20.1606 44.398 20.264 44.5304 20.3952C44.6628 20.5264 44.7677 20.6827 44.8389 20.855C45.0547 21.4042 45.0445 22.0166 44.8105 22.5584C44.5765 23.1002 44.1377 23.5275 43.5899 23.747C43.1984 23.9131 42.7777 23.9996 42.3524 24.0013C41.9271 24.0031 41.5057 23.92 41.1129 23.757C40.7302 23.5979 40.3833 23.3637 40.0927 23.0683C39.802 22.7729 39.5736 22.4222 39.4209 22.037L32.8539 7.85795C32.7713 7.67684 32.6536 7.51396 32.5075 7.37881C32.3614 7.24365 32.1898 7.13893 32.0028 7.07074C31.8158 7.00254 31.6171 6.97225 31.4183 6.98161C31.2195 6.99097 31.0246 7.0398 30.8448 7.12527C30.6651 7.21073 30.5041 7.33111 30.3714 7.4794C30.2386 7.62768 30.1367 7.80091 30.0715 7.98898C30.0064 8.17705 29.9793 8.3762 29.9919 8.57484C30.0045 8.77347 30.0565 8.96761 30.1449 9.14595L36.6809 23.254C36.9847 23.9903 37.4318 24.6591 37.996 25.2214C38.5602 25.7838 39.2305 26.2285 39.9679 26.53C40.7177 26.8406 41.5212 27.0009 42.3329 27.002C43.1603 26.9998 43.9792 26.8346 44.7429 26.516C46.0231 25.99 47.0433 24.9789 47.5807 23.7033C48.118 22.4278 48.1279 20.9915 47.6099 19.708ZM21.0499 7.33195C20.8731 6.93599 20.5854 6.59969 20.2216 6.36369C19.8578 6.1277 19.4335 6.00212 18.9999 6.00212C18.5662 6.00212 18.1419 6.1277 17.7781 6.36369C17.4143 6.59969 17.1266 6.93599 16.9499 7.33195L0.195858 44.842C0.0432154 45.1846 -0.021189 45.56 0.00852309 45.9339C0.0382351 46.3078 0.161117 46.6683 0.365955 46.9825C0.570793 47.2967 0.851063 47.5547 1.18119 47.7327C1.51131 47.9108 1.88077 48.0034 2.25586 48.002H35.7439C36.1199 48.0031 36.4902 47.9099 36.8209 47.7311C37.1517 47.5522 37.4323 47.2933 37.6372 46.978C37.8421 46.6627 37.9647 46.3011 37.9938 45.9262C38.0229 45.5513 37.9576 45.1751 37.8039 44.832L21.0499 7.33195ZM14.9999 22.002L18.9999 13.002L22.9999 22.002H14.9999Z" fill="black"/>
</g>
<defs>
<clipPath id="clip0_6013_52565">
<rect width="48" height="48" fill="white" transform="translate(0 0.00195312)"/>
</clipPath>
</defs>
</svg>
