<svg width="48" height="48" viewBox="0 0 48 48" fill="none" xmlns="http://www.w3.org/2000/svg">
<g clip-path="url(#clip0_6013_52570)">
<path d="M40 23.002H37.92C37.6824 21.3359 36.8518 19.8115 35.5805 18.7087C34.3093 17.6059 32.6829 16.9987 31 16.9987C29.3171 16.9987 27.6907 17.6059 26.4195 18.7087C25.1482 19.8115 24.3176 21.3359 24.08 23.002H8C5.88013 23.008 3.84883 23.8528 2.34985 25.3518C0.850872 26.8508 0.00606848 28.8821 0 31.002V40.002C0.00633091 42.1217 0.851219 44.1529 2.35014 45.6518C3.84906 47.1507 5.88022 47.9956 8 48.002H40C42.1198 47.9956 44.1509 47.1507 45.6499 45.6518C47.1488 44.1529 47.9937 42.1217 48 40.002V31.002C47.9939 28.8821 47.1491 26.8508 45.6502 25.3518C44.1512 23.8528 42.1199 23.008 40 23.002ZM27.13 23.002C27.3509 22.1434 27.8509 21.3827 28.5516 20.8395C29.2522 20.2963 30.1135 20.0015 31 20.0015C31.8865 20.0015 32.7478 20.2963 33.4484 20.8395C34.1491 21.3827 34.6491 22.1434 34.87 23.002C34.9588 23.3278 35.0025 23.6643 35 24.002C35 25.0628 34.5786 26.0802 33.8284 26.8304C33.0783 27.5805 32.0609 28.002 31 28.002C29.9391 28.002 28.9217 27.5805 28.1716 26.8304C27.4214 26.0802 27 25.0628 27 24.002C26.9975 23.6643 27.0412 23.3278 27.13 23.002ZM20.5 36.002C19.8078 36.002 19.1311 35.7967 18.5555 35.4121C17.9799 35.0275 17.5313 34.4809 17.2664 33.8414C17.0015 33.2018 16.9322 32.4981 17.0673 31.8191C17.2023 31.1402 17.5356 30.5166 18.0251 30.0271C18.5146 29.5376 19.1383 29.2043 19.8172 29.0692C20.4961 28.9342 21.1999 29.0035 21.8394 29.2684C22.4789 29.5333 23.0256 29.9819 23.4101 30.5575C23.7947 31.133 24 31.8097 24 32.502C23.9989 33.4299 23.6299 34.3195 22.9737 34.9757C22.3176 35.6318 21.4279 36.0009 20.5 36.002ZM18.5 17.002C20.1811 17.002 21.8245 16.5034 23.2223 15.5694C24.6202 14.6355 25.7096 13.3079 26.353 11.7548C26.9963 10.2016 27.1646 8.49253 26.8367 6.84369C26.5087 5.19485 25.6992 3.6803 24.5104 2.49155C23.3217 1.3028 21.8071 0.493256 20.1583 0.165282C18.5094 -0.162692 16.8004 0.00563604 15.2472 0.648981C13.694 1.29233 12.3665 2.38179 11.4325 3.77961C10.4985 5.17743 10 6.82082 10 8.50196C10.0016 10.7558 10.8976 12.9169 12.4913 14.5106C14.0851 16.1043 16.2461 17.0004 18.5 17.002ZM18.5 3.00196C19.5878 3.00196 20.6512 3.32453 21.5556 3.92887C22.4601 4.53322 23.1651 5.3922 23.5813 6.3972C23.9976 7.40219 24.1065 8.50806 23.8943 9.57495C23.6821 10.6418 23.1583 11.6219 22.3891 12.391C21.6199 13.1602 20.6399 13.6841 19.573 13.8963C18.5061 14.1085 17.4002 13.9996 16.3952 13.5833C15.3902 13.167 14.5313 12.4621 13.9269 11.5576C13.3226 10.6531 13 9.58975 13 8.50196C12.9996 7.77958 13.1416 7.0642 13.4179 6.39673C13.6941 5.72926 14.0992 5.12279 14.61 4.61199C15.1208 4.10119 15.7273 3.69608 16.3948 3.41982C17.0622 3.14356 17.7776 3.00156 18.5 3.00196Z" fill="black"/>
</g>
<defs>
<clipPath id="clip0_6013_52570">
<rect width="48" height="48" fill="white" transform="translate(0 0.00195312)"/>
</clipPath>
</defs>
</svg>
