<svg width="48" height="48" viewBox="0 0 48 48" fill="none" xmlns="http://www.w3.org/2000/svg">
<g clip-path="url(#clip0_6013_52573)">
<path d="M43.7647 10.002H4.23529C3.86121 10.0027 3.50278 10.1084 3.23826 10.2957C2.97374 10.4831 2.82465 10.737 2.82353 11.002V47.002C2.82465 47.2669 2.97374 47.5208 3.23826 47.7082C3.50278 47.8956 3.86121 48.0012 4.23529 48.002H43.7647C44.1388 48.0012 44.4972 47.8956 44.7617 47.7082C45.0263 47.5208 45.1754 47.2669 45.1765 47.002V11.002C45.1754 10.737 45.0263 10.4831 44.7617 10.2957C44.4972 10.1084 44.1388 10.0027 43.7647 10.002ZM14.1176 42.002C14.1176 42.2672 13.9689 42.5215 13.7042 42.7091C13.4394 42.8966 13.0803 43.002 12.7059 43.002C12.3315 43.002 11.9724 42.8966 11.7076 42.7091C11.4429 42.5215 11.2941 42.2672 11.2941 42.002V16.002C11.2941 15.7367 11.4429 15.4824 11.7076 15.2948C11.9724 15.1073 12.3315 15.002 12.7059 15.002C13.0803 15.002 13.4394 15.1073 13.7042 15.2948C13.9689 15.4824 14.1176 15.7367 14.1176 16.002V42.002ZM25.4118 42.002C25.4118 42.2672 25.263 42.5215 24.9983 42.7091C24.7335 42.8966 24.3744 43.002 24 43.002C23.6256 43.002 23.2665 42.8966 23.0017 42.7091C22.737 42.5215 22.5882 42.2672 22.5882 42.002V16.002C22.5882 15.7367 22.737 15.4824 23.0017 15.2948C23.2665 15.1073 23.6256 15.002 24 15.002C24.3744 15.002 24.7335 15.1073 24.9983 15.2948C25.263 15.4824 25.4118 15.7367 25.4118 16.002V42.002ZM36.7059 42.002C36.7059 42.2672 36.5571 42.5215 36.2924 42.7091C36.0276 42.8966 35.6685 43.002 35.2941 43.002C34.9197 43.002 34.5606 42.8966 34.2958 42.7091C34.0311 42.5215 33.8824 42.2672 33.8824 42.002V16.002C33.8824 15.7367 34.0311 15.4824 34.2958 15.2948C34.5606 15.1073 34.9197 15.002 35.2941 15.002C35.6685 15.002 36.0276 15.1073 36.2924 15.2948C36.5571 15.4824 36.7059 15.7367 36.7059 16.002V42.002ZM45.1765 4.00195H31.0588V3.00195C31.0588 2.2063 30.6126 1.44324 29.8183 0.880633C29.0241 0.318024 27.9468 0.00195313 26.8235 0.00195313L21.1765 0.00195312C20.0532 0.00195313 18.9759 0.318024 18.1817 0.880633C17.3874 1.44324 16.9412 2.2063 16.9412 3.00195V4.00195H2.82353C2.07468 4.00195 1.35651 4.21267 0.826993 4.58774C0.297478 4.96281 0 5.47152 0 6.00195C0 6.53239 0.297478 7.04109 0.826993 7.41617C1.35651 7.79124 2.07468 8.00195 2.82353 8.00195H45.1765C45.9253 8.00195 46.6435 7.79124 47.173 7.41617C47.7025 7.04109 48 6.53239 48 6.00195C48 5.47152 47.7025 4.96281 47.173 4.58774C46.6435 4.21267 45.9253 4.00195 45.1765 4.00195Z" fill="black"/>
</g>
<defs>
<clipPath id="clip0_6013_52573">
<rect width="48" height="48" fill="white" transform="translate(0 0.00195312)"/>
</clipPath>
</defs>
</svg>
