<svg id="source" width="24" height="25" viewBox="0 0 24 25" fill="none" xmlns="http://www.w3.org/2000/svg">
<mask id="path-1-inside-1_2808_52051" fill="white">
<path d="M11.5 3.81132C14.395 3.81132 19 5.78779 19 11.0819C19 14.1313 16.42 17.6749 11.5 21.416C6.58 17.6749 4 14.1172 4 11.0819C4 5.78779 8.605 3.81132 11.5 3.81132ZM11.5 0.987793C6.595 0.987793 1 4.46073 1 11.0819C1 15.4866 4.495 20.1313 11.5 24.9878C18.505 20.1313 22 15.4866 22 11.0819C22 4.46073 16.405 0.987793 11.5 0.987793Z"/>
</mask>
<path d="M11.5 21.416L8.47357 25.3961L11.5 27.6974L14.5264 25.3961L11.5 21.416ZM11.5 24.9878L8.65123 29.0969L11.5 31.0719L14.3488 29.0969L11.5 24.9878ZM11.5 8.81132C11.9725 8.81132 12.7512 9.01512 13.3004 9.43465C13.534 9.61309 13.6861 9.79894 13.7864 9.99455C13.881 10.179 14 10.5069 14 11.0819H24C24 6.76859 22.0338 3.52224 19.3709 1.488C16.8938 -0.404242 13.9225 -1.18868 11.5 -1.18868V8.81132ZM14 11.0819C14 11.1875 13.9437 11.8201 13.0495 13.0511C12.1706 14.2612 10.6971 15.7452 8.47357 17.436L14.5264 25.3961C17.2229 23.3456 19.4994 21.1873 21.1405 18.928C22.7663 16.6896 24 14.0258 24 11.0819H14ZM14.5264 17.436C12.3059 15.7475 10.8317 14.2604 9.95188 13.0478C9.05447 11.811 9 11.1783 9 11.0819H-1C-1 14.0208 0.235531 16.6845 1.85812 18.9207C3.49826 21.1811 5.7741 23.3434 8.47357 25.3961L14.5264 17.436ZM9 11.0819C9 10.5069 9.11896 10.179 9.21357 9.99455C9.31392 9.79894 9.46602 9.61309 9.69961 9.43465C10.2488 9.01512 11.0275 8.81132 11.5 8.81132V-1.18868C9.07751 -1.18868 6.1062 -0.404242 3.62914 1.488C0.966172 3.52224 -1 6.76859 -1 11.0819H9ZM11.5 -4.01221C4.66823 -4.01221 -4 0.932759 -4 11.0819H6C6 9.32521 6.68582 8.17345 7.63316 7.3749C8.68685 6.48671 10.1509 5.98779 11.5 5.98779V-4.01221ZM-4 11.0819C-4 18.162 1.46723 24.1163 8.65123 29.0969L14.3488 20.8787C7.52277 16.1463 6 12.8112 6 11.0819H-4ZM14.3488 29.0969C21.5328 24.1163 27 18.162 27 11.0819H17C17 12.8112 15.4772 16.1463 8.65123 20.8787L14.3488 29.0969ZM27 11.0819C27 0.932759 18.3318 -4.01221 11.5 -4.01221V5.98779C12.8491 5.98779 14.3132 6.48671 15.3668 7.3749C16.3142 8.17345 17 9.32521 17 11.0819H27Z" fill="currentColor" mask="url(#path-1-inside-1_2808_52051)"/>
<path fill-rule="evenodd" clip-rule="evenodd" d="M11.8589 11.9277C13.0414 11.9277 14 10.9691 14 9.78661C14 8.60411 13.0414 7.64551 11.8589 7.64551C10.6764 7.64551 9.71777 8.60411 9.71777 9.78661C9.71777 10.9691 10.6764 11.9277 11.8589 11.9277ZM11.8594 10.61C12.3142 10.61 12.6829 10.2413 12.6829 9.78646C12.6829 9.33165 12.3142 8.96296 11.8594 8.96296C11.4046 8.96296 11.0359 9.33165 11.0359 9.78646C11.0359 10.2413 11.4046 10.61 11.8594 10.61Z" fill="currentColor"/>
</svg>
