<svg width="48" height="48" viewBox="0 0 48 48" fill="none" xmlns="http://www.w3.org/2000/svg">
<g clip-path="url(#clip0_6013_52576)">
<path d="M6.21662 17.564C6.22119 17.5673 6.22615 17.5703 6.23148 17.573C6.38718 17.7068 6.57065 17.8134 6.77204 17.887C6.78728 17.891 6.80251 17.895 6.81775 17.899C7.00735 17.9635 7.20858 17.9981 7.41202 18.001L7.42916 18.003L7.44402 18.001C7.64945 17.9984 7.85268 17.9635 8.04401 17.898L8.08515 17.888C8.28994 17.8133 8.47624 17.7047 8.63371 17.568L8.64171 17.564L8.64399 17.56L14.3559 12.563C14.5151 12.4237 14.6414 12.2583 14.7276 12.0764C14.8138 11.8944 14.8582 11.6993 14.8583 11.5023C14.8583 11.3053 14.814 11.1102 14.7279 10.9282C14.6418 10.7462 14.5156 10.5808 14.3564 10.4415C14.1973 10.3021 14.0083 10.1916 13.8003 10.1162C13.5923 10.0407 13.3694 10.0019 13.1443 10.0018C12.6896 10.0017 12.2535 10.1597 11.9319 10.441L9.14227 12.882V1.50195C9.14227 1.10413 8.96166 0.722597 8.64018 0.441293C8.31869 0.159988 7.88267 0.00195313 7.42802 0.00195312C6.97338 0.00195313 6.53735 0.159988 6.21587 0.441293C5.89438 0.722597 5.71378 1.10413 5.71378 1.50195V12.882L2.92527 10.442C2.60211 10.1686 2.16917 10.0172 1.71969 10.0204C1.27022 10.0237 0.84018 10.1812 0.522194 10.4592C0.204208 10.7372 0.0237195 11.1134 0.0196032 11.5067C0.015487 11.8999 0.188072 12.2789 0.500186 12.562L6.21205 17.56L6.21662 17.564ZM47.4979 10.442C47.1765 10.1607 46.7405 10.0028 46.286 10.0028C45.8314 10.0028 45.3955 10.1607 45.074 10.442L42.2843 12.88V1.50195C42.2843 1.10413 42.1037 0.722597 41.7822 0.441293C41.4608 0.159988 41.0247 0.00195313 40.5701 0.00195312C40.1154 0.00195313 39.6794 0.159988 39.3579 0.441293C39.0365 0.722597 38.8558 1.10413 38.8558 1.50195V12.882L36.0673 10.442C35.7442 10.1686 35.3112 10.0172 34.8618 10.0204C34.4123 10.0237 33.9823 10.1812 33.6643 10.4592C33.3463 10.7372 33.1658 11.1134 33.1617 11.5067C33.1576 11.8999 33.3301 12.2789 33.6423 12.562L39.3541 17.56L39.3564 17.564C39.3617 17.5673 39.3671 17.5703 39.3724 17.573C39.5281 17.7068 39.7116 17.8134 39.913 17.887C39.9282 17.891 39.9434 17.895 39.9587 17.899C40.1483 17.9635 40.3495 17.9981 40.5529 18.001L40.5701 18.003L40.5849 18.001C40.7904 17.9984 40.9936 17.9635 41.1849 17.898L41.2261 17.888C41.4309 17.8133 41.6172 17.7047 41.7746 17.568L41.7826 17.564L41.7849 17.56L47.4968 12.563C47.6561 12.4237 47.7825 12.2583 47.8687 12.0762C47.9549 11.8941 47.9993 11.699 47.9993 11.502C47.9993 11.3049 47.9549 11.1098 47.8687 10.9277C47.7825 10.7457 47.6561 10.5803 47.4968 10.441M42.2843 29.662L25.1762 18.342C24.8349 18.1226 24.4225 18.0043 23.9991 18.0043C23.5756 18.0043 23.1632 18.1226 22.8219 18.342L5.71378 29.662C5.52651 29.7811 5.36836 29.9319 5.24864 30.1053C5.12892 30.2788 5.05005 30.4714 5.01665 30.672L2.28529 48.002H22.8562V38.292C22.8562 37.992 23.3705 37.892 23.5648 38.152L29.8846 48.002H45.7128L42.9815 30.672C42.9481 30.4714 42.8692 30.2788 42.7495 30.1053C42.6297 29.9319 42.4716 29.7811 42.2843 29.662Z" fill="black"/>
</g>
<defs>
<clipPath id="clip0_6013_52576">
<rect width="48" height="48" fill="white" transform="translate(0 0.00195312)"/>
</clipPath>
</defs>
</svg>
