<svg width="48" height="48" viewBox="0 0 48 48" fill="none" xmlns="http://www.w3.org/2000/svg">
<g clip-path="url(#clip0_6013_52579)">
<path d="M6.62 31.242C7.42449 31.7662 8.37024 32.0314 9.33 32.002C10.2898 32.0314 11.2355 31.7662 12.04 31.242C13.4317 30.4 15.0337 29.9701 16.66 30.002C17.4481 29.9966 18.2339 30.0872 19 30.272V16.002H2C1.47005 16.0035 0.962265 16.2148 0.587535 16.5895C0.212805 16.9642 0.00158273 17.472 0 18.002L0 30.202C0.657603 30.064 1.3281 29.9969 2 30.002C3.62628 29.9701 5.22825 30.4 6.62 31.242ZM46 16.002H29V30.272C29.7625 30.0861 30.5452 29.9954 31.33 30.002C32.9563 29.9701 34.5583 30.4 35.95 31.242C36.7684 31.739 37.7075 32.0019 38.665 32.0019C39.6225 32.0019 40.5616 31.739 41.38 31.242C42.7717 30.4 44.3737 29.9701 46 30.002C46.6719 29.9969 47.3424 30.064 48 30.202V18.002C47.9984 17.472 47.7872 16.9642 47.4125 16.5895C47.0377 16.2148 46.5299 16.0035 46 16.002ZM46 42.002C44.3716 41.9703 42.7678 42.4017 41.375 43.246C40.557 43.7406 39.6194 44.0021 38.6635 44.0021C37.7076 44.0021 36.77 43.7406 35.952 43.246C34.5589 42.4015 32.9547 41.9701 31.326 42.002C29.6983 41.9707 28.0952 42.4021 26.703 43.246C25.8986 43.7684 24.9537 44.0322 23.995 44.002C23.036 44.0324 22.0907 43.7686 21.286 43.246C19.8932 42.4017 18.2894 41.9703 16.661 42.002C15.033 41.9705 13.4295 42.4019 12.037 43.246C11.2329 43.7682 10.2883 44.032 9.33 44.002C8.37202 44.0318 7.42782 43.768 6.624 43.246C5.23152 42.4019 3.62802 41.9705 2 42.002C1.46957 42.002 0.960859 42.2127 0.585786 42.5877C0.210714 42.9628 0 43.4715 0 44.002C0 44.5324 0.210714 45.0411 0.585786 45.4162C0.960859 45.7912 1.46957 46.002 2 46.002C2.95832 45.9719 3.9029 46.2357 4.707 46.758C6.0989 47.6016 7.70166 48.033 9.329 48.002C10.957 48.0334 12.5605 47.602 13.953 46.758C14.7574 46.2355 15.7023 45.9717 16.661 46.002C17.6203 45.9713 18.5661 46.2351 19.371 46.758C20.7632 47.6018 22.3663 48.0332 23.994 48.002C25.622 48.0334 27.2255 47.602 28.618 46.758C29.4352 46.2628 30.3725 46.0011 31.328 46.0011C32.2835 46.0011 33.2208 46.2628 34.038 46.758C35.4432 47.5728 37.0387 48.0019 38.663 48.0019C40.2873 48.0019 41.8828 47.5728 43.288 46.758C44.0935 46.2348 45.04 45.9709 46 46.002C46.5304 46.002 47.0391 45.7912 47.4142 45.4162C47.7893 45.0411 48 44.5324 48 44.002C48 43.4715 47.7893 42.9628 47.4142 42.5877C47.0391 42.2127 46.5304 42.002 46 42.002ZM46 34.002C44.3716 33.9703 42.7678 34.4017 41.375 35.246C40.557 35.7406 39.6194 36.0021 38.6635 36.0021C37.7076 36.0021 36.77 35.7406 35.952 35.246C34.5589 34.4015 32.9547 33.9701 31.326 34.002C29.6983 33.9707 28.0952 34.4021 26.703 35.246C25.8986 35.7684 24.9537 36.0322 23.995 36.002C23.036 36.0324 22.0907 35.7686 21.286 35.246C19.8932 34.4017 18.2894 33.9703 16.661 34.002C15.033 33.9705 13.4295 34.4019 12.037 35.246C11.2329 35.7682 10.2883 36.032 9.33 36.002C8.37202 36.0318 7.42782 35.768 6.624 35.246C5.23152 34.4019 3.62802 33.9705 2 34.002C1.46957 34.002 0.960859 34.2127 0.585786 34.5877C0.210714 34.9628 0 35.4715 0 36.002C0 36.5324 0.210714 37.0411 0.585786 37.4162C0.960859 37.7912 1.46957 38.002 2 38.002C2.95832 37.9719 3.9029 38.2357 4.707 38.758C6.0989 39.6016 7.70166 40.033 9.329 40.002C10.957 40.0334 12.5605 39.602 13.953 38.758C14.7574 38.2355 15.7023 37.9717 16.661 38.002C17.6203 37.9713 18.5661 38.2351 19.371 38.758C20.7632 39.6018 22.3663 40.0332 23.994 40.002C25.622 40.0334 27.2255 39.602 28.618 38.758C29.4352 38.2628 30.3725 38.0011 31.328 38.0011C32.2835 38.0011 33.2208 38.2628 34.038 38.758C35.4432 39.5728 37.0387 40.0019 38.663 40.0019C40.2873 40.0019 41.8828 39.5728 43.288 38.758C44.0935 38.2348 45.04 37.9709 46 38.002C46.5304 38.002 47.0391 37.7912 47.4142 37.4162C47.7893 37.0411 48 36.5324 48 36.002C48 35.4715 47.7893 34.9628 47.4142 34.5877C47.0391 34.2127 46.5304 34.002 46 34.002Z" fill="black"/>
<path d="M18.4201 10.4122L19.0001 9.82218L20.5001 8.31218L22.0001 6.79217V27.0022C22.0001 27.5326 22.2109 28.0413 22.5859 28.4164C22.961 28.7915 23.4697 29.0022 24.0001 29.0022C24.5306 29.0022 25.0393 28.7915 25.4144 28.4164C25.7894 28.0413 26.0001 27.5326 26.0001 27.0022V6.87217L27.5001 8.35218L29.0001 9.84218L29.5901 10.4222C29.967 10.7957 30.4766 11.0044 31.0072 11.0025C31.5378 11.0006 32.0459 10.7883 32.4201 10.4122C32.7934 10.0352 33.0019 9.5256 33.0001 8.99511C32.9982 8.46461 32.7861 7.95651 32.4101 7.58217L29.0001 4.20217L27.4801 2.70218L25.3401 0.582175C25.1361 0.381112 24.8903 0.22747 24.6201 0.132175C24.4009 0.043968 24.1665 -0.000205555 23.9301 0.00217508H23.9201C23.687 -0.00159324 23.4555 0.0426575 23.2401 0.132175C22.9648 0.227496 22.715 0.384887 22.5101 0.592175L20.5301 2.59218L19.0001 4.14217L15.5801 7.59218C15.2062 7.96878 14.9972 8.47852 14.999 9.00925C15 9.27204 15.0526 9.53207 15.1541 9.7745C15.2555 10.0169 15.4037 10.237 15.5901 10.4222C15.7766 10.6073 15.9977 10.754 16.2409 10.8537C16.484 10.9534 16.7444 11.0042 17.0072 11.0033C17.5379 11.0014 18.0462 10.7888 18.4201 10.4122Z" fill="black"/>
</g>
<defs>
<clipPath id="clip0_6013_52579">
<rect width="48" height="48" fill="white" transform="translate(0 0.00195312)"/>
</clipPath>
</defs>
</svg>
