<svg width="48" height="48" viewBox="0 0 48 48" fill="none" xmlns="http://www.w3.org/2000/svg">
<g clip-path="url(#clip0_6013_52583)">
<path d="M6 31.002C6.53043 31.002 7.03914 30.7912 7.41421 30.4162C7.78929 30.0411 8 29.5324 8 29.002V26.002H22V29.002C22 29.5324 22.2107 30.0411 22.5858 30.4162C22.9609 30.7912 23.4696 31.002 24 31.002C24.5304 31.002 25.0391 30.7912 25.4142 30.4162C25.7893 30.0411 26 29.5324 26 29.002V26.002H40V29.002C40 29.5324 40.2107 30.0411 40.5858 30.4162C40.9609 30.7912 41.4696 31.002 42 31.002C42.5304 31.002 43.0391 30.7912 43.4142 30.4162C43.7893 30.0411 44 29.5324 44 29.002V24.002C44 23.4715 43.7893 22.9628 43.4142 22.5877C43.0391 22.2127 42.5304 22.002 42 22.002H26V19.002C26 18.4715 25.7893 17.9628 25.4142 17.5877C25.0391 17.2127 24.5304 17.002 24 17.002C23.4696 17.002 22.9609 17.2127 22.5858 17.5877C22.2107 17.9628 22 18.4715 22 19.002V22.002H6C5.46957 22.002 4.96086 22.2127 4.58579 22.5877C4.21071 22.9628 4 23.4715 4 24.002V29.002C4 29.5324 4.21071 30.0411 4.58579 30.4162C4.96086 30.7912 5.46957 31.002 6 31.002Z" fill="black"/>
<path d="M6 48.002C9.31371 48.002 12 45.3157 12 42.002C12 38.6882 9.31371 36.002 6 36.002C2.68629 36.002 0 38.6882 0 42.002C0 45.3157 2.68629 48.002 6 48.002Z" fill="black"/>
<path d="M42 48.002C45.3137 48.002 48 45.3157 48 42.002C48 38.6882 45.3137 36.002 42 36.002C38.6863 36.002 36 38.6882 36 42.002C36 45.3157 38.6863 48.002 42 48.002Z" fill="black"/>
<path d="M24 48.002C27.3137 48.002 30 45.3157 30 42.002C30 38.6882 27.3137 36.002 24 36.002C20.6863 36.002 18 38.6882 18 42.002C18 45.3157 20.6863 48.002 24 48.002Z" fill="black"/>
<path d="M24 12.002C27.3137 12.002 30 9.31566 30 6.00195C30 2.68824 27.3137 0.00195312 24 0.00195312C20.6863 0.00195312 18 2.68824 18 6.00195C18 9.31566 20.6863 12.002 24 12.002Z" fill="black"/>
</g>
<defs>
<clipPath id="clip0_6013_52583">
<rect width="48" height="48" fill="white" transform="translate(0 0.00195312)"/>
</clipPath>
</defs>
</svg>
