<svg width="48" height="44" viewBox="0 0 48 44" fill="none" xmlns="http://www.w3.org/2000/svg">
<g clip-path="url(#clip0_6013_52590)">
<path d="M24 0.00195333C19.2533 0.00195333 14.6131 1.29223 10.6663 3.70962C6.71955 6.12701 3.64341 9.56294 1.8269 13.5829C0.0103989 17.6029 -0.464881 22.0264 0.461164 26.2939C1.38721 30.5615 3.67299 34.4815 7.02945 37.5583C10.3859 40.6351 14.6623 42.7304 19.3178 43.5792C23.9734 44.4281 28.799 43.9924 33.1844 42.3273C37.5698 40.6622 41.3181 37.8424 43.9553 34.2245C46.5924 30.6066 48 26.3531 48 22.002C48.0004 19.1128 47.38 16.2518 46.174 13.5825C44.968 10.9131 43.2002 8.48769 40.9715 6.44473C38.7428 4.40176 36.0969 2.78126 33.1849 1.6758C30.2729 0.570337 27.1519 0.00155927 24 0.00195333ZM32.7273 29.002C32.7273 29.2672 32.6124 29.5215 32.4078 29.7091C32.2032 29.8966 31.9257 30.002 31.6364 30.002H16.3636C16.0743 30.002 15.7968 29.8966 15.5923 29.7091C15.3877 29.5215 15.2727 29.2672 15.2727 29.002V15.002C15.2727 14.7367 15.3877 14.4824 15.5923 14.2948C15.7968 14.1073 16.0743 14.002 16.3636 14.002H31.6364C31.9257 14.002 32.2032 14.1073 32.4078 14.2948C32.6124 14.4824 32.7273 14.7367 32.7273 15.002V29.002Z" fill="black"/>
</g>
<defs>
<clipPath id="clip0_6013_52590">
<rect width="48" height="44" fill="white" transform="translate(0 0.00195312)"/>
</clipPath>
</defs>
</svg>
