<svg width="48" height="48" viewBox="0 0 48 48" fill="none" xmlns="http://www.w3.org/2000/svg">
<g clip-path="url(#clip0_6013_52592)">
<path d="M46 42.0022C44.3737 41.9703 42.7717 42.4002 41.38 43.2422C40.5616 43.7392 39.6225 44.0021 38.665 44.0021C37.7075 44.0021 36.7684 43.7392 35.95 43.2422C34.5583 42.4002 32.9563 41.9703 31.33 42.0022C29.7006 41.9706 28.0955 42.4004 26.7 43.2422C25.9002 43.7686 24.9569 44.0341 24 44.0022C23.0398 44.0355 22.0929 43.77 21.29 43.2422C19.8939 42.4019 18.2892 41.9722 16.66 42.0022C15.0337 41.9703 13.4317 42.4002 12.04 43.2422C11.2355 43.7664 10.2898 44.0316 9.33 44.0022C8.37024 44.0316 7.42449 43.7664 6.62 43.2422C5.22825 42.4002 3.62628 41.9703 2 42.0022C1.46957 42.0022 0.960859 42.2129 0.585786 42.5879C0.210714 42.963 0 43.4717 0 44.0022C0 44.5326 0.210714 45.0413 0.585786 45.4164C0.960859 45.7914 1.46957 46.0022 2 46.0022C2.95976 45.9727 3.90551 46.2379 4.71 46.7622C6.10175 47.6041 7.70372 48.034 9.33 48.0022C10.9563 48.034 12.5583 47.6041 13.95 46.7622C14.7545 46.2379 15.7002 45.9727 16.66 46.0022C17.6201 45.9701 18.5666 46.2356 19.37 46.7622C20.7655 47.6039 22.3706 48.0338 24 48.0022C25.6261 48.0324 27.2276 47.6026 28.62 46.7622C29.4365 46.2649 30.374 46.0019 31.33 46.0019C32.286 46.0019 33.2235 46.2649 34.04 46.7622C35.4458 47.575 37.0411 48.003 38.665 48.003C40.2889 48.003 41.8842 47.575 43.29 46.7622C44.0934 46.2356 45.0399 45.9701 46 46.0022C46.5304 46.0022 47.0391 45.7914 47.4142 45.4164C47.7893 45.0413 48 44.5326 48 44.0022C48 43.4717 47.7893 42.963 47.4142 42.5879C47.0391 42.2129 46.5304 42.0022 46 42.0022ZM46 34.0022C44.3737 33.9703 42.7717 34.4002 41.38 35.2422C40.5616 35.7392 39.6225 36.0021 38.665 36.0021C37.7075 36.0021 36.7684 35.7392 35.95 35.2422C34.5583 34.4002 32.9563 33.9703 31.33 34.0022C29.7006 33.9706 28.0955 34.4004 26.7 35.2422C25.9002 35.7686 24.9569 36.0341 24 36.0022C23.0398 36.0355 22.0929 35.77 21.29 35.2422C19.8939 34.4019 18.2892 33.9722 16.66 34.0022C15.0337 33.9703 13.4317 34.4002 12.04 35.2422C11.2355 35.7664 10.2898 36.0316 9.33 36.0022C8.37024 36.0316 7.42449 35.7664 6.62 35.2422C5.22825 34.4002 3.62628 33.9703 2 34.0022C1.46957 34.0022 0.960859 34.2129 0.585786 34.5879C0.210714 34.963 0 35.4717 0 36.0022C0 36.5326 0.210714 37.0413 0.585786 37.4164C0.960859 37.7914 1.46957 38.0022 2 38.0022C2.95976 37.9727 3.90551 38.2379 4.71 38.7622C6.10175 39.6041 7.70372 40.034 9.33 40.0022C10.9563 40.034 12.5583 39.6041 13.95 38.7622C14.7545 38.2379 15.7002 37.9727 16.66 38.0022C17.6201 37.9701 18.5666 38.2356 19.37 38.7622C20.7655 39.6039 22.3706 40.0338 24 40.0022C25.6261 40.0324 27.2276 39.6026 28.62 38.7622C29.4365 38.2649 30.374 38.0019 31.33 38.0019C32.286 38.0019 33.2235 38.2649 34.04 38.7622C35.4458 39.575 37.0411 40.003 38.665 40.003C40.2889 40.003 41.8842 39.575 43.29 38.7622C44.0934 38.2356 45.0399 37.9701 46 38.0022C46.5304 38.0022 47.0391 37.7914 47.4142 37.4164C47.7893 37.0413 48 36.5326 48 36.0022C48 35.4717 47.7893 34.963 47.4142 34.5879C47.0391 34.2129 46.5304 34.0022 46 34.0022ZM8 22.0022H36.5C38.2109 21.9998 39.8697 21.4139 41.2025 20.3411C42.5353 19.2684 43.4622 17.773 43.83 16.1022C43.9431 15.5763 44.0001 15.04 44 14.5022C43.9992 12.5133 43.2088 10.6061 41.8024 9.19973C40.3961 7.79338 38.4889 7.00295 36.5 7.00216C35.5727 7.00086 34.6534 7.17386 33.79 7.51216L33.788 7.51316C33.299 5.22504 31.9825 3.19798 30.0911 1.82068C28.1996 0.443384 25.8663 -0.187194 23.5385 0.0498681C21.2108 0.28693 19.0525 1.37495 17.4775 3.10527C15.9025 4.8356 15.0217 7.08644 15.004 9.42616C14.2436 9.09071 13.4114 8.95051 12.5831 9.01828C11.7548 9.08605 10.9565 9.35964 10.2607 9.81422C9.56492 10.2688 8.99371 10.89 8.59891 11.6213C8.20412 12.3527 7.99825 13.1711 8 14.0022C6.93913 14.0022 5.92172 14.4236 5.17157 15.1737C4.42143 15.9239 4 16.9413 4 18.0022C4 19.063 4.42143 20.0804 5.17157 20.8306C5.92172 21.5807 6.93913 22.0022 8 22.0022ZM10.988 24.5202L7.524 27.9842C7.20132 28.3175 7.02259 28.7643 7.02636 29.2282C7.03012 29.6921 7.21608 30.136 7.54413 30.464C7.87218 30.7921 8.31603 30.978 8.77994 30.9818C9.24386 30.9856 9.69067 30.8068 10.024 30.4842L13.488 27.0202C13.8107 26.6868 13.9894 26.24 13.9856 25.7761C13.9819 25.3122 13.7959 24.8683 13.4679 24.5403C13.1398 24.2122 12.696 24.0263 12.2321 24.0225C11.7681 24.0187 11.3213 24.1975 10.988 24.5202ZM22.986 24.5202L19.521 27.9842C19.1983 28.3175 19.0196 28.7643 19.0234 29.2282C19.0271 29.6921 19.2131 30.136 19.5411 30.464C19.8692 30.7921 20.313 30.978 20.7769 30.9818C21.2409 30.9856 21.6877 30.8068 22.021 30.4842L25.486 27.0202C25.8087 26.6868 25.9874 26.24 25.9836 25.7761C25.9799 25.3122 25.7939 24.8683 25.4659 24.5403C25.1378 24.2122 24.694 24.0263 24.2301 24.0225C23.7661 24.0187 23.3193 24.1975 22.986 24.5202ZM34.982 24.5202L31.518 27.9842C31.1953 28.3175 31.0166 28.7643 31.0204 29.2282C31.0241 29.6921 31.2101 30.136 31.5381 30.464C31.8662 30.7921 32.31 30.978 32.7739 30.9818C33.2379 30.9856 33.6847 30.8068 34.018 30.4842L37.482 27.0202C37.8047 26.6868 37.9834 26.24 37.9796 25.7761C37.9759 25.3122 37.7899 24.8683 37.4619 24.5403C37.1338 24.2122 36.69 24.0263 36.2261 24.0225C35.7621 24.0187 35.3153 24.1975 34.982 24.5202Z" fill="black"/>
</g>
<defs>
<clipPath id="clip0_6013_52592">
<rect width="48" height="48" fill="white" transform="translate(0 0.00195312)"/>
</clipPath>
</defs>
</svg>
