<svg width="48" height="48" viewBox="0 0 48 48" fill="none" xmlns="http://www.w3.org/2000/svg">
<g clip-path="url(#clip0_6013_52595)">
<path d="M38.9967 9.01219C37.9161 9.00767 36.844 9.20436 35.8354 9.59219L35.8254 9.59719C35.3532 6.76426 33.8367 4.21081 31.5747 2.43991C29.3128 0.669016 26.4693 -0.190922 23.6046 0.0295226C20.7399 0.249967 18.0617 1.53481 16.0975 3.63091C14.1334 5.72702 13.0258 8.4824 12.9929 11.3542C12.0045 10.9976 10.9394 10.9076 9.90516 11.0934C8.87088 11.2793 7.90384 11.7342 7.10148 12.4126C6.29912 13.0909 5.68977 13.9686 5.33481 14.9573C4.97985 15.946 4.89182 17.0107 5.07959 18.0442L5.07259 18.0422C4.8771 18.0143 4.67981 18.001 4.48234 18.0022C3.28837 18.0022 2.1433 18.4763 1.29904 19.3202C0.454772 20.1641 -0.0195312 21.3087 -0.0195312 22.5022C-0.0195312 23.6957 0.454772 24.8403 1.29904 25.6842C2.1433 26.5281 3.28837 27.0022 4.48234 27.0022H38.9967C41.0797 27.0031 43.0986 26.282 44.7093 24.9618C46.3201 23.6417 47.4231 21.8041 47.8304 19.7622C47.9429 19.1823 47.9998 18.5929 48.0005 18.0022C48.0005 16.8208 47.7675 15.6509 47.3149 14.5596C46.8623 13.4682 46.1989 12.4767 45.3627 11.6418C44.5265 10.8068 43.5339 10.1448 42.4416 9.69365C41.3492 9.24244 40.1786 9.01088 38.9967 9.01219ZM28.4923 37.0022H22.1967L25.7632 31.2972C25.8677 31.1302 25.9382 30.9442 25.9707 30.7499C26.0033 30.5556 25.9972 30.3568 25.9529 30.1649C25.9086 29.973 25.8269 29.7916 25.7125 29.6313C25.598 29.4709 25.4531 29.3346 25.286 29.2302C25.1189 29.1258 24.9329 29.0553 24.7385 29.0228C24.5441 28.9903 24.3453 28.9963 24.1533 29.0406C23.9612 29.0849 23.7798 29.1666 23.6194 29.2809C23.4589 29.3953 23.3226 29.5402 23.2182 29.7072L18.2161 37.7072C18.0741 37.9343 17.9955 38.1952 17.9885 38.4628C17.9815 38.7305 18.0462 38.9952 18.1761 39.2293C18.3059 39.4635 18.4961 39.6587 18.7269 39.7946C18.9577 39.9305 19.2207 40.0022 19.4886 40.0022H25.7842L22.2177 45.7072C22.1133 45.8742 22.0428 46.0602 22.0102 46.2545C21.9777 46.4488 21.9838 46.6475 22.0281 46.8395C22.0724 47.0314 22.1541 47.2128 22.2685 47.3731C22.3829 47.5335 22.5278 47.6698 22.6949 47.7742C22.862 47.8786 23.0481 47.9491 23.2425 47.9816C23.4368 48.0141 23.6357 48.0081 23.8277 47.9638C24.0197 47.9195 24.2011 47.8378 24.3616 47.7234C24.522 47.6091 24.6584 47.4642 24.7628 47.2972L29.7649 39.2972C29.9069 39.0701 29.9854 38.8092 29.9925 38.5416C29.9995 38.2739 29.9347 38.0092 29.8049 37.775C29.675 37.5408 29.4848 37.3457 29.254 37.2098C29.0232 37.0739 28.7602 37.0022 28.4923 37.0022Z" fill="black"/>
</g>
<defs>
<clipPath id="clip0_6013_52595">
<rect width="48" height="48" fill="white" transform="translate(0 0.00195312)"/>
</clipPath>
</defs>
</svg>
