<svg width="48" height="48" viewBox="0 0 48 48" fill="none" xmlns="http://www.w3.org/2000/svg">
<g clip-path="url(#clip0_6013_52598)">
<path d="M46 36.0018H41V30.0018C41 29.4714 40.7893 28.9627 40.4142 28.5876C40.0391 28.2126 39.5304 28.0018 39 28.0018H32C31.4696 28.0018 30.9609 28.2126 30.5858 28.5876C30.2107 28.9627 30 29.4714 30 30.0018C30 30.5323 30.2107 31.041 30.5858 31.416C30.9609 31.7911 31.4696 32.0018 32 32.0018H37V36.0018H27V33.0018C27 32.2062 26.6839 31.4431 26.1213 30.8805C25.5587 30.3179 24.7956 30.0018 24 30.0018C23.2044 30.0018 22.4413 30.3179 21.8787 30.8805C21.3161 31.4431 21 32.2062 21 33.0018V36.0018H11V32.0018H16C16.5304 32.0018 17.0391 31.7911 17.4142 31.416C17.7893 31.041 18 30.5323 18 30.0018C18 29.4714 17.7893 28.9627 17.4142 28.5876C17.0391 28.2126 16.5304 28.0018 16 28.0018H9C8.46957 28.0018 7.96086 28.2126 7.58579 28.5876C7.21071 28.9627 7 29.4714 7 30.0018V36.0018H2C1.47005 36.0034 0.962265 36.2146 0.587535 36.5894C0.212805 36.9641 0.00158273 37.4719 0 38.0018L0 46.0018C0.00158273 46.5318 0.212805 47.0396 0.587535 47.4143C0.962265 47.789 1.47005 48.0003 2 48.0018H46C46.5299 48.0003 47.0377 47.789 47.4125 47.4143C47.7872 47.0396 47.9984 46.5318 48 46.0018V38.0018C47.9984 37.4719 47.7872 36.9641 47.4125 36.5894C47.0377 36.2146 46.5299 36.0034 46 36.0018ZM26 43.0018C26 43.5323 25.7893 44.041 25.4142 44.416C25.0391 44.7911 24.5304 45.0018 24 45.0018C23.4696 45.0018 22.9609 44.7911 22.5858 44.416C22.2107 44.041 22 43.5323 22 43.0018V41.0018C22.0016 40.4719 22.2128 39.9641 22.5875 39.5894C22.9623 39.2146 23.4701 39.0034 24 39.0018C24.5292 39.0058 25.0357 39.2177 25.4099 39.592C25.7841 39.9662 25.9961 40.4726 26 41.0018V43.0018ZM12 17.9968C12 18.5273 12.2107 19.036 12.5858 19.4111C12.9609 19.7861 13.4696 19.9968 14 19.9968C14.5304 19.9968 15.0391 19.7861 15.4142 19.4111C15.7893 19.036 16 18.5273 16 17.9968C16.0347 16.2861 15.6162 14.5966 14.787 13.0998C14.2397 12.1613 13.967 11.0878 14 10.0018C13.9671 8.91541 14.2401 7.84159 14.788 6.90284C15.6167 5.40626 16.0348 3.71716 16 2.00684C16 1.4764 15.7893 0.967695 15.4142 0.592622C15.0391 0.21755 14.5304 0.00683594 14 0.00683594C13.4696 0.00683594 12.9609 0.21755 12.5858 0.592622C12.2107 0.967695 12 1.4764 12 2.00684C12.033 3.09283 11.7603 4.16627 11.213 5.10484C10.3838 6.60161 9.96534 8.29109 10 10.0018C9.96521 11.7122 10.3833 13.4013 11.212 14.8978C11.7599 15.8366 12.0329 16.9104 12 17.9968ZM34 17.9968C34 18.5273 34.2107 19.036 34.5858 19.4111C34.9609 19.7861 35.4696 19.9968 36 19.9968C36.5304 19.9968 37.0391 19.7861 37.4142 19.4111C37.7893 19.036 38 18.5273 38 17.9968C38.0347 16.2861 37.6162 14.5966 36.787 13.0998C36.2397 12.1613 35.967 11.0878 36 10.0018C35.9671 8.91541 36.2401 7.84159 36.788 6.90284C37.6167 5.40626 38.0348 3.71716 38 2.00684C38 1.4764 37.7893 0.967695 37.4142 0.592622C37.0391 0.21755 36.5304 0.00683594 36 0.00683594C35.4696 0.00683594 34.9609 0.21755 34.5858 0.592622C34.2107 0.967695 34 1.4764 34 2.00684C34.033 3.09283 33.7603 4.16627 33.213 5.10484C32.3838 6.60161 31.9653 8.29109 32 10.0018C31.9652 11.7122 32.3833 13.4013 33.212 14.8978C33.7599 15.8366 34.0329 16.9104 34 17.9968ZM23 17.9968C23 18.5273 23.2107 19.036 23.5858 19.4111C23.9609 19.7861 24.4696 19.9968 25 19.9968C25.5304 19.9968 26.0391 19.7861 26.4142 19.4111C26.7893 19.036 27 18.5273 27 17.9968C27.0347 16.2861 26.6162 14.5966 25.787 13.0998C25.2397 12.1613 24.967 11.0878 25 10.0018C24.9671 8.91541 25.2401 7.84159 25.788 6.90284C26.6167 5.40626 27.0348 3.71716 27 2.00684C27 1.4764 26.7893 0.967695 26.4142 0.592622C26.0391 0.21755 25.5304 0.00683594 25 0.00683594C24.4696 0.00683594 23.9609 0.21755 23.5858 0.592622C23.2107 0.967695 23 1.4764 23 2.00684C23.033 3.09283 22.7603 4.16627 22.213 5.10484C21.3838 6.60161 20.9653 8.29109 21 10.0018C20.9652 11.7122 21.3833 13.4013 22.212 14.8978C22.7599 15.8366 23.0329 16.9104 23 17.9968Z" fill="black"/>
</g>
<defs>
<clipPath id="clip0_6013_52598">
<rect width="48" height="48" fill="white" transform="translate(0 0.00195312)"/>
</clipPath>
</defs>
</svg>
