<svg width="48" height="48" viewBox="0 0 48 48" fill="none" xmlns="http://www.w3.org/2000/svg">
<g clip-path="url(#clip0_6013_52601)">
<path d="M46.5403 24.002H39.9817V19.002C39.9817 18.7367 39.8763 18.4824 39.6888 18.2948C39.5013 18.1073 39.247 18.002 38.9819 18.002H37.9921V5.12295L40.4316 7.56395C40.7128 7.84535 41.0942 8.00349 41.492 8.00358C41.8898 8.00367 42.2713 7.84572 42.5526 7.56445C42.834 7.28319 42.9921 6.90167 42.9922 6.50381C42.9923 6.10595 42.8343 5.72435 42.5531 5.44295L37.5562 0.444953L37.5542 0.440953L37.5402 0.431953C37.4043 0.298237 37.2441 0.191667 37.0683 0.117953C37.0543 0.113953 37.0406 0.109953 37.0273 0.105953C36.8614 0.0417048 36.6853 0.00750494 36.5074 0.00495313L36.4944 0.00195312L36.4804 0.00395313C36.3011 0.00634854 36.1236 0.0408955 35.9565 0.105953L35.9205 0.117953C35.7414 0.19226 35.5785 0.300593 35.4406 0.436953L35.4326 0.440953L35.4306 0.444953L30.4337 5.44295C30.2944 5.58229 30.184 5.74768 30.1087 5.92971C30.0333 6.11173 29.9946 6.30681 29.9946 6.50381C29.9947 6.70081 30.0335 6.89587 30.1089 7.07785C30.1843 7.25984 30.2949 7.42519 30.4342 7.56445C30.5735 7.70372 30.7388 7.81418 30.9208 7.88952C31.1028 7.96487 31.2978 8.00363 31.4948 8.00358C31.6918 8.00353 31.8868 7.96469 32.0687 7.88925C32.2507 7.81382 32.416 7.70329 32.5552 7.56395L34.9927 5.12395V18.002H33.9929C33.7278 18.002 33.4735 18.1073 33.286 18.2948C33.0985 18.4824 32.9931 18.7367 32.9931 19.002V24.002H23.995V4.00195C23.9924 2.9419 23.5702 1.92602 22.8208 1.17644C22.0713 0.426869 21.0557 0.00459337 19.9958 0.00195313L8.99813 0.00195312C7.93829 0.00459337 6.92262 0.426869 6.1732 1.17644C5.42379 1.92602 5.0016 2.9419 4.99896 4.00195V24.002H1.46969C1.08337 24.0046 0.713608 24.1592 0.440428 24.4325C0.167247 24.7057 0.0126172 25.0755 0.00999792 25.462V30.202C0.664077 30.0639 1.33113 29.9969 1.99958 30.002C3.62552 29.9701 5.22717 30.4 6.61862 31.242C7.42294 31.7662 8.3685 32.0314 9.32806 32.002C10.2876 32.0314 11.2332 31.7662 12.0375 31.242C13.4289 30.4 15.0306 29.9701 16.6565 30.002C18.2854 29.972 19.8897 30.4017 21.2856 31.242C22.0883 31.7698 23.035 32.0353 23.995 32.002C24.9517 32.0339 25.8948 31.7684 26.6944 31.242C28.0897 30.4002 29.6944 29.9704 31.3235 30.002C32.9494 29.9701 34.5511 30.4 35.9425 31.242C36.7607 31.739 37.6996 32.0019 38.6569 32.0019C39.6143 32.0019 40.5532 31.739 41.3714 31.242C42.7628 30.4 44.3645 29.9701 45.9904 30.002C46.6655 29.997 47.3391 30.064 48 30.202V25.462C47.9974 25.0755 47.8428 24.7057 47.5696 24.4325C47.2964 24.1592 46.9266 24.0046 46.5403 24.002ZM45.9904 42.002C44.3624 41.9703 42.7589 42.4017 41.3664 43.246C40.5486 43.7406 39.6111 44.0021 38.6554 44.0021C37.6998 44.0021 36.7623 43.7406 35.9445 43.246C34.5517 42.4015 32.9478 41.9701 31.3195 42.002C29.6921 41.9707 28.0893 42.4021 26.6974 43.246C25.8932 43.7684 24.9485 44.0322 23.99 44.002C23.0312 44.0324 22.0861 43.7686 21.2816 43.246C19.8891 42.4017 18.2855 41.9703 16.6575 42.002C15.0298 41.9705 13.4267 42.4019 12.0345 43.246C11.2306 43.7682 10.2862 44.032 9.32806 44.002C8.37027 44.0318 7.42627 43.768 6.62262 43.246C5.23043 42.4019 3.62727 41.9705 1.99958 42.002C1.46926 42.002 0.960659 42.2127 0.585664 42.5877C0.21067 42.9628 0 43.4715 0 44.002C0 44.5324 0.21067 45.0411 0.585664 45.4162C0.960659 45.7912 1.46926 46.002 1.99958 46.002C2.95771 45.9719 3.90209 46.2357 4.70602 46.758C6.09763 47.6016 7.70005 48.033 9.32706 48.002C10.9547 48.0334 12.5579 47.602 13.9501 46.758C14.7543 46.2355 15.6991 45.9717 16.6575 46.002C17.6167 45.9713 18.5622 46.2351 19.367 46.758C20.7589 47.6018 22.3617 48.0332 23.989 48.002C25.6167 48.0334 27.2198 47.602 28.612 46.758C29.4291 46.2628 30.3662 46.0011 31.3215 46.0011C32.2768 46.0011 33.2138 46.2628 34.0309 46.758C35.4358 47.5728 37.031 48.0019 38.6549 48.0019C40.2789 48.0019 41.8741 47.5728 43.279 46.758C44.0843 46.2348 45.0306 45.9709 45.9904 46.002C46.5207 46.002 47.0293 45.7912 47.4043 45.4162C47.7793 45.0411 47.99 44.5324 47.99 44.002C47.99 43.4715 47.7793 42.9628 47.4043 42.5877C47.0293 42.2127 46.5207 42.002 45.9904 42.002ZM45.9904 34.002C44.3624 33.9703 42.7589 34.4017 41.3664 35.246C40.5486 35.7406 39.6111 36.0021 38.6554 36.0021C37.6998 36.0021 36.7623 35.7406 35.9445 35.246C34.5517 34.4015 32.9478 33.9701 31.3195 34.002C29.6921 33.9707 28.0893 34.4021 26.6974 35.246C25.8932 35.7684 24.9485 36.0322 23.99 36.002C23.0312 36.0324 22.0861 35.7686 21.2816 35.246C19.8891 34.4017 18.2855 33.9703 16.6575 34.002C15.0298 33.9705 13.4267 34.4019 12.0345 35.246C11.2306 35.7682 10.2862 36.032 9.32806 36.002C8.37027 36.0318 7.42627 35.768 6.62262 35.246C5.23043 34.4019 3.62727 33.9705 1.99958 34.002C1.46926 34.002 0.960659 34.2127 0.585664 34.5877C0.21067 34.9628 0 35.4715 0 36.002C0 36.5324 0.21067 37.0411 0.585664 37.4162C0.960659 37.7912 1.46926 38.002 1.99958 38.002C2.95771 37.9719 3.90209 38.2357 4.70602 38.758C6.09763 39.6016 7.70005 40.033 9.32706 40.002C10.9547 40.0334 12.5579 39.602 13.9501 38.758C14.7543 38.2355 15.6991 37.9717 16.6575 38.002C17.6167 37.9713 18.5622 38.2351 19.367 38.758C20.7589 39.6018 22.3617 40.0332 23.989 40.002C25.6167 40.0334 27.2198 39.602 28.612 38.758C29.4291 38.2628 30.3662 38.0011 31.3215 38.0011C32.2768 38.0011 33.2138 38.2628 34.0309 38.758C35.4358 39.5728 37.031 40.0019 38.6549 40.0019C40.2789 40.0019 41.8741 39.5728 43.279 38.758C44.0843 38.2348 45.0306 37.9709 45.9904 38.002C46.5207 38.002 47.0293 37.7912 47.4043 37.4162C47.7793 37.0411 47.99 36.5324 47.99 36.002C47.99 35.4715 47.7793 34.9628 47.4043 34.5877C47.0293 34.2127 46.5207 34.002 45.9904 34.002Z" fill="black"/>
</g>
<defs>
<clipPath id="clip0_6013_52601">
<rect width="48" height="48" fill="white" transform="translate(0 0.00195312)"/>
</clipPath>
</defs>
</svg>
