<svg width="48" height="48" viewBox="0 0 48 48" fill="none" xmlns="http://www.w3.org/2000/svg">
<g clip-path="url(#clip0_6013_52604)">
<path d="M12 34.002H2C0.89543 34.002 0 34.8974 0 36.002V46.002C0 47.1065 0.89543 48.002 2 48.002H12C13.1046 48.002 14 47.1065 14 46.002V36.002C14 34.8974 13.1046 34.002 12 34.002Z" fill="black"/>
<path d="M7.75587 30.5388C7.89958 31.0491 8.23942 31.4817 8.70112 31.7421C9.16282 32.0026 9.70884 32.0697 10.2199 31.9288L19.5369 29.5608C20.0469 29.4171 20.4793 29.0774 20.7397 28.6159C21.0002 28.1545 21.0674 27.6087 20.9269 27.0978L17.9999 17.4648C17.8561 16.9548 17.5165 16.5224 17.055 16.2619C16.5935 16.0015 16.0478 15.9342 15.5369 16.0748L6.46287 18.7588C5.95285 18.9025 5.52041 19.2422 5.25998 19.7037C4.99956 20.1652 4.93229 20.7109 5.07287 21.2218L7.75587 30.5388Z" fill="black"/>
<path d="M37 18.002H27C25.8954 18.002 25 18.8974 25 20.002V30.002C25 31.1065 25.8954 32.002 27 32.002H37C38.1046 32.002 39 31.1065 39 30.002V20.002C39 18.8974 38.1046 18.002 37 18.002Z" fill="black"/>
<path d="M21.7688 13.924L31.7818 14.989C32.3087 15.0487 32.8377 14.8974 33.2534 14.5681C33.669 14.2389 33.9374 13.7585 33.9998 13.232L34.9868 3.21895C35.0463 2.69225 34.8948 2.16344 34.5656 1.74803C34.2364 1.33263 33.7562 1.0644 33.2298 1.00195L23.3898 0.0149516C22.8626 -0.0453396 22.333 0.105695 21.917 0.434992C21.5009 0.764289 21.2322 1.24502 21.1698 1.77195L20.0118 11.707C19.9521 12.2337 20.1032 12.7626 20.4323 13.1782C20.7613 13.5938 21.2414 13.8623 21.7678 13.925" fill="black"/>
<path d="M29 34.002H19C17.8954 34.002 17 34.8974 17 36.002V46.002C17 47.1065 17.8954 48.002 19 48.002H29C30.1046 48.002 31 47.1065 31 46.002V36.002C31 34.8974 30.1046 34.002 29 34.002Z" fill="black"/>
<path d="M46 34.002H36C34.8954 34.002 34 34.8974 34 36.002V46.002C34 47.1065 34.8954 48.002 36 48.002H46C47.1046 48.002 48 47.1065 48 46.002V36.002C48 34.8974 47.1046 34.002 46 34.002Z" fill="black"/>
</g>
<defs>
<clipPath id="clip0_6013_52604">
<rect width="48" height="48" fill="white" transform="translate(0 0.00195312)"/>
</clipPath>
</defs>
</svg>
