<svg width="48" height="40" viewBox="0 0 48 40" fill="none" xmlns="http://www.w3.org/2000/svg">
<g clip-path="url(#clip0_6013_52612)">
<path d="M45.6 0.00195312H2.4C1.76406 0.00353585 1.15472 0.214758 0.705042 0.589488C0.255366 0.964218 0.00189927 1.47201 0 2.00195L0 38.002C0.00189927 38.5319 0.255366 39.0397 0.705042 39.4144C1.15472 39.7891 1.76406 40.0004 2.4 40.002H45.6C46.2359 40.0004 46.8453 39.7891 47.295 39.4144C47.7446 39.0397 47.9981 38.5319 48 38.002V2.00195C47.9981 1.47201 47.7446 0.964218 47.295 0.589488C46.8453 0.214758 46.2359 0.00353585 45.6 0.00195312ZM44.4 13.002V19.002H15.6V13.002H44.4ZM44.4 28.002H15.6V22.002H44.4V28.002ZM3.6 22.002H12V28.002H3.6V22.002ZM3.6 13.002H12V19.002H3.6V13.002ZM3.6 31.002H12V37.002H3.6V31.002ZM44.4 37.002H15.6V31.002H44.4V37.002Z" fill="black"/>
</g>
<defs>
<clipPath id="clip0_6013_52612">
<rect width="48" height="40" fill="white" transform="translate(0 0.00195312)"/>
</clipPath>
</defs>
</svg>
