<svg width="48" height="48" viewBox="0 0 48 48" fill="none" xmlns="http://www.w3.org/2000/svg">
<g clip-path="url(#clip0_6013_52614)">
<path d="M46 20.0021H2C1.49528 19.9789 1.00186 20.1562 0.627244 20.4952C0.252627 20.8342 0.0271721 21.3076 0 21.8121L0 46.1921C0.0271721 46.6966 0.252627 47.1699 0.627244 47.509C1.00186 47.848 1.49528 48.0252 2 48.0021H36V40.0021C36 38.9412 36.4214 37.9238 37.1716 37.1737C37.9217 36.4235 38.9391 36.0021 40 36.0021H48V21.8121C47.9728 21.3076 47.7474 20.8342 47.3728 20.4952C46.9981 20.1562 46.5047 19.9789 46 20.0021ZM5.5 28.0021C5.00555 28.0021 4.5222 27.8555 4.11107 27.5808C3.69995 27.3061 3.37952 26.9156 3.1903 26.4588C3.00108 26.002 2.95157 25.4993 3.04804 25.0144C3.1445 24.5294 3.3826 24.0839 3.73223 23.7343C4.08186 23.3847 4.52732 23.1466 5.01227 23.0501C5.49723 22.9537 5.99989 23.0032 6.45671 23.1924C6.91352 23.3816 7.30397 23.702 7.57867 24.1132C7.85338 24.5243 8 25.0076 8 25.5021C8 26.1651 7.73661 26.801 7.26777 27.2698C6.79893 27.7387 6.16304 28.0021 5.5 28.0021ZM34.5 12.0021C35.673 12.0219 36.806 11.5751 37.6498 10.76C38.4936 9.9449 38.9792 8.82811 39 7.65508C39 5.48208 35.313 0.905083 34.614 0.0550826C34.6001 0.038309 34.5827 0.0248066 34.563 0.0155384C34.5433 0.0062703 34.5218 0.00146484 34.5 0.00146484C34.4782 0.00146484 34.4567 0.0062703 34.437 0.0155384C34.4173 0.0248066 34.3999 0.038309 34.386 0.0550826C33.686 0.905083 30 5.48208 30 7.65508C30.0208 8.82811 30.5064 9.9449 31.3502 10.76C32.194 11.5751 33.327 12.0219 34.5 12.0021ZM21.5 12.0021C22.673 12.0219 23.806 11.5751 24.6498 10.76C25.4936 9.9449 25.9792 8.82811 26 7.65508C26 5.48208 22.313 0.905083 21.614 0.0550826C21.6001 0.038309 21.5827 0.0248066 21.563 0.0155384C21.5433 0.0062703 21.5218 0.00146484 21.5 0.00146484C21.4782 0.00146484 21.4567 0.0062703 21.437 0.0155384C21.4173 0.0248066 21.3999 0.038309 21.386 0.0550826C20.686 0.905083 17 5.48208 17 7.65508C17.0208 8.82811 17.5064 9.9449 18.3502 10.76C19.194 11.5751 20.327 12.0219 21.5 12.0021Z" fill="black"/>
<path d="M38 40.002V48.002L48 38.002H40C39.4701 38.0035 38.9623 38.2148 38.5875 38.5895C38.2128 38.9642 38.0016 39.472 38 40.002Z" fill="black"/>
</g>
<defs>
<clipPath id="clip0_6013_52614">
<rect width="48" height="48" fill="white" transform="translate(0 0.00195312)"/>
</clipPath>
</defs>
</svg>
