<svg width="48" height="43" viewBox="0 0 48 43" fill="none" xmlns="http://www.w3.org/2000/svg">
<g clip-path="url(#clip0_6013_52618)">
<path d="M27.2392 26.313C26.2197 26.768 25.1158 27.0031 23.9993 27.0031C22.8829 27.0031 21.7789 26.768 20.7594 26.313L13.1395 39.1321C13.0694 39.2483 13.0239 39.3778 13.0061 39.5124C12.9883 39.6471 12.9985 39.7839 13.0361 39.9144C13.0736 40.0449 13.1377 40.1662 13.2244 40.2708C13.311 40.3753 13.4183 40.4609 13.5395 40.522C16.7854 42.1496 20.3658 42.9987 23.997 43.0022C27.6281 43.0057 31.2101 42.1634 34.4591 40.542C34.5803 40.4809 34.6876 40.3953 34.7743 40.2908C34.8609 40.1862 34.925 40.0649 34.9626 39.9344C35.0001 39.8039 35.0103 39.6671 34.9925 39.5324C34.9747 39.3978 34.9293 39.2683 34.8591 39.1521L27.2392 26.313ZM18.6294 13.0839L11.4996 0.524803C11.4361 0.405749 11.3488 0.30104 11.243 0.217198C11.1373 0.133356 11.0155 0.072177 10.8851 0.03747C10.7547 0.00276296 10.6185 -0.00472847 10.4851 0.0154622C10.3517 0.0356529 10.2239 0.0830934 10.1096 0.154829C7.13583 2.10959 4.66866 4.74242 2.91108 7.83673C1.15349 10.931 0.15571 14.3984 -0.000184134 17.9536C-0.00557294 18.0895 0.0165661 18.2252 0.064904 18.3524C0.113242 18.4795 0.186782 18.5957 0.281109 18.6937C0.375437 18.7918 0.488607 18.8698 0.613825 18.923C0.739044 18.9762 0.873729 19.0036 1.00979 19.0035H15.9995C15.999 17.8877 16.2328 16.7842 16.6859 15.7645C17.1389 14.7448 17.8011 13.8315 18.6294 13.0839ZM37.869 0.154829C37.7547 0.0851335 37.6275 0.0391143 37.495 0.019502C37.3626 -0.000110316 37.2275 0.00708384 37.0979 0.0406576C36.9682 0.0742314 36.8466 0.133501 36.7403 0.214949C36.6341 0.296398 36.5452 0.398366 36.4791 0.514804L29.3592 13.0739C30.1897 13.8226 30.8537 14.7372 31.3085 15.7586C31.7632 16.78 31.9985 17.8855 31.9991 19.0035H46.9988C47.1341 19.0023 47.2677 18.9739 47.3917 18.9201C47.5158 18.8662 47.6277 18.7881 47.721 18.6901C47.8143 18.5922 47.8869 18.4766 47.9346 18.35C47.9824 18.2235 48.0042 18.0887 47.9988 17.9536C47.8455 14.3955 46.8467 10.9252 45.0852 7.82999C43.3236 4.73478 40.8499 2.10376 37.869 0.154829ZM22.5253 23.7782C23.0026 23.928 23.5001 24.0039 24.0003 24.0032C24.4953 24.0038 24.9878 23.9324 25.4623 23.7912C26.6123 23.4445 27.5996 22.6965 28.2446 21.6833C28.8896 20.6702 29.1495 19.4591 28.9769 18.2705C28.8043 17.0819 28.2107 15.9948 27.3042 15.2069C26.3976 14.4189 25.2383 13.9826 24.0372 13.9773C22.8361 13.972 21.673 14.398 20.7595 15.1779C19.846 15.9577 19.2429 17.0396 19.0597 18.2266C18.8766 19.4136 19.1258 20.6269 19.7618 21.6458C20.3978 22.6646 21.3785 23.4213 22.5253 23.7782Z" fill="black"/>
</g>
<defs>
<clipPath id="clip0_6013_52618">
<rect width="48" height="43" fill="white" transform="translate(0 0.00195312)"/>
</clipPath>
</defs>
</svg>
