<svg width="48" height="45" viewBox="0 0 48 45" fill="none" xmlns="http://www.w3.org/2000/svg">
<g clip-path="url(#clip0_6013_52621)">
<path d="M38.5 5.00417H16.505L16.5 5.00217H5.121L7.561 2.56217C7.8261 2.27794 7.97052 1.90192 7.96385 1.51331C7.95718 1.1247 7.79993 0.753859 7.52523 0.478903C7.25053 0.203947 6.87984 0.046348 6.49124 0.0393088C6.10264 0.0322697 5.72647 0.17634 5.442 0.441167L0.443 5.43917L0.439 5.44117L0.43 5.45517C0.296178 5.59141 0.189603 5.75195 0.116 5.92817C0.112 5.9415 0.108 5.95483 0.104 5.96817C0.0397516 6.13414 0.00555181 6.31021 0.003 6.48817L0 6.50317L0.002 6.51517C0.00415623 6.6952 0.0387073 6.87338 0.104 7.04117C0.108 7.0525 0.112 7.0645 0.116 7.07717C0.190009 7.2562 0.297998 7.4192 0.434 7.55717L0.439 7.56417L0.443 7.56617L5.441 12.5642C5.72403 12.8373 6.10301 12.9883 6.4963 12.9847C6.8896 12.9811 7.26574 12.8232 7.54373 12.5449C7.82171 12.2667 7.97928 11.8904 7.98252 11.4971C7.98575 11.1038 7.83437 10.7249 7.561 10.4422L5.123 8.00317H38.5C40.2231 8.00581 41.8749 8.69148 43.0933 9.90989C44.3117 11.1283 44.9974 12.7801 45 14.5032V17.5032C45 17.901 45.158 18.2825 45.4393 18.5638C45.7206 18.8451 46.1022 19.0032 46.5 19.0032C46.8978 19.0032 47.2794 18.8451 47.5607 18.5638C47.842 18.2825 48 17.901 48 17.5032V14.5032C47.9974 11.9844 46.9956 9.5696 45.2146 7.78858C43.4336 6.00755 41.0187 5.00681 38.5 5.00417Z" fill="black"/>
<path d="M40 26.662L25.03 15.342C24.7314 15.1227 24.3705 15.0044 24 15.0044C23.6295 15.0044 23.2686 15.1227 22.97 15.342L8 26.662C7.83613 26.7812 7.69776 26.9319 7.593 27.1054C7.48824 27.2788 7.41922 27.4715 7.39 27.672L5 45.002H23V35.292C23 34.992 23.45 34.892 23.62 35.152L29 45.002H43L40.61 27.672C40.5808 27.4715 40.5118 27.2788 40.407 27.1054C40.3022 26.9319 40.1639 26.7812 40 26.662Z" fill="black"/>
</g>
<defs>
<clipPath id="clip0_6013_52621">
<rect width="48" height="45.001" fill="white" transform="translate(0 0.00195312)"/>
</clipPath>
</defs>
</svg>
