<svg width="48" height="40" viewBox="0 0 48 40" fill="none" xmlns="http://www.w3.org/2000/svg">
<g clip-path="url(#clip0_6013_52625)">
<path d="M44.98 16.9002C44.9079 16.3646 44.6321 15.8775 44.21 15.5401L25.3 0.458927C24.9314 0.162849 24.4728 0.00146484 24 0.00146484C23.5272 0.00146484 23.0686 0.162849 22.7 0.458927L3.79 15.5401C3.36792 15.8775 3.09214 16.3646 3.02 16.9002L0 40.0019H24V27.3709C23.9984 27.2899 24.0241 27.2106 24.0729 27.1458C24.1217 27.0811 24.1909 27.0346 24.2693 27.0138C24.3477 26.9931 24.4308 26.9992 24.5053 27.0314C24.5797 27.0635 24.6413 27.1197 24.68 27.1909L31 40.0019H48L44.98 16.9002Z" fill="black"/>
</g>
<defs>
<clipPath id="clip0_6013_52625">
<rect width="48" height="40" fill="white" transform="translate(0 0.00195312)"/>
</clipPath>
</defs>
</svg>
