<svg width="48" height="44" viewBox="0 0 48 44" fill="none" xmlns="http://www.w3.org/2000/svg">
<g clip-path="url(#clip0_6013_52630)">
<path d="M24 0.00195312C19.2533 0.00195312 14.6131 1.29223 10.6663 3.70962C6.71955 6.12701 3.64341 9.56294 1.8269 13.5829C0.0103989 17.6029 -0.464881 22.0264 0.461164 26.2939C1.38721 30.5615 3.67299 34.4815 7.02945 37.5583C10.3859 40.6351 14.6623 42.7304 19.3178 43.5792C23.9734 44.4281 28.799 43.9924 33.1844 42.3273C37.5698 40.6622 41.3181 37.8424 43.9553 34.2245C46.5924 30.6066 48 26.3531 48 22.002C48 16.1672 45.4715 10.5714 40.9706 6.4456C36.4697 2.3198 30.3652 0.00195313 24 0.00195312ZM37.8851 13.517L27.2727 23.244V31.902C27.2727 32.6976 26.9279 33.4607 26.3142 34.0233C25.7004 34.5859 24.868 34.902 24 34.902C23.132 34.902 22.2996 34.5859 21.6858 34.0233C21.0721 33.4607 20.7273 32.6976 20.7273 31.902V22.002C20.7279 21.8045 20.7499 21.6075 20.7927 21.414C20.8113 21.325 20.8473 21.243 20.8756 21.157C20.9259 20.945 21.0176 20.7431 21.1462 20.561C21.1898 20.487 21.2258 20.411 21.2771 20.339C21.3975 20.1731 21.5357 20.0187 21.6895 19.878L33.2564 9.27395C33.5603 8.99535 33.9211 8.77436 34.3182 8.62358C34.7153 8.4728 35.1409 8.3952 35.5707 8.3952C36.0006 8.3952 36.4262 8.4728 36.8233 8.62358C37.2204 8.77436 37.5812 8.99535 37.8851 9.27395C38.189 9.55255 38.4301 9.8833 38.5946 10.2473C38.7591 10.6113 38.8437 11.0015 38.8437 11.3955C38.8437 11.7895 38.7591 12.1796 38.5946 12.5436C38.4301 12.9076 38.189 13.2384 37.8851 13.517Z" fill="black"/>
</g>
<defs>
<clipPath id="clip0_6013_52630">
<rect width="48" height="44" fill="white" transform="translate(0 0.00195312)"/>
</clipPath>
</defs>
</svg>
