<svg width="48" height="48" viewBox="0 0 48 48" fill="none" xmlns="http://www.w3.org/2000/svg">
<g clip-path="url(#clip0_6013_52632)">
<path d="M47.9965 26.635C47.9962 26.5478 47.9651 26.4617 47.9051 26.3819C47.8452 26.3021 47.7577 26.2303 47.6481 26.1709C47.5384 26.1116 47.409 26.0659 47.2678 26.0369C47.1266 26.0078 46.9767 25.9959 46.8273 26.002H1.1744C1.02485 25.9958 0.874709 26.0076 0.733313 26.0366C0.591918 26.0656 0.462286 26.1112 0.35247 26.1705C0.242654 26.2299 0.155 26.3017 0.094953 26.3816C0.0349062 26.4615 0.0037494 26.5478 0.00341797 26.635C0.448417 29.1846 2.13299 31.6077 4.85996 33.6208C7.58694 35.6339 11.2435 37.1535 15.4016 38.002V44.002H13.6821C12.77 44.002 11.8953 44.2127 11.2503 44.5877C10.6054 44.9628 10.2431 45.4715 10.2431 46.002C10.2431 46.5324 10.6054 47.0411 11.2503 47.4162C11.8953 47.7912 12.77 48.002 13.6821 48.002H34.3162C35.2282 48.002 36.103 47.7912 36.7479 47.4162C37.3928 47.0411 37.7552 46.5324 37.7552 46.002C37.7552 45.4715 37.3928 44.9628 36.7479 44.5877C36.103 44.2127 35.2282 44.002 34.3162 44.002H32.5966V38.002C36.7551 37.1537 40.412 35.6341 43.1393 33.621C45.8666 31.6079 47.5514 29.1847 47.9965 26.635ZM5.08456 4.00195V23.002C5.08592 23.2669 5.26752 23.5208 5.58969 23.7082C5.91187 23.8955 6.34844 24.0012 6.80406 24.002H41.1942C41.6498 24.0012 42.0864 23.8955 42.4085 23.7082C42.7307 23.5208 42.9123 23.2669 42.9137 23.002V4.00195C43.8258 4.00195 44.7005 3.79124 45.3454 3.41617C45.9904 3.04109 46.3527 2.53239 46.3527 2.00195C46.3527 1.47152 45.9904 0.962812 45.3454 0.58774C44.7005 0.212667 43.8258 0.00195313 42.9137 0.00195312L5.08456 0.00195313C4.17247 0.00195313 3.29775 0.212667 2.65281 0.58774C2.00787 0.962812 1.64555 1.47152 1.64555 2.00195C1.64555 2.53239 2.00787 3.04109 2.65281 3.41617C3.29775 3.79124 4.17247 4.00195 5.08456 4.00195ZM12.8223 6.00195H18.8406C19.2966 6.00195 19.734 6.10731 20.0565 6.29485C20.3789 6.48238 20.5601 6.73674 20.5601 7.00195C20.5601 7.26717 20.3789 7.52152 20.0565 7.70906C19.734 7.8966 19.2966 8.00195 18.8406 8.00195H15.2468C15.0886 8.26065 14.8112 8.48908 14.4449 8.66228C14.0785 8.83549 13.6374 8.94681 13.1696 8.98409C12.7019 9.02136 12.2255 8.98315 11.7926 8.87364C11.3596 8.76412 10.9868 8.58751 10.7147 8.3631C10.4427 8.13869 10.2819 7.87512 10.25 7.60118C10.2181 7.32724 10.3163 7.05346 10.5338 6.80977C10.7513 6.56608 11.0798 6.36185 11.4834 6.21938C11.887 6.07691 12.3502 6.0017 12.8223 6.00195Z" fill="black"/>
</g>
<defs>
<clipPath id="clip0_6013_52632">
<rect width="48" height="48" fill="white" transform="translate(0 0.00195312)"/>
</clipPath>
</defs>
</svg>
