<svg width="48" height="48" viewBox="0 0 48 48" fill="none" xmlns="http://www.w3.org/2000/svg">
<g clip-path="url(#clip0_6013_52635)">
<path d="M30.96 5.00191H27.2C26.9819 4.99744 26.7709 4.92316 26.5982 4.78997C26.4254 4.65678 26.2998 4.4717 26.24 4.26191L25 0.736907C24.9332 0.523962 24.8002 0.33789 24.6204 0.205785C24.4405 0.0736804 24.2232 0.00244141 24 0.00244141C23.7768 0.00244141 23.5595 0.0736804 23.3796 0.205785C23.1998 0.33789 23.0668 0.523962 23 0.736907L21.76 4.26191C21.7002 4.4717 21.5746 4.65678 21.4018 4.78997C21.2291 4.92316 21.0181 4.99744 20.8 5.00191H17.04C16.8162 5.01698 16.6022 5.09931 16.426 5.23813C16.2498 5.37694 16.1197 5.56575 16.0526 5.7798C15.9856 5.99386 15.9848 6.22317 16.0504 6.43768C16.1159 6.65219 16.2448 6.84189 16.42 6.98191L19.59 9.50191C19.7617 9.64411 19.8875 9.83392 19.9515 10.0474C20.0156 10.261 20.0151 10.4887 19.95 10.7019L18.05 14.5779C17.978 14.7907 17.975 15.0207 18.0413 15.2353C18.1076 15.4499 18.2398 15.6381 18.4192 15.7732C18.5986 15.9083 18.8161 15.9834 19.0406 15.9879C19.2652 15.9923 19.4854 15.9258 19.67 15.7979L23.4 13.1979C23.5744 13.0711 23.7844 13.0028 24 13.0028C24.2156 13.0028 24.4256 13.0711 24.6 13.1979L28.33 15.7979C28.5146 15.9258 28.7348 15.9923 28.9594 15.9879C29.1839 15.9834 29.4014 15.9083 29.5808 15.7732C29.7602 15.6381 29.8924 15.4499 29.9587 15.2353C30.025 15.0207 30.022 14.7907 29.95 14.5779L28.05 10.7019C27.9849 10.4887 27.9844 10.261 28.0485 10.0474C28.1125 9.83392 28.2383 9.64411 28.41 9.50191L31.58 6.98191C31.7552 6.84189 31.8841 6.65219 31.9496 6.43768C32.0152 6.22317 32.0144 5.99386 31.9474 5.7798C31.8803 5.56575 31.7502 5.37694 31.574 5.23813C31.3978 5.09931 31.1838 5.01698 30.96 5.00191ZM30 25.0019H18C17.7348 25.0019 17.4804 25.1073 17.2929 25.2948C17.1054 25.4823 17 25.7367 17 26.0019V48.0019H31V26.0019C31 25.7367 30.8946 25.4823 30.7071 25.2948C30.5196 25.1073 30.2652 25.0019 30 25.0019ZM47 35.0019H35C34.7348 35.0019 34.4804 35.1073 34.2929 35.2948C34.1054 35.4823 34 35.7367 34 36.0019V48.0019H48V36.0019C48 35.7367 47.8946 35.4823 47.7071 35.2948C47.5196 35.1073 47.2652 35.0019 47 35.0019ZM13 31.0019H1C0.734784 31.0019 0.48043 31.1073 0.292893 31.2948C0.105357 31.4823 0 31.7367 0 32.0019L0 48.0019H14V32.0019C14 31.7367 13.8946 31.4823 13.7071 31.2948C13.5196 31.1073 13.2652 31.0019 13 31.0019Z" fill="black"/>
</g>
<defs>
<clipPath id="clip0_6013_52635">
<rect width="48" height="48" fill="white" transform="translate(0 0.00195312)"/>
</clipPath>
</defs>
</svg>
