<svg width="48" height="48" viewBox="0 0 48 48" fill="none" xmlns="http://www.w3.org/2000/svg">
<g clip-path="url(#clip0_6013_52638)">
<path d="M24.5 41.002H21.5C20.5717 41.002 19.6815 41.3707 19.0251 42.0271C18.3687 42.6835 18 43.5737 18 44.502C18 45.4302 18.3687 46.3204 19.0251 46.9768C19.6815 47.6332 20.5717 48.002 21.5 48.002H24.5C25.4283 48.002 26.3185 47.6332 26.9749 46.9768C27.6313 46.3204 28 45.4302 28 44.502C28 43.5737 27.6313 42.6835 26.9749 42.0271C26.3185 41.3707 25.4283 41.002 24.5 41.002ZM30.5 31.002H21.5C20.5717 31.002 19.6815 31.3707 19.0251 32.0271C18.3687 32.6835 18 33.5737 18 34.502C18 35.4302 18.3687 36.3204 19.0251 36.9768C19.6815 37.6332 20.5717 38.002 21.5 38.002H30.5C31.4283 38.002 32.3185 37.6332 32.9749 36.9768C33.6312 36.3204 34 35.4302 34 34.502C34 33.5737 33.6312 32.6835 32.9749 32.0271C32.3185 31.3707 31.4283 31.002 30.5 31.002ZM32 24.502C32 23.5737 31.6313 22.6835 30.9749 22.0271C30.3185 21.3707 29.4283 21.002 28.5 21.002H12.5C11.5717 21.002 10.6815 21.3707 10.0251 22.0271C9.36875 22.6835 9 23.5737 9 24.502C9 25.4302 9.36875 26.3204 10.0251 26.9768C10.6815 27.6332 11.5717 28.002 12.5 28.002H28.5C29.4283 28.002 30.3185 27.6332 30.9749 26.9768C31.6313 26.3204 32 25.4302 32 24.502ZM39.5 11.002H13.5C12.5717 11.002 11.6815 11.3707 11.0251 12.0271C10.3687 12.6835 10 13.5737 10 14.502C10 15.4302 10.3687 16.3204 11.0251 16.9768C11.6815 17.6332 12.5717 18.002 13.5 18.002H39.5C40.4283 18.002 41.3185 17.6332 41.9749 16.9768C42.6312 16.3204 43 15.4302 43 14.502C43 13.5737 42.6312 12.6835 41.9749 12.0271C41.3185 11.3707 40.4283 11.002 39.5 11.002ZM44.5 0.00195312H3.5C2.57174 0.00195313 1.6815 0.370702 1.02513 1.02708C0.368749 1.68346 0 2.5737 0 3.50195C0 4.43021 0.368749 5.32045 1.02513 5.97683C1.6815 6.6332 2.57174 7.00195 3.5 7.00195H44.5C45.4283 7.00195 46.3185 6.6332 46.9749 5.97683C47.6312 5.32045 48 4.43021 48 3.50195C48 2.5737 47.6312 1.68346 46.9749 1.02708C46.3185 0.370702 45.4283 0.00195313 44.5 0.00195312Z" fill="black"/>
</g>
<defs>
<clipPath id="clip0_6013_52638">
<rect width="48" height="48" fill="white" transform="translate(0 0.00195312)"/>
</clipPath>
</defs>
</svg>
