<svg width="48" height="48" viewBox="0 0 48 48" fill="none" xmlns="http://www.w3.org/2000/svg">
<g clip-path="url(#clip0_6013_52641)">
<path d="M20.5001 9.62295L29.4401 18.563C29.5831 18.7046 29.7531 18.816 29.94 18.8905C30.1269 18.9651 30.3269 19.0013 30.5281 18.997C30.7118 19.0016 30.8944 18.969 31.0651 18.9011C31.2357 18.8332 31.3909 18.7314 31.5211 18.602L45.0001 5.12195V11.502C45.0001 11.8998 45.1582 12.2813 45.4395 12.5626C45.7208 12.8439 46.1023 13.002 46.5001 13.002C46.898 13.002 47.2795 12.8439 47.5608 12.5626C47.8421 12.2813 48.0001 11.8998 48.0001 11.502V1.50195C48.0001 1.10413 47.8421 0.722597 47.5608 0.441293C47.2795 0.159988 46.898 0.00195313 46.5001 0.00195313L36.5001 0.00195312C36.1023 0.00195313 35.7208 0.159988 35.4395 0.441293C35.1582 0.722597 35.0001 1.10413 35.0001 1.50195C35.0001 1.89978 35.1582 2.28131 35.4395 2.56261C35.7208 2.84392 36.1023 3.00195 36.5001 3.00195H42.8791L30.5001 15.381L21.6211 6.50195C21.3126 6.22673 20.9136 6.07462 20.5001 6.07462C20.0867 6.07462 19.6877 6.22673 19.3791 6.50195L0.439138 25.442C0.166031 25.725 0.0150159 26.104 0.0186177 26.4973C0.0222195 26.8906 0.18015 27.2667 0.458395 27.5447C0.736639 27.8227 1.11293 27.9802 1.50623 27.9835C1.89953 27.9867 2.27836 27.8353 2.56114 27.562L20.5001 9.62295Z" fill="black"/>
<path d="M47.15 25.002H10.85C10.6237 25.0046 10.4075 25.0964 10.2483 25.2573C10.0892 25.4183 9.99998 25.6356 10 25.862V28.002H44.05C44.175 28.001 44.299 28.025 44.4146 28.0724C44.5303 28.1198 44.6354 28.1897 44.7238 28.2781C44.8122 28.3665 44.8822 28.4716 44.9296 28.5873C44.977 28.703 45.0009 28.8269 45 28.952V43.002H47.15C47.2616 43.002 47.3722 42.98 47.4753 42.9373C47.5784 42.8945 47.6721 42.8319 47.751 42.753C47.83 42.6741 47.8926 42.5804 47.9353 42.4772C47.978 42.3741 48 42.2636 48 42.152V25.862C48 25.6356 47.9108 25.4183 47.7517 25.2573C47.5925 25.0964 47.3764 25.0046 47.15 25.002Z" fill="black"/>
<path d="M42.15 30.002H5.85C5.62457 30.002 5.40836 30.0915 5.24896 30.2509C5.08955 30.4103 5 30.6265 5 30.852V47.142C4.99998 47.3683 5.08922 47.5856 5.24834 47.7466C5.40747 47.9076 5.62365 47.9993 5.85 48.002H42.15C42.3764 47.9993 42.5925 47.9076 42.7517 47.7466C42.9108 47.5856 43 47.3683 43 47.142V30.852C43 30.7403 42.978 30.6298 42.9353 30.5267C42.8926 30.4235 42.83 30.3298 42.751 30.2509C42.6721 30.172 42.5784 30.1094 42.4753 30.0667C42.3722 30.0239 42.2616 30.002 42.15 30.002ZM11 41.002C10.6044 41.002 10.2178 40.8847 9.88886 40.6649C9.55996 40.4451 9.30362 40.1328 9.15224 39.7673C9.00087 39.4019 8.96126 38.9997 9.03843 38.6118C9.1156 38.2238 9.30608 37.8674 9.58579 37.5877C9.86549 37.308 10.2219 37.1176 10.6098 37.0404C10.9978 36.9632 11.3999 37.0028 11.7654 37.1542C12.1308 37.3056 12.4432 37.5619 12.6629 37.8908C12.8827 38.2197 13 38.6064 13 39.002C12.9984 39.5319 12.7872 40.0397 12.4125 40.4144C12.0377 40.7891 11.5299 41.0004 11 41.002ZM24 45.002C22.8133 45.002 21.6533 44.6501 20.6666 43.9908C19.6799 43.3315 18.9108 42.3944 18.4567 41.2981C18.0026 40.2017 17.8838 38.9953 18.1153 37.8314C18.3468 36.6675 18.9182 35.5984 19.7574 34.7593C20.5965 33.9202 21.6656 33.3488 22.8295 33.1172C23.9933 32.8857 25.1997 33.0045 26.2961 33.4587C27.3925 33.9128 28.3295 34.6818 28.9888 35.6685C29.6481 36.6552 30 37.8153 30 39.002C29.9987 40.5928 29.3661 42.1182 28.2412 43.2431C27.1162 44.3681 25.5909 45.0006 24 45.002ZM37 41.002C36.6044 41.002 36.2178 40.8847 35.8889 40.6649C35.56 40.4451 35.3036 40.1328 35.1522 39.7673C35.0009 39.4019 34.9613 38.9997 35.0384 38.6118C35.1156 38.2238 35.3061 37.8674 35.5858 37.5877C35.8655 37.308 36.2219 37.1176 36.6098 37.0404C36.9978 36.9632 37.3999 37.0028 37.7654 37.1542C38.1308 37.3056 38.4432 37.5619 38.6629 37.8908C38.8827 38.2197 39 38.6064 39 39.002C38.9984 39.5319 38.7872 40.0397 38.4125 40.4144C38.0377 40.7891 37.5299 41.0004 37 41.002Z" fill="black"/>
</g>
<defs>
<clipPath id="clip0_6013_52641">
<rect width="48" height="48" fill="white" transform="translate(0 0.00195312)"/>
</clipPath>
</defs>
</svg>
