<svg width="48" height="48" viewBox="0 0 48 48" fill="none" xmlns="http://www.w3.org/2000/svg">
<g clip-path="url(#clip0_6013_52648)">
<path d="M13 8.00195C15.2091 8.00195 17 6.21109 17 4.00195C17 1.79281 15.2091 0.00195312 13 0.00195312C10.7909 0.00195312 9 1.79281 9 4.00195C9 6.21109 10.7909 8.00195 13 8.00195Z" fill="black"/>
<path d="M46 0.00195313H24C23.4696 0.00195313 22.9609 0.212667 22.5858 0.58774C22.2107 0.962812 22 1.47152 22 2.00195V10.002H12.976C5.578 10.002 0 15.162 0 22.002C0 22.5324 0.210714 23.0411 0.585786 23.4162C0.960859 23.7912 1.46957 24.002 2 24.002C2.53043 24.002 3.03914 23.7912 3.41421 23.4162C3.78929 23.0411 4 22.5324 4 22.002C3.9728 20.6161 4.33275 19.2502 5.03939 18.0577C5.74603 16.8652 6.77134 15.8936 8 15.252V29.102C8 29.132 8.007 29.159 8.009 29.188C8.007 29.218 8 29.245 8 29.275V46.002C8 46.5324 8.21071 47.0411 8.58579 47.4162C8.96086 47.7912 9.46957 48.002 10 48.002C10.5304 48.002 11.0391 47.7912 11.4142 47.4162C11.7893 47.0411 12 46.5324 12 46.002V31.002H14V46.002C14 46.5324 14.2107 47.0411 14.5858 47.4162C14.9609 47.7912 15.4696 48.002 16 48.002C16.5304 48.002 17.0391 47.7912 17.4142 47.4162C17.7893 47.0411 18 46.5324 18 46.002V29.275C18 29.245 17.993 29.218 17.991 29.188C17.993 29.159 18 29.132 18 29.102V14.002H22V21.002C22 21.5324 22.2107 22.0411 22.5858 22.4162C22.9609 22.7912 23.4696 23.002 24 23.002H46C46.5304 23.002 47.0391 22.7912 47.4142 22.4162C47.7893 22.0411 48 21.5324 48 21.002V2.00195C48 1.47152 47.7893 0.962812 47.4142 0.58774C47.0391 0.212667 46.5304 0.00195313 46 0.00195313ZM30 10.002H26V4.00195H44V19.002H26V14.002H30C30.5304 14.002 31.0391 13.7912 31.4142 13.4162C31.7893 13.0411 32 12.5324 32 12.002C32 11.4715 31.7893 10.9628 31.4142 10.5877C31.0391 10.2127 30.5304 10.002 30 10.002Z" fill="black"/>
</g>
<defs>
<clipPath id="clip0_6013_52648">
<rect width="48" height="48" fill="white" transform="translate(0 0.00195312)"/>
</clipPath>
</defs>
</svg>
