<svg width="48" height="48" viewBox="0 0 48 48" fill="none" xmlns="http://www.w3.org/2000/svg">
<g clip-path="url(#clip0_6013_52646)">
<path d="M46 41.002C46.5304 41.002 47.0391 40.8439 47.4142 40.5626C47.7893 40.2813 48 39.8998 48 39.502C48 39.1041 47.7893 38.7226 47.4142 38.4413C47.0391 38.16 46.5304 38.002 46 38.002H41.3333V36.002H46C46.5304 36.002 47.0391 35.8439 47.4142 35.5626C47.7893 35.2813 48 34.8998 48 34.502C48 34.1041 47.7893 33.7226 47.4142 33.4413C47.0391 33.16 46.5304 33.002 46 33.002H41.3333V31.002H44C44.7066 31.0004 45.3836 30.7892 45.8833 30.4144C46.3829 30.0397 46.6646 29.5319 46.6667 29.002V2.00195C46.6646 1.47201 46.3829 0.964218 45.8833 0.589488C45.3836 0.214758 44.7066 0.00353585 44 0.00195312L4 0.00195313C3.29341 0.00353585 2.61635 0.214758 2.11671 0.589488C1.61707 0.964218 1.33544 1.47201 1.33333 2.00195V29.002C1.33544 29.5319 1.61707 30.0397 2.11671 30.4144C2.61635 30.7892 3.29341 31.0004 4 31.002H6.66667V33.002H2C1.46957 33.002 0.960859 33.16 0.585786 33.4413C0.210714 33.7226 0 34.1041 0 34.502C0 34.8998 0.210714 35.2813 0.585786 35.5626C0.960859 35.8439 1.46957 36.002 2 36.002H6.66667V38.002H2C1.46957 38.002 0.960859 38.16 0.585786 38.4413C0.210714 38.7226 0 39.1041 0 39.502C0 39.8998 0.210714 40.2813 0.585786 40.5626C0.960859 40.8439 1.46957 41.002 2 41.002H6.66667V43.002H2C1.46957 43.002 0.960859 43.16 0.585786 43.4413C0.210714 43.7226 0 44.1041 0 44.502C0 44.8998 0.210714 45.2813 0.585786 45.5626C0.960859 45.8439 1.46957 46.002 2 46.002H6.66667V46.502C6.66667 46.8998 6.87738 47.2813 7.25245 47.5626C7.62753 47.8439 8.13623 48.002 8.66667 48.002C9.1971 48.002 9.70581 47.8439 10.0809 47.5626C10.456 47.2813 10.6667 46.8998 10.6667 46.502V46.002H37.3333V46.502C37.3333 46.8998 37.544 47.2813 37.9191 47.5626C38.2942 47.8439 38.8029 48.002 39.3333 48.002C39.8638 48.002 40.3725 47.8439 40.7475 47.5626C41.1226 47.2813 41.3333 46.8998 41.3333 46.502V46.002H46C46.5304 46.002 47.0391 45.8439 47.4142 45.5626C47.7893 45.2813 48 44.8998 48 44.502C48 44.1041 47.7893 43.7226 47.4142 43.4413C47.0391 43.16 46.5304 43.002 46 43.002H41.3333V41.002H46ZM37.3333 31.002V33.002H10.6667V31.002H37.3333ZM37.3333 36.002V38.002H10.6667V36.002H37.3333ZM37.3333 41.002V43.002H10.6667V41.002H37.3333ZM40 28.002C39.4726 28.002 38.957 27.8847 38.5185 27.6649C38.0799 27.4451 37.7382 27.1328 37.5363 26.7673C37.3345 26.4019 37.2817 25.9997 37.3846 25.6118C37.4875 25.2238 37.7414 24.8674 38.1144 24.5877C38.4873 24.308 38.9625 24.1176 39.4798 24.0404C39.997 23.9632 40.5332 24.0028 41.0205 24.1542C41.5078 24.3056 41.9242 24.5619 42.2173 24.8908C42.5103 25.2197 42.6667 25.6064 42.6667 26.002C42.6646 26.5319 42.3829 27.0397 41.8833 27.4144C41.3836 27.7892 40.7066 28.0004 40 28.002ZM5.33333 7.00195C5.33439 6.73698 5.4752 6.48309 5.72502 6.29572C5.97484 6.10836 6.31337 6.00274 6.66667 6.00195H41.3333C41.6866 6.00274 42.0252 6.10836 42.275 6.29572C42.5248 6.48309 42.6656 6.73698 42.6667 7.00195V19.002C42.6656 19.2669 42.5248 19.5208 42.275 19.7082C42.0252 19.8955 41.6866 20.0012 41.3333 20.002H6.66667C6.31337 20.0012 5.97484 19.8955 5.72502 19.7082C5.4752 19.5208 5.33439 19.2669 5.33333 19.002V7.00195ZM5.33333 26.002C5.33333 25.6064 5.48973 25.2197 5.78275 24.8908C6.07577 24.5619 6.49224 24.3056 6.97951 24.1542C7.46678 24.0028 8.00296 23.9632 8.52024 24.0404C9.03752 24.1176 9.51268 24.308 9.88562 24.5877C10.2586 24.8674 10.5125 25.2238 10.6154 25.6118C10.7183 25.9997 10.6655 26.4019 10.4637 26.7673C10.2618 27.1328 9.92005 27.4451 9.48152 27.6649C9.04299 27.8847 8.52742 28.002 8 28.002C7.29341 28.0004 6.61635 27.7892 6.11671 27.4144C5.61707 27.0397 5.33544 26.5319 5.33333 26.002Z" fill="black"/>
</g>
<defs>
<clipPath id="clip0_6013_52646">
<rect width="48" height="48" fill="white" transform="translate(0 0.00195312)"/>
</clipPath>
</defs>
</svg>
