<svg width="48" height="44" viewBox="0 0 48 44" fill="none" xmlns="http://www.w3.org/2000/svg">
<g clip-path="url(#clip0_6013_52652)">
<path d="M40 25.6621L25.03 14.3421C24.7314 14.1227 24.3705 14.0044 24 14.0044C23.6295 14.0044 23.2686 14.1227 22.97 14.3421L8 25.6621C7.83613 25.7812 7.69776 25.932 7.593 26.1055C7.48824 26.2789 7.41922 26.4715 7.39 26.6721L5 44.0021H23V34.2921C23 33.9921 23.45 33.8921 23.62 34.1521L29.15 44.0021H43L40.61 26.6721C40.5808 26.4715 40.5118 26.2789 40.407 26.1055C40.3022 25.932 40.1639 25.7812 40 25.6621ZM47.895 7.04106C47.9602 6.87358 47.9947 6.69575 47.997 6.51606C47.999 6.51139 48 6.50672 48 6.50206L47.997 6.48706C47.9944 6.3091 47.9602 6.13303 47.896 5.96706C47.892 5.95372 47.8877 5.94039 47.883 5.92706C47.8094 5.75084 47.7028 5.5903 47.569 5.45406L47.561 5.44106L47.557 5.43806L42.559 0.442057C42.2776 0.160795 41.896 0.00283596 41.4981 0.00292973C41.1003 0.0030235 40.7188 0.161162 40.4375 0.442557C40.1562 0.723951 39.9983 1.10555 39.9984 1.50341C39.9985 1.90127 40.1566 2.28279 40.438 2.56406L42.878 5.00206H5.122L7.562 2.56206C7.83048 2.27835 7.9777 1.90111 7.97236 1.51054C7.96702 1.11997 7.80954 0.746896 7.53341 0.470633C7.25728 0.194371 6.88427 0.0367168 6.49371 0.0311934C6.10315 0.0256701 5.72583 0.172713 5.442 0.441057L0.443 5.43906L0.439 5.44206L0.43 5.45506C0.296178 5.5913 0.189603 5.75184 0.116 5.92806C0.112 5.94139 0.108 5.95472 0.104 5.96806C0.0397516 6.13403 0.00555181 6.3101 0.003 6.48806L0 6.50306L0.002 6.51606C0.00427594 6.69575 0.038825 6.87358 0.104 7.04106L0.116 7.07706C0.190009 7.25609 0.297998 7.41909 0.434 7.55706L0.439 7.56406L0.443 7.56706L5.441 12.5641C5.72483 12.8324 6.10215 12.9794 6.49271 12.9739C6.88327 12.9684 7.25628 12.8107 7.53241 12.5345C7.80854 12.2582 7.96602 11.8851 7.97136 11.4946C7.9767 11.104 7.82948 10.7268 7.561 10.4431L5.123 8.00206H42.878L40.438 10.4421C40.1567 10.7235 39.9988 11.1051 39.9989 11.5029C39.999 11.9008 40.1571 12.2823 40.4385 12.5636C40.7199 12.8448 41.1015 13.0028 41.4994 13.0027C41.8972 13.0026 42.2787 12.8445 42.56 12.5631L47.558 7.56606L47.562 7.56306L47.566 7.55606C47.7027 7.41827 47.8114 7.25525 47.886 7.07606L47.895 7.04106Z" fill="black"/>
</g>
<defs>
<clipPath id="clip0_6013_52652">
<rect width="48" height="44.001" fill="white" transform="translate(0 0.00195312)"/>
</clipPath>
</defs>
</svg>
