<svg width="48" height="48" viewBox="0 0 48 48" fill="none" xmlns="http://www.w3.org/2000/svg">
<g clip-path="url(#clip0_6013_52655)">
<path d="M47.8852 16.1778L43.8852 2.17776C43.6659 1.41319 43.1521 0.766882 42.4568 0.380675C41.7614 -0.00553304 40.9412 -0.100089 40.1762 0.117758L26.1762 4.11776C25.7974 4.22603 25.4437 4.40786 25.1352 4.65285C24.8266 4.89784 24.5694 5.20121 24.3781 5.54562C23.9918 6.24119 23.8976 7.06174 24.1162 7.82676C24.2245 8.20555 24.4063 8.55932 24.6513 8.86785C24.8963 9.17638 25.1997 9.43363 25.5441 9.62492C26.2397 10.0112 27.0602 10.1054 27.8252 9.88676L33.2252 8.34376L23.0922 26.4358L18.8292 22.1738C18.4049 21.7494 17.8906 21.426 17.3243 21.2275C16.758 21.029 16.1543 20.9604 15.5579 21.0268C14.9615 21.0933 14.3877 21.2931 13.879 21.6114C13.3703 21.9297 12.9398 22.3584 12.6192 22.8658L0.619244 41.8658C0.3302 42.3098 0.132268 42.8069 0.0369427 43.3282C-0.0583823 43.8494 -0.0492003 44.3843 0.0639553 44.902C0.177111 45.4196 0.391985 45.9096 0.696099 46.3435C1.00021 46.7774 1.3875 47.1466 1.83548 47.4296C2.28346 47.7126 2.7832 47.9037 3.30567 47.9919C3.82814 48.0802 4.36293 48.0637 4.87899 47.9435C5.39504 47.8233 5.88208 47.6018 6.3118 47.2918C6.74153 46.9818 7.10539 46.5895 7.38224 46.1378L16.7102 31.3688L21.1722 35.8298C21.6092 36.2668 22.1415 36.5967 22.7274 36.7935C23.3133 36.9903 23.9368 37.0486 24.5491 36.964C25.1613 36.8793 25.7456 36.6539 26.256 36.3055C26.7665 35.957 27.1893 35.495 27.4912 34.9558L40.4162 11.8758L42.1162 17.8258C42.3348 18.5909 42.8483 19.2379 43.5439 19.6244C43.8883 19.8158 44.267 19.9375 44.6585 19.9825C45.0499 20.0275 45.4464 19.995 45.8252 19.8868C46.2041 19.7785 46.5579 19.5968 46.8666 19.3518C47.1752 19.1069 47.4325 18.8035 47.6239 18.4591C47.8153 18.1147 47.937 17.736 47.982 17.3445C48.027 16.9531 47.9945 16.5566 47.8862 16.1778" fill="black"/>
</g>
<defs>
<clipPath id="clip0_6013_52655">
<rect width="48.001" height="48.001" fill="white" transform="translate(0 0.00195312)"/>
</clipPath>
</defs>
</svg>
