<svg width="48" height="48" viewBox="0 0 48 48" fill="none" xmlns="http://www.w3.org/2000/svg">
<g clip-path="url(#clip0_6013_52657)">
<path d="M14.4014 7.00197H33.6014C35.9795 7.00164 38.3206 7.49295 40.4149 8.43189C42.5092 9.37083 44.2912 10.7281 45.6014 12.382V2.00197C45.6025 1.73906 45.5412 1.47857 45.421 1.23551C45.3007 0.992437 45.124 0.771591 44.9009 0.585689C44.6778 0.399788 44.4128 0.252504 44.1211 0.152322C43.8295 0.0521405 43.5169 0.00104044 43.2014 0.00196546H4.80138C4.4859 0.00104044 4.17331 0.0521405 3.88163 0.152322C3.58995 0.252504 3.32493 0.399788 3.10185 0.585689C2.87877 0.771591 2.70203 0.992437 2.58181 1.23551C2.46159 1.47857 2.40027 1.73906 2.40138 2.00197V12.382C3.71154 10.7281 5.49359 9.37083 7.58788 8.43189C9.68216 7.49295 12.0232 7.00164 14.4014 7.00197Z" fill="black"/>
<path d="M46.201 24.402C46.0127 24.3081 45.8112 24.2342 45.601 24.182C45.2175 24.0615 44.8108 24.0005 44.401 24.002V19.002C44.3965 16.6161 43.2573 14.3291 41.2328 12.6421C39.2084 10.9551 36.464 10.0057 33.601 10.002H14.401C11.538 10.0057 8.79356 10.9551 6.76913 12.6421C4.7447 14.3291 3.60542 16.6161 3.60098 19.002V24.002C3.19115 24.0005 2.78446 24.0615 2.40098 24.182C2.19079 24.2342 1.98924 24.3081 1.80098 24.402C1.25337 24.6654 0.798697 25.0444 0.482711 25.5009C0.166725 25.9573 0.000574361 26.475 0.000979771 27.002V39.002C0.000347925 39.3961 0.0930334 39.7864 0.273727 40.1506C0.45442 40.5148 0.71957 40.8458 1.05399 41.1244C1.3884 41.4031 1.78551 41.6241 2.22257 41.7747C2.65963 41.9252 3.12804 42.0025 3.60098 42.002V45.072C3.60414 45.8482 3.97559 46.592 4.63429 47.1409C5.29298 47.6898 6.18545 47.9993 7.11698 48.002H7.28498C8.21651 47.9993 9.10898 47.6898 9.76767 47.1409C10.4264 46.592 10.7978 45.8482 10.801 45.072V42.002H37.249V45.072C37.2521 45.8482 37.6236 46.592 38.2823 47.1409C38.941 47.6898 39.8335 47.9993 40.765 48.002H40.885C41.8165 47.9993 42.709 47.6898 43.3677 47.1409C44.0264 46.592 44.3978 45.8482 44.401 45.072V42.002C44.8739 42.0025 45.3423 41.9252 45.7794 41.7747C46.2164 41.6241 46.6136 41.4031 46.948 41.1244C47.2824 40.8458 47.5475 40.5148 47.7282 40.1506C47.9089 39.7864 48.0016 39.3961 48.001 39.002V27.002C48.0014 26.475 47.8352 25.9573 47.5192 25.5009C47.2033 25.0444 46.7486 24.6654 46.201 24.402ZM6.60098 34.002C6.00764 34.002 5.42762 33.8553 4.93427 33.5806C4.44092 33.3059 4.0564 32.9155 3.82934 32.4587C3.60228 32.0018 3.54287 31.4992 3.65862 31.0142C3.77438 30.5293 4.0601 30.0838 4.47966 29.7342C4.89922 29.3846 5.43377 29.1465 6.01571 29.05C6.59765 28.9535 7.20085 29.003 7.74903 29.1923C8.29721 29.3815 8.76574 29.7019 9.09539 30.113C9.42503 30.5242 9.60098 31.0075 9.60098 31.502C9.60098 32.165 9.28491 32.8009 8.7223 33.2697C8.15969 33.7386 7.39663 34.002 6.60098 34.002ZM18.001 35.002C18.001 35.5324 17.7481 36.0411 17.298 36.4162C16.8479 36.7912 16.2375 37.002 15.601 37.002C14.9645 37.002 14.354 36.7912 13.9039 36.4162C13.4538 36.0411 13.201 35.5324 13.201 35.002V30.002C13.1999 29.8813 13.212 29.7608 13.237 29.642C13.3414 29.1825 13.6344 28.7675 14.0657 28.4683C14.497 28.1691 15.0398 28.0042 15.601 28.002C16.1612 28.0071 16.7023 28.173 17.1329 28.4717C17.5635 28.7704 17.8574 29.1837 17.965 29.642C17.99 29.7608 18.002 29.8813 18.001 30.002V35.002ZM26.401 35.002C26.401 35.5324 26.1481 36.0411 25.698 36.4162C25.2479 36.7912 24.6375 37.002 24.001 37.002C23.3645 37.002 22.754 36.7912 22.3039 36.4162C21.8538 36.0411 21.601 35.5324 21.601 35.002V30.002C21.5999 29.8813 21.612 29.7608 21.637 29.642C21.7414 29.1825 22.0344 28.7675 22.4657 28.4683C22.897 28.1691 23.4398 28.0042 24.001 28.002C24.5612 28.0071 25.1023 28.173 25.5329 28.4717C25.9635 28.7704 26.2574 29.1837 26.365 29.642C26.39 29.7608 26.402 29.8813 26.401 30.002V35.002ZM34.801 35.002C34.801 35.5324 34.5481 36.0411 34.098 36.4162C33.6479 36.7912 33.0375 37.002 32.401 37.002C31.7645 37.002 31.154 36.7912 30.7039 36.4162C30.2538 36.0411 30.001 35.5324 30.001 35.002V30.002C29.9999 29.8813 30.012 29.7608 30.037 29.642C30.1414 29.1825 30.4344 28.7675 30.8657 28.4683C31.297 28.1691 31.8398 28.0042 32.401 28.002C32.9612 28.0071 33.5023 28.173 33.9329 28.4717C34.3635 28.7704 34.6574 29.1837 34.765 29.642C34.79 29.7608 34.802 29.8813 34.801 30.002V35.002ZM37.201 24.002H10.801V19.002C10.8041 18.2071 11.1844 17.4456 11.8589 16.8835C12.5333 16.3215 13.4472 16.0046 14.401 16.002H33.601C34.5548 16.0046 35.4686 16.3215 36.1431 16.8835C36.8175 17.4456 37.1978 18.2071 37.201 19.002V24.002ZM41.401 34.002C40.8076 34.002 40.2276 33.8553 39.7343 33.5806C39.2409 33.3059 38.8564 32.9155 38.6293 32.4587C38.4023 32.0018 38.3429 31.4992 38.4586 31.0142C38.5744 30.5293 38.8601 30.0838 39.2797 29.7342C39.6992 29.3846 40.2338 29.1465 40.8157 29.05C41.3977 28.9535 42.0008 29.003 42.549 29.1923C43.0972 29.3815 43.5657 29.7019 43.8954 30.113C44.225 30.5242 44.401 31.0075 44.401 31.502C44.401 32.165 44.0849 32.8009 43.5223 33.2697C42.9597 33.7386 42.1966 34.002 41.401 34.002Z" fill="black"/>
</g>
<defs>
<clipPath id="clip0_6013_52657">
<rect width="48" height="48" fill="white" transform="translate(0.000976562 0.00195312)"/>
</clipPath>
</defs>
</svg>
