<svg width="48" height="48" viewBox="0 0 48 48" fill="none" xmlns="http://www.w3.org/2000/svg">
<g clip-path="url(#clip0_6013_52661)">
<path d="M47.9 19.4827L40.14 14.1127C40.0974 14.0882 40.0491 14.0752 40 14.0752C39.9509 14.0752 39.9026 14.0882 39.86 14.1127L32.1 19.4827C32.0715 19.4991 32.0474 19.5223 32.0299 19.5502C32.0125 19.5781 32.0022 19.6099 32 19.6427V26.0927C31.79 26.0827 31.56 26.0727 31.33 26.0727C29.7008 26.0428 28.0961 26.4725 26.7 27.3127C25.8991 27.8391 24.9549 28.1046 23.997 28.0727C22.425 28.0133 20.9335 27.362 19.8213 26.2493C18.7092 25.1366 18.0587 23.6448 18 22.0727C17.9511 20.5626 18.5023 19.0946 19.5331 17.9898C20.5638 16.8851 21.9901 16.2335 23.5 16.1777C24.3849 16.1759 25.2554 16.4025 26.027 16.8357C26.4905 17.0938 27.0375 17.1572 27.5477 17.0119C28.0578 16.8667 28.4894 16.5247 28.7475 16.0612C29.0056 15.5978 29.0689 15.0508 28.9237 14.5406C28.7784 14.0304 28.4365 13.5988 27.973 13.3407C26.6052 12.5788 25.0657 12.1785 23.5 12.1777C20.9293 12.2339 18.4858 13.307 16.705 15.1619C14.9242 17.0167 13.9515 19.5019 14 22.0727C14.0659 24.7004 15.1378 27.2026 16.9946 29.0631C18.8514 30.9237 21.3514 32.0006 23.979 32.0717H24.006C25.6298 32.0987 27.2285 31.669 28.62 30.8317C29.4229 30.3039 30.3698 30.0384 31.33 30.0717C32.2853 30.0414 33.2272 30.303 34.03 30.8217C35.2293 31.5582 36.5944 31.9815 38 32.0527C38.21 32.0627 38.43 32.0727 38.66 32.0727C40.2892 32.1027 41.8939 31.6729 43.29 30.8327C43.8119 30.5001 44.3922 30.2694 45 30.1527C45.1083 30.1304 45.2178 30.114 45.328 30.1037C45.482 30.0947 45.635 30.0857 45.8 30.0837C45.8663 30.0753 45.9332 30.0719 46 30.0737C46.6719 30.0687 47.3424 30.1358 48 30.2737V19.6427C47.9978 19.6099 47.9875 19.5781 47.9701 19.5502C47.9526 19.5223 47.9285 19.4991 47.9 19.4827ZM46 42.0027C44.3716 41.9711 42.7678 42.4025 41.375 43.2467C40.557 43.7414 39.6194 44.0028 38.6635 44.0028C37.7076 44.0028 36.77 43.7414 35.952 43.2467C34.5589 42.4023 32.9547 41.9709 31.326 42.0027C29.6983 41.9715 28.0952 42.4029 26.703 43.2467C25.8986 43.7691 24.9537 44.033 23.995 44.0027C23.036 44.0332 22.0907 43.7693 21.286 43.2467C19.8932 42.4025 18.2894 41.9711 16.661 42.0027C15.033 41.9713 13.4295 42.4027 12.037 43.2467C11.2329 43.7689 10.2883 44.0327 9.33 44.0027C8.37212 44.0328 7.42793 43.7694 6.624 43.2477C5.23162 42.4033 3.62812 41.9716 2 42.0027C1.46957 42.0027 0.960859 42.2134 0.585786 42.5885C0.210714 42.9636 0 43.4723 0 44.0027C0 44.5332 0.210714 45.0419 0.585786 45.417C0.960859 45.792 1.46957 46.0027 2 46.0027C2.95832 45.9727 3.9029 46.2365 4.707 46.7587C6.0989 47.6024 7.70166 48.0338 9.329 48.0027C10.957 48.0342 12.5605 47.6028 13.953 46.7587C14.7574 46.2363 15.7023 45.9725 16.661 46.0027C17.6203 45.9721 18.5661 46.2359 19.371 46.7587C20.7632 47.6026 22.3663 48.034 23.994 48.0027C25.6221 48.0339 27.2256 47.6021 28.618 46.7577C29.4356 46.2637 30.3727 46.0025 31.328 46.0025C32.2833 46.0025 33.2204 46.2637 34.038 46.7577C35.4432 47.5725 37.0387 48.0017 38.663 48.0017C40.2873 48.0017 41.8828 47.5725 43.288 46.7577C44.0936 46.2349 45.0401 45.9714 46 46.0027C46.5304 46.0027 47.0391 45.792 47.4142 45.417C47.7893 45.0419 48 44.5332 48 44.0027C48 43.4723 47.7893 42.9636 47.4142 42.5885C47.0391 42.2134 46.5304 42.0027 46 42.0027ZM46 34.0027C44.3716 33.9711 42.7678 34.4025 41.375 35.2467C40.557 35.7414 39.6194 36.0028 38.6635 36.0028C37.7076 36.0028 36.77 35.7414 35.952 35.2467C34.5589 34.4023 32.9547 33.9709 31.326 34.0027C29.6983 33.9715 28.0952 34.4029 26.703 35.2467C25.8986 35.7691 24.9537 36.033 23.995 36.0027C23.036 36.0332 22.0907 35.7693 21.286 35.2467C19.8932 34.4025 18.2894 33.9711 16.661 34.0027C15.033 33.9713 13.4295 34.4027 12.037 35.2467C11.2329 35.7689 10.2883 36.0327 9.33 36.0027C8.37212 36.0328 7.42793 35.7694 6.624 35.2477C5.23162 34.4033 3.62812 33.9716 2 34.0027C1.46957 34.0027 0.960859 34.2134 0.585786 34.5885C0.210714 34.9636 0 35.4723 0 36.0027C0 36.5332 0.210714 37.0419 0.585786 37.417C0.960859 37.792 1.46957 38.0027 2 38.0027C2.95832 37.9727 3.9029 38.2365 4.707 38.7587C6.0989 39.6024 7.70166 40.0338 9.329 40.0027C10.957 40.0342 12.5605 39.6028 13.953 38.7587C14.7574 38.2363 15.7023 37.9725 16.661 38.0027C17.6203 37.9721 18.5661 38.2359 19.371 38.7587C20.7632 39.6026 22.3663 40.034 23.994 40.0027C25.6221 40.0339 27.2256 39.6021 28.618 38.7577C29.4356 38.2637 30.3727 38.0025 31.328 38.0025C32.2833 38.0025 33.2204 38.2637 34.038 38.7577C35.4432 39.5725 37.0387 40.0017 38.663 40.0017C40.2873 40.0017 41.8828 39.5725 43.288 38.7577C44.0936 38.2349 45.0401 37.9714 46 38.0027C46.5304 38.0027 47.0391 37.792 47.4142 37.417C47.7893 37.0419 48 36.5332 48 36.0027C48 35.4723 47.7893 34.9636 47.4142 34.5885C47.0391 34.2134 46.5304 34.0027 46 34.0027Z" fill="black"/>
<path d="M4.10184 31.0729C4.44567 31.0726 4.78359 30.9835 5.08299 30.8145C5.38238 30.6454 5.63315 30.4021 5.81106 30.1078C5.98898 29.8136 6.08804 29.4785 6.09869 29.1349C6.10933 28.7912 6.0312 28.4506 5.87184 28.1459C4.55932 25.6304 3.91735 22.8191 4.00788 19.9833C4.09841 17.1474 4.91838 14.3827 6.38866 11.9561C7.85894 9.52944 9.92989 7.52274 12.4016 6.12963C14.8734 4.73653 17.6625 4.00407 20.4998 4.00293C24.6537 4.06836 28.6319 5.68988 31.6478 8.54693C32.0388 8.9055 32.5561 9.09409 33.0861 9.07121C33.6161 9.04833 34.1153 8.81586 34.4738 8.42493C34.8324 8.034 35.021 7.51664 34.9981 6.98666C34.9752 6.45669 34.7428 5.9575 34.3518 5.59893C30.599 2.06351 25.6553 0.0663423 20.4998 0.00292969C16.9746 0.00424887 13.5091 0.914285 10.4381 2.6452C7.36698 4.37612 4.79395 6.86947 2.9673 9.88459C1.14066 12.8997 0.122087 16.3348 0.00990076 19.8583C-0.102286 23.3818 0.695701 26.8747 2.32684 29.9999C2.49633 30.324 2.75143 30.5953 3.06438 30.7845C3.37733 30.9737 3.73615 31.0734 4.10184 31.0729Z" fill="black"/>
</g>
<defs>
<clipPath id="clip0_6013_52661">
<rect width="48" height="48" fill="white" transform="translate(0 0.00292969)"/>
</clipPath>
</defs>
</svg>
