<svg width="48" height="44" viewBox="0 0 48 44" fill="none" xmlns="http://www.w3.org/2000/svg">
<g clip-path="url(#clip0_6013_52665)">
<path d="M46 0.00292969H2C1.47005 0.00451241 0.962265 0.215734 0.587535 0.590465C0.212805 0.965195 0.00158273 1.47298 0 2.00293L0 44.0029H9.97V21.0029C9.97 17.2819 11.4482 13.7134 14.0793 11.0822C16.7104 8.45109 20.279 6.97293 24 6.97293C27.721 6.97293 31.2896 8.45109 33.9207 11.0822C36.5518 13.7134 38.03 17.2819 38.03 21.0029V44.0029H48V2.00293C47.9984 1.47298 47.7872 0.965195 47.4125 0.590465C47.0377 0.215734 46.5299 0.00451241 46 0.00292969Z" fill="black"/>
<path d="M32 33.0029V29.0029C32.0005 28.6088 31.9233 28.2185 31.7727 27.8543C31.6221 27.49 31.4012 27.1591 31.1225 26.8804C30.8438 26.6018 30.5129 26.3808 30.1487 26.2302C29.7845 26.0796 29.3941 26.0024 29 26.0029H19C18.6059 26.0024 18.2155 26.0796 17.8513 26.2302C17.4871 26.3808 17.1562 26.6018 16.8775 26.8804C16.5988 27.1591 16.3779 27.49 16.2273 27.8543C16.0767 28.2185 15.9995 28.6088 16 29.0029V33.0029C15.2057 33.0074 14.4453 33.3249 13.8836 33.8865C13.322 34.4482 13.0045 35.2087 13 36.0029V38.0029C12.9995 38.397 13.0767 38.7874 13.2273 39.1516C13.3779 39.5158 13.5988 39.8467 13.8775 40.1254C14.1562 40.4041 14.4871 40.6251 14.8513 40.7756C15.2155 40.9262 15.6059 41.0035 16 41.0029V42.0029C16 42.5334 16.2107 43.0421 16.5858 43.4171C16.9609 43.7922 17.4696 44.0029 18 44.0029C18.5304 44.0029 19.0391 43.7922 19.4142 43.4171C19.7893 43.0421 20 42.5334 20 42.0029V41.0029H28V42.0029C28 42.5334 28.2107 43.0421 28.5858 43.4171C28.9609 43.7922 29.4696 44.0029 30 44.0029C30.5304 44.0029 31.0391 43.7922 31.4142 43.4171C31.7893 43.0421 32 42.5334 32 42.0029V41.0029C32.3941 41.0035 32.7845 40.9262 33.1487 40.7756C33.5129 40.6251 33.8438 40.4041 34.1225 40.1254C34.4012 39.8467 34.6221 39.5158 34.7727 39.1516C34.9233 38.7874 35.0005 38.397 35 38.0029V36.0029C34.9955 35.2087 34.678 34.4482 34.1164 33.8865C33.5547 33.3249 32.7943 33.0074 32 33.0029ZM19 30.0029C19.0008 29.738 19.1064 29.4841 19.2938 29.2967C19.4811 29.1093 19.735 29.0037 20 29.0029H28C28.265 29.0037 28.5189 29.1093 28.7062 29.2967C28.8936 29.4841 28.9992 29.738 29 30.0029V33.0029H19V30.0029ZM17.5 35.0029C17.7967 35.0029 18.0867 35.0909 18.3334 35.2557C18.58 35.4206 18.7723 35.6548 18.8858 35.9289C18.9994 36.203 19.0291 36.5046 18.9712 36.7956C18.9133 37.0865 18.7704 37.3538 18.5607 37.5636C18.3509 37.7734 18.0836 37.9162 17.7926 37.9741C17.5017 38.032 17.2001 38.0023 16.926 37.8888C16.6519 37.7752 16.4176 37.583 16.2528 37.3363C16.088 37.0896 16 36.7996 16 36.5029C16 36.1051 16.158 35.7236 16.4393 35.4423C16.7206 35.161 17.1022 35.0029 17.5 35.0029ZM30.5 38.0029C30.2033 38.0029 29.9133 37.915 29.6666 37.7501C29.42 37.5853 29.2277 37.351 29.1142 37.077C29.0007 36.8029 28.9709 36.5013 29.0288 36.2103C29.0867 35.9193 29.2296 35.6521 29.4393 35.4423C29.6491 35.2325 29.9164 35.0896 30.2074 35.0318C30.4983 34.9739 30.7999 35.0036 31.074 35.1171C31.3481 35.2306 31.5824 35.4229 31.7472 35.6696C31.912 35.9163 32 36.2063 32 36.5029C32 36.9008 31.842 37.2823 31.5607 37.5636C31.2794 37.8449 30.8978 38.0029 30.5 38.0029Z" fill="black"/>
</g>
<defs>
<clipPath id="clip0_6013_52665">
<rect width="48" height="44" fill="white" transform="translate(0 0.00292969)"/>
</clipPath>
</defs>
</svg>
