<svg width="48" height="48" viewBox="0 0 48 48" fill="none" xmlns="http://www.w3.org/2000/svg">
<g clip-path="url(#clip0_6013_52669)">
<path d="M45 6.00293H3C2.20508 6.00451 1.4434 6.21573 0.881302 6.59046C0.319207 6.96519 0.00237409 7.47298 0 8.00293L0 30.0029H48V8.00293C47.9976 7.47298 47.6808 6.96519 47.1187 6.59046C46.5566 6.21573 45.7949 6.00451 45 6.00293ZM22.5 21.5029C22.5 22.4312 21.9469 23.3214 20.9623 23.9778C19.9777 24.6342 18.6424 25.0029 17.25 25.0029C15.8576 25.0029 14.5223 24.6342 13.5377 23.9778C12.5531 23.3214 12 22.4312 12 21.5029V14.0029C12 13.7377 12.158 13.4834 12.4393 13.2958C12.7206 13.1083 13.1022 13.0029 13.5 13.0029C13.8978 13.0029 14.2794 13.1083 14.5607 13.2958C14.842 13.4834 15 13.7377 15 14.0029V21.5029C15 21.9008 15.2371 22.2823 15.659 22.5636C16.081 22.8449 16.6533 23.0029 17.25 23.0029C17.8467 23.0029 18.419 22.8449 18.841 22.5636C19.2629 22.2823 19.5 21.9008 19.5 21.5029V14.0029C19.5 13.7377 19.658 13.4834 19.9393 13.2958C20.2206 13.1083 20.6022 13.0029 21 13.0029C21.3978 13.0029 21.7794 13.1083 22.0607 13.2958C22.342 13.4834 22.5 13.7377 22.5 14.0029V21.5029ZM36 24.0029C36.0003 24.2278 35.8862 24.4462 35.6765 24.6223C35.4667 24.7985 35.1736 24.9221 34.845 24.9729C34.7321 24.9918 34.6164 25.0019 34.5 25.0029C34.223 25.0024 33.9516 24.9507 33.716 24.8536C33.4804 24.7565 33.2896 24.6178 33.165 24.4529L28.5 18.2429V24.0029C28.5 24.2681 28.342 24.5225 28.0607 24.71C27.7794 24.8976 27.3978 25.0029 27 25.0029C26.6022 25.0029 26.2206 24.8976 25.9393 24.71C25.658 24.5225 25.5 24.2681 25.5 24.0029V14.0029C25.502 13.779 25.6167 13.562 25.8256 13.3867C26.0346 13.2114 26.3258 13.0879 26.6525 13.036C26.9793 12.9842 27.3227 13.0069 27.6278 13.1007C27.9328 13.1944 28.1819 13.3536 28.335 13.5529L33 19.7629V14.0029C33 13.7377 33.158 13.4834 33.4393 13.2958C33.7206 13.1083 34.1022 13.0029 34.5 13.0029C34.8978 13.0029 35.2794 13.1083 35.5607 13.2958C35.842 13.4834 36 13.7377 36 14.0029V24.0029ZM9 4.00293H39C39.7957 4.00293 40.5587 3.79222 41.1213 3.41714C41.6839 3.04207 42 2.53336 42 2.00293C42 1.4725 41.6839 0.963789 41.1213 0.588716C40.5587 0.213643 39.7957 0.00292969 39 0.00292969L9 0.00292969C8.20435 0.00292969 7.44129 0.213643 6.87868 0.588716C6.31607 0.963789 6 1.4725 6 2.00293C6 2.53336 6.31607 3.04207 6.87868 3.41714C7.44129 3.79222 8.20435 4.00293 9 4.00293ZM0 48.0029H18V38.0029C18.0024 37.473 18.3192 36.9652 18.8813 36.5905C19.4434 36.2157 20.2051 36.0045 21 36.0029H27C27.7949 36.0045 28.5566 36.2157 29.1187 36.5905C29.6808 36.9652 29.9976 37.473 30 38.0029V48.0029H48V32.0029H0V48.0029Z" fill="black"/>
</g>
<defs>
<clipPath id="clip0_6013_52669">
<rect width="48" height="48" fill="white" transform="translate(0 0.00292969)"/>
</clipPath>
</defs>
</svg>
