<svg width="48" height="28" viewBox="0 0 48 28" fill="none" xmlns="http://www.w3.org/2000/svg">
<g clip-path="url(#clip0_6013_52672)">
<path d="M46 20.0029V16.0629C45.9984 14.7214 45.4648 13.4353 44.5162 12.4867C43.5676 11.5381 42.2815 11.0045 40.94 11.0029H38V8.64293C37.996 6.35268 37.0845 4.15736 35.465 2.53791C33.8456 0.918452 31.6503 0.0068955 29.36 0.00292969L9.23 0.00292969C7.84373 0.00557273 6.515 0.557438 5.53475 1.53768C4.55451 2.51792 4.00265 3.84666 4 5.23293V6.00293H3C2.60589 6.0024 2.21554 6.07964 1.85133 6.23022C1.48712 6.3808 1.15619 6.60175 0.877508 6.88043C0.598827 7.15912 0.377869 7.49004 0.227292 7.85426C0.0767141 8.21847 -0.000523864 8.60882 2.67404e-06 9.00293V16.0029C0.0015854 16.5329 0.212807 17.0407 0.587538 17.4154C0.962268 17.7901 1.47006 18.0013 2 18.0029H4V20.0029H3.99C3.72736 20.0012 3.46708 20.0526 3.22479 20.154C2.98249 20.2554 2.76318 20.4047 2.58 20.5929C2.29906 20.8715 2.10732 21.2273 2.02918 21.6151C1.95105 22.003 1.99005 22.4053 2.14122 22.7709C2.2924 23.1365 2.54891 23.4488 2.87812 23.6682C3.20734 23.8876 3.59438 24.0041 3.99 24.0029H8.03C8.02199 23.9065 8.01866 23.8097 8.02 23.7129C8.01153 23.6466 8.00819 23.5798 8.01 23.5129C8.01 21.7903 8.69429 20.1383 9.91234 18.9203C11.1304 17.7022 12.7824 17.0179 14.505 17.0179C16.2276 17.0179 17.8796 17.7022 19.0977 18.9203C20.3157 20.1383 21 21.7903 21 23.5129C21.0018 23.5798 20.9985 23.6466 20.99 23.7129C20.9913 23.8097 20.988 23.9065 20.98 24.0029H30.03C30.022 23.9065 30.0187 23.8097 30.02 23.7129C30.0115 23.6466 30.0082 23.5798 30.01 23.5129C30.01 21.7903 30.6943 20.1383 31.9123 18.9203C33.1304 17.7022 34.7824 17.0179 36.505 17.0179C38.2276 17.0179 39.8796 17.7022 41.0977 18.9203C42.3157 20.1383 43 21.7903 43 23.5129C43.0018 23.5798 42.9985 23.6466 42.99 23.7129C42.9914 23.8097 42.988 23.9065 42.98 24.0029H46C46.5293 23.9993 47.0359 23.7874 47.4102 23.4131C47.7844 23.0388 47.9963 22.5322 48 22.0029C47.9984 21.473 47.7872 20.9652 47.4125 20.5905C47.0377 20.2157 46.5299 20.0045 46 20.0029ZM27 9.35293V4.00293H29.28C29.44 4.00293 29.6 4.01293 29.76 4.02293C29.898 4.03199 30.0351 4.05205 30.17 4.08293C31.0977 4.26298 31.9503 4.71621 32.6185 5.3844C33.2867 6.0526 33.7399 6.90527 33.92 7.83293C33.9494 7.96805 33.9695 8.10504 33.98 8.24293C33.99 8.40293 34 8.56293 34 8.72293V11.0029H27V9.35293ZM11 14.0029C10.324 14.005 9.66758 13.7756 9.14 13.3529C9.04897 13.2813 8.96216 13.2046 8.88 13.1229C8.40153 12.6483 8.10133 12.0231 8.03 11.3529C8.00976 11.2374 7.99972 11.1203 8 11.0029V5.00293C8.00079 4.73796 8.1064 4.48406 8.29377 4.2967C8.48114 4.10933 8.73503 4.00372 9 4.00293C9.03362 4.00205 9.06722 4.00541 9.1 4.01293C9.34581 4.03763 9.57377 4.15245 9.73995 4.33525C9.90614 4.51804 9.99877 4.75589 10 5.00293V11.0029C9.99799 11.1233 10.0219 11.2426 10.07 11.3529C10.1396 11.5436 10.2662 11.7084 10.4325 11.8247C10.5989 11.9411 10.797 12.0035 11 12.0035C11.203 12.0035 11.4011 11.9411 11.5675 11.8247C11.7338 11.7084 11.8604 11.5436 11.93 11.3529C11.9781 11.2426 12.002 11.1233 12 11.0029V5.00293C12 4.73771 12.1054 4.48336 12.2929 4.29582C12.4804 4.10829 12.7348 4.00293 13 4.00293C13.2652 4.00293 13.5196 4.10829 13.7071 4.29582C13.8946 4.48336 14 4.73771 14 5.00293V11.0029C14.0003 11.1203 13.9902 11.2374 13.97 11.3529C13.8865 12.0822 13.5377 12.7553 12.99 13.2439C12.4423 13.7326 11.734 14.0028 11 14.0029ZM17 14.0029C16.7971 14.003 16.599 13.9406 16.4326 13.8244C16.2663 13.7081 16.1397 13.5435 16.07 13.3529C16.0219 13.2426 15.998 13.1233 16 13.0029V5.00293C16 4.78656 16.0702 4.57603 16.2 4.40293C16.3298 4.22983 16.5123 4.10351 16.72 4.04293C16.8106 4.01492 16.9051 4.00142 17 4.00293C17.1699 4.00259 17.3372 4.04557 17.4859 4.1278C17.6346 4.21004 17.7599 4.32882 17.85 4.47293L20.9 9.35293L21 9.51293V5.00293C21 4.73771 21.1054 4.48336 21.2929 4.29582C21.4804 4.10829 21.7348 4.00293 22 4.00293C22.2652 4.00293 22.5196 4.10829 22.7071 4.29582C22.8946 4.48336 23 4.73771 23 5.00293V13.0029C23.0025 13.2199 22.9333 13.4316 22.8031 13.6052C22.6729 13.7788 22.489 13.9046 22.28 13.9629C22.189 13.9895 22.0948 14.0029 22 14.0029C21.8301 14.0033 21.6628 13.9603 21.5141 13.8781C21.3654 13.7958 21.2401 13.677 21.15 13.5329L21.04 13.3529L19.79 11.3529L19.57 11.0029L18.54 9.35293L18 8.49293V13.0029C18.002 13.1233 17.9781 13.2426 17.93 13.3529C17.8603 13.5435 17.7337 13.7081 17.5674 13.8244C17.401 13.9406 17.203 14.003 17 14.0029Z" fill="black"/>
<path d="M17.3102 20.0028C16.5156 19.3624 15.5258 19.0132 14.5052 19.0132C13.4847 19.0132 12.4949 19.3624 11.7002 20.0028C11.1725 20.4229 10.7464 20.9568 10.4538 21.5645C10.1611 22.1723 10.0095 22.8383 10.0102 23.5128C10.0084 23.5797 10.0118 23.6465 10.0202 23.7128C10.0202 23.8128 10.0302 23.9028 10.0302 24.0028C10.1536 25.1034 10.6781 26.1199 11.5036 26.8581C12.3292 27.5963 13.3978 28.0044 14.5052 28.0044C15.6127 28.0044 16.6813 27.5963 17.5069 26.8581C18.3324 26.1199 18.8569 25.1034 18.9802 24.0028C18.9802 23.9028 18.9902 23.8128 18.9902 23.7128C18.9987 23.6465 19.0021 23.5797 19.0002 23.5128C19.001 22.8383 18.8494 22.1723 18.5567 21.5645C18.2641 20.9568 17.838 20.4229 17.3102 20.0028ZM39.3102 20.0028C38.5156 19.3624 37.5258 19.0132 36.5052 19.0132C35.4847 19.0132 34.4949 19.3624 33.7002 20.0028C33.1725 20.4229 32.7464 20.9568 32.4538 21.5645C32.1611 22.1723 32.0095 22.8383 32.0102 23.5128C32.0084 23.5797 32.0118 23.6465 32.0202 23.7128C32.0202 23.8128 32.0302 23.9028 32.0302 24.0028C32.1536 25.1034 32.6781 26.1199 33.5036 26.8581C34.3292 27.5963 35.3978 28.0044 36.5052 28.0044C37.6127 28.0044 38.6813 27.5963 39.5069 26.8581C40.3324 26.1199 40.8569 25.1034 40.9802 24.0028C40.9802 23.9028 40.9902 23.8128 40.9902 23.7128C40.9987 23.6465 41.0021 23.5797 41.0002 23.5128C41.001 22.8383 40.8494 22.1723 40.5567 21.5645C40.2641 20.9568 39.838 20.4229 39.3102 20.0028Z" fill="black"/>
</g>
<defs>
<clipPath id="clip0_6013_52672">
<rect width="48" height="28" fill="white" transform="translate(0 0.00292969)"/>
</clipPath>
</defs>
</svg>
