<svg width="48" height="48" viewBox="0 0 48 48" fill="none" xmlns="http://www.w3.org/2000/svg">
<g clip-path="url(#clip0_6013_52676)">
<path d="M46.5 45.002H1.5C1.10218 45.002 0.720644 45.16 0.43934 45.4413C0.158035 45.7226 0 46.1041 0 46.502C0 46.8998 0.158035 47.2813 0.43934 47.5626C0.720644 47.8439 1.10218 48.002 1.5 48.002H46.5C46.8978 48.002 47.2794 47.8439 47.5607 47.5626C47.842 47.2813 48 46.8998 48 46.502C48 46.1041 47.842 45.7226 47.5607 45.4413C47.2794 45.16 46.8978 45.002 46.5 45.002ZM5.5 43.002H42.5C42.8978 43.002 43.2794 42.8439 43.5607 42.5626C43.842 42.2813 44 41.8998 44 41.502C44 41.1041 43.842 40.7226 43.5607 40.4413C43.2794 40.16 42.8978 40.002 42.5 40.002H5.5C5.10218 40.002 4.72064 40.16 4.43934 40.4413C4.15804 40.7226 4 41.1041 4 41.502C4 41.8998 4.15804 42.2813 4.43934 42.5626C4.72064 42.8439 5.10218 43.002 5.5 43.002Z" fill="black"/>
<path d="M10 17.0015H14V38.0015H10V17.0015Z" fill="black"/>
<path d="M18 17.0015H22V38.0015H18V17.0015Z" fill="black"/>
<path d="M26 17.0015H30V38.0015H26V17.0015Z" fill="black"/>
<path d="M34 17.0015H38V38.0015H34V17.0015Z" fill="black"/>
<path d="M5.2602 15.0008H42.7402C42.9599 15.0014 43.174 14.9308 43.3501 14.7994C43.5262 14.668 43.655 14.483 43.717 14.2722C43.779 14.0614 43.7709 13.8361 43.6939 13.6303C43.617 13.4245 43.4753 13.2492 43.2902 13.1308L24.5502 0.159775C24.3852 0.0569482 24.1946 0.00244141 24.0002 0.00244141C23.8058 0.00244141 23.6152 0.0569482 23.4502 0.159775L4.7102 13.1298C4.5251 13.2482 4.38343 13.4235 4.30647 13.6293C4.22951 13.8351 4.22143 14.0604 4.28343 14.2712C4.34543 14.482 4.47418 14.667 4.65031 14.7984C4.82645 14.9298 5.04046 15.0004 5.2602 14.9998M24.0002 5.99978C24.5935 5.99978 25.1736 6.17572 25.6669 6.50537C26.1603 6.83501 26.5448 7.30355 26.7718 7.85173C26.9989 8.3999 27.0583 9.0031 26.9426 9.58505C26.8268 10.167 26.5411 10.7015 26.1215 11.1211C25.702 11.5407 25.1674 11.8264 24.5855 11.9421C24.0035 12.0579 23.4003 11.9985 22.8522 11.7714C22.304 11.5444 21.8354 11.1598 21.5058 10.6665C21.1761 10.1731 21.0002 9.59312 21.0002 8.99977C20.9997 8.60566 21.0769 8.21532 21.2275 7.8511C21.3781 7.48689 21.599 7.15596 21.8777 6.87728C22.1564 6.5986 22.4873 6.37764 22.8515 6.22706C23.2157 6.07649 23.6061 5.99925 24.0002 5.99978Z" fill="black"/>
</g>
<defs>
<clipPath id="clip0_6013_52676">
<rect width="48" height="48" fill="white" transform="translate(0 0.00292969)"/>
</clipPath>
</defs>
</svg>
