<svg width="48" height="28" viewBox="0 0 48 28" fill="none" xmlns="http://www.w3.org/2000/svg">
<g clip-path="url(#clip0_6013_52684)">
<path d="M1.64249e-07 24.0031C-3.85129e-05 22.9424 0.421169 21.9252 1.171 21.1751L21.171 1.17508C21.5425 0.80347 21.9835 0.508687 22.4689 0.307567C22.9543 0.106446 23.4746 0.00292969 24 0.00292969C24.5254 0.00292969 25.0457 0.106446 25.5311 0.307567C26.0165 0.508687 26.4575 0.80347 26.829 1.17508L46.829 21.1751C47.2004 21.5466 47.4951 21.9876 47.6961 22.473C47.8971 22.9584 48.0005 23.4786 48.0005 24.0039C48.0004 24.5293 47.8969 25.0495 47.6958 25.5348C47.4947 26.0201 47.2 26.4611 46.8285 26.8326C46.457 27.204 46.016 27.4987 45.5306 27.6996C45.0452 27.9006 44.525 28.0041 43.9996 28.004C43.4743 28.004 42.9541 27.9005 42.4688 27.6994C41.9834 27.4983 41.5424 27.2036 41.171 26.8321L24 9.66008L6.829 26.8321C6.26959 27.3917 5.55675 27.7729 4.78068 27.9273C4.0046 28.0817 3.20016 28.0025 2.46911 27.6997C1.73807 27.3968 1.11327 26.884 0.673757 26.226C0.234246 25.5679 -0.000226547 24.7944 1.64249e-07 24.0031Z" fill="black"/>
</g>
<defs>
<clipPath id="clip0_6013_52684">
<rect width="48" height="28" fill="white" transform="translate(0 0.00292969)"/>
</clipPath>
</defs>
</svg>
