<svg width="48" height="48" viewBox="0 0 48 48" fill="none" xmlns="http://www.w3.org/2000/svg">
<g clip-path="url(#clip0_6013_52686)">
<path d="M40.1212 14.8818L26.1212 0.881777C25.5587 0.319364 24.7957 0.00341797 24.0002 0.00341797C23.2048 0.00341797 22.4418 0.319364 21.8792 0.881777L7.87924 14.8818C7.59271 15.1585 7.36417 15.4896 7.20694 15.8556C7.04971 16.2216 6.96695 16.6152 6.96349 17.0136C6.96003 17.4119 7.03594 17.8069 7.18678 18.1756C7.33762 18.5443 7.56038 18.8793 7.84206 19.161C8.12374 19.4426 8.45869 19.6654 8.82738 19.8162C9.19607 19.9671 9.59111 20.043 9.98945 20.0395C10.3878 20.0361 10.7814 19.9533 11.1475 19.7961C11.5135 19.6389 11.8445 19.4103 12.1212 19.1238L21.0002 10.2448V36.0028C21.0002 36.7984 21.3163 37.5615 21.8789 38.1241C22.4415 38.6867 23.2046 39.0028 24.0002 39.0028C24.7959 39.0028 25.559 38.6867 26.1216 38.1241C26.6842 37.5615 27.0002 36.7984 27.0002 36.0028V10.2448L35.8792 19.1248C36.157 19.407 36.4879 19.6315 36.8529 19.7853C37.2179 19.939 37.6096 20.019 38.0057 20.0205C38.4017 20.0221 38.7941 19.9452 39.1603 19.7944C39.5264 19.6435 39.8591 19.4217 40.1391 19.1416C40.4191 18.8616 40.6409 18.5288 40.7916 18.1626C40.9424 17.7964 41.0192 17.404 41.0175 17.008C41.0158 16.612 40.9358 16.2202 40.782 15.8553C40.6281 15.4903 40.4036 15.1595 40.1212 14.8818Z" fill="black"/>
<path d="M45.7992 34.0029H30.0002V36.0029C30.0002 37.5942 29.368 39.1204 28.2428 40.2456C27.1176 41.3708 25.5915 42.0029 24.0002 42.0029C22.4089 42.0029 20.8827 41.3708 19.7575 40.2456C18.6323 39.1204 18.0002 37.5942 18.0002 36.0029V34.0029H2.20116C1.57693 34.0471 0.995406 34.336 0.583185 34.8069C0.170964 35.2777 -0.0385821 35.8923 0.000161602 36.5169V45.4889C-0.0385821 46.1135 0.170964 46.7281 0.583185 47.199C0.995406 47.6698 1.57693 47.9588 2.20116 48.0029H45.8002C46.4242 47.9585 47.0055 47.6695 47.4175 47.1986C47.8295 46.7278 48.0389 46.1134 48.0002 45.4889V36.5169C48.0389 35.8923 47.8294 35.2777 47.4171 34.8069C47.0049 34.336 46.4234 34.0471 45.7992 34.0029ZM36.0002 43.0029C35.6046 43.0029 35.2179 42.8856 34.889 42.6659C34.5601 42.4461 34.3038 42.1337 34.1524 41.7683C34.001 41.4028 33.9614 41.0007 34.0386 40.6127C34.1158 40.2248 34.3062 39.8684 34.5859 39.5887C34.8657 39.309 35.222 39.1185 35.61 39.0414C35.9979 38.9642 36.4001 39.0038 36.7655 39.1552C37.131 39.3065 37.4433 39.5629 37.6631 39.8918C37.8829 40.2207 38.0002 40.6074 38.0002 41.0029C38.0002 41.5334 37.7894 42.0421 37.4144 42.4171C37.0393 42.7922 36.5306 43.0029 36.0002 43.0029ZM43.0002 43.0029C42.6046 43.0029 42.2179 42.8856 41.889 42.6659C41.5601 42.4461 41.3038 42.1337 41.1524 41.7683C41.001 41.4028 40.9614 41.0007 41.0386 40.6127C41.1158 40.2248 41.3062 39.8684 41.5859 39.5887C41.8657 39.309 42.222 39.1185 42.61 39.0414C42.9979 38.9642 43.4001 39.0038 43.7655 39.1552C44.131 39.3065 44.4433 39.5629 44.6631 39.8918C44.8829 40.2207 45.0002 40.6074 45.0002 41.0029C45.0002 41.5334 44.7894 42.0421 44.4144 42.4171C44.0393 42.7922 43.5306 43.0029 43.0002 43.0029Z" fill="black"/>
</g>
<defs>
<clipPath id="clip0_6013_52686">
<rect width="48" height="48" fill="white" transform="translate(0 0.00292969)"/>
</clipPath>
</defs>
</svg>
