<svg width="48" height="48" viewBox="0 0 48 48" fill="none" xmlns="http://www.w3.org/2000/svg">
<g clip-path="url(#clip0_6013_52690)">
<path d="M46.9297 16.0029H44.9991V13.0629C44.9999 12.9235 44.973 12.7853 44.92 12.6563C44.867 12.5274 44.7889 12.4102 44.6903 12.3116C44.5917 12.213 44.4745 12.135 44.3455 12.082C44.2165 12.029 44.0782 12.0021 43.9388 12.0029H41.9982V1.50293C41.9982 1.1051 41.8401 0.723574 41.5588 0.44227C41.2774 0.160965 40.8957 0.00292969 40.4978 0.00292969C40.0998 0.00292969 39.7182 0.160965 39.4368 0.44227C39.1554 0.723574 38.9973 1.1051 38.9973 1.50293V12.0029H37.0568C36.9173 12.0021 36.7791 12.029 36.6501 12.082C36.5211 12.135 36.4039 12.213 36.3052 12.3116C36.2066 12.4102 36.1286 12.5274 36.0756 12.6563C36.0226 12.7853 35.9957 12.9235 35.9965 13.0629V16.0029H34.0659C33.782 16.0029 33.5098 16.1157 33.3091 16.3163C33.1084 16.517 32.9956 16.7891 32.9956 17.0729V36.0029L39.3474 47.0029L39.9176 48.0029H47.4998C47.5657 48.0036 47.631 47.9911 47.692 47.9662C47.753 47.9413 47.8084 47.9045 47.855 47.858C47.9015 47.8114 47.9384 47.756 47.9633 47.6951C47.9882 47.6341 48.0006 47.5688 48 47.5029V17.0729C48 16.7891 47.8872 16.517 47.6865 16.3163C47.4858 16.1157 47.2135 16.0029 46.9297 16.0029ZM35.9965 19.5029C35.9958 19.4371 36.0083 19.3718 36.0332 19.3108C36.0581 19.2498 36.0949 19.1944 36.1415 19.1479C36.188 19.1013 36.2434 19.0645 36.3044 19.0396C36.3654 19.0147 36.4307 19.0023 36.4966 19.0029H38.4972C38.5631 19.0023 38.6284 19.0147 38.6894 19.0396C38.7504 19.0645 38.8058 19.1013 38.8523 19.1479C38.8989 19.1944 38.9357 19.2498 38.9606 19.3108C38.9855 19.3718 38.998 19.4371 38.9973 19.5029V21.5029C38.998 21.5688 38.9855 21.6341 38.9606 21.6951C38.9357 21.756 38.8989 21.8114 38.8523 21.858C38.8058 21.9045 38.7504 21.9413 38.6894 21.9662C38.6284 21.9911 38.5631 22.0036 38.4972 22.0029H36.4966C36.4307 22.0036 36.3654 21.9911 36.3044 21.9662C36.2434 21.9413 36.188 21.9045 36.1415 21.858C36.0949 21.8114 36.0581 21.756 36.0332 21.6951C36.0083 21.6341 35.9958 21.5688 35.9965 21.5029V19.5029ZM35.9965 25.5029C35.9958 25.4371 36.0083 25.3718 36.0332 25.3108C36.0581 25.2498 36.0949 25.1944 36.1415 25.1479C36.188 25.1013 36.2434 25.0645 36.3044 25.0396C36.3654 25.0147 36.4307 25.0023 36.4966 25.0029H38.4972C38.5631 25.0023 38.6284 25.0147 38.6894 25.0396C38.7504 25.0645 38.8058 25.1013 38.8523 25.1479C38.8989 25.1944 38.9357 25.2498 38.9606 25.3108C38.9855 25.3718 38.998 25.4371 38.9973 25.5029V27.5029C38.998 27.5688 38.9855 27.6341 38.9606 27.6951C38.9357 27.756 38.8989 27.8114 38.8523 27.858C38.8058 27.9045 38.7504 27.9413 38.6894 27.9662C38.6284 27.9911 38.5631 28.0036 38.4972 28.0029H36.4966C36.4307 28.0036 36.3654 27.9911 36.3044 27.9662C36.2434 27.9413 36.188 27.9045 36.1415 27.858C36.0949 27.8114 36.0581 27.756 36.0332 27.6951C36.0083 27.6341 35.9958 27.5688 35.9965 27.5029V25.5029ZM38.9973 33.5029C38.998 33.5688 38.9855 33.6341 38.9606 33.6951C38.9357 33.756 38.8989 33.8114 38.8523 33.858C38.8058 33.9045 38.7504 33.9413 38.6894 33.9662C38.6284 33.9911 38.5631 34.0036 38.4972 34.0029H36.4966C36.4307 34.0036 36.3654 33.9911 36.3044 33.9662C36.2434 33.9413 36.188 33.9045 36.1415 33.858C36.0949 33.8114 36.0581 33.756 36.0332 33.6951C36.0083 33.6341 35.9958 33.5688 35.9965 33.5029V31.5029C35.9958 31.4371 36.0083 31.3718 36.0332 31.3108C36.0581 31.2498 36.0949 31.1944 36.1415 31.1479C36.188 31.1013 36.2434 31.0645 36.3044 31.0396C36.3654 31.0147 36.4307 31.0023 36.4966 31.0029H38.4972C38.5631 31.0023 38.6284 31.0147 38.6894 31.0396C38.7504 31.0645 38.8058 31.1013 38.8523 31.1479C38.8989 31.1944 38.9357 31.2498 38.9606 31.3108C38.9855 31.3718 38.998 31.4371 38.9973 31.5029V33.5029ZM44.9991 45.0029H41.9982V40.0029C41.999 39.738 42.1046 39.4841 42.2921 39.2967C42.4795 39.1093 42.7335 39.0037 42.9985 39.0029H43.9988C44.2639 39.0037 44.5178 39.1093 44.7052 39.2967C44.8927 39.4841 44.9983 39.738 44.9991 40.0029V45.0029ZM44.9991 33.5029C44.9998 33.5688 44.9873 33.6341 44.9624 33.6951C44.9375 33.756 44.9007 33.8114 44.8541 33.858C44.8075 33.9045 44.7521 33.9413 44.6911 33.9662C44.6301 33.9911 44.5648 34.0036 44.4989 34.0029H42.4984C42.4325 34.0036 42.3672 33.9911 42.3062 33.9662C42.2452 33.9413 42.1898 33.9045 42.1432 33.858C42.0966 33.8114 42.0598 33.756 42.0349 33.6951C42.01 33.6341 41.9975 33.5688 41.9982 33.5029V31.5029C41.9975 31.4371 42.01 31.3718 42.0349 31.3108C42.0598 31.2498 42.0966 31.1944 42.1432 31.1479C42.1898 31.1013 42.2452 31.0645 42.3062 31.0396C42.3672 31.0147 42.4325 31.0023 42.4984 31.0029H44.4989C44.5648 31.0023 44.6301 31.0147 44.6911 31.0396C44.7521 31.0645 44.8075 31.1013 44.8541 31.1479C44.9007 31.1944 44.9375 31.2498 44.9624 31.3108C44.9873 31.3718 44.9998 31.4371 44.9991 31.5029V33.5029ZM44.9991 27.5029C44.9998 27.5688 44.9873 27.6341 44.9624 27.6951C44.9375 27.756 44.9007 27.8114 44.8541 27.858C44.8075 27.9045 44.7521 27.9413 44.6911 27.9662C44.6301 27.9911 44.5648 28.0036 44.4989 28.0029H42.4984C42.4325 28.0036 42.3672 27.9911 42.3062 27.9662C42.2452 27.9413 42.1898 27.9045 42.1432 27.858C42.0966 27.8114 42.0598 27.756 42.0349 27.6951C42.01 27.6341 41.9975 27.5688 41.9982 27.5029V25.5029C41.9975 25.4371 42.01 25.3718 42.0349 25.3108C42.0598 25.2498 42.0966 25.1944 42.1432 25.1479C42.1898 25.1013 42.2452 25.0645 42.3062 25.0396C42.3672 25.0147 42.4325 25.0023 42.4984 25.0029H44.4989C44.5648 25.0023 44.6301 25.0147 44.6911 25.0396C44.7521 25.0645 44.8075 25.1013 44.8541 25.1479C44.9007 25.1944 44.9375 25.2498 44.9624 25.3108C44.9873 25.3718 44.9998 25.4371 44.9991 25.5029V27.5029ZM44.9991 21.5029C44.9998 21.5688 44.9873 21.6341 44.9624 21.6951C44.9375 21.756 44.9007 21.8114 44.8541 21.858C44.8075 21.9045 44.7521 21.9413 44.6911 21.9662C44.6301 21.9911 44.5648 22.0036 44.4989 22.0029H42.4984C42.4325 22.0036 42.3672 21.9911 42.3062 21.9662C42.2452 21.9413 42.1898 21.9045 42.1432 21.858C42.0966 21.8114 42.0598 21.756 42.0349 21.6951C42.01 21.6341 41.9975 21.5688 41.9982 21.5029V19.5029C41.9975 19.4371 42.01 19.3718 42.0349 19.3108C42.0598 19.2498 42.0966 19.1944 42.1432 19.1479C42.1898 19.1013 42.2452 19.0645 42.3062 19.0396C42.3672 19.0147 42.4325 19.0023 42.4984 19.0029H44.4989C44.5648 19.0023 44.6301 19.0147 44.6911 19.0396C44.7521 19.0645 44.8075 19.1013 44.8541 19.1479C44.9007 19.1944 44.9375 19.2498 44.9624 19.3108C44.9873 19.3718 44.9998 19.4371 44.9991 19.5029V21.5029ZM23.0427 22.6429C22.5853 21.841 21.9237 21.1743 21.1253 20.7106C20.3268 20.2469 19.4198 20.0026 18.4964 20.0026C17.5729 20.0026 16.6659 20.2469 15.8675 20.7106C15.069 21.1743 14.4075 21.841 13.95 22.6429L0.116002 46.7129C0.0399474 46.844 -7.36314e-05 46.9928 1.01698e-07 47.1444C7.38348e-05 47.2959 0.0402397 47.4447 0.116422 47.5757C0.192605 47.7067 0.302093 47.8152 0.433777 47.8903C0.565461 47.9653 0.714656 48.0042 0.866221 48.0029H37.6069L32.9956 39.9729L23.0427 22.6429Z" fill="black"/>
</g>
<defs>
<clipPath id="clip0_6013_52690">
<rect width="48" height="48" fill="white" transform="translate(0 0.00292969)"/>
</clipPath>
</defs>
</svg>
