<svg width="48" height="48" viewBox="0 0 48 48" fill="none" xmlns="http://www.w3.org/2000/svg">
<g clip-path="url(#clip0_6013_52693)">
<path d="M46.93 16.0029H45V13.0629C45.0008 12.9235 44.9739 12.7853 44.9209 12.6563C44.8679 12.5274 44.7899 12.4102 44.6913 12.3116C44.5927 12.213 44.4755 12.135 44.3466 12.082C44.2176 12.029 44.0794 12.0021 43.94 12.0029H42V1.50293C42 1.1051 41.842 0.723574 41.5607 0.44227C41.2794 0.160965 40.8978 0.00292969 40.5 0.00292969C40.1022 0.00292969 39.7206 0.160965 39.4393 0.44227C39.158 0.723574 39 1.1051 39 1.50293V12.0029H37.06C36.9206 12.0021 36.7824 12.029 36.6534 12.082C36.5245 12.135 36.4073 12.213 36.3087 12.3116C36.2101 12.4102 36.1321 12.5274 36.0791 12.6563C36.0261 12.7853 35.9992 12.9235 36 13.0629V16.0029H34.07C33.7862 16.0029 33.5141 16.1157 33.3134 16.3163C33.1127 16.517 33 16.7891 33 17.0729V45.0029H29V3.00293C28.9992 2.73796 28.8936 2.48406 28.7062 2.2967C28.5189 2.10933 28.265 2.00372 28 2.00293H16C15.735 2.00372 15.4811 2.10933 15.2938 2.2967C15.1064 2.48406 15.0008 2.73796 15 3.00293V45.0029H8V38.7909C9.27719 38.4289 10.3803 37.6171 11.1059 36.5054C11.8314 35.3937 12.1304 34.0571 11.9476 32.7422C11.7649 31.4273 11.1127 30.2229 10.1115 29.3513C9.11023 28.4796 7.82752 27.9994 6.5 27.9994C5.17248 27.9994 3.88977 28.4796 2.88854 29.3513C1.88731 30.2229 1.23514 31.4273 1.05237 32.7422C0.869609 34.0571 1.16858 35.3937 1.89412 36.5054C2.61966 37.6171 3.72281 38.4289 5 38.7909V45.0029H0V48.0029H48V17.0729C48 16.7891 47.8873 16.517 47.6866 16.3163C47.4859 16.1157 47.2138 16.0029 46.93 16.0029ZM42 31.5029C41.9993 31.4371 42.0118 31.3718 42.0367 31.3108C42.0616 31.2498 42.0984 31.1944 42.145 31.1479C42.1915 31.1013 42.2469 31.0645 42.3079 31.0396C42.3688 31.0147 42.4342 31.0023 42.5 31.0029H44.5C44.5658 31.0023 44.6312 31.0147 44.6921 31.0396C44.7531 31.0645 44.8085 31.1013 44.855 31.1479C44.9016 31.1944 44.9384 31.2498 44.9633 31.3108C44.9882 31.3718 45.0007 31.4371 45 31.5029V33.5029C45.0007 33.5688 44.9882 33.6341 44.9633 33.6951C44.9384 33.756 44.9016 33.8114 44.855 33.858C44.8085 33.9045 44.7531 33.9413 44.6921 33.9662C44.6312 33.9911 44.5658 34.0036 44.5 34.0029H42.5C42.4342 34.0036 42.3688 33.9911 42.3079 33.9662C42.2469 33.9413 42.1915 33.9045 42.145 33.858C42.0984 33.8114 42.0616 33.756 42.0367 33.6951C42.0118 33.6341 41.9993 33.5688 42 33.5029V31.5029ZM44.5 28.0029H42.5C42.4342 28.0036 42.3688 27.9911 42.3079 27.9662C42.2469 27.9413 42.1915 27.9045 42.145 27.858C42.0984 27.8114 42.0616 27.756 42.0367 27.6951C42.0118 27.6341 41.9993 27.5688 42 27.5029V25.5029C41.9993 25.4371 42.0118 25.3718 42.0367 25.3108C42.0616 25.2498 42.0984 25.1944 42.145 25.1479C42.1915 25.1013 42.2469 25.0645 42.3079 25.0396C42.3688 25.0147 42.4342 25.0023 42.5 25.0029H44.5C44.5658 25.0023 44.6312 25.0147 44.6921 25.0396C44.7531 25.0645 44.8085 25.1013 44.855 25.1479C44.9016 25.1944 44.9384 25.2498 44.9633 25.3108C44.9882 25.3718 45.0007 25.4371 45 25.5029V27.5029C45.0007 27.5688 44.9882 27.6341 44.9633 27.6951C44.9384 27.756 44.9016 27.8114 44.855 27.858C44.8085 27.9045 44.7531 27.9413 44.6921 27.9662C44.6312 27.9911 44.5658 28.0036 44.5 28.0029ZM44.5 22.0029H42.5C42.4342 22.0036 42.3688 21.9911 42.3079 21.9662C42.2469 21.9413 42.1915 21.9045 42.145 21.858C42.0984 21.8114 42.0616 21.756 42.0367 21.6951C42.0118 21.6341 41.9993 21.5688 42 21.5029V19.5029C41.9993 19.4371 42.0118 19.3718 42.0367 19.3108C42.0616 19.2498 42.0984 19.1944 42.145 19.1479C42.1915 19.1013 42.2469 19.0645 42.3079 19.0396C42.3688 19.0147 42.4342 19.0023 42.5 19.0029H44.5C44.5658 19.0023 44.6312 19.0147 44.6921 19.0396C44.7531 19.0645 44.8085 19.1013 44.855 19.1479C44.9016 19.1944 44.9384 19.2498 44.9633 19.3108C44.9882 19.3718 45.0007 19.4371 45 19.5029V21.5029C45.0007 21.5688 44.9882 21.6341 44.9633 21.6951C44.9384 21.756 44.9016 21.8114 44.855 21.858C44.8085 21.9045 44.7531 21.9413 44.6921 21.9662C44.6312 21.9911 44.5658 22.0036 44.5 22.0029ZM36 19.5029C35.9993 19.4371 36.0118 19.3718 36.0367 19.3108C36.0616 19.2498 36.0984 19.1944 36.145 19.1479C36.1915 19.1013 36.2469 19.0645 36.3079 19.0396C36.3688 19.0147 36.4342 19.0023 36.5 19.0029H38.5C38.5658 19.0023 38.6312 19.0147 38.6921 19.0396C38.7531 19.0645 38.8085 19.1013 38.855 19.1479C38.9016 19.1944 38.9384 19.2498 38.9633 19.3108C38.9882 19.3718 39.0007 19.4371 39 19.5029V21.5029C39.0007 21.5688 38.9882 21.6341 38.9633 21.6951C38.9384 21.756 38.9016 21.8114 38.855 21.858C38.8085 21.9045 38.7531 21.9413 38.6921 21.9662C38.6312 21.9911 38.5658 22.0036 38.5 22.0029H36.5C36.4342 22.0036 36.3688 21.9911 36.3079 21.9662C36.2469 21.9413 36.1915 21.9045 36.145 21.858C36.0984 21.8114 36.0616 21.756 36.0367 21.6951C36.0118 21.6341 35.9993 21.5688 36 21.5029V19.5029ZM36 25.5029C35.9993 25.4371 36.0118 25.3718 36.0367 25.3108C36.0616 25.2498 36.0984 25.1944 36.145 25.1479C36.1915 25.1013 36.2469 25.0645 36.3079 25.0396C36.3688 25.0147 36.4342 25.0023 36.5 25.0029H38.5C38.5658 25.0023 38.6312 25.0147 38.6921 25.0396C38.7531 25.0645 38.8085 25.1013 38.855 25.1479C38.9016 25.1944 38.9384 25.2498 38.9633 25.3108C38.9882 25.3718 39.0007 25.4371 39 25.5029V27.5029C39.0007 27.5688 38.9882 27.6341 38.9633 27.6951C38.9384 27.756 38.9016 27.8114 38.855 27.858C38.8085 27.9045 38.7531 27.9413 38.6921 27.9662C38.6312 27.9911 38.5658 28.0036 38.5 28.0029H36.5C36.4342 28.0036 36.3688 27.9911 36.3079 27.9662C36.2469 27.9413 36.1915 27.9045 36.145 27.858C36.0984 27.8114 36.0616 27.756 36.0367 27.6951C36.0118 27.6341 35.9993 27.5688 36 27.5029V25.5029ZM36 31.5029C35.9993 31.4371 36.0118 31.3718 36.0367 31.3108C36.0616 31.2498 36.0984 31.1944 36.145 31.1479C36.1915 31.1013 36.2469 31.0645 36.3079 31.0396C36.3688 31.0147 36.4342 31.0023 36.5 31.0029H38.5C38.5658 31.0023 38.6312 31.0147 38.6921 31.0396C38.7531 31.0645 38.8085 31.1013 38.855 31.1479C38.9016 31.1944 38.9384 31.2498 38.9633 31.3108C38.9882 31.3718 39.0007 31.4371 39 31.5029V33.5029C39.0007 33.5688 38.9882 33.6341 38.9633 33.6951C38.9384 33.756 38.9016 33.8114 38.855 33.858C38.8085 33.9045 38.7531 33.9413 38.6921 33.9662C38.6312 33.9911 38.5658 34.0036 38.5 34.0029H36.5C36.4342 34.0036 36.3688 33.9911 36.3079 33.9662C36.2469 33.9413 36.1915 33.9045 36.145 33.858C36.0984 33.8114 36.0616 33.756 36.0367 33.6951C36.0118 33.6341 35.9993 33.5688 36 33.5029V31.5029ZM19 8.00293C19.0008 7.73796 19.1064 7.48406 19.2938 7.2967C19.4811 7.10933 19.735 7.00372 20 7.00293H24C24.265 7.00372 24.5189 7.10933 24.7062 7.2967C24.8936 7.48406 24.9992 7.73796 25 8.00293V9.00293C24.9992 9.2679 24.8936 9.5218 24.7062 9.70916C24.5189 9.89653 24.265 10.0021 24 10.0029H20C19.735 10.0021 19.4811 9.89653 19.2938 9.70916C19.1064 9.5218 19.0008 9.2679 19 9.00293V8.00293ZM19 16.0029C19.0008 15.738 19.1064 15.4841 19.2938 15.2967C19.4811 15.1093 19.735 15.0037 20 15.0029H24C24.265 15.0037 24.5189 15.1093 24.7062 15.2967C24.8936 15.4841 24.9992 15.738 25 16.0029V17.0029C24.9992 17.2679 24.8936 17.5218 24.7062 17.7092C24.5189 17.8965 24.265 18.0021 24 18.0029H20C19.735 18.0021 19.4811 17.8965 19.2938 17.7092C19.1064 17.5218 19.0008 17.2679 19 17.0029V16.0029ZM19 24.0029C19.0008 23.738 19.1064 23.4841 19.2938 23.2967C19.4811 23.1093 19.735 23.0037 20 23.0029H24C24.265 23.0037 24.5189 23.1093 24.7062 23.2967C24.8936 23.4841 24.9992 23.738 25 24.0029V25.0029C24.9992 25.2679 24.8936 25.5218 24.7062 25.7092C24.5189 25.8965 24.265 26.0021 24 26.0029H20C19.735 26.0021 19.4811 25.8965 19.2938 25.7092C19.1064 25.5218 19.0008 25.2679 19 25.0029V24.0029ZM19 45.0029V40.0029C19.0008 39.738 19.1064 39.4841 19.2938 39.2967C19.4811 39.1093 19.735 39.0037 20 39.0029H24C24.265 39.0037 24.5189 39.1093 24.7062 39.2967C24.8936 39.4841 24.9992 39.738 25 40.0029V45.0029H19ZM42 45.0029V40.0029C42.0008 39.738 42.1064 39.4841 42.2938 39.2967C42.4811 39.1093 42.735 39.0037 43 39.0029H44C44.265 39.0037 44.5189 39.1093 44.7062 39.2967C44.8936 39.4841 44.9992 39.738 45 40.0029V45.0029H42Z" fill="black"/>
</g>
<defs>
<clipPath id="clip0_6013_52693">
<rect width="48" height="48" fill="white" transform="translate(0 0.00292969)"/>
</clipPath>
</defs>
</svg>
