<svg width="48" height="36" viewBox="0 0 48 36" fill="none" xmlns="http://www.w3.org/2000/svg">
<g clip-path="url(#clip0_6013_52699)">
<path d="M36 16.0029C39.3137 16.0029 42 13.3166 42 10.0029C42 6.68922 39.3137 4.00293 36 4.00293C32.6863 4.00293 30 6.68922 30 10.0029C30 13.3166 32.6863 16.0029 36 16.0029Z" fill="black"/>
<path d="M37.0002 19.0029H36.0002C34.4792 19.0009 32.9744 19.3155 31.5816 19.9267C30.1888 20.5379 28.9385 21.4323 27.9102 22.5529C29.9207 25.2933 31.0033 28.6042 31.0002 32.0029V33.0029H48.0002V30.0029C48.0009 28.5582 47.717 27.1274 47.1644 25.7925C46.6119 24.4576 45.8017 23.2446 44.7801 22.223C43.7585 21.2014 42.5455 20.3912 41.2106 19.8387C39.8757 19.2861 38.4449 19.0022 37.0002 19.0029Z" fill="black"/>
<path d="M14 16.0029C18.4183 16.0029 22 12.4212 22 8.00293C22 3.58465 18.4183 0.00292969 14 0.00292969C9.58172 0.00292969 6 3.58465 6 8.00293C6 12.4212 9.58172 16.0029 14 16.0029Z" fill="black"/>
<path d="M15 19.0029H13C9.55219 19.0029 6.24558 20.3726 3.80761 22.8105C1.36964 25.2485 0 28.5551 0 32.0029L0 36.0029H28V32.0029C27.9989 28.5554 26.629 25.2495 24.1912 22.8117C21.7535 20.374 18.4475 19.004 15 19.0029Z" fill="black"/>
</g>
<defs>
<clipPath id="clip0_6013_52699">
<rect width="48" height="36" fill="white" transform="translate(0 0.00292969)"/>
</clipPath>
</defs>
</svg>
