<svg width="48" height="44" viewBox="0 0 48 44" fill="none" xmlns="http://www.w3.org/2000/svg">
<g clip-path="url(#clip0_6013_52695)">
<path d="M26.8235 23.0029H21.1765C15.5601 23.0029 10.1738 24.5833 6.20244 27.3963C2.23109 30.2094 0 34.0247 0 38.0029L0 44.0029H48V38.0029C48 34.0247 45.7689 30.2094 41.7976 27.3963C37.8262 24.5833 32.4399 23.0029 26.8235 23.0029Z" fill="black"/>
<path d="M24 20.0029C31.7969 20.0029 38.1176 15.5258 38.1176 10.0029C38.1176 4.48008 31.7969 0.00292969 24 0.00292969C16.203 0.00292969 9.88232 4.48008 9.88232 10.0029C9.88232 15.5258 16.203 20.0029 24 20.0029Z" fill="black"/>
</g>
<defs>
<clipPath id="clip0_6013_52695">
<rect width="48" height="44" fill="white" transform="translate(0 0.00292969)"/>
</clipPath>
</defs>
</svg>
