<svg width="48" height="48" viewBox="0 0 48 48" fill="none" xmlns="http://www.w3.org/2000/svg">
<g clip-path="url(#clip0_6013_52705)">
<path d="M47 10.0029H27C26.4477 10.0029 26 10.4506 26 11.0029V16.0029C26 16.5552 26.4477 17.0029 27 17.0029H47C47.5523 17.0029 48 16.5552 48 16.0029V11.0029C48 10.4506 47.5523 10.0029 47 10.0029Z" fill="black"/>
<path d="M28 47.0029C28.0008 47.2679 28.1064 47.5218 28.2938 47.7092C28.4811 47.8965 28.735 48.0021 29 48.0029H45C45.265 48.0021 45.5189 47.8965 45.7062 47.7092C45.8936 47.5218 45.9992 47.2679 46 47.0029V19.0029H28V47.0029ZM31 25.0029C31.0008 24.738 31.1064 24.4841 31.2938 24.2967C31.4811 24.1093 31.735 24.0037 32 24.0029H42C42.265 24.0037 42.5189 24.1093 42.7062 24.2967C42.8936 24.4841 42.9992 24.738 43 25.0029V32.0029C42.9992 32.2679 42.8936 32.5218 42.7062 32.7092C42.5189 32.8965 42.265 33.0021 42 33.0029H32C31.735 33.0021 31.4811 32.8965 31.2938 32.7092C31.1064 32.5218 31.0008 32.2679 31 32.0029V25.0029ZM32 36.0029H42C42.2652 36.0029 42.5196 36.1083 42.7071 36.2958C42.8946 36.4834 43 36.7377 43 37.0029C43 37.2681 42.8946 37.5225 42.7071 37.71C42.5196 37.8976 42.2652 38.0029 42 38.0029H32C31.7348 38.0029 31.4804 37.8976 31.2929 37.71C31.1054 37.5225 31 37.2681 31 37.0029C31 36.7377 31.1054 36.4834 31.2929 36.2958C31.4804 36.1083 31.7348 36.0029 32 36.0029ZM19.5 8.00293H14V3.00293H16.5C16.8978 3.00293 17.2794 2.84489 17.5607 2.56359C17.842 2.28229 18 1.90075 18 1.50293C18 1.1051 17.842 0.723574 17.5607 0.44227C17.2794 0.160965 16.8978 0.00292969 16.5 0.00292969L4.5 0.00292969C4.10218 0.00292969 3.72064 0.160965 3.43934 0.44227C3.15804 0.723574 3 1.1051 3 1.50293C3 1.90075 3.15804 2.28229 3.43934 2.56359C3.72064 2.84489 4.10218 3.00293 4.5 3.00293H7V8.00293H1.5C1.10218 8.00293 0.720644 8.16096 0.43934 8.44227C0.158035 8.72357 0 9.10511 0 9.50293C0 9.90075 0.158035 10.2823 0.43934 10.5636C0.720644 10.8449 1.10218 11.0029 1.5 11.0029H5V34.0029C5.00158 34.5329 5.2128 35.0407 5.58753 35.4154C5.96227 35.7901 6.47005 36.0013 7 36.0029V38.0029C7 38.2681 7.10536 38.5225 7.29289 38.71C7.48043 38.8976 7.73478 39.0029 8 39.0029H9V46.5029C9 46.9008 9.15804 47.2823 9.43934 47.5636C9.72064 47.8449 10.1022 48.0029 10.5 48.0029C10.8978 48.0029 11.2794 47.8449 11.5607 47.5636C11.842 47.2823 12 46.9008 12 46.5029V39.0029H13C13.2652 39.0029 13.5196 38.8976 13.7071 38.71C13.8946 38.5225 14 38.2681 14 38.0029V36.0029C14.5299 36.0013 15.0377 35.7901 15.4125 35.4154C15.7872 35.0407 15.9984 34.5329 16 34.0029V11.0029H19.5C19.8978 11.0029 20.2794 10.8449 20.5607 10.5636C20.842 10.2823 21 9.90075 21 9.50293C21 9.10511 20.842 8.72357 20.5607 8.44227C20.2794 8.16096 19.8978 8.00293 19.5 8.00293ZM13 26.0029H8V13.0029H13V26.0029Z" fill="black"/>
</g>
<defs>
<clipPath id="clip0_6013_52705">
<rect width="48" height="48" fill="white" transform="translate(0 0.00292969)"/>
</clipPath>
</defs>
</svg>
