<svg width="48" height="43" viewBox="0 0 48 43" fill="none" xmlns="http://www.w3.org/2000/svg">
<g clip-path="url(#clip0_6013_52711)">
<path d="M46 12.9156H39.456L32.577 3.98267C31.6235 2.74436 30.3997 1.74177 28.9995 1.05194C27.5993 0.362114 26.06 0.00341797 24.5 0.00341797C22.94 0.00341797 21.4007 0.362114 20.0005 1.05194C18.6003 1.74177 17.3765 2.74436 16.423 3.98267L9.544 12.9156H2C1.46957 12.9156 0.960859 13.127 0.585786 13.5031C0.210714 13.8793 0 14.3895 0 14.9215C0 15.4535 0.210714 15.9636 0.585786 16.3398C0.960859 16.716 1.46957 16.9273 2 16.9273H8.195C8.72884 20.4066 10.3554 23.6244 12.8382 26.1128C15.321 28.6012 18.5305 30.2304 22 30.7635V43.0031H28V30.582C31.2606 29.8715 34.2298 28.1864 36.5159 25.7488C38.802 23.3112 40.2974 20.2358 40.805 16.9283H46C46.5304 16.9283 47.0391 16.717 47.4142 16.3408C47.7893 15.9646 48 15.4545 48 14.9225C48 14.3905 47.7893 13.8803 47.4142 13.5041C47.0391 13.128 46.5304 12.9166 46 12.9166M28 27.148V21.9429C27.9968 21.1449 27.6777 20.3809 27.1128 19.8189C26.548 19.2569 25.7836 18.943 24.988 18.9462C24.1924 18.9494 23.4306 19.2694 22.8702 19.8359C22.3098 20.4024 21.9968 21.169 22 21.967V27.149C20.8561 26.4867 19.9622 25.4643 19.4567 24.2405C18.9513 23.0167 18.8626 21.6598 19.2044 20.3803C19.5463 19.1008 20.2996 17.9701 21.3474 17.1637C22.3953 16.3573 23.6792 15.9202 25 15.9202C26.3208 15.9202 27.6047 16.3573 28.6526 17.1637C29.7004 17.9701 30.4537 19.1008 30.7956 20.3803C31.1374 21.6598 31.0487 23.0167 30.5433 24.2405C30.0378 25.4643 29.1439 26.4857 28 27.148Z" fill="black"/>
</g>
<defs>
<clipPath id="clip0_6013_52711">
<rect width="48" height="43" fill="white" transform="translate(0 0.00292969)"/>
</clipPath>
</defs>
</svg>
