<svg width="48" height="42" viewBox="0 0 48 42" fill="none" xmlns="http://www.w3.org/2000/svg">
<g clip-path="url(#clip0_6013_52714)">
<path d="M24 0.0029299C19.2533 0.0029299 14.6131 1.23456 10.6663 3.54207C6.71954 5.84958 3.6434 9.12933 1.8269 12.9666C0.0103987 16.8038 -0.464881 21.0262 0.461164 25.0998C1.38721 29.1734 3.67299 32.9153 7.02945 35.8522C10.3859 38.7891 14.6623 40.7891 19.3178 41.5994C23.9734 42.4097 28.799 41.9938 33.1844 40.4044C37.5698 38.815 41.3181 36.1233 43.9553 32.6699C46.5924 29.2165 48 25.1563 48 21.0029C48.0005 18.2451 47.38 15.5141 46.174 12.9661C44.9681 10.4181 43.2003 8.10292 40.9716 6.15281C38.7429 4.2027 36.097 2.65587 33.1849 1.60066C30.2729 0.545448 27.1519 0.00253584 24 0.0029299ZM34.8229 21.9229L27.7143 25.7629L20.1029 29.8629C19.9183 29.9545 19.7095 30.0022 19.4973 30.0013C19.2852 30.0005 19.0769 29.9511 18.8933 29.8581C18.7096 29.7652 18.5569 29.6318 18.4504 29.4713C18.3438 29.3107 18.287 29.1286 18.2857 28.9429V13.0629C18.287 12.8773 18.3438 12.6951 18.4504 12.5346C18.5569 12.3741 18.7096 12.2407 18.8933 12.1477C19.0769 12.0547 19.2852 12.0054 19.4973 12.0045C19.7095 12.0037 19.9183 12.0514 20.1029 12.1429L27.7143 16.2429L34.8229 20.0829C35.0078 20.1759 35.1615 20.3099 35.2683 20.4714C35.3752 20.633 35.4314 20.8163 35.4314 21.0029C35.4314 21.1896 35.3752 21.3729 35.2683 21.5344C35.1615 21.696 35.0078 21.83 34.8229 21.9229Z" fill="black"/>
</g>
<defs>
<clipPath id="clip0_6013_52714">
<rect width="48" height="42" fill="white" transform="translate(0 0.00292969)"/>
</clipPath>
</defs>
</svg>
