<svg width="48" height="48" viewBox="0 0 48 48" fill="none" xmlns="http://www.w3.org/2000/svg">
<g clip-path="url(#clip0_6013_52716)">
<path d="M37.5 4.00293C34.8007 4.0033 32.205 5.04179 30.2504 6.90334C28.2958 8.7649 27.132 11.3069 27 14.0029H27.009C27.009 14.0179 27 14.0309 27 14.0459V15.0029C27 15.5334 27.2107 16.0421 27.5858 16.4171C27.9609 16.7922 28.4696 17.0029 29 17.0029C29.5304 17.0029 30.0391 16.7922 30.4142 16.4171C30.7893 16.0421 31 15.5334 31 15.0029V14.0029C31.0953 12.7402 31.5568 11.5327 32.328 10.5283C33.0992 9.5239 34.1466 8.76622 35.3419 8.34808C36.5372 7.92994 37.8285 7.86948 39.0576 8.17412C40.2868 8.47875 41.4003 9.13525 42.262 10.0632C43.1237 10.9911 43.696 12.1503 43.9089 13.3986C44.1218 14.6469 43.966 15.9301 43.4605 17.0912C42.9551 18.2523 42.122 19.2408 41.0634 19.9356C40.0047 20.6303 38.7663 21.0013 37.5 21.0029H1.974C1.71473 21.0028 1.45798 21.0538 1.21843 21.1529C0.978872 21.2521 0.761207 21.3975 0.577878 21.5808C0.394549 21.7641 0.249151 21.9818 0.149994 22.2214C0.0508381 22.4609 -0.000131187 22.7177 2.53573e-07 22.9769V23.0299C2.20283e-07 23.2891 0.0510665 23.5458 0.150282 23.7852C0.249497 24.0246 0.394916 24.2422 0.578232 24.4254C0.761548 24.6086 0.979168 24.7539 1.21866 24.853C1.45815 24.9521 1.71482 25.0031 1.974 25.0029H37.5C40.2848 25.0029 42.9555 23.8967 44.9246 21.9276C46.8938 19.9584 48 17.2877 48 14.5029C48 11.7182 46.8938 9.04744 44.9246 7.07831C42.9555 5.10918 40.2848 4.00293 37.5 4.00293Z" fill="black"/>
<path d="M1.94 18.0029H16C17.78 18.0029 19.5201 17.4751 21.0001 16.4862C22.4802 15.4972 23.6337 14.0916 24.3149 12.4471C24.9961 10.8025 25.1743 8.99295 24.8271 7.24712C24.4798 5.50129 23.6226 3.89765 22.364 2.63897C21.1053 1.3803 19.5016 0.523133 17.7558 0.175866C16.01 -0.171401 14.2004 0.00682926 12.5558 0.688018C10.9113 1.36921 9.50571 2.52276 8.51677 4.0028C7.52784 5.48284 7 7.2229 7 9.00293H7.009C7.009 9.01793 7 9.03093 7 9.04593V10.0029C7 10.5334 7.21071 11.0421 7.58579 11.4171C7.96086 11.7922 8.46957 12.0029 9 12.0029C9.53043 12.0029 10.0391 11.7922 10.4142 11.4171C10.7893 11.0421 11 10.5334 11 10.0029V9.00293C11 8.01403 11.2932 7.04733 11.8427 6.22508C12.3921 5.40284 13.173 4.76197 14.0866 4.38354C15.0002 4.0051 16.0055 3.90608 16.9755 4.09901C17.9454 4.29193 18.8363 4.76814 19.5355 5.4674C20.2348 6.16666 20.711 7.05758 20.9039 8.02748C21.0969 8.99739 20.9978 10.0027 20.6194 10.9164C20.241 11.83 19.6001 12.6109 18.7779 13.1603C17.9556 13.7097 16.9889 14.0029 16 14.0029H1.94C1.42548 14.0029 0.932033 14.2073 0.568213 14.5711C0.204392 14.935 0 15.4284 0 15.9429L0 16.0629C0 16.5775 0.204392 17.0709 0.568213 17.4347C0.932033 17.7985 1.42548 18.0029 1.94 18.0029ZM28 28.0029H2C1.46957 28.0029 0.960859 28.2136 0.585786 28.5887C0.210714 28.9638 0 29.4725 0 30.0029C0 30.5334 0.210714 31.0421 0.585786 31.4171C0.960859 31.7922 1.46957 32.0029 2 32.0029H28C29.1867 32.0029 30.3467 32.3548 31.3334 33.0141C32.3201 33.6734 33.0892 34.6105 33.5433 35.7068C33.9974 36.8032 34.1162 38.0096 33.8847 39.1735C33.6532 40.3374 33.0818 41.4065 32.2426 42.2456C31.4035 43.0847 30.3344 43.6561 29.1705 43.8876C28.0067 44.1192 26.8003 44.0003 25.7039 43.5462C24.6075 43.0921 23.6705 42.323 23.0112 41.3364C22.3519 40.3497 22 39.1896 22 38.0029V37.0029C22 36.4725 21.7893 35.9638 21.4142 35.5887C21.0391 35.2136 20.5304 35.0029 20 35.0029C19.4696 35.0029 18.9609 35.2136 18.5858 35.5887C18.2107 35.9638 18 36.4725 18 37.0029V37.9599C18 37.9749 18.008 37.9879 18.009 38.0029H18C18 39.9807 18.5865 41.9141 19.6853 43.5586C20.7841 45.2031 22.3459 46.4849 24.1732 47.2417C26.0004 47.9986 28.0111 48.1966 29.9509 47.8108C31.8907 47.4249 33.6725 46.4725 35.0711 45.074C36.4696 43.6755 37.422 41.8937 37.8079 39.9538C38.1937 38.014 37.9957 36.0034 37.2388 34.1761C36.4819 32.3488 35.2002 30.7871 33.5557 29.6882C31.9112 28.5894 29.9778 28.0029 28 28.0029Z" fill="black"/>
</g>
<defs>
<clipPath id="clip0_6013_52716">
<rect width="48" height="48" fill="white" transform="translate(0 0.00292969)"/>
</clipPath>
</defs>
</svg>
