<svg width="48" height="48" viewBox="0 0 48 48" fill="none" xmlns="http://www.w3.org/2000/svg">
<g clip-path="url(#clip0_6013_52720)">
<path d="M46 22.0029H41.88C41.5083 18.6261 40.1834 15.4248 38.06 12.7729L41.41 9.41293C41.5952 9.22777 41.742 9.00794 41.8423 8.76602C41.9425 8.52409 41.994 8.26479 41.994 8.00293C41.994 7.74107 41.9425 7.48177 41.8423 7.23984C41.742 6.99792 41.5952 6.77809 41.41 6.59293C41.2248 6.40777 41.005 6.26089 40.7631 6.16068C40.5212 6.06047 40.2619 6.00889 40 6.00889C39.7381 6.00889 39.4788 6.06047 39.2369 6.16068C38.995 6.26089 38.7752 6.40777 38.59 6.59293L35.23 9.94293C32.5782 7.81952 29.3768 6.49459 26 6.12293V2.00293C26 1.4725 25.7893 0.963789 25.4142 0.588716C25.0391 0.213643 24.5304 0.00292969 24 0.00292969C23.4696 0.00292969 22.9609 0.213643 22.5858 0.588716C22.2107 0.963789 22 1.4725 22 2.00293V6.12293C18.6232 6.49459 15.4218 7.81952 12.77 9.94293L9.41 6.59293C9.22484 6.40777 9.00501 6.26089 8.76309 6.16068C8.52116 6.06047 8.26186 6.00889 8 6.00889C7.73814 6.00889 7.47884 6.06047 7.23691 6.16068C6.99499 6.26089 6.77516 6.40777 6.59 6.59293C6.21604 6.96689 6.00596 7.47408 6.00596 8.00293C6.00596 8.53178 6.21604 9.03897 6.59 9.41293L9.94 12.7729C7.81659 15.4248 6.49166 18.6261 6.12 22.0029H2C1.46957 22.0029 0.960859 22.2136 0.585786 22.5887C0.210714 22.9638 0 23.4725 0 24.0029C0 24.5334 0.210714 25.0421 0.585786 25.4171C0.960859 25.7922 1.46957 26.0029 2 26.0029H6.12C6.49166 29.3798 7.81659 32.5811 9.94 35.2329L6.59 38.5929C6.40484 38.7781 6.25796 38.9979 6.15775 39.2398C6.05754 39.4818 6.00596 39.7411 6.00596 40.0029C6.00596 40.2648 6.05754 40.5241 6.15775 40.766C6.25796 41.0079 6.40484 41.2278 6.59 41.4129C6.96396 41.7869 7.47115 41.997 8 41.997C8.26186 41.997 8.52116 41.9454 8.76309 41.8452C9.00501 41.745 9.22484 41.5981 9.41 41.4129L12.77 38.0629C15.4218 40.1863 18.6232 41.5113 22 41.8829V46.0029C22 46.5334 22.2107 47.0421 22.5858 47.4171C22.9609 47.7922 23.4696 48.0029 24 48.0029C24.5304 48.0029 25.0391 47.7922 25.4142 47.4171C25.7893 47.0421 26 46.5334 26 46.0029V41.8829C29.3768 41.5113 32.5782 40.1863 35.23 38.0629L38.59 41.4129C38.7752 41.5981 38.995 41.745 39.2369 41.8452C39.4788 41.9454 39.7381 41.997 40 41.997C40.2619 41.997 40.5212 41.9454 40.7631 41.8452C41.005 41.745 41.2248 41.5981 41.41 41.4129C41.5952 41.2278 41.742 41.0079 41.8423 40.766C41.9425 40.5241 41.994 40.2648 41.994 40.0029C41.994 39.7411 41.9425 39.4818 41.8423 39.2398C41.742 38.9979 41.5952 38.7781 41.41 38.5929L38.06 35.2329C40.1834 32.5811 41.5083 29.3798 41.88 26.0029H46C46.5304 26.0029 47.0391 25.7922 47.4142 25.4171C47.7893 25.0421 48 24.5334 48 24.0029C48 23.4725 47.7893 22.9638 47.4142 22.5887C47.0391 22.2136 46.5304 22.0029 46 22.0029ZM15.5 22.0029C15.0055 22.0029 14.5222 21.8563 14.1111 21.5816C13.7 21.3069 13.3795 20.9165 13.1903 20.4596C13.0011 20.0028 12.9516 19.5002 13.048 19.0152C13.1445 18.5303 13.3826 18.0848 13.7322 17.7352C14.0819 17.3855 14.5273 17.1474 15.0123 17.051C15.4972 16.9545 15.9999 17.004 16.4567 17.1932C16.9135 17.3825 17.304 17.7029 17.5787 18.114C17.8534 18.5251 18 19.0085 18 19.5029C18 20.166 17.7366 20.8019 17.2678 21.2707C16.7989 21.7395 16.163 22.0029 15.5 22.0029ZM28 34.0029C27.0111 34.0029 26.0444 33.7097 25.2221 33.1603C24.3999 32.6109 23.759 31.83 23.3806 30.9163C23.0022 30.0027 22.9031 28.9974 23.0961 28.0275C23.289 27.0576 23.7652 26.1667 24.4645 25.4674C25.1637 24.7681 26.0546 24.2919 27.0245 24.099C27.9945 23.9061 28.9998 24.0051 29.9134 24.3835C30.827 24.762 31.6079 25.4028 32.1573 26.2251C32.7068 27.0473 33 28.014 33 29.0029C33 30.329 32.4732 31.6008 31.5355 32.5385C30.5979 33.4761 29.3261 34.0029 28 34.0029Z" fill="black"/>
</g>
<defs>
<clipPath id="clip0_6013_52720">
<rect width="48" height="48" fill="white" transform="translate(0 0.00292969)"/>
</clipPath>
</defs>
</svg>
