<svg width="48" height="48" viewBox="0 0 48 48" fill="none" xmlns="http://www.w3.org/2000/svg">
<g clip-path="url(#clip0_6013_52722)">
<path d="M47.8543 47.1599L29.2863 29.5909C28.9688 29.2651 28.5468 29.0613 28.0942 29.0151C27.6416 28.9688 27.1872 29.0831 26.8103 29.3379C25.9884 29.9186 25.0067 30.2304 24.0003 30.2304C22.9939 30.2304 22.0123 29.9186 21.1903 29.3379C20.8134 29.0831 20.359 28.9688 19.9064 29.0151C19.4538 29.0613 19.0319 29.2651 18.7143 29.5909L0.146316 47.1609C0.0776951 47.2301 0.0310453 47.318 0.0122315 47.4135C-0.00658229 47.5091 0.00327983 47.6081 0.0405779 47.6981C0.077876 47.7881 0.140945 47.865 0.221856 47.9193C0.302767 47.9735 0.397907 48.0026 0.495316 48.0029H47.5053C47.603 48.003 47.6985 47.9741 47.7798 47.9199C47.8611 47.8657 47.9245 47.7886 47.9619 47.6984C47.9994 47.6081 48.0093 47.5088 47.9903 47.413C47.9713 47.3171 47.9233 47.2291 47.8543 47.1599ZM25.0003 24.5029C25.0003 24.9008 25.1584 25.2823 25.4397 25.5636C25.721 25.8449 26.1025 26.0029 26.5003 26.0029C26.8981 26.0029 27.2797 25.8449 27.561 25.5636C27.8423 25.2823 28.0003 24.9008 28.0003 24.5029L27.9983 16.4529C27.958 15.6468 28.077 14.8407 28.3482 14.0805C28.6195 13.3203 29.0379 12.621 29.5795 12.0226C30.121 11.4241 30.7752 10.9381 31.5045 10.5925C32.2339 10.2468 33.0242 10.0482 33.8303 10.0079C35.0532 9.94673 36.2503 10.3738 37.1584 11.1952C38.0664 12.0166 38.611 13.165 38.6723 14.3879C38.6947 14.8331 38.6291 15.2784 38.4794 15.6982C38.3297 16.1181 38.0987 16.5043 37.7997 16.8349C37.5007 17.1655 37.1395 17.4339 36.7367 17.6249C36.334 17.8159 35.8975 17.9256 35.4523 17.9479C35.135 17.9659 34.8173 17.9206 34.5177 17.8147C34.2181 17.7089 33.9424 17.5446 33.7068 17.3314C33.4711 17.1181 33.2802 16.8602 33.145 16.5726C33.0098 16.285 32.9331 15.9734 32.9193 15.6559C32.8945 15.2622 32.7157 14.8941 32.4214 14.6314C32.1272 14.3686 31.7413 14.2323 31.3473 14.2521C30.9533 14.2718 30.5829 14.4459 30.3164 14.7368C30.0499 15.0276 29.9087 15.4117 29.9233 15.8059C29.9976 17.239 30.6367 18.5842 31.7008 19.547C32.7648 20.5099 34.167 21.0118 35.6003 20.9429C36.439 20.9012 37.2612 20.6946 38.02 20.335C38.7788 19.9754 39.4594 19.4699 40.0228 18.8472C40.5862 18.2246 41.0214 17.497 41.3036 16.7062C41.5857 15.9153 41.7093 15.0766 41.6673 14.2379C41.6174 13.2391 41.3711 12.2598 40.9427 11.3562C40.5142 10.4525 39.912 9.64203 39.1703 8.97111C38.4286 8.3002 37.5621 7.78195 36.6201 7.44596C35.6781 7.10998 34.6792 6.96284 33.6803 7.01294C31.2709 7.13299 29.0065 8.20044 27.3806 9.98271C25.7547 11.765 24.8992 14.1176 25.0003 16.5279V24.5029ZM14.1603 11.8799C14.554 11.8934 14.9371 11.7515 15.227 11.4848C15.5169 11.2182 15.6903 10.8482 15.7097 10.4548C15.7291 10.0614 15.5931 9.67617 15.3309 9.38226C15.0687 9.08834 14.7014 8.90935 14.3083 8.88394C13.6567 8.847 13.0461 8.55365 12.6101 8.06797C12.1741 7.58229 11.948 6.94378 11.9813 6.29194C12.0241 5.37839 12.4278 4.5192 13.1038 3.90321C13.7798 3.28723 14.6727 2.96485 15.5863 3.00694C16.2062 3.04375 16.8128 3.20261 17.3712 3.4744C17.9296 3.7462 18.4288 4.12559 18.8402 4.59079C19.2516 5.05599 19.5671 5.59786 19.7686 6.18529C19.9701 6.77272 20.0536 7.39416 20.0143 8.01394V24.5029C20.0143 24.8978 20.1712 25.2766 20.4504 25.5558C20.7297 25.8351 21.1084 25.9919 21.5033 25.9919C21.8982 25.9919 22.277 25.8351 22.5562 25.5558C22.8354 25.2766 22.9923 24.8978 22.9923 24.5029L22.9903 8.08894C23.0961 6.05649 22.3919 4.06499 21.032 2.55082C19.6721 1.03665 17.7674 0.123314 15.7353 0.0109402C14.8908 -0.0285796 14.0468 0.0987186 13.2516 0.385558C12.4563 0.672398 11.7254 1.11316 11.1005 1.68264C10.4757 2.25212 9.96922 2.93916 9.61005 3.70448C9.25089 4.46981 9.04607 5.29842 9.00732 6.14294C8.93179 7.5864 9.43172 9.00091 10.3975 10.0763C11.3633 11.1518 12.7171 11.8004 14.1603 11.8799Z" fill="black"/>
</g>
<defs>
<clipPath id="clip0_6013_52722">
<rect width="48" height="48" fill="white" transform="translate(0 0.00292969)"/>
</clipPath>
</defs>
</svg>
