<svg width="48" height="48" viewBox="0 0 48 48" fill="none" xmlns="http://www.w3.org/2000/svg">
<g clip-path="url(#clip0_6013_52725)">
<path d="M43.205 14.0609V2.00293C43.205 1.4725 42.6998 0.963789 41.8005 0.588716C40.9012 0.213643 39.6815 0.00292969 38.4098 0.00292969C37.138 0.00292969 35.9183 0.213643 35.019 0.588716C34.1198 0.963789 33.6146 1.4725 33.6146 2.00293V14.0029H14.4337V12.0029C14.4337 11.7377 14.1811 11.4834 13.7315 11.2958C13.2819 11.1083 12.672 11.0029 12.0361 11.0029H7.24093C6.60504 11.0029 5.9952 11.1083 5.54557 11.2958C5.09593 11.4834 4.84333 11.7377 4.84333 12.0029V14.0579C3.40511 14.227 2.14523 14.5931 1.26666 15.0972C0.388086 15.6014 -0.0580334 16.2142 0.00016877 16.8369V28.1699C-0.0133041 28.6135 0.212403 29.0526 0.660606 29.4549C1.10881 29.8571 1.76804 30.2122 2.58958 30.4939V44.9019C2.59527 45.7235 3.38009 46.5107 4.77267 47.0917C6.16525 47.6727 8.05244 48.0003 10.0221 48.0029H38.17C40.1393 48.0003 42.0261 47.6728 43.4186 47.092C44.8111 46.5113 45.5962 45.7243 45.6026 44.9029V30.4179C46.366 30.1366 46.9752 29.7901 47.3889 29.4018C47.8026 29.0136 48.0111 28.5928 48.0002 28.1679V16.8369C48.0574 16.2175 47.6166 15.6078 46.7477 15.1048C45.8789 14.6018 44.6319 14.2344 43.205 14.0609ZM36.0122 41.2529C36.009 41.3528 35.9587 41.4515 35.8641 41.5433C35.7695 41.635 35.6324 41.7181 35.4607 41.7878C35.289 41.8574 35.0861 41.9123 34.8635 41.9492C34.6409 41.9861 34.4031 42.0044 34.1636 42.0029H13.8319C13.5924 42.0044 13.3546 41.9861 13.132 41.9492C12.9095 41.9123 12.7065 41.8574 12.5348 41.7878C12.3632 41.7181 12.2261 41.635 12.1315 41.5433C12.0368 41.4515 11.9865 41.3528 11.9834 41.2529V36.7529C11.9865 36.6531 12.0367 36.5546 12.1312 36.4628C12.2257 36.3711 12.3626 36.2881 12.534 36.2184C12.7054 36.1488 12.9081 36.0939 13.1304 36.0569C13.3527 36.02 13.5902 36.0016 13.8295 36.0029H34.1636C34.4031 36.0015 34.6409 36.0197 34.8635 36.0566C35.0861 36.0936 35.289 36.1484 35.4607 36.2181C35.6324 36.2877 35.7695 36.3708 35.8641 36.4626C35.9587 36.5544 36.009 36.653 36.0122 36.7529V41.2529ZM36.0122 29.0029H11.9882C11.3523 29.0029 10.7425 28.8976 10.2928 28.71C9.84318 28.5225 9.59058 28.2681 9.59058 28.0029C9.59058 27.7377 9.84318 27.4834 10.2928 27.2958C10.7425 27.1083 11.3523 27.0029 11.9882 27.0029H36.0122C36.648 27.0029 37.2579 27.1083 37.7075 27.2958C38.1572 27.4834 38.4098 27.7377 38.4098 28.0029C38.4098 28.2681 38.1572 28.5225 37.7075 28.71C37.2579 28.8976 36.648 29.0029 36.0122 29.0029ZM36.0122 25.0029H11.9882C11.3523 25.0029 10.7425 24.8976 10.2928 24.71C9.84318 24.5225 9.59058 24.2681 9.59058 24.0029C9.59058 23.7377 9.84318 23.4834 10.2928 23.2958C10.7425 23.1083 11.3523 23.0029 11.9882 23.0029H36.0122C36.648 23.0029 37.2579 23.1083 37.7075 23.2958C38.1572 23.4834 38.4098 23.7377 38.4098 24.0029C38.4098 24.2681 38.1572 24.5225 37.7075 24.71C37.2579 24.8976 36.648 25.0029 36.0122 25.0029ZM36.0122 21.0029H11.9882C11.3523 21.0029 10.7425 20.8976 10.2928 20.71C9.84318 20.5225 9.59058 20.2681 9.59058 20.0029C9.59058 19.7377 9.84318 19.4834 10.2928 19.2958C10.7425 19.1083 11.3523 19.0029 11.9882 19.0029H36.0122C36.648 19.0029 37.2579 19.1083 37.7075 19.2958C38.1572 19.4834 38.4098 19.7377 38.4098 20.0029C38.4098 20.2681 38.1572 20.5225 37.7075 20.71C37.2579 20.8976 36.648 21.0029 36.0122 21.0029Z" fill="black"/>
</g>
<defs>
<clipPath id="clip0_6013_52725">
<rect width="48" height="48" fill="white" transform="translate(0 0.00292969)"/>
</clipPath>
</defs>
</svg>
