<svg width="48" height="44" viewBox="0 0 48 44" fill="none" xmlns="http://www.w3.org/2000/svg">
<g clip-path="url(#clip0_6013_52727)">
<path d="M38.8571 0.00292969H9.14286C6.71802 0.00292969 4.3925 0.845516 2.67788 2.34533C0.963263 3.84514 0 5.87933 0 8.00038L0 26.9943C0 29.1154 0.963263 31.1496 2.67788 32.6494C4.3925 34.1492 6.71802 34.9918 9.14286 34.9918H25.1429L35.2114 43.799C35.3239 43.8955 35.4665 43.9607 35.6213 43.9866C35.776 44.0125 35.9361 43.9978 36.0813 43.9444C36.2266 43.891 36.3506 43.8013 36.4378 43.6865C36.525 43.5717 36.5715 43.437 36.5714 43.2992V34.9918H38.8571C41.282 34.9918 43.6075 34.1492 45.3221 32.6494C47.0367 31.1496 48 29.1154 48 26.9943V8.00038C48 5.87933 47.0367 3.84514 45.3221 2.34533C43.6075 0.845516 41.282 0.00292969 38.8571 0.00292969ZM24 27.994C23.5479 27.994 23.106 27.8768 22.7301 27.6571C22.3542 27.4374 22.0613 27.1251 21.8883 26.7598C21.7153 26.3944 21.67 25.9924 21.7582 25.6046C21.8464 25.2168 22.0641 24.8605 22.3838 24.5809C22.7034 24.3013 23.1107 24.1109 23.5541 24.0337C23.9975 23.9566 24.457 23.9962 24.8747 24.1475C25.2924 24.2988 25.6493 24.5551 25.9005 24.8839C26.1517 25.2127 26.2857 25.5992 26.2857 25.9947C26.2839 26.5244 26.0425 27.0321 25.6142 27.4067C25.186 27.7813 24.6057 27.9924 24 27.994ZM26.2857 18.9969C26.2857 19.5271 26.0449 20.0357 25.6162 20.4106C25.1876 20.7856 24.6062 20.9963 24 20.9963C23.3938 20.9963 22.8124 20.7856 22.3838 20.4106C21.9551 20.0357 21.7143 19.5271 21.7143 18.9969V8.00038C21.7143 7.47012 21.9551 6.96157 22.3838 6.58662C22.8124 6.21167 23.3938 6.00102 24 6.00102C24.6062 6.00102 25.1876 6.21167 25.6162 6.58662C26.0449 6.96157 26.2857 7.47012 26.2857 8.00038V18.9969Z" fill="black"/>
</g>
<defs>
<clipPath id="clip0_6013_52727">
<rect width="48" height="44" fill="white" transform="translate(0 0.00292969)"/>
</clipPath>
</defs>
</svg>
