<svg width="48" height="48" viewBox="0 0 48 48" fill="none" xmlns="http://www.w3.org/2000/svg">
<g clip-path="url(#clip0_6013_52729)">
<path d="M42.32 31.1689C43.564 32.8629 48 39.1199 48 41.9789C48 43.5702 47.3679 45.0964 46.2426 46.2216C45.1174 47.3468 43.5913 47.9789 42 47.9789C40.4087 47.9789 38.8826 47.3468 37.7574 46.2216C36.6321 45.0964 36 43.5702 36 41.9789C36 39.1199 40.436 32.8629 41.68 31.1689C41.7162 31.1178 41.7642 31.076 41.8198 31.0472C41.8755 31.0184 41.9373 31.0033 42 31.0033C42.0627 31.0033 42.1245 31.0184 42.1802 31.0472C42.2358 31.076 42.2838 31.1178 42.32 31.1689ZM2 1.00293H5C5.53043 1.00293 6.03914 1.21364 6.41421 1.58872C6.78929 1.96379 7 2.4725 7 3.00293V8.00293H19V3.00293H14.5C14.1022 3.00293 13.7206 2.84489 13.4393 2.56359C13.158 2.28229 13 1.90075 13 1.50293C13 1.1051 13.158 0.723574 13.4393 0.44227C13.7206 0.160965 14.1022 0.00292969 14.5 0.00292969L28.5 0.00292969C28.8978 0.00292969 29.2794 0.160965 29.5607 0.44227C29.842 0.723574 30 1.1051 30 1.50293C30 1.90075 29.842 2.28229 29.5607 2.56359C29.2794 2.84489 28.8978 3.00293 28.5 3.00293H24V8.00293H34.147C37.2896 8.00637 40.3024 9.25627 42.5245 11.4784C44.7467 13.7005 45.9966 16.7134 46 19.8559V22.0029H47C47.2652 22.0029 47.5196 22.1083 47.7071 22.2958C47.8946 22.4834 48 22.7377 48 23.0029V26.0029C48 26.2681 47.8946 26.5225 47.7071 26.71C47.5196 26.8976 47.2652 27.0029 47 27.0029H37C36.7348 27.0029 36.4804 26.8976 36.2929 26.71C36.1054 26.5225 36 26.2681 36 26.0029V23.0029C36 22.7377 36.1054 22.4834 36.2929 22.2958C36.4804 22.1083 36.7348 22.0029 37 22.0029H38V19.8559C37.9989 18.8344 37.5927 17.855 36.8703 17.1326C36.148 16.4103 35.1686 16.004 34.147 16.0029H7V21.0029C7 21.5334 6.78929 22.0421 6.41421 22.4171C6.03914 22.7922 5.53043 23.0029 5 23.0029H2C1.46957 23.0029 0.960859 22.7922 0.585786 22.4171C0.210714 22.0421 0 21.5334 0 21.0029V3.00293C0 2.4725 0.210714 1.96379 0.585786 1.58872C0.960859 1.21364 1.46957 1.00293 2 1.00293Z" fill="black"/>
</g>
<defs>
<clipPath id="clip0_6013_52729">
<rect width="48" height="48" fill="white" transform="translate(0 0.00292969)"/>
</clipPath>
</defs>
</svg>
