<svg width="48" height="48" viewBox="0 0 48 48" fill="none" xmlns="http://www.w3.org/2000/svg">
<g clip-path="url(#clip0_6013_52732)">
<path d="M24.6071 0.213079C24.5352 0.14764 24.4431 0.0946953 24.3379 0.0582774C24.2327 0.0218596 24.1171 0.00292969 24 0.00292969C23.8829 0.00292969 23.7674 0.0218596 23.6622 0.0582774C23.557 0.0946953 23.4649 0.14764 23.393 0.213079C19.6659 3.61308 3.67292e-05 21.9231 3.67292e-05 30.6131C-0.0715133 35.1732 2.41651 39.5667 6.91707 42.8278C11.4176 46.0888 17.5623 47.9503 24 48.0031C30.4378 47.9503 36.5824 46.0888 41.083 42.8278C45.5836 39.5667 48.0716 35.1732 48 30.6131C48 21.9231 28.3342 3.61308 24.6071 0.213079ZM30.353 41.0031C29.7913 41.0031 29.2527 40.845 28.8556 40.5637C28.4584 40.2824 28.2353 39.9009 28.2353 39.5031C28.2353 39.1053 28.4584 38.7237 28.8556 38.4424C29.2527 38.1611 29.7913 38.0031 30.353 38.0031C33.8542 38.0031 36.7059 35.5331 36.7059 32.5031C36.7059 32.1053 36.929 31.7237 37.3262 31.4424C37.7233 31.1611 38.2619 31.0031 38.8236 31.0031C39.3852 31.0031 39.9238 31.1611 40.321 31.4424C40.7181 31.7237 40.9412 32.1053 40.9412 32.5031C40.9412 37.1931 36.1977 41.0031 30.353 41.0031Z" fill="black"/>
</g>
<defs>
<clipPath id="clip0_6013_52732">
<rect width="48" height="48" fill="white" transform="translate(0 0.00292969)"/>
</clipPath>
</defs>
</svg>
