<svg width="48" height="30" viewBox="0 0 48 30" fill="none" xmlns="http://www.w3.org/2000/svg">
<g clip-path="url(#clip0_6013_52734)">
<path fill-rule="evenodd" clip-rule="evenodd" d="M43 14.0029V12.0029C42.9987 10.412 42.3661 8.88669 41.2412 7.76175C40.1162 6.63682 38.5909 6.00426 37 6.00293H33V3.00293C33.0005 2.60882 32.9233 2.21847 32.7727 1.85426C32.6221 1.49004 32.4012 1.15912 32.1225 0.880438C31.8438 0.601757 31.5129 0.380799 31.1487 0.230221C30.7845 0.0796437 30.3941 0.00240582 30 0.00293236H3C2.60589 0.00240582 2.21554 0.0796437 1.85133 0.230221C1.48712 0.380799 1.15619 0.601757 0.877508 0.880438C0.598827 1.15912 0.377869 1.49004 0.227292 1.85426C0.0767141 2.21847 -0.000523864 2.60882 2.67404e-06 3.00293V26.0029H5C5 24.4116 5.63214 22.8855 6.75736 21.7603C7.88258 20.6351 9.4087 20.0029 11 20.0029C12.5913 20.0029 14.1174 20.6351 15.2426 21.7603C16.3679 22.8855 17 24.4116 17 26.0029H29C29 24.4116 29.6321 22.8855 30.7574 21.7603C31.8826 20.6351 33.4087 20.0029 35 20.0029C36.5913 20.0029 38.1174 20.6351 39.2426 21.7603C40.3679 22.8855 41 24.4116 41 26.0029H46C46.5299 26.0013 47.0377 25.7901 47.4125 25.4154C47.7872 25.0407 47.9984 24.5329 48 24.0029V19.0029C48 18.3463 47.8707 17.6961 47.6194 17.0895C47.3681 16.4829 46.9998 15.9317 46.5355 15.4674C46.0712 15.0031 45.5201 14.6348 44.9134 14.3835C44.3068 14.1323 43.6566 14.0029 43 14.0029ZM17 16.0029C16.476 16.0042 15.9569 15.9023 15.4723 15.703C14.9877 15.5037 14.5471 15.2109 14.1757 14.8414C13.8043 14.4718 13.5093 14.0327 13.3075 13.5491C13.1058 13.0655 13.0013 12.5469 13 12.0229C13 10.0229 16.28 5.83293 16.9 5.05293C16.9109 5.03643 16.9258 5.02289 16.9433 5.01353C16.9607 5.00417 16.9802 4.99927 17 4.99927C17.0198 4.99927 17.0393 5.00417 17.0567 5.01353C17.0742 5.02289 17.0891 5.03643 17.1 5.05293C17.72 5.83293 21 10.0229 21 12.0229C20.9987 12.5469 20.8942 13.0655 20.6925 13.5491C20.4907 14.0327 20.1957 14.4718 19.8243 14.8414C19.4529 15.2109 19.0123 15.5037 18.5277 15.703C18.0431 15.9023 17.524 16.0042 17 16.0029ZM37 9.00293C37.3941 9.00241 37.7845 9.07964 38.1487 9.23022C38.5129 9.3808 38.8438 9.60176 39.1225 9.88044C39.4012 10.1591 39.6221 10.49 39.7727 10.8543C39.9233 11.2185 40.0005 11.6088 40 12.0029V14.0029H33V9.00293H37Z" fill="black"/>
<path d="M11 30.0029C13.2091 30.0029 15 28.2121 15 26.0029C15 23.7938 13.2091 22.0029 11 22.0029C8.79086 22.0029 7 23.7938 7 26.0029C7 28.2121 8.79086 30.0029 11 30.0029Z" fill="black"/>
<path d="M35 30.0029C37.2091 30.0029 39 28.2121 39 26.0029C39 23.7938 37.2091 22.0029 35 22.0029C32.7909 22.0029 31 23.7938 31 26.0029C31 28.2121 32.7909 30.0029 35 30.0029Z" fill="black"/>
</g>
<defs>
<clipPath id="clip0_6013_52734">
<rect width="48" height="30" fill="white" transform="translate(0 0.00292969)"/>
</clipPath>
</defs>
</svg>
