<svg width="48" height="48" viewBox="0 0 48 48" fill="none" xmlns="http://www.w3.org/2000/svg">
<g clip-path="url(#clip0_6013_52739)">
<path d="M47.902 19.4028C46.4048 14.9126 43.8834 10.8315 40.5367 7.48154C37.1901 4.13162 33.1098 1.60457 28.618 0.0998633C28.3682 0.0187253 28.1048 -0.0124599 27.8429 0.00808841C27.581 0.0286367 27.3257 0.100516 27.0916 0.219622C26.8575 0.338729 26.6492 0.50273 26.4785 0.702261C26.3079 0.901793 26.1782 1.13295 26.097 1.38253C26.0158 1.63211 25.9846 1.89522 26.0051 2.15686C26.0257 2.41849 26.0977 2.67351 26.2169 2.90736C26.3361 3.14122 26.5003 3.34932 26.7 3.51979C26.8998 3.69026 27.1312 3.81977 27.381 3.9009C31.2751 5.20572 34.8122 7.39691 37.7132 10.3015C40.6142 13.206 42.7997 16.7445 44.097 20.6375C44.1782 20.8871 44.3077 21.1182 44.4783 21.3178C44.6489 21.5173 44.8572 21.6814 45.0912 21.8005C45.3253 21.9197 45.5805 21.9916 45.8424 22.0122C46.1043 22.0328 46.3677 22.0017 46.6175 21.9206C46.8673 21.8396 47.0987 21.7101 47.2985 21.5397C47.4983 21.3693 47.6625 21.1613 47.7818 20.9275C47.901 20.6936 47.973 20.4387 47.9937 20.177C48.0143 19.9154 47.9832 19.6523 47.902 19.4028ZM25.767 7.18748C25.2795 6.99559 24.7361 7.00249 24.2536 7.2067C23.7711 7.41091 23.3881 7.79612 23.187 8.27948C22.9859 8.76284 22.9827 9.30574 23.1781 9.79142C23.3735 10.2771 23.752 10.6668 24.232 10.8766C27.168 12.0076 29.8343 13.74 32.0595 15.9626C34.2847 18.1851 36.0194 20.8485 37.152 23.7812C37.3617 24.2605 37.7513 24.6386 38.237 24.8341C38.7228 25.0297 39.2659 25.0271 39.7497 24.827C40.2336 24.6268 40.6195 24.2451 40.8247 23.7638C41.0299 23.2824 41.0379 22.7399 40.847 22.2528C39.5078 18.8394 37.477 15.7393 34.882 13.1469C32.287 10.5544 29.1838 8.52554 25.767 7.18748ZM22.98 14.2831C22.5183 14.0308 21.9756 13.9705 21.4696 14.1153C20.9637 14.2601 20.5352 14.5982 20.2772 15.0564C20.0192 15.5146 19.9523 16.056 20.0912 16.5631C20.2301 17.0702 20.5634 17.5022 21.019 17.7655C24.9268 19.8854 28.1357 23.0916 30.257 26.9958C30.5176 27.4575 30.9511 27.7969 31.4621 27.9392C31.9731 28.0816 32.5199 28.0154 32.982 27.7551C33.4441 27.4948 33.7838 27.0617 33.9264 26.5512C34.0689 26.0407 34.0026 25.4946 33.742 25.0329C31.2538 20.4983 27.5197 16.7679 22.98 14.2831ZM21.588 23.6084L20.244 24.9999L12.512 18.217C12.3674 18.0992 12.1866 18.0348 12 18.0348C11.8134 18.0348 11.6326 18.0992 11.488 18.217L0.144 28.1676C0.100827 28.2051 0.0657835 28.2511 0.0410211 28.3026C0.0162587 28.3542 0.00229945 28.4102 0 28.4673L0 48.003H9V40.5897C9 40.1713 9.16633 39.7699 9.46242 39.474C9.75851 39.178 10.1601 39.0116 10.579 39.0113H13.421C13.6285 39.0115 13.8339 39.0524 14.0256 39.1319C14.2172 39.2113 14.3913 39.3277 14.5379 39.4743C14.6846 39.621 14.8008 39.7951 14.8801 39.9866C14.9594 40.1781 15.0001 40.3834 15 40.5907V48.003H24V28.4693C23.9977 28.4122 23.9837 28.3562 23.959 28.3046C23.9342 28.2531 23.8992 28.2071 23.856 28.1696L23.247 27.6352L24.407 26.4274C24.781 26.0539 24.991 25.5472 24.991 25.0189C24.991 24.4906 24.781 23.9839 24.407 23.6104C24.033 23.2368 23.5259 23.0269 22.997 23.0269C22.4681 23.0269 21.961 23.2368 21.587 23.6104" fill="black"/>
</g>
<defs>
<clipPath id="clip0_6013_52739">
<rect width="48" height="48" fill="white" transform="translate(0 0.00292969)"/>
</clipPath>
</defs>
</svg>
