<svg width="48" height="48" viewBox="0 0 48 48" fill="none" xmlns="http://www.w3.org/2000/svg">
<g clip-path="url(#clip0_6013_52741)">
<path d="M27.9634 19.0029H20.0366C19.2152 19.0156 18.3986 18.9085 17.6347 18.688C16.8708 18.4675 16.1749 18.1381 15.5879 17.719C15.0009 17.2999 14.5345 16.7995 14.2161 16.2473C13.8977 15.695 13.7337 15.102 13.7337 14.5029C13.7337 13.9039 13.8977 13.3108 14.2161 12.7586C14.5345 12.2063 15.0009 11.706 15.5879 11.2869C16.1749 10.8678 16.8708 10.5383 17.6347 10.3178C18.3986 10.0974 19.2152 9.9903 20.0366 10.0029H24.6857C26.5044 10.0029 28.2485 9.47615 29.5345 8.53846C30.8204 7.60078 31.5429 6.32901 31.5429 5.00293C31.5429 3.67685 30.8204 2.40508 29.5345 1.4674C28.2485 0.529714 26.5044 0.00292969 24.6857 0.00292969L20.0366 0.00292969C14.7626 0.00292969 9.70457 1.5306 5.97527 4.24988C2.24598 6.96916 0.150879 10.6573 0.150879 14.5029C0.150879 18.3486 2.24598 22.0367 5.97527 24.756C9.70457 27.4753 14.7626 29.0029 20.0366 29.0029H27.9634C28.7848 28.9903 29.6014 29.0974 30.3653 29.3178C31.1292 29.5383 31.8251 29.8678 32.4121 30.2869C32.9992 30.706 33.4656 31.2063 33.784 31.7586C34.1024 32.3108 34.2664 32.9039 34.2664 33.5029C34.2664 34.102 34.1024 34.695 33.784 35.2473C33.4656 35.7995 32.9992 36.2999 32.4121 36.719C31.8251 37.1381 31.1292 37.4675 30.3653 37.688C29.6014 37.9085 28.7848 38.0156 27.9634 38.0029H19.2C17.3814 38.0029 15.6373 38.5297 14.3513 39.4674C13.0653 40.4051 12.3429 41.6768 12.3429 43.0029C12.3429 44.329 13.0653 45.6008 14.3513 46.5385C15.6373 47.4761 17.3814 48.0029 19.2 48.0029H27.9634C33.2375 48.0029 38.2955 46.4753 42.0248 43.756C45.7541 41.0367 47.8492 37.3486 47.8492 33.5029C47.8492 29.6573 45.7541 25.9692 42.0248 23.2499C38.2955 20.5306 33.2375 19.0029 27.9634 19.0029ZM22.6286 2.00293C23.0355 2.00293 23.4332 2.0909 23.7715 2.25573C24.1098 2.42055 24.3734 2.65482 24.5291 2.9289C24.6848 3.20299 24.7256 3.50459 24.6462 3.79557C24.5668 4.08654 24.3709 4.35381 24.0832 4.56359C23.7955 4.77337 23.429 4.91623 23.0299 4.97411C22.6309 5.03199 22.2173 5.00228 21.8414 4.88875C21.4655 4.77522 21.1442 4.58296 20.9181 4.33629C20.6921 4.08961 20.5715 3.7996 20.5715 3.50293C20.5715 3.1051 20.7882 2.72357 21.174 2.44227C21.5598 2.16096 22.083 2.00293 22.6286 2.00293Z" fill="black"/>
</g>
<defs>
<clipPath id="clip0_6013_52741">
<rect width="48" height="48" fill="white" transform="translate(0 0.00292969)"/>
</clipPath>
</defs>
</svg>
