<svg width="48" height="32" viewBox="0 0 48 32" fill="none" xmlns="http://www.w3.org/2000/svg">
<g clip-path="url(#clip0_6013_52743)">
<path d="M40.3636 0.94293V0.00292969L48 7.00293H41.2145C41.1028 7.00293 40.9922 6.98275 40.8889 6.94356C40.7857 6.90436 40.6919 6.8469 40.6129 6.77447C40.5339 6.70204 40.4712 6.61606 40.4284 6.52142C40.3857 6.42679 40.3636 6.32536 40.3636 6.22293V0.94293ZM48 9.00293V30.0029C48 30.5334 47.7701 31.0421 47.361 31.4171C46.9518 31.7922 46.3968 32.0029 45.8182 32.0029H2.18182C1.60316 32.0029 1.04821 31.7922 0.63904 31.4171C0.22987 31.0421 0 30.5334 0 30.0029V2.00293C0 1.4725 0.22987 0.963789 0.63904 0.588716C1.04821 0.213643 1.60316 0.00292969 2.18182 0.00292969L38.1818 0.00292969V6.22293C38.1827 6.95999 38.5025 7.66663 39.071 8.18781C39.6396 8.70899 40.4105 9.00214 41.2145 9.00293H48ZM10.4924 18.0029L12.9764 13.4499C13.0404 13.3324 13.0786 13.2045 13.0887 13.0734C13.0987 12.9424 13.0806 12.8108 13.0352 12.6861C12.9898 12.5615 12.9181 12.4463 12.8242 12.3471C12.7302 12.2479 12.6159 12.1666 12.4876 12.1079C12.3594 12.0492 12.2198 12.0143 12.0769 12.005C11.9339 11.9957 11.7904 12.0124 11.6544 12.054C11.5185 12.0956 11.3928 12.1613 11.2846 12.2475C11.1763 12.3336 11.0877 12.4384 11.0236 12.5559L9.27273 15.7659L7.52182 12.5559C7.39249 12.3186 7.16559 12.138 6.89104 12.054C6.61648 11.97 6.31677 11.9894 6.05782 12.1079C5.79887 12.2265 5.6019 12.4345 5.51025 12.6861C5.4186 12.9378 5.43976 13.2126 5.56909 13.4499L8.05309 18.0029L5.56909 22.5559C5.43976 22.7933 5.4186 23.068 5.51025 23.3197C5.6019 23.5714 5.79887 23.7794 6.05782 23.8979C6.31677 24.0165 6.61648 24.0359 6.89104 23.9519C7.16559 23.8678 7.39249 23.6873 7.52182 23.4499L9.27273 20.2399L11.0236 23.4499C11.0877 23.5675 11.1763 23.6723 11.2846 23.7584C11.3928 23.8445 11.5185 23.9103 11.6544 23.9519C11.7904 23.9935 11.9339 24.0101 12.0769 24.0009C12.2198 23.9916 12.3594 23.9566 12.4876 23.8979C12.6159 23.8392 12.7302 23.758 12.8242 23.6587C12.9181 23.5595 12.9898 23.4443 13.0352 23.3197C13.0806 23.1951 13.0987 23.0635 13.0887 22.9325C13.0786 22.8014 13.0404 22.6735 12.9764 22.5559L10.4924 18.0029ZM22.9091 23.0029C22.9091 22.7377 22.7942 22.4834 22.5896 22.2958C22.385 22.1083 22.1075 22.0029 21.8182 22.0029H17.4545V13.0029C17.4545 12.7377 17.3396 12.4834 17.135 12.2958C16.9304 12.1083 16.653 12.0029 16.3636 12.0029C16.0743 12.0029 15.7968 12.1083 15.5922 12.2958C15.3877 12.4834 15.2727 12.7377 15.2727 13.0029V23.0029C15.2727 23.2681 15.3877 23.5225 15.5922 23.71C15.7968 23.8976 16.0743 24.0029 16.3636 24.0029H21.8182C22.1075 24.0029 22.385 23.8976 22.5896 23.71C22.7942 23.5225 22.9091 23.2681 22.9091 23.0029ZM31.6364 20.0029C31.6355 19.2075 31.2904 18.4449 30.6768 17.8825C30.0633 17.32 29.2314 17.0037 28.3636 17.0029H27.2727C26.9834 17.0029 26.7059 16.8976 26.5013 16.71C26.2968 16.5225 26.1818 16.2681 26.1818 16.0029V15.0029C26.1818 14.7377 26.2968 14.4834 26.5013 14.2958C26.7059 14.1083 26.9834 14.0029 27.2727 14.0029H29.4545C29.7439 14.0029 30.0214 13.8976 30.2259 13.71C30.4305 13.5225 30.5455 13.2681 30.5455 13.0029C30.5455 12.7377 30.4305 12.4834 30.2259 12.2958C30.0214 12.1083 29.7439 12.0029 29.4545 12.0029H27.2727C26.405 12.0037 25.5731 12.32 24.9595 12.8825C24.3459 13.4449 24.0009 14.2075 24 15.0029V16.0029C24.0009 16.7983 24.3459 17.5609 24.9595 18.1234C25.5731 18.6858 26.405 19.0021 27.2727 19.0029H28.3636C28.653 19.0029 28.9304 19.1083 29.135 19.2958C29.3396 19.4834 29.4545 19.7377 29.4545 20.0029V21.0029C29.4545 21.2681 29.3396 21.5225 29.135 21.71C28.9304 21.8976 28.653 22.0029 28.3636 22.0029H25.0909C24.8016 22.0029 24.5241 22.1083 24.3195 22.2958C24.1149 22.4834 24 22.7377 24 23.0029C24 23.2681 24.1149 23.5225 24.3195 23.71C24.5241 23.8976 24.8016 24.0029 25.0909 24.0029H28.3636C29.2314 24.0021 30.0633 23.6858 30.6768 23.1234C31.2904 22.5609 31.6355 21.7983 31.6364 21.0029V20.0029ZM38.856 18.0029L41.34 13.4499C41.404 13.3324 41.4422 13.2045 41.4523 13.0734C41.4624 12.9424 41.4442 12.8108 41.3988 12.6861C41.3535 12.5615 41.2817 12.4463 41.1878 12.3471C41.0938 12.2479 40.9795 12.1666 40.8513 12.1079C40.7231 12.0492 40.5835 12.0143 40.4405 12.005C40.2976 11.9957 40.154 12.0124 40.0181 12.054C39.8821 12.0956 39.7564 12.1613 39.6482 12.2475C39.54 12.3336 39.4513 12.4384 39.3873 12.5559L37.6364 15.7659L35.8855 12.5559C35.7561 12.3186 35.5292 12.138 35.2547 12.054C34.9801 11.97 34.6804 11.9894 34.4215 12.1079C34.1625 12.2265 33.9655 12.4345 33.8739 12.6861C33.7822 12.9378 33.8034 13.2126 33.9327 13.4499L36.4167 18.0029L33.9327 22.5559C33.8034 22.7933 33.7822 23.068 33.8739 23.3197C33.9655 23.5714 34.1625 23.7794 34.4215 23.8979C34.6804 24.0165 34.9801 24.0359 35.2547 23.9519C35.5292 23.8678 35.7561 23.6873 35.8855 23.4499L37.6364 20.2399L39.3873 23.4499C39.5166 23.6873 39.7435 23.8678 40.0181 23.9519C40.2926 24.0359 40.5923 24.0165 40.8513 23.8979C41.1102 23.7794 41.3072 23.5714 41.3988 23.3197C41.4905 23.068 41.4693 22.7933 41.34 22.5559L38.856 18.0029Z" fill="black"/>
</g>
<defs>
<clipPath id="clip0_6013_52743">
<rect width="48" height="32" fill="white" transform="translate(0 0.00292969)"/>
</clipPath>
</defs>
</svg>
