<svg width="48" height="44" viewBox="0 0 48 44" fill="none" xmlns="http://www.w3.org/2000/svg">
<g clip-path="url(#clip0_6013_52745)">
<path d="M45 0.00292969H37.5V3.00293H33V6.00293H37.5V9.00293H33V12.0029H37.5V21.0029C37.4988 21.2679 37.3404 21.5218 37.0593 21.7092C36.7783 21.8965 36.3975 22.0021 36 22.0029H28.5C28.1025 22.0021 27.7217 21.8965 27.4407 21.7092C27.1596 21.5218 27.0012 21.2679 27 21.0029V15.0029H31.5V12.0029H27V9.00293H31.5V6.00293H27V3.00293H31.5V0.00292969H3C2.20508 0.00451241 1.4434 0.215734 0.881302 0.590465C0.319207 0.965195 0.00237409 1.47298 0 2.00293L0 42.0029C0.00237409 42.5329 0.319207 43.0407 0.881302 43.4154C1.4434 43.7901 2.20508 44.0013 3 44.0029H31.5V37.0029C31.5 35.9421 32.1321 34.9246 33.2574 34.1745C34.3826 33.4244 35.9087 33.0029 37.5 33.0029H48V2.00293C47.9976 1.47298 47.6808 0.965195 47.1187 0.590465C46.5566 0.215734 45.7949 0.00451241 45 0.00292969Z" fill="black"/>
<path d="M34.5 37.0029V44.0029L48 35.0029H37.5C36.7051 35.0045 35.9434 35.2157 35.3813 35.5905C34.8192 35.9652 34.5024 36.473 34.5 37.0029Z" fill="black"/>
<path d="M30 17.0029H34.5V20.0029H30V17.0029Z" fill="black"/>
</g>
<defs>
<clipPath id="clip0_6013_52745">
<rect width="48" height="44" fill="white" transform="translate(0 0.00292969)"/>
</clipPath>
</defs>
</svg>
